<svg xmlns="http://www.w3.org/2000/svg" viewBox="0 0 442.04 89.53"><defs><style>.cls-1{fill:none;stroke:#717071;stroke-miterlimit:10;}.cls-2{fill:gray;}.cls-3{fill:#faf9eb;}</style></defs><g id="レイヤー_2" data-name="レイヤー 2"><g id="テキスト"><rect class="cls-1" x="0.5" y="0.5" width="441.04" height="88.53"/><rect class="cls-2" x="10.5" y="10.5" width="421.04" height="68.53"/><path class="cls-3" d="M90.92,39c1.25.09,2.73.13,4.42.13h8.12a2.42,2.42,0,0,0,1.05-.18.68.68,0,0,1,.27-.07.57.57,0,0,1,.32.09,5.59,5.59,0,0,1,.82.78.41.41,0,0,1,.1.27.37.37,0,0,1-.15.3,1.87,1.87,0,0,0-.5.77,24.24,24.24,0,0,1-4.53,7.57A25.73,25.73,0,0,1,94,54.2a.57.57,0,0,1-.29.09.45.45,0,0,1-.33-.14,3.38,3.38,0,0,0-.9-.64A23.54,23.54,0,0,0,97,50.67a25.14,25.14,0,0,0,2.8-2.73,22.25,22.25,0,0,0,4.5-7.66h-9c-1.5,0-2.8,0-3.9.13h-.09c-.18,0-.29-.12-.33-.35C91,39.51,90.92,39.16,90.92,39Zm13.87-2.59.69-.48.1,0,.09,0a10.11,10.11,0,0,1,2.59,2.79.16.16,0,0,1,0,.1s0,.06-.07.11l-.55.46a.16.16,0,0,1-.1,0,.21.21,0,0,1-.16-.1A10.44,10.44,0,0,0,104.79,36.44Zm1.94-1.52.59-.46a.22.22,0,0,1,.12-.06.16.16,0,0,1,.09,0,10.2,10.2,0,0,1,2.6,2.76.19.19,0,0,1,0,.11c0,.05,0,.09-.09.13l-.52.46a.21.21,0,0,1-.11,0,.17.17,0,0,1-.13-.09A10.29,10.29,0,0,0,106.73,34.92Z"/><path class="cls-3" d="M114.29,42.08c1.13.09,2.47.14,4,.14h8a2.43,2.43,0,0,0,1.06-.14.57.57,0,0,1,.28-.08.48.48,0,0,1,.34.13,4.19,4.19,0,0,1,.63.59.62.62,0,0,1,.11.32.29.29,0,0,1-.15.25,1.55,1.55,0,0,0-.48.62,20.49,20.49,0,0,1-9.71,10.49.72.72,0,0,1-.27.08.27.27,0,0,1-.22-.1,2.91,2.91,0,0,0-1-.64,18.85,18.85,0,0,0,10-10.42h-8.65c-1,0-2.22,0-3.56.15l-.07,0c-.13,0-.21-.08-.25-.24C114.35,42.75,114.31,42.36,114.29,42.08Zm2-4.76c1,.09,2.29.13,3.73.13h3.35c1.31,0,2.49,0,3.54-.1h.07c.1,0,.16.08.16.24a3.79,3.79,0,0,1,0,.38c0,.15,0,.28,0,.39s-.09.26-.25.26c-1.16,0-2.32-.06-3.47-.06h-3.45q-2,0-3.33.09c-.17,0-.26-.09-.28-.27C116.27,37.82,116.25,37.47,116.25,37.32Z"/><path class="cls-3" d="M134.47,39.44c.21-.26.44-.53.71-.81a.34.34,0,0,1,.2-.1.38.38,0,0,1,.17.06,22.54,22.54,0,0,1,4,3,.31.31,0,0,1,.13.21.32.32,0,0,1-.06.16,5.62,5.62,0,0,1-.62.75.24.24,0,0,1-.16.1.23.23,0,0,1-.14-.08A24.1,24.1,0,0,0,134.47,39.44ZM135,51.72a10,10,0,0,0,2.22-.86,41.23,41.23,0,0,0,6.65-4.24,36.82,36.82,0,0,0,6.13-6.1,3.09,3.09,0,0,0,.35,1.12.65.65,0,0,1,.06.25.71.71,0,0,1-.2.45,40.5,40.5,0,0,1-5.66,5.36,53.12,53.12,0,0,1-6.87,4.46,4.68,4.68,0,0,0-1.18.87.38.38,0,0,1-.25.14A.45.45,0,0,1,136,53,8.66,8.66,0,0,1,135,51.72Z"/><path class="cls-3" d="M160.45,42.85A30.55,30.55,0,0,1,168,46c.11.07.16.13.16.2a.34.34,0,0,1,0,.09,5.34,5.34,0,0,1-.42.83.25.25,0,0,1-.2.13.37.37,0,0,1-.19-.07,25.75,25.75,0,0,0-6.85-3.11v5.82c0,.13,0,1.59.07,4.38,0,.19-.09.28-.26.28h-.9c-.19,0-.28-.1-.28-.3.07-1.84.1-3.29.1-4.33V39a14.87,14.87,0,0,0-.26-3.09,7.26,7.26,0,0,1,1.59.26.27.27,0,0,1,.23.27.92.92,0,0,1-.09.32,6.79,6.79,0,0,0-.2,2.11Zm5.14-5.62.69-.48a.16.16,0,0,1,.09,0,.12.12,0,0,1,.09,0,10.08,10.08,0,0,1,2.6,2.78.21.21,0,0,1,.05.09.16.16,0,0,1-.07.11l-.55.46a.15.15,0,0,1-.11.06s-.09,0-.15-.1A10.3,10.3,0,0,0,165.59,37.23Zm1.94-1.43.59-.46a.28.28,0,0,1,.12-.05.13.13,0,0,1,.08,0A11.27,11.27,0,0,1,170.93,38a.35.35,0,0,1,0,.12.17.17,0,0,1-.08.14l-.54.46a.12.12,0,0,1-.09,0s-.08,0-.13-.09A10.7,10.7,0,0,0,167.53,35.8Z"/><path class="cls-3" d="M188.32,41.73h.85c1.63,0,2.89,0,3.77-.06.19,0,.28.08.28.25v.71c0,.17-.06.26-.18.26h-.1c-.87,0-2.12-.05-3.75-.05h-.87a15.12,15.12,0,0,1-1.61,7.36,10.4,10.4,0,0,1-5.66,4.44.74.74,0,0,1-.22,0,.38.38,0,0,1-.24-.14,3,3,0,0,0-.91-.64c2.92-.87,4.93-2.31,6-4.3a14.72,14.72,0,0,0,1.4-6.77h-6.19v1.25c0,.52,0,1.18,0,2,0,1,0,1.57,0,1.7a.18.18,0,0,1-.2.21l-.44,0-.46,0c-.13,0-.2-.08-.2-.23,0-2.39.07-3.59.07-3.62v-1.3h-1.39c-1.2,0-2.34,0-3.42.08h-.07c-.1,0-.17-.09-.19-.28s0-.45-.07-1q1.73.09,3.75.09h1.39v-2a15.34,15.34,0,0,0-.28-3.16,6.64,6.64,0,0,1,1.56.26.24.24,0,0,1,.2.24.75.75,0,0,1-.11.33,7,7,0,0,0-.21,2.33v2h6.19v-2a19.67,19.67,0,0,0-.22-3.53,7.13,7.13,0,0,1,1.44.26c.18,0,.27.15.27.29a.59.59,0,0,1-.08.26,9,9,0,0,0-.21,2.63Z"/><path class="cls-3" d="M206.94,41.83v8.42c0,1.27,0,2.58.07,3.93,0,.15-.07.23-.2.23h-1c-.12,0-.18-.08-.18-.23,0-1.31.06-2.59.06-3.87V43a43.81,43.81,0,0,1-7.54,5.44.32.32,0,0,1-.17.06.37.37,0,0,1-.25-.12,2.15,2.15,0,0,0-.86-.6A42.78,42.78,0,0,0,204,42.87a37.13,37.13,0,0,0,4.57-4.63A7.13,7.13,0,0,0,209.89,36a4.53,4.53,0,0,1,1.29.88.37.37,0,0,1,.12.27.29.29,0,0,1-.19.28,6.25,6.25,0,0,0-1.25,1.2A40.13,40.13,0,0,1,206.94,41.83Z"/><path class="cls-3" d="M222.23,42.85A30.71,30.71,0,0,1,229.74,46c.11.07.16.13.16.2s0,.05,0,.09a5.34,5.34,0,0,1-.42.83c-.07.09-.13.13-.2.13a.34.34,0,0,1-.19-.07,25.89,25.89,0,0,0-6.85-3.11v5.82q0,.19.06,4.38c0,.19-.08.28-.25.28h-.9c-.19,0-.28-.1-.28-.3.07-1.84.1-3.29.1-4.33V39a14.87,14.87,0,0,0-.26-3.09,7,7,0,0,1,1.58.26.27.27,0,0,1,.24.27.92.92,0,0,1-.09.32,6.48,6.48,0,0,0-.2,2.11Z"/><path class="cls-3" d="M246,36.75v1.31h-5.4V53.51h-1.52V38.06H233.7V36.75Z"/><path class="cls-3" d="M255.61,36.44a6,6,0,0,1,5.1,2.58,10.05,10.05,0,0,1,1.71,6.09,9.61,9.61,0,0,1-2.19,6.72,6.31,6.31,0,0,1-9.71-.57,10.07,10.07,0,0,1-1.71-6.09A9.61,9.61,0,0,1,251,38.44,6,6,0,0,1,255.61,36.44Zm0,1.32a4.46,4.46,0,0,0-3.92,2.15,9.48,9.48,0,0,0-1.28,5.23,8.71,8.71,0,0,0,1.66,5.72,4.4,4.4,0,0,0,3.54,1.67,4.45,4.45,0,0,0,3.93-2.17,9.45,9.45,0,0,0,1.27-5.22,8.71,8.71,0,0,0-1.64-5.72A4.38,4.38,0,0,0,255.61,37.76Z"/><path class="cls-3" d="M267.09,36.75h5.4A6.31,6.31,0,0,1,277,38.11a4.17,4.17,0,0,1,1.24,3.22,4.17,4.17,0,0,1-1.7,3.58A6.91,6.91,0,0,1,272.36,46h-3.75v7.49h-1.52ZM268.61,38v6.76h3.66c2.9,0,4.34-1.14,4.34-3.43S275.21,38,272.4,38Z"/><path class="cls-3" d="M284.93,37.12a5.93,5.93,0,0,1,1.33.55c.17.09.25.18.25.27a.67.67,0,0,1-.16.41,2.49,2.49,0,0,0-.41.95,33.74,33.74,0,0,0-1.14,8.12,21.08,21.08,0,0,0,.39,4.41c.22-.52.53-1.21.92-2.07s.69-1.52.88-2a3,3,0,0,0,.46.7.42.42,0,0,1,.09.22,1.08,1.08,0,0,1-.11.35c-.52,1.19-1,2.43-1.53,3.71a1.32,1.32,0,0,0-.11.53l.06.46a.18.18,0,0,1-.12.17,3,3,0,0,1-.78.18c-.1,0-.18-.07-.24-.2a13.21,13.21,0,0,1-.78-3.25,22.75,22.75,0,0,1-.25-3.36,40.57,40.57,0,0,1,1-8,9.79,9.79,0,0,0,.24-2ZM290,48.69l1,0c.12,0,.17.06.17.18q.08,2.63,4.23,2.63a33.22,33.22,0,0,0,4.57-.33H300c.08,0,.13.07.14.21a6.56,6.56,0,0,1,.05.79c0,.11,0,.18,0,.2a.45.45,0,0,1-.21.07,39.67,39.67,0,0,1-4.26.24,11,11,0,0,1-2.94-.32,4.18,4.18,0,0,1-1.75-1A3.5,3.5,0,0,1,290,48.69Zm.76-7.64v-.92a.31.31,0,0,1,.26-.33,28.53,28.53,0,0,1,4.85-.41c1.29,0,2.35,0,3.19.11.19,0,.28.1.28.23v.79c0,.13,0,.19-.13.19h-.09c-1-.08-2.2-.12-3.51-.12A27.4,27.4,0,0,0,290.74,41.05Z"/><path class="cls-3" d="M308,43.9v.37a26.68,26.68,0,0,1-.44,4.85,13.06,13.06,0,0,1-2.67,5.82c-.11.15-.19.23-.24.23s-.12-.08-.27-.23a1.24,1.24,0,0,0-.61-.44,11.11,11.11,0,0,0,2.78-5.81,35.56,35.56,0,0,0,.4-5.67l-.05-3.7a.14.14,0,0,1,.16-.16l3.33.05h8.52l3.27-.05c.12,0,.17.05.17.16l0,1.55v1.35l0,1.57c0,.1-.05.16-.17.16l-3.27-.05Zm.34-6.76-3.1,0a.14.14,0,0,1-.16-.16v-.72a.14.14,0,0,1,.16-.16l3.1.05h12.61l3.12-.05c.11,0,.17.05.17.16V37a.15.15,0,0,1-.17.16l-3.12,0Zm7.76,11.55q2.51,4.26,8.3,5.72a2.27,2.27,0,0,0-.46.64c-.12.23-.21.34-.28.34a.83.83,0,0,1-.27-.08,17.65,17.65,0,0,1-4.94-2.58,12.06,12.06,0,0,1-3-3.38,6.64,6.64,0,0,1-1.7,2.88A10.4,10.4,0,0,1,311.48,54a16.32,16.32,0,0,1-3.28,1.32l-.25.06c-.08,0-.17-.1-.27-.28a2.12,2.12,0,0,0-.55-.61A16.31,16.31,0,0,0,311,53.11a8.88,8.88,0,0,0,2.13-1.66,6.37,6.37,0,0,0,1.53-2.76h-2.49l-3.24,0c-.11,0-.17,0-.17-.16v-.72c0-.1.06-.15.17-.15l3.26,0h2.65q0-.35.09-1.05c0-.26,0-.5,0-.75a8.28,8.28,0,0,0-.09-1.23,7.88,7.88,0,0,1,1.06.13c.23.06.34.15.34.26a1.85,1.85,0,0,1-.11.38,5.52,5.52,0,0,0-.19,1.09q0,.78-.09,1.17h4.28l3.27,0a.14.14,0,0,1,.16.15v.72a.14.14,0,0,1-.16.16l-3.27,0ZM308,43h13.3V40.13H308Z"/><path class="cls-3" d="M338.45,37.85q-2.38.34-6.19,1a2.67,2.67,0,0,0-.74.24,1,1,0,0,1-.41.11.39.39,0,0,1-.32-.23,7.61,7.61,0,0,1-.48-1.26c.41,0,.78.06,1.12.06a8.06,8.06,0,0,0,.85,0q3-.32,5.89-.83a1.41,1.41,0,0,0,.51-.18.57.57,0,0,1,.27-.14.78.78,0,0,1,.4.18,6,6,0,0,1,.83.79.54.54,0,0,1,.11.32.38.38,0,0,1-.33.39,2.77,2.77,0,0,0-1.12.85q-2.46,2.76-6.21,6.58l.07.09a9.69,9.69,0,0,1,5.42-1.93,5.19,5.19,0,0,1,4,1.53,4.7,4.7,0,0,1,1.2,3.34,5.11,5.11,0,0,1-2.17,4.33,8.66,8.66,0,0,1-5.25,1.47,4.5,4.5,0,0,1-3-.88,2.07,2.07,0,0,1-.75-1.6,2.13,2.13,0,0,1,.74-1.68,2.59,2.59,0,0,1,1.76-.6,3.59,3.59,0,0,1,2.66,1.08,4.59,4.59,0,0,1,1.18,2.32,5.14,5.14,0,0,0,2.71-1.67,4.41,4.41,0,0,0,.92-2.81,3.62,3.62,0,0,0-1.38-3,4.24,4.24,0,0,0-2.71-.9,10.64,10.64,0,0,0-6.49,2.67,21.84,21.84,0,0,0-2,1.81.35.35,0,0,1-.22.13.27.27,0,0,1-.16-.08c-.3-.31-.52-.54-.64-.69a.24.24,0,0,1,0-.12.3.3,0,0,1,.11-.18,67.34,67.34,0,0,0,5.2-5.1C335.33,41.52,336.91,39.71,338.45,37.85Zm-1.1,15.57a3.7,3.7,0,0,0-1-2,2.34,2.34,0,0,0-1.7-.67q-1.56,0-1.56,1.29a1.33,1.33,0,0,0,.76,1.16,3.41,3.41,0,0,0,1.77.4A9.15,9.15,0,0,0,337.35,53.42Z"/></g></g></svg>