<svg xmlns="http://www.w3.org/2000/svg" viewBox="0 0 441.04 88.53"><defs><style>.cls-1{fill:#fff;}.cls-2{fill:#4b80bc;}</style></defs><g id="レイヤー_2" data-name="レイヤー 2"><g id="テキスト"><path class="cls-1" d="M440,1V87.53H1V1H440m1-1H0V88.53H441V0Z"/><rect class="cls-1" x="10" y="10" width="421.04" height="68.53"/><path class="cls-2" d="M99.65,44.73c0,5.93-3.6,9.07-8,9.07-4.55,0-7.74-3.52-7.74-8.73,0-5.47,3.4-9,8-9S99.65,39.62,99.65,44.73ZM86.29,45c0,3.68,2,7,5.5,7s5.51-3.25,5.51-7.15c0-3.43-1.78-7-5.49-7S86.29,41.23,86.29,45Z"/><path class="cls-2" d="M113.78,53.52V36.3h2.42L121.72,45a49.12,49.12,0,0,1,3.09,5.6l0,0c-.2-2.3-.25-4.39-.25-7.07V36.3h2.09V53.52h-2.25L119,44.78A54.85,54.85,0,0,1,115.77,39l-.08,0c.13,2.17.18,4.24.18,7.1v7.36Z"/><path class="cls-2" d="M141.82,36.3H144V51.66h7.36v1.86h-9.58Z"/><path class="cls-2" d="M167.33,36.3V53.52h-2.22V36.3Z"/><path class="cls-2" d="M182.45,53.52V36.3h2.43L190.4,45a50.72,50.72,0,0,1,3.09,5.6l0,0c-.21-2.3-.26-4.39-.26-7.07V36.3h2.1V53.52h-2.25l-5.47-8.74A54.85,54.85,0,0,1,184.44,39l-.07,0c.13,2.17.18,4.24.18,7.1v7.36Z"/><path class="cls-2" d="M219.41,45.45h-6.69v6.21h7.45v1.86h-9.68V36.3h9.3v1.87h-7.07v5.44h6.69Z"/><path class="cls-2" d="M250.64,50.81a7.82,7.82,0,0,0,4,1.13c2.27,0,3.6-1.2,3.6-2.94s-.92-2.53-3.24-3.42c-2.82-1-4.55-2.46-4.55-4.88C250.44,38,252.66,36,256,36a7.71,7.71,0,0,1,3.8.85l-.61,1.81a6.8,6.8,0,0,0-3.27-.82c-2.35,0-3.24,1.41-3.24,2.58,0,1.61,1,2.4,3.42,3.32,2.91,1.13,4.39,2.53,4.39,5.06s-2,5-6,5a8.92,8.92,0,0,1-4.39-1.1Z"/><path class="cls-2" d="M277,36.3v7.21h8.33V36.3h2.24V53.52h-2.24V45.45H277v8.07h-2.22V36.3Z"/><path class="cls-2" d="M317.38,44.73c0,5.93-3.6,9.07-8,9.07s-7.74-3.52-7.74-8.73c0-5.47,3.4-9,8-9S317.38,39.62,317.38,44.73ZM304,45c0,3.68,2,7,5.49,7S315,48.74,315,44.84c0-3.43-1.79-7-5.49-7S304,41.23,304,45Z"/><path class="cls-2" d="M331.5,36.51a25.67,25.67,0,0,1,4.27-.33,7.06,7.06,0,0,1,4.82,1.43,4.6,4.6,0,0,1,1.51,3.6,5.07,5.07,0,0,1-1.33,3.68,7.13,7.13,0,0,1-5.26,1.89,7.54,7.54,0,0,1-1.79-.16v6.9H331.5Zm2.22,8.3a7.37,7.37,0,0,0,1.84.18c2.68,0,4.32-1.3,4.32-3.68s-1.61-3.37-4.06-3.37a9,9,0,0,0-2.1.18Z"/></g></g></svg>