<svg xmlns="http://www.w3.org/2000/svg" viewBox="0 0 442.04 89.53"><defs><style>.cls-1{fill:none;stroke:#8d7c28;stroke-miterlimit:10;}.cls-2{fill:#8d7c28;}.cls-3{fill:#faf9eb;}</style></defs><g id="レイヤー_2" data-name="レイヤー 2"><g id="テキスト"><rect class="cls-1" x="0.5" y="0.5" width="441.04" height="88.53"/><rect class="cls-2" x="10.5" y="10.5" width="421.04" height="68.53"/><path class="cls-3" d="M100.15,45.23c0,5.93-3.6,9.07-8,9.07-4.55,0-7.74-3.52-7.74-8.73,0-5.47,3.4-9,8-9S100.15,40.12,100.15,45.23Zm-13.36.28c0,3.68,2,7,5.5,7s5.51-3.25,5.51-7.16c0-3.42-1.78-7-5.49-7S86.79,41.73,86.79,45.51Z"/><path class="cls-3" d="M114.28,54V36.8h2.42l5.52,8.71a49.12,49.12,0,0,1,3.09,5.6l0,0c-.2-2.3-.25-4.39-.25-7.07V36.8h2.09V54H125l-5.46-8.74a54.85,54.85,0,0,1-3.22-5.74l-.08,0c.13,2.17.18,4.24.18,7.1V54Z"/><path class="cls-3" d="M142.32,36.8h2.22V52.15h7.36V54h-9.58Z"/><path class="cls-3" d="M167.83,36.8V54h-2.22V36.8Z"/><path class="cls-3" d="M183,54V36.8h2.43l5.52,8.71a50.72,50.72,0,0,1,3.09,5.6l0,0c-.21-2.3-.26-4.39-.26-7.07V36.8h2.1V54h-2.25l-5.47-8.74a54.85,54.85,0,0,1-3.22-5.74l-.07,0c.13,2.17.18,4.24.18,7.1V54Z"/><path class="cls-3" d="M219.91,46h-6.69v6.2h7.45V54H211V36.8h9.3v1.87h-7.07v5.44h6.69Z"/><path class="cls-3" d="M251.14,51.31a7.92,7.92,0,0,0,4,1.13c2.27,0,3.6-1.2,3.6-2.94s-.92-2.53-3.24-3.42c-2.82-1-4.55-2.46-4.55-4.88,0-2.69,2.22-4.68,5.57-4.68a7.71,7.71,0,0,1,3.8.85l-.61,1.81a6.8,6.8,0,0,0-3.27-.82c-2.35,0-3.24,1.41-3.24,2.58,0,1.61,1,2.4,3.42,3.32,2.91,1.13,4.39,2.53,4.39,5.06s-2,5-6,5a8.92,8.92,0,0,1-4.39-1.1Z"/><path class="cls-3" d="M277.5,36.8V44h8.33V36.8h2.24V54h-2.24V46H277.5V54h-2.22V36.8Z"/><path class="cls-3" d="M317.88,45.23c0,5.93-3.6,9.07-8,9.07s-7.74-3.52-7.74-8.73c0-5.47,3.4-9,8-9S317.88,40.12,317.88,45.23Zm-13.36.28c0,3.68,2,7,5.49,7s5.52-3.25,5.52-7.16c0-3.42-1.79-7-5.49-7S304.52,41.73,304.52,45.51Z"/><path class="cls-3" d="M332,37a25.67,25.67,0,0,1,4.27-.33,7.06,7.06,0,0,1,4.82,1.43,4.6,4.6,0,0,1,1.51,3.6,5.07,5.07,0,0,1-1.33,3.68A7.13,7.13,0,0,1,336,47.28a7.54,7.54,0,0,1-1.79-.16V54H332Zm2.22,8.3a7.37,7.37,0,0,0,1.84.18c2.68,0,4.32-1.3,4.32-3.68s-1.61-3.37-4.06-3.37a9,9,0,0,0-2.1.18Z"/></g></g></svg>