<svg xmlns="http://www.w3.org/2000/svg" viewBox="0 0 110.69 15.37"><g id="レイヤー_2" data-name="レイヤー 2"><g id="テキスト"><path d="M0,7A5.56,5.56,0,0,1,5.6,1.22,5.56,5.56,0,0,1,11.22,7,5.62,5.62,0,1,1,0,7ZM10.68,7A5.14,5.14,0,0,0,5.6,1.68,5.13,5.13,0,0,0,.54,7,5.16,5.16,0,0,0,5.6,12.45,5.17,5.17,0,0,0,10.68,7Zm-8,0a3.13,3.13,0,0,1,3.14-3.3,2.71,2.71,0,0,1,2.09,1l-.33.39A2.46,2.46,0,0,0,5.76,4.3,2.49,2.49,0,0,0,3.28,7c0,1.81,1,3,2.45,3a3.14,3.14,0,0,0,2.1-.93l.29.41a3.33,3.33,0,0,1-2.44,1.06C4.05,10.53,2.64,9.25,2.64,7Z"/><path d="M19.33,1.09h.59V7.75h0l5.88-6.66h.75L22.85,5.35l4.23,7.36h-.71l-4-6.9-2.48,2.8v4.1h-.59Z"/><path d="M28.64,6.87c0-3.67,2-6,4.9-6a3.84,3.84,0,0,1,3,1.38l-.36.4a3.4,3.4,0,0,0-2.6-1.22c-2.65,0-4.27,2.1-4.27,5.43s1.62,5.49,4.21,5.49a3.83,3.83,0,0,0,3-1.48l.37.39a4.25,4.25,0,0,1-3.41,1.65C30.58,12.92,28.64,10.53,28.64,6.87Z"/><path d="M39.07,6.87c0-3.67,2-6,4.9-6a3.84,3.84,0,0,1,3,1.38l-.37.4A3.37,3.37,0,0,0,44,1.44c-2.66,0-4.27,2.1-4.27,5.43s1.61,5.49,4.21,5.49a3.85,3.85,0,0,0,3-1.48l.37.39a4.27,4.27,0,0,1-3.42,1.65C41,12.92,39.07,10.53,39.07,6.87Z"/><path d="M54.42,6.87c0-3.67,1.95-6,4.9-6a3.87,3.87,0,0,1,3,1.38l-.37.4a3.4,3.4,0,0,0-2.59-1.22C56.66,1.44,55,3.54,55,6.87s1.62,5.49,4.21,5.49a3.83,3.83,0,0,0,3-1.48l.37.39a4.25,4.25,0,0,1-3.41,1.65C56.35,12.92,54.42,10.53,54.42,6.87Z"/><path d="M65.08,8.52c0-2.84,1.73-4.46,3.74-4.46s3.75,1.62,3.75,4.46-1.73,4.4-3.75,4.4S65.08,11.3,65.08,8.52Zm6.9,0c0-2.33-1.36-3.93-3.16-3.93s-3.13,1.6-3.13,3.93,1.34,3.87,3.13,3.87S72,10.82,72,8.52Z"/><path d="M75.34,12.23a.65.65,0,1,1,.64.69A.66.66,0,0,1,75.34,12.23Z"/><path d="M79.35,14.93a2.39,2.39,0,0,0,1.28-2.13.71.71,0,0,1-.21,0,.66.66,0,0,1,0-1.31c.47,0,.79.43.79,1.12a3.23,3.23,0,0,1-1.65,2.74Z"/><path d="M84.83,1.09h.59V12.18h5.44v.53h-6Z"/><path d="M93.75,10.47V4.8H92.41V4.35l1.34-.08.07-2.46h.49V4.27h2.5V4.8h-2.5v5.75c0,1.09.24,1.84,1.48,1.84a3,3,0,0,0,1.07-.27l.19.48a5.18,5.18,0,0,1-1.31.32C94.17,12.92,93.75,11.94,93.75,10.47Z"/><path d="M98.87,8.52c0-2.73,1.73-4.46,3.78-4.46a4,4,0,0,1,2.59,1.06l0-1.58V0h.58V12.71h-.48l-.08-1.12h0a4.06,4.06,0,0,1-2.82,1.33C100.25,12.92,98.87,11.36,98.87,8.52Zm6.32,2.41V5.75a3.64,3.64,0,0,0-2.57-1.16c-1.78,0-3.14,1.75-3.14,3.93s1.06,3.87,2.93,3.87A4,4,0,0,0,105.19,10.93Z"/><path d="M109.4,12.23a.65.65,0,1,1,.64.69A.66.66,0,0,1,109.4,12.23Z"/></g></g></svg>