<svg xmlns="http://www.w3.org/2000/svg" viewBox="0 0 344.79 54.35"><defs><style>.cls-1{fill:#fff;}</style></defs><g id="レイヤー_2" data-name="レイヤー 2"><g id="テキスト"><path class="cls-1" d="M0,2.63a60.4,60.4,0,0,1,10-.77c5.14,0,8.92,1.19,11.31,3.35a10.86,10.86,0,0,1,3.53,8.44,11.91,11.91,0,0,1-3.11,8.62C19,25.2,14.49,26.7,9.4,26.7a17.88,17.88,0,0,1-4.19-.36V42.5H0ZM5.21,22.09a17.37,17.37,0,0,0,4.31.42c6.28,0,10.11-3.06,10.11-8.62,0-5.33-3.77-7.9-9.51-7.9a21.8,21.8,0,0,0-4.91.42Z"/><path class="cls-1" d="M37.53,5.39a3.26,3.26,0,0,1-6.52,0A3.2,3.2,0,0,1,34.3,2.1,3.12,3.12,0,0,1,37.53,5.39ZM31.67,42.5v-29h5.26v29Z"/><path class="cls-1" d="M66.32,41.42A19.34,19.34,0,0,1,58,43.1c-8.74,0-14.42-5.93-14.42-14.79s6.1-15.38,15.56-15.38a17.54,17.54,0,0,1,7.3,1.5L65.25,18.5a12.23,12.23,0,0,0-6.11-1.38c-6.64,0-10.24,4.91-10.24,11,0,6.71,4.31,10.84,10.06,10.84a15,15,0,0,0,6.47-1.44Z"/><path class="cls-1" d="M77.7,26.82h.12c.72-1,1.73-2.28,2.57-3.29l8.5-10h6.35L84,25.44,96.79,42.5h-6.4l-10-13.89-2.69,3V42.5H72.49V0H77.7Z"/><path class="cls-1" d="M124.81,34.6c0,3,.06,5.63.24,7.9h-4.67l-.3-4.73H120a10.9,10.9,0,0,1-9.58,5.39c-4.55,0-10-2.51-10-12.69V13.53h5.27v16c0,5.51,1.68,9.22,6.47,9.22A7.61,7.61,0,0,0,119.06,34a7.71,7.71,0,0,0,.48-2.69V13.53h5.27Z"/><path class="cls-1" d="M133.54,23c0-3.71-.11-6.71-.23-9.46H138l.23,5h.12a11.41,11.41,0,0,1,10.3-5.63c7,0,12.27,5.93,12.27,14.73,0,10.41-6.34,15.56-13.17,15.56a10.18,10.18,0,0,1-8.92-4.55h-.12V54.35h-5.21Zm5.21,7.72a11.68,11.68,0,0,0,.24,2.15,8.12,8.12,0,0,0,7.9,6.17c5.57,0,8.8-4.55,8.8-11.19,0-5.81-3.05-10.78-8.62-10.78a8.4,8.4,0,0,0-8,6.52,8.56,8.56,0,0,0-.36,2.16Z"/><path class="cls-1" d="M179.58,37.11a13.76,13.76,0,0,0,6.94,2.1c3.83,0,5.63-1.92,5.63-4.31s-1.5-3.89-5.39-5.33c-5.21-1.85-7.66-4.73-7.66-8.2,0-4.67,3.77-8.5,10-8.5a14.45,14.45,0,0,1,7.13,1.8L194.9,18.5A11.26,11.26,0,0,0,189,16.82c-3.11,0-4.85,1.8-4.85,3.95,0,2.4,1.74,3.47,5.51,4.91,5,1.92,7.6,4.43,7.6,8.74,0,5.09-3.95,8.68-10.83,8.68a16.48,16.48,0,0,1-8.14-2Z"/><path class="cls-1" d="M206.09,13.53l3.83,14.72c.84,3.24,1.62,6.23,2.16,9.22h.18c.66-2.93,1.62-6,2.57-9.16l4.73-14.78H224L228.48,28c1.08,3.48,1.92,6.53,2.57,9.46h.18a87.6,87.6,0,0,1,2.22-9.4l4.13-14.54h5.21l-9.34,29h-4.79l-4.43-13.83a96.17,96.17,0,0,1-2.57-9.51h-.12a85.38,85.38,0,0,1-2.64,9.57L214.23,42.5h-4.78l-8.74-29Z"/><path class="cls-1" d="M251,29c.12,7.13,4.67,10.06,9.93,10.06a19,19,0,0,0,8-1.5l.89,3.77a23.35,23.35,0,0,1-9.63,1.8c-8.92,0-14.25-5.87-14.25-14.61s5.15-15.62,13.59-15.62c9.45,0,12,8.32,12,13.65a19.72,19.72,0,0,1-.18,2.45Zm15.44-3.77c.06-3.35-1.38-8.56-7.3-8.56-5.33,0-7.66,4.91-8.08,8.56Z"/><path class="cls-1" d="M281,29C281.1,36.1,285.65,39,290.91,39a19,19,0,0,0,8-1.5l.9,3.77a23.39,23.39,0,0,1-9.63,1.8c-8.92,0-14.25-5.87-14.25-14.61s5.15-15.62,13.59-15.62c9.45,0,12,8.32,12,13.65a19.72,19.72,0,0,1-.18,2.45Zm15.44-3.77c.06-3.35-1.38-8.56-7.3-8.56-5.33,0-7.66,4.91-8.08,8.56Z"/><path class="cls-1" d="M314.38,5.21v8.32h7.54v4h-7.54V33.16c0,3.59,1,5.63,3.95,5.63a11.66,11.66,0,0,0,3.05-.36l.24,4a12.86,12.86,0,0,1-4.67.72,7.31,7.31,0,0,1-5.69-2.22c-1.49-1.55-2-4.13-2-7.54V17.54h-4.49v-4h4.49V6.58Z"/><path class="cls-1" d="M327.13,37.11a13.76,13.76,0,0,0,6.94,2.1c3.83,0,5.63-1.92,5.63-4.31s-1.5-3.89-5.39-5.33c-5.21-1.85-7.66-4.73-7.66-8.2,0-4.67,3.77-8.5,10-8.5a14.44,14.44,0,0,1,7.12,1.8l-1.32,3.83a11.25,11.25,0,0,0-5.92-1.68c-3.12,0-4.85,1.8-4.85,3.95,0,2.4,1.73,3.47,5.5,4.91,5,1.92,7.61,4.43,7.61,8.74,0,5.09-4,8.68-10.84,8.68a16.51,16.51,0,0,1-8.14-2Z"/></g></g></svg>