<svg xmlns="http://www.w3.org/2000/svg" viewBox="0 0 428.47 88.56"><defs><style>.cls-1{fill:#0c6885;}</style></defs><g id="レイヤー_2" data-name="レイヤー 2"><g id="テキスト"><path class="cls-1" d="M20.89,23.58H5.21V38.13H22.69V42.5H0V2.16H21.79V6.52H5.21V19.28H20.89Z"/><path class="cls-1" d="M31.72,13.53l4.14,6.22c1.07,1.62,2,3.12,2.93,4.73H39c1-1.73,1.91-3.23,2.87-4.79l4.07-6.16H51.6l-9.88,14,10.18,15h-6L41.66,36c-1.14-1.68-2.09-3.3-3.11-5h-.12c-1,1.73-2,3.29-3,5L31.19,42.5H25.38l10.3-14.79L25.86,13.53Z"/><path class="cls-1" d="M77.64,41.42a19.38,19.38,0,0,1-8.32,1.68c-8.74,0-14.43-5.93-14.43-14.79S61,12.93,70.45,12.93a17.6,17.6,0,0,1,7.31,1.5l-1.2,4.07a12.2,12.2,0,0,0-6.11-1.38c-6.64,0-10.23,4.91-10.23,11,0,6.71,4.31,10.84,10,10.84a15,15,0,0,0,6.47-1.44Z"/><path class="cls-1" d="M83.8,0h5.27V42.5H83.8Z"/><path class="cls-1" d="M122.17,34.6c0,3,.06,5.63.24,7.9h-4.67l-.3-4.73h-.12a10.88,10.88,0,0,1-9.57,5.39c-4.55,0-10-2.51-10-12.69V13.53H103v16c0,5.51,1.67,9.22,6.46,9.22a7.64,7.64,0,0,0,7-4.79,7.94,7.94,0,0,0,.47-2.69V13.53h5.27Z"/><path class="cls-1" d="M130.19,37.11a13.8,13.8,0,0,0,6.95,2.1c3.83,0,5.62-1.92,5.62-4.31s-1.49-3.89-5.38-5.33c-5.21-1.86-7.67-4.73-7.67-8.2,0-4.67,3.78-8.5,10-8.5a14.41,14.41,0,0,1,7.12,1.8l-1.31,3.83a11.29,11.29,0,0,0-5.93-1.68c-3.11,0-4.85,1.8-4.85,3.95,0,2.4,1.74,3.47,5.51,4.91,5,1.92,7.6,4.43,7.6,8.74,0,5.09-3.95,8.68-10.83,8.68a16.45,16.45,0,0,1-8.14-2Z"/><path class="cls-1" d="M160.48,5.39a3.26,3.26,0,0,1-6.52,0,3.21,3.21,0,0,1,3.29-3.3A3.13,3.13,0,0,1,160.48,5.39ZM154.62,42.5v-29h5.26v29Z"/><path class="cls-1" d="M170.66,13.53l5.68,16.28a74.39,74.39,0,0,1,2.34,7.42h.18c.66-2.39,1.49-4.79,2.45-7.42l5.63-16.28h5.51l-11.38,29h-5l-11-29Z"/><path class="cls-1" d="M200.35,29C200.47,36.1,205,39,210.28,39a19,19,0,0,0,8-1.5l.9,3.77a23.39,23.39,0,0,1-9.63,1.8c-8.92,0-14.25-5.87-14.25-14.61s5.15-15.62,13.59-15.62c9.45,0,12,8.32,12,13.65A19.72,19.72,0,0,1,220.7,29Zm15.44-3.77c.06-3.35-1.38-8.56-7.3-8.56-5.33,0-7.66,4.91-8.08,8.56Z"/><path class="cls-1" d="M246.44,5.21v8.32H254v4h-7.54V33.16c0,3.59,1,5.63,3.95,5.63a11.72,11.72,0,0,0,3.05-.36l.24,4a12.86,12.86,0,0,1-4.67.72,7.31,7.31,0,0,1-5.69-2.22c-1.49-1.55-2-4.13-2-7.54V17.54H236.8v-4h4.49V6.58Z"/><path class="cls-1" d="M286.12,27.78c0,10.71-7.42,15.38-14.42,15.38-7.84,0-13.89-5.75-13.89-14.91,0-9.69,6.35-15.38,14.37-15.38C280.5,12.87,286.12,18.92,286.12,27.78Zm-23,.29c0,6.35,3.65,11.14,8.8,11.14s8.8-4.73,8.8-11.25c0-4.91-2.46-11.14-8.68-11.14S263.14,22.57,263.14,28.07Z"/><path class="cls-1" d="M304.92,36.16a18.52,18.52,0,0,0,9.34,2.63c5.32,0,8.44-2.81,8.44-6.88,0-3.78-2.16-5.93-7.61-8-6.58-2.33-10.65-5.74-10.65-11.43,0-6.28,5.21-10.95,13.05-10.95a18.33,18.33,0,0,1,8.92,2L325,7.72a16,16,0,0,0-7.66-1.91c-5.51,0-7.6,3.29-7.6,6,0,3.77,2.45,5.63,8,7.78C324.55,22.27,328,25.56,328,31.49c0,6.22-4.6,11.61-14.12,11.61-3.89,0-8.14-1.14-10.3-2.57Z"/><path class="cls-1" d="M335,0h5.27V18.08h.12a9.61,9.61,0,0,1,3.77-3.71,10.79,10.79,0,0,1,5.38-1.5c3.89,0,10.12,2.39,10.12,12.39V42.5h-5.27V25.86c0-4.67-1.73-8.62-6.7-8.62a7.57,7.57,0,0,0-7.07,5.27,6.35,6.35,0,0,0-.35,2.51V42.5H335Z"/><path class="cls-1" d="M394.41,27.78c0,10.71-7.42,15.38-14.43,15.38-7.84,0-13.89-5.75-13.89-14.91,0-9.69,6.35-15.38,14.37-15.38C388.78,12.87,394.41,18.92,394.41,27.78Zm-23,.29c0,6.35,3.65,11.14,8.8,11.14S389,34.48,389,28c0-4.91-2.45-11.14-8.68-11.14S371.42,22.57,371.42,28.07Z"/><path class="cls-1" d="M401.05,23c0-3.71-.12-6.71-.24-9.46h4.73l.24,5h.12a11.39,11.39,0,0,1,10.3-5.63c7,0,12.27,5.93,12.27,14.73,0,10.41-6.35,15.56-13.17,15.56a10.18,10.18,0,0,1-8.92-4.55h-.12V54.35h-5.21Zm5.21,7.72a11.68,11.68,0,0,0,.24,2.15A8.13,8.13,0,0,0,414.4,39c5.57,0,8.8-4.55,8.8-11.2,0-5.8-3.05-10.77-8.62-10.77a8.4,8.4,0,0,0-8,6.52,8.56,8.56,0,0,0-.36,2.16Z"/><path class="cls-1" d="M162.85,68.83v1.78H144.06v4.67c0,3.8-.35,9.4-2.48,13.18a6.63,6.63,0,0,0-1.57-1c2-3.58,2.22-8.58,2.22-12.13V68.83h9.18V65.64h1.9v3.19Zm-8.72,5.28h8.37v1.67h-8.37v3.58h6.7v9H159v-.93h-10.8v1h-1.83v-9.1h5.93V71.13h1.87ZM159,81h-10.8v4.8H159Z"/><path class="cls-1" d="M172.61,65.64a30.23,30.23,0,0,1,4.27,4.52l-1.17,1.45a26.8,26.8,0,0,0-3.65-4.3,24.94,24.94,0,0,1-4.53,5.8,7.11,7.11,0,0,0-1.22-1.23,19.15,19.15,0,0,0,4.6-6.24ZM172.88,77h3.93v1.55h-9.68V77h4.08V74.38h-3.13V72.91h3.13V70.46h1.67v2.45h3.28v1.47h-3.28ZM168,80.18h8.3v7.6h-1.7v-.85h-4.95v1.3H168Zm1.65,1.55v3.65h4.95V81.73Zm14.42-11v2.37H189V86.53c0,.8-.15,1.3-.7,1.58a6.36,6.36,0,0,1-2.62.3,5.17,5.17,0,0,0-.53-1.58,18.33,18.33,0,0,0,1.88,0c.25,0,.32-.07.32-.35V82.86H184v5.37h-1.65V82.86h-3.1v5.52h-1.62V73.08h4.72V70.71H177V69.08h5.42V65.61H184v3.47h5.4v1.63Zm-4.75,4v2.48h3.1V74.68Zm3.1,6.6V78.71h-3.1v2.57Zm1.65-6.6v2.48h3.27V74.68Zm3.27,6.6V78.71H184v2.57Zm.78-12.42a16.09,16.09,0,0,0-3.28-2.28l1-.89a14,14,0,0,1,3.32,2.14Z"/><path class="cls-1" d="M201.91,67.36c-.78,2.1-1.8,4.65-2.75,6.6a7.29,7.29,0,0,1,2.47,5.37c0,1.38-.27,2.38-1,2.88a3.27,3.27,0,0,1-1.4.47,11.3,11.3,0,0,1-1.85,0,4.13,4.13,0,0,0-.48-1.7,10.5,10.5,0,0,0,1.63,0,2.22,2.22,0,0,0,.87-.23,2,2,0,0,0,.58-1.7c0-1.37-.55-3-2.5-4.95.8-1.8,1.62-4.1,2.22-5.79H196v20h-1.75V66.69h6.12l.3-.08Zm13.59,12a34.87,34.87,0,0,1-4,3.27,10.63,10.63,0,0,0,4.65,4.2,5.83,5.83,0,0,0-1.23,1.53c-3.67-1.88-5.94-5.75-7.14-10.63h-2.7v7.7c1.52-.3,3.15-.62,4.75-1l.12,1.6c-3.12.73-6.45,1.45-8.87,2l-.6-1.8,2.8-.52V66.71h11.19v11h-5.09a18.39,18.39,0,0,0,1.37,3.6,27.57,27.57,0,0,0,3.32-3Zm-10.44-11v3h7.54v-3Zm0,7.72h7.54V73h-7.54Z"/><path class="cls-1" d="M232.06,86a23.26,23.26,0,0,0,4.05.3c.89,0,5.19,0,6.39,0a5.61,5.61,0,0,0-.7,1.88H236c-5.17,0-8.89-.9-11.17-5.13a13.74,13.74,0,0,1-3.72,5.58,9.22,9.22,0,0,0-1.53-1.25c2.78-2.15,4.13-5.7,4.68-10.18l1.9.18a31.69,31.69,0,0,1-.6,3.32,7.52,7.52,0,0,0,4.6,4.83V75H224V73.23h14.47V75h-6.37v4.15h7.39v1.73h-7.39Zm-9.48-12.08h-1.82V68.49h9.37V65.64h1.93v2.85h9.44v5.39h-1.9V70.24h-17Z"/><path class="cls-1" d="M263.68,69.68c-.47.95-1,1.88-1.43,2.63h5.28V86.13c0,1.1-.25,1.7-1,2a15.91,15.91,0,0,1-4.25.3,6.53,6.53,0,0,0-.62-1.8c1.62.08,3.12.05,3.57,0s.55-.13.55-.53V73.93h-5.22v2.48c0,.5.1.55.72.55h2.18c.55,0,.64-.18.72-1.65a3.74,3.74,0,0,0,1.42.57c-.17,2-.62,2.5-1.94,2.5H261c-1.75,0-2.17-.4-2.17-1.95v-2.5h-3c-.3,3-1.42,4.55-5.07,5.43a4.53,4.53,0,0,0-.9-1.3c3.15-.65,4.05-1.8,4.3-4.13h-4.48V88.41H248V72.31h4.9a19,19,0,0,0-1.17-2.63h-4.78V68h9.68V65.64h1.87V68h9.9v1.69Zm-9,16.08v1.52H253V79.66h9.43v6.1Zm5.53-13.45a24.76,24.76,0,0,0,1.3-2.63h-7.8a13.33,13.33,0,0,1,1.17,2.63Zm-5.53,8.8v3.2h6.08v-3.2Z"/><path class="cls-1" d="M273.78,77.58h8.83V88.23h-1.83V87.11h-5.22v1.35h-1.78Zm1.78,1.8v5.93h5.22V79.38ZM291,75H277.41V66.69H291Zm-1.87-6.5h-9.92v4.72h9.92Zm5.5,9.12v10.7H292.8V87.11h-5.67v1.35h-1.8V77.58Zm-1.83,7.73V79.38h-5.67v5.93Z"/></g></g></svg>