<svg xmlns="http://www.w3.org/2000/svg" viewBox="0 0 122.76 66.23"><defs><style>.cls-1{fill:#1a1a1a;}</style></defs><g id="レイヤー_2" data-name="レイヤー 2"><g id="テキスト"><polygon class="cls-1" points="3.72 49.74 12.96 49.74 12.96 53.17 0 53.17 0 19.93 3.72 19.93 3.72 49.74"/><path class="cls-1" d="M20.36,40.55a6.57,6.57,0,0,1,6.35-5.42,6.33,6.33,0,0,1,6.11,5.42Zm16.19,3c.36-6.18-3.2-11.69-9.89-11.69-6.52,0-10.12,5.08-10.12,11.21,0,6,4,10.67,10.21,10.67a10.5,10.5,0,0,0,9.62-5.84l-3-1.71C32,48.67,30,50.48,27,50.48a6.73,6.73,0,0,1-6.84-6.92Z"/><polygon class="cls-1" points="49.18 53.17 45.47 53.17 45.47 23.36 37.39 23.36 37.39 19.93 57.35 19.93 57.35 23.36 49.18 23.36 49.18 53.17"/><path class="cls-1" d="M76.44,40.29H65.12L70.83,27Zm1.45,3.45,4,9.43H86l-15-34.83L55.49,53.17h4.08l4-9.43Z"/><path class="cls-1" d="M105,22.79a13.76,13.76,0,1,1-13.7,13.76A13.71,13.71,0,0,1,105,22.79m0-3.43a17.2,17.2,0,1,0,17.44,17.23A17.38,17.38,0,0,0,105,19.36"/><path class="cls-1" d="M23.53,3.8a.13.13,0,0,1,.15-.14h1.1a.15.15,0,0,0,.15-.15V2.58a.15.15,0,0,0-.15-.14h-1.1a.15.15,0,0,1-.15-.16V1.06a.15.15,0,0,0-.15-.15h-.91a.15.15,0,0,0-.16.15V2.28a.16.16,0,0,1-.15.16H21a.16.16,0,0,0-.14.14v.93a.17.17,0,0,0,.14.15h1.12a.14.14,0,0,1,.15.14V6.69a1.84,1.84,0,0,0,1.84,1.82h.63a.15.15,0,0,0,.15-.15V7.44a.16.16,0,0,0-.13-.15c-.51,0-1.27.08-1.27-.6V3.8Z"/><path class="cls-1" d="M4.39.15A.15.15,0,0,1,4.54,0h.91A.15.15,0,0,1,5.6.15v8.2a.16.16,0,0,1-.15.16H4.54a.3.3,0,0,1-.23-.15L1.39,2.67c0-.08-.08-.06-.08,0V8.35a.16.16,0,0,1-.15.16H.25A.17.17,0,0,1,.1,8.35V.15A.16.16,0,0,1,.25,0h.91a.29.29,0,0,1,.23.14L4.31,5.85c.05.06.08.06.08,0Z"/><path class="cls-1" d="M11.44,6.08A1.23,1.23,0,0,1,9,6.08V4.85a1.23,1.23,0,0,1,2.45,0Zm1.22,0V4.85a2.45,2.45,0,0,0-4.89,0V6.08a2.45,2.45,0,0,0,4.89,0"/><path class="cls-1" d="M33.76,8.51a.16.16,0,0,1-.14-.15V.15A.16.16,0,0,1,33.76,0h.93a.16.16,0,0,1,.16.15V8.36a.16.16,0,0,1-.16.15Z"/><path class="cls-1" d="M44.65,8.91a.16.16,0,0,1-.16-.15V3a.16.16,0,0,1,.16-.15h.92a.15.15,0,0,1,.15.15V8.76a.15.15,0,0,1-.15.15Z"/><path class="cls-1" d="M66.71.14A.27.27,0,0,1,66.92,0h1a.15.15,0,0,1,.16.15V8.36a.16.16,0,0,1-.16.15H67a.15.15,0,0,1-.15-.15V3c0-.09,0-.1-.07,0L64.46,8.36a.27.27,0,0,1-.21.15h-.94a.28.28,0,0,1-.21-.15L60.78,3c0-.08-.05-.07-.05,0V8.36a.17.17,0,0,1-.15.15h-.92a.15.15,0,0,1-.15-.15V.15A.15.15,0,0,1,59.66,0h1a.22.22,0,0,1,.2.14L63.73,6.8c0,.09.08.09.11,0Z"/><path class="cls-1" d="M73.69,6.08a1.21,1.21,0,0,1-1.21,1.21,1.23,1.23,0,0,1-1.24-1.21V4.85a1.23,1.23,0,0,1,1.24-1.2,1.21,1.21,0,0,1,1.21,1.2Zm1.24,0V4.85a2.45,2.45,0,0,0-4.89,0V6.08a2.45,2.45,0,0,0,4.89,0"/><path class="cls-1" d="M81.42,0h-.93a.15.15,0,0,0-.14.15V2.77a2.37,2.37,0,0,0-1.21-.33,2.44,2.44,0,0,0-2.46,2.41V6.08a2.44,2.44,0,0,0,2.46,2.43,2.38,2.38,0,0,0,1.21-.34v.19a.15.15,0,0,0,.14.15h.93a.15.15,0,0,0,.15-.15V.15A.15.15,0,0,0,81.42,0M80.35,6.08a1.23,1.23,0,0,1-2.45,0V4.85a1.23,1.23,0,0,1,2.45,0Z"/><path class="cls-1" d="M17.61,4.85H16.38a.6.6,0,0,1-.61-.58.62.62,0,0,1,.61-.62H19a.15.15,0,0,0,.14-.14V2.58A.15.15,0,0,0,19,2.44H16.39a1.82,1.82,0,1,0,0,3.64h1.22a.61.61,0,0,1,.62.61.61.61,0,0,1-.62.6H15a.15.15,0,0,0-.15.15v.92a.15.15,0,0,0,.15.15h2.59a1.83,1.83,0,1,0,0-3.66"/><path class="cls-1" d="M31.24,2.43h-.93a.16.16,0,0,0-.15.15v.19A2.38,2.38,0,0,0,29,2.43,2.45,2.45,0,0,0,26.5,4.86V6.08A2.44,2.44,0,0,0,29,8.51h.14a2.45,2.45,0,0,0,1-.28.12.12,0,0,0,.09-.05v.19a.16.16,0,0,0,.15.15h.93a.17.17,0,0,0,.16-.15V2.58a.17.17,0,0,0-.16-.15m-1.08,3.5v.15A1.2,1.2,0,0,1,29,7.29a1.22,1.22,0,0,1-1.23-1.21V4.86A1.23,1.23,0,0,1,29,3.65a1.21,1.21,0,0,1,1.21,1.21Z"/><path class="cls-1" d="M41.87,2.45h-.93a.15.15,0,0,0-.15.14v.18a2.43,2.43,0,0,0-3.67,2.09V6.08a2.39,2.39,0,0,0,1.74,2.31,5.26,5.26,0,0,0,.71.12c.7.1,1.22.46,1.22,1.22a1.23,1.23,0,0,1-2.45.07v0s0,0,0,0H37.19a.06.06,0,0,0-.07.06A2.45,2.45,0,0,0,42,9.73a2.49,2.49,0,0,0-.83-1.83A2.51,2.51,0,0,0,42,6.08V2.59a.14.14,0,0,0-.14-.14M40.79,5.93v.15a1.23,1.23,0,0,1-2.45,0V4.86a1.23,1.23,0,0,1,2.45,0Z"/><path class="cls-1" d="M52.69,6.13a2.46,2.46,0,0,1-2.45,2.38A2.43,2.43,0,0,1,47.8,6.08V4.86a2.45,2.45,0,0,1,4.89-.06s0,.06-.06.06H51.52a.06.06,0,0,1-.06-.07,1.22,1.22,0,0,0-1.22-1.14A1.23,1.23,0,0,0,49,4.86V6.08a1.23,1.23,0,0,0,2.45,0s0,0,.06,0h1.13c.06,0,0,0,0,0"/><path class="cls-1" d="M87,6.69h1.1c.15,0,.09.11.09.11a2.44,2.44,0,0,1-4.76-.72V4.85a2.45,2.45,0,0,1,4.89,0l0,.91v.17a.14.14,0,0,1-.14.15H84.6a1.23,1.23,0,0,0,2.25.67s0-.06.11-.06m-1.13-3a1.23,1.23,0,0,0-1.23,1.2h2.45a1.23,1.23,0,0,0-1.22-1.2"/><path class="cls-1" d="M91.68,3.27h0s0,0,0,0a0,0,0,0,0,0,0c-.06,0-.06,0-.06-.08V2.59a.15.15,0,0,0-.17-.14h-.92a.15.15,0,0,0-.15.14V8.36a.16.16,0,0,0,.15.15h.92a.16.16,0,0,0,.17-.15V6.08A2.45,2.45,0,0,1,94,3.65V2.45a3.74,3.74,0,0,0-2.33.82"/><path class="cls-1" d="M98.2,2.44h-.13a2,2,0,0,0-1,.27h0a.1.1,0,0,1-.08-.1v0a.14.14,0,0,0-.15-.14h-.91a.14.14,0,0,0-.15.14V8.36a.15.15,0,0,0,.15.15h.91A.15.15,0,0,0,97,8.36V4.85a1.23,1.23,0,0,1,2.46,0V8.36a.16.16,0,0,0,.14.15h.93a.15.15,0,0,0,.15-.15V4.85A2.45,2.45,0,0,0,98.2,2.44"/><path class="cls-1" d="M45.73,1a.62.62,0,1,1-1.24,0,.62.62,0,0,1,1.24,0"/><path class="cls-1" d="M103.19,7.9a.62.62,0,1,1-1.24,0,.62.62,0,0,1,1.24,0"/><path class="cls-1" d="M3.79,62l2.53-1.26a.34.34,0,0,1,.24.43L4.23,62.76l2.3,1.59a.32.32,0,0,1-.23.43l-2.51-1.3L3.6,66.09a.44.44,0,0,1-.49,0l-.23-2.61L.39,64.78a.33.33,0,0,1-.24-.43l2.3-1.59L.13,61.17a.33.33,0,0,1,.24-.43L2.88,62l.23-2.6a.44.44,0,0,1,.49,0Z"/><path class="cls-1" d="M120,62l2.53-1.26a.34.34,0,0,1,.23.43l-2.32,1.59,2.3,1.59a.32.32,0,0,1-.25.43L120,63.48l-.21,2.61a.44.44,0,0,1-.49,0l-.21-2.61-2.5,1.3a.34.34,0,0,1-.24-.43l2.31-1.59-2.33-1.59a.33.33,0,0,1,.24-.43L119.07,62l.21-2.6a.44.44,0,0,1,.49,0Z"/><path class="cls-1" d="M52.2,60.53a1.23,1.23,0,0,0-1.15-.71,1.06,1.06,0,0,0-1.12,1c0,.57.61.83,1,1l.44.2C52.3,62.46,53,62.9,53,64a2.11,2.11,0,0,1-4.19.34l.72-.2a1.4,1.4,0,0,0,1.36,1.24A1.36,1.36,0,0,0,52.29,64c0-.77-.61-1-1.23-1.33l-.41-.17c-.8-.36-1.47-.74-1.47-1.7a1.75,1.75,0,0,1,1.88-1.69,2,2,0,0,1,1.74,1Z"/><polygon class="cls-1" points="55.7 64.55 57.01 61.43 58.3 64.55 59.56 61.75 60.37 61.75 58.29 66.19 57.01 63.09 55.72 66.19 53.66 61.75 54.47 61.75 55.7 64.55"/><path class="cls-1" d="M61.65,63.37a1.27,1.27,0,0,1,2.51,0Zm3.23.6a2,2,0,0,0-2-2.34,2,2,0,0,0-2,2.24,2,2,0,0,0,2,2.14,2.11,2.11,0,0,0,1.92-1.16l-.6-.35a1.48,1.48,0,0,1-1.27.86A1.37,1.37,0,0,1,61.6,64Z"/><path class="cls-1" d="M66.79,63.37a1.34,1.34,0,0,1,1.28-1.09,1.28,1.28,0,0,1,1.22,1.09Zm3.26.6a2,2,0,1,0-4-.1,2,2,0,0,0,2,2.14A2.12,2.12,0,0,0,70,64.85l-.62-.35a1.44,1.44,0,0,1-1.26.86A1.36,1.36,0,0,1,66.76,64Z"/><polygon class="cls-1" points="72.29 65.9 71.59 65.9 71.59 62.4 71.14 62.4 71.14 61.75 71.59 61.75 71.59 60.26 72.29 60.26 72.29 61.75 73.03 61.75 73.03 62.4 72.29 62.4 72.29 65.9"/><path class="cls-1" d="M75.92,62.71a.69.69,0,0,0-.58-.43.51.51,0,0,0-.51.46c0,.38.48.52,1,.73s1,.49,1,1.19A1.37,1.37,0,0,1,75.34,66,1.51,1.51,0,0,1,73.87,65l.62-.26c.19.39.4.66.87.66a.64.64,0,0,0,.68-.64c0-.93-1.89-.6-1.89-1.92a1.19,1.19,0,0,1,1.25-1.17,1.23,1.23,0,0,1,1.1.77Z"/><polygon class="cls-1" points="83.5 58.87 85.93 64.44 88.38 58.87 89.73 65.9 88.97 65.9 88.11 61.39 88.09 61.39 85.93 66.18 83.78 61.39 83.76 61.39 82.91 65.9 82.14 65.9 83.5 58.87"/><path class="cls-1" d="M93.12,62.28a1.39,1.39,0,0,1,1.41,1.5,1.38,1.38,0,1,1-1.41-1.5m2.08-.53h-.71v.59h0a1.79,1.79,0,0,0-1.43-.71A2.2,2.2,0,0,0,93,66a1.76,1.76,0,0,0,1.45-.68h0v.57h.71Z"/><path class="cls-1" d="M97.76,62.25h0A1.41,1.41,0,0,1,99,61.63c1.16,0,1.43.83,1.43,1.81V65.9h-.72V63.56c0-.67-.05-1.28-.87-1.28-1,0-1,.9-1,1.64v2h-.71V61.75h.71Z"/><path class="cls-1" d="M102.81,62.25h0a1.44,1.44,0,0,1,1.19-.62c1.15,0,1.42.83,1.42,1.81V65.9h-.7V63.56c0-.67-.06-1.28-.89-1.28s-1,.9-1,1.64v2h-.71V61.75h.71Z"/><path class="cls-1" d="M107.47,63.37a1.25,1.25,0,0,1,2.48,0Zm3.23.6a2,2,0,1,0-4-.1,2,2,0,0,0,2,2.14,2.09,2.09,0,0,0,1.92-1.16l-.61-.35a1.41,1.41,0,0,1-1.25.86A1.35,1.35,0,0,1,107.42,64Z"/><path class="cls-1" d="M112.8,62.2h0a1.12,1.12,0,0,1,.93-.57,1.15,1.15,0,0,1,.64.2l-.34.64c-.15-.09-.24-.19-.42-.19-.79,0-.82,1-.82,1.54V65.9h-.71V61.75h.71Z"/><polygon class="cls-1" points="9.08 58.89 14.37 64.39 14.37 59.19 15.13 59.19 15.13 66.23 9.83 60.71 9.83 65.92 9.08 65.92 9.08 58.89"/><path class="cls-1" d="M18.39,62.25a1.56,1.56,0,1,1-1.51,1.56,1.49,1.49,0,0,1,1.51-1.56m0,3.79a2.22,2.22,0,1,0-2.23-2.22A2.2,2.2,0,0,0,18.39,66"/><path class="cls-1" d="M22.28,62.16h0a1.12,1.12,0,0,1,.94-.56,1.26,1.26,0,0,1,.64.19l-.33.65a.76.76,0,0,0-.44-.18c-.79,0-.82,1-.82,1.55v2.11h-.72V61.71h.72Z"/><polygon class="cls-1" points="25.72 65.92 25 65.92 25 62.38 24.56 62.38 24.56 61.71 25 61.71 25 60.2 25.72 60.2 25.72 61.71 26.48 61.71 26.48 62.38 25.72 62.38 25.72 65.92"/><path class="cls-1" d="M28,58.55v3.66h0a1.42,1.42,0,0,1,1.21-.62c1.16,0,1.43.83,1.43,1.82v2.5H30V63.54c0-.68-.05-1.29-.88-1.29-1,0-1,.92-1,1.67v2H27.3V58.55Z"/><path class="cls-1" d="M32.27,63.35a1.32,1.32,0,0,1,1.28-1.09,1.3,1.3,0,0,1,1.25,1.09Zm3.29.61a2,2,0,1,0-2,2.08,2.11,2.11,0,0,0,1.95-1.19l-.61-.35a1.45,1.45,0,0,1-1.29.87A1.38,1.38,0,0,1,32.22,64Z"/><path class="cls-1" d="M37.13,62.16h0a1.08,1.08,0,0,1,.92-.56,1.31,1.31,0,0,1,.66.19l-.34.65a.75.75,0,0,0-.43-.18c-.79,0-.83,1-.83,1.55v2.11h-.71V61.71h.71Z"/><path class="cls-1" d="M40.16,62.22h0a1.44,1.44,0,0,1,1.22-.62c1.17,0,1.43.83,1.43,1.82v2.5h-.73V63.54c0-.68,0-1.28-.89-1.28s-1,.91-1,1.66v2h-.72V61.71h.72Z"/></g></g></svg>