<svg xmlns="http://www.w3.org/2000/svg" viewBox="0 0 595.46 798.76"><defs><style>.cls-1{fill:#fff;opacity:0.75;}.cls-2{fill:#006bac;}</style></defs><g id="レイヤー_2" data-name="レイヤー 2"><g id="テキスト"><path class="cls-1" d="M551.13,41.45h-87a364.94,364.94,0,0,0-337.85,0h-82L24.11,61.66V737.1l20.21,20.21h87a364.94,364.94,0,0,0,337.85,0h82l20.21-20.21V61.66Z"/><path class="cls-2" d="M39.05,190.07l-9.58-3.91Q19,181.87,19,174.84a10.59,10.59,0,0,1,4-8.45A14.83,14.83,0,0,1,33,163a14.6,14.6,0,0,1,8,2q3,1.74,6.28,7.46l11.75-7q-9.31-16.15-25.92-16.16-12.32,0-20.58,7.34a23.13,23.13,0,0,0-8.27,18.09q0,16,19.71,24.37l9.26,3.85a41.06,41.06,0,0,1,6.22,3.27,19.34,19.34,0,0,1,4.26,3.67,12.72,12.72,0,0,1,2.42,4.29,16.05,16.05,0,0,1,.78,5.13,15.69,15.69,0,0,1-4.48,11.5,15.16,15.16,0,0,1-11.25,4.54q-8.58,0-13.06-6.22-2.47-3.23-3.48-11.69L0,220.66q2,13.44,10,20.83t20.64,7.4q13.18,0,22.07-8.7t8.83-21.89q0-9.88-5.41-16.69T39.05,190.07ZM140.69,209q0,12.56-4,18.09-6,8.27-17,8.27t-17-8.27q-4-5.72-4-18.09V151.15H84.12V213q0,15.18,9.45,25a34.8,34.8,0,0,0,26.05,10.94A35,35,0,0,0,145.73,238q9.45-9.82,9.45-25v-61.8H140.69Zm91.12,9.57-33-74.61-20.2,103.21h15l10.32-58,27.61,62.42L260,189.2l9.26,58h14.86L265.94,143.94Zm130.06,0-33-74.61-20.2,103.21h15l10.32-58,27.61,62.42L390,189.2l9.26,58h14.86L396,143.94Zm81.53,28.6h53V233.53H457.88V201.45h37.37V187.84H457.88V164.77h38.49V151.15h-53Zm122.34-40.91a26.09,26.09,0,0,0,15.42-9.39A27.29,27.29,0,0,0,587,179.32q0-13.06-9.33-21-8.45-7.14-27.48-7.15h-17v96h14.49V207.86h2.61l27.42,39.29h17.72Zm-18-11V164.77h5.16q20,0,20,14.74,0,15.72-20.58,15.73Z"/><path class="cls-2" d="M81.35,385.75H95.84v-45.7h32.27V326.44H95.84V303.37h33.45V289.75H81.35Zm125.4-50.3a27.29,27.29,0,0,0,5.84-17.53q0-13.07-9.33-21-8.44-7.14-27.48-7.15h-17v96H173.3v-39.3h2.61l27.42,39.3h17.72l-29.72-40.91A26.09,26.09,0,0,0,206.75,335.45Zm-33.45-1.62V303.37h5.16q20,0,20,14.73,0,15.73-20.58,15.73Zm122.57,13.74q0,12.57-4,18.1-6,8.26-17,8.27t-17-8.27q-4-5.73-4-18.1V289.75H239.29v61.8q0,15.18,9.45,25a36.56,36.56,0,0,0,52.16,0q9.45-9.82,9.45-25v-61.8H295.87Zm47.67,38.18H358v-96H343.54Zm38.94-82.38h22.08v82.38H419V303.37h22V289.75H382.48Zm128,36.84q-5.4-6.81-17.09-11.54l-9.58-3.91q-10.44-4.29-10.44-11.32a10.58,10.58,0,0,1,4-8.45,14.83,14.83,0,0,1,10-3.42,14.6,14.6,0,0,1,8,2q3,1.74,6.28,7.46l11.75-7Q504,287.9,487.43,287.89q-12.31,0-20.58,7.33a23.14,23.14,0,0,0-8.27,18.1q0,16,19.71,24.37l9.26,3.85a41.06,41.06,0,0,1,6.22,3.27,19.34,19.34,0,0,1,4.26,3.67,12.72,12.72,0,0,1,2.42,4.29,16,16,0,0,1,.78,5.12,15.69,15.69,0,0,1-4.48,11.51,15.16,15.16,0,0,1-11.25,4.54q-8.58,0-13.06-6.22Q470,364.48,469,356l-14.67,3.23q2,13.44,10,20.83t20.64,7.4q13.19,0,22.07-8.7t8.83-21.89Q515.84,347,510.43,340.21Z"/><path class="cls-2" d="M78.91,467.4l-9.57-3.92q-10.46-4.29-10.45-11.32a10.61,10.61,0,0,1,4-8.45,14.81,14.81,0,0,1,10-3.42,14.62,14.62,0,0,1,8,2q3,1.74,6.28,7.46l11.75-7Q89.6,426.61,73,426.61q-12.3,0-20.58,7.34A23.12,23.12,0,0,0,44.16,452q0,16,19.7,24.37l9.27,3.86a41.13,41.13,0,0,1,6.22,3.26,19,19,0,0,1,4.25,3.67A12.92,12.92,0,0,1,86,491.49a16.05,16.05,0,0,1,.78,5.13,15.73,15.73,0,0,1-4.48,11.5,15.13,15.13,0,0,1-11.25,4.54q-8.58,0-13.06-6.22-2.49-3.22-3.48-11.69L39.87,498q2,13.42,10,20.82t20.64,7.4q13.17,0,22.07-8.7t8.83-21.89q0-9.89-5.41-16.69T78.91,467.4Zm123.61,25.24-25-68.83-26.11,68.83-25-64.16H110.68l40.79,102.15,25.74-68.08,24.68,68,42.9-102.08H229.06Zm57,31.83h53V510.86H274V478.77h37.37V465.16H274V442.09H312.5V428.48h-53Zm83.72,0h53V510.86H357.73V478.77H395.1V465.16H357.73V442.09h38.49V428.48h-53Zm77.46-82.38h22.07v82.38h14.48V442.09h22V428.48H420.71Zm129.47,36.84q-5.4-6.81-17.1-11.53l-9.57-3.92q-10.44-4.29-10.45-11.32a10.61,10.61,0,0,1,4-8.45,14.83,14.83,0,0,1,10-3.42,14.6,14.6,0,0,1,8,2q3,1.74,6.28,7.46l11.75-7q-9.32-16.17-25.92-16.17-12.31,0-20.58,7.34A23.13,23.13,0,0,0,498.33,452q0,16,19.71,24.37l9.26,3.86a40.19,40.19,0,0,1,6.22,3.26,19.34,19.34,0,0,1,4.26,3.67,12.89,12.89,0,0,1,2.42,4.29,16.05,16.05,0,0,1,.78,5.13,15.69,15.69,0,0,1-4.48,11.5,15.12,15.12,0,0,1-11.25,4.54q-8.58,0-13.06-6.22c-1.65-2.15-2.82-6.05-3.48-11.69L494,498q2,13.42,10,20.82t20.64,7.4q13.18,0,22.07-8.7t8.83-21.89Q555.59,485.73,550.18,478.93Z"/><path class="cls-2" d="M166.89,669h14.48v-45.7h32.27V609.66H181.37V586.6h33.45V573H166.89Zm53.72,0h15.6l10.69-23.32H288L298.07,669h15.86L268.11,567ZM252.94,632l14.92-32.64L282.09,632ZM331,669h14.49V573H331Zm80.26-40.91a26.09,26.09,0,0,0,15.42-9.39,27.32,27.32,0,0,0,5.84-17.54q0-13-9.33-21Q414.77,573,395.73,573h-17v96h14.49v-39.3h2.61L423.28,669H441Zm-18-11V586.6h5.16q20,0,20,14.73,0,15.74-20.58,15.73Z"/><path class="cls-2" d="M127.64,108.49c.06.16.1.32-.1.43s-.49-.14-1.24-.87L125,106.81a1.75,1.75,0,0,1-.26-.29c-.08-.13,0-.23.26-.65.18-.25.91-1.33,1-1.55a1.05,1.05,0,0,0,.06-1.15c-.19-.38-.34-.62-.49-.88-.25-.43-.38-.5-.58-.38a.47.47,0,0,0-.18.19,3.39,3.39,0,0,1-.71.83c-.26.15-.45-.08-.65-.32a31.81,31.81,0,0,0-2.22-2.32,1.72,1.72,0,0,1-.37-.39c-.26-.43.84-1.69,1-1.77.28-.17.5.06.77.31s.61.54.71.66.22.22.32.16.09-.11,0-.28l-.35-.61c-.44-.74-.89-1.41-1.26-2-.49-.83-.11-1.28.6-1.7s1.5-.83,2.24-1.27l2.3-1.35c.56-.33.52-.75.39-1s-.26-.34-.38-.55.08-.41.28-.52,2.62-1.35,2.9-1.48.62-.28.77,0,0,.32-.05.5a.22.22,0,0,0,0,.26c.11.18.32.29.64.09l4.1-2.41c.76-.45,1.47-.93,2.21-1.36.45-.27.59-.15.94.46l.53.89c.34.59.38.74-.25,1.11-.39.23-1.07.57-2.09,1.17l-1.45.86c-.26.15-.3.24-.32.45a.3.3,0,0,1-.08.16.13.13,0,0,0,0,.16c.09.16,1,.09,1.18.07a30.1,30.1,0,0,0,5.14-.84c.26-.07.49-.12.6.08a4.72,4.72,0,0,1,.07,2,.47.47,0,0,0,0,.33c0,.06.06,0,.19.06a.26.26,0,0,1,.21.11c.09.15,0,.33-.11.47s-.06.33.26.87l1.4,2.39c1.08,1.82.71,2.94-1.09,4-.8.48-1.13.61-1.94-.46a.52.52,0,0,0-.7-.2l-.24.17-.81.48c-.24.14-.47.19-.65-.12-.29-.49-.55-1-.86-1.56l-.59-1a7.4,7.4,0,0,0-.76-1.13l-.06-.11c-.12-.19.07-.33.2-.41s1.78-.93,2-1,.46-.22.59,0a.33.33,0,0,1,0,.38c-.1.18-.11.27.17.75l1,1.69c.25.41.45.7.71.55s.34-.41.15-.73l-1.19-2c-.24-.41-.45-.76-.56-.9l-.26-.34c-.1-.17,0-.28.31-.47s.57-.31.64-.35.19-.17.15-.24-.07-.07-.18-.07c-.29.06-1.77.23-2,.26a.25.25,0,0,0-.15,0c-.16.09-.11.21-.06.35s0,.32-.22.43c-.5.29-1,.56-1.48.84l-2.26,1.33-1.48.91c-.29.16-.4,0-.47,0a.24.24,0,0,0-.26,0,.84.84,0,0,0-.18.19l-.66.92c-.12.19-.17.25-.12.33s.1.09.19,0L133,97.6c.52-.31,1-.64,1.55-.94s1-.62,1.45.08c.18.3.53,1,.9,1.63l.83,1.4c.22.37.47.69.67,1,1,1.61-.32,2.38-1.55,3.11-.61.36-1.09.64-1.64-.29-.14-.24-.2-.5.08-.66l.41-.24c.33-.2.31-.27.2-.47l0-.06c-.1-.18-.19-.18-.32-.11l-.61.36a.72.72,0,0,0-.32,1c.13.21.38.53.52.77.26.44.11.58-.56,1l-1,.61c-.46.27-.68.25-.89-.12s-.44-.88-.73-1.38l-1.32-2.23c-.39-.68-.77-1.21-1-1.56l-.26-.43c-.09-.16-.23-.19-.38-.25s-.66-.22-.91-.31c-.07,0-.15-.06-.22,0s-.07.13,0,.28l.6,1a27.42,27.42,0,0,1,3.65,8.87,23.34,23.34,0,0,1,.35,3.21.64.64,0,0,1-.26.65c-.45.27-2.89.25-3.19-.25a1.11,1.11,0,0,1,0-.45,13.51,13.51,0,0,0-.12-2,18.05,18.05,0,0,0-.7-3.13c0-.07,0-.15,0-.17a.15.15,0,0,0-.21-.06c-.09.05-.12.19-.29.55A.51.51,0,0,0,127.64,108.49Zm-1.38-12.84a.73.73,0,0,0-.25,1l.81,1.36c.13.22.34.48.62.31a2.15,2.15,0,0,0,.42-.43c.81-.91,3.37-4.14,3.07-4.64-.14-.24-.46,0-.61,0Zm12.33,10.15c.2.35.39.27.76,0l2-1.17c.67-.39.62-.63.43-1.15a.48.48,0,0,1,.21-.68,6.54,6.54,0,0,1,1.72-.55.81.81,0,0,1,.93.33,3.54,3.54,0,0,1,.29,2.37,3.58,3.58,0,0,1-1.84,1.93l-3.26,1.92c-1.54.91-2.48,1.29-3.54-.51-.17-.28-.29-.59-.46-.87l-.05-.09c-.09-.15-.21-.31-.41-.19s-.16.41-.09.63a24.71,24.71,0,0,1,.55,2.72c.06.35.06.7-.29.9s-2.16.64-2.44.16a1.44,1.44,0,0,1-.06-.55,11.53,11.53,0,0,0-.56-3.12c-.08-.24-.12-.51.13-.67a21,21,0,0,1,2.19-.64,1.69,1.69,0,0,0,.24-.05c.13-.08.11-.21,0-.32s-.17-.25-.25-.38-.05-.38.17-.51,2.37-1.22,2.68-1.35.37-.12.48.07a.27.27,0,0,1,0,.34c-.15.2,0,.47.13.77ZM134,99.56a.28.28,0,0,0,.1-.38l-.08-.13a.27.27,0,0,0-.37-.1l-1,.59a.28.28,0,0,0-.1.38l.08.13a.27.27,0,0,0,.38.1Zm1.24-5.64c.11-.06.15-.14.09-.23s-.45-.08-.87-.1a.87.87,0,0,0-.49.06c-.22.13-.31.42-.43.66s-.26.45-.2.56.27,0,.36,0Zm-.3,7.22a.29.29,0,0,0,.1-.38l-.08-.13a.28.28,0,0,0-.38-.09l-1,.58a.29.29,0,0,0-.1.38l.08.13a.28.28,0,0,0,.38.1Zm4.2.68a4.89,4.89,0,0,1,2.41.63c.22.36-.57,2-.83,2.15s-.33.05-.79-.09l-1.22-.33c-.12,0-.35-.06-.43-.19A4.69,4.69,0,0,1,139.14,101.82Zm7.9-1.36a14.33,14.33,0,0,1,2,1.28c.22.37-1,2.12-1.25,2.29s-.4,0-.7-.2a23.61,23.61,0,0,0-3-1.81,1.42,1.42,0,0,1-.53-.36c-.19-.32.86-1.91,1.14-2.07S145.59,99.68,147,100.46Z"/><path class="cls-2" d="M154.51,78.24c.2,0,.56-.1.65.09a.25.25,0,0,1-.07.25c-.27.38-.19.67,0,1.3a47.64,47.64,0,0,0,3.31,8.85c.85,1.79,1.72,3.63,3.54,2.77a5.38,5.38,0,0,0,2.74-3.67,8.16,8.16,0,0,0-.11-4c-.12-.49-.25-.94.14-1.12a3.52,3.52,0,0,1,2,.2c.58.17,1.55.46,1.82,1a9.29,9.29,0,0,1,.35,3.26,8.94,8.94,0,0,1-5,7.84,6.13,6.13,0,0,1-5.27.22c-1.83-.92-3.11-3.26-4-5.08-1.24-2.62-2.34-5.52-3.33-8.06-.18-.5-.52-1.28-.77-1.81s-.38-.79,0-1S153.7,78.43,154.51,78.24Z"/><path class="cls-2" d="M185.12,66.51a13.18,13.18,0,0,0,1.6-.67,4.89,4.89,0,0,1,.57-.27c.74-.27,2.69,1,2.81,1.35a2.73,2.73,0,0,1-.08.86,47,47,0,0,1-1.38,6.31.67.67,0,0,0,0,.52.55.55,0,0,0,.51.38,49.42,49.42,0,0,1,5.54,1.75c.32.12,1.41.55,1.66.7a.33.33,0,0,1,.24.23c.25.66-1,3.47-1.62,3.72-.35.13-.8-.13-1.18-.34a.41.41,0,0,0-.17-.13A27.19,27.19,0,0,0,188,78.67a2,2,0,0,0-.93-.11.91.91,0,0,0-.48.5A29.2,29.2,0,0,1,184,83.27a17.85,17.85,0,0,1-2.66,2.89c-.42.16-1.78-.81-2.18-1.09A3.82,3.82,0,0,1,178.07,84c-.13-.35.14-.61.39-.81a22.46,22.46,0,0,0,6.82-11.35,1.68,1.68,0,0,0,.07-.83c-.15-.4-.57-.3-1-.15l-3.59,1.34c-1.06.39-2.13.84-3.21,1.24-.59.22-.74,0-1.06-.89L175.93,71c-.3-.83-.32-1,.25-1.22,1.08-.4,2.19-.74,3.28-1.14Z"/><path class="cls-2" d="M217.36,71.81c.18.65.38,1.3.56,2,.12.44.27.89.39,1.35.21.76-.2.89-1.41,1.22l-1,.27c-1.14.31-1.35.21-1.5-.35-.3-1.09-.55-2.2-.84-3.29l-1.47-5.42c-.1-.36-.29-.57-.6-.48s-.47.38-.61.55c-.53.64-3.28,3.78-3.84,3.94s-3.44-1.47-3.62-2.1c-.07-.27.2-.44.4-.57a36.38,36.38,0,0,0,4.05-3.82,30.24,30.24,0,0,0,4.77-6.92,27.27,27.27,0,0,0,1.41-3.65c0-.13.07-.33.24-.37A18.62,18.62,0,0,1,218,55.29c.35.14.61.33.65.48s-.11.26-.25.35a1.59,1.59,0,0,0-.76.65c-.42.74-1.13,2.37-2.45,4.71a1.62,1.62,0,0,0-.22,1.39Z"/><path class="cls-2" d="M245.6,56.66c1.46-.26,3-.65,3.25-.69.64-.11.79.14.92.86L250,58c.25,1.36.3,1.78-.49,1.93-1,.17-2.12.3-3.21.5l-11.39,2c-1.09.19-2.24.48-3.16.64s-.93-.32-1.16-1.63l-.21-1.14c-.13-.74-.11-1,.53-1.17.35-.06,1.75-.21,3.31-.49Z"/><path class="cls-2" d="M262.39,50a38.71,38.71,0,0,1,3.16,4.09,1.74,1.74,0,0,1,.28.61c.05.65-2.3,2-2.73,2-.25,0-.45-.24-.71-.64s-1.66-2.54-2.82-4c-.11-.12-.37-.4-.38-.57,0-.51,2.22-1.79,2.69-1.83C262.08,49.76,262.25,49.92,262.39,50ZM278,48.15c.29.08,1.32.34,1.35.62,0,.12-.18.26-.35.41a1.79,1.79,0,0,0-.55,1.21c-1,5.66-3.39,10.42-7.78,13.61a25.65,25.65,0,0,1-4.9,2.62,1.77,1.77,0,0,1-.52.17c-.45,0-1.07-.69-1.57-1.28a4.43,4.43,0,0,1-1-1.52c0-.33.31-.46.59-.54a27.13,27.13,0,0,0,4.56-2.16c4.44-2.69,6.84-8.45,6.88-13.48,0-.23,0-.41.24-.43S277.57,48,278,48.15Zm-9.29-.33a37.2,37.2,0,0,1,3.07,4,1.19,1.19,0,0,1,.25.56c.06.63-2.3,2-2.75,2-.28,0-.4-.2-.69-.65a41.31,41.31,0,0,0-2.87-3.94c-.09-.15-.34-.4-.35-.55,0-.51,2.22-1.81,2.69-1.86C268.27,47.4,268.52,47.66,268.69,47.82Z"/><path class="cls-2" d="M295.42,62.83c0,.73-1.83,2.66-2.53,2.66-.25,0-.43-.26-.55-.43a19.93,19.93,0,0,0-4.11-3.72A.45.45,0,0,1,288,61c0-.48,1.82-2.44,2.38-2.43S295.42,62.2,295.42,62.83Z"/><path class="cls-2" d="M312.87,47.93c.28-.78.55-1.4.81-2.21.06-.22.15-.47.4-.45s3.1,1.53,3.54,1.76.58.39.57.54-.12.2-.25.24c-.67.2-.87.57-1.24,1.2a19.28,19.28,0,0,0-2,7.4c0,.53-.08,1.05.18,1.07s.28-.16.37-.3c.29-.59.47-.88.69-.86s1.57.94,1.55,1.32-1.63,3.11-1.75,4.82c0,.27,0,.71,0,1a2.25,2.25,0,0,1,0,.45c0,.68-.85,1-1.42,1.19a4.74,4.74,0,0,1-1.31.24c-.45,0-.65-.45-.88-1a18.57,18.57,0,0,1-1-8.17A32.08,32.08,0,0,1,312.87,47.93Zm14.26-1.22c.12,0,.32.1.3.27a.75.75,0,0,1-.23.44,4,4,0,0,0-.6,2.18.53.53,0,0,0,.51.64,14.82,14.82,0,0,0,1.88-.3,4.74,4.74,0,0,1,.67-.1c.37,0,.44.53.49.92a11,11,0,0,1,.15,2.1c0,.63-.28.74-3.06.92-.56,0-.85.14-.89.77,0,.33-.11,3.75-.11,4.1,0,.61.23.68.84,1.05a14.64,14.64,0,0,1,2.55,2.09,1.51,1.51,0,0,1,.5,1.1c-.05.7-1.39,2.22-2.14,2.17-.38,0-.73-.38-1.22-.92l-.29-.3a.75.75,0,0,0-.48-.33c-.22,0-.31.1-.5.36-.87,1.21-2.65,1.48-4,1.39-2.29-.16-4.49-1.45-4.31-4s2.36-3.44,4.57-3.28l.57,0a.56.56,0,0,0,.65-.59c0-.58,0-1.76,0-2.17.06-.85,0-1.26-.56-1.3s-2.19-.05-3.25-.12l-.37,0a2,2,0,0,1-1.24-.34,12.59,12.59,0,0,1,0-2.83c0-.32.12-.67.53-.64.15,0,.92.14,1.14.18,1,.17,2.05.3,3.05.37.41,0,.74-.1.77-.56s-.06-3,0-3.58c0-.3.13-.42.43-.4C324,46,326.51,46.57,327.13,46.71Zm-6.74,14.82c0,.5.75.8,1.28.84s1.14-.12,1.19-.8c0-.5-.74-.58-1.12-.61S320.43,61,320.39,61.53Z"/><path class="cls-2" d="M347.21,49.49c.3.15.54.29.51.44s-.09.14-.2.17c-.49.18-.61.62-.75,1a49.17,49.17,0,0,0-2.23,9.18c-.3,1.94-.62,4,1.37,4.29a5.42,5.42,0,0,0,4.33-1.49,8.17,8.17,0,0,0,2.16-3.39c.14-.46.31-.89.73-.83s1.19.87,1.54,1.28,1,1.26.93,1.88A9.18,9.18,0,0,1,354.06,65a8.94,8.94,0,0,1-8.57,3.67A6.13,6.13,0,0,1,341,65.85c-1-1.78-.74-4.44-.43-6.43.44-2.86,1.13-5.69,1.78-8.54.13-.56.28-1.36.37-1.93s.14-.87.56-.8A36.62,36.62,0,0,1,347.21,49.49ZM351.7,52c.3.38,1.64,2.22,1.58,2.62s-1.43,1.18-1.7,1.13-.27-.24-.32-.38c-.44-.78-.94-1.52-1.44-2.26-.08-.11-.21-.28-.19-.41.06-.37,1.51-1,1.76-1S351.64,52,351.7,52Zm3.09-1.68c.25.32.52.72.81,1.14a4.45,4.45,0,0,1,.81,1.53c-.06.42-1.4,1.18-1.68,1.14-.07,0-.18-.11-.32-.36a20.62,20.62,0,0,0-1.49-2.26.81.81,0,0,1-.19-.42c.06-.39,1.51-1,1.76-1A.57.57,0,0,1,354.79,50.36Z"/><path class="cls-2" d="M381.33,55.92c.2.13.46.35.39.62a.94.94,0,0,1-.25.4,3.57,3.57,0,0,0-.81,1.46c-.1.42.28.67.69.9a7.25,7.25,0,0,1,3.59,8.41c-1,4.18-4.44,6.08-8.4,6.91a3.84,3.84,0,0,1-1.64.12c-.78-.2-1.43-2.69-1.29-3.28.06-.24.29-.32,1.05-.36,2.74-.15,6-1.47,6.75-4.4a3.88,3.88,0,0,0-1.91-4.44c-.32-.08-.55.1-.7.43A19.35,19.35,0,0,1,373.89,69c-1.65,1.33-4.18,2.55-6.35,2-2.64-.66-2.87-3.49-2.33-5.69A9.09,9.09,0,0,1,368.76,60a.9.9,0,0,0,.45-.53,3.53,3.53,0,0,0,0-.69c-.08-1.05-.13-2.1-.2-3.16a1.67,1.67,0,0,1,0-.51c.06-.24.34-.33.6-.34a22.45,22.45,0,0,1,3,0c.39.09.36.42.3,1.29,0,.31-.06.66-.09,1.09s0,.63.37.72a1,1,0,0,0,.5,0,12.24,12.24,0,0,1,2.42-.13c.89.07,1-.2,1.42-2,.07-.27.11-.54.18-.81s.19-.55.55-.46A27.12,27.12,0,0,1,381.33,55.92ZM368.66,66.11c-.09.37-.27,1.33.26,1.47.32.07,1.27-.29,1.37-.7a1,1,0,0,0,0-.45c-.27-1.52-.39-2.09-.61-2.15C369.25,64.18,368.74,65.79,368.66,66.11Zm5-4.76c-.31.08-.59.19-.68.55a10.71,10.71,0,0,0,.17,1.81.41.41,0,0,0,.28.35c.29.08.72-.52,1.11-1.15a10.37,10.37,0,0,0,.76-1.37.29.29,0,0,0-.23-.36A4.69,4.69,0,0,0,373.71,61.35Z"/><path class="cls-2" d="M408.42,63.61c.11.06.32.16.25.35a.85.85,0,0,1-.3.34,2.8,2.8,0,0,0-.9,1.37.56.56,0,0,0,.34.73c.43.15,2.91.42,3.58.49a6.08,6.08,0,0,1,1,.14c.33.12.29.64.25.91a12.46,12.46,0,0,1-.44,2.12c-.19.57-.51.56-1.32.44-1.27-.19-2.57-.43-3.84-.68-.59-.12-.88-.14-1.05.36a.54.54,0,0,0,.32.77,21.3,21.3,0,0,0,2.69.37,3,3,0,0,1,.63.11c.19.07.24.3.23.64a10.72,10.72,0,0,1-.62,2.34c-.26.76-1,.6-3.3.09-1-.24-1.22-.18-1.37.25-.45,1.3-.49,1.5.17,2,.88.68,3.6,3.14,3.22,4.25-.18.53-1.8,2-2.56,1.7-.33-.11-.79-.8-1.41-1.7-.15-.24-.56-.84-.85-.94s-.52.12-.72.34c-1.4,1.59-3.49,1.46-5.34.82a5.57,5.57,0,0,1-2.65-1.74,3.58,3.58,0,0,1-.53-3.32A3.47,3.47,0,0,1,396.19,74a6.87,6.87,0,0,1,4,.3l.26.09a.51.51,0,0,0,.68-.35.61.61,0,0,0-.33-.84c-.43-.14-1.94-.53-3-.89-.9-.31-1.13-.42-1-1.11a9.66,9.66,0,0,1,.43-2.33c.12-.36.28-.67.71-.52.69.23,1.67.7,2.81,1.1l.65.22c.59.2,1.06.31,1.24-.21a.58.58,0,0,0-.37-.79c-.81-.28-2.29-.69-3.41-1.07l-.71-.25c-.95-.32-1.71-.61-1.73-1a9.06,9.06,0,0,1,.59-2.59c.12-.33.28-.73.73-.57s2.88,1.23,4.45,1.77l.52.18c.57.19,1,.29,1.19-.21.07-.21.41-1.58.49-2a3.29,3.29,0,0,1,.16-.69c.1-.28.29-.3.57-.2C405.57,62.17,407.86,63.3,408.42,63.61ZM397,77.27c-.2.57.67.9,1.08,1,.64.22,1.48.32,1.76-.48.11-.34-.16-.46-.62-.62S397.27,76.58,397,77.27Z"/><path class="cls-2" d="M431.28,73.81c.17.12.45.36.37.54a.26.26,0,0,1-.25.11c-.46.05-.63.3-1,.83a47.57,47.57,0,0,0-4.56,8.27c-.8,1.82-1.63,3.68.21,4.5a5.43,5.43,0,0,0,4.57-.31,8.18,8.18,0,0,0,2.95-2.68c.3-.42.55-.8.94-.63s.92,1.15,1.15,1.64.66,1.48.41,2a9.61,9.61,0,0,1-2.25,2.39,8.93,8.93,0,0,1-9.22,1.3A6.13,6.13,0,0,1,421,88c-.5-2,.45-4.48,1.26-6.32,1.18-2.65,2.67-5.37,4-7.77.26-.47.63-1.24.86-1.77s.36-.8.75-.63S430.62,73.32,431.28,73.81Z"/><path class="cls-2" d="M460.27,86.25c.36.35.91.91.79,1.13s-.23.1-.35.1c-.39,0-.67.28-1.28.9-.15.17-.35.38-.6.62l-.15.17a.43.43,0,0,0,.19.63,10.85,10.85,0,0,0,2.1.42,2,2,0,0,1,.64.15c.59.33-.62,2.51-1,3.17-.17.31-.33.39-.74.3-1-.2-2.63-.66-3.59-1s-1.13-.34-1.84.3a71,71,0,0,1-9.64,7.37c-.33.19-.6.35-1,.15s-2.11-2.48-1.74-3.13A2.33,2.33,0,0,1,443,97a39.13,39.13,0,0,0,7.64-5.22,2,2,0,0,0,.44-.42c.17-.31,0-.51-.28-.65-.44-.24-1-.47-1.49-.74s-.71-.48-.57-1a17.71,17.71,0,0,1,1.06-2.46c.16-.29.32-.48.68-.29.21.12,1.14.79,2.29,1.42s1.45.81,1.93.36a27.86,27.86,0,0,0,2.89-3.69c.08-.13.18-.22.31-.14C458.2,84.23,459.94,85.92,460.27,86.25Zm-8.19,13.42c.3,1.58,1.83,2.75,3.15,3.49a12.68,12.68,0,0,0,3.58,1.39.78.78,0,0,1,.27.09c.35.19.12.7-.27,1.4l-.37.66c-.67,1.21-.82,1.48-1.27,1.37a30,30,0,0,1-3.88-1.79c-1.56-.87-3.58-2.26-4.35-3.92-.21-.46-.57-1.47-.29-2a6,6,0,0,1,2-1.07c.29-.1.93-.32,1.19-.17S452.05,99.51,452.08,99.67ZM458,94.18a22.34,22.34,0,0,1,4.62,3.45c.26.26.45.48.26.83a8.89,8.89,0,0,1-2,2.05.53.53,0,0,1-.57,0,2,2,0,0,1-.46-.46,11.18,11.18,0,0,0-3.45-2.7l-.79-.44c-.51-.28-.63-.43-.41-.83C456.56,93.58,457.08,93.69,458,94.18Z"/><path class="cls-2" d="M473.35,115a3.59,3.59,0,1,1-.92-5A3.59,3.59,0,0,1,473.35,115Zm-4.7-3.24a2.12,2.12,0,1,0,2.94-.54A2.13,2.13,0,0,0,468.65,111.77Z"/><path class="cls-2" d="M249.55,739.1h7.82v3h-11V713.23h3.15Zm14.1-8a5.6,5.6,0,0,1,5.37-4.7,5.39,5.39,0,0,1,5.18,4.7Zm13.71,2.61c.31-5.35-2.71-10.13-8.36-10.13s-8.59,4.38-8.59,9.71c0,5.17,3.39,9.25,8.66,9.25a8.88,8.88,0,0,0,8.14-5.05L274.65,736c-1.16,2.15-2.81,3.72-5.36,3.72a5.76,5.76,0,0,1-5.79-6Zm10.7,8.34H284.9V716.2h-6.83v-3H295v3h-6.91Zm23.07-11.19h-9.58l4.84-11.53Zm1.22,3,3.34,8.19h3.51l-12.74-30.23L293.4,742.08h3.46l3.4-8.19Zm23-18.17a11.94,11.94,0,1,1-11.6,11.94A11.75,11.75,0,0,1,335.31,715.72Zm0-3a14.92,14.92,0,1,0,14.76,15A14.9,14.9,0,0,0,335.31,712.74Zm-69-13.52a.14.14,0,0,1,.12-.12h.95a.12.12,0,0,0,.12-.12v-.79a.13.13,0,0,0-.12-.14h-.95a.12.12,0,0,1-.12-.12v-1.06a.13.13,0,0,0-.13-.15h-.77c-.07,0-.12.06-.12.15v1.06a.13.13,0,0,1-.13.12h-.94a.13.13,0,0,0-.13.14V699a.12.12,0,0,0,.13.12h.94a.15.15,0,0,1,.13.12v2.53a1.56,1.56,0,0,0,1.55,1.56h.54a.12.12,0,0,0,.12-.12v-.8c0-.06,0-.1-.11-.12-.43,0-1.08.06-1.08-.52v-2.53Zm-16.2-3.15a.13.13,0,0,1,.13-.13H251a.13.13,0,0,1,.13.13v7.12a.12.12,0,0,1-.13.12h-.77a.3.3,0,0,1-.2-.1l-2.47-4.94c0-.08-.06-.07-.06,0v4.91a.12.12,0,0,1-.13.12h-.79a.12.12,0,0,1-.12-.12v-7.12a.12.12,0,0,1,.12-.13h.79a.24.24,0,0,1,.19.12l2.47,5c0,.06.07.06.07,0Zm6,5.15a1,1,0,0,1-1,1,1.06,1.06,0,0,1-1.05-1v-1.07a1.06,1.06,0,0,1,1.05-1,1,1,0,0,1,1,1Zm1,0v-1.07a2.07,2.07,0,1,0-4.14,0v1.07a2.07,2.07,0,1,0,4.14,0ZM275,703.31a.12.12,0,0,1-.12-.12v-7.12a.12.12,0,0,1,.12-.13h.79a.13.13,0,0,1,.13.13v7.12a.12.12,0,0,1-.13.12Zm9.22.36a.11.11,0,0,1-.12-.12v-5a.11.11,0,0,1,.12-.11H285a.11.11,0,0,1,.12.11v5a.12.12,0,0,1-.12.12Zm18.68-7.61a.21.21,0,0,1,.17-.12h.85a.13.13,0,0,1,.13.13v7.12a.12.12,0,0,1-.13.12h-.79a.12.12,0,0,1-.13-.12v-4.66c0-.06,0-.06,0,0l-2,4.67a.24.24,0,0,1-.17.12H300a.21.21,0,0,1-.17-.12l-2-4.67s0,0,0,0v4.66a.12.12,0,0,1-.13.12h-.78a.13.13,0,0,1-.13-.12v-7.12a.13.13,0,0,1,.13-.13h.83a.22.22,0,0,1,.19.12l2.43,5.78c0,.08.07.08.1,0Zm5.91,5.16a1,1,0,1,1-2.07,0v-1.07a1,1,0,1,1,2.07,0Zm1.05,0v-1.07a2.08,2.08,0,1,0-4.16,0v1.07a2.08,2.08,0,1,0,4.16,0Zm5.49-5.28h-.79a.12.12,0,0,0-.11.13v2.28a2,2,0,0,0-1-.3,2.11,2.11,0,0,0-2.09,2.1v1.07a2.1,2.1,0,0,0,2.09,2.09,2,2,0,0,0,1-.28v.16a.12.12,0,0,0,.11.12h.79a.12.12,0,0,0,.12-.12v-7.12A.12.12,0,0,0,315.35,695.94Zm-.9,5.28a1,1,0,1,1-2.08,0v-1.07a1,1,0,0,1,1.05-1,1.07,1.07,0,0,1,1,1Zm-53.13-1.07h-1a.53.53,0,0,1,0-1h2.22a.12.12,0,0,0,.13-.12v-.79a.13.13,0,0,0-.13-.14h-2.21a1.59,1.59,0,0,0,0,3.17h1a.53.53,0,0,1,0,1h-2.2a.13.13,0,0,0-.13.12v.8a.12.12,0,0,0,.13.12h2.19a1.58,1.58,0,0,0,0-3.16Zm11.54-2.1h-.77a.13.13,0,0,0-.13.14v.16a2,2,0,0,0-3.11,1.8v1.07a2.08,2.08,0,0,0,2.07,2.09H271a2.11,2.11,0,0,0,.84-.23s0,0,.08-.05v.16a.12.12,0,0,0,.13.12h.77a.11.11,0,0,0,.12-.12v-5C273,698.11,272.94,698.05,272.86,698.05Zm-.9,3v.13a1.05,1.05,0,0,1-1,1,1.07,1.07,0,0,1-1.05-1v-1.07a1,1,0,1,1,2.09,0Zm9.9-3h-.79a.13.13,0,0,0-.13.12v.16a2,2,0,0,0-1-.3,2.1,2.1,0,0,0-2.09,2.1v1.07a2.09,2.09,0,0,0,1.47,2,3.85,3.85,0,0,0,.62.09,1.06,1.06,0,0,1,1,1.08,1,1,0,0,1-1,1,1.08,1.08,0,0,1-1.06-1v0s0,0,0,0h-1c-.05,0,0,0,0,0a2.07,2.07,0,1,0,4.13,0,2.18,2.18,0,0,0-.7-1.6,2.15,2.15,0,0,0,.7-1.57v-3A.12.12,0,0,0,281.86,698.07Zm-.92,3v.13a1,1,0,1,1-2.07,0v-1.07a1,1,0,1,1,2.07,0Zm10.09.16a2.08,2.08,0,0,1-4.16,0v-1.07a2.08,2.08,0,0,1,4.16,0s0,0,0,0h-1s0,0,0,0a1,1,0,0,0-2.08,0v1.07a1,1,0,0,0,2.08,0s0,0,0,0h1C291,701.22,291,701.25,291,701.25Zm29,.5H321c.12,0,.09.09.09.09a2.11,2.11,0,0,1-2,1.47,2.08,2.08,0,0,1-2.07-2.09v-1.07a2.08,2.08,0,1,1,4.15,0l0,.78v.16a.12.12,0,0,1-.12.13h-3a1.06,1.06,0,0,0,1,1,1,1,0,0,0,.87-.48S320,701.75,320,701.75Zm-.95-2.65a1,1,0,0,0-1,1h2.07A1,1,0,0,0,319.08,699.1Zm5-.32h0v0s0,0,0,0-.06,0-.06-.09v-.54c0-.07-.05-.12-.14-.12H323a.12.12,0,0,0-.12.12v5a.12.12,0,0,0,.12.12h.78c.09,0,.14,0,.14-.12v-2A2.1,2.1,0,0,1,326,699.1v-1A3.09,3.09,0,0,0,324,698.78Zm5.53-.73a.27.27,0,0,0-.12,0,1.91,1.91,0,0,0-.84.22h0s-.06,0-.06-.08v0a.12.12,0,0,0-.13-.12h-.77a.12.12,0,0,0-.13.12v5a.12.12,0,0,0,.13.12h.77a.12.12,0,0,0,.13-.12v-3a1,1,0,1,1,2.07,0v3a.13.13,0,0,0,.13.12h.79a.12.12,0,0,0,.12-.12v-3A2.11,2.11,0,0,0,329.57,698.05Zm-45-1.77a.52.52,0,0,0-.49.54.5.5,0,0,0,.49.53.52.52,0,0,0,.54-.53A.54.54,0,0,0,284.59,696.28Zm48.68,6a.53.53,0,1,0,.51.52.52.52,0,0,0-.51-.52m-85.36,47.48,2.14-1.09c.15,0,.25.2.19.36l-2,1.39,1.94,1.37c.05.16,0,.37-.2.38L247.91,751l-.17,2.26a.36.36,0,0,1-.4,0l-.19-2.26L245,752.16a.29.29,0,0,1-.21-.38l2-1.37-2-1.39c-.05-.16,0-.36.21-.36l2.14,1.09.19-2.27a.36.36,0,0,1,.4,0Zm100.42,0,2.12-1.09a.26.26,0,0,1,.2.36l-1.95,1.39,1.94,1.37c0,.16,0,.37-.21.38l-2.1-1.12-.18,2.26a.4.4,0,0,1-.42,0l-.17-2.26-2.13,1.12c-.15,0-.25-.22-.2-.38l1.94-1.37-2-1.39a.26.26,0,0,1,.21-.36l2.14,1.09.17-2.27a.4.4,0,0,1,.42,0Zm-56.94-1.28a1.07,1.07,0,0,0-1-.63.92.92,0,0,0-1,.9c0,.51.52.73.9.9l.37.17c.74.34,1.36.7,1.36,1.62a1.79,1.79,0,0,1-3.55.3l.62-.17a1.18,1.18,0,0,0,1.14,1.08,1.16,1.16,0,0,0,1.17-1.14c0-.67-.52-.91-1-1.14l-.35-.16c-.68-.31-1.23-.66-1.23-1.48a1.5,1.5,0,0,1,1.59-1.48,1.65,1.65,0,0,1,1.46.89Zm2.95,3.48,1.1-2.69,1.11,2.69,1.06-2.42h.68l-1.76,3.85-1.09-2.7-1.09,2.7-1.73-3.85h.67Zm5-1a1.06,1.06,0,0,1,2.11,0Zm2.75.51a1.73,1.73,0,1,0-3.41-.08,1.73,1.73,0,0,0,1.74,1.87,1.77,1.77,0,0,0,1.63-1l-.51-.29a1.23,1.23,0,0,1-1.08.75,1.16,1.16,0,0,1-1.16-1.22Zm1.6-.51a1.14,1.14,0,0,1,1.09-.95,1.1,1.1,0,0,1,1,.95Zm2.74.51a1.74,1.74,0,0,0-1.67-2,1.77,1.77,0,0,0-1.73,2,1.74,1.74,0,0,0,1.75,1.87,1.77,1.77,0,0,0,1.63-1l-.51-.29a1.23,1.23,0,0,1-1.09.75,1.17,1.17,0,0,1-1.15-1.22Zm1.92,1.68h-.6v-3h-.37v-.56h.37v-1.31h.6v1.31H309v.56h-.63Zm3.06-2.75A.54.54,0,0,0,311,750a.43.43,0,0,0-.44.4c0,.33.41.45.82.62s.82.44.82,1a1.17,1.17,0,0,1-1.2,1.19,1.3,1.3,0,0,1-1.25-.92l.53-.22c.17.33.34.57.72.57a.55.55,0,0,0,.59-.56c0-.8-1.6-.52-1.6-1.66a1,1,0,0,1,1.06-1,1.07,1.07,0,0,1,.94.68Zm6.43-3.34,2.05,4.84L322,747l1.17,6.09h-.65l-.74-3.91h0l-1.84,4.16-1.82-4.16h0l-.74,3.91h-.65Zm8.14,3a1.35,1.35,0,0,1,0,2.68,1.35,1.35,0,0,1,0-2.68Zm1.76-.45h-.6V750h0a1.5,1.5,0,0,0-1.21-.63,1.92,1.92,0,0,0,0,3.82,1.49,1.49,0,0,0,1.22-.59h0v.48h.6Zm2,.43h0a1.2,1.2,0,0,1,1-.55c1,0,1.23.74,1.23,1.58v2.13h-.61v-2c0-.58-.05-1.11-.74-1.11-.84,0-.88.79-.88,1.44v1.7h-.62v-3.59h.62Zm4,0h0a1.22,1.22,0,0,1,1-.55c1,0,1.21.74,1.21,1.58v2.13h-.6v-2c0-.58,0-1.11-.75-1.11s-.88.79-.88,1.44v1.7h-.6v-3.59h.6Zm3.93,1a1.15,1.15,0,0,1,1.08-.95,1.07,1.07,0,0,1,1,.95Zm2.76.51a1.73,1.73,0,1,0-3.41-.08,1.76,1.76,0,0,0,3.36.84l-.51-.29a1.21,1.21,0,0,1-1.07.75,1.17,1.17,0,0,1-1.16-1.22Zm1.76-1.53h0a.93.93,0,0,1,.78-.5,1,1,0,0,1,.54.18l-.28.56c-.13-.08-.2-.17-.36-.17-.66,0-.7.86-.7,1.34v1.8h-.6v-3.59h.6Zm-89.84-2.86,4.48,4.78v-4.55h.64v6.12L253,748.63v4.5h-.64Zm8.1,2.91a1.36,1.36,0,0,1,0,2.71,1.36,1.36,0,0,1,0-2.71Zm0,3.27a1.92,1.92,0,1,0-1.87-1.91A1.88,1.88,0,0,0,260.49,753.23Zm3.52-3.34h0a.9.9,0,0,1,.78-.5,1.15,1.15,0,0,1,.55.17l-.28.56a.62.62,0,0,0-.37-.16c-.67,0-.7.88-.7,1.35v1.82h-.61v-3.64H264Zm2.92,3.24h-.62v-3.06H266v-.58h.36v-1.32h.62v1.32h.65v.58h-.65Zm2.41-6.38v3.19a1.17,1.17,0,0,1,1-.55c1,0,1.23.73,1.23,1.59v2.15H271v-2c0-.58,0-1.12-.75-1.12s-.88.81-.88,1.44v1.73h-.62v-6.38Zm4,4.16a1.14,1.14,0,0,1,1.08-.95,1.11,1.11,0,0,1,1.06.95Zm2.78.53a1.78,1.78,0,0,0-1.7-2.05,1.76,1.76,0,0,0-1.73,2,1.73,1.73,0,0,0,1.73,1.87,1.78,1.78,0,0,0,1.67-1l-.53-.29a1.22,1.22,0,0,1-1.09.76,1.16,1.16,0,0,1-1.15-1.23Zm1.57-1.55h0a.93.93,0,0,1,.8-.5,1.08,1.08,0,0,1,.54.17l-.28.56c-.13-.08-.2-.16-.36-.16-.67,0-.7.88-.7,1.35v1.82h-.62v-3.64h.62Zm2.79.05h0a1.18,1.18,0,0,1,1-.55c1,0,1.22.73,1.22,1.59v2.15h-.62v-2c0-.58-.05-1.12-.75-1.12s-.88.81-.88,1.44v1.73h-.62v-3.64h.62Z"/></g></g></svg>