<svg xmlns="http://www.w3.org/2000/svg" viewBox="0 0 532.73 714.62"><defs><style>.cls-1{fill:#fff;opacity:0.75;}.cls-2{fill:#006bac;}</style></defs><g id="レイヤー_2" data-name="レイヤー 2"><g id="テキスト"><path class="cls-1" d="M493.08,37.08H415.27a326.53,326.53,0,0,0-302.26,0H39.65L21.57,55.16V659.45l18.08,18.08h77.81a326.45,326.45,0,0,0,302.26,0h73.36l18.08-18.08V55.16Z"/><path class="cls-2" d="M34.93,170.05l-8.56-3.5Q17,162.71,17,156.42a9.48,9.48,0,0,1,3.56-7.56,13.25,13.25,0,0,1,9-3.06,13,13,0,0,1,7.17,1.78q2.67,1.56,5.62,6.68L52.84,148q-8.34-14.47-23.19-14.47-11,0-18.41,6.57a20.66,20.66,0,0,0-7.4,16.18q0,14.35,17.63,21.81l8.29,3.45a36.18,36.18,0,0,1,5.56,2.92,17.17,17.17,0,0,1,3.81,3.28,11.66,11.66,0,0,1,2.17,3.84,14.54,14.54,0,0,1,.7,4.59,14.06,14.06,0,0,1-4,10.29,13.59,13.59,0,0,1-10.07,4.06q-7.67,0-11.68-5.57Q14,202.1,13.13,194.53L0,197.42q1.79,12,9,18.63t18.46,6.62a27.12,27.12,0,0,0,19.75-7.78q7.89-7.74,7.9-19.58a23.24,23.24,0,0,0-4.84-14.94Q45.39,174.28,34.93,170.05ZM125.87,187q0,11.23-3.61,16.19-5.4,7.4-15.24,7.4t-15.19-7.4Q88.22,198,88.22,187V135.23h-13v55.29q0,13.57,8.46,22.36A31.1,31.1,0,0,0,107,222.67a31.29,31.29,0,0,0,23.36-9.79q8.44-8.79,8.45-22.36V135.23h-13Zm81.52,8.57-29.48-66.75-18.08,92.34h13.4l9.24-51.9,24.69,55.85,25.43-55.8,8.28,51.85h13.3l-16.25-92.34Zm116.36,0-29.48-66.75-18.08,92.34h13.4l9.24-51.9,24.69,55.85,25.42-55.8,8.29,51.85h13.3l-16.25-92.34Zm72.94,25.59h47.39V208.93H409.65v-28.7h33.43V168.05H409.65V147.41h34.43V135.23H396.69Zm109.45-36.61a23.33,23.33,0,0,0,13.8-8.39,24.46,24.46,0,0,0,5.23-15.69q0-11.69-8.35-18.8-7.56-6.4-24.58-6.4H477.05v85.89h13V186h2.34l24.53,35.16h15.85ZM490,174.67V147.41h4.62q17.91,0,17.91,13.19,0,14.07-18.41,14.07Z"/><path class="cls-2" d="M72.78,345.11h13V304.23h28.87V292.05H85.74V271.41h29.93V259.23H72.78Zm112.19-45a24.41,24.41,0,0,0,5.23-15.68q0-11.69-8.35-18.8-7.56-6.4-24.58-6.4H142.08v85.88h13V310h2.34l24.53,35.15h15.85l-26.59-36.6A23.3,23.3,0,0,0,185,300.11ZM155,298.67V271.41h4.62q17.91,0,17.91,13.18,0,14.09-18.41,14.08ZM264.7,311q0,11.24-3.61,16.19-5.4,7.39-15.25,7.4t-15.18-7.4Q227,322,227,311V259.23h-13v55.29q0,13.58,8.46,22.36a32.71,32.71,0,0,0,46.67,0q8.44-8.79,8.45-22.36V259.23h-13Zm42.66,34.15h13V259.23h-13Zm34.83-73.7h19.75v73.7h13v-73.7h19.69V259.23h-52.4Zm114.47,33q-4.83-6.09-15.29-10.32l-8.57-3.5q-9.35-3.84-9.34-10.13a9.45,9.45,0,0,1,3.56-7.56,14.94,14.94,0,0,1,16.13-1.28q2.67,1.56,5.62,6.67L459.28,272q-8.34-14.46-23.2-14.46-11,0-18.41,6.57a20.67,20.67,0,0,0-7.4,16.18q0,14.35,17.64,21.81l8.28,3.45a36.32,36.32,0,0,1,5.57,2.92,17.64,17.64,0,0,1,3.81,3.28,11.74,11.74,0,0,1,2.17,3.84,14.52,14.52,0,0,1,.69,4.58,14,14,0,0,1-4,10.29,13.56,13.56,0,0,1-10.07,4.07q-7.68,0-11.68-5.57c-1.49-1.92-2.52-5.41-3.12-10.45l-13.12,2.89q1.77,12,8.95,18.63t18.47,6.62a27.06,27.06,0,0,0,19.74-7.79q7.9-7.72,7.9-19.58A23.23,23.23,0,0,0,456.66,304.37Z"/><path class="cls-2" d="M70.6,418.16,62,414.66q-9.35-3.84-9.34-10.13A9.45,9.45,0,0,1,56.25,397a13.24,13.24,0,0,1,9-3.06,13.11,13.11,0,0,1,7.18,1.78q2.67,1.56,5.62,6.67l10.51-6.23q-8.34-14.46-23.2-14.46-11,0-18.41,6.56a20.71,20.71,0,0,0-7.4,16.19q0,14.35,17.64,21.81l8.28,3.44A37.66,37.66,0,0,1,71,432.59a17.94,17.94,0,0,1,3.81,3.29A11.64,11.64,0,0,1,77,439.72a14.52,14.52,0,0,1,.69,4.58,14,14,0,0,1-4,10.29,13.56,13.56,0,0,1-10.07,4.07q-7.68,0-11.68-5.57c-1.49-1.93-2.52-5.41-3.12-10.45l-13.12,2.89q1.77,12,8.95,18.63t18.47,6.62A27.1,27.1,0,0,0,82.84,463q7.89-7.73,7.89-19.58a23.23,23.23,0,0,0-4.84-14.93Q81.06,422.39,70.6,418.16Zm110.58,22.58-22.36-61.57-23.36,61.57-22.36-57.4H99l36.49,91.39,23-60.91,22.09,60.85L219,383.34H204.93Zm51,28.48h47.4V457H245.15v-28.7h33.43V416.16H245.15V395.52h34.44V383.34h-47.4Zm74.9,0h47.39V457H320.05v-28.7h33.43V416.16H320.05V395.52h34.43V383.34H307.09Zm69.3-73.7h19.74v73.7h13v-73.7h19.69V383.34h-52.4Zm115.84,33q-4.85-6.09-15.3-10.32l-8.57-3.5Q459,410.82,459,404.53a9.45,9.45,0,0,1,3.56-7.56,13.24,13.24,0,0,1,8.95-3.06,13.11,13.11,0,0,1,7.18,1.78q2.67,1.56,5.62,6.67l10.51-6.23q-8.34-14.46-23.2-14.46-11,0-18.41,6.56a20.7,20.7,0,0,0-7.39,16.19q0,14.35,17.63,21.81l8.29,3.44a38,38,0,0,1,5.56,2.92,17.46,17.46,0,0,1,3.81,3.29,11.64,11.64,0,0,1,2.17,3.84,14.52,14.52,0,0,1,.69,4.58,14,14,0,0,1-4,10.29,13.56,13.56,0,0,1-10.07,4.07q-7.68,0-11.68-5.57-2.22-2.89-3.12-10.45L442,445.53q1.77,12,8.95,18.63t18.47,6.62A27.1,27.1,0,0,0,489.17,463q7.89-7.73,7.89-19.58A23.28,23.28,0,0,0,492.23,428.48Z"/><path class="cls-2" d="M149.31,598.51h13V557.62h28.87V545.44H162.27V524.8h29.92V512.62H149.31Zm48.06,0h14l9.57-20.86h36.76l9,20.86h14.19l-41-91.28Zm28.92-33,13.35-29.21,12.74,29.21Zm69.86,33h13V512.62h-13Zm71.8-36.6a23.39,23.39,0,0,0,13.8-8.4A24.46,24.46,0,0,0,387,537.82q0-11.69-8.35-18.8-7.56-6.39-24.58-6.4H338.86v85.89h13V563.35h2.34l24.53,35.16h15.85Zm-16.13-9.85V524.8h4.62q17.91,0,17.91,13.19,0,14.07-18.41,14.07Z"/><path class="cls-2" d="M114.22,97.05c.06.14.09.28-.09.39s-.44-.13-1.11-.78c-.18-.18-.87-.85-1.13-1.12a2.73,2.73,0,0,1-.23-.25c-.06-.12,0-.21.24-.59.15-.22.81-1.18.93-1.38a.94.94,0,0,0,0-1,8.39,8.39,0,0,0-.44-.79c-.23-.39-.34-.45-.52-.35a.89.89,0,0,0-.16.17,2.87,2.87,0,0,1-.63.74c-.23.14-.41-.07-.58-.28-.59-.68-1.28-1.41-2-2.07a1.88,1.88,0,0,1-.34-.35c-.23-.39.75-1.52.87-1.59s.45,0,.68.28.55.49.64.59.19.2.29.14.08-.09,0-.25l-.32-.54c-.38-.66-.79-1.26-1.12-1.82-.43-.74-.1-1.14.54-1.52s1.34-.74,2-1.13l2.06-1.21c.5-.3.47-.67.35-.86s-.23-.31-.35-.5.08-.36.26-.46,2.34-1.21,2.59-1.32.56-.25.69,0,0,.28,0,.45a.2.2,0,0,0,0,.23c.09.15.28.25.57.08l3.67-2.16c.67-.4,1.31-.83,2-1.22.41-.24.53-.12.85.42l.46.79c.31.53.34.67-.22,1-.35.2-1,.51-1.86,1l-1.3.76c-.24.14-.27.21-.29.4a.3.3,0,0,1-.07.15.11.11,0,0,0,0,.14c.08.14.88.08,1,.06a25.8,25.8,0,0,0,4.6-.75c.23-.06.44-.1.54.07a4.27,4.27,0,0,1,.06,1.75.41.41,0,0,0,0,.29c0,.06.06,0,.17.06a.2.2,0,0,1,.19.1c.08.13,0,.29-.1.42s-.06.29.23.78l1.26,2.13c1,1.63.63,2.63-1,3.58-.71.42-1,.54-1.73-.41a.47.47,0,0,0-.63-.18c-.08,0-.14.11-.22.15l-.72.43c-.21.12-.42.17-.58-.11-.26-.44-.5-.93-.77-1.39l-.53-.9a7.08,7.08,0,0,0-.67-1l-.06-.1c-.1-.17.06-.29.18-.36S124,85,124.15,85s.41-.19.52,0a.32.32,0,0,1,0,.35c-.09.15-.1.24.16.66l.89,1.51c.21.37.39.63.63.5s.3-.37.13-.66l-1.06-1.8c-.22-.37-.4-.68-.5-.81s-.21-.26-.23-.3,0-.25.27-.42.52-.28.57-.32.18-.15.14-.21-.06-.06-.16-.06c-.26,0-1.58.2-1.8.23-.06,0-.11,0-.14,0s-.1.19,0,.31,0,.29-.2.38L122,85.1l-2,1.19-1.32.8c-.26.15-.35,0-.42,0a.2.2,0,0,0-.23,0,.52.52,0,0,0-.16.17c-.08.1-.57.78-.59.82s-.16.22-.11.3.09.07.17,0l1.73-1c.46-.27.91-.57,1.38-.84s.93-.55,1.3.07c.16.27.47.9.8,1.46l.75,1.26c.19.33.41.62.6.93.84,1.43-.29,2.12-1.4,2.78-.54.32-1,.57-1.46-.27-.12-.21-.18-.44.07-.59l.37-.21c.29-.17.28-.24.17-.42l0-.06c-.09-.15-.17-.16-.29-.09l-.54.32a.63.63,0,0,0-.28.9c.11.19.33.48.46.69.23.39.09.52-.51.88l-.93.54c-.41.24-.6.23-.79-.1s-.39-.79-.65-1.24l-1.18-2c-.35-.6-.69-1.08-.87-1.39l-.23-.39a.57.57,0,0,0-.34-.22c-.25-.06-.59-.2-.82-.27a.25.25,0,0,0-.19,0c-.06,0-.06.12,0,.25l.54.91a24.76,24.76,0,0,1,3.26,7.93,23.46,23.46,0,0,1,.31,2.88.59.59,0,0,1-.24.58c-.4.24-2.58.22-2.85-.23a1,1,0,0,1,0-.4,12.12,12.12,0,0,0-.1-1.82,16.39,16.39,0,0,0-.63-2.79.71.71,0,0,0,0-.16.12.12,0,0,0-.18-.05c-.08.05-.11.17-.26.49A.44.44,0,0,0,114.22,97.05ZM113,85.57a.64.64,0,0,0-.22.86l.72,1.22c.11.2.3.43.55.28a1.93,1.93,0,0,0,.38-.38c.72-.82,3-3.71,2.75-4.16-.12-.21-.42,0-.55,0Zm11,9.08c.18.31.35.23.68,0l1.77-1c.6-.35.55-.56.38-1A.42.42,0,0,1,127,92a5.67,5.67,0,0,1,1.54-.49.71.71,0,0,1,.83.29,3.18,3.18,0,0,1,.25,2.12A3.12,3.12,0,0,1,128,95.66l-2.91,1.72c-1.38.81-2.22,1.15-3.17-.46-.15-.25-.26-.53-.41-.78l0-.08c-.08-.13-.2-.28-.37-.17s-.15.37-.08.57a22.06,22.06,0,0,1,.49,2.42c0,.31,0,.63-.26.81s-1.94.57-2.19.14a1.41,1.41,0,0,1,0-.49,10,10,0,0,0-.5-2.79c-.07-.22-.11-.46.12-.59a17.36,17.36,0,0,1,2-.58.72.72,0,0,0,.21,0,.18.18,0,0,0,0-.28c-.07-.12-.16-.23-.22-.34s0-.34.15-.46,2.12-1.09,2.39-1.2.33-.11.43.06a.23.23,0,0,1,0,.3c-.13.19,0,.42.12.69Zm-4.1-5.58a.25.25,0,0,0,.09-.34l-.07-.12a.25.25,0,0,0-.34-.09l-.89.53a.26.26,0,0,0-.09.34l.07.11a.25.25,0,0,0,.34.09ZM121,84c.1,0,.13-.13.09-.2s-.41-.08-.79-.09a.79.79,0,0,0-.44,0,1.24,1.24,0,0,0-.38.59c-.06.12-.24.4-.18.5s.24,0,.32,0Zm-.27,6.46a.27.27,0,0,0,.09-.34l-.07-.11a.25.25,0,0,0-.34-.09l-.89.52a.25.25,0,0,0-.09.34l.07.12a.25.25,0,0,0,.34.09Zm3.75.61a4.34,4.34,0,0,1,2.16.56c.2.33-.51,1.79-.74,1.93s-.29,0-.71-.09c-.24-.06-.59-.17-1.09-.29-.11,0-.31,0-.38-.17S124.33,91.19,124.5,91.09Zm7.07-1.21A13.07,13.07,0,0,1,133.4,91c.19.33-.87,1.9-1.12,2s-.36,0-.63-.18a20.28,20.28,0,0,0-2.7-1.62,1.27,1.27,0,0,1-.48-.32c-.17-.29.77-1.71,1-1.86S130.27,89.18,131.57,89.88Z"/><path class="cls-2" d="M138.26,70c.18,0,.51-.09.58.08a.22.22,0,0,1-.06.23c-.24.33-.17.6,0,1.15a41.91,41.91,0,0,0,3,7.92c.76,1.61,1.54,3.25,3.17,2.48a4.81,4.81,0,0,0,2.45-3.28,7.31,7.31,0,0,0-.09-3.57c-.11-.44-.23-.84.12-1a3.23,3.23,0,0,1,1.78.18c.52.15,1.39.41,1.63.92a8.33,8.33,0,0,1,.31,2.92,8,8,0,0,1-4.49,7,5.5,5.5,0,0,1-4.72.19c-1.64-.82-2.78-2.91-3.55-4.54-1.11-2.34-2.09-4.94-3-7.21-.16-.45-.47-1.15-.69-1.62s-.34-.71,0-.87A36.35,36.35,0,0,1,138.26,70Z"/><path class="cls-2" d="M165.65,59.5a11.1,11.1,0,0,0,1.43-.6,3.91,3.91,0,0,1,.51-.24c.66-.24,2.41.91,2.52,1.2a2.5,2.5,0,0,1-.08.78,40.47,40.47,0,0,1-1.24,5.64.64.64,0,0,0,0,.47.5.5,0,0,0,.46.33,48.36,48.36,0,0,1,5,1.57c.28.11,1.26.49,1.48.63a.32.32,0,0,1,.22.2c.22.59-.86,3.11-1.45,3.33-.32.12-.72-.12-1.05-.31a.76.76,0,0,0-.16-.11,24.72,24.72,0,0,0-5-2,1.81,1.81,0,0,0-.83-.1.76.76,0,0,0-.43.45,25.89,25.89,0,0,1-2.38,3.76,15.77,15.77,0,0,1-2.37,2.59c-.38.14-1.59-.73-2-1a3.43,3.43,0,0,1-.95-.95c-.12-.31.13-.55.35-.73a20.1,20.1,0,0,0,6.1-10.14,1.57,1.57,0,0,0,.06-.74c-.13-.36-.51-.27-.87-.14l-3.2,1.19c-.95.36-1.91.76-2.88,1.12-.53.2-.66,0-1-.8l-.52-1.42c-.28-.73-.29-.9.22-1.09,1-.36,2-.65,2.93-1Z"/><path class="cls-2" d="M194.49,64.24c.16.59.34,1.17.5,1.76.1.39.24.79.35,1.21.18.67-.18.79-1.27,1.09l-.89.24c-1,.27-1.21.19-1.34-.31-.27-1-.49-2-.75-3l-1.32-4.84c-.09-.33-.25-.52-.54-.44s-.42.35-.54.5c-.47.57-2.93,3.38-3.43,3.51A6.15,6.15,0,0,1,182,62.14c-.06-.24.18-.4.35-.52a30.6,30.6,0,0,0,3.63-3.4,27.26,27.26,0,0,0,4.27-6.2,24.69,24.69,0,0,0,1.26-3.26c0-.12.06-.29.21-.33a16.61,16.61,0,0,1,3.29,1c.32.12.55.29.58.42s-.09.24-.21.32a1.49,1.49,0,0,0-.69.58c-.37.66-1,2.12-2.19,4.21a1.49,1.49,0,0,0-.2,1.25Z"/><path class="cls-2" d="M219.75,50.69c1.31-.24,2.71-.58,2.91-.62.58-.1.71.13.82.77l.2,1.06c.22,1.22.26,1.6-.45,1.73s-1.89.27-2.87.45l-10.19,1.83c-1,.17-2,.43-2.82.58s-.83-.29-1-1.46l-.19-1c-.12-.67-.1-.95.48-1,.31-.05,1.57-.19,3-.44Z"/><path class="cls-2" d="M234.75,44.77a33.39,33.39,0,0,1,2.82,3.66,1.46,1.46,0,0,1,.26.54c0,.59-2.06,1.79-2.45,1.82-.22,0-.4-.21-.63-.58s-1.49-2.26-2.53-3.53a1.16,1.16,0,0,1-.33-.51c0-.45,2-1.6,2.41-1.63C234.48,44.52,234.63,44.67,234.75,44.77Zm13.95-1.69c.26.07,1.18.3,1.2.55s-.16.24-.3.36a1.65,1.65,0,0,0-.5,1.09c-.89,5.07-3,9.32-7,12.17a22.54,22.54,0,0,1-4.38,2.35,1.79,1.79,0,0,1-.46.16c-.41,0-1-.62-1.42-1.15a4.12,4.12,0,0,1-.91-1.36c0-.3.29-.41.53-.48a24.17,24.17,0,0,0,4.08-1.94c4-2.4,6.12-7.56,6.16-12.06,0-.2,0-.36.21-.38S248.33,43,248.7,43.08Zm-8.32-.29a32.33,32.33,0,0,1,2.76,3.6,1.31,1.31,0,0,1,.22.5c0,.56-2.06,1.76-2.46,1.79-.25,0-.36-.17-.62-.57a37.45,37.45,0,0,0-2.57-3.53c-.08-.13-.3-.36-.31-.5,0-.44,2-1.61,2.41-1.65C240,42.41,240.23,42.64,240.38,42.79Z"/><path class="cls-2" d="M264.29,56.21c0,.65-1.62,2.38-2.25,2.38-.23,0-.39-.23-.5-.39a17.91,17.91,0,0,0-3.68-3.32.41.41,0,0,1-.22-.32c0-.42,1.63-2.17,2.12-2.17S264.3,55.65,264.29,56.21Z"/><path class="cls-2" d="M279.91,42.88c.25-.7.49-1.25.73-2,.05-.2.14-.42.36-.4s2.77,1.37,3.16,1.57.52.36.51.49-.1.17-.22.21c-.59.18-.78.51-1.11,1.07a17.38,17.38,0,0,0-1.82,6.63c0,.47-.06.94.16,1s.26-.14.34-.27c.26-.52.41-.78.62-.76s1.4.84,1.38,1.18-1.46,2.78-1.57,4.31c0,.25,0,.63,0,.9a2.7,2.7,0,0,1,0,.41c0,.6-.76.89-1.27,1.06a3.78,3.78,0,0,1-1.16.21c-.41,0-.58-.4-.8-.91a16.62,16.62,0,0,1-.89-7.31A28.86,28.86,0,0,1,279.91,42.88Zm12.76-1.09c.11,0,.29.09.28.24a.75.75,0,0,1-.21.39,3.52,3.52,0,0,0-.54,1.95.48.48,0,0,0,.45.58,15,15,0,0,0,1.69-.27,3.64,3.64,0,0,1,.6-.09c.33,0,.39.48.43.82a8.83,8.83,0,0,1,.14,1.88c0,.56-.25.66-2.74.82-.5,0-.75.13-.79.69,0,.3-.1,3.36-.1,3.68,0,.54.2.6.75.93a13.2,13.2,0,0,1,2.28,1.87,1.35,1.35,0,0,1,.45,1c0,.63-1.25,2-1.92,2-.34,0-.65-.34-1.09-.83l-.25-.26a.68.68,0,0,0-.44-.3c-.2,0-.27.09-.45.33-.77,1.07-2.37,1.32-3.6,1.23-2.05-.14-4-1.29-3.86-3.61s2.11-3.08,4.09-2.94l.52,0c.38,0,.55-.19.57-.53,0-.51,0-1.58,0-1.93.05-.77,0-1.13-.51-1.17s-2-.05-2.9-.11l-.34,0a1.73,1.73,0,0,1-1.11-.3,11.16,11.16,0,0,1,0-2.53c0-.29.11-.6.47-.57.13,0,.82.12,1,.16.92.15,1.83.26,2.73.32.36,0,.66-.09.69-.49s-.06-2.71,0-3.21c0-.27.11-.37.38-.35C289.83,41.16,292.12,41.66,292.67,41.79Zm-6,13.25c0,.45.67.73,1.15.76s1-.11,1.06-.71-.66-.52-1-.55S286.68,54.55,286.64,55Z"/><path class="cls-2" d="M310.63,44.28c.27.13.48.26.46.39s-.09.12-.18.15c-.44.16-.55.56-.67,1a43.72,43.72,0,0,0-2,8.21c-.27,1.73-.55,3.56,1.23,3.83a4.8,4.8,0,0,0,3.87-1.34,7.24,7.24,0,0,0,1.93-3c.13-.42.28-.8.66-.75s1.06.78,1.37,1.15.92,1.12.84,1.68a8.88,8.88,0,0,1-1.38,2.59,8,8,0,0,1-7.66,3.28,5.47,5.47,0,0,1-4-2.49c-.9-1.59-.66-4-.39-5.75.39-2.56,1-5.08,1.59-7.64.12-.5.25-1.21.33-1.72s.12-.78.5-.72A31.91,31.91,0,0,1,310.63,44.28Zm4,2.28c.26.34,1.47,2,1.41,2.34s-1.28,1.05-1.52,1-.24-.22-.29-.34c-.39-.7-.84-1.36-1.28-2-.08-.11-.19-.26-.17-.37.05-.34,1.35-.93,1.57-.9S314.59,46.48,314.65,46.56Zm2.76-1.51c.23.29.47.64.73,1a4,4,0,0,1,.72,1.36c-.06.38-1.26,1.06-1.5,1-.07,0-.17-.09-.29-.32a18.17,18.17,0,0,0-1.33-2,.68.68,0,0,1-.17-.37c.05-.36,1.35-.93,1.57-.9A.49.49,0,0,1,317.41,45.05Z"/><path class="cls-2" d="M341.13,50c.18.11.41.31.35.55a.86.86,0,0,1-.23.36,3.24,3.24,0,0,0-.72,1.31c-.09.37.25.59.62.8a6.48,6.48,0,0,1,3.21,7.52c-.93,3.74-4,5.44-7.52,6.19a3.41,3.41,0,0,1-1.46.1c-.7-.18-1.28-2.41-1.15-2.93,0-.22.25-.29.94-.33,2.44-.13,5.38-1.31,6-3.93a3.45,3.45,0,0,0-1.71-4c-.28-.07-.48.09-.63.38a17.13,17.13,0,0,1-4.38,5.61c-1.48,1.19-3.74,2.28-5.69,1.8-2.36-.59-2.56-3.12-2.08-5.09a8.15,8.15,0,0,1,3.18-4.76.8.8,0,0,0,.4-.48,3.56,3.56,0,0,0,0-.61c-.07-.94-.11-1.88-.18-2.83a2.09,2.09,0,0,1,0-.45c.06-.22.31-.29.54-.31a19.48,19.48,0,0,1,2.66,0c.35.08.33.38.27,1.15,0,.28-.05.59-.08,1s0,.56.33.64a.81.81,0,0,0,.45,0,11.14,11.14,0,0,1,2.16-.11c.8.06.88-.18,1.28-1.77.06-.24.09-.49.15-.73s.17-.49.5-.41A23.9,23.9,0,0,1,341.13,50ZM329.8,59.14c-.08.33-.25,1.19.23,1.31.29.07,1.13-.25,1.22-.62a.78.78,0,0,0,0-.4c-.25-1.36-.35-1.87-.55-1.92C330.32,57.42,329.87,58.86,329.8,59.14Zm4.51-4.26c-.27.07-.53.17-.61.5a9.64,9.64,0,0,0,.16,1.62.35.35,0,0,0,.25.31c.26.07.64-.46,1-1a9.84,9.84,0,0,0,.68-1.22.27.27,0,0,0-.2-.33A4.36,4.36,0,0,0,334.31,54.88Z"/><path class="cls-2" d="M365.37,56.89c.1.06.28.15.23.32a.87.87,0,0,1-.28.31,2.45,2.45,0,0,0-.8,1.22.49.49,0,0,0,.3.65c.38.13,2.61.38,3.21.44A5,5,0,0,1,369,60c.3.1.26.56.22.81a11.73,11.73,0,0,1-.39,1.89c-.18.51-.46.51-1.19.4-1.13-.17-2.29-.38-3.43-.61-.53-.11-.79-.12-.94.32a.5.5,0,0,0,.28.7,19.5,19.5,0,0,0,2.41.32,3.06,3.06,0,0,1,.57.1c.17.06.21.27.2.57a9.08,9.08,0,0,1-.55,2.1c-.23.68-.92.54-2.95.08-.89-.21-1.09-.16-1.22.22-.41,1.17-.44,1.35.14,1.79.79.6,3.23,2.8,2.88,3.8-.16.47-1.6,1.76-2.28,1.52-.3-.1-.71-.72-1.26-1.53-.14-.21-.51-.74-.76-.83s-.47.1-.65.3c-1.26,1.43-3.12,1.31-4.78.74a5.06,5.06,0,0,1-2.37-1.56,3.24,3.24,0,0,1-.48-3,3.09,3.09,0,0,1,2-1.92,6.08,6.08,0,0,1,3.6.26l.24.08a.44.44,0,0,0,.6-.31.54.54,0,0,0-.29-.75c-.38-.13-1.74-.48-2.67-.8s-1-.37-1-1a8.92,8.92,0,0,1,.39-2.08c.11-.32.25-.61.63-.47.62.21,1.5.63,2.52,1l.58.2c.53.18.95.28,1.11-.19a.52.52,0,0,0-.33-.71c-.72-.25-2.05-.61-3.05-1l-.64-.22c-.85-.29-1.52-.55-1.55-.89a8.19,8.19,0,0,1,.53-2.32c.11-.3.25-.65.66-.51s2.57,1.1,4,1.58l.46.16c.52.18.91.27,1.07-.18.06-.19.37-1.42.43-1.82a3.12,3.12,0,0,1,.15-.62c.08-.26.25-.27.51-.18S364.87,56.62,365.37,56.89ZM355.19,69.12c-.18.51.6.81,1,.93.58.2,1.33.29,1.58-.43.1-.3-.14-.41-.55-.55S355.4,68.51,355.19,69.12Z"/><path class="cls-2" d="M385.82,66c.15.12.4.33.33.49a.22.22,0,0,1-.22.1c-.41,0-.56.27-.9.74a42.6,42.6,0,0,0-4.07,7.4c-.72,1.62-1.46,3.29.18,4a4.81,4.81,0,0,0,4.09-.28,7.4,7.4,0,0,0,2.64-2.39c.27-.38.49-.72.84-.57s.83,1,1,1.47.59,1.32.36,1.84a8.44,8.44,0,0,1-2,2.13,8,8,0,0,1-8.25,1.16,5.46,5.46,0,0,1-3.22-3.45c-.44-1.77.41-4,1.14-5.65,1.05-2.37,2.38-4.8,3.53-7,.23-.42.56-1.11.77-1.58s.32-.72.67-.56S385.23,65.59,385.82,66Z"/><path class="cls-2" d="M411.76,77.16c.31.3.81.81.7,1s-.21.1-.31.09c-.35,0-.61.26-1.14.81-.14.15-.32.34-.54.55l-.14.15a.38.38,0,0,0,.18.56,9.25,9.25,0,0,0,1.87.38,1.91,1.91,0,0,1,.57.14c.53.29-.55,2.24-.88,2.83-.15.28-.3.35-.67.27-.93-.18-2.35-.59-3.21-.86s-1-.3-1.64.27a64.17,64.17,0,0,1-8.62,6.59c-.3.17-.54.32-.87.14s-1.89-2.21-1.56-2.81a2.21,2.21,0,0,1,.82-.54,35.5,35.5,0,0,0,6.83-4.68,1.26,1.26,0,0,0,.39-.37c.15-.28,0-.46-.25-.58-.39-.22-.89-.42-1.33-.66s-.63-.43-.51-.93a17.1,17.1,0,0,1,.95-2.21c.14-.25.29-.43.6-.25s1,.7,2.05,1.27,1.3.72,1.73.32a25.64,25.64,0,0,0,2.59-3.3c.06-.12.16-.2.28-.13S411.46,76.86,411.76,77.16Zm-7.33,12c.27,1.42,1.64,2.47,2.82,3.12a10.77,10.77,0,0,0,3.2,1.25.62.62,0,0,1,.24.08c.31.17.11.63-.24,1.26l-.33.59c-.6,1.08-.73,1.31-1.14,1.21a26.25,26.25,0,0,1-3.47-1.59c-1.39-.78-3.2-2-3.89-3.51-.18-.41-.51-1.31-.26-1.77a5.33,5.33,0,0,1,1.8-1c.26-.09.83-.29,1.07-.16S404.4,89,404.43,89.15Zm5.26-4.9a19.57,19.57,0,0,1,4.13,3.08c.23.23.41.43.23.74a8.05,8.05,0,0,1-1.8,1.84.47.47,0,0,1-.5,0,1.79,1.79,0,0,1-.42-.41,9.9,9.9,0,0,0-3.08-2.41l-.71-.4c-.45-.25-.56-.38-.36-.74C408.44,83.71,408.9,83.81,409.69,84.25Z"/><path class="cls-2" d="M423.47,102.88a3.21,3.21,0,1,1-5.29-3.64,3.19,3.19,0,0,1,4.46-.84A3.23,3.23,0,0,1,423.47,102.88Zm-4.22-2.9a1.91,1.91,0,0,0,3.14,2.16,1.91,1.91,0,0,0-3.14-2.16Z"/><path class="cls-2" d="M223.26,661.24h7v2.67h-9.82V638.1h2.82Zm12.61-7.13a5,5,0,0,1,4.81-4.2,4.84,4.84,0,0,1,4.64,4.2Zm12.27,2.33c.28-4.78-2.42-9.05-7.48-9.05s-7.68,3.92-7.68,8.68,3,8.28,7.74,8.28a8,8,0,0,0,7.29-4.52l-2.29-1.34c-1,1.93-2.52,3.33-4.79,3.33a5.16,5.16,0,0,1-5.19-5.38Zm9.58,7.47h-2.83V640.76h-6.11V638.1h15.11v2.66h-6.17Zm20.64-10h-8.58l4.34-10.32Zm1.09,2.69,3,7.32h3.15l-11.4-27-11.69,27h3.09l3.05-7.32ZM300,640.32A10.69,10.69,0,1,1,289.61,651,10.52,10.52,0,0,1,300,640.32Zm0-2.66A13.35,13.35,0,1,0,313.2,651,13.33,13.33,0,0,0,300,637.66Zm-61.71-12.09a.11.11,0,0,1,.11-.11h.84a.1.1,0,0,0,.11-.11v-.71a.11.11,0,0,0-.11-.12h-.84a.1.1,0,0,1-.11-.11v-.95a.12.12,0,0,0-.12-.13h-.69a.12.12,0,0,0-.11.13v.95a.12.12,0,0,1-.12.11h-.84a.12.12,0,0,0-.12.12v.71a.12.12,0,0,0,.12.11h.84a.13.13,0,0,1,.12.11v2.26a1.4,1.4,0,0,0,1.39,1.4h.48a.1.1,0,0,0,.11-.11v-.72a.13.13,0,0,0-.1-.11c-.38,0-1,.06-1-.46v-2.26Zm-14.5-2.83a.11.11,0,0,1,.11-.11h.69a.11.11,0,0,1,.12.11v6.38a.11.11,0,0,1-.12.11h-.69a.23.23,0,0,1-.17-.1l-2.21-4.41c0-.08,0-.07,0,0v4.4a.12.12,0,0,1-.12.11h-.7a.1.1,0,0,1-.11-.11v-6.38a.1.1,0,0,1,.11-.11h.7a.23.23,0,0,1,.17.1l2.21,4.44c0,.05.06.05.06,0Zm5.33,4.62a.92.92,0,0,1-.92.93.94.94,0,0,1-.94-.93v-1a1,1,0,0,1,.94-.94.93.93,0,0,1,.92.94Zm.93,0v-1a1.85,1.85,0,1,0-3.7,0v1a1.85,1.85,0,1,0,3.7,0Zm16,1.87a.1.1,0,0,1-.1-.11v-6.38a.1.1,0,0,1,.1-.11h.71a.11.11,0,0,1,.11.11v6.38a.11.11,0,0,1-.11.11Zm8.25.32a.1.1,0,0,1-.11-.11v-4.5a.1.1,0,0,1,.11-.1h.7a.1.1,0,0,1,.11.1v4.5a.11.11,0,0,1-.11.11ZM271,622.74a.2.2,0,0,1,.16-.11h.76a.11.11,0,0,1,.11.11v6.38a.11.11,0,0,1-.11.11h-.71a.12.12,0,0,1-.12-.11V625c0-.06,0-.06,0,0l-1.77,4.18a.2.2,0,0,1-.15.11h-.72a.2.2,0,0,1-.15-.11l-1.77-4.18c0-.05,0-.05,0,0v4.17a.11.11,0,0,1-.11.11h-.7a.11.11,0,0,1-.11-.11v-6.38a.11.11,0,0,1,.11-.11h.75a.19.19,0,0,1,.16.11l2.18,5.17c0,.07.06.07.08,0Zm5.29,4.62a.93.93,0,1,1-1.85,0v-1a.93.93,0,1,1,1.85,0Zm.94,0v-1a1.86,1.86,0,1,0-3.72,0v1a1.86,1.86,0,1,0,3.72,0Zm4.91-4.73h-.7a.12.12,0,0,0-.11.11v2a1.84,1.84,0,0,0-2.78,1.62v1a1.87,1.87,0,0,0,1.87,1.87,1.68,1.68,0,0,0,.91-.26v.15a.12.12,0,0,0,.11.11h.7a.1.1,0,0,0,.11-.11v-6.38A.1.1,0,0,0,282.13,622.63Zm-.81,4.73a.93.93,0,1,1-1.86,0v-1a.93.93,0,1,1,1.86,0Zm-47.53-1h-.92a.47.47,0,0,1,0-.94h2a.11.11,0,0,0,.12-.11v-.71a.12.12,0,0,0-.12-.12h-2a1.42,1.42,0,0,0,0,2.84h.93a.47.47,0,1,1,0,.93h-2a.12.12,0,0,0-.11.11v.72a.11.11,0,0,0,.11.11h2a1.42,1.42,0,0,0,0-2.83Zm10.32-1.88h-.68a.11.11,0,0,0-.12.12v.14a1.92,1.92,0,0,0-.93-.26,1.88,1.88,0,0,0-1.85,1.88v1a1.86,1.86,0,0,0,1.85,1.87h.1a1.84,1.84,0,0,0,.76-.21s0,0,.07,0v.15a.11.11,0,0,0,.12.11h.68a.11.11,0,0,0,.12-.11v-4.48A.11.11,0,0,0,244.11,624.52Zm-.8,2.72v.12a.93.93,0,0,1-1.86,0v-1a.93.93,0,1,1,1.86,0Zm8.86-2.71h-.71a.12.12,0,0,0-.11.11v.14a1.9,1.9,0,0,0-.91-.26,1.88,1.88,0,0,0-1.86,1.88v1a1.87,1.87,0,0,0,1.31,1.79,4.54,4.54,0,0,0,.55.08.94.94,0,0,1,.91,1,.93.93,0,0,1-.91.93,1,1,0,0,1-.95-.87l0,0s0,0,0,0h-.86c-.05,0,0,0,0,0a1.85,1.85,0,0,0,1.85,1.85,1.87,1.87,0,0,0,1.83-1.88,1.92,1.92,0,0,1,0-2.83v-2.72A.1.1,0,0,0,252.17,624.53Zm-.82,2.71v.12a.93.93,0,1,1-1.86,0v-1a.93.93,0,1,1,1.86,0Zm9,.14a1.89,1.89,0,0,1-1.86,1.85,1.86,1.86,0,0,1-1.85-1.87v-1a1.86,1.86,0,1,1,3.71,0s0,0,0,0h-.85c-.05,0,0,0,0,0a.93.93,0,0,0-1.86,0v1a.93.93,0,0,0,1.86,0s0,0,0,0h.85C260.38,627.36,260.37,627.38,260.37,627.38Zm25.95.45h.84c.11,0,.08.08.08.08a1.89,1.89,0,0,1-1.78,1.32,1.87,1.87,0,0,1-1.85-1.87v-1a1.86,1.86,0,1,1,3.72,0l0,.7v.14a.11.11,0,0,1-.11.12h-2.66a.94.94,0,0,0,.92.93,1,1,0,0,0,.79-.42S286.26,627.83,286.32,627.83Zm-.86-2.37a.93.93,0,0,0-.92.94h1.85A.94.94,0,0,0,285.46,625.46Zm4.45-.29h0v0h0c-.05,0-.05,0-.05-.08v-.48a.12.12,0,0,0-.13-.11H289a.11.11,0,0,0-.11.11v4.48a.11.11,0,0,0,.11.11h.69a.12.12,0,0,0,.13-.11v-1.76a1.88,1.88,0,0,1,1.85-1.9v-.93A2.76,2.76,0,0,0,289.91,625.17Zm4.94-.65h-.1a1.83,1.83,0,0,0-.76.2h0s-.05,0-.05-.07v0a.11.11,0,0,0-.11-.11h-.69a.11.11,0,0,0-.12.11v4.48a.11.11,0,0,0,.12.11h.69a.11.11,0,0,0,.11-.11V626.4a.93.93,0,1,1,1.85,0v2.72a.13.13,0,0,0,.12.11h.7a.11.11,0,0,0,.12-.11V626.4A1.89,1.89,0,0,0,294.85,624.52Zm-40.23-1.58a.47.47,0,0,0-.45.48.45.45,0,0,0,.45.47.47.47,0,0,0,.48-.47A.49.49,0,0,0,254.62,622.94Zm43.54,5.35a.48.48,0,0,0,0,1,.48.48,0,0,0,0-1M221.8,670.77l1.91-1c.13,0,.22.17.17.32l-1.75,1.24,1.74,1.23a.25.25,0,0,1-.18.34l-1.89-1-.16,2a.32.32,0,0,1-.35,0l-.18-2-1.89,1c-.15,0-.23-.2-.19-.34l1.75-1.23L219,670.12a.23.23,0,0,1,.18-.32l1.91,1,.18-2a.32.32,0,0,1,.35,0Zm89.83,0,1.91-1c.13,0,.22.17.18.32L312,671.36l1.73,1.23c0,.14,0,.33-.19.34l-1.88-1-.16,2a.35.35,0,0,1-.37,0l-.15-2-1.91,1c-.13,0-.22-.2-.18-.34l1.74-1.23-1.76-1.24c0-.15.05-.32.19-.32l1.92,1,.15-2a.35.35,0,0,1,.37,0Zm-50.94-1.14a.94.94,0,0,0-.87-.57.82.82,0,0,0-.86.81c0,.45.47.65.8.8l.34.16c.66.3,1.21.62,1.21,1.45a1.59,1.59,0,0,1-3.17.26l.55-.15a1.07,1.07,0,0,0,1,1,1,1,0,0,0,1-1c0-.59-.46-.8-.93-1l-.31-.14c-.61-.28-1.11-.58-1.11-1.32a1.35,1.35,0,0,1,1.43-1.32,1.46,1.46,0,0,1,1.3.8Zm2.65,3.11,1-2.41,1,2.41.95-2.17h.61L265.3,674l-1-2.41-1,2.41-1.54-3.45h.59Zm4.5-.91a1,1,0,0,1,1-.85,1,1,0,0,1,.93.85Zm2.46.45a1.53,1.53,0,1,0-1.49,1.61,1.59,1.59,0,0,0,1.46-.92l-.46-.26a1.1,1.1,0,0,1-1,.66,1,1,0,0,1-1-1.09Zm1.44-.45a1,1,0,0,1,1-.85,1,1,0,0,1,.92.85Zm2.44.45a1.55,1.55,0,0,0-1.49-1.81,1.58,1.58,0,0,0-1.54,1.75,1.55,1.55,0,0,0,1.56,1.67,1.59,1.59,0,0,0,1.46-.92l-.46-.26a1.09,1.09,0,0,1-1,.66,1,1,0,0,1-1-1.09Zm1.72,1.51h-.53v-2.71H275v-.51h.34V669.4h.53v1.17h.57v.51h-.57Zm2.74-2.47a.48.48,0,0,0-.43-.34.38.38,0,0,0-.39.36c0,.29.36.4.74.55a1,1,0,0,1,.72.93,1,1,0,0,1-1.07,1.07,1.16,1.16,0,0,1-1.11-.83l.47-.2c.15.3.3.51.65.51a.49.49,0,0,0,.52-.5c0-.71-1.43-.46-1.43-1.48a.91.91,0,0,1,.94-.92,1,1,0,0,1,.85.61Zm5.75-3,1.84,4.33,1.84-4.33,1.05,5.45h-.58l-.66-3.5h0L286.23,674l-1.63-3.72h0l-.66,3.5h-.58Zm7.29,2.64a1.2,1.2,0,0,1,0,2.39,1.21,1.21,0,0,1,0-2.39Zm1.58-.41h-.55V671h0a1.37,1.37,0,0,0-1.09-.56,1.57,1.57,0,0,0-1.51,1.71,1.59,1.59,0,0,0,1.51,1.71,1.34,1.34,0,0,0,1.09-.53h0v.43h.55ZM295,671h0a1.08,1.08,0,0,1,.89-.49c.89,0,1.1.66,1.1,1.41v1.91h-.54V672c0-.52,0-1-.67-1s-.78.7-.78,1.28v1.53h-.56v-3.22H295Zm3.61,0h0a1.1,1.1,0,0,1,.91-.49c.87,0,1.08.66,1.08,1.41v1.91h-.54V672c0-.52,0-1-.67-1s-.79.7-.79,1.28v1.53h-.54v-3.22h.54Zm3.52.87a1,1,0,0,1,1-.85,1,1,0,0,1,.92.85Zm2.46.45a1.54,1.54,0,1,0-3-.06,1.55,1.55,0,0,0,1.55,1.67,1.57,1.57,0,0,0,1.45-.92l-.45-.26a1.09,1.09,0,0,1-1,.66,1,1,0,0,1-1-1.09Zm1.58-1.36h0a.81.81,0,0,1,.7-.45.86.86,0,0,1,.48.16l-.25.5c-.11-.07-.18-.15-.32-.15-.6,0-.63.77-.63,1.2v1.61h-.54v-3.22h.54Zm-80.38-2.57,4,4.28v-4.06h.58V674l-4-4.27v4h-.58Zm7.25,2.61a1.14,1.14,0,0,1,1.13,1.21,1.15,1.15,0,0,1-1.13,1.22,1.17,1.17,0,0,1-1.15-1.22A1.16,1.16,0,0,1,233.05,671Zm0,2.93a1.72,1.72,0,1,0-1.68-1.71A1.69,1.69,0,0,0,233.05,673.89Zm3.15-3h0a.8.8,0,0,1,.7-.44,1,1,0,0,1,.49.15l-.25.5a.58.58,0,0,0-.34-.14c-.59,0-.62.78-.62,1.21v1.62h-.55v-3.25h.55Zm2.61,2.9h-.55v-2.73h-.33v-.52h.33v-1.18h.55v1.18h.58v.52h-.58Zm2.16-5.7v2.85a1.07,1.07,0,0,1,.9-.49c.9,0,1.1.65,1.1,1.42v1.92h-.54V672c0-.52,0-1-.68-1s-.78.72-.78,1.29v1.54h-.55v-5.7Zm3.6,3.72a1,1,0,0,1,1-.85,1,1,0,0,1,1,.85Zm2.49.47a1.55,1.55,0,1,0-3.07-.07,1.55,1.55,0,0,0,1.55,1.68A1.6,1.6,0,0,0,247,673l-.47-.26a1.09,1.09,0,0,1-1,.68,1,1,0,0,1-1-1.11Zm1.4-1.39h0a.81.81,0,0,1,.71-.44,1,1,0,0,1,.48.15l-.24.5c-.13-.07-.18-.14-.33-.14-.6,0-.63.78-.63,1.21v1.62h-.55v-3.25h.55Zm2.5.05h0a1.05,1.05,0,0,1,.91-.49c.89,0,1.1.65,1.1,1.42v1.92h-.56V672c0-.52,0-1-.67-1s-.79.72-.79,1.29v1.54h-.55v-3.25H251Z"/></g></g></svg>