<svg xmlns="http://www.w3.org/2000/svg" viewBox="0 0 64.05 89.23"><defs><style>.cls-1{fill:#231815;}</style></defs><g id="レイヤー_2" data-name="レイヤー 2"><g id="テキスト"><circle class="cls-1" cx="32.24" cy="47.08" r="2.19"/><path class="cls-1" d="M28.89,57.43l-.18,0a18,18,0,0,1-14.3-17.54v-22a17.91,17.91,0,1,1,35.82,0v22A18,18,0,0,1,36,57.4a.88.88,0,1,1-.36-1.72A16.19,16.19,0,0,0,48.47,39.87v-22a16.15,16.15,0,0,0-32.3,0v22a16.2,16.2,0,0,0,12.9,15.82.88.88,0,0,1-.18,1.74Z"/><path class="cls-1" d="M32.32,24.51a4.44,4.44,0,0,1-4.43-4.43V11.27a4.43,4.43,0,1,1,8.86,0v8.81A4.43,4.43,0,0,1,32.32,24.51Zm0-15.91a2.67,2.67,0,0,0-2.67,2.67v8.81a2.67,2.67,0,0,0,5.34,0V11.27A2.67,2.67,0,0,0,32.32,8.6Z"/><rect class="cls-1" x="31.3" y="48.09" width="1.76" height="21.14"/><polygon class="cls-1" points="32.19 70.57 28.93 67.31 28.92 64.76 32.19 68.03 35.45 64.77 35.43 67.32 32.19 70.57"/><path class="cls-1" d="M6.56,86.45c0,1.75-1.25,2.78-3.44,2.78a6.5,6.5,0,0,1-2.87-.67c-.18-.1-.25-.16-.25-.28A.6.6,0,0,1,.07,88l.56-1.2c.07-.16.12-.24.2-.24a.58.58,0,0,1,.24.12,3.9,3.9,0,0,0,2.18.69c.74,0,1.2-.28,1.2-.75s-.76-.86-1.77-1.24S.18,84.29.18,82.71C.18,81,1.55,80,3.66,80a6.14,6.14,0,0,1,2.45.53c.17.09.26.15.26.26A.75.75,0,0,1,6.3,81l-.5,1.3c-.07.17-.12.26-.21.26s-.12,0-.23-.11a3.93,3.93,0,0,0-1.9-.53c-.85,0-1.16.32-1.16.69s.66.75,1.42,1C5,84.18,6.56,84.82,6.56,86.45Z"/><path class="cls-1" d="M18,88.51c0,.11-.09.17-.26.25a5.8,5.8,0,0,1-2.3.46A4.13,4.13,0,0,1,11,84.86,4.51,4.51,0,0,1,15.79,80a5.38,5.38,0,0,1,2.05.39c.18.09.27.15.27.26a.87.87,0,0,1-.06.23l-.49,1.36c-.08.18-.12.26-.2.26a.58.58,0,0,1-.25-.09,2.89,2.89,0,0,0-1.32-.31,2.52,2.52,0,0,0-2.66,2.71,2.32,2.32,0,0,0,2.49,2.45A3.21,3.21,0,0,0,17,87a.58.58,0,0,1,.25-.09c.08,0,.13.07.21.26l.43,1.13A.93.93,0,0,1,18,88.51Z"/><path class="cls-1" d="M24.77,86.68c0,.66,0,2.07,0,2.16,0,.26-.07.31-.35.31H23c-.28,0-.36-.05-.36-.31,0-.09,0-1.5,0-2.16V82.5c0-.66,0-2,0-2.11,0-.26.09-.34.35-.34l1.73,0h1.49c1.68,0,3,.67,3,2.59A3,3,0,0,1,28,85.18c-.14.11-.21.19-.21.27a.62.62,0,0,0,.11.26l.41.62c.52.78.92,1.39,1.69,2.51a.53.53,0,0,1,.1.21c0,.07-.09.1-.26.1H28.1a.49.49,0,0,1-.55-.32c-.49-.82-.9-1.47-1.24-2l-.39-.58a.51.51,0,0,0-.56-.31h-.24c-.3,0-.35,0-.35.36Zm0-2.84c0,.31.06.37.37.37h.69a1.18,1.18,0,0,0,1.34-1.28c0-.75-.43-1-1.1-1h-.93c-.31,0-.37.06-.37.36Z"/><path class="cls-1" d="M43.37,84.53a4.45,4.45,0,0,1-4.64,4.69A4.61,4.61,0,0,1,38.94,80,4.32,4.32,0,0,1,43.37,84.53Zm-6.92.13a2.34,2.34,0,0,0,2.36,2.6,2.6,2.6,0,1,0-2.36-2.6Z"/><path class="cls-1" d="M50.19,89.15l-1.74,0c-.26,0-.35-.09-.35-.34,0-.09,0-1.46,0-2.11V82.53c0-.65,0-2.07,0-2.15,0-.26.08-.31.36-.31h1.45c.29,0,.36.05.36.31,0,.08,0,1.5,0,2.15v4.36c0,.31.07.37.37.37h.84l1.91,0c.26,0,.31.07.31.35v1.22c0,.29,0,.36-.31.36l-1.91,0Z"/><path class="cls-1" d="M60.57,89.15l-1.73,0c-.26,0-.35-.09-.35-.34,0-.09,0-1.46,0-2.11V82.53c0-.65,0-2.07,0-2.15,0-.26.08-.31.36-.31H60.3c.29,0,.36.05.36.31,0,.08,0,1.5,0,2.15v4.36c0,.31.06.37.37.37h.84l1.91,0c.26,0,.31.07.31.35v1.22c0,.29,0,.36-.31.36l-1.91,0Z"/></g></g></svg>