<svg xmlns="http://www.w3.org/2000/svg" viewBox="0 0 193.4 71.07"><defs><style>.cls-1{fill:#fff;}.cls-2{fill:#604c3f;}</style></defs><g id="レイヤー_2" data-name="レイヤー 2"><g id="テキスト"><rect class="cls-1" x="0.5" y="0.5" width="192.4" height="70.07" rx="8.31"/><path class="cls-2" d="M184.59,1a7.81,7.81,0,0,1,7.81,7.81V62.26a7.81,7.81,0,0,1-7.81,7.81H8.81A7.81,7.81,0,0,1,1,62.26V8.81A7.81,7.81,0,0,1,8.81,1H184.59m0-1H8.81A8.8,8.8,0,0,0,0,8.81V62.26a8.81,8.81,0,0,0,8.81,8.81H184.59a8.81,8.81,0,0,0,8.81-8.81V8.81A8.8,8.8,0,0,0,184.59,0Z"/><path class="cls-2" d="M86.31,22.67a.51.51,0,0,0,.49-.51l0-1a16.73,16.73,0,0,0-.12-2.27c0-.07,0-.18,0-.23s.09-.2.21-.2a5.59,5.59,0,0,1,1.08.22.24.24,0,0,1,.16.23c0,.1-.09.15-.16.24s-.16.34-.16.62c0,.44,0,.9,0,1.36v1c0,.23.15.49.57.49l1.32,0c.57,0,1.8-.09,2.12-.09s.39.15.39.55-.07.51-.46.51l-1.08,0h-1l-1.38,0a.48.48,0,0,0-.49.5L88,28.82c0,.16,0,.41,0,.62a3.84,3.84,0,0,1-.37,2c-.52.7-1.77.79-2.58.79a.36.36,0,0,1-.41-.28,1.73,1.73,0,0,1-.12-.51c0-.2.12-.23.3-.23,1.92,0,2.15-.12,2.15-1.66V29l-.09-4.48a.18.18,0,0,0-.19-.19c-.11,0-.18.09-.25.18a23.67,23.67,0,0,1-5.08,5.06,6.21,6.21,0,0,1-1.46.9.8.8,0,0,1-.58-.64c0-.17.33-.33.51-.44A21,21,0,0,0,85.57,24a.28.28,0,0,0,.09-.18c0-.25-.27-.2-.29-.2l-3.58.06c-.58,0-1.85.07-2.13.07s-.37-.21-.37-.55,0-.49.42-.49l1.09,0,1,0Z"/><path class="cls-2" d="M108.13,23.53c0,.23-.86,1.06-1.07,1.27a33.39,33.39,0,0,1-4.17,3.51,27.83,27.83,0,0,1-5.15,2.93c-.44.19-.44.21-.6.55a.23.23,0,0,1-.21.12c-.17,0-.26-.21-.39-.48a3.65,3.65,0,0,1-.33-.7c0-.14.26-.2.44-.25a23,23,0,0,0,6.93-3.91,31,31,0,0,0,3.83-3.67.37.37,0,0,1,.27-.2C107.92,22.7,108.13,23.39,108.13,23.53ZM97.22,19.79c.58.41,1.16.81,1.72,1.22.41.3.87.6.87.79s-.34.69-.62.69-.6-.37-.76-.49c-.62-.48-1.23-1-1.9-1.4-.11-.07-.23-.14-.23-.28s.3-.65.58-.65A.77.77,0,0,1,97.22,19.79Z"/><path class="cls-2" d="M120.49,23.11a11.62,11.62,0,0,0,1.18,0,1.14,1.14,0,0,1,.25,0c.39,0,.81.57.81.69s-.25.78-.27.87a13.64,13.64,0,0,1-5.46,7,7.94,7.94,0,0,1-2.07,1.09c-.21,0-.56-.41-.56-.64s.28-.3.42-.37a13,13,0,0,0,6.09-5.92,6.81,6.81,0,0,0,.53-1.36c0-.25-.06-.37-.9-.37h-7.29c-.7,0-1.41,0-2.12,0-.35,0-.38-.19-.38-.51s.07-.53.42-.53c.69,0,1.39,0,2.08,0Zm-1.68-3.76c.6,0,1.29,0,1.78,0s.43.14.43.53,0,.51-.41.51c-.6,0-1.2,0-1.8,0h-4.55c-.62,0-1.22,0-1.81,0-.38,0-.41-.16-.41-.51s0-.53.41-.53,1.19,0,1.81,0Z"/><path class="cls-2" d="M132.93,30.31c0,.74,0,1.46,0,2.2,0,.41-.16.46-.63.46s-.5-.07-.5-.46c0-.74.06-1.46.06-2.2V24.45c0-.14,0-.44-.25-.44a.77.77,0,0,0-.41.21,26.82,26.82,0,0,1-4,2.54,3.7,3.7,0,0,1-.84.39c-.23,0-.62-.44-.62-.64s.18-.26.33-.33c3.06-1.54,7.38-4.52,9-7.55,0-.09.1-.18.21-.18s.58.32.74.41.32.19.32.33-.15.18-.25.21-.27.11-.43.32a22,22,0,0,1-2.57,2.82c-.19.2-.3.29-.3.59Z"/><path class="cls-2" d="M153.59,23.53c0,.23-.86,1.06-1.07,1.27a34.12,34.12,0,0,1-4.17,3.51,27.83,27.83,0,0,1-5.15,2.93c-.44.19-.44.21-.6.55a.23.23,0,0,1-.21.12c-.18,0-.26-.21-.39-.48a3.65,3.65,0,0,1-.33-.7c0-.14.26-.2.44-.25A23,23,0,0,0,149,26.57a31,31,0,0,0,3.83-3.67.37.37,0,0,1,.26-.2C153.38,22.7,153.59,23.39,153.59,23.53Zm-10.92-3.74c.59.41,1.17.81,1.73,1.22.41.3.87.6.87.79s-.34.69-.62.69-.6-.37-.76-.49c-.62-.48-1.23-1-1.9-1.4-.11-.07-.23-.14-.23-.28s.3-.65.58-.65A.69.69,0,0,1,142.67,19.79Z"/><path class="cls-2" d="M81.49,43.67c.32.19,1.43.84,1.66,1,.07.06.16.14.16.23,0,.25-.27.71-.55.71a.67.67,0,0,1-.39-.18c-.82-.58-1.71-1.09-2.59-1.6-.1-.06-.23-.13-.23-.25s.25-.67.53-.67A7.85,7.85,0,0,1,81.49,43.67Zm10.13-1.52a3.55,3.55,0,0,1-.25.76,16,16,0,0,1-3.21,5,16,16,0,0,1-5.84,3.44.87.87,0,0,0-.55.41c0,.11-.12.23-.26.23s-.26-.19-.41-.48a4.86,4.86,0,0,1-.28-.7c0-.14.2-.18.3-.21a20.62,20.62,0,0,0,2.14-.71,12,12,0,0,0,4.49-2.94,13.46,13.46,0,0,0,2.91-5.1c.06-.16.11-.37.29-.37S91.62,41.94,91.62,42.15ZM83.5,39.73c.25.2,1.56,1.11,1.68,1.24a.24.24,0,0,1,.1.21c0,.19-.28.67-.58.67a.72.72,0,0,1-.39-.21A23.34,23.34,0,0,0,82,40c-.11-.07-.25-.14-.25-.28s.32-.63.57-.63A4.29,4.29,0,0,1,83.5,39.73Z"/><path class="cls-2" d="M101.82,42.78h1c1,0,.84.38.84,1.78V50c0,.37,0,.73,0,1.1s-.21.42-.53.42-.49-.09-.51-.35,0-.25-.49-.25H97.43l-1.59,0c-.34,0-.35-.21-.35-.49s0-.46.35-.46,1,0,1.59,0h4.79a.51.51,0,0,0,.5-.49V47.81a.51.51,0,0,0-.5-.49h-4.6c-.6,0-1.32,0-1.6,0s-.36-.21-.36-.47,0-.48.36-.48,1,0,1.6,0h4.6a.51.51,0,0,0,.5-.5V44.16a.51.51,0,0,0-.5-.49H97.5c-.6,0-1.31,0-1.61,0s-.33-.21-.33-.47,0-.48.35-.48,1,0,1.59,0Z"/><path class="cls-2" d="M110.26,44.6a6.54,6.54,0,0,1,.67,1.27c0,.3-.48.46-.64.46s-.23-.12-.3-.25a17.29,17.29,0,0,0-1.13-1.9.47.47,0,0,1-.12-.3c0-.21.33-.44.55-.44S110,44.14,110.26,44.6Zm8.25-1.25a.3.3,0,0,1-.18.26.3.3,0,0,0-.12.18,19.21,19.21,0,0,1-1,2.77,9.32,9.32,0,0,1-3.67,4.14,9.76,9.76,0,0,1-2.87,1.17c-.27,0-.57-.41-.57-.64s.2-.26.35-.3A8.86,8.86,0,0,0,114,49.21a9.65,9.65,0,0,0,2.42-3.2,10.57,10.57,0,0,0,.9-2.91c0-.14,0-.26.21-.26C117.58,42.84,118.51,43.07,118.51,43.35Zm-4.5.26a6.7,6.7,0,0,1,.69,1.27c0,.29-.49.46-.63.46s-.27-.17-.36-.32a16.05,16.05,0,0,0-1.09-1.83.68.68,0,0,1-.12-.28c0-.23.35-.46.54-.46S113.66,43,114,43.61Z"/><path class="cls-2" d="M130.69,40.44c.7,0,1.39,0,1.46,0,.37,0,.8.57.8.67a9.54,9.54,0,0,0-.27,1.06,10.53,10.53,0,0,1-4.74,7.75,17.4,17.4,0,0,1-3.14,1.65,1.52,1.52,0,0,1-.55.16c-.34,0-.58-.47-.58-.67s.14-.25.3-.28a11.81,11.81,0,0,0,6.21-4.43,9.53,9.53,0,0,0,1.44-4.23,1.51,1.51,0,0,0,0-.3c0-.44-.41-.39-.93-.39H124c-.7,0-1.41,0-2.11,0-.37,0-.39-.23-.39-.53s0-.51.39-.51c.7,0,1.41,0,2.11,0Zm5-1.59A1.66,1.66,0,1,1,134,37.21,1.66,1.66,0,0,1,135.7,38.85Zm-2.63,0a1,1,0,0,0,1,1,1,1,0,0,0,1-1,.94.94,0,0,0-1-1A1,1,0,0,0,133.07,38.85Z"/><path class="cls-2" d="M138.93,50.18c0,.79,0,1.58,0,2.39,0,.45,0,.73-.51.73s-.52-.28-.52-.71c0-.81.06-1.6.06-2.41V40.09c0-.36,0-.71,0-1.06,0-.6.14-.78.74-.78l1.08,0h1.46l1,0c.32,0,.73.34.73.6a16.67,16.67,0,0,1-1.85,3.53.81.81,0,0,0-.13.3c0,.09.13.23.18.3a5.9,5.9,0,0,1,1.55,3.84,3.35,3.35,0,0,1-.65,2.24,1.94,1.94,0,0,1-1.66.59c-.51,0-.78,0-.78-.67,0-.2.07-.3.29-.3h.17a3.88,3.88,0,0,0,.48,0c1,0,1.22-1.15,1.22-2a5.12,5.12,0,0,0-1.7-3.51.69.69,0,0,1-.24-.42,1.94,1.94,0,0,1,.37-.69,25.18,25.18,0,0,0,1.58-2.82c0-.2-.31-.18-.49-.18h-1.92c-.36,0-.5.14-.5.5ZM149,48a.42.42,0,0,0,.28-.12,18.8,18.8,0,0,0,2.1-1.91.24.24,0,0,1,.19-.12,2.05,2.05,0,0,1,.8.85.15.15,0,0,1-.16.14l-.12,0a.36.36,0,0,0-.14,0,.4.4,0,0,0-.2.07,18.72,18.72,0,0,1-2,1.78.46.46,0,0,0-.2.36.41.41,0,0,0,.11.28,14.48,14.48,0,0,0,3,2.79c.1.07.21.14.21.3a.58.58,0,0,1-.51.56c-.44,0-2.17-1.68-2.54-2.06A11.69,11.69,0,0,1,147,45.84c-.09-.34-.23-.41-.57-.44h-.72c-.35,0-.49.15-.49.49v4.53c0,.21.08.41.33.41l.11,0c.67-.16,1.18-.32,1.87-.49a2,2,0,0,1,.33-.09c.27,0,.36.3.36.51s-.16.35-.41.42c-1.64.46-3.28.82-4.94,1.15-.49.09-.46.11-.55.34a.19.19,0,0,1-.17.14c-.16,0-.2-.13-.3-.41a3.8,3.8,0,0,1-.23-.67c0-.19.26-.19.4-.19.52-.07,1.27-.2,1.8-.32.36-.07.46-.21.46-.58V40.39c0-.45,0-.89,0-1.34,0-.62.18-.8.92-.8l1,0h3l1,0c.69,0,.92.14.92.74s0,.94,0,1.4v3c0,.44,0,.86,0,1.3,0,.62-.25.76-.92.76-.35,0-.69,0-1,0h-.85c-.19,0-.38.08-.38.33,0,0,0,.11,0,.14a9.77,9.77,0,0,0,.76,1.94A.39.39,0,0,0,149,48Zm.65-6.65a.5.5,0,0,0,.5-.49V39.65c0-.3-.2-.46-.5-.5h-4c-.3,0-.49.2-.49.5V40.9c0,.31.17.49.49.49Zm-4,.88a.48.48,0,0,0-.49.5V44a.48.48,0,0,0,.49.49h4a.51.51,0,0,0,.5-.49V42.77a.51.51,0,0,0-.5-.5Z"/><path class="cls-2" d="M157.78,50.46a.36.36,0,0,0-.28.17,14.71,14.71,0,0,1-1.34,1.93c-.11.12-.23.28-.41.28s-.56-.27-.56-.44.24-.39.33-.51a11.46,11.46,0,0,0,2-3.39,9.29,9.29,0,0,0,.5-2.13c0-.16,0-.45.24-.45s.29.06.38.07c.44.11.7.15.7.32s-.11.18-.19.21-.25.25-.29.5a9.42,9.42,0,0,1-.51,1.87,1.45,1.45,0,0,0-.07.35.62.62,0,0,0,.18.42,5.07,5.07,0,0,0,2.93,2l.1,0c.25,0,.34-.2.34-.41V44.81c0-.33-.14-.49-.5-.49h-1.8c-.61,0-1.21,0-1.81,0-.32,0-.34-.19-.34-.47s0-.46.34-.46c.6,0,1.2,0,1.81,0h5.67l1.8,0c.33,0,.35.16.35.48s0,.45-.34.45c-.6,0-1.2,0-1.81,0h-1.94c-.36,0-.5.14-.5.49v1.87c0,.36.14.5.5.5h1.9c.46,0,1,0,1.36,0s.35.14.35.48-.05.46-.35.46-.88,0-1.36,0h-1.9c-.36,0-.5.16-.5.49v2.83c0,.33.13.49.46.51.9.07,2.47,0,3.41,0s1.64,0,2.47,0l.59,0c.22,0,.36.11.36.32,0,.69-.39.62-1.63.62h-4.25c-2.52,0-4.35-.23-6.12-2.21A.31.31,0,0,0,157.78,50.46Zm5-10.94c0,.35.14.5.47.5h3.42l1.64,0c.6,0,1,0,1,.76,0,.24,0,.47,0,.7V42c0,.11,0,.3,0,.44,0,.29-.13.36-.48.36s-.51,0-.51-.3,0-.41,0-.5v-.67c0-.33-.14-.47-.47-.47H156.77c-.33,0-.47.14-.47.47V42c0,.09,0,.34,0,.48,0,.32-.28.32-.51.32s-.48-.07-.48-.36c0-.14,0-.33,0-.44v-.58c0-.23,0-.46,0-.67,0-.72.37-.79,1-.79L158,40h3.37c.35,0,.49-.15.49-.5v-.16a8.33,8.33,0,0,0-.07-1.5.41.41,0,0,1,0-.16c0-.17.11-.22.27-.22a3.69,3.69,0,0,1,.49.05c.41,0,.74,0,.74.23s-.1.17-.25.26-.22.41-.22,1.33Z"/><rect class="cls-1" x="19.66" y="13.13" width="44.09" height="28.56" rx="0.7"/><path class="cls-2" d="M63.05,13.63a.2.2,0,0,1,.2.2V41a.2.2,0,0,1-.2.2H20.36a.2.2,0,0,1-.2-.2V13.83a.2.2,0,0,1,.2-.2H63.05m0-1H20.36a1.2,1.2,0,0,0-1.2,1.2V41a1.19,1.19,0,0,0,1.2,1.2H63.05a1.2,1.2,0,0,0,1.2-1.2V13.83a1.2,1.2,0,0,0-1.2-1.2Z"/><path class="cls-1" d="M13.37,59.43a.69.69,0,0,1-.69-.6l7-14.41v-.11a.7.7,0,0,1,.7-.7H63.05a.7.7,0,0,1,.7.7v.11l7,14.41a.7.7,0,0,1-.7.6Z"/><path class="cls-2" d="M63.05,44.11a.2.2,0,0,1,.2.2v.23l.1.21,6.84,14.11a.19.19,0,0,1-.16.07H13.37a.17.17,0,0,1-.15-.07l6.84-14.11.1-.21v-.23a.2.2,0,0,1,.2-.2H63.05m0-1H20.36a1.19,1.19,0,0,0-1.2,1.2l-7,14.42a1.2,1.2,0,0,0,1.2,1.2H70a1.2,1.2,0,0,0,1.21-1.2l-7-14.42a1.2,1.2,0,0,0-1.2-1.2Z"/><path class="cls-2" d="M59.07,17.36a.74.74,0,0,1,.74.74V37a.74.74,0,0,1-.74.74H24.38a.74.74,0,0,1-.74-.74V18.1a.74.74,0,0,1,.74-.74H59.07m0-1H24.38a1.74,1.74,0,0,0-1.74,1.74V37a1.74,1.74,0,0,0,1.74,1.74H59.07A1.74,1.74,0,0,0,60.81,37V18.1a1.74,1.74,0,0,0-1.74-1.74Z"/><path class="cls-2" d="M28.51,30.89c.28,0,.61,0,.9,0l.54,0c.14,0,.17,0,.17.24v.1c0,.19,0,.24-.2.24H26.7c-.17,0-.23-.06-.23-.23s0-1.17,0-1.77V26.6c0-.64,0-1.69,0-1.76s.06-.23.23-.23h3c.17,0,.2.05.2.24V25c0,.18,0,.23-.17.23l-.43,0h-2c-.25,0-.3,0-.3.3v1.75c0,.25.05.3.3.3h.75c.38,0,.8,0,1.2,0h.21c.17,0,.2.05.2.24v.11c0,.19,0,.24-.2.24h-.23c-.38,0-.79,0-1.18,0h-.75c-.25,0-.3.05-.3.3v2.23c0,.25.05.31.3.31Z"/><path class="cls-2" d="M36,31c0,.08,0,.13-.17.18a4.17,4.17,0,0,1-1.56.29,3.08,3.08,0,0,1-3.2-3.33,3.38,3.38,0,0,1,3.62-3.59,3.72,3.72,0,0,1,1.25.2c.13,0,.18.09.18.17a.49.49,0,0,1,0,.15l-.06.16c-.05.13-.08.18-.15.18a.41.41,0,0,1-.16,0,3.09,3.09,0,0,0-1.14-.23,2.78,2.78,0,0,0-2.89,3,2.54,2.54,0,0,0,2.64,2.78,3,3,0,0,0,1.29-.28.4.4,0,0,1,.16-.06c.07,0,.1.06.15.18l0,.1A.55.55,0,0,1,36,31Z"/><path class="cls-2" d="M43.58,29.66c0,1.15-.92,1.82-2.2,1.82a3.73,3.73,0,0,1-1.89-.5c-.11-.08-.16-.13-.16-.2a.47.47,0,0,1,.05-.16l.07-.15c0-.11.09-.16.15-.16a.33.33,0,0,1,.16.08,3,3,0,0,0,1.69.54c.92,0,1.53-.49,1.53-1.24s-.67-1.1-1.53-1.47-2-.88-2-2,.86-1.68,2.18-1.68a3.63,3.63,0,0,1,1.47.33c.13.06.18.1.18.18a.41.41,0,0,1,0,.16l-.07.17c0,.12-.08.17-.14.17a.3.3,0,0,1-.16-.07,2.55,2.55,0,0,0-1.35-.37c-.91,0-1.45.45-1.45,1.09s.51,1,1.57,1.45S43.58,28.58,43.58,29.66Z"/><path class="cls-2" d="M45.31,31.42c-.19,0-.24,0-.24-.2s0-.37,0-.61,0-.81,0-1.2V26.62c0-.38,0-.76,0-1.18,0-.23,0-.55,0-.62s0-.2.24-.2h.16c.19,0,.24,0,.24.2s0,.38,0,.61c0,.43,0,.81,0,1.19v2.79c0,.39,0,.91,0,1.19s0,.53,0,.62-.05.2-.24.2Z"/><path class="cls-2" d="M49.94,29.41c0,.37,0,.89,0,1.28,0,.22,0,.46,0,.53s0,.2-.24.2h-.16c-.19,0-.24,0-.24-.2s0-.32,0-.54c0-.39,0-.9,0-1.27V25.47c0-.25,0-.3-.3-.3h-1.2l-.65,0c-.14,0-.17-.05-.17-.23v-.12c0-.19,0-.24.2-.24h4.84c.17,0,.2.05.2.24V25c0,.18,0,.23-.16.23l-.68,0h-1.2c-.25,0-.3,0-.3.3Z"/><path class="cls-2" d="M55.66,30.89c.28,0,.6,0,.89,0l.54,0c.14,0,.17,0,.17.24v.1c0,.19,0,.24-.2.24H53.85c-.18,0-.24-.06-.24-.23s0-1.17,0-1.77V26.6c0-.64,0-1.69,0-1.76s.06-.23.24-.23h3c.17,0,.2.05.2.24V25c0,.18,0,.23-.17.23l-.43,0h-2c-.25,0-.3,0-.3.3v1.75c0,.25,0,.3.3.3h.75c.38,0,.79,0,1.19,0h.21c.17,0,.2.05.2.24v.11c0,.19,0,.24-.2.24h-.23c-.37,0-.78,0-1.17,0h-.75c-.25,0-.3.05-.3.3v2.23c0,.25,0,.31.3.31Z"/></g></g></svg>