<?xml version="1.0" encoding="utf-8"?>
<!-- Generator: Adobe Illustrator 26.2.1, SVG Export Plug-In . SVG Version: 6.00 Build 0)  -->
<svg version="1.1" id="レイヤー_1" xmlns="http://www.w3.org/2000/svg" xmlns:xlink="http://www.w3.org/1999/xlink" x="0px"
	 y="0px" viewBox="0 0 266.8 59.1" style="enable-background:new 0 0 266.8 59.1;" xml:space="preserve">
<style type="text/css">
	.st0{fill:#FFFFFF;}
	.st1{fill:#604C3F;}
</style>
<path class="st0" d="M8.8,0.5h155.8c4.6,0,8.3,3.7,8.3,8.3v41.4c0,4.6-3.7,8.3-8.3,8.3H8.8c-4.6,0-8.3-3.7-8.3-8.3V8.8
	C0.5,4.2,4.2,0.5,8.8,0.5z"/>
<path class="st1" d="M164.6,1c4.3,0,7.8,3.5,7.8,7.8v41.5c0,4.3-3.5,7.8-7.8,7.8H8.8c-4.3,0-7.8-3.5-7.8-7.8l0,0V8.8
	C1,4.5,4.5,1,8.8,1l0,0H164.6 M164.6,0H8.8C3.9,0,0,3.9,0,8.8l0,0v41.5c0,4.9,3.9,8.8,8.8,8.8l0,0h155.8c4.9,0,8.8-3.9,8.8-8.8V8.8
	C173.4,3.9,169.5,0,164.6,0L164.6,0z"/>
<path class="st1" d="M258,1c4.3,0,7.8,3.5,7.8,7.8v41.5c0,4.3-3.5,7.8-7.8,7.8h-65.8c-4.3,0-7.8-3.5-7.8-7.8l0,0V8.8
	c0-4.3,3.5-7.8,7.8-7.8l0,0H258 M258,0h-65.8c-4.9,0-8.8,3.9-8.8,8.8l0,0v41.5c0,4.9,3.9,8.8,8.8,8.8l0,0H258c4.9,0,8.8-3.9,8.8-8.8
	V8.8C266.8,3.9,262.9,0,258,0L258,0z"/>
<g>
	<path class="st1" d="M82.6,18c0.2,0,0.4-0.2,0.4-0.4v-0.8c0-0.6,0-1.3-0.1-1.9c0-0.1,0-0.2,0-0.2s0.1-0.2,0.2-0.2
		c0.3,0,0.6,0.1,0.9,0.2c0.1,0,0.1,0.1,0.1,0.2c0,0.1-0.1,0.1-0.1,0.2s-0.1,0.3-0.1,0.5c0,0.4,0,0.8,0,1.2v0.8
		c0,0.2,0.1,0.4,0.5,0.4h1.1c0.5,0,1.5-0.1,1.8-0.1s0.3,0.1,0.3,0.5c0,0.3-0.1,0.4-0.4,0.4h-0.9h-0.8h-1.2c-0.2,0-0.4,0.2-0.4,0.4
		l0,0l0.2,4c0,0.1,0,0.3,0,0.5c0,0.6-0.1,1.2-0.3,1.7c-0.4,0.6-1.5,0.7-2.2,0.7c-0.2,0-0.3-0.1-0.3-0.2c-0.1-0.1-0.1-0.3-0.1-0.4
		c0-0.2,0.1-0.2,0.3-0.2c1.6,0,1.8-0.1,1.8-1.4v-0.5l-0.1-3.8c0-0.1-0.1-0.2-0.1-0.2l0,0c-0.1,0-0.2,0.1-0.2,0.2
		c-1.2,1.6-2.7,3.1-4.3,4.3c-0.4,0.3-0.8,0.6-1.2,0.8c-0.3-0.1-0.4-0.3-0.5-0.5c0-0.1,0.3-0.3,0.4-0.4c1.9-1.2,3.5-2.7,4.9-4.6
		c0,0,0.1-0.1,0.1-0.2c0-0.2-0.2-0.2-0.2-0.2l-3,0.1c-0.5,0-1.6,0.1-1.8,0.1S77,18.8,77,18.5s0-0.4,0.4-0.4H78h0.8L82.6,18z"/>
	<path class="st1" d="M101.1,18.8c0,0.2-0.7,0.9-0.9,1.1c-1.1,1.1-2.3,2.1-3.5,3c-1.4,1-2.8,1.8-4.4,2.5c-0.4,0.2-0.4,0.2-0.5,0.5
		c0,0.1-0.1,0.1-0.2,0.1s-0.2-0.2-0.3-0.4c-0.1-0.2-0.2-0.4-0.3-0.6c0-0.1,0.2-0.2,0.4-0.2c2.1-0.8,4.1-1.9,5.9-3.3
		c1.2-0.9,2.2-2,3.2-3.1c0-0.1,0.1-0.2,0.2-0.2C100.9,18.1,101.1,18.6,101.1,18.8z M91.9,15.6c0.5,0.3,1,0.7,1.5,1
		c0.3,0.3,0.7,0.5,0.7,0.7s-0.3,0.6-0.5,0.6s-0.5-0.3-0.6-0.4c-0.5-0.4-1-0.8-1.6-1.2c-0.1-0.1-0.2-0.1-0.2-0.2s0.3-0.5,0.5-0.5
		C91.7,15.5,91.8,15.5,91.9,15.6z"/>
	<path class="st1" d="M111.5,18.4c0.3,0,0.7,0,1,0c0.1,0,0.1,0,0.2,0c0.3,0,0.7,0.5,0.7,0.6s-0.2,0.7-0.2,0.7
		c-0.8,2.4-2.5,4.5-4.6,5.9c-0.5,0.4-1.1,0.7-1.8,0.9c-0.2,0-0.5-0.3-0.5-0.5s0.2-0.3,0.4-0.3c2.2-1,4-2.8,5.2-5
		c0.2-0.4,0.3-0.8,0.4-1.2c0-0.2-0.1-0.3-0.8-0.3h-6.2c-0.6,0-1.2,0-1.8,0c-0.3,0-0.3-0.2-0.3-0.4c0-0.3,0.1-0.4,0.4-0.4
		c0.6,0,1.2,0,1.8,0L111.5,18.4z M110.1,15.2c0.5,0,1.1,0,1.5,0s0.4,0.1,0.4,0.4s0,0.4-0.3,0.4c-0.5,0-1,0-1.5,0h-3.8
		c-0.5,0-1,0-1.5,0c-0.3,0-0.3-0.1-0.3-0.4s0-0.4,0.3-0.4s1,0,1.5,0H110.1z"/>
	<path class="st1" d="M122.1,24.5c0,0.6,0,1.2,0,1.9c0,0.3-0.1,0.4-0.5,0.4s-0.4-0.1-0.4-0.4c0-0.6,0.1-1.2,0.1-1.9v-5
		c0-0.1,0-0.4-0.2-0.4c-0.1,0-0.3,0.1-0.3,0.2c-1.1,0.8-2.2,1.5-3.4,2.1c-0.2,0.1-0.5,0.3-0.7,0.3s-0.5-0.4-0.5-0.5s0.2-0.2,0.3-0.3
		c2.6-1.3,6.2-3.8,7.6-6.4c0-0.1,0.1-0.2,0.2-0.2s0.5,0.3,0.6,0.3c0.1,0.1,0.3,0.2,0.3,0.3s-0.1,0.2-0.2,0.2s-0.2,0.1-0.4,0.3
		c-0.7,0.9-1.4,1.7-2.2,2.4c-0.2,0.2-0.3,0.2-0.3,0.5V24.5z"/>
	<path class="st1" d="M139.5,18.8c0,0.2-0.7,0.9-0.9,1.1c-1.1,1.1-2.3,2.1-3.5,3c-1.4,1-2.8,1.8-4.4,2.5c-0.4,0.2-0.4,0.2-0.5,0.5
		c0,0.1-0.1,0.1-0.2,0.1c-0.2,0-0.2-0.2-0.3-0.4c-0.1-0.2-0.2-0.4-0.3-0.6c0-0.1,0.2-0.2,0.4-0.2c2.1-0.8,4.1-1.9,5.8-3.3
		c1.2-0.9,2.2-2,3.2-3.1c0-0.1,0.1-0.2,0.2-0.2C139.4,18.1,139.5,18.6,139.5,18.8z M130.3,15.6c0.5,0.3,1,0.7,1.5,1
		c0.3,0.3,0.7,0.5,0.7,0.7s-0.3,0.6-0.5,0.6s-0.5-0.3-0.6-0.4c-0.5-0.4-1-0.8-1.6-1.2c-0.1-0.1-0.2-0.1-0.2-0.2s0.3-0.5,0.5-0.5
		C130.1,15.5,130.2,15.5,130.3,15.6z"/>
	<path class="st1" d="M78.6,35.8c0.3,0.2,1.2,0.7,1.4,0.8c0.1,0.1,0.1,0.1,0.1,0.2c0,0.2-0.2,0.6-0.5,0.6c-0.1,0-0.2-0.1-0.3-0.2
		c-0.7-0.5-1.4-0.9-2.2-1.4c-0.1-0.1-0.2-0.1-0.2-0.2s0.2-0.6,0.4-0.6C77.8,35.3,78.2,35.5,78.6,35.8z M87.1,34.5
		c0,0.2-0.1,0.4-0.2,0.6c-0.6,1.6-1.6,3-2.7,4.2c-1.4,1.3-3.1,2.3-4.9,2.9c-0.2,0-0.4,0.2-0.5,0.3c0,0.1-0.1,0.2-0.2,0.2
		s-0.2-0.2-0.3-0.4c-0.1-0.2-0.2-0.4-0.2-0.6c0-0.1,0.2-0.2,0.3-0.2c0.6-0.2,1.2-0.4,1.8-0.6c1.4-0.5,2.7-1.4,3.8-2.5
		c1.1-1.2,2-2.7,2.5-4.3c0.1-0.1,0.1-0.3,0.2-0.3S87.1,34.3,87.1,34.5z M80.3,32.5c0.2,0.2,1.3,0.9,1.4,1c0.1,0,0.1,0.1,0.1,0.2
		c0,0.2-0.2,0.6-0.5,0.6c-0.1,0-0.2-0.1-0.3-0.2c-0.6-0.5-1.3-1-2-1.4c-0.1-0.1-0.2-0.1-0.2-0.2s0.3-0.5,0.5-0.5
		C79.6,32,80,32.2,80.3,32.5z"/>
	<path class="st1" d="M95.8,35h0.8c0.8,0,0.7,0.3,0.7,1.5v4.6c0,0.3,0,0.6,0,0.9c0,0.3-0.2,0.4-0.4,0.4c-0.3,0-0.4-0.1-0.4-0.3
		s0-0.2-0.4-0.2h-4h-1.3c-0.3,0-0.3-0.2-0.3-0.4s0-0.4,0.3-0.4s0.8,0,1.3,0h4.1c0.2,0,0.4-0.2,0.4-0.4v-1.4c0-0.2-0.2-0.4-0.4-0.4
		h-3.9c-0.5,0-1.1,0-1.4,0s-0.3-0.2-0.3-0.4s0-0.4,0.3-0.4s0.8,0,1.4,0h3.9c0.2,0,0.4-0.2,0.4-0.4v-1.4c0-0.2-0.2-0.4-0.4-0.4h-4
		c-0.5,0-1.1,0-1.4,0s-0.3-0.2-0.3-0.4s0-0.4,0.3-0.4s0.8,0,1.3,0L95.8,35z"/>
	<path class="st1" d="M102.9,36.6c0.2,0.3,0.4,0.7,0.6,1.1c0,0.3-0.4,0.4-0.5,0.4s-0.2-0.1-0.3-0.2c-0.3-0.6-0.6-1.1-1-1.6
		c-0.1-0.1-0.1-0.2-0.1-0.3c0-0.2,0.3-0.4,0.5-0.4C102.3,35.6,102.7,36.2,102.9,36.6z M109.9,35.5c0,0.1-0.1,0.2-0.2,0.2
		s-0.1,0.1-0.1,0.2c-0.2,0.8-0.5,1.6-0.8,2.3c-0.7,1.5-1.7,2.7-3.1,3.5c-0.8,0.5-1.6,0.8-2.4,1c-0.2,0-0.5-0.3-0.5-0.5
		s0.2-0.2,0.3-0.3c1.1-0.3,2.1-0.8,3-1.5s1.6-1.7,2-2.7c0.4-0.8,0.6-1.6,0.8-2.5c0-0.1,0-0.2,0.2-0.2
		C109.1,35.1,109.9,35.3,109.9,35.5z M106.1,35.7c0.2,0.3,0.4,0.7,0.6,1.1c0,0.2-0.4,0.4-0.5,0.4s-0.2-0.1-0.3-0.3
		c-0.3-0.5-0.6-1.1-0.9-1.5c-0.1-0.1-0.1-0.2-0.1-0.2c0-0.2,0.3-0.4,0.5-0.4C105.4,34.8,105.8,35.2,106.1,35.7L106.1,35.7z"/>
	<path class="st1" d="M120.2,33.1c0.6,0,1.2,0,1.2,0c0.3,0,0.7,0.5,0.7,0.6c-0.1,0.3-0.2,0.6-0.2,0.9c-0.3,2.7-1.8,5.1-4,6.6
		c-0.8,0.6-1.7,1-2.7,1.4c-0.1,0.1-0.3,0.1-0.5,0.1c-0.3,0-0.5-0.4-0.5-0.6c0-0.2,0.1-0.2,0.3-0.2c2.1-0.6,4-2,5.3-3.7
		c0.7-1.1,1.1-2.3,1.2-3.6c0-0.1,0-0.2,0-0.3c0-0.4-0.3-0.3-0.8-0.3h-5.7c-0.6,0-1.2,0-1.8,0c-0.3,0-0.3-0.2-0.3-0.4
		c0-0.3,0-0.4,0.3-0.4c0.6,0,1.2,0,1.8,0L120.2,33.1z M124.4,31.7c0,0.8-0.6,1.4-1.4,1.4s-1.4-0.6-1.4-1.4c0-0.8,0.6-1.4,1.4-1.4
		C123.7,30.3,124.4,30.9,124.4,31.7L124.4,31.7L124.4,31.7z M122.2,31.7c0,0.5,0.4,0.8,0.8,0.8c0.5,0,0.8-0.4,0.8-0.8
		c0-0.4-0.3-0.8-0.7-0.8H123C122.6,30.9,122.2,31.2,122.2,31.7L122.2,31.7z"/>
	<path class="st1" d="M127.1,41.3c0,0.7,0,1.3,0,2c0,0.4,0,0.6-0.4,0.6s-0.4-0.2-0.4-0.6c0-0.7,0.1-1.4,0.1-2v-8.5
		c0-0.3,0-0.6,0-0.9c0-0.5,0.1-0.7,0.6-0.7h0.9h1.2h0.8c0.3,0,0.6,0.3,0.6,0.5c-0.4,1.1-0.9,2.1-1.6,3c-0.1,0.1-0.1,0.2-0.1,0.3
		s0.1,0.2,0.2,0.3c0.8,0.9,1.3,2,1.3,3.2c0,0.7-0.1,1.3-0.5,1.9c-0.4,0.4-0.9,0.6-1.4,0.5c-0.4,0-0.7,0-0.7-0.6
		c0-0.2,0.1-0.3,0.2-0.3h0.1c0.1,0,0.3,0,0.4,0c0.8,0,1-1,1-1.7c-0.1-1.1-0.6-2.2-1.4-3c-0.1-0.1-0.2-0.2-0.2-0.4
		c0.1-0.2,0.2-0.4,0.3-0.6c0.5-0.8,0.9-1.6,1.3-2.4c0-0.2-0.3-0.2-0.4-0.2h-1.6c-0.3,0-0.4,0.1-0.4,0.4L127.1,41.3z M135.7,39.4
		c0.1,0,0.2,0,0.2-0.1c0.6-0.5,1.2-1,1.8-1.6c0-0.1,0.1-0.1,0.2-0.1c0.3,0.2,0.5,0.4,0.7,0.7c0,0.1-0.1,0.1-0.1,0.1l0,0h-0.1h-0.1
		c-0.1,0-0.1,0-0.2,0.1c-0.5,0.5-1.1,1-1.7,1.5c-0.1,0.1-0.2,0.2-0.2,0.3s0,0.2,0.1,0.2c0.7,0.9,1.6,1.7,2.5,2.4
		c0.1,0.1,0.2,0.1,0.2,0.3s-0.2,0.4-0.4,0.5c-0.4,0-1.8-1.4-2.1-1.7c-1.1-1.2-2-2.7-2.4-4.3c-0.1-0.3-0.2-0.3-0.5-0.4H133
		c-0.3,0-0.4,0.1-0.4,0.4v3.8c0,0.2,0.1,0.3,0.3,0.3h0.1c0.6-0.1,1-0.3,1.6-0.4c0.1,0,0.2-0.1,0.3-0.1c0.2,0,0.3,0.3,0.3,0.4
		s-0.1,0.3-0.3,0.4c-1.4,0.4-2.8,0.7-4.2,1c-0.4,0.1-0.4,0.1-0.5,0.3c0,0.1-0.1,0.1-0.1,0.1c-0.1,0-0.2-0.1-0.3-0.3
		s-0.1-0.4-0.2-0.6c0-0.2,0.2-0.2,0.3-0.2c0.4-0.1,1.1-0.2,1.5-0.3c0.3-0.1,0.4-0.2,0.4-0.5V33c0-0.4,0-0.8,0-1.1
		c0-0.5,0.2-0.7,0.8-0.7h0.8h2.5h0.8c0.6,0,0.8,0.1,0.8,0.6s0,0.8,0,1.2v2.5c0,0.4,0,0.7,0,1.1c0,0.5-0.2,0.6-0.8,0.6
		c-0.3,0-0.6,0-0.8,0h-0.7c-0.2,0-0.3,0.1-0.3,0.3v0.1c0.2,0.6,0.4,1.1,0.6,1.6C135.5,39.4,135.6,39.4,135.7,39.4z M136.2,33.8
		c0.2,0,0.4-0.2,0.4-0.4v-1c0-0.3-0.2-0.4-0.4-0.4h-3.4c-0.3,0-0.4,0.2-0.4,0.4v1.1c0,0.3,0.1,0.4,0.4,0.4L136.2,33.8z M132.8,34.6
		c-0.2,0-0.4,0.2-0.4,0.4l0,0v1.1c0,0.2,0.2,0.4,0.4,0.4l0,0h3.4c0.2,0,0.4-0.2,0.4-0.4v-1c0-0.2-0.2-0.4-0.4-0.4L132.8,34.6z"/>
	<path class="st1" d="M143.1,41.5c-0.1,0-0.2,0.1-0.2,0.1c-0.3,0.6-0.7,1.1-1.1,1.6c-0.1,0.1-0.2,0.2-0.3,0.2
		c-0.2,0-0.5-0.2-0.5-0.4s0.2-0.3,0.3-0.4c0.7-0.9,1.3-1.8,1.7-2.9c0.2-0.6,0.4-1.2,0.4-1.8c0-0.1,0-0.4,0.2-0.4s0.2,0.1,0.3,0.1
		c0.4,0.1,0.6,0.1,0.6,0.3s-0.1,0.2-0.2,0.2s-0.2,0.2-0.2,0.4c-0.1,0.5-0.2,1.1-0.4,1.6c0,0.1-0.1,0.2-0.1,0.3s0.1,0.3,0.2,0.4
		c0.6,0.8,1.5,1.4,2.5,1.7h0.1c0.2,0,0.3-0.2,0.3-0.3v-5.4c0-0.3-0.1-0.4-0.4-0.4h-1.5c-0.5,0-1,0-1.5,0c-0.3,0-0.3-0.2-0.3-0.4
		s0-0.4,0.3-0.4c0.5,0,1,0,1.5,0h4.8h1.5c0.3,0,0.3,0.1,0.3,0.4c0,0.3,0,0.4-0.3,0.4c-0.5,0-1,0-1.5,0H148c-0.3,0-0.4,0.1-0.4,0.4
		v1.6c0,0.3,0.1,0.4,0.4,0.4h1.6c0.4,0,0.8,0,1.2,0c0.3,0,0.3,0.1,0.3,0.4c0,0.3,0,0.4-0.3,0.4s-0.7,0-1.2,0H148
		c-0.3,0-0.4,0.1-0.4,0.4v2.4c0,0.3,0.1,0.4,0.4,0.4c0.8,0.1,2.1,0,2.9,0c0.8,0,1.4,0,2.1,0h0.5c0.2,0,0.3,0.1,0.3,0.3
		c0,0.6-0.3,0.5-1.4,0.5h-3.6c-2.1,0-3.7-0.2-5.2-1.9C143.3,41.6,143.2,41.5,143.1,41.5z M147.3,32.3c0,0.3,0.1,0.4,0.4,0.4h2.9h1.4
		c0.5,0,0.8,0,0.8,0.6c0,0.2,0,0.4,0,0.6v0.4c0,0.1,0,0.3,0,0.4c0,0.2-0.1,0.3-0.4,0.3s-0.4,0-0.4-0.3s0-0.3,0-0.4v-0.6
		c0-0.3-0.1-0.4-0.4-0.4h-9.4c-0.3,0-0.4,0.1-0.4,0.4v0.6c0,0.1,0,0.3,0,0.4c0,0.3-0.2,0.3-0.4,0.3s-0.4-0.1-0.4-0.3
		c0-0.1,0-0.3,0-0.4v-0.5c0-0.2,0-0.4,0-0.6c0-0.6,0.3-0.7,0.8-0.7h1.4h2.8c0.3,0,0.4-0.1,0.4-0.4V32c0-0.4,0-0.8-0.1-1.3v-0.1
		c0-0.1,0.1-0.2,0.2-0.2c0.1,0,0.3,0,0.4,0c0.3,0,0.6,0,0.6,0.2s-0.1,0.1-0.2,0.2c-0.1,0.1-0.2,0.3-0.2,1.1L147.3,32.3z"/>
	<path class="st0" d="M26.9,10H63c0.3,0,0.6,0.3,0.6,0.6v23c0,0.3-0.3,0.6-0.6,0.6H26.9c-0.3,0-0.6-0.3-0.6-0.6v-23
		C26.3,10.2,26.5,10,26.9,10z"/>
	<path class="st1" d="M63,10.4c0.1,0,0.2,0.1,0.2,0.2l0,0v23c0,0.1-0.1,0.2-0.2,0.2l0,0H26.9c-0.1,0-0.2-0.1-0.2-0.2l0,0v-23
		c0-0.1,0.1-0.2,0.2-0.2l0,0L63,10.4 M63,9.5H26.9c-0.6,0-1,0.5-1,1l0,0v23c0,0.6,0.4,1,1,1l0,0H63c0.6,0,1-0.5,1-1l0,0v-23
		C64,10,63.5,9.5,63,9.5L63,9.5z"/>
	<path class="st0" d="M21,49.1c-0.3,0-0.5-0.2-0.6-0.5l5.9-12.2v-0.1c0-0.3,0.3-0.6,0.6-0.6l0,0H63c0.3,0,0.6,0.3,0.6,0.6l0,0v0.1
		l5.9,12.2c0,0.3-0.3,0.5-0.6,0.5H21z"/>
	<path class="st1" d="M63,36.2c0.1,0,0.2,0.1,0.2,0.2l0,0v0.2l0.1,0.2L69,48.6l-0.1,0.1H21c0,0-0.1,0-0.1-0.1l5.8-11.9l0.1-0.2v-0.2
		c0-0.1,0.1-0.2,0.2-0.2l0,0h36 M63,35.3H26.9c-0.6,0-1,0.4-1,1l0,0L20,48.5c0,0.6,0.5,1,1,1l0,0h47.9c0.6,0,1-0.4,1-1l0,0L64,36.3
		C64,35.8,63.5,35.3,63,35.3L63,35.3L63,35.3z"/>
	<path class="st1" d="M59.6,13.5c0.3,0,0.6,0.3,0.6,0.6l0,0v16c0,0.3-0.3,0.6-0.6,0.6l0,0H30.3c-0.3,0-0.6-0.3-0.6-0.6l0,0v-16
		c0-0.3,0.3-0.6,0.6-0.6H59.6 M59.6,12.7H30.3c-0.8,0-1.5,0.7-1.5,1.5v16c0,0.8,0.7,1.5,1.5,1.5l0,0h29.3c0.8,0,1.5-0.7,1.5-1.5l0,0
		v-16C61.1,13.3,60.4,12.7,59.6,12.7L59.6,12.7z"/>
	<path class="st1" d="M33.8,25c0.2,0,0.5,0,0.8,0H35c0.1,0,0.1,0,0.1,0.2v0.1c0,0.2,0,0.2-0.2,0.2h-2.7c-0.1,0-0.2-0.1-0.2-0.2
		s0-1,0-1.5v-2.4c0-0.5,0-1.4,0-1.5s0.1-0.2,0.2-0.2h2.5c0.1,0,0.2,0,0.2,0.2V20c0,0.2,0,0.2-0.1,0.2h-0.4h-1.7
		c-0.2,0-0.3,0-0.3,0.3V22c0,0.2,0,0.3,0.3,0.3h0.6c0.3,0,0.7,0,1,0h0.2c0.1,0,0.2,0,0.2,0.2v0.1c0,0.2,0,0.2-0.2,0.2h-0.2
		c-0.3,0-0.7,0-1,0h-0.6c-0.2,0-0.3,0-0.3,0.3V25c0,0.2,0,0.3,0.3,0.3L33.8,25z"/>
	<path class="st1" d="M40.1,25.1c0,0.1,0,0.1-0.1,0.2c-0.4,0.2-0.9,0.2-1.3,0.2C37.3,25.6,36,24.4,36,23c0-0.1,0-0.2,0-0.3
		c-0.1-1.6,1.1-2.9,2.7-3c0.1,0,0.3,0,0.4,0c0.4,0,0.7,0.1,1.1,0.2c0.1,0,0.2,0.1,0.2,0.1v0.1l-0.1,0.1c0,0.1-0.1,0.2-0.1,0.2h-0.1
		c-0.3-0.1-0.6-0.2-1-0.2c-1.3-0.1-2.4,1-2.4,2.2c0,0.1,0,0.2,0,0.3c-0.1,1.2,0.8,2.2,1.9,2.3c0.1,0,0.2,0,0.3,0
		c0.4,0,0.7-0.1,1.1-0.2c0,0,0.1,0,0.1-0.1c0.1,0,0.1,0.1,0.1,0.2L40.1,25.1C40.1,25,40.1,25,40.1,25.1z"/>
	<path class="st1" d="M46.5,23.9c0,1-0.8,1.5-1.9,1.5c-0.6,0-1.1-0.1-1.6-0.4c-0.1-0.1-0.1-0.1-0.1-0.2v-0.1l0.1-0.1
		c0-0.1,0.1-0.1,0.1-0.1c0.1,0,0.1,0,0.1,0.1c0.4,0.3,0.9,0.5,1.4,0.5c0.8,0,1.3-0.4,1.3-1s-0.6-0.9-1.3-1.2S43,22,43,21
		c0-0.9,0.7-1.4,1.8-1.4c0.4,0,0.9,0.1,1.2,0.3c0.1,0.1,0.2,0.1,0.2,0.2v0.1l-0.1,0.1c0,0.1-0.1,0.1-0.1,0.1s-0.1,0-0.1-0.1
		c-0.3-0.2-0.7-0.3-1.1-0.3c-0.8,0-1.2,0.4-1.2,0.9s0.4,0.8,1.3,1.2C45.8,22.6,46.5,23,46.5,23.9z"/>
	<path class="st1" d="M48,25.4c-0.2,0-0.2,0-0.2-0.2s0-0.3,0-0.5s0-0.7,0-1v-2.4c0-0.3,0-0.6,0-1c0-0.2,0-0.5,0-0.5s0-0.2,0.2-0.2
		h0.1c0.2,0,0.2,0,0.2,0.2s0,0.3,0,0.5c0,0.4,0,0.7,0,1v2.4c0,0.3,0,0.8,0,1s0,0.4,0,0.5S48.3,25.4,48,25.4L48,25.4z"/>
	<path class="st1" d="M51.9,23.7c0,0.3,0,0.8,0,1.1c0,0.2,0,0.4,0,0.4s0,0.2-0.2,0.2h-0.1c-0.2,0-0.2,0-0.2-0.2s0-0.3,0-0.5
		c0-0.3,0-0.8,0-1.1v-3.3c0-0.2,0-0.3-0.3-0.3h-1h-0.5c-0.1,0-0.1,0-0.1-0.2v-0.1c0-0.2,0-0.2,0.2-0.2h4.1c0.1,0,0.2,0,0.2,0.2V20
		c0,0.2,0,0.2-0.1,0.2h-0.6h-1c-0.2,0-0.3,0-0.3,0.3L51.9,23.7z"/>
	<path class="st1" d="M56.7,25c0.2,0,0.5,0,0.8,0H58c0.1,0,0.1,0,0.1,0.2v0.1c0,0.2,0,0.2-0.2,0.2h-2.7c-0.2,0-0.2-0.1-0.2-0.2
		s0-1,0-1.5v-2.4c0-0.5,0-1.4,0-1.5s0.1-0.2,0.2-0.2h2.5c0.1,0,0.2,0,0.2,0.2V20c0,0.2,0,0.2-0.1,0.2h-0.4h-1.7
		c-0.2,0-0.3,0-0.3,0.3V22c0,0.2,0,0.3,0.3,0.3h0.6c0.3,0,0.7,0,1,0h0.2c0.1,0,0.2,0,0.2,0.2v0.1c0,0.2,0,0.2-0.2,0.2h-0.2
		c-0.3,0-0.7,0-1,0h-0.6c-0.2,0-0.3,0-0.3,0.3V25c0,0.2,0,0.3,0.3,0.3L56.7,25z"/>
</g>
<g>
	<g>
		<path class="st1" d="M200.4,18.6c0,0.1,0.1,0.3,0.2,0.3c0,0,0.1,0,0.1,0c0.4-0.2,1-0.5,1.1-0.5c0.2,0,0.3,0.3,0.3,0.5
			c0,0.2-0.1,0.2-1.5,0.9c-0.3,0.1-0.3,0.3-0.3,0.6v2.3c0,0.7,0,1.3,0,2c0,0.3,0,0.6-0.4,0.6c-0.4,0-0.4-0.2-0.4-0.6
			c0-0.7,0-1.3,0-2v-1.9c0-0.1,0-0.3-0.2-0.3c0,0-0.1,0-0.1,0c-1.5,0.5-1.5,0.6-1.5,0.8c0,0.1-0.1,0.1-0.2,0.1
			c-0.2,0-0.5-0.8-0.5-0.9c0-0.1,0.1-0.1,0.2-0.1c0.6-0.1,1.5-0.5,2.1-0.7c0.3-0.1,0.4-0.2,0.4-0.5v-2.5c0-0.3-0.1-0.4-0.4-0.4h-0.7
			c-0.3,0-0.4,0.1-0.5,0.4c-0.2,0.8-0.3,1.1-0.6,1.1c-0.1,0-0.4-0.1-0.4-0.2c0,0,0.1-0.3,0.1-0.3c0.3-1,0.6-2.4,0.6-3.4v-0.1
			c0-0.1,0.1-0.2,0.2-0.2c0.2,0,0.8,0.1,0.8,0.2c0,0.1-0.1,0.1-0.1,0.1c-0.1,0.1-0.2,0.1-0.2,0.4c0,0.3-0.1,0.9-0.1,1.1
			c0,0.2,0.2,0.3,0.3,0.3h0.5c0.3,0,0.4-0.1,0.4-0.4v-0.8c0-0.6,0-1.2-0.1-1.8c0,0,0-0.1,0-0.2c0-0.1,0.1-0.2,0.2-0.2
			c0.1,0,0.3,0,0.5,0c0.4,0,0.5,0.1,0.5,0.2c0,0.1-0.1,0.1-0.2,0.2c-0.2,0.1-0.2,0.4-0.2,1.7v0.8c0,0.3,0.1,0.4,0.4,0.4
			c0.4,0,0.8,0,1.2,0c0.3,0,0.3,0.1,0.3,0.4c0,0.3,0,0.4-0.3,0.4c-0.4,0-0.8,0-1.2,0c-0.3,0-0.4,0.1-0.4,0.4V18.6z M206.5,14h1
			c0.4,0,0.9,0,1.2,0c0.3,0,0.3,0.2,0.3,0.4c0,0.2,0,0.4-0.3,0.4c-0.3,0-0.8,0-1.2,0h-1c-0.3,0-0.4,0.1-0.4,0.4v1.3
			c0,0.3,0.1,0.4,0.4,0.4h1.7c0.5,0,0.9,0,1.3,0c0.3,0,0.3,0.2,0.3,0.4c0,0.2,0,0.4-0.3,0.4c-0.4,0-0.9,0-1.3,0h-4.5
			c-0.5,0-0.9,0-1.4,0c-0.3,0-0.3-0.2-0.3-0.4c0-0.2,0-0.4,0.3-0.4c0.5,0,0.9,0,1.4,0h1.2c0.3,0,0.4-0.1,0.4-0.4v-1.3
			c0-0.3-0.1-0.4-0.4-0.4h-0.7c-0.4,0-0.9,0-1.2,0c-0.3,0-0.3-0.2-0.3-0.4s0-0.4,0.3-0.4c0.3,0,0.8,0,1.2,0h0.7
			c0.3,0,0.4-0.1,0.4-0.4v-0.5c0-0.1,0-0.4,0-0.6c0-0.1,0-0.2,0-0.3c0-0.1,0.1-0.2,0.2-0.2c0.1,0,0.3,0,0.5,0c0.4,0,0.5,0,0.5,0.2
			c0,0.1-0.1,0.1-0.2,0.2c-0.2,0.1-0.2,0.4-0.2,1.2C206.1,13.9,206.2,14,206.5,14z M207.9,19.6h0.2c0.4,0,0.9,0,1.2,0
			c0.3,0,0.3,0.2,0.3,0.4c0,0.2,0,0.4-0.3,0.4c-0.3,0-0.8,0-1.2,0h-0.2c-0.3,0-0.4,0.1-0.4,0.4v2.1c0,0.3,0,0.6,0,0.9
			c0,1.2-1.3,1.2-2.1,1.2c-0.3,0-0.4,0-0.5-0.1c-0.1-0.1-0.1-0.4-0.1-0.5c0-0.1,0.1-0.2,0.2-0.2c0.1,0,0.2,0,0.2,0
			c0.1,0,0.3,0,0.4,0c1.1,0,1.1-0.3,1.1-1.2v-2.2c0-0.3-0.1-0.4-0.4-0.4h-2.4c-0.4,0-0.9,0-1.2,0c-0.3,0-0.3-0.2-0.3-0.4
			c0-0.2,0-0.4,0.3-0.4c0.3,0,0.8,0,1.2,0h2.4c0.3,0,0.4-0.1,0.4-0.4c0-0.3,0-0.6-0.1-0.9c0,0,0-0.1,0-0.1c0-0.1,0.1-0.2,0.2-0.2
			c0.2,0,0.6,0.1,0.8,0.1c0.1,0,0.2,0,0.2,0.2c0,0.1-0.1,0.1-0.2,0.2c-0.2,0.1-0.2,0.3-0.2,0.8C207.6,19.5,207.7,19.6,207.9,19.6z
			 M204.5,23.2c-0.1,0-0.2-0.1-0.3-0.2c-0.3-0.5-0.6-1-1-1.4c-0.1-0.1-0.1-0.2-0.1-0.3c0-0.2,0.3-0.3,0.4-0.3c0.2,0,0.6,0.5,0.8,0.9
			c0.1,0.2,0.6,0.8,0.6,1C205,23,204.7,23.2,204.5,23.2z"/>
		<path class="st1" d="M213.1,23.6c-0.1,0.2-0.5,0.8-0.7,0.9c-0.1,0.1-0.1,0.1-0.2,0.1c-0.2,0-0.5-0.1-0.5-0.3
			c0-0.1,0.1-0.2,0.2-0.3c0.6-0.7,0.9-1.2,1.3-2c0.5-1.2,0.8-2.7,0.8-4.1c0-0.2,0-0.5,0-0.7c0-0.2,0-0.2,0.2-0.2
			c0.1,0,0.9,0.1,0.9,0.2c0,0.1-0.1,0.1-0.2,0.2c-0.1,0.1-0.2,0.1-0.2,0.2c0,0.2,0,0.5,0,0.7c0,0.3,0.1,0.4,0.4,0.4h1.8
			c0.2,0,0.5,0,0.7,0c0.4,0,0.6,0.2,0.6,0.6c0,1.2-0.4,3.4-0.7,4.5c-0.3,0.9-0.8,1.1-2.3,1.1c-0.5,0-0.8,0-0.8-0.6
			c0-0.1,0-0.2,0.2-0.2c0.1,0,0.6,0,0.9,0c0.8,0,1.1-0.2,1.2-0.6c0.3-0.8,0.6-2.9,0.6-3.8c0-0.3-0.2-0.2-0.5-0.2H215
			c-0.3,0-0.4,0.1-0.5,0.4C214.3,21.3,213.9,22.4,213.1,23.6z M217.2,16.8h-3.7c-0.1,0-0.2,0.1-0.2,0.2c0,0.1-0.1,0.1-0.4,0.1
			c-0.3,0-0.4-0.1-0.4-0.3c0-0.3,0-0.5,0-0.8v-2.8c0-0.4,0.2-0.6,0.6-0.6c0.2,0,0.5,0,0.7,0h3.2c0.2,0,0.5,0,0.7,0
			c0.4,0,0.6,0.2,0.6,0.6c0,0.2,0,0.5,0,0.7V16c0,0.3,0,0.5,0,0.8c0,0.3-0.1,0.3-0.4,0.3c-0.1,0-0.3,0-0.4-0.1
			C217.4,16.9,217.3,16.8,217.2,16.8z M217,16c0.2,0,0.4-0.2,0.4-0.4v-1.9c0-0.2-0.1-0.4-0.4-0.4h-3.4c-0.2,0-0.4,0.2-0.4,0.4v1.9
			c0,0.2,0.2,0.4,0.4,0.4H217z M220.1,15.8c0-0.5,0-1.1-0.1-1.6c0,0,0-0.1,0-0.1c0-0.2,0.1-0.2,0.2-0.2c0.1,0,0.3,0,0.4,0
			c0.4,0,0.6,0,0.6,0.2c0,0.1-0.1,0.1-0.2,0.2c-0.2,0.1-0.2,0.4-0.2,1.5v3.8c0,0.6,0,1.2,0,1.8c0,0.4,0,0.7-0.4,0.7
			c-0.4,0-0.5-0.2-0.5-0.7c0-0.6,0-1.2,0-1.8V15.8z M223.1,14.2c0-0.6,0-1.3-0.1-1.9c0,0,0-0.1,0-0.1c0-0.2,0.1-0.2,0.2-0.2
			c0.2,0,0.5,0,0.7,0.1c0.2,0,0.4,0,0.4,0.2c0,0.1-0.1,0.1-0.2,0.2c-0.2,0.2-0.2,0.5-0.2,1.8v8.4c0,0.3,0,0.6,0,0.9
			c0,1.2-0.6,1.5-2.2,1.5c-0.5,0-0.6,0-0.6-0.6c0-0.2,0-0.4,0.3-0.4c0.1,0,0.2,0,0.2,0c0.2,0,0.3,0,0.5,0c1,0,1-0.3,1-1.3V14.2z"/>
		<path class="st1" d="M227.1,24.3c0,0,0,0.2-0.1,0.2c-0.1,0-0.7-0.5-0.7-0.7c0-0.1,0.2-0.2,0.5-0.5c0.5-0.4,1.1-0.8,1.6-1.2
			c0.2-0.2,0.3-0.3,0.3-0.6v-2.9c0-0.3-0.1-0.4-0.4-0.4h-0.9c-0.2,0-0.4,0-0.6,0c-0.2,0-0.3-0.1-0.3-0.4c0-0.3,0.1-0.4,0.3-0.4
			c0.2,0,0.4,0,0.6,0h0.5c0.3,0,0.6,0,0.9,0c0.6,0,0.7,0.2,0.7,0.6c0,0.4,0,0.8,0,1.1v2c0,0.3,0,0.6,0.1,0.9c0.2,0.5,0.7,1,1.2,1.2
			c0.9,0.5,2.9,0.4,4,0.4c1.4,0,2.8,0,4.3,0c0.1,0,0.2,0.1,0.2,0.2c0,0.6-0.2,0.5-1.3,0.5h-3.5c-1.1,0-3,0-3.9-0.5
			c-0.5-0.3-1-0.7-1.3-1.2c-0.1-0.1-0.1-0.2-0.3-0.2c-0.1,0-0.2,0-0.2,0.1c-0.5,0.4-1,0.8-1.5,1.2C227.1,24.1,227.1,24.2,227.1,24.3
			z M229.5,15.1c-0.1,0-0.2-0.1-0.3-0.2c-0.7-0.7-1.4-1.5-2.2-2.1c-0.1-0.1-0.2-0.2-0.2-0.3c0-0.2,0.2-0.4,0.4-0.4
			c0.2,0,1.3,1,1.5,1.2c0.3,0.3,0.9,0.9,1.1,1.2c0.1,0.1,0.1,0.1,0.1,0.2C229.9,14.9,229.7,15.1,229.5,15.1z M234.4,16
			c0-0.3-0.1-0.4-0.4-0.4h-1c-0.5,0-1.1,0-1.6,0c-0.3,0-0.3-0.2-0.3-0.4s0-0.4,0.3-0.4c0.5,0,1.1,0,1.6,0h2.1c0.3,0,0.4,0,0.6-0.3
			c0.6-0.8,1-1.6,1.5-2.5c0-0.1,0.1-0.1,0.2-0.1c0.1,0,0.8,0.4,0.8,0.6c0,0.1-0.1,0.1-0.2,0.1c-0.1,0-0.2,0-0.2,0.1
			c-0.1,0.1-0.3,0.5-0.4,0.7c-0.2,0.4-0.5,0.8-0.7,1.1c0,0.1,0,0.1,0,0.1c0,0.1,0.1,0.2,0.2,0.2c0.5,0,0.9,0,1.3,0
			c0.3,0,0.3,0.2,0.3,0.4s0,0.4-0.3,0.4c-0.5,0-1.1,0-1.6,0h-1c-0.3,0-0.4,0.1-0.4,0.4v0.2c0,0.4,0,0.8,0,1.1c0,0.3,0.1,0.4,0.4,0.4
			h1.8c0.5,0,1.1,0,1.6,0c0.3,0,0.3,0.2,0.3,0.4c0,0.2,0,0.4-0.3,0.4c-0.5,0-1.1,0-1.6,0h-1.6c-0.1,0-0.3,0.1-0.3,0.2
			c0,0.1,0,0.1,0,0.1c0.6,1.4,2,2.7,3.4,3.4c0.2,0.1,0.3,0.1,0.3,0.3c0,0.2-0.1,0.5-0.4,0.5c-0.4,0-1.4-0.7-1.7-1
			c-0.9-0.7-1.6-1.5-2.1-2.5c0-0.1-0.1-0.1-0.1-0.1c-0.1,0-0.1,0.1-0.2,0.1c-0.7,1.4-2,2.7-3.4,3.4c-0.1,0.1-0.3,0.1-0.4,0.1
			c-0.2,0-0.4-0.4-0.4-0.5c0-0.1,0.1-0.2,0.2-0.2c1.4-0.6,2.9-2,3.4-3.4c0,0,0-0.1,0-0.1c0-0.2-0.1-0.2-0.3-0.2h-1.4
			c-0.5,0-1.1,0-1.6,0c-0.3,0-0.3-0.1-0.3-0.4c0-0.2,0-0.4,0.3-0.4c0.5,0,1.1,0,1.6,0h1.5c0.3,0,0.4-0.1,0.4-0.4c0-0.4,0-0.7,0-1.1
			V16z M233.3,14.6c-0.2,0-0.3-0.1-0.3-0.3c-0.3-0.6-0.7-1.3-1.1-1.8c-0.1-0.1-0.1-0.1-0.1-0.2c0-0.2,0.3-0.4,0.5-0.4
			c0.1,0,0.2,0.1,0.2,0.2c0.2,0.2,0.5,0.7,0.7,1c0.1,0.2,0.6,1,0.6,1.2C233.8,14.4,233.5,14.6,233.3,14.6z"/>
		<path class="st1" d="M244.7,18.1c-0.1,0-0.1,0.1-0.1,0.1v4.1c0,0.7,0,1.3,0,2c0,0.3,0,0.6-0.4,0.6c-0.4,0-0.4-0.2-0.4-0.6
			c0-0.7,0-1.3,0-2v-3.8c0-0.1,0-0.1-0.1-0.1c0,0-0.1,0-0.1,0c-0.5,1.1-1.3,2.5-2,3.4c-0.1,0.1-0.2,0.3-0.4,0.3
			c-0.2,0-0.4-0.3-0.4-0.4c0-0.1,0.1-0.2,0.1-0.2c1.1-1.3,1.8-2.5,2.6-4c0,0,0-0.1,0-0.1c0-0.2-0.2-0.2-0.3-0.2h-0.6
			c-0.4,0-0.8,0-1.2,0c-0.3,0-0.3-0.2-0.3-0.4c0-0.2,0-0.4,0.3-0.4c0.4,0,0.8,0,1.2,0h0.8c0.3,0,0.4-0.1,0.4-0.4v-2
			c0-0.6,0-1.2-0.1-1.8c0,0,0-0.1,0-0.1c0-0.1,0.1-0.2,0.2-0.2c0.1,0,0.3,0,0.4,0c0.3,0,0.6,0,0.6,0.2c0,0.1-0.1,0.1-0.2,0.2
			c-0.2,0.1-0.2,0.4-0.2,1.6v2c0,0.3,0.1,0.4,0.4,0.4h0.8c0.4,0,0.8,0,1.2,0c0.3,0,0.3,0.2,0.3,0.4s0,0.4-0.3,0.4
			c-0.4,0-0.8,0-1.2,0h-0.7c-0.1,0-0.2,0-0.2,0.2c0,0.1,0,0.1,0,0.1c0.5,0.8,1.1,1.4,1.8,2.1c0.1,0.1,0.2,0.2,0.2,0.3
			c0,0.1-0.2,0.4-0.4,0.4c-0.4,0-1.5-1.7-1.8-2.1C244.8,18.2,244.7,18.1,244.7,18.1z M242.7,15.9c-0.2,0-0.3-0.1-0.4-0.3
			c-0.3-0.7-0.6-1.4-1-2c0-0.1-0.1-0.2-0.1-0.3c0-0.2,0.3-0.4,0.4-0.4c0.3,0,0.5,0.5,0.9,1.3c0.1,0.2,0.5,1.1,0.5,1.3
			C243.1,15.8,242.9,15.9,242.7,15.9z M247.3,13.3c-0.1,0-0.2,0.1-0.2,0.2c-0.3,0.7-0.6,1.5-0.9,2.2c-0.1,0.1-0.1,0.3-0.3,0.3
			c-0.2,0-0.5-0.1-0.5-0.3c0-0.1,0.1-0.2,0.1-0.3c0.4-0.6,0.8-1.7,1-2.4c0-0.1,0-0.2,0.2-0.2c0.1,0,0.3,0.1,0.4,0.1
			c0.3,0.1,0.5,0.1,0.5,0.2C247.4,13.2,247.4,13.3,247.3,13.3z M252,22.4c0,0.7,0,1.3,0,2c0,0.3,0,0.6-0.4,0.6
			c-0.4,0-0.4-0.2-0.4-0.5c0-0.7,0-1.4,0-2v-1.6c0-0.2-0.1-0.3-0.3-0.3c0,0-0.1,0-0.1,0l-3.1,0.6c-0.2,0-1.4,0.3-1.4,0.3
			c-0.2,0-0.3-0.4-0.3-0.5c0-0.2,0.1-0.2,0.4-0.3c0.2,0,0.7-0.1,1.2-0.2l3.3-0.7c0.3-0.1,0.4-0.2,0.4-0.5v-5.2c0-0.7,0-1.2-0.1-1.8
			c0,0,0-0.1,0-0.1c0-0.2,0.1-0.2,0.2-0.2c0.1,0,0.3,0,0.4,0c0.4,0,0.6,0,0.6,0.2c0,0.1-0.1,0.1-0.2,0.2c-0.2,0.1-0.2,0.4-0.2,1.7v5
			c0,0.2,0.1,0.3,0.3,0.3c0,0,0.1,0,0.1,0c0.2,0,1.2-0.3,1.3-0.3c0.2,0,0.3,0.4,0.3,0.5c0,0.2-0.1,0.2-0.4,0.3
			c-0.3,0.1-0.7,0.1-1.2,0.2c-0.3,0.1-0.4,0.2-0.4,0.5V22.4z M249.5,18.5c-0.1,0-0.3-0.1-0.4-0.3c-0.4-0.4-0.8-0.8-1.3-1.2
			c-0.1-0.1-0.2-0.2-0.2-0.3c0-0.2,0.2-0.4,0.4-0.4c0.2,0,0.7,0.6,0.9,0.7c0.2,0.2,0.7,0.6,0.9,0.9c0.1,0.1,0.1,0.1,0.1,0.2
			C250,18.2,249.7,18.5,249.5,18.5z M249.7,15c-0.1,0-0.3-0.1-0.4-0.2c-0.3-0.4-0.7-0.7-1.1-1.1c-0.1-0.1-0.2-0.2-0.2-0.3
			c0-0.2,0.2-0.4,0.4-0.4c0.2,0,0.7,0.5,0.9,0.7c0.2,0.2,0.8,0.7,0.8,0.9C250.2,14.8,250,15,249.7,15z"/>
	</g>
</g>
<g>
	<g>
		<path class="st1" d="M202.7,37.8c2.8,0,5.4,1.6,5.4,4.8c0,2.6-1.7,5.7-6.5,5.7c-1.5,0-2.8-0.3-3.8-0.8c-0.3-0.1-0.4-0.2-0.4-0.4
			c0-0.1,0-0.2,0.1-0.4l0.1-0.3c0.1-0.3,0.2-0.4,0.3-0.4c0.1,0,0.2,0.1,0.4,0.2c0.9,0.5,2.1,0.9,3.4,0.9c3.5,0,4.9-2.1,4.9-4.2
			c0-2.3-1.6-3.6-4.3-3.6c-1.2,0-2.4,0.2-3.2,0.6c-0.2,0.1-0.3,0.1-0.4,0.1c-0.1,0-0.1,0-0.2,0l-0.2-0.1c-0.3-0.1-0.3-0.2-0.3-0.3
			c0,0,0-0.1,0-0.2c0.1-0.7,0.2-1.5,0.2-2.3l0.2-2.8c0-0.7,0.1-1.4,0.1-2.1c0-0.5,0.2-0.7,0.6-0.7c0.3,0,2,0,3.1,0h1.2
			c1.3,0,3.3,0,3.5,0c0.4,0,0.5,0.1,0.5,0.6v0.3c0,0.5-0.1,0.6-0.5,0.6c-0.1,0-0.5,0-1.3,0c-0.5,0-1.7,0-2.2,0h-2.8
			c-0.6,0-0.8,0.1-0.8,0.7l-0.3,4.2c0,0.3,0,0.4,0.2,0.4c0.1,0,0.2,0,0.4-0.1C201,37.9,201.8,37.8,202.7,37.8z"/>
		<path class="st1" d="M224.1,39.4c0,5.6-3.1,8.9-6.7,8.9c-3.4,0-6.3-2.9-6.3-8.3c0-4.8,2.4-8.8,6.6-8.8
			C221.2,31.2,224.1,34,224.1,39.4z M212.6,40c0,4.5,2.1,6.9,4.8,6.9c2.9,0,5.2-2.8,5.2-7.5c0-4.5-2.2-6.8-4.9-6.8
			C214.4,32.7,212.6,36,212.6,40z"/>
		<path class="st1" d="M240.2,39.4c0,5.6-3.1,8.9-6.7,8.9c-3.4,0-6.3-2.9-6.3-8.3c0-4.8,2.4-8.8,6.6-8.8
			C237.2,31.2,240.2,34,240.2,39.4z M228.7,40c0,4.5,2.1,6.9,4.8,6.9c2.9,0,5.2-2.8,5.2-7.5c0-4.5-2.2-6.8-4.9-6.8
			C230.4,32.7,228.7,36,228.7,40z"/>
		<path class="st1" d="M252.5,43.7c0-0.3-0.1-0.4-0.4-0.4h-7.3c-0.3,0-0.4,0.1-0.4,0.4v2.6c0,0.7,0,1.3,0,2c0,0.4-0.1,0.5-0.6,0.5
			c-0.5,0-0.6-0.1-0.6-0.5c0-0.7,0-1.3,0-2v-7.4c0-0.4,0-0.8,0-1.1c0-0.5,0.2-0.7,0.7-0.7c0.4,0,0.7,0,1.1,0h6.8c0.4,0,0.7,0,1.1,0
			c0.5,0,0.7,0.1,0.7,0.7c0,0.4,0,0.8,0,1.2v7.4c0,0.3,0,0.6,0,1c0,0.5,0,0.9-0.4,1.2c-0.5,0.4-1.3,0.4-1.9,0.4
			c-0.4,0-0.8,0-0.8-0.8c0-0.3,0.1-0.4,0.3-0.4c0.3,0,0.6,0,0.9,0c0.7,0,0.7-0.2,0.7-0.8V43.7z M247.9,38.6c0-0.2-0.1-0.4-0.4-0.4
			h-2.7c-0.2,0-0.4,0.2-0.4,0.4v3.3c0,0.2,0.1,0.4,0.4,0.4h2.7c0.2,0,0.4-0.2,0.4-0.4V38.6z M252.1,42.3c0.2,0,0.4-0.2,0.4-0.4v-3.3
			c0-0.2-0.2-0.4-0.4-0.4h-2.7c-0.2,0-0.4,0.2-0.4,0.4v3.3c0,0.2,0.2,0.4,0.4,0.4H252.1z"/>
	</g>
</g>
</svg>
