<svg xmlns="http://www.w3.org/2000/svg" viewBox="0 0 653.4 38.5"><defs><style>.cls-1{fill:#534741;}</style></defs><g id="レイヤー_2" data-name="レイヤー 2"><g id="テキスト"><path class="cls-1" d="M.51,13.05,0,12.53,5.2,7.35,0,2.16l.51-.51L5.7,6.85l5.18-5.2.52.51L6.19,7.35l5.21,5.18-.52.52L5.7,7.84Zm2.16-5.7A1.34,1.34,0,1,1,1.34,6,1.34,1.34,0,0,1,2.67,7.35ZM7,3A1.33,1.33,0,1,1,5.7,1.65,1.34,1.34,0,0,1,7,3ZM7,11.7A1.33,1.33,0,1,1,5.7,10.37,1.33,1.33,0,0,1,7,11.7ZM11.4,7.35A1.34,1.34,0,1,1,10.05,6,1.35,1.35,0,0,1,11.4,7.35Z"/><path class="cls-1" d="M27.12,6.43A.38.38,0,0,0,26.68,6h-2.2c-.3,0-.43.12-.43.44v.76c0,.41.23.45.58.45h.49c.56,0,.58-.12.71-.68.06-.24.09-.3.29-.3s.88.06.88.45a2.5,2.5,0,0,1-.44,1.23c-.32.37-1,.34-1.42.34h-.75c-.87,0-1.56,0-1.56-.92V6.43c0-.3-.12-.44-.44-.44H18c-.32,0-.45.14-.45.44V12c0,.65,0,1.29,0,1.93,0,.41-.11.48-.67.48s-.67-.05-.67-.47c0-.65,0-1.29,0-1.94V6.74c0-.4,0-.78,0-1.19,0-.59.28-.68.81-.68h2.21c.16,0,.29-.06.29-.24a.7.7,0,0,0,0-.14c-.15-.31-.36-.67-.53-1a.79.79,0,0,1-.1-.27c0-.08.07-.14.13-.19s.06-.08.06-.13A.11.11,0,0,0,19,2.82H17.57c-.63,0-1.25,0-1.87,0-.34,0-.36-.16-.36-.59s0-.59.36-.59c.62,0,1.24,0,1.87,0h3.66c.31,0,.4-.12.44-.4a3.77,3.77,0,0,0-.05-.82s0-.1,0-.13.13-.21.27-.21.95.08,1.2.1.32,0,.32.18-.08.12-.2.2-.2.29-.2.68.15.4.44.4h3.71l1.87,0c.34,0,.36.14.36.59s0,.59-.36.59l-1.87,0H25.46a.05.05,0,0,0-.06.06s0,.05,0,.07c.44.17.84.3.84.48s-.12.16-.29.19-.18,0-.24.14-.23.45-.4.75a.3.3,0,0,0-.05.16c0,.16.13.21.27.21h2c.52,0,.81.08.81.67,0,.4,0,.78,0,1.17v5.1c0,.36,0,.69,0,1,0,1.28-.59,1.55-2.13,1.55-.48,0-1,0-1-1,0-.19.05-.34.27-.34s.74.05,1.11.05.44-.41.44-.89Zm-5.58.37c-.13,0-.16.07-.26.23a6,6,0,0,1-2.64,2.4c-.29,0-.77-.4-.77-.66s.19-.24.32-.3a6.17,6.17,0,0,0,1.59-1.22,3.15,3.15,0,0,0,.59-1c0-.08.06-.18.19-.18s1.17.37,1.17.55S21.62,6.79,21.54,6.8ZM25,12.31c0,.5-.29.59-.72.59H21.44c-.3,0-.57,0-.59.38s-.08.32-.62.32-.6,0-.6-.32V10.52c0-.2,0-.39,0-.58,0-.46.32-.56.72-.56l1,0H23.3l1,0c.41,0,.73.08.73.58v2.35Zm-.34-9.24c0-.19-.14-.24-.3-.25h-4c-.14,0-.24.05-.24.21a.25.25,0,0,0,0,.14c0,.05.07.13.12.21a5,5,0,0,1,.51,1.17c0,.11-.08.14-.08.22s.08.11.14.11h2.45A.61.61,0,0,0,24,4.53a12.58,12.58,0,0,0,.65-1.33A.31.31,0,0,0,24.67,3.07Zm-3.82,8.38a.4.4,0,0,0,.45.44h2.05a.4.4,0,0,0,.43-.44v-.63a.39.39,0,0,0-.43-.43H21.3a.4.4,0,0,0-.45.43Z"/><path class="cls-1" d="M36.93,13.77c0-.26-.11-.37-.37-.37H34.42c-.26,0-.37.09-.37.37v.3c0,.35-.15.37-.67.37s-.68,0-.68-.37,0-.85,0-1.26V9.6c0-.33,0-.67,0-1,0-.55.18-.76.72-.76l.93,0h2.24l.92,0c.51,0,.73.18.73.71,0,.35,0,.7,0,1v3.21c0,.41,0,.83,0,1.26s-.16.37-.65.37-.66,0-.66-.34Zm-.42-1.51a.44.44,0,0,0,.44-.45V9.49c0-.27-.18-.41-.44-.45h-2c-.27,0-.43.18-.43.45v2.32a.43.43,0,0,0,.43.45Zm.69-5.92c-.38,0-.48,0-.56.24s-.48.14-.61.14c-.48,0-.67,0-.67-.4s0-.7,0-1.05V2.51c0-.28,0-.57,0-.86,0-.56.31-.66.91-.66l.88,0h3.72l.88,0c.61,0,.93.1.93.66,0,.29,0,.58,0,.86V5.27c0,.35,0,.69,0,1s-.2.41-.68.41-.59,0-.67-.22-.37-.18-.51-.16Zm-.51-1.59a.4.4,0,0,0,.43.44H40.9a.43.43,0,0,0,.45-.44V2.61a.43.43,0,0,0-.45-.45H37.12a.43.43,0,0,0-.43.45Zm7.3,9c0-.28-.11-.37-.37-.37H41.28c-.25,0-.36.09-.36.37v.3c0,.35-.15.37-.68.37s-.67,0-.67-.37,0-.85,0-1.26V9.6c0-.33,0-.67,0-1,0-.55.18-.76.72-.76l.93,0h2.46l.92,0c.56,0,.73.2.73.76,0,.33,0,.67,0,1v3.21c0,.41,0,.84,0,1.26s-.16.37-.67.37-.67,0-.67-.37Zm-.42-1.51a.41.41,0,0,0,.43-.45V9.49A.43.43,0,0,0,43.57,9H41.35c-.27,0-.45.18-.45.45v2.32a.45.45,0,0,0,.45.45Z"/><path class="cls-1" d="M52.4,2c.1,0,.27.13.27.25s0,.13-.12.16c-.34.16-.42.26-.63.8a16.36,16.36,0,0,0-.83,4.95c0,.32.06,2.29.41,2.29.13,0,.25-.24.44-.72.08-.19.25-.79.45-.79s.51.21.51.39a2.17,2.17,0,0,1-.08.3,13.21,13.21,0,0,0-.66,2.52c0,.22,0,.44,0,.65s-.21.47-.5.59a1.7,1.7,0,0,1-.5.15c-.22,0-.36-.32-.44-.5a11.36,11.36,0,0,1-1-4.85,19.36,19.36,0,0,1,.75-5.14c.13-.45.28-.89.39-1.34,0-.11.06-.26.19-.26A10.05,10.05,0,0,1,52.4,2Zm6.39-.47c.08,0,.14.07.14.16s-.08.18-.14.26a2.51,2.51,0,0,0-.18,1.2v.37c0,.35,0,.59.34.59a11.9,11.9,0,0,0,1.69-.42.65.65,0,0,1,.24-.06c.31,0,.41.94.41,1.09,0,.33-.47.4-2.09.64-.28,0-.52.09-.52.48s.11,3,.14,3.54.21.44.51.59c.45.21,2.18,1.13,2.18,1.65,0,.33-.47.93-.75.93s-.32-.16-.42-.26a5.14,5.14,0,0,0-1.38-1c-.16,0-.19.13-.2.25-.2,1.12-1.2,1.49-2.23,1.49S54,12.52,54,11.12s1.22-1.87,2.39-1.87a6.78,6.78,0,0,1,.77.05.44.44,0,0,0,.16,0c.22,0,.3-.12.3-.32,0-.55-.08-2.21-.11-2.81,0-.17,0-.57-.37-.57-.08,0-1.17.06-1.78.06A11.72,11.72,0,0,1,53.7,5.6c-.21-.06-.21-.77-.21-1s0-.37.22-.37a1.73,1.73,0,0,1,.32,0c.69.06,1.43.11,2.12.11s1.17,0,1.17-.37-.15-2-.21-2.4V1.49a.17.17,0,0,1,.19-.19A13.63,13.63,0,0,1,58.79,1.55Zm-1.38,9a3.62,3.62,0,0,0-.94-.14c-.43,0-1.32.16-1.32.73s.87.8,1.33.8c.71,0,1.14-.28,1.14-1A.35.35,0,0,0,57.41,10.53Z"/><path class="cls-1" d="M72.31,4.59c0,.1.11.21.19.28s.43.36.43.54a.32.32,0,0,1-.06.21.22.22,0,0,0,0,.11c0,.1.08.13.16.15h2.72c.55,0,1.14,0,1.38,0a1.17,1.17,0,0,1,1.06,1,8.46,8.46,0,0,1-2.85,2.53c-.32,0-.8-.57-.8-.81s.11-.18.22-.26,1.43-.91,1.43-1.09-.25-.11-.34-.11H72.44c-.32,0-.45.13-.45.43v4c0,.37,0,.75,0,1.14,0,1.63-1.59,1.74-2.85,1.74-.21,0-.54,0-.67-.17a2.2,2.2,0,0,1-.21-.9c0-.21.1-.32.3-.32a1.42,1.42,0,0,1,.29,0l.58,0c1.23,0,1.21-.26,1.21-1.38V7.49c0-.3-.12-.43-.44-.43H66.48l-1.84,0c-.34,0-.35-.16-.35-.62s0-.64.35-.64c.61,0,1.23,0,1.84,0h4.8c.08,0,.18,0,.18-.17a.15.15,0,0,0-.07-.12A21.83,21.83,0,0,0,69,3.73c-.13-.08-.32-.18-.32-.37s.46-.75.72-.75a7.1,7.1,0,0,1,1.47.94.67.67,0,0,0,.38.15.79.79,0,0,0,.32-.1A10.3,10.3,0,0,0,73.7,2.16c0-.16-.24-.13-.35-.13H68.51c-.6,0-1.21,0-1.82,0-.34,0-.35-.18-.35-.65s0-.62.35-.62c.61,0,1.22,0,1.82,0h6.65c.65,0,1,.78,1,.89,0,.56-3.08,2.37-3.65,2.68A.25.25,0,0,0,72.31,4.59Z"/><path class="cls-1" d="M86.88,2.48c.31,0,.44-.13.44-.45V1.54a6.77,6.77,0,0,0,0-1,.44.44,0,0,1,0-.16c0-.18.11-.23.26-.23s.7.07,1,.1.5,0,.5.21-.08.16-.21.24-.19.35-.19.93v.43c0,.3.14.43.45.43h2.46l1.86,0c.32,0,.34.14.34.61s0,.61-.34.61c-.62,0-1.25,0-1.86,0H89c-.31,0-.45.13-.45.44V5.55c0,.31.14.44.45.44h3.68c.64,0,1.28,0,1.94,0,.33,0,.33.17.33.62s0,.61-.33.61l-1.94,0H83.17c-.66,0-1.3,0-1.94,0-.33,0-.35-.15-.35-.61s0-.62.35-.62c.64,0,1.28,0,1.94,0h3.71c.31,0,.44-.13.44-.44V4.07c0-.31-.13-.44-.44-.44h-2.7a.63.63,0,0,0-.66.36c-.24.41-.53.91-.8,1.29-.1.11-.18.23-.34.23s-.92-.34-.92-.56a.69.69,0,0,1,.17-.34,17.42,17.42,0,0,0,2.13-4c0-.09.07-.19.19-.19l.08,0c.31.06,1.32.28,1.32.54,0,.1-.13.14-.21.18-.23.06-.26.12-.47.59l-.16.37a.7.7,0,0,0,0,.14c0,.18.15.22.29.24ZM84.67,13.54c-.2,0-.3.08-.32.31,0,.06,0,.12,0,.2,0,.34-.22.34-.69.34S83,14.37,83,14c0-.15,0-.83,0-1V10.16c0-.28,0-.59,0-.88,0-.56.32-.68.82-.68H92c.46,0,.86.08.86.64,0,.3,0,.62,0,.92V13c0,.35,0,.69,0,1s-.15.35-.69.35-.67,0-.67-.33v-.24c0-.23-.1-.31-.32-.31Zm6.39-1.13c.27,0,.42-.16.45-.45V10.2a.45.45,0,0,0-.45-.45H84.79a.44.44,0,0,0-.45.45V12c0,.29.17.45.45.45Z"/><path class="cls-1" d="M103.68.9c.08,0,.2.08.2.19s-.1.16-.23.29a6.77,6.77,0,0,0-.46,1.44,2.48,2.48,0,0,0-.07.3.19.19,0,0,0,.2.19c.11,0,1-.24,1.1-.28a.53.53,0,0,1,.18,0c.24,0,.27.85.27,1,0,.37-.19.37-1.76.65-.53.1-.52.18-.69.68a38.88,38.88,0,0,1-1.91,4.41c-.24.47-.48.93-.75,1.4a.29.29,0,0,1-.27.19c-.27,0-1.12-.37-1.12-.66a2.18,2.18,0,0,1,.25-.54,25.4,25.4,0,0,0,2-3.84,7.52,7.52,0,0,0,.4-1.09.18.18,0,0,0-.19-.19,1.66,1.66,0,0,0-.32,0c-.26,0-1.44.14-1.65.14s-.32-.14-.37-.41a6.1,6.1,0,0,1-.08-.72c0-.2.1-.24.27-.24H99a7.47,7.47,0,0,0,2.48-.27,3.22,3.22,0,0,0,.34-1,9.4,9.4,0,0,0,.26-1.82c0-.12,0-.26.14-.26A12.24,12.24,0,0,1,103.68.9Zm2.39,4.64c.14,0,.27.11.27.27s0,.54,0,.86c0,.85.06,2.44.16,3.27,0,.29.14.37.4.46a10,10,0,0,1,1.62.76c.19.11.92.51.92.72s-.46.93-.8.93c-.14,0-.28-.13-.4-.21a5.25,5.25,0,0,0-1.5-.85c-.18,0-.19.25-.21.4-.11,1.2-1,1.68-2.1,1.68s-2.69-.66-2.69-2S103.09,10,104.26,10h.59c.16,0,.31,0,.31-.22,0-.47-.23-3.33-.31-3.86V5.7c0-.21.13-.29.32-.29A3.83,3.83,0,0,1,106.07,5.54ZM103,11.76c0,.58.81.89,1.29.89.69,0,1-.36,1-1,0-.4,0-.54-1-.54C103.86,11.08,103,11.16,103,11.76Zm7-6.11c0,.32-.72.85-1,.85s-.21-.11-.29-.23a8.46,8.46,0,0,0-2-2c-.1-.07-.21-.16-.21-.27s.59-.85.85-.85A7.68,7.68,0,0,1,110,5.65Z"/><path class="cls-1" d="M121.51,2.4c0,.18-.24.16-.35.16-.31,0-.39.21-.61.32-.48.37-.93.74-1.38,1.11-.88.72-1.73,1.47-2.56,2.24a1,1,0,0,0-.42.72c0,.53.82,1.37,1.19,1.74,1.05,1.09,2.21,2.1,3.34,3.11.2.16.63.49.63.73s-.75,1-1.11,1c-.16,0-.33-.24-.44-.37-.61-.72-1.27-1.39-1.94-2-.85-.85-1.7-1.7-2.48-2.61a2.38,2.38,0,0,1-.74-1.61A1.8,1.8,0,0,1,115,5.84a18.29,18.29,0,0,1,2-1.79,25.13,25.13,0,0,0,3-2.77c0-.06.13-.16.22-.16s.42.26.61.45S121.51,2.24,121.51,2.4Z"/><path class="cls-1" d="M129.26,4.18a.34.34,0,0,0-.25.19,7.94,7.94,0,0,1-1.95,2.1.52.52,0,0,1-.34.14c-.27,0-.77-.4-.77-.61s.21-.27.34-.37a6.11,6.11,0,0,0,1.84-2c.06-.08.11-.2.24-.2a5.87,5.87,0,0,1,.93.39c.09.05.25.11.25.24S129.33,4.16,129.26,4.18Zm8.63-2.43c.64,0,1.27,0,1.89,0,.34,0,.35.13.35.6s0,.59-.35.59c-.62,0-1.25,0-1.89,0h-1.95c-.32,0-.45.12-.45.44V5.2c0,.32,0,.63,0,1,0,1.33-1.1,1.36-2.13,1.36-.24,0-.54,0-.67-.23a1.49,1.49,0,0,1-.19-.75c0-.19.11-.27.29-.27s.35,0,.62,0c.82,0,.79-.29.79-1v-2c0-.32-.15-.44-.45-.44h-1.14c-.3,0-.45.11-.48.41a5.24,5.24,0,0,1-3,4.53,4.89,4.89,0,0,1-1.44.56c-.34,0-.62-.49-.62-.78s.17-.26.33-.31A6.4,6.4,0,0,0,129.73,6,3.87,3.87,0,0,0,131,3.28c0-.3-.13-.41-.42-.41h-2.27c-.62,0-1.25,0-1.89,0-.33,0-.33-.16-.33-.59s0-.6.33-.6c.63,0,1.27,0,1.89,0H132c.29,0,.43-.12.43-.41a5.64,5.64,0,0,0-.06-.91s0-.11,0-.16.14-.21.29-.21,1,.07,1.26.1.24,0,.24.19-.08.15-.19.23-.19.33-.19.75.14.42.43.42Zm-3.26,10c0,.13.06.17.16.22a13.84,13.84,0,0,0,4.66,1.08c.35,0,.55,0,.55.4s-.17.84-.63.84a12,12,0,0,1-2-.25,13.36,13.36,0,0,1-3.73-1.36.63.63,0,0,0-.35-.11.86.86,0,0,0-.35.09,14.5,14.5,0,0,1-4.25,1.27,16.32,16.32,0,0,1-1.95.2c-.54,0-.7-.49-.7-.84s.29-.31.51-.32a15.67,15.67,0,0,0,5.3-1.05.25.25,0,0,0,.17-.22c0-.11-.06-.16-.12-.24a6.13,6.13,0,0,1-1.2-1.34c-.09-.1-.17-.2-.31-.2a.61.61,0,0,0-.25.08,7.45,7.45,0,0,1-3.21,1.38c-.35,0-.54-.62-.54-.8s.3-.29.5-.32a6.69,6.69,0,0,0,4.29-3c.12-.24.19-.32.3-.32s1.2.29,1.2.54-.22.18-.32.21a.58.58,0,0,0-.32.39.17.17,0,0,0,.19.16h2.53l1.41,0c.66,0,.78.77.78.85,0,.57-1.72,2.06-2.22,2.43A.25.25,0,0,0,134.63,11.75ZM133.28,11a.64.64,0,0,0,.32-.13c.26-.21,1.48-1.18,1.48-1.46,0-.09-.21-.08-.39-.08H132c-.11,0-.24.05-.24.21a.3.3,0,0,0,.05.15A6.26,6.26,0,0,0,133,10.88.51.51,0,0,0,133.28,11Zm5.93-4c-.17,0-.26-.14-.36-.25a22.33,22.33,0,0,0-2.22-2.34.47.47,0,0,1-.24-.34,1,1,0,0,1,.72-.68c.14,0,.24.11.4.25A15.4,15.4,0,0,1,140,6.35C140,6.61,139.45,7,139.21,7Z"/><path class="cls-1" d="M146,9c-.14,0-.17.08-.24.19s-.09.19-.62.19-.66,0-.66-.36,0-.76,0-1.12V4.82c0-.34,0-.67,0-1,0-.59.32-.7.87-.7l1.33,0h2c.28,0,.39-.12.39-.39V2.29c0-.27-.11-.38-.39-.38h-3.71c-.66,0-1.3,0-1.94,0-.33,0-.33-.18-.33-.63s0-.64.33-.64c.64,0,1.28,0,1.94,0h9.51c.64,0,1.28,0,1.92,0,.33,0,.33.19.33.64s0,.63-.33.63c-.64,0-1.28,0-1.92,0h-3.76c-.26,0-.39.11-.39.38v.43c0,.27.11.39.39.39h2.09l1.23,0c.53,0,.87.1.87.7,0,.36,0,.69,0,1v3c0,.4,0,.8,0,1.2s-.16.36-.66.36a1.06,1.06,0,0,1-.59-.11c-.08-.11-.19-.27-.35-.27h-2.74a.46.46,0,0,0-.54.42,5.76,5.76,0,0,1-.74,1.71.41.41,0,0,0-.08.24.33.33,0,0,0,.21.3,14.69,14.69,0,0,0,6.48,1.46c.58,0,.77,0,.77.45s-.1.81-.54.81a16.68,16.68,0,0,1-7.66-1.79.62.62,0,0,0-.32-.09.54.54,0,0,0-.36.12,12.14,12.14,0,0,1-4,1.65,3.1,3.1,0,0,1-.53.1c-.43,0-.64-.63-.64-.93s.27-.3.56-.34a9.15,9.15,0,0,0,3.52-1.2.26.26,0,0,0,.16-.24.29.29,0,0,0-.12-.25c-.23-.21-1.22-1.19-1.22-1.44s.59-.63.8-.63.34.19.46.34a8.35,8.35,0,0,0,.92.86.34.34,0,0,0,.25.11.38.38,0,0,0,.32-.19,3.74,3.74,0,0,0,.5-1,.61.61,0,0,0,0-.13c0-.23-.18-.29-.37-.29Zm3.11-4.35a.37.37,0,0,0-.39-.39H146.1a.37.37,0,0,0-.39.39v.48a.37.37,0,0,0,.39.38h2.57a.37.37,0,0,0,.39-.38Zm-3,1.93c-.27,0-.39.11-.39.39v.51c0,.27.12.38.39.38h2.53c.25,0,.37-.09.4-.35s0-.38,0-.57a.34.34,0,0,0-.39-.36Zm4.58,1.28h2.52c.28,0,.39-.11.39-.38V7c0-.28-.11-.39-.39-.39h-2.54c-.24,0-.35.1-.38.36s0,.33,0,.51S150.39,7.84,150.68,7.84Zm2.52-2.35a.37.37,0,0,0,.39-.38V4.63a.37.37,0,0,0-.39-.39h-2.54a.37.37,0,0,0-.38.39v.48a.37.37,0,0,0,.38.38Z"/><path class="cls-1" d="M163.31,2.13c.1.05.23.11.23.24s-.08.13-.23.21-.32.29-.48.69A12.36,12.36,0,0,0,162,7.89c0,.37.11,2.69.53,2.69.13,0,.23-.19.37-.53,0-.08.08-.16.11-.24.15-.3.24-.45.37-.45s.45.23.45.37a15.13,15.13,0,0,0-.61,2.34,4.71,4.71,0,0,0,.05.54,1.62,1.62,0,0,1,0,.21c0,.31-.77.66-1,.66s-.5-.51-.63-.79a10.87,10.87,0,0,1-1-4.81,18.55,18.55,0,0,1,.85-5.27,6.41,6.41,0,0,0,.21-.75c0-.13.07-.31.21-.31s.83.32,1.22.48Zm2.05,7.81a2.88,2.88,0,0,0,2.55,1.14,12,12,0,0,0,3.5-.52,1.37,1.37,0,0,1,.32-.06c.21,0,.24.24.24.85,0,.18,0,.54-.16.64a18.3,18.3,0,0,1-3.73.46c-2.61,0-3.63-1.37-3.63-1.57s.43-1.1.7-1.1C165.25,9.78,165.31,9.88,165.36,9.94ZM166,2.88a9.35,9.35,0,0,0,2.11.24,10.6,10.6,0,0,0,2.45-.3,1.47,1.47,0,0,1,.29,0c.32,0,.3.7.3.93s0,.41-.14.48a15.44,15.44,0,0,1-2.79.27,11,11,0,0,1-2.7-.32c-.18-.1-.16-.37-.16-.54,0-.47,0-.79.28-.79A1.55,1.55,0,0,1,166,2.88Z"/><path class="cls-1" d="M181.43.9c.08,0,.19.08.19.19s-.1.16-.22.29a6.76,6.76,0,0,0-.47,1.44c0,.08-.06.25-.06.3a.18.18,0,0,0,.19.19c.11,0,1-.24,1.1-.28a.7.7,0,0,1,.18,0c.24,0,.27.85.27,1,0,.37-.19.37-1.76.65-.53.1-.51.18-.69.68a37.09,37.09,0,0,1-1.9,4.41c-.24.47-.48.93-.75,1.4-.07.11-.13.19-.28.19s-1.12-.37-1.12-.66a2.22,2.22,0,0,1,.26-.54,26.29,26.29,0,0,0,2-3.84,7.52,7.52,0,0,0,.4-1.09.18.18,0,0,0-.19-.19,1.82,1.82,0,0,0-.32,0c-.25,0-1.44.14-1.65.14s-.32-.14-.36-.41a4.53,4.53,0,0,1-.08-.72c0-.2.09-.24.27-.24h.37a7.47,7.47,0,0,0,2.48-.27,3.52,3.52,0,0,0,.33-1,8.68,8.68,0,0,0,.26-1.82c0-.12,0-.26.14-.26A13,13,0,0,1,181.43.9Zm2.38,4.64c.15,0,.27.11.27.27s0,.54,0,.86c0,.85.07,2.44.16,3.27,0,.29.15.37.4.46a9.57,9.57,0,0,1,1.62.76c.19.11.93.51.93.72s-.47.93-.8.93a.78.78,0,0,1-.4-.21,5.3,5.3,0,0,0-1.51-.85c-.17,0-.19.25-.2.4a1.83,1.83,0,0,1-2.1,1.68c-1.2,0-2.69-.66-2.69-2S180.83,10,182,10h.6c.16,0,.3,0,.3-.22,0-.47-.22-3.33-.3-3.86V5.7c0-.21.12-.29.32-.29A3.83,3.83,0,0,1,183.81,5.54Zm-3.07,6.22c0,.58.82.89,1.3.89.68,0,1-.36,1-1,0-.4-.05-.54-1-.54C181.6,11.08,180.74,11.16,180.74,11.76Zm7-6.11c0,.32-.72.85-1,.85s-.21-.11-.29-.23a8.46,8.46,0,0,0-1.95-2c-.1-.07-.21-.16-.21-.27s.59-.85.85-.85A7.68,7.68,0,0,1,187.78,5.65Z"/><path class="cls-1" d="M199.76,2.75c0,.1-.22.23-.3.28a20.34,20.34,0,0,0-2.66,2.52.53.53,0,0,0-.11.24.19.19,0,0,0,.19.17l.28,0a3.5,3.5,0,0,1,.91-.12C200.12,5.79,202,7,202,9.22c0,2.72-2.45,4.18-5,4.18a3.79,3.79,0,0,1-2.29-.64,1.78,1.78,0,0,1-.77-1.41,1.86,1.86,0,0,1,1.91-1.78c1,0,2.3.8,2.3,1.92a2,2,0,0,1-.06.4.15.15,0,0,0,.16.16,3,3,0,0,0,2.32-2.77c0-1.63-1.41-2.3-2.86-2.3a4.92,4.92,0,0,0-3.62,1.54c-.59.57-1.15,1.2-1.7,1.82-.09.11-.16.21-.25.21-.32,0-.93-.69-.93-.91s.21-.32.32-.44a78.28,78.28,0,0,0,5.57-5.66c.08-.1.19-.19.19-.34s-.11-.17-.22-.17-.23,0-.31,0c-1,.24-2,.42-3,.61a3.06,3.06,0,0,1-.4.07c-.36,0-.39-.9-.39-1.16s.08-.4.53-.4h.29a15.64,15.64,0,0,0,4-.59,2.19,2.19,0,0,1,.56-.14C199,1.46,199.76,2.5,199.76,2.75Zm-3.87,7.88a.75.75,0,0,0-.78.72c0,.65.88,1,1.42,1,.32,0,.45-.37.45-.65A1.07,1.07,0,0,0,195.89,10.63Z"/><path class="cls-1" d="M207.23,5.39c0-.32-.12-.44-.44-.44h0c-.39,0-.93,0-1.12,0s-.31-.23-.31-.63,0-.62.31-.62l1.12,0h0c.32,0,.44-.13.44-.44V2c0-.44,0-.9-.06-1.33,0,0,0-.13,0-.18s.13-.21.27-.21c.31,0,.61,0,.92.07s.57,0,.57.22-.08.15-.22.24-.19.29-.19.85V3.31c0,.31.13.44.43.44H209l1.12,0c.29,0,.31.19.31.62s0,.63-.31.63-.73,0-1.12,0h-.11c-.3,0-.43.12-.43.44V8.53c0,.16.05.31.24.31a1.51,1.51,0,0,0,.49-.21,8,8,0,0,1,1-.45c.24,0,.32.64.32.82a.38.38,0,0,1-.19.36c-.05,0-1.41.71-1.52.76-.8.36-1.6.73-2.42,1.07-.26.11-.29.13-.32.24s-.08.29-.23.29-.2-.15-.35-.47a5.53,5.53,0,0,1-.3-.86c0-.19.21-.21.35-.26a9.89,9.89,0,0,0,1.35-.48.55.55,0,0,0,.36-.59Zm9,4.61a10.48,10.48,0,0,1-2.66,3.69c-.17.16-.85.75-1,.75a.84.84,0,0,1-.63-.59c0-.16.24-.32.36-.42a9.77,9.77,0,0,0,2.89-3.31.4.4,0,0,0,0-.15c0-.19-.14-.22-.3-.24h-.3c-.31,0-.42,0-.58.29a9.51,9.51,0,0,1-3,3.17.71.71,0,0,1-.34.16.87.87,0,0,1-.61-.62c0-.16.26-.29.39-.37a9,9,0,0,0,2.43-2.29.25.25,0,0,0,.05-.15c0-.14-.13-.19-.24-.19h-.21a.64.64,0,0,0-.61.26,8.77,8.77,0,0,1-1.73,1.55,1.18,1.18,0,0,1-.52.27c-.23,0-.61-.43-.61-.65s.21-.29.37-.4a8.42,8.42,0,0,0,2.59-2.69.3.3,0,0,0,.05-.15c0-.17-.15-.22-.28-.22-.52,0-1,0-1.56,0-.34,0-.32-.25-.32-.57s0-.6.32-.6c.6,0,1.21,0,1.82,0h5.25c.61,0,1.22,0,1.83,0,.33,0,.33.23.33.6s0,.57-.33.57c-.61,0-1.22,0-1.83,0h-3.54a.4.4,0,0,0-.44.26.94.94,0,0,0-.18.41c0,.16.11.21.26.23h3.48c.39,0,.76,0,1.13,0s.68.24.68.74a16.35,16.35,0,0,1-.49,4c-.37,1.06-1.17,1.1-2.15,1.1-.67,0-.94,0-.94-1,0-.19,0-.34.24-.34l.24,0a4.77,4.77,0,0,0,.66.05c.39,0,.62,0,.78-.45a11.12,11.12,0,0,0,.37-2.63c0-.33-.16-.33-.63-.32A.39.39,0,0,0,216.26,10Zm1.62-5.65c0,.24,0,.47,0,.71,0,.53-.22.7-.73.7-.34,0-.66,0-1,0h-2.9c-.32,0-.64,0-1,0s-.75-.14-.75-.67c0-.24,0-.5,0-.74V2.05c0-.26,0-.5,0-.75,0-.52.27-.66.75-.66l1,0h2.9l1,0c.5,0,.75.13.75.67,0,.24,0,.48,0,.74Zm-1.62-1.61a.37.37,0,0,0,.38-.39V2a.37.37,0,0,0-.38-.38h-3.09a.37.37,0,0,0-.38.38v.32a.37.37,0,0,0,.38.39Zm-3.09.89a.37.37,0,0,0-.38.39v.33a.37.37,0,0,0,.38.4h3.09a.37.37,0,0,0,.38-.4V4a.37.37,0,0,0-.38-.39Z"/><path class="cls-1" d="M229,2a.33.33,0,0,0-.25.13,23.55,23.55,0,0,1-4.69,4.61,4.42,4.42,0,0,1-1.33.77c-.29,0-.77-.58-.77-.85s.29-.34.43-.42a17.37,17.37,0,0,0,4.72-4A12.69,12.69,0,0,0,228.45.29c.07-.11.13-.23.26-.23a6.2,6.2,0,0,1,1,.28c.14,0,.41.09.41.28A.22.22,0,0,1,230,.8c-.08,0-.13.1-.13.18a.14.14,0,0,0,0,.11,18.38,18.38,0,0,0,5.84,5.07c.29.18.45.27.45.43s-.34.93-.64.93A16.31,16.31,0,0,1,233,5.84a18.53,18.53,0,0,1-3.71-3.69A.35.35,0,0,0,229,2Zm-2.7,11.46c-.21,0-.32.08-.32.31V14c0,.38-.2.38-.68.38s-.67,0-.67-.38,0-.69,0-1V10c0-.28,0-.55,0-.82,0-.69.32-.86,1-.86h6.79c.64,0,1,.17,1,.84,0,.29,0,.56,0,.84v3c0,.33,0,.67,0,1s-.16.38-.69.38-.67,0-.67-.36a1.67,1.67,0,0,1,0-.32c0-.23-.1-.31-.32-.31Zm1.21-6.77c-.52,0-1,0-1.55,0-.34,0-.3-.35-.3-.67s0-.58.3-.58c.48,0,1,0,1.55,0h3c.51,0,1,0,1.54,0,.35,0,.32.36.32.69s0,.56-.32.56l-1.54,0Zm4.08,5.62a.45.45,0,0,0,.45-.45V10a.45.45,0,0,0-.45-.44h-5.2A.43.43,0,0,0,226,10v1.86a.44.44,0,0,0,.43.45Z"/><path class="cls-1" d="M244.84,1.46c.12,0,.4.09.4.27a.32.32,0,0,1-.13.22c-.27.23-.32.55-.4,1.11,0,.22-.07.48-.13.77a.47.47,0,0,0,0,.17.28.28,0,0,0,.29.29l.88,0c1.63,0,2.24,1,2.24,2.52a11.6,11.6,0,0,1-.93,4.86,3.14,3.14,0,0,1-2.9,1.68c-.32,0-.49,0-.65-.33a2.22,2.22,0,0,1-.26-.92c0-.11.05-.2.18-.2s.43.08.78.08a1.67,1.67,0,0,0,1.73-1.12,9.65,9.65,0,0,0,.72-3.68c0-.93-.07-1.69-1.19-1.69s-1.24.21-1.32.57a19.4,19.4,0,0,1-2.63,5.76,14.17,14.17,0,0,1-1.06,1.42.39.39,0,0,1-.27.15c-.24,0-1-.48-1-.79,0-.13.13-.25.23-.35a13.81,13.81,0,0,0,3-4.77,13.52,13.52,0,0,0,.4-1.3.18.18,0,0,0-.19-.19,16.42,16.42,0,0,0-2.23.67.64.64,0,0,1-.17.05c-.32,0-.6-1.18-.6-1.33s.26-.21.42-.22c.72-.07,2-.39,2.77-.53.5-.1.48-.29.54-.78A13.83,13.83,0,0,0,243.44,2a3.77,3.77,0,0,0,0-.58V1.38c0-.12,0-.21.16-.21S244.61,1.41,244.84,1.46Zm6.65,5.37c0,.28-.76.74-1.05.74s-.27-.17-.34-.32A11.25,11.25,0,0,0,248,3.89a.31.31,0,0,1-.14-.26c0-.24.69-.65.91-.65C249.35,3,251.49,6.43,251.49,6.83Zm-.72-4.72c.13.13.53.56.53.69s-.46.64-.67.64-.18-.11-.22-.17c-.37-.44-.74-.84-1.14-1.24-.05,0-.14-.12-.14-.2s.49-.6.67-.6S250.63,2,250.77,2.11Zm2-.41c0,.22-.48.65-.69.65s-.16-.11-.22-.17c-.37-.45-.71-.8-1.12-1.24,0,0-.15-.12-.15-.2s.5-.6.66-.6A6.62,6.62,0,0,1,252.79,1.7Z"/><path class="cls-1" d="M256.67,8.74c.2,0,.26.1.31.27a2.25,2.25,0,0,0,.54,1.17,3.76,3.76,0,0,0,2.79.86,20.48,20.48,0,0,0,4.86-.56l.18,0c.29,0,.3.51.3.93,0,.26,0,.51-.32.61a28.08,28.08,0,0,1-4.78.46c-1.63,0-3.41-.24-4.42-1.66a3.59,3.59,0,0,1-.58-1.44C255.55,9,256.66,8.74,256.67,8.74Zm1.17-6.15a10.11,10.11,0,0,0,3.09.42,13.86,13.86,0,0,0,2.59-.24.62.62,0,0,1,.2,0c.35,0,.33.63.33.93s0,.51-.33.56a19.31,19.31,0,0,1-2.42.13,14.5,14.5,0,0,1-4.07-.48.3.3,0,0,1-.22-.32,5.19,5.19,0,0,1,.14-.77c.05-.16.1-.3.29-.3A1.92,1.92,0,0,1,257.84,2.59Zm8.79.71c0,.21-.46.64-.67.64s-.19-.13-.35-.32a1.58,1.58,0,0,0-.12-.15c-.28-.32-.57-.62-.88-.93-.06-.06-.14-.14-.14-.22s.48-.59.65-.59A6.26,6.26,0,0,1,266.63,3.3Zm1.42-1.17c0,.21-.48.64-.68.64s-.16-.1-.23-.16A13.07,13.07,0,0,0,266,1.38c-.06-.07-.14-.15-.14-.23s.49-.57.65-.57A6.22,6.22,0,0,1,268.05,2.13Z"/><path class="cls-1" d="M276.28,1l1,1.85c.11.2.21.4.48.4a7.49,7.49,0,0,0,1.89-.92.91.91,0,0,1,.42-.2c.27,0,.75.78.75,1s-1.81,1-2.13,1.17-.37.11-.37.35a3,3,0,0,0,.39.78A17.8,17.8,0,0,0,281,9c.09.11.24.26.24.42,0,.33-.63.89-.93.89a1.34,1.34,0,0,1-.55-.29,7.71,7.71,0,0,0-3.92-1.39,1.74,1.74,0,0,0-1.92,1.62c0,1.77,2.5,2.18,3.84,2.18.39,0,.71-.05.9-.05s.32.14.32.38c0,1.14-.51,1-.69,1a12.22,12.22,0,0,1-2.62-.34c-1.59-.4-3.08-1.31-3.08-3.14a3,3,0,0,1,3.29-2.91,5.68,5.68,0,0,1,2.44.64.52.52,0,0,0,.2.06.13.13,0,0,0,.14-.12.76.76,0,0,0-.21-.37c-.48-.77-.89-1.49-1.33-2.26-.11-.19-.22-.32-.44-.32s-.24,0-.34.06a31.93,31.93,0,0,1-3.78.61c-.29,0-.33-.11-.45-.35a2.58,2.58,0,0,1-.22-.8c0-.22.18-.24.37-.24a19.67,19.67,0,0,0,3.41-.38c.16,0,.38-.1.38-.31a11.85,11.85,0,0,0-1.26-2.11.46.46,0,0,1-.13-.27c0-.26,1.07-.48,1.25-.48S276.2.85,276.28,1Zm6.45,1.57c0,.21-.53.6-.72.6s-.18-.12-.23-.2a15.88,15.88,0,0,0-1-1.31.3.3,0,0,1-.13-.22c0-.16.53-.53.7-.53A6.4,6.4,0,0,1,282.73,2.59ZM283.81,1a2.62,2.62,0,0,1,.48.71c0,.2-.51.59-.72.59s-.17-.11-.35-.37-.57-.77-.89-1.14c-.05-.05-.13-.14-.13-.21s.53-.54.7-.54S283.69.8,283.81,1Z"/><path class="cls-1" d="M288.83,3.43c.12,0,.31.08.31.22s-.07.16-.16.22-.21.39-.26.68a10.1,10.1,0,0,0-.11,1.55,9.84,9.84,0,0,0,.56,3.62c.22.52.83,1.55,1.47,1.55.47,0,1-.75,1.2-1.12.08-.15.21-.4.4-.4s.9.53.9.77-.9,1.29-1.14,1.55a1.77,1.77,0,0,1-1.34.7,2.91,2.91,0,0,1-2.24-1.53,10.23,10.23,0,0,1-1.19-5.53c0-.51,0-1.84.08-2.36,0-.15.07-.23.21-.23A9.87,9.87,0,0,1,288.83,3.43Zm6.79-.23a5.06,5.06,0,0,1,2.07,1.89,8.66,8.66,0,0,1,1.15,3.2,2.83,2.83,0,0,1,.05.5.33.33,0,0,1-.24.37,2.5,2.5,0,0,1-.77.14c-.47,0-.45-.21-.48-.51A6.11,6.11,0,0,0,295,4.23a.29.29,0,0,1-.13-.24A1.1,1.1,0,0,1,295.62,3.2Z"/><path class="cls-1" d="M308.53,1c.26,0,.53.05.53.23a.3.3,0,0,1-.1.22c-.08.11-.17.32-.17,1.28,0,.23.11.39.33.39l.37,0a20.79,20.79,0,0,0,2.63-.55,1.08,1.08,0,0,1,.27-.05c.32,0,.35.8.35,1s-.11.32-.56.41c-.83.18-1.78.29-2.62.4-.32,0-.74,0-.74.48,0,1.35.14,1.48.35,1.48a14.6,14.6,0,0,0,2.21-.43,1.19,1.19,0,0,1,.26,0c.24,0,.22.51.22.68,0,.55-.05.66-.32.73a19.73,19.73,0,0,1-2,.32c-.41,0-.6.06-.6.51,0,1.87.08,1.81.56,1.95a9,9,0,0,1,2.08.93c.22.13.77.42.77.69s-.47,1-.79,1c-.16,0-.33-.16-.46-.26a6.44,6.44,0,0,0-1.83-1c-.25,0-.27.27-.3.46-.23,1.35-1.62,1.78-2.82,1.78s-2.53-.56-2.53-2c0-1.56,1.78-2,3-2,.29,0,.73,0,.77,0,.3,0,.27-.32.27-.46,0-1.15,0-1.44-.39-1.44-.65,0-1.49,0-2.22,0-.43,0-.75,0-.87-.18a2.42,2.42,0,0,1-.2-.93c0-.18.06-.29.24-.29s1.13.1,1.88.1c1.14,0,1.46,0,1.46-.42,0-1.17-.09-1.5-.41-1.5-.53,0-2.1.09-3.62.09-.66,0-.77-.09-.77-1,0-.24,0-.41.27-.41s1.52.09,2.51.09c1.46,0,1.88,0,1.88-.41s-.1-1.4-.15-1.65a2,2,0,0,1,0-.24c0-.15.09-.18.22-.18S308.31,1,308.53,1Zm-3.66,10.6c0,.64.78.77,1.26.77.9,0,1.58-.27,1.58-1.28,0-.34-.41-.34-.86-.34S304.87,10.8,304.87,11.62Z"/><path class="cls-1" d="M322.55.58c.25,0,1.29,0,1.29.27a.21.21,0,0,1-.09.17.79.79,0,0,0-.23.6c0,.33,0,.8,0,1.15v.11a.41.41,0,0,0,.45.43l2.29-.11c.46,0,1.55-.08,2-.08s.34.18.34.69c0,.77-.21.74-.37.74s-1.22-.07-1.95-.07a22.72,22.72,0,0,0-2.43.11.51.51,0,0,0-.28.52c0,1.21,0,1.24.16,1.58a4.86,4.86,0,0,1,.48,2.19c0,2.58-1.69,5.33-2.3,5.33-.15,0-1.2-.3-1.2-.54s.26-.32.34-.4a5.5,5.5,0,0,0,1.36-2.1.12.12,0,0,0-.12-.11.35.35,0,0,0-.17.06,1.1,1.1,0,0,1-.52.12c-1.32,0-1.8-1.44-1.8-2.55,0-1.33.6-2.85,2.14-2.9.07,0,.29,0,.29-.19,0-.75-.06-.94-.37-.94s-4.19.41-4.77.51a.9.9,0,0,1-.22,0c-.28,0-.29-.18-.34-.39a3.67,3.67,0,0,1-.11-.81c0-.28.13-.29.58-.31,1.52-.05,3-.16,4.54-.24.34,0,.61-.09.61-.51a14.75,14.75,0,0,0-.18-2.1.57.57,0,0,1,0-.13.17.17,0,0,1,.19-.17A3.44,3.44,0,0,1,322.55.58Zm-1.59,8c0,.58.16,1.47.9,1.47s1-.83,1-1.42-.19-1.58-.93-1.58S321,8.05,321,8.61Z"/><path class="cls-1" d="M335.47,11.7a2.19,2.19,0,1,1-2.19-2.19A2.19,2.19,0,0,1,335.47,11.7Zm-3.66,0a1.47,1.47,0,1,0,1.47-1.47A1.46,1.46,0,0,0,331.81,11.7Z"/><path class="cls-1" d="M.51,37.05,0,36.53l5.2-5.18L0,26.16l.51-.51,5.19,5.2,5.18-5.2.52.51L6.19,31.35l5.21,5.18-.52.52L5.7,31.84Zm2.16-5.7A1.34,1.34,0,1,1,1.34,30,1.34,1.34,0,0,1,2.67,31.35ZM7,27A1.33,1.33,0,1,1,5.7,25.65,1.34,1.34,0,0,1,7,27ZM7,35.7A1.33,1.33,0,1,1,5.7,34.37,1.33,1.33,0,0,1,7,35.7Zm4.37-4.35A1.34,1.34,0,1,1,10.05,30,1.35,1.35,0,0,1,11.4,31.35Z"/><path class="cls-1" d="M27.12,30.43a.38.38,0,0,0-.44-.44h-2.2c-.3,0-.43.12-.43.44v.76c0,.41.23.45.58.45h.49c.56,0,.58-.12.71-.68.06-.24.09-.3.29-.3s.88.06.88.45a2.5,2.5,0,0,1-.44,1.23c-.32.37-1,.34-1.42.34h-.75c-.87,0-1.56,0-1.56-.92V30.43c0-.3-.12-.44-.44-.44H18c-.32,0-.45.14-.45.44V36c0,.65,0,1.29,0,1.93,0,.41-.11.48-.67.48s-.67,0-.67-.47c0-.65,0-1.29,0-1.94V30.74c0-.4,0-.78,0-1.19,0-.59.28-.68.81-.68h2.21c.16,0,.29-.06.29-.24a.7.7,0,0,0,0-.14c-.15-.31-.36-.67-.53-1a.79.79,0,0,1-.1-.27c0-.08.07-.14.13-.19s.06-.08.06-.13a.11.11,0,0,0-.12-.11H17.57c-.63,0-1.25,0-1.87,0-.34,0-.36-.16-.36-.59s0-.59.36-.59c.62,0,1.24,0,1.87,0h3.66c.31,0,.4-.12.44-.4a3.77,3.77,0,0,0-.05-.82s0-.1,0-.13.13-.21.27-.21.95.08,1.2.1.32,0,.32.18-.08.12-.2.2-.2.29-.2.68.15.4.44.4h3.71l1.87,0c.34,0,.36.14.36.59s0,.59-.36.59l-1.87,0H25.46a.05.05,0,0,0-.06.06s0,.05,0,.07c.44.17.84.3.84.48s-.12.16-.29.19-.18.05-.24.14-.23.45-.4.75a.3.3,0,0,0-.05.16c0,.16.13.21.27.21h2c.52,0,.81.08.81.67,0,.4,0,.78,0,1.17v5.1c0,.36,0,.69,0,1,0,1.28-.59,1.55-2.13,1.55-.48,0-1,0-1-1,0-.19.05-.34.27-.34s.74,0,1.11,0,.44-.41.44-.89Zm-5.58.37c-.13.05-.16.07-.26.23a6,6,0,0,1-2.64,2.4c-.29,0-.77-.4-.77-.66s.19-.24.32-.3a6.17,6.17,0,0,0,1.59-1.22,3.15,3.15,0,0,0,.59-1c0-.08.06-.18.19-.18s1.17.37,1.17.55S21.62,30.79,21.54,30.8ZM25,36.31c0,.5-.29.59-.72.59H21.44c-.3,0-.57,0-.59.38s-.08.32-.62.32-.6,0-.6-.32V34.52c0-.2,0-.39,0-.58,0-.46.32-.56.72-.56l1,0H23.3l1,0c.41,0,.73.08.73.58v2.35Zm-.34-9.24c0-.19-.14-.24-.3-.25h-4c-.14,0-.24.05-.24.21a.25.25,0,0,0,0,.14s.07.13.12.21a5,5,0,0,1,.51,1.17c0,.11-.08.14-.08.22s.08.11.14.11h2.45a.61.61,0,0,0,.66-.35,12.58,12.58,0,0,0,.65-1.33A.31.31,0,0,0,24.67,27.07Zm-3.82,8.38a.4.4,0,0,0,.45.44h2.05a.4.4,0,0,0,.43-.44v-.63a.39.39,0,0,0-.43-.43H21.3a.4.4,0,0,0-.45.43Z"/><path class="cls-1" d="M36.93,37.77c0-.26-.11-.37-.37-.37H34.42c-.26,0-.37.09-.37.37v.3c0,.35-.15.37-.67.37s-.68,0-.68-.37,0-.85,0-1.26V33.6c0-.33,0-.67,0-1,0-.55.18-.76.72-.76l.93,0h2.24l.92,0c.51,0,.73.18.73.71,0,.35,0,.7,0,1.05v3.21c0,.41,0,.83,0,1.26s-.16.37-.65.37-.66,0-.66-.34Zm-.42-1.51a.44.44,0,0,0,.44-.45V33.49c0-.27-.18-.41-.44-.45h-2c-.27,0-.43.18-.43.45v2.32a.43.43,0,0,0,.43.45Zm.69-5.92c-.38,0-.48,0-.56.24s-.48.14-.61.14c-.48,0-.67,0-.67-.4s0-.7,0-1.05V26.51c0-.28,0-.57,0-.86,0-.56.31-.66.91-.66l.88,0h3.72l.88,0c.61,0,.93.1.93.66,0,.29,0,.58,0,.86v2.76c0,.35,0,.69,0,1s-.2.41-.68.41-.59,0-.67-.22-.37-.18-.51-.16Zm-.51-1.59a.4.4,0,0,0,.43.44H40.9a.43.43,0,0,0,.45-.44V26.61a.43.43,0,0,0-.45-.45H37.12a.43.43,0,0,0-.43.45Zm7.3,9c0-.28-.11-.37-.37-.37H41.28c-.25,0-.36.09-.36.37v.3c0,.35-.15.37-.68.37s-.67,0-.67-.37,0-.85,0-1.26V33.6c0-.33,0-.67,0-1,0-.55.18-.76.72-.76l.93,0h2.46l.92,0c.56,0,.73.2.73.76,0,.33,0,.67,0,1v3.21c0,.41,0,.84,0,1.26s-.16.37-.67.37-.67,0-.67-.37Zm-.42-1.51a.41.41,0,0,0,.43-.45V33.49a.43.43,0,0,0-.43-.45H41.35c-.27,0-.45.18-.45.45v2.32a.45.45,0,0,0,.45.45Z"/><path class="cls-1" d="M49.12,32.12c0-.18.14-.24.32-.34s1.25-.8,1.6-1c.19-.12.42-.25.42-.51a1.11,1.11,0,0,0-.16-.45A11.72,11.72,0,0,0,50.21,28c-.05-.06-.15-.16-.15-.25s.45-.32.82-.44a6.16,6.16,0,0,1,.77-.24c.1,0,.18.05.18.16a.42.42,0,0,1,0,.16s0,.08,0,.12a10.46,10.46,0,0,0,.7,1.71c.08.16.16.32.35.32a.74.74,0,0,0,.39-.15,10.16,10.16,0,0,1,5.06-1.88,2.62,2.62,0,0,1,2.93,2.65c0,2.12-2,3.08-3.78,3.52a2.9,2.9,0,0,1-.6.12c-.36,0-.71-.85-.71-1s.3-.24.52-.29c1.2-.21,3.2-.77,3.2-2.29,0-1-.76-1.44-1.68-1.44-1.41,0-3.23,1.09-4.43,1.81-.16.09-.32.19-.32.4a45.06,45.06,0,0,0,2.9,5.15,1.92,1.92,0,0,1,.32.64c0,.27-.85.69-1.14.69s-.27-.22-.43-.53c-.85-1.61-1.73-3.18-2.58-4.82-.08-.16-.17-.36-.4-.36A9.58,9.58,0,0,0,50.24,33a.65.65,0,0,1-.32.18C49.66,33.22,49.12,32.42,49.12,32.12Zm6.42-6c.43.17.88.33.88.57s-.27.93-.59.93a3,3,0,0,1-.74-.27,12.33,12.33,0,0,0-1.52-.51c-.22-.07-.4-.08-.4-.29s.29-1,.59-1A12,12,0,0,1,55.54,26.07Z"/><path class="cls-1" d="M66.56,35.62c-.18.05-.19.06-.29.27a23.29,23.29,0,0,1-1,2.2.38.38,0,0,1-.31.22c-.21,0-.91-.26-.91-.5a.48.48,0,0,1,.11-.24,12.89,12.89,0,0,0,1.2-2.48c0-.09,0-.16.16-.16a4.33,4.33,0,0,1,.56.16c.58.2.71.21.71.37S66.64,35.6,66.56,35.62Zm2.59-2.91c0,.35,0,.7,0,1s0,.84-.62.84l-.69,0H66l-.69,0c-.52,0-.62-.28-.62-.74s0-.77,0-1.15V26.46c0-.36,0-.73,0-1.1s.06-.78.61-.78h3.23c.56,0,.61.32.61.8s0,.72,0,1.08Zm-2.77-6.95a.43.43,0,0,0-.44.43v.87a.44.44,0,0,0,.44.45h1.16a.44.44,0,0,0,.43-.45v-.85a.43.43,0,0,0-.43-.45Zm0,2.85a.43.43,0,0,0-.44.45v.88a.43.43,0,0,0,.44.43h1.16a.43.43,0,0,0,.43-.43v-.88a.46.46,0,0,0-.43-.45Zm0,2.88a.45.45,0,0,0-.44.45v1a.42.42,0,0,0,.44.43h1.14A.41.41,0,0,0,68,33v-1a.45.45,0,0,0-.45-.45Zm2.79,5.91a.07.07,0,0,0-.08-.08l-.08,0a1.56,1.56,0,0,1-.43.13c-.26,0-.47-.51-.58-.77a11,11,0,0,1-.56-1.34c0-.26.71-.44.83-.44s.26.19.32.36c.2.43.42.86.64,1.28.07.06.12.12.21.12s.15-.08.19-.16a17.38,17.38,0,0,0,1.22-7.07V26.83c0-.45,0-.89,0-1.34,0-.63.28-.75.85-.75s.93,0,1.4,0h3c.62,0,1.26-.05,1.89-.05.33,0,.33.14.33.64s0,.64-.33.64c-.63,0-1.27-.05-1.89-.05H72.56c-.32,0-.44.15-.44.45v1.86c0,.3.12.43.44.43h4.15a.76.76,0,0,1,.72.29,1,1,0,0,1,.26.61,5.35,5.35,0,0,1-.16,1A13.69,13.69,0,0,1,76,34.47a.53.53,0,0,0-.1.32.56.56,0,0,0,.13.35,15.7,15.7,0,0,0,2.24,2.15c.13.11.29.2.29.35a1.09,1.09,0,0,1-.77.78c-.49,0-2.13-1.79-2.49-2.24a.41.41,0,0,0-.26-.13.46.46,0,0,0-.27.13,11.85,11.85,0,0,1-2.34,2,1.26,1.26,0,0,1-.5.23c-.27,0-.75-.53-.75-.77s.35-.37.5-.46A10.73,10.73,0,0,0,74,35.16a.58.58,0,0,0,.16-.37.68.68,0,0,0-.11-.34,11.74,11.74,0,0,1-1.46-4.16.45.45,0,0,0-.25-.4.37.37,0,0,0-.26.4,17.93,17.93,0,0,1-1,6.08,10.91,10.91,0,0,1-.9,1.81.22.22,0,0,1-.19.1c-.23,0-.9-.4-.9-.66a.31.31,0,0,1,.08-.19Zm5-7.54c-.22,0-.41.1-.41.33v.1a9,9,0,0,0,1,3.07.27.27,0,0,0,.21.13.24.24,0,0,0,.21-.14,12.38,12.38,0,0,0,1-2.82,2,2,0,0,0,.06-.43c0-.22-.16-.24-.45-.24Z"/><path class="cls-1" d="M86.42,33A5.13,5.13,0,0,1,84,37.37a7.74,7.74,0,0,1-2.32,1c-.37,0-.75-.64-.75-.87s.22-.21.4-.27c2.4-.77,3.86-2,3.86-4.67v-.1c0-.19,0-.34.25-.34a6.57,6.57,0,0,1,1,.15c.12,0,.42,0,.42.19s-.19.21-.27.27S86.45,32.88,86.42,33Zm2.08-7.62c0,.31.16.41.45.41h3.49c.62,0,1.25,0,1.87,0,.35,0,.35.16.35.61s0,.61-.35.61c-.62,0-1.25-.05-1.87-.05H88.88a.34.34,0,0,0-.38.39v.56a.33.33,0,0,0,.38.38h2.47c.56,0,1.1,0,1.66,0,.32,0,.32.17.32.59s0,.61-.32.61c-.56,0-1.1,0-1.66,0h-7c-.56,0-1.12,0-1.67,0-.32,0-.32-.15-.32-.61s0-.59.31-.59l1.68,0H86.8c.27,0,.39-.11.39-.38v-.56A.34.34,0,0,0,86.8,27H83.31c-.62,0-1.25.05-1.87.05-.34,0-.34-.16-.34-.61s0-.61.34-.61c.62,0,1.25,0,1.87,0h3.43c.32,0,.41-.12.45-.42s0-.59-.07-.87c0,0,0-.11,0-.16s.14-.19.27-.19l.64,0c.51.05.88.05.88.26s-.1.14-.21.22-.19.28-.19.56ZM83.15,31.7c-.3,0-.43.13-.43.43v.55c0,.2,0,.4,0,.6s-.22.34-.69.34-.68,0-.68-.35,0-.4,0-.59V32c0-.32,0-.54,0-.75,0-.61.43-.69.93-.69l1.55,0H91.8l1.52,0c.51,0,1,0,1,.69,0,.22,0,.46,0,.75v.72c0,.16,0,.42,0,.59s-.17.36-.68.36-.68,0-.68-.32,0-.45,0-.61v-.58c0-.3-.14-.43-.44-.43ZM92.23,37c.51,0,.93,0,1.15-1.44.05-.26.05-.43.32-.43a2.44,2.44,0,0,1,.75.19c.15.06.21.11.21.29a4.92,4.92,0,0,1-.59,1.93c-.4.68-.91.68-1.62.68h-2.3c-.79,0-1.46-.2-1.46-1.11,0-.27,0-.54,0-.81V33.78a7.12,7.12,0,0,0,0-1.22s0-.11,0-.16.11-.19.24-.19.9.07,1.12.1.38,0,.38.17-.09.16-.17.21c-.23.18-.21.59-.21,1.09v2.5c0,.59.19.67.8.67Z"/><path class="cls-1" d="M103.39,26.67c.32,0,.45-.13.45-.44v-.56a6.82,6.82,0,0,0-.06-1.11.55.55,0,0,1,0-.18c0-.17.11-.2.27-.2.34,0,.66,0,1,.06s.57.05.57.22-.13.18-.24.24-.21.29-.21,1.41v.12c0,.31.13.44.45.44h3.67l1.87,0c.34,0,.34.16.34.64s0,.66-.34.66c-.62,0-1.25-.05-1.87-.05h-4.71s-.08,0-.08,0,0,0,.07,0,.14.06.14.16-.14.19-.27.27a.3.3,0,0,0-.13.27c0,.44,0,.85-.05,1.29,0,.28.11.41.4.41h3.56c.36,0,.73,0,1.1,0,.67,0,.75.4.75.86a18.41,18.41,0,0,1-1.18,6.15c-.53,1.06-1.6,1.07-2.63,1.07-.73,0-1.2.07-1.2-.93,0-.24,0-.44.32-.44s.39,0,.55,0a3,3,0,0,0,.43,0,1.47,1.47,0,0,0,1.47-.63,14.37,14.37,0,0,0,.87-4.48c0-.43-.13-.42-.84-.42h-3.37a.46.46,0,0,0-.53.42,9.66,9.66,0,0,1-3.32,5.22,4.88,4.88,0,0,1-1.79,1c-.35,0-.78-.55-.78-.9,0-.17.14-.22.4-.35,3.41-1.73,4.54-4.87,4.54-8.5v-.22c0-.31-.16-.39-.44-.42H99.79c-.62,0-1.23.05-1.85.05-.36,0-.36-.16-.36-.66s0-.64.36-.64c.62,0,1.23,0,1.85,0Z"/><path class="cls-1" d="M116.59,30.58a.47.47,0,0,1-.3-.16c-.61-.48-1.25-.93-1.89-1.36-.14-.1-.3-.18-.3-.32s.41-.8.65-.8a6.31,6.31,0,0,1,1.54,1c.33.24,1,.7,1,.89S116.88,30.58,116.59,30.58Zm1.48,2.1a1.58,1.58,0,0,1-.18.43c-.72,1.41-1.44,2.73-2.29,4.08a1,1,0,0,0-.18.42c0,.09,0,.22,0,.32a.18.18,0,0,1-.17.2,3,3,0,0,1-.74-.51c-.1-.09-.45-.32-.45-.46a.61.61,0,0,1,.19-.34A30,30,0,0,0,117,32.18c.06-.16.11-.21.21-.21S118.07,32.39,118.07,32.68ZM117.31,27c-.14,0-.25-.12-.41-.23-.61-.46-1.15-.85-1.8-1.26-.16-.12-.27-.16-.27-.32s.4-.79.67-.79a5.54,5.54,0,0,1,1.24.75c.22.16,1,.71,1.15.85a.38.38,0,0,1,.11.23C118,26.42,117.6,27,117.31,27Zm8.33,8.59a.31.31,0,0,0,0-.17c-.26-.49-.56-1-.85-1.43a.7.7,0,0,1-.14-.32c0-.26.72-.53.92-.53a.34.34,0,0,1,.28.18,13.18,13.18,0,0,1,1,1.58,19,19,0,0,1,1.34,3c0,.29-.7.56-.94.56s-.29-.17-.5-.68c-.06-.16-.12-.32-.22-.53a.47.47,0,0,0-.47-.32h-.09c-2.4.31-4.8.52-7.2.71-.1,0-.12,0-.18.17s-.11.21-.24.21-.22-.21-.32-.54a5.85,5.85,0,0,1-.21-.85c0-.24.16-.21.91-.22l.5,0a.62.62,0,0,0,.58-.39c.64-1.16,1.21-2.38,1.77-3.6a.35.35,0,0,0,0-.16c0-.17-.12-.25-.28-.25h-1c-.62,0-1.23,0-1.85,0-.36,0-.37-.14-.37-.61s0-.61.37-.61c.62,0,1.23,0,1.85,0H122c.31,0,.45-.12.45-.44V28.64c0-.3-.14-.43-.45-.43h-1.21c-.58,0-1.17,0-1.76,0-.32,0-.34-.16-.34-.61s0-.64.34-.64c.51,0,1.16.05,1.76.05H122c.31,0,.45-.13.45-.45v-.76a9.14,9.14,0,0,0-.06-1.29.41.41,0,0,1,0-.16c0-.17.13-.2.27-.2s.93.08,1.16.09.35,0,.35.21-.1.14-.23.24-.19.34-.19.85v1c0,.32.15.45.45.45h1.46c.61,0,1.25-.05,1.77-.05.31,0,.32.16.32.63s0,.62-.32.62l-1.77,0h-1.46c-.3,0-.45.13-.45.43v1.75c0,.32.15.44.45.44H126c.62,0,1.23,0,1.86,0,.36,0,.36.16.36.61s0,.61-.36.61c-.63,0-1.24,0-1.86,0h-3s-.06,0-.06.05,0,0,0,0,.37.18.37.32-.16.15-.23.15-.24,0-.29.14c-.57,1.15-1,2.07-1.66,3.2a.21.21,0,0,0,0,.13.22.22,0,0,0,.25.23c1.35-.08,2.68-.21,4-.37C125.51,35.86,125.64,35.78,125.64,35.62Z"/><path class="cls-1" d="M134.77,26.13c.1.05.22.11.22.24s-.08.13-.22.21-.32.29-.48.69a12.36,12.36,0,0,0-.88,4.62c0,.37.11,2.69.53,2.69.13,0,.22-.19.37-.53,0-.08.08-.16.11-.24.14-.3.24-.45.37-.45s.44.23.44.37a15.13,15.13,0,0,0-.61,2.34c0,.13,0,.42,0,.54a.82.82,0,0,1,0,.21c0,.31-.77.66-1,.66s-.5-.51-.63-.79a10.74,10.74,0,0,1-1-4.81,18.55,18.55,0,0,1,.85-5.27,6.41,6.41,0,0,0,.21-.75c0-.13.06-.31.2-.31a12,12,0,0,1,1.22.48Zm2,7.81a2.88,2.88,0,0,0,2.54,1.14,12,12,0,0,0,3.51-.52,1.28,1.28,0,0,1,.32-.06c.21,0,.24.24.24.85,0,.18,0,.54-.16.64a18.3,18.3,0,0,1-3.73.46c-2.61,0-3.63-1.37-3.63-1.57s.43-1.1.7-1.1C136.71,33.78,136.77,33.88,136.82,33.94Zm.62-7.06a9.44,9.44,0,0,0,2.12.24,10.52,10.52,0,0,0,2.44-.3,1.47,1.47,0,0,1,.29-.05c.32,0,.31.7.31.93s0,.41-.15.48a15.33,15.33,0,0,1-2.78.27,11.12,11.12,0,0,1-2.71-.32c-.17-.1-.16-.37-.16-.54,0-.47,0-.79.29-.79A1.37,1.37,0,0,1,137.44,26.88Z"/><path class="cls-1" d="M148.54,35.56c0,.75,0,1.52,0,2.27,0,.51-.12.59-.67.59s-.66-.08-.66-.59c0-.75,0-1.52,0-2.27V26.8c0-.46,0-.93,0-1.39,0-.64.26-.79.85-.79.35,0,.71,0,1.06,0H151c.34,0,.69,0,1,0,.59,0,.87.13.87.77,0,.44,0,.87,0,1.3V27c0,.43,0,.85,0,1.27,0,.64-.23.8-.85.8-.36,0-.71,0-1.06,0h-2c-.32,0-.45.15-.45.45Zm.33-9.89a.31.31,0,0,0-.33.33v.11a.32.32,0,0,0,.33.34h2.46a.32.32,0,0,0,.32-.34V26a.31.31,0,0,0-.32-.33Zm0,1.6a.31.31,0,0,0-.33.33v.15a.31.31,0,0,0,.33.32h2.46a.3.3,0,0,0,.32-.32V27.6a.31.31,0,0,0-.32-.33Zm4.88,4.14a.62.62,0,0,0,.65-.33,14.32,14.32,0,0,0,.9-1.51c0-.08.08-.18.16-.18s1.23.44,1.23.68-.13.14-.25.16a.26.26,0,0,0-.23.11l-.48.72a.3.3,0,0,0,0,.14c0,.15.1.2.23.21l1,0c.32,0,.32.21.32.53s0,.53-.32.53-.88,0-1.33,0h-1.07a.34.34,0,0,0-.39.39V33c0,.32.13.45.45.45H156c.48,0,1,0,1.46,0,.32,0,.32.22.32.54s0,.53-.32.53l-1.46,0h-1.13c-.13,0-.24.05-.24.2a.23.23,0,0,0,0,.14,5.88,5.88,0,0,0,2.4,1.75c.24.11.36.16.37.36s0,.16.13.18a5.22,5.22,0,0,0,.58,0c.86,0,.78-.45.78-.9V29.52c0-.3-.13-.45-.45-.45h-1.93c-.36,0-.71,0-1.06,0-.58,0-.86-.13-.86-.77,0-.43,0-.87,0-1.3v-.35c0-.42,0-.83,0-1.25,0-.64.22-.82.84-.82.36,0,.71,0,1.08,0h1.74c.35,0,.7,0,1.06,0,.59,0,.86.15.86.79,0,.46,0,.93,0,1.39v8.53c0,.45,0,.92,0,1.36,0,1.12-.32,1.7-2.16,1.7-.62,0-.77,0-.88-.54a.22.22,0,0,0-.24-.18.22.22,0,0,0-.11,0h-.08a6.31,6.31,0,0,1-2.88-2.16.29.29,0,0,0-.24-.13.29.29,0,0,0-.24.15,6.25,6.25,0,0,1-2.92,2.09,1.79,1.79,0,0,1-.59.16c-.43,0-.69-.62-.69-.81s.21-.26.45-.32a4.86,4.86,0,0,0,2.85-1.83.39.39,0,0,0,.05-.14c0-.18-.15-.23-.29-.23h-1l-1.46,0c-.32,0-.3-.19-.3-.53s0-.54.3-.54c.5,0,1,0,1.46,0h1.3c.28,0,.4-.11.4-.38v-.29a.34.34,0,0,0-.39-.39h-1c-.45,0-.93,0-1.32,0s-.32-.23-.32-.53,0-.53.32-.53l1.08,0c.14,0,.27-.06.27-.22a.3.3,0,0,0-.05-.16c0-.07-.13-.2-.22-.36a5.7,5.7,0,0,1-.5-.84c0-.24.64-.48.85-.48s.37.27.85,1.12a2.72,2.72,0,0,1,.32.7c0,.1,0,.23.16.24ZM158.9,26a.31.31,0,0,0-.32-.33h-2.4a.31.31,0,0,0-.32.33v.11a.32.32,0,0,0,.32.34h2.4a.32.32,0,0,0,.32-.34Zm-2.72,1.27a.31.31,0,0,0-.32.33v.15a.3.3,0,0,0,.32.32h2.4a.3.3,0,0,0,.32-.32V27.6a.31.31,0,0,0-.32-.33Z"/><path class="cls-1" d="M169.56,24.58c.25,0,1.29,0,1.29.27a.24.24,0,0,1-.09.17.79.79,0,0,0-.23.6c0,.33,0,.8,0,1.15v.11a.41.41,0,0,0,.44.43l2.29-.11c.47,0,1.56-.08,2-.08s.34.18.34.69c0,.77-.21.74-.37.74s-1.22-.07-1.95-.07a22.91,22.91,0,0,0-2.44.11.52.52,0,0,0-.27.52c0,1.21,0,1.24.16,1.58a4.86,4.86,0,0,1,.48,2.19c0,2.58-1.69,5.33-2.3,5.33-.15,0-1.2-.3-1.2-.54s.25-.32.33-.4a5.38,5.38,0,0,0,1.36-2.1.11.11,0,0,0-.11-.11.32.32,0,0,0-.17.06,1.1,1.1,0,0,1-.52.12c-1.33,0-1.81-1.44-1.81-2.55,0-1.33.61-2.85,2.15-2.9.06,0,.29,0,.29-.19,0-.75-.07-.94-.37-.94s-4.2.41-4.77.51a.9.9,0,0,1-.22,0c-.28,0-.29-.18-.34-.39a3.16,3.16,0,0,1-.11-.81c0-.28.12-.29.57-.31,1.52-.05,3-.16,4.55-.24.33,0,.61-.09.61-.51a14.75,14.75,0,0,0-.18-2.1.57.57,0,0,1,0-.13.17.17,0,0,1,.19-.17Zm-1.59,8c0,.58.16,1.47.9,1.47s1-.83,1-1.42-.19-1.58-.93-1.58S168,32.05,168,32.61Z"/><path class="cls-1" d="M187.06,26.75c0,.1-.22.23-.3.28a19.15,19.15,0,0,0-2.66,2.52.44.44,0,0,0-.11.24.18.18,0,0,0,.19.17l.27-.05a3.61,3.61,0,0,1,.91-.12c2,0,3.89,1.24,3.89,3.43,0,2.72-2.45,4.18-4.94,4.18a3.77,3.77,0,0,1-2.29-.64,1.78,1.78,0,0,1-.77-1.41,1.85,1.85,0,0,1,1.9-1.78c1,0,2.31.8,2.31,1.92a2,2,0,0,1-.06.4.15.15,0,0,0,.16.16,3,3,0,0,0,2.32-2.77c0-1.63-1.41-2.3-2.87-2.3a4.94,4.94,0,0,0-3.62,1.54c-.59.57-1.15,1.2-1.69,1.82-.1.11-.16.21-.26.21-.32,0-.93-.69-.93-.91s.21-.32.32-.44a78.28,78.28,0,0,0,5.57-5.66c.08-.1.19-.19.19-.34s-.11-.17-.22-.17-.22,0-.3,0c-1,.24-2,.42-3,.61a2.57,2.57,0,0,1-.4.07c-.35,0-.38-.9-.38-1.16s.08-.4.53-.4h.28a15.66,15.66,0,0,0,4-.59,2.09,2.09,0,0,1,.56-.14C186.28,25.46,187.06,26.5,187.06,26.75Zm-3.87,7.88a.75.75,0,0,0-.79.72c0,.65.88,1,1.43,1,.32,0,.44-.37.44-.65A1.06,1.06,0,0,0,183.19,34.63Z"/><path class="cls-1" d="M194.38,28c-.46,0-.92,0-1.39,0s-.37-.16-.37-.56,0-.56.37-.56.93,0,1.39,0h2.33c.46,0,.92,0,1.39,0s.35.17.35.56,0,.56-.37.56-.93,0-1.37,0Zm2.28,9.93c0-.23-.11-.31-.32-.31h-1.49c-.21,0-.32.08-.32.31v.21c0,.35-.1.38-.61.38s-.61,0-.61-.35,0-.71,0-1V34c0-.51.19-.7.7-.7l.72,0h1.68l.72,0c.5,0,.72.19.72.7,0,.29,0,.58,0,.87v2.21c0,.33,0,.69,0,1s-.12.35-.6.35-.61,0-.61-.32Zm-1.83-12.12c-.4,0-.8,0-1,0s-.34-.19-.34-.54,0-.55.34-.55c.19,0,.64,0,1,0h1.6c.39,0,.85,0,1,0,.34,0,.32.21.32.55s0,.54-.33.54-.61,0-1,0Zm.13,6.45c-.42,0-.82,0-1.13,0s-.34-.17-.34-.54,0-.54.34-.54.68,0,1.13,0h1.31c.44,0,.87,0,1.12,0s.34.19.34.54,0,.54-.34.54-.7,0-1.12,0Zm-.08-2.13c-.4,0-.77,0-1,0s-.34-.17-.34-.54,0-.54.34-.54.65,0,1,0h1.46c.38,0,.77,0,1,0s.34.19.34.54,0,.54-.34.54-.67,0-1,0Zm1.35,6.47a.42.42,0,0,0,.44-.45V34.8a.41.41,0,0,0-.44-.44H195a.43.43,0,0,0-.45.44v1.3a.43.43,0,0,0,.45.45Zm6.32-9.12a.61.61,0,0,0,.65-.36,19.38,19.38,0,0,0,1.27-2.64c.08-.21.08-.25.18-.25a7.78,7.78,0,0,1,1,.43c.19.09.26.14.26.24s-.1.13-.19.14-.23.05-.29.18c-.31.66-.63,1.28-1,1.89a.22.22,0,0,0-.05.16.21.21,0,0,0,.24.21c.46,0,.93,0,1.39,0s.38.18.38.61,0,.61-.36.61c-.61,0-1.22,0-1.83,0h-.69c-.3,0-.45.13-.45.45v.91c0,.32.15.45.45.45h.35c.53,0,1,0,1.57,0,.34,0,.34.2.34.61s0,.61-.34.61c-.53,0-1-.05-1.57-.05h-.35a.4.4,0,0,0-.45.45v1c0,.32.15.44.45.44H205c.53,0,1.09,0,1.48,0s.32.21.32.61,0,.61-.32.61c-.5,0-1,0-1.48,0h-1.39c-.3,0-.45.12-.45.43v.67c0,.72,0,1.44,0,2.16,0,.5-.13.56-.69.56s-.67-.06-.67-.57c0-.72,0-1.43,0-2.15V35c0-.31-.12-.43-.44-.43h-1.22c-.5,0-1,0-1.49,0-.32,0-.32-.23-.32-.61s0-.61.34-.61.94,0,1.47,0h1.22c.32,0,.44-.12.44-.44V32c0-.3-.12-.45-.44-.45h-.31c-.51,0-1,.05-1.54.05-.35,0-.35-.22-.35-.62s0-.6.35-.6c.52,0,1,0,1.54,0h.31c.32,0,.44-.13.44-.45V29c0-.32-.12-.45-.44-.45h-.34c-.61,0-1.2,0-1.81,0-.38,0-.38-.16-.38-.61s0-.61.38-.61c.61,0,1.2,0,1.81,0ZM201,27.17c-.21,0-.27-.14-.34-.3a14.58,14.58,0,0,0-1-2,.47.47,0,0,1-.11-.27c0-.27.65-.53.83-.53s.5.51.9,1.25a6.83,6.83,0,0,1,.57,1.33C201.81,27,201.19,27.17,201,27.17Z"/><path class="cls-1" d="M211.06,33.72c-.15,0-.16.11-.2.25a26.22,26.22,0,0,1-.72,3.25c0,.19-.11.32-.33.32s-.79-.13-.79-.37a1.11,1.11,0,0,1,.08-.3,18.22,18.22,0,0,0,.74-3.35c0-.17,0-.38.21-.38s1.17.19,1.17.4S211.12,33.68,211.06,33.72ZM210.32,27c.1,0,.14-.05.19-.13a19.64,19.64,0,0,0,1.16-2.51c0-.11.06-.26.19-.26s1.21.45,1.21.66-.14.14-.27.17-.16,0-.21.15c-.38.88-.83,1.66-1.29,2.51a.4.4,0,0,0-.07.21.43.43,0,0,0,.13.26l.35.36a.35.35,0,0,0,.24.12.31.31,0,0,0,.27-.18c.34-.61.71-1.22,1-1.86.05-.09.09-.22.21-.22a2,2,0,0,1,.72.33c.12.09.52.26.52.41s-.17.14-.2.14-.23,0-.31.16A35.9,35.9,0,0,1,212,30.74a.24.24,0,0,0-.05.13c0,.13.11.17.21.17l1.31-.12a.27.27,0,0,0,.26-.25.89.89,0,0,0,0-.14,2,2,0,0,1-.23-.57c0-.25.51-.42.71-.42s.36.22.8,1.39a9.37,9.37,0,0,1,.43,1.41c0,.26-.5.43-.71.43s-.33-.32-.4-.56A.3.3,0,0,0,214,32h-.08c-.19,0-.4,0-.61.08a.43.43,0,0,0-.41.49v3.23c0,.68,0,1.35,0,2s-.11.59-.64.59-.64,0-.64-.58,0-1.34,0-2V32.68c0-.24-.1-.4-.35-.4h-.07l-1.28.11c-.13,0-.14.08-.21.21a.2.2,0,0,1-.17.11c-.18,0-.19-.16-.34-.71a2.58,2.58,0,0,1-.13-.6c0-.2.15-.2.45-.2a5.07,5.07,0,0,0,.55,0,.69.69,0,0,0,.56-.3l.49-.77a.48.48,0,0,0,.1-.31.46.46,0,0,0-.16-.33,21.51,21.51,0,0,0-1.84-1.73.33.33,0,0,1-.16-.26c0-.19.3-.83.61-.83.12,0,.35.23.44.31A.26.26,0,0,0,210.32,27Zm4.24,9.27c-.24,0-.29-.18-.37-.42,0,0,0-.1,0-.16-.2-.64-.42-1.26-.66-1.89a.63.63,0,0,1,0-.19c0-.27.49-.4.69-.4s.38.37.7,1.25a7.48,7.48,0,0,1,.4,1.34C215.25,36.15,214.71,36.28,214.56,36.28Zm6.88.77c0-.26-.11-.36-.36-.36h-3.8c-.25,0-.36.12-.38.37s0,.32,0,.48c0,.42-.13.45-.68.45s-.65,0-.65-.43c0-.63,0-1.25,0-1.86V27.22c0-.5,0-1,0-1.49s.22-.82.84-.82l1,0h3.39l1,0c.63,0,.85.19.85.84,0,.49,0,1,0,1.47v8.5c0,.62,0,1.23,0,1.85,0,.42-.14.44-.67.44s-.66,0-.66-.45Zm-2.86-10.49a.43.43,0,0,0-.43-.43h-.83a.44.44,0,0,0-.44.43V29.7a.45.45,0,0,0,.44.45h.81a.44.44,0,0,0,.45-.45Zm-1.26,4.77a.44.44,0,0,0-.44.43v3.32a.44.44,0,0,0,.44.43h.81a.43.43,0,0,0,.45-.43V31.76a.43.43,0,0,0-.43-.43ZM221,30.15a.45.45,0,0,0,.45-.45V26.56a.44.44,0,0,0-.44-.43h-.86a.43.43,0,0,0-.45.43V29.7a.44.44,0,0,0,.45.45Zm-1.3,4.93a.43.43,0,0,0,.45.43H221a.44.44,0,0,0,.45-.43V31.76a.44.44,0,0,0-.44-.43h-.86a.43.43,0,0,0-.45.43Z"/><path class="cls-1" d="M229.7,26c.09.05.27.13.27.25s-.05.13-.13.16c-.33.16-.41.26-.62.8a16.36,16.36,0,0,0-.83,4.95c0,.32.06,2.29.41,2.29.13,0,.24-.24.43-.72.08-.19.26-.79.45-.79s.51.21.51.39a1.32,1.32,0,0,1-.08.3,14,14,0,0,0-.65,2.52c0,.22,0,.44,0,.65s-.2.47-.49.59a1.7,1.7,0,0,1-.5.15c-.22,0-.37-.32-.45-.5a11.5,11.5,0,0,1-.94-4.85,19.36,19.36,0,0,1,.75-5.14c.13-.45.27-.89.39-1.34,0-.11.06-.26.19-.26A10.05,10.05,0,0,1,229.7,26Zm6.38-.47c.09,0,.15.07.15.16a.44.44,0,0,1-.15.26,2.51,2.51,0,0,0-.17,1.2v.37c0,.35,0,.59.34.59a11.9,11.9,0,0,0,1.69-.42.65.65,0,0,1,.24-.06c.31,0,.4.94.4,1.09,0,.33-.46.4-2.08.64-.29.05-.53.09-.53.48s.11,3,.15,3.54.21.44.51.59c.45.21,2.18,1.13,2.18,1.65,0,.33-.47.93-.76.93a.67.67,0,0,1-.41-.26,5.14,5.14,0,0,0-1.38-1c-.16,0-.19.13-.21.25-.19,1.12-1.2,1.49-2.22,1.49-1.19,0-2.58-.54-2.58-1.94s1.22-1.87,2.39-1.87a6.47,6.47,0,0,1,.76,0,.47.47,0,0,0,.16,0c.23,0,.31-.12.31-.32,0-.55-.08-2.21-.11-2.81,0-.17,0-.57-.37-.57-.08,0-1.17.06-1.78.06A11.72,11.72,0,0,1,231,29.6c-.21-.06-.21-.77-.21-1s0-.37.22-.37a1.73,1.73,0,0,1,.32,0c.69.06,1.43.11,2.11.11s1.17,0,1.17-.37-.14-2-.21-2.4v-.14c0-.13.07-.19.2-.19A13.07,13.07,0,0,1,236.08,25.55Zm-1.37,9a3.7,3.7,0,0,0-1-.14c-.43,0-1.31.16-1.31.73s.87.8,1.33.8c.7,0,1.14-.28,1.14-1A.36.36,0,0,0,234.71,34.53Z"/><path class="cls-1" d="M246,36.66c0,.27-.62,1-.92,1-.15,0-.24-.13-.32-.24a10,10,0,0,0-2.44-2.13c-.11-.08-.25-.14-.25-.3a1.59,1.59,0,0,1,.86-.9A9.82,9.82,0,0,1,246,36.66Z"/><path class="cls-1" d="M262.13,26.58c.37.06.51.06.51.21s-.09.16-.14.22-.1.43-.1.59c0,2.91,0,5.4-1.93,7.8-.18.22-1,1.2-1.28,1.2s-1.14-.45-1.14-.71a.34.34,0,0,1,.17-.25c2.42-1.94,2.81-4.28,2.81-7.21A11.19,11.19,0,0,0,261,26.8v-.18c0-.12.08-.16.19-.16A9.5,9.5,0,0,1,262.13,26.58ZM266,33.76c0,.45,0,.64.22.64a1.07,1.07,0,0,0,.46-.24,33.84,33.84,0,0,0,4-3.33c.08-.08.19-.2.31-.2s.67.77.67,1-.61.71-.8.87c-.77.69-1.57,1.34-2.37,2-.48.38-1.84,1.39-2.16,1.66a.72.72,0,0,1-.43.24A3.88,3.88,0,0,1,265,36c-.21-.12-.43-.24-.43-.5,0-.09.06-1,.06-1.92V27.68a8.85,8.85,0,0,0-.05-1.15,2.6,2.6,0,0,1,0-.26.14.14,0,0,1,.16-.16c.18,0,1,.16,1.25.2s.3.07.3.2a.27.27,0,0,1-.11.21.64.64,0,0,0-.13.4c0,.42,0,1.12,0,1.55Z"/><path class="cls-1" d="M282.77,27.12a4.63,4.63,0,0,0,1-.08H284c.24,0,.72.75.72,1a.42.42,0,0,1-.09.24,3.64,3.64,0,0,0-.43.8A24.56,24.56,0,0,1,282.66,32a.68.68,0,0,0-.16.39c0,.27.22.38.42.52s.8.56.8.76-.53,1-.8,1a.36.36,0,0,1-.24-.13c-.23-.19-.47-.36-.71-.56a.55.55,0,0,0-.35-.17c-.24,0-.4.22-.54.38a12.94,12.94,0,0,1-3.56,2.77,9.66,9.66,0,0,1-1.92.85c-.33,0-.94-.77-.94-1s.25-.24.62-.35a11.46,11.46,0,0,0,4.72-3,.72.72,0,0,0,.26-.45.48.48,0,0,0-.27-.38,19.52,19.52,0,0,0-1.86-1c-.09,0-.29-.15-.29-.28s.48-.94.77-.94a12.61,12.61,0,0,1,2.08,1,1,1,0,0,0,.45.19c.29,0,.38-.24.54-.51a12.68,12.68,0,0,0,1.06-2.35c0-.36-.45-.32-.69-.32h-3.5c-.34,0-.45.16-.63.41a23.4,23.4,0,0,1-2.13,2.55.65.65,0,0,1-.44.25c-.26,0-1.06-.48-1.06-.73s.13-.23.21-.29a15.08,15.08,0,0,0,4.11-5.7c.05-.13.11-.4.29-.4s1.47.64,1.47.82a.22.22,0,0,1-.16.19c-.25.11-.27.14-.45.46-.08.15-.17.34-.33.61a.63.63,0,0,0-.15.32c0,.16.15.23.28.24Z"/><path class="cls-1" d="M294.6,28.48a.47.47,0,0,0,.46-.48l0-.67a16.88,16.88,0,0,0-.11-2.16c0-.07,0-.15,0-.21s.09-.19.24-.19a7.73,7.73,0,0,1,1.13.17c.31.08.37.13.37.21s-.11.21-.19.27-.11.39-.11.58c0,.43,0,.88,0,1.31l0,.69a.45.45,0,0,0,.51.45l1,0,2-.06c.32,0,.4.11.4.75,0,.48-.05.61-.47.61l-.9,0-1,0-1,0a.46.46,0,0,0-.48.46l.08,4a4.75,4.75,0,0,1-.35,2.53,3.32,3.32,0,0,1-2.45.72c-.23,0-.4,0-.5-.26a2.83,2.83,0,0,1-.2-.88.21.21,0,0,1,.24-.24l.57,0c1.35,0,1.36-.26,1.36-1.39v-.36l-.06-3.44a.19.19,0,0,0-.18-.19c-.14,0-.19.11-.32.27a21.77,21.77,0,0,1-4.94,4.64,1.37,1.37,0,0,1-.55.28c-.27,0-.9-.59-.9-.87s.21-.25.32-.32a17.69,17.69,0,0,0,4.76-4c.09-.11.48-.55.48-.67s-.13-.2-.26-.2l-2.78.05c-.58,0-1.68.08-2,.08s-.4-.22-.4-.7,0-.67.42-.67h1.94Z"/><path class="cls-1" d="M309.7,28.48a.46.46,0,0,0,.46-.48v-.67a21.53,21.53,0,0,0-.11-2.16c0-.07,0-.15,0-.21s.1-.19.24-.19a7.86,7.86,0,0,1,1.14.17c.3.08.36.13.36.21s-.11.21-.19.27-.11.39-.11.58c0,.43,0,.88,0,1.31V28a.46.46,0,0,0,.51.45l1,0,2-.06c.32,0,.4.11.4.75,0,.48-.05.61-.46.61l-.9,0-1,0-1,0a.46.46,0,0,0-.48.46l.08,4a4.75,4.75,0,0,1-.35,2.53,3.3,3.3,0,0,1-2.45.72c-.22,0-.4,0-.49-.26a2.58,2.58,0,0,1-.21-.88.21.21,0,0,1,.24-.24l.58,0c1.34,0,1.36-.26,1.36-1.39v-.36l-.07-3.44a.19.19,0,0,0-.17-.19c-.15,0-.2.11-.32.27a22,22,0,0,1-5,4.64,1.28,1.28,0,0,1-.54.28,1.39,1.39,0,0,1-.9-.87c0-.14.21-.25.32-.32a17.65,17.65,0,0,0,4.75-4,2.61,2.61,0,0,0,.48-.67c0-.15-.12-.2-.25-.2l-2.79.05c-.57,0-1.68.08-2,.08s-.4-.22-.4-.7,0-.67.41-.67h1.94Z"/><path class="cls-1" d="M330.57,29.54a4.2,4.2,0,0,1-.84,1.05,28,28,0,0,1-8.66,6c-.43.2-.46.23-.6.52a.25.25,0,0,1-.18.11c-.16,0-.29-.26-.51-.66a4.12,4.12,0,0,1-.4-.82c0-.16.25-.2.45-.25a22.77,22.77,0,0,0,9.79-6.93c.07-.08.16-.18.26-.18C330.17,28.4,330.57,29.33,330.57,29.54ZM322.26,27c.19.14.91.68.91.84s-.56,1-.85,1a2.24,2.24,0,0,1-.67-.43A18.58,18.58,0,0,0,319.71,27c-.11-.06-.24-.14-.24-.29s.48-1,.8-1A12.37,12.37,0,0,1,322.26,27Z"/><path class="cls-1" d="M342.69,29h.64a1.17,1.17,0,0,1,.26,0c.35,0,1,.68,1,.87a4.44,4.44,0,0,1-.19.57,9.45,9.45,0,0,1-.9,2.18,13.38,13.38,0,0,1-3.31,3.83,9.65,9.65,0,0,1-2.71,1.6c-.27,0-.84-.66-.84-.93s.36-.3.49-.37a12.19,12.19,0,0,0,5.17-4.91,5.05,5.05,0,0,0,.47-1.12c0-.31-.28-.34-.53-.34h-6.47l-2,0c-.4,0-.4-.19-.4-.64,0-.65,0-.75.44-.75.64,0,1.3,0,2,0Zm-1.92-3.42c.61,0,1.4-.05,1.78-.05s.42.13.42.75,0,.64-.42.64c-.59,0-1.18,0-1.78,0h-4l-1.77,0c-.41,0-.42-.17-.42-.64s.05-.75.4-.75,1.18.05,1.79.05Z"/><path class="cls-1" d="M354.6,35.57c0,.69,0,1.38,0,2.07,0,.4-.2.45-.68.45-.68,0-.8-.07-.8-.45,0-.67,0-1.36,0-2V30.83c0-.09.05-.43-.23-.43a.85.85,0,0,0-.41.21,27.29,27.29,0,0,1-3.48,2.21,1.34,1.34,0,0,1-.48.19,1.82,1.82,0,0,1-.94-1c0-.15.11-.21.22-.26,3-1.36,6.74-4.07,8.41-6.93.05-.08.13-.21.22-.21a3.19,3.19,0,0,1,.83.48l.13.1c.21.12.42.27.42.41s-.13.15-.27.2a.67.67,0,0,0-.44.32,24.69,24.69,0,0,1-2.29,2.51.69.69,0,0,0-.28.59Z"/><path class="cls-1" d="M374,29.54c0,.17-.64.86-.83,1.05a28.1,28.1,0,0,1-8.66,6c-.43.2-.47.23-.61.52a.22.22,0,0,1-.18.11c-.16,0-.28-.26-.51-.66a4.12,4.12,0,0,1-.4-.82c0-.16.26-.2.45-.25a22.8,22.8,0,0,0,9.8-6.93c.06-.08.16-.18.25-.18C373.64,28.4,374,29.33,374,29.54ZM365.73,27c.19.14.91.68.91.84s-.56,1-.84,1a2.39,2.39,0,0,1-.68-.43A18.46,18.46,0,0,0,363.19,27c-.11-.06-.24-.14-.24-.29s.48-1,.8-1A12.31,12.31,0,0,1,365.73,27Z"/><path class="cls-1" d="M377.83,28.91a9.45,9.45,0,0,1,1.53.84c.28.16,1.2.72,1.41.86a.33.33,0,0,1,.16.26c0,.25-.48,1-.77,1a.88.88,0,0,1-.35-.17,27.33,27.33,0,0,0-2.46-1.54c-.1-.06-.24-.13-.24-.25S377.54,28.91,377.83,28.91Zm10.59-.48a5.39,5.39,0,0,1-.27.8,14.19,14.19,0,0,1-2.93,4.52,15.29,15.29,0,0,1-5.39,3.2.84.84,0,0,0-.53.34c-.05.09-.11.22-.24.22s-.26-.26-.45-.64a7,7,0,0,1-.37-.88c0-.11.21-.16.29-.18a18.09,18.09,0,0,0,1.92-.65,10.79,10.79,0,0,0,4-2.58,13,13,0,0,0,2.7-4.75c.05-.13.1-.36.29-.36A1.91,1.91,0,0,1,388.42,28.43Zm-8.58-3a5.91,5.91,0,0,1,1.32.81c.49.35,1,.65,1.39,1,.06.07.14.15.14.24,0,.26-.49.93-.77.93a.63.63,0,0,1-.36-.19,23.69,23.69,0,0,0-2.24-1.63c-.1,0-.24-.15-.24-.27S379.57,25.42,379.84,25.42Z"/><path class="cls-1" d="M398.18,28.88h.93c.72,0,.83.2.83.81,0,.24,0,.55,0,.91v4.95c0,.34,0,.67,0,1s-.16.48-.61.48-.59-.06-.65-.37-.21-.17-.47-.17h-4c-.56,0-1.17,0-1.54,0s-.34-.29-.34-.68,0-.54.34-.54,1,0,1.52,0h4.12a.41.41,0,0,0,.39-.4V33.67a.39.39,0,0,0-.39-.4h-3.94c-.55,0-1.22,0-1.54,0s-.34-.34-.34-.64,0-.58.34-.58,1,0,1.52,0h4a.41.41,0,0,0,.39-.4V30.43a.4.4,0,0,0-.39-.39h-4.07l-1.52,0c-.34,0-.35-.26-.35-.6s0-.62.35-.62l1.52,0Z"/><path class="cls-1" d="M406,29.57a10.69,10.69,0,0,1,.67,1,5.59,5.59,0,0,1,.65,1.22c0,.3-.7.59-.89.59s-.23-.13-.29-.25A17.24,17.24,0,0,0,405,30.27a.49.49,0,0,1-.13-.27c0-.25.64-.56.82-.56A.35.35,0,0,1,406,29.57Zm8-.32c.11.05.23.11.23.24a.26.26,0,0,1-.18.24c-.11.1-.11.13-.18.32-.93,3.07-2.27,5.43-5.34,6.77a8.38,8.38,0,0,1-1.62.55c-.27,0-.72-.66-.72-.88s.19-.24.42-.31a7.54,7.54,0,0,0,5.37-4.46,8.85,8.85,0,0,0,.76-2.57c0-.12,0-.27.2-.27a5.41,5.41,0,0,1,.87.29Zm-4,.4a6.26,6.26,0,0,1,.67,1.23c0,.29-.7.6-.89.6s-.24-.16-.32-.31a17.76,17.76,0,0,0-1.06-1.78.57.57,0,0,1-.14-.28c0-.26.64-.56.83-.56S409.69,29.25,409.94,29.65Z"/><path class="cls-1" d="M425.35,26.71c.59,0,1.34,0,1.38,0,.4,0,1,.8,1,1s-.12.26-.24.95a9.64,9.64,0,0,1-4.27,7,14.38,14.38,0,0,1-3,1.58,1.75,1.75,0,0,1-.51.14c-.3,0-.77-.76-.77-1s.15-.21.29-.26A11.09,11.09,0,0,0,424.12,33a7.9,7.9,0,0,0,1.93-4.32,1.65,1.65,0,0,0,0-.32c0-.4-.4-.36-.82-.36h-5.75c-.65,0-1.31,0-2,0-.41,0-.41-.16-.41-.73s0-.69.4-.69c.67,0,1.33.05,2,.05Zm4.93-1.3a1.56,1.56,0,1,1-1.55-1.55A1.55,1.55,0,0,1,430.28,25.41Zm-2.42,0a.87.87,0,1,0,.87-.87A.86.86,0,0,0,427.86,25.41Z"/><path class="cls-1" d="M438.73,25c.25,0,.52.05.52.23a.3.3,0,0,1-.09.22c-.08.11-.18.32-.18,1.28,0,.23.11.39.34.39l.37,0a21,21,0,0,0,2.62-.55,1.17,1.17,0,0,1,.27,0c.32,0,.36.8.36,1s-.12.32-.56.41c-.84.18-1.78.29-2.63.4-.32,0-.74,0-.74.48,0,1.35.15,1.48.36,1.48a15.09,15.09,0,0,0,2.21-.43,1.11,1.11,0,0,1,.25-.05c.24,0,.23.51.23.68,0,.55-.05.66-.32.73-.68.14-1.35.25-2,.32-.42,0-.61.06-.61.51,0,1.87.08,1.81.56,2a8.64,8.64,0,0,1,2.08.93c.23.13.77.42.77.69s-.46,1-.78,1c-.16,0-.34-.16-.47-.26a6.39,6.39,0,0,0-1.82-1c-.26,0-.28.27-.31.46-.22,1.35-1.61,1.78-2.81,1.78s-2.53-.56-2.53-2c0-1.56,1.77-2,3-2,.29,0,.74,0,.77,0,.3,0,.27-.32.27-.46,0-1.15,0-1.44-.38-1.44-.66,0-1.49.05-2.23.05-.43,0-.75,0-.86-.18a2.26,2.26,0,0,1-.21-.93c0-.18.06-.29.24-.29s1.14.1,1.89.1c1.14,0,1.46,0,1.46-.42,0-1.17-.1-1.5-.42-1.5-.53,0-2.1.09-3.62.09-.65,0-.77-.09-.77-1,0-.24,0-.41.28-.41s1.52.09,2.51.09c1.46,0,1.87,0,1.87-.41,0-.28-.09-1.4-.14-1.65a1,1,0,0,1-.05-.24c0-.15.1-.18.22-.18S438.5,25,438.73,25Zm-3.67,10.6c0,.64.78.77,1.27.77.89,0,1.58-.27,1.58-1.28,0-.34-.42-.34-.87-.34S435.06,34.8,435.06,35.62Z"/><path class="cls-1" d="M453.37,25c0,.08-.07.13-.12.18-.3.19-.33.32-.56,1.14l-.24.88a.74.74,0,0,0,0,.17.2.2,0,0,0,.21.19,4.56,4.56,0,0,0,.59-.14,8.93,8.93,0,0,0,1.41-.46,1.26,1.26,0,0,1,.43-.13c.27,0,.26.64.26.83s0,.51-.21.59a20.48,20.48,0,0,1-2.62.64c-.55.11-.6.13-.76.63a48.73,48.73,0,0,1-3,7.15c-.19.37-.3.63-.54.63s-1.07-.42-1.07-.72a1.19,1.19,0,0,1,.25-.47,34.32,34.32,0,0,0,3-6.55.89.89,0,0,0,0-.14.22.22,0,0,0-.24-.22c-.18,0-1,.08-1.63.08-.42,0-.59,0-.64-.16a6.19,6.19,0,0,1-.15-1c0-.18.05-.28.24-.28s.76.08,1.43.08c.37,0,.72,0,1.07,0a.48.48,0,0,0,.38-.15,12.25,12.25,0,0,0,.69-3c0-.18,0-.39.18-.39C451.76,24.35,453.37,24.72,453.37,25Zm-.61,10.18a3.88,3.88,0,0,0,2.93.9,7,7,0,0,0,2.21-.31H458c.28,0,.28.42.28.83s0,.56-.18.64a11.62,11.62,0,0,1-2.34.19,6.8,6.8,0,0,1-3.34-.65c-.23-.15-.77-.55-.77-.85s.58-1,.8-1S452.69,35.09,452.76,35.17Zm2-5.33a10.11,10.11,0,0,1,3.06.43.27.27,0,0,1,.19.29,3.1,3.1,0,0,1-.19.84.28.28,0,0,1-.29.22.71.71,0,0,1-.3-.1,7.42,7.42,0,0,0-2.43-.36h-.63c-.32,0-.37-.11-.37-.37C453.81,29.78,454,29.84,454.77,29.84Z"/><path class="cls-1" d="M465.59,26c.09.05.27.13.27.25s-.05.13-.13.16c-.33.16-.41.26-.62.8a16.36,16.36,0,0,0-.83,4.95c0,.32.06,2.29.41,2.29.13,0,.24-.24.43-.72.08-.19.26-.79.45-.79s.51.21.51.39a1.32,1.32,0,0,1-.08.3,14,14,0,0,0-.65,2.52c0,.22,0,.44,0,.65s-.2.47-.49.59a1.7,1.7,0,0,1-.5.15c-.22,0-.37-.32-.45-.5a11.5,11.5,0,0,1-.94-4.85,19.36,19.36,0,0,1,.75-5.14c.13-.45.27-.89.39-1.34,0-.11.06-.26.19-.26A10.05,10.05,0,0,1,465.59,26Zm6.38-.47c.08,0,.15.07.15.16A.44.44,0,0,1,472,26a2.51,2.51,0,0,0-.17,1.2v.37c0,.35,0,.59.33.59a11.69,11.69,0,0,0,1.7-.42.65.65,0,0,1,.24-.06c.31,0,.4.94.4,1.09,0,.33-.46.4-2.08.64-.29.05-.53.09-.53.48s.11,3,.15,3.54.2.44.51.59,2.18,1.13,2.18,1.65c0,.33-.47.93-.76.93a.67.67,0,0,1-.41-.26,5.14,5.14,0,0,0-1.38-1c-.16,0-.19.13-.21.25-.19,1.12-1.2,1.49-2.22,1.49-1.19,0-2.58-.54-2.58-1.94s1.22-1.87,2.39-1.87a6.47,6.47,0,0,1,.76,0,.47.47,0,0,0,.16,0c.23,0,.31-.12.31-.32,0-.55-.08-2.21-.11-2.81,0-.17,0-.57-.37-.57-.08,0-1.17.06-1.78.06a11.87,11.87,0,0,1-1.62-.08c-.2-.06-.2-.77-.2-1s0-.37.22-.37a1.73,1.73,0,0,1,.32,0c.69.06,1.43.11,2.11.11s1.17,0,1.17-.37-.14-2-.21-2.4v-.14c0-.13.07-.19.2-.19A13.07,13.07,0,0,1,472,25.55Zm-1.37,9a3.7,3.7,0,0,0-1-.14c-.43,0-1.31.16-1.31.73s.87.8,1.33.8c.7,0,1.14-.28,1.14-1A.36.36,0,0,0,470.6,34.53Z"/><path class="cls-1" d="M489.09,25.86c.68,0,1.38,0,1.86,0s.34.14.34.63,0,.63-.34.63c-.54,0-1.21,0-1.86,0h-8.61c-.3,0-.44.13-.44.43v2.83a18.22,18.22,0,0,1-1.19,6.87c-.11.26-.42,1.07-.7,1.07s-1-.33-1-.62a2.15,2.15,0,0,1,.26-.56,15.1,15.1,0,0,0,1.34-6.95V28c0-.46,0-.92,0-1.39s.31-.72.87-.72l1.49,0h2.3c.29,0,.42-.11.43-.42a5.8,5.8,0,0,0,0-1,.47.47,0,0,1,0-.16c0-.18.11-.21.27-.21s.74.06,1,.09.51,0,.51.21-.08.15-.2.24-.2.32-.2.63v.22c0,.31.15.42.45.42Zm-3.21,6.27c0,.32.13.45.45.45h1.61l1.15,0c.47,0,.9.08.9.64,0,.29,0,.6,0,.88v3c0,.32,0,.64,0,1s-.14.32-.66.32-.67,0-.67-.32c0-.09,0-.19,0-.28s-.11-.31-.32-.31h-5.54c-.21,0-.3.08-.32.31a1.06,1.06,0,0,1,0,.25c0,.31-.13.35-.68.35s-.67,0-.67-.33,0-.64,0-1v-3c0-.28,0-.56,0-.84,0-.6.4-.68.89-.68l1.17,0h.88c.31,0,.45-.13.45-.45V29a7.32,7.32,0,0,0-.06-1.15.47.47,0,0,1,0-.16c0-.18.11-.21.26-.21s.75.06,1,.08.51,0,.51.22-.08.13-.21.21-.19.26-.19.83V29a.39.39,0,0,0,.45.4h2.37c.57,0,1.15,0,1.72,0,.32,0,.34.13.34.61s0,.59-.34.59l-1.72,0h-2.37c-.32,0-.45.15-.45.45Zm2.37,4.18c.29,0,.41-.16.45-.43V34.16a.45.45,0,0,0-.45-.44h-5.32a.46.46,0,0,0-.45.44v1.72c0,.27.18.43.45.43Z"/><path class="cls-1" d="M498.12,29.12c.43,0,.86,0,1.31,0s.3.18.3.56,0,.54-.3.54-.87,0-1.31,0h-.05a.34.34,0,0,0-.39.39V31c0,.27.12.38.39.38h.22c.53,0,1,0,1.57,0,.35,0,.35.18.35.58s0,.56-.35.56c-.53,0-1,0-1.57,0h-2.35c-.51,0-1,0-1.57,0-.32,0-.35-.13-.35-.56s0-.58.35-.58c.53,0,1.06,0,1.57,0h.13c.27,0,.38-.11.38-.38v-.48c0-.26-.1-.36-.37-.39-.12,0-1,0-1.05,0-.32,0-.29-.2-.31-.57s-.13-.29-.33-.35-.66-.36-.66-.6.08-.16.13-.22a16.15,16.15,0,0,0,2.88-4.18c0-.09.08-.19.19-.19a9.61,9.61,0,0,1,.93.29c.16.05.38.11.38.25s-.2.16-.32.2,0,0,0,0a.07.07,0,0,0,0,.05,14.66,14.66,0,0,0,2.16,2.36.29.29,0,0,1,.16.22c0,.24-.43.77-.72.77s-1.71-1.75-2-2.1a.26.26,0,0,0-.22-.13.3.3,0,0,0-.24.15,18.3,18.3,0,0,1-1.91,2.62.17.17,0,0,0,0,.13c0,.11.09.14.19.16l.75,0c.37,0,.38-.24.4-.4a3.3,3.3,0,0,0-.05-.7s0-.1,0-.13.12-.19.25-.19a6.35,6.35,0,0,1,.87.05c.33,0,.59,0,.59.22s-.11.14-.22.21-.2.32-.2.53A.38.38,0,0,0,498.12,29.12Zm-.29,8.28h-1.51c-.24,0-.32.08-.32.32v.37c0,.27-.12.3-.61.3s-.6,0-.6-.3,0-.6,0-.88V34.8c0-.24,0-.49,0-.73,0-.47.34-.58.74-.58l.77,0h1.47l.75,0c.4,0,.75.1.75.58,0,.24,0,.49,0,.73v2c0,.3,0,.64,0,.89s-.14.31-.62.31-.63,0-.61-.39S498,37.4,497.83,37.4Zm-.18-1.07a.44.44,0,0,0,.43-.44V35a.44.44,0,0,0-.43-.44h-1.22A.44.44,0,0,0,496,35v.89a.44.44,0,0,0,.43.44Zm4.16-.21c0,.64,0,1.26,0,1.89,0,.41-.07.49-.62.49s-.62-.06-.62-.49c0-.63,0-1.27,0-1.89V30.45c0-.37,0-.72,0-1.09,0-.53.16-.7.69-.7.32,0,.64,0,1,0h.8c.27,0,.38-.13.38-.4v-.56c0-.27-.11-.38-.38-.38h-.74c-.59,0-1.2,0-1.81,0-.35,0-.35-.18-.35-.59s0-.6.35-.6c.61,0,1.22,0,1.81,0H503c.32,0,.45-.13.45-.45a10,10,0,0,0-.06-1.22c0-.06,0-.13,0-.18s.15-.19.27-.19.88,0,1.11.07.32,0,.32.19-.08.14-.19.22-.21.37-.2,1.12c0,.31.13.44.45.44H506c.6,0,1.21,0,1.81,0,.36,0,.36.16.36.6s0,.59-.36.59l-1.81,0h-.89c-.27,0-.39.11-.39.38v.56c0,.27.12.4.39.4h.77c.32,0,.64,0,1,0,.48,0,.71.11.71.64,0,.38,0,.75,0,1.13v5.43c0,.34,0,.66,0,1a1.64,1.64,0,0,1-.32,1.19,2.14,2.14,0,0,1-1.57.41c-.4,0-.65,0-.65-.89,0-.32.11-.37.27-.37s.38,0,.58,0c.49,0,.48-.21.48-.83V35.16c0-.32-.13-.42-.44-.45h-.8c-.3,0-.43.13-.43.45v.35c0,.74,0,1.49,0,2.24,0,.43-.09.53-.6.53s-.64-.08-.64-.55c0-.75,0-1.48,0-2.22v-.35c0-.32-.12-.42-.43-.45h-.81c-.31,0-.44.13-.44.45Zm.44-6.37a.43.43,0,0,0-.44.43v.57a.43.43,0,0,0,.44.45h.8a.43.43,0,0,0,.44-.45v-.56a.43.43,0,0,0-.43-.44Zm-.44,3.47a.46.46,0,0,0,.44.45h.8a.43.43,0,0,0,.44-.45v-.53a.44.44,0,0,0-.43-.45h-.81a.44.44,0,0,0-.44.45Zm4.52-3a.44.44,0,0,0-.44-.44h-.8a.43.43,0,0,0-.43.43v.57a.43.43,0,0,0,.43.45h.79a.44.44,0,0,0,.45-.45Zm-.45,3.48a.44.44,0,0,0,.45-.45v-.53a.45.45,0,0,0-.44-.45h-.8a.44.44,0,0,0-.43.45v.53a.46.46,0,0,0,.43.45Zm1-7.67c-.14,0-.22-.09-.43-.33s-.31-.36-.58-.63-.35-.32-.35-.46.53-.53.73-.53.21.08.42.29.5.51.66.65a.88.88,0,0,1,.33.47C507.62,25.71,507.06,26,506.84,26Z"/><path class="cls-1" d="M514.69,26.13c.1.05.23.11.23.24s-.08.13-.23.21-.32.29-.48.69a12.36,12.36,0,0,0-.88,4.62c0,.37.11,2.69.53,2.69.13,0,.22-.19.37-.53,0-.08.08-.16.11-.24.14-.3.24-.45.37-.45s.45.23.45.37a15.13,15.13,0,0,0-.61,2.34,4.71,4.71,0,0,0,.05.54,1.62,1.62,0,0,1,0,.21c0,.31-.77.66-1,.66s-.5-.51-.63-.79a10.87,10.87,0,0,1-1-4.81,18.55,18.55,0,0,1,.85-5.27,6.41,6.41,0,0,0,.21-.75c0-.13.06-.31.21-.31s.83.32,1.21.48Zm2,7.81a2.88,2.88,0,0,0,2.55,1.14,12,12,0,0,0,3.5-.52,1.37,1.37,0,0,1,.32-.06c.21,0,.24.24.24.85,0,.18,0,.54-.16.64a18.3,18.3,0,0,1-3.73.46c-2.61,0-3.63-1.37-3.63-1.57s.43-1.1.7-1.1C516.63,33.78,516.69,33.88,516.74,33.94Zm.63-7.06a9.35,9.35,0,0,0,2.11.24,10.67,10.67,0,0,0,2.45-.3,1.51,1.51,0,0,1,.28-.05c.33,0,.31.7.31.93s0,.41-.14.48a15.44,15.44,0,0,1-2.79.27,11.12,11.12,0,0,1-2.71-.32c-.17-.1-.15-.37-.15-.54,0-.47,0-.79.28-.79A1.55,1.55,0,0,1,517.37,26.88Z"/><path class="cls-1" d="M527.75,27.12c2.29-.14,4.56-.38,6.83-.66,1.14-.12,2.55-.28,3.65-.47a.79.79,0,0,1,.23,0c.19,0,.24.18.27.34a8.36,8.36,0,0,1,.09.86c0,.36-.24.36-.64.36a8.93,8.93,0,0,0-2.72.32,5,5,0,0,0-2.83,2.41,6.37,6.37,0,0,0-.87,3.09A2.3,2.3,0,0,0,533,35.56a4.68,4.68,0,0,0,1.82.27l.63,0c.19,0,.37,0,.37.23a3.34,3.34,0,0,1-.23,1c-.08.21-.19.24-.43.24-2.58,0-4.87-.91-4.87-3.88a7.42,7.42,0,0,1,2-4.94c.26-.24.3-.31.3-.37s-.11-.14-.2-.14-2.16.25-2.52.32a23.21,23.21,0,0,0-2.49.46.69.69,0,0,1-.24.05c-.34,0-.45-1.23-.45-1.35,0-.3.13-.32.65-.33Z"/><path class="cls-1" d="M543.56,32.74c.19,0,.25.1.3.27a2.34,2.34,0,0,0,.54,1.17,3.76,3.76,0,0,0,2.79.86,20.48,20.48,0,0,0,4.86-.56l.18,0c.29,0,.31.51.31.93,0,.26,0,.51-.33.61a28,28,0,0,1-4.78.46c-1.63,0-3.41-.24-4.42-1.66a3.57,3.57,0,0,1-.57-1.44C542.44,33,543.54,32.74,543.56,32.74Zm1.16-6.15a10.11,10.11,0,0,0,3.09.42,14.05,14.05,0,0,0,2.6-.24.53.53,0,0,1,.19,0c.35,0,.33.63.33.93s0,.51-.33.56a19.31,19.31,0,0,1-2.42.13,14.39,14.39,0,0,1-4.06-.48.31.31,0,0,1-.23-.32,4.19,4.19,0,0,1,.15-.77c0-.16.09-.3.28-.3A1.79,1.79,0,0,1,544.72,26.59Zm8.79.71c0,.21-.46.64-.67.64s-.19-.13-.35-.32l-.11-.15c-.29-.32-.58-.62-.88-.93-.07-.06-.15-.14-.15-.22s.48-.59.66-.59A6.4,6.4,0,0,1,553.51,27.3Zm1.43-1.17c0,.21-.48.64-.69.64s-.16-.1-.23-.16a13.07,13.07,0,0,0-1.12-1.23c-.06-.07-.14-.15-.14-.23s.5-.57.66-.57A6.4,6.4,0,0,1,554.94,26.13Z"/><path class="cls-1" d="M559,37c0,.37-.16.38-.56.38s-.56,0-.56-.4,0-.85,0-1.26V33a.09.09,0,0,0-.08-.09.09.09,0,0,0-.08,0c-.13.21-.33.58-.53.58s-.76-.52-.76-.77a.92.92,0,0,1,.24-.43,13.46,13.46,0,0,0,1.42-3.05,17,17,0,0,0,.59-2.54.11.11,0,0,0,0-.08c0-.24-.16-.34-.39-.34s-.83,0-1.08,0-.32-.16-.32-.63,0-.62.32-.62.83,0,1.28,0h1.92c.45,0,.88,0,1.28,0s.32.19.32.61,0,.64-.31.64-.84,0-1.29,0h0c-.32,0-.45.11-.52.44a20.38,20.38,0,0,1-.48,2.24.41.41,0,0,0,0,.11c0,.22.16.29.33.3h1.33c.42,0,.53.28.53.65s0,.72,0,1.09V35c0,.42,0,.85,0,1.27s-.13.4-.56.4-.56,0-.56-.38V36c0-.23-.11-.32-.32-.32h-.74c-.28,0-.43.11-.43.4S559,36.65,559,37Zm1.49-6a.43.43,0,0,0-.44-.45h-.64A.43.43,0,0,0,559,31v3a.43.43,0,0,0,.43.43h.64c.28,0,.44-.16.44-.43Zm6.8-3.6a4.24,4.24,0,0,1,.69.19c.11,0,.53.14.53.29s-.1.13-.23.16a.33.33,0,0,0-.21.17c-.09.28-.21.53-.32.79a.61.61,0,0,0,0,.13c0,.19.14.24.3.25h.6c.6,0,1.2,0,1.81,0,.32,0,.32.13.32.58s0,.56-.32.56c-.61,0-1.21,0-1.81,0h-.44c-.27,0-.38.12-.38.39v.42c0,.27.11.38.38.38h.36c.52,0,1,0,1.57,0,.32,0,.33.14.33.57s0,.56-.33.56c-.53,0-1,0-1.57,0h-.36c-.27,0-.38.11-.38.39v.49c0,.27.11.39.38.39h.12c.59,0,1.18,0,1.79,0,.32,0,.32.16.32.58s0,.56-.32.56c-.61,0-1.2,0-1.79,0h-.07c-.3,0-.43.13-.43.43V36c0,.32.13.45.43.45h.8l1.6,0c.32,0,.34.14.34.56s0,.56-.32.56l-1.62,0H565c-.21,0-.32.08-.32.28,0,.58,0,.68-.64.68s-.65-.07-.65-.55,0-1.23,0-1.84V31.86c0-.08,0-.16-.13-.16a.14.14,0,0,0-.11.05c-.26.3-.53.65-.76.65a1.09,1.09,0,0,1-.72-.68c0-.15.16-.29.24-.39a17.09,17.09,0,0,0,3-4.16A.24.24,0,0,0,565,27c0-.16-.15-.23-.29-.23h-.6c-.3,0-.43.13-.43.43v.05c0,.21,0,.4,0,.59,0,.36-.22.36-.59.36s-.61,0-.61-.37,0-.43,0-.66V27c0-.22,0-.45,0-.67,0-.54.32-.64.92-.64.27,0,.59,0,1,0h.84a.55.55,0,0,0,.6-.4,7,7,0,0,0,.32-.91c0-.1.08-.22.21-.22s.66.17.79.2c.32.1.54.15.54.29s-.13.16-.21.21c-.24.08-.25.21-.37.48a.61.61,0,0,0,0,.13c0,.16.13.21.27.22h1.48c.36,0,.7,0,1,0,.58,0,.92.1.92.63,0,.23,0,.46,0,.68v.28c0,.22,0,.44,0,.65s-.17.37-.61.37-.59,0-.59-.35c0-.19,0-.39,0-.59v-.12c0-.3-.13-.43-.44-.43h-2.22a.57.57,0,0,0-.62.37c-.34.62-.69,1.23-1,1.82a.24.24,0,0,0-.05.16c0,.15.11.2.25.21H566a.56.56,0,0,0,.61-.38,14.87,14.87,0,0,0,.51-1.41C567.19,27.47,567.21,27.38,567.32,27.38ZM565,30.43a.36.36,0,0,0-.38.39v.42a.36.36,0,0,0,.38.38h1.24a.36.36,0,0,0,.38-.38v-.42a.36.36,0,0,0-.38-.39ZM566.25,34a.36.36,0,0,0,.38-.39v-.49a.36.36,0,0,0-.38-.39H565a.36.36,0,0,0-.38.39v.49A.36.36,0,0,0,565,34ZM565.06,35c-.32,0-.43.13-.43.43V36c0,.32.13.45.43.45h1.14c.32,0,.43-.13.43-.45v-.56c0-.3-.11-.43-.43-.43Z"/><path class="cls-1" d="M575,27.91c-.43,0-.88,0-1.25,0s-.33-.23-.33-.56,0-.56.33-.56.82,0,1.25,0h2.34c.43,0,.87,0,1.25,0s.33.22.33.56,0,.56-.33.56-.82,0-1.25,0Zm2.18,9.94c0-.23-.1-.31-.32-.31h-1.22c-.22,0-.32.08-.32.31V38c0,.34-.17.34-.6.34s-.6,0-.6-.34,0-.7,0-1.05V34.84c0-.28,0-.56,0-.84,0-.49.16-.73.69-.73h2.83c.52,0,.69.22.69.73,0,.28,0,.55,0,.84V37c0,.35,0,.7,0,1.05s-.12.34-.57.34-.58,0-.58-.32Zm-1.46-5.67-1.13,0c-.34,0-.32-.23-.32-.53s0-.53.32-.53.73,0,1.13,0h1.12c.4,0,.79,0,1.14,0s.32.21.32.53,0,.53-.32.53l-1.14,0Zm-.19-6.45c-.35,0-.72,0-.94,0s-.31-.22-.31-.54,0-.55.31-.55l.94,0h1.54l.94,0c.31,0,.31.23.31.55s0,.54-.31.54-.59,0-.94,0Zm.19,4.31c-.38,0-.75,0-1.13,0s-.31-.26-.31-.55,0-.54.32-.54.72,0,1.12,0h1.16c.38,0,.78,0,1.12,0s.32.22.32.54,0,.55-.32.55-.74,0-1.12,0Zm1,6.48a.45.45,0,0,0,.45-.45V34.79a.44.44,0,0,0-.45-.45h-1a.41.41,0,0,0-.43.45v1.28a.43.43,0,0,0,.43.45Zm3.71-2.23c-.16.08-.16.13-.19.31a22.88,22.88,0,0,1-.51,2.49c-.07.23-.15.36-.39.36-.06,0-.8-.05-.8-.4a.49.49,0,0,1,0-.2,12.54,12.54,0,0,0,.53-2.43,1.32,1.32,0,0,0,0-.27c0-.24,0-.4.28-.4s1.17.14,1.17.37S580.58,34.26,580.5,34.29Zm1.59-4.5c-.66.95-2.07,2.28-2.48,2.28s-.76-.61-.76-.8.11-.21.23-.29a6,6,0,0,0,2-1.86.41.41,0,0,0,.08-.24.37.37,0,0,0-.22-.33c-.23-.15-.43-.24-.59-.34-.39-.21-.6-.32-.6-.5s.34-.78.58-.78a6,6,0,0,1,1.09.56.39.39,0,0,0,.19.06c.16,0,.22-.11.27-.25a4.51,4.51,0,0,0,.18-1c0-.31-.11-.42-.4-.42h-.53c-.5,0-1,0-1.49,0-.33,0-.35-.12-.35-.61s0-.62.35-.62c.5,0,1,.05,1.49.05h3.73c.5,0,1,0,1.47,0,.71,0,.9.24.9.91a22.79,22.79,0,0,1-.56,4.77c-.35,1.14-1.14,1.26-2.21,1.26-.58,0-.93,0-.93-.88,0-.22,0-.46.27-.46s.53.05.84.05c.59,0,.81-.13,1-.72a21.34,21.34,0,0,0,.32-3.32c0-.4-.18-.43-.6-.43h-1.53c-.31,0-.45.11-.48.42a9.65,9.65,0,0,1-.36,1.66,1.08,1.08,0,0,0,0,.19.48.48,0,0,0,.26.42l.22.16c.39.26.67.45.67.64s-.3.8-.59.8a1.88,1.88,0,0,1-.65-.42.89.89,0,0,0-.42-.19A.38.38,0,0,0,582.09,29.79Zm1.69,7.06c.51,0,.61-.06.76-1.09,0-.22,0-.39.32-.39s.89.06.89.47a4.52,4.52,0,0,1-.48,1.73,1.44,1.44,0,0,1-1.36.5h-1.38c-.86,0-1.5-.13-1.5-1.15,0-.26,0-.51,0-.77V34.39a7.25,7.25,0,0,0,0-1c0-.05,0-.1,0-.15s.11-.19.24-.19.89.07,1.12.08.32,0,.32.18-.1.14-.16.19c-.23.14-.23.37-.23.93v1.89c0,.56.18.57.64.57Zm.23-2.62c-.13,0-.23-.15-.31-.24a9.64,9.64,0,0,0-1.2-1.28.48.48,0,0,1-.19-.31c0-.22.46-.62.72-.62s1.09,1,1.3,1.18.4.44.4.6S584.26,34.23,584,34.23Zm2.85,2.7c-.23,0-.29-.17-.36-.33a17.43,17.43,0,0,0-1.16-2.47.63.63,0,0,1-.13-.3c0-.26.61-.55.8-.55s.22.12.3.26c.24.42.48.85.69,1.3a10.87,10.87,0,0,1,.66,1.58C587.66,36.68,587.06,36.93,586.86,36.93Z"/><path class="cls-1" d="M598.74,26.4c0,.18-.24.16-.35.16-.3,0-.38.21-.61.32-.48.37-.93.74-1.37,1.11-.88.72-1.73,1.47-2.57,2.24a1,1,0,0,0-.41.72c0,.53.82,1.37,1.18,1.74,1.06,1.09,2.21,2.1,3.35,3.11.19.16.62.49.62.73s-.75,1-1.1,1c-.16,0-.34-.24-.45-.37-.61-.72-1.26-1.39-1.94-2-.84-.85-1.69-1.7-2.48-2.61a2.41,2.41,0,0,1-.73-1.61,1.86,1.86,0,0,1,.33-1.08,19.27,19.27,0,0,1,2-1.79,24.37,24.37,0,0,0,3-2.77c.05-.06.13-.16.23-.16s.41.26.61.45S598.74,26.24,598.74,26.4Z"/><path class="cls-1" d="M610,25c0,.08-.06.13-.11.18-.31.19-.34.32-.56,1.14l-.24.88a.43.43,0,0,0,0,.17.2.2,0,0,0,.21.19,5.13,5.13,0,0,0,.6-.14,8.82,8.82,0,0,0,1.4-.46,1.39,1.39,0,0,1,.44-.13c.27,0,.25.64.25.83s0,.51-.21.59a20.07,20.07,0,0,1-2.62.64c-.54.11-.59.13-.75.63a51,51,0,0,1-3,7.15c-.19.37-.31.63-.55.63s-1.07-.42-1.07-.72a1.22,1.22,0,0,1,.26-.47,34.29,34.29,0,0,0,3-6.55.39.39,0,0,0,0-.14.22.22,0,0,0-.24-.22c-.17,0-1,.08-1.63.08-.37,0-.54,0-.64-.16a3.38,3.38,0,0,1-.14-1c0-.18.05-.28.24-.28s.75.08,1.42.08c.37,0,.72,0,1.07,0a.51.51,0,0,0,.39-.15,12.71,12.71,0,0,0,.69-3c0-.18,0-.39.17-.39S610,24.72,610,25Zm-.61,10.18a3.88,3.88,0,0,0,2.93.9,6.87,6.87,0,0,0,2.21-.31h.13c.27,0,.27.42.27.83s0,.56-.18.64a11.45,11.45,0,0,1-2.33.19,6.82,6.82,0,0,1-3.35-.65c-.22-.15-.77-.55-.77-.85s.58-1,.8-1S609.32,35.09,609.38,35.17Zm2-5.33a10.2,10.2,0,0,1,3.06.43.28.28,0,0,1,.19.29,4.08,4.08,0,0,1-.19.84c-.07.14-.13.22-.29.22a.94.94,0,0,1-.31-.1,7.13,7.13,0,0,0-2.43-.36h-.62c-.32,0-.37-.11-.37-.37C610.44,29.78,610.63,29.84,611.4,29.84Zm3.1-2.67c0,.22-.49.62-.7.62s-.16-.09-.22-.17c-.34-.43-.71-.87-1.09-1.27a.31.31,0,0,1-.13-.22c0-.16.51-.56.67-.56A6.58,6.58,0,0,1,614.5,27.17Zm1.6-.94c0,.2-.49.62-.68.62s-.18-.1-.24-.18a14.24,14.24,0,0,0-1.09-1.26c-.05-.05-.13-.13-.13-.21s.51-.58.67-.58A6.28,6.28,0,0,1,616.1,26.23Z"/><path class="cls-1" d="M624.28,24.9c.16.25.83,1.58,1,2,.11.2.21.4.48.4a7.54,7.54,0,0,0,1.9-.92.86.86,0,0,1,.42-.2c.27,0,.82.76.82,1s-1.86,1.05-2.18,1.18-.4.13-.4.37a3.61,3.61,0,0,0,.4.78,18.64,18.64,0,0,0,2.3,3.51.66.66,0,0,1,.26.42c0,.33-.64.89-.93.89s-.48-.25-.69-.38a7.82,7.82,0,0,0-3.77-1.3A1.74,1.74,0,0,0,622,34.23c0,1.79,2.52,2.16,3.88,2.16.37,0,.69,0,.86,0s.31.16.31.38c0,1.14-.5,1-.67,1a11.32,11.32,0,0,1-2.65-.34c-1.58-.4-3.07-1.31-3.07-3.14a3,3,0,0,1,3.28-2.91,5.69,5.69,0,0,1,2.45.64.82.82,0,0,0,.19.06c.08,0,.15,0,.15-.12a.82.82,0,0,0-.19-.37c-.49-.76-.92-1.49-1.35-2.26-.11-.19-.22-.32-.45-.32a1.52,1.52,0,0,0-.21,0,21.75,21.75,0,0,1-3.89.63c-.28,0-.35-.1-.44-.34a2.35,2.35,0,0,1-.23-.8c0-.22.15-.22.58-.24l.3,0a15,15,0,0,0,3-.38c.14,0,.3-.11.3-.29a12.74,12.74,0,0,0-1.26-2.13.42.42,0,0,1-.14-.25c0-.26,1.1-.48,1.24-.48A.32.32,0,0,1,624.28,24.9Z"/><path class="cls-1" d="M635.89,27.43c.11,0,.31.08.31.22s-.07.16-.16.22-.21.39-.26.68a10.1,10.1,0,0,0-.11,1.55,9.84,9.84,0,0,0,.56,3.62c.22.52.83,1.55,1.47,1.55.47,0,1-.75,1.2-1.12.08-.15.21-.4.4-.4s.9.53.9.77-.9,1.29-1.14,1.55a1.77,1.77,0,0,1-1.34.7,2.91,2.91,0,0,1-2.24-1.53,10.23,10.23,0,0,1-1.19-5.53c0-.51.05-1.84.08-2.36,0-.15.07-.23.21-.23A9.87,9.87,0,0,1,635.89,27.43Zm6.79-.23a5,5,0,0,1,2.06,1.89,8.5,8.5,0,0,1,1.16,3.2,2.81,2.81,0,0,1,0,.5.32.32,0,0,1-.24.37,2.38,2.38,0,0,1-.76.14c-.47,0-.45-.21-.48-.51a6.11,6.11,0,0,0-2.39-4.56.29.29,0,0,1-.13-.24A1.1,1.1,0,0,1,642.68,27.2Z"/><path class="cls-1" d="M653.4,35.7a2.2,2.2,0,1,1-2.2-2.19A2.2,2.2,0,0,1,653.4,35.7Zm-3.67,0a1.47,1.47,0,0,0,1.47,1.47,1.47,1.47,0,1,0,0-2.94A1.47,1.47,0,0,0,649.73,35.7Z"/></g></g></svg>