<svg xmlns="http://www.w3.org/2000/svg" viewBox="0 0 576.21 307.96"><defs><style>.cls-1{fill:#8d7c28;}</style></defs><g id="レイヤー_2" data-name="レイヤー 2"><g id="テキスト"><path class="cls-1" d="M28.66,88.63A20.62,20.62,0,0,1,20.81,95,57,57,0,0,0,35,97.5a12.7,12.7,0,0,0-1.59,2.57,50.14,50.14,0,0,1-15.84-3.64A67.5,67.5,0,0,1,1.1,100,9.37,9.37,0,0,0,0,97.68,62.18,62.18,0,0,0,14.67,95,21.79,21.79,0,0,1,9.29,90.6a40.34,40.34,0,0,1-7.21,3.45,9,9,0,0,0-1.7-2,27.72,27.72,0,0,0,11.41-6.49H5.12V71.65h10c.19-.72.37-1.44.53-2.16H1.44V67.13h32v2.36H18.69c-.27.79-.53,1.47-.8,2.16H29.75V85.59H15.16a15.85,15.85,0,0,1-1.93,2H26.38l.53-.15Zm-20.81-13H27v-2.2H7.85Zm0,4.06H27V77.48H7.85Zm0,4.09H27V81.54H7.85Zm3.9,5.88a19,19,0,0,0,6,4.13,22.56,22.56,0,0,0,6.59-4.13Z"/><path class="cls-1" d="M56.48,95.26a24.16,24.16,0,0,0,3.22-.46c4.81-1.06,9.51-4.62,9.51-11.1,0-5.69-3.6-10.35-10-10.88A80.7,80.7,0,0,1,57,83.62C54.7,91.32,51.7,95.3,48.22,95.3s-6.71-3.87-6.71-10C41.51,77.1,48.79,70,58,70c8.79,0,14.4,6.21,14.4,13.79,0,7.89-5.19,13.16-14.14,14.33ZM54,83A61.67,61.67,0,0,0,56.1,72.86C48.9,73.77,44.5,80,44.5,85c0,4.74,2.2,6.82,3.83,6.82S52.08,89.31,54,83Z"/><path class="cls-1" d="M87.79,78.43A124,124,0,0,1,104,84.65l-1.33,3.22A96.9,96.9,0,0,0,87.79,81.8V94.27A44.81,44.81,0,0,0,88,98.75H84.38a42,42,0,0,0,.23-4.48V72.21a23.7,23.7,0,0,0-.31-3.94H88c-.12,1.18-.23,2.81-.23,3.94ZM99.2,76.54a37.73,37.73,0,0,0-3.37-5.77l2.08-.94a49.75,49.75,0,0,1,3.45,5.72Zm4.74-1.94a41.09,41.09,0,0,0-3.53-5.68l2.09-1a52.77,52.77,0,0,1,3.56,5.61Z"/><path class="cls-1" d="M138,79.45a12,12,0,0,0-.41,1.94,31.13,31.13,0,0,1-3,9.47c-2.2,3.94-6.64,7.39-13.08,9.06l-2.39-2.65a20.74,20.74,0,0,0,3.6-.91c3.34-1.21,6.6-3,8.76-6.41a21.06,21.06,0,0,0,2.84-8.68H116.68v5.42a13.09,13.09,0,0,0,.11,1.82h-3.11c0-.53.11-1.36.11-2V81c0-.68-.07-2-.15-2.65.87.08,2.13.12,3.19.12h6.93v-2.7a12.71,12.71,0,0,0-.19-2.23H127a13.76,13.76,0,0,0-.19,2.23v2.7h7.12a8.05,8.05,0,0,0,2.13-.19Z"/><path class="cls-1" d="M146.59,80.7c1.13.08,3.14.19,5.26.19h20.77c1.9,0,3.26-.11,4.1-.19v3.72c-.76,0-2.35-.19-4.06-.19H151.85c-2.08,0-4.09.07-5.26.19Z"/><path class="cls-1" d="M208.26,71.27l1.85,1.17a8.09,8.09,0,0,0-.57,1.9c-.83,4-2.65,10.08-5.64,14A29,29,0,0,1,189,98.44l-2.57-2.84c7.35-1.82,11.59-5,14.78-9.1a28.81,28.81,0,0,0,5-12.35h-19.4c-1.48,0-2.81.07-3.75.11V70.93c1,.11,2.53.22,3.79.22h19a8.63,8.63,0,0,0,1.63-.11c-.79-1.44-1.93-3.34-2.76-4.55l2-.87a55.42,55.42,0,0,1,3,5Zm3.29-6.64a53.94,53.94,0,0,1,3.11,5l-2.08.91a42.86,42.86,0,0,0-3.11-5Z"/><path class="cls-1" d="M216.49,96.13a18,18,0,0,0,6.59-9.32c1.1-3.49,1.14-11,1.14-15.24A14.09,14.09,0,0,0,224,68.8h3.49c0,.46-.19,1.59-.19,2.73,0,4.21-.15,12.32-1.18,16.11A20.89,20.89,0,0,1,219.33,98Zm17.35.19a8.58,8.58,0,0,0,.27-2.12V71.49a18,18,0,0,0-.23-2.8h3.49a23.59,23.59,0,0,0-.15,2.8V93.36a28.73,28.73,0,0,0,11-9.32l1.82,2.58a38.19,38.19,0,0,1-12.93,10.5,7,7,0,0,0-1.29.87Z"/><path class="cls-1" d="M287.48,89a70.34,70.34,0,0,1-8.64,5.15,29.74,29.74,0,0,0,10.72,3.45,11.06,11.06,0,0,0-1.7,2.43c-8.15-1.41-14.18-4.93-17.4-11h-5.91v7.39l9.74-.91,0,2.51c-5.92.64-12.09,1.25-16.41,1.63L257.5,97l4.28-.38v-20a47.9,47.9,0,0,1-5.08,2.73A11.32,11.32,0,0,0,255,77.07c6.4-2.77,12.73-7.51,15.76-11.72h2.77a44.09,44.09,0,0,0,16.56,11.3,19.52,19.52,0,0,0-1.82,2.46,55.33,55.33,0,0,1-5-2.61V88.85c.76-.53,1.48-1.06,2.09-1.51ZM282,75.74a45.13,45.13,0,0,1-9.66-7.85,42.41,42.41,0,0,1-9.18,7.85H271V72h2.84v3.75Zm-17.47,5.5h16V78.05h-16Zm0,5.49h16V83.4h-16ZM273.3,89a14.32,14.32,0,0,0,3.45,3.68A55.67,55.67,0,0,0,283,89Z"/><path class="cls-1" d="M298.85,84.8c2-2,5.2-6.29,7.36-8.91s4.2-2.92,6.67-.42c2.2,2.28,5.15,6,7.58,8.61,2.27,2.5,6,6.44,9.32,9.47l-2.39,2.69c-2.84-2.69-6.29-6.55-8.86-9.47-2.43-2.77-5.27-6.41-7-8.3-1.6-1.71-2.32-1.48-3.57.11-1.74,2.2-4.89,6.33-6.74,8.64-.8,1-1.63,2.2-2.24,3l-2.77-2.88A19.45,19.45,0,0,0,298.85,84.8Zm25.21-7.2-2.24,1a39.84,39.84,0,0,0-3.56-6.1l2.2-1A66.73,66.73,0,0,1,324.06,77.6Zm5-2-2.16,1.06a44,44,0,0,0-3.67-6l2.12-1A49.45,49.45,0,0,1,329.06,75.55Z"/><path class="cls-1" d="M344.19,94.61c3.11-.68,6.48-1.47,9.7-2.23l.27,2.69c-6,1.48-12.32,3-17,4.09l-.91-2.92c1.48-.26,3.22-.6,5.08-1V65.62h2.84V77.07h8.49v2.69h-8.49Zm22.17,1.9c1.75,0,2-1.36,2.24-6.82a7.61,7.61,0,0,0,2.65,1.21c-.38,6.18-1.13,8.3-4.74,8.3h-6.33c-3.67,0-4.66-1.1-4.66-5.19V65.62h2.85V79.11a53.73,53.73,0,0,0,9.32-5.49L369.77,76a79.31,79.31,0,0,1-11.4,5.84V94.05c0,2.08.3,2.46,2.12,2.46Z"/><path class="cls-1" d="M380,84.8c2-2,5.2-6.29,7.36-8.91s4.2-2.92,6.67-.42c2.2,2.28,5.15,6,7.58,8.61,2.27,2.5,5.95,6.44,9.32,9.47l-2.39,2.69c-2.84-2.69-6.29-6.55-8.87-9.47-2.42-2.77-5.26-6.41-7.05-8.3-1.59-1.71-2.31-1.48-3.56.11-1.74,2.2-4.89,6.33-6.74,8.64-.8,1-1.63,2.2-2.24,3l-2.77-2.88A19.45,19.45,0,0,0,380,84.8Zm25.21-7.2-2.24,1a40.67,40.67,0,0,0-3.56-6.1l2.2-1A66.73,66.73,0,0,1,405.18,77.6Zm5-2L408,76.61a43.08,43.08,0,0,0-3.68-6l2.13-1A49.45,49.45,0,0,1,410.18,75.55Z"/><path class="cls-1" d="M416.89,93.82l1.75-2.28a9.17,9.17,0,0,0,6.9,3.19c3.29,0,5.64-2,5.64-5.16S429,84,422.54,84V81.35c5.72,0,7.7-2.31,7.7-5.31,0-2.69-1.82-4.39-4.7-4.47a8.69,8.69,0,0,0-5.77,2.77l-1.85-2.2a11.13,11.13,0,0,1,7.77-3.34c4.66,0,8.07,2.5,8.07,7,0,3.37-2,5.61-5,6.71v.15a7.15,7.15,0,0,1,5.91,7c0,5-4,7.92-8.91,7.92A11.51,11.51,0,0,1,416.89,93.82Z"/><path class="cls-1" d="M450.78,66.3a56.78,56.78,0,0,1-3,7.35V100h-2.69V78.51a38.76,38.76,0,0,1-3.68,5,16.52,16.52,0,0,0-1.48-2.84c3.38-3.68,6.41-9.37,8.3-15.09Zm23.31,1.4v32H471.4V97.72H454.72V100h-2.61V67.7ZM471.4,95.22v-25H454.72v25Zm-7.13-17.4V82h4.36V92.08h-10.8V82H462V77.82h-5.68V75.66H462V71.38h2.31v4.28h5.84v2.16Zm2.13,6.3H460V90h6.41Z"/><path class="cls-1" d="M501.23,86.28a35.58,35.58,0,0,0,6.75-9c-.64.16-7.62,1.56-14.33,2.92V91.43c0,2.62,1,3.45,5.5,3.45A60.88,60.88,0,0,0,511,93.78L510.82,97a86.23,86.23,0,0,1-11.9.76c-7.05,0-8.34-1.82-8.34-5.57V80.78c-3.83.76-7.2,1.48-8.71,1.82l-.61-3.18c1.7-.23,5.3-.88,9.32-1.63V71.3a21.21,21.21,0,0,0-.26-3.48h3.6a21.56,21.56,0,0,0-.27,3.48v5.92c6.45-1.25,13.08-2.62,14.67-3a7.76,7.76,0,0,0,2-.68l2.24,1.74a16,16,0,0,0-1,1.52,57.65,57.65,0,0,1-7.73,11Z"/><path class="cls-1" d="M526.44,85.75l-2.88,1.06a68,68,0,0,0-3.37-8.53l2.8-1.1C523.75,78.81,525.72,83.77,526.44,85.75Zm19.07-8.34c-.27.79-.42,1.4-.57,1.89a29.64,29.64,0,0,1-5.38,11.64,29.24,29.24,0,0,1-12.36,9l-2.5-2.58a25.19,25.19,0,0,0,12.32-8,26,26,0,0,0,5.23-13Zm-10.73,6.06-2.8,1a71.37,71.37,0,0,0-3-8.23l2.77-1C532.43,76.8,534.29,81.8,534.78,83.47Z"/><path class="cls-1" d="M574.92,87.37A100.58,100.58,0,0,0,560,81.27l0,12.51c0,1.21.08,3.22.23,4.47h-3.64a41.84,41.84,0,0,0,.23-4.47V71.72a24.69,24.69,0,0,0-.3-3.94h3.71c-.11,1.17-.26,2.8-.26,3.94V77.9a123.8,123.8,0,0,1,16.18,6.25Z"/><path class="cls-1" d="M55,2.55a1.29,1.29,0,0,1-.12.59,4.3,4.3,0,0,1-.38.59L54,4.36a.88.88,0,0,0-.18.5.8.8,0,0,1,0,.21c0,.1-.07.24-.11.44a8.9,8.9,0,0,1-.26.87,4.34,4.34,0,0,0-.15.49,11.87,11.87,0,0,0-.41,2,17.78,17.78,0,0,0-.12,2.16q0,2.19-.18,4.44c0,.75-.1,1.54-.19,2.35s-.19,1.69-.28,2.6-.2,1.77-.29,2.6-.18,1.63-.28,2.4c-.13,1.38-.24,2.82-.31,4.31s-.1,3-.1,4.66q0,1.64.06,4.17c0,1.68.08,3.63.12,5.84a8.17,8.17,0,0,0,1.09.89,7.91,7.91,0,0,1,1.2.91,1.3,1.3,0,0,1,.37,1A3,3,0,0,1,52.8,49.4a3.62,3.62,0,0,1-2.34,1.06q-3,0-4-4a33.59,33.59,0,0,1-1-8.27,19.92,19.92,0,0,1,.18-2.66c.12-.89.23-1.79.33-2.69.06-.64.15-1.55.28-2.74s.29-2.68.49-4.46.34-3.14.44-4.07.16-1.49.18-1.65,0-.36.07-.68.08-.73.14-1.24c.13-1,.23-1.92.29-2.67s.09-1.34.09-1.77c0-.14,0-.27.05-.39s0-.28,0-.47a2.09,2.09,0,0,0-.3-.77l-1.18,1.6L45,15.58c-1.17,1.54-2.11,2.81-2.84,3.82-.38.49-.75,1-1.11,1.48s-.74,1-1.12,1.48l-1.28,1.7c-.49.65-1,1.38-1.62,2.21-1.28,1.78-2.55,3.58-3.82,5.42l-.29.44-.54.77A12.76,12.76,0,0,1,31.59,34c-1.38,1.82-2.65,2.89-3.82,3.23a6.24,6.24,0,0,1-3.88-2.61l-.46-.83c-.12-.23-.25-.46-.37-.66s-.23-.42-.35-.63l-.39-.66c-.39-.69-.75-1.32-1.06-1.9l-.86-1.54c-.49-.91-1-1.88-1.45-2.91s-.91-2.12-1.31-3.25c-.23-.75-.43-1.36-.59-1.85s-.27-.83-.35-1.05-.18-.55-.3-.95-.26-.86-.41-1.42-.33-1.11-.52-1.69l-.58-1.74c-.39-1.25-.61-1.92-.65-2-.14.56-.33,1.26-.58,2.11s-.5,1.75-.77,2.7-.53,1.93-.78,2.89-.48,1.84-.65,2.61-.38,1.53-.55,2.23-.33,1.37-.49,2c-.34,1.23-.84,3.15-1.51,5.78a19.11,19.11,0,0,0-.65,4.91,13.29,13.29,0,0,0,.09,1.35c.06.56.15,1.25.29,2.06s.24,1.5.3,2.13S9,43.45,9,43.92a3.66,3.66,0,0,1-.8,1.92C7.69,46.6,7.17,47,6.66,47a7.69,7.69,0,0,1-.8-.06A8,8,0,0,0,5,46.85a2.54,2.54,0,0,1-2.4-2,11.57,11.57,0,0,1-.74-4.09A7.7,7.7,0,0,1,2.19,39c.1-.39.21-.87.35-1.43s.3-1.19.48-1.88.34-1.24.44-1.63l.18-.71c.43-1.68.83-3.19,1.18-4.52s.67-2.51.95-3.54.56-2.1.86-3.21.61-2.3,1-3.54q.58-2.13,1-3.6a28.77,28.77,0,0,0,.69-2.89q.24-1.62.36-2.19a13.68,13.68,0,0,1,.41-1.51c.18-.51.38-1,.6-1.54.43-1.06,1-1.6,1.65-1.6a11.75,11.75,0,0,1,3.5.42,3.77,3.77,0,0,1,2.13,1.92A11.3,11.3,0,0,1,18.65,9a11.14,11.14,0,0,1,.51,1.44c.13.47.28,1,.44,1.64s.32,1.33.47,2.12a6.46,6.46,0,0,0,.36,1.21c.16.4.32.84.5,1.34a57.28,57.28,0,0,0,6.84,13.82c.1-.09.42-.33.95-.71.26-.19.48-.37.67-.53a3.36,3.36,0,0,0,.46-.47c.27-.34.56-.72.85-1.14a13.52,13.52,0,0,0,.86-1.41c.6-1,1.15-2,1.68-2.87A14,14,0,0,1,35,21q.47-.51,1.11-1.29l1.47-1.85L39,16l1.05-1.3c.34-.37.65-.74.94-1.09l.81-1c.26-.34.55-.72.87-1.16s.69-.91,1.08-1.45l.86-1,.52-.64.37-.49c.36-.49.75-1,1.17-1.69s.88-1.36,1.38-2.19,1-1.54,1.36-2.15.73-1.1,1-1.49A.68.68,0,0,1,51.08,0a2.59,2.59,0,0,1,1.09.24,7.44,7.44,0,0,1,1.32.67,5.32,5.32,0,0,1,1.08.84C54.87,2.05,55,2.31,55,2.55Z"/><path class="cls-1" d="M100.74,27a3.88,3.88,0,0,1-.65,1.57A55.62,55.62,0,0,1,96.64,33a52.16,52.16,0,0,1-4.06,4.22A50.76,50.76,0,0,1,88.11,41a35.07,35.07,0,0,1-4.69,3,24.46,24.46,0,0,1-4.73,1.94,15.35,15.35,0,0,1-4.54.66,9.67,9.67,0,0,1-7.36-2.76C65,42,64.17,39.19,64.17,35.48a28.73,28.73,0,0,1,1.44-9A24.88,24.88,0,0,1,70.51,18,11.91,11.91,0,0,1,72,16.65a12.34,12.34,0,0,1,1.72-1.16,9.93,9.93,0,0,1,1.87-.8,8.08,8.08,0,0,1,1.94-.35c.15,0,.37,0,.65.05A6.15,6.15,0,0,1,80,15a2,2,0,0,1,.71.55A8.39,8.39,0,0,1,82,17.47a5.68,5.68,0,0,1,.55,2.23,8.41,8.41,0,0,1-.31,2.68A10.24,10.24,0,0,1,81,25.07a17.28,17.28,0,0,1-2.29,2.84,45.27,45.27,0,0,1-3.44,3.16c-.84.71-1.79,1.49-2.82,2.35a41.1,41.1,0,0,1-3.75,2.71A5.47,5.47,0,0,0,70.4,40.5,7,7,0,0,0,75.16,42a13.35,13.35,0,0,0,3.4-.45,22.17,22.17,0,0,0,3.38-1.17,28.68,28.68,0,0,0,3.21-1.66c1-.62,2-1.26,2.92-1.91q2.52-1.83,4.56-3.65t4.06-3.84l1.59-1.6a4.21,4.21,0,0,1,2.11-1.27C100.62,26.45,100.74,26.64,100.74,27ZM78.12,21.12a5.2,5.2,0,0,0-.14-.88,2.52,2.52,0,0,0-.31-.75A1.83,1.83,0,0,0,77.2,19a1,1,0,0,0-.62-.19,4.65,4.65,0,0,0-3.14,1.91,20.44,20.44,0,0,0-3,4.81A9.19,9.19,0,0,0,69.9,27c-.17.54-.33,1.09-.47,1.65s-.28,1.13-.39,1.68-.2,1-.28,1.48l2.84-2.13a31,31,0,0,0,2.43-2c.47-.43,1-.9,1.45-1.4a16.71,16.71,0,0,0,1.35-1.59,7.91,7.91,0,0,0,1-1.72A4.35,4.35,0,0,0,78.12,21.12Z"/><path class="cls-1" d="M125.71,29.5A10.48,10.48,0,0,1,124,33.85a15.69,15.69,0,0,1-.9,1.35c-.39.52-.82,1.06-1.29,1.63l-1.48,1.71c-.52.59-1,1.13-1.51,1.62a28.24,28.24,0,0,1-2.48,2.19,24,24,0,0,1-2.84,1.93,16.19,16.19,0,0,1-3.08,1.37,9.95,9.95,0,0,1-6.94-.22,8.09,8.09,0,0,1-3.1-2.28,11.1,11.1,0,0,1-2.07-3.86,18,18,0,0,1-.76-5.5c0-1.44.07-2.94.21-4.51s.32-3.15.53-4.73.46-3.14.73-4.69.54-3.05.81-4.49c.18-1,.33-1.79.46-2.43s.24-1.21.34-1.74.19-1.07.27-1.62l.3-2c.07-.55.15-1,.22-1.46s.12-.78.16-1a5.83,5.83,0,0,1,.4-1.37,4.62,4.62,0,0,1,.71-1.15,3.42,3.42,0,0,1,1-.8,2.62,2.62,0,0,1,1.25-.3,2.22,2.22,0,0,1,2.1,1.34c-.12.61-.24,1.2-.37,1.76s-.24,1.16-.34,1.79q-.74,3.74-1.22,6c-.31,1.54-.54,2.63-.68,3.26-.23,1.24-.48,2.59-.75,4s-.52,2.91-.74,4.41-.41,3-.55,4.44-.21,2.82-.21,4.09a19.17,19.17,0,0,0,.33,3.71,8.69,8.69,0,0,0,1,2.86A5.23,5.23,0,0,0,105.44,41a5.54,5.54,0,0,0,2.77.65,8.39,8.39,0,0,0,3.49-.78,17.4,17.4,0,0,0,3.3-2,28.14,28.14,0,0,0,3-2.68c.95-1,1.81-1.92,2.6-2.83l1.66-1.94c.48-.54.87-1,1.19-1.38s.54-.6.87-.92a1.41,1.41,0,0,1,.9-.47C125.55,28.64,125.71,28.93,125.71,29.5Z"/><path class="cls-1" d="M164.62,22.63a2.57,2.57,0,0,1-.22,1,5.15,5.15,0,0,1-.58,1,8.5,8.5,0,0,1-.78.91,4.58,4.58,0,0,1-.88.7,10.64,10.64,0,0,1-2.95,1.2,18.06,18.06,0,0,1-4.72.52,18.64,18.64,0,0,1-4.53-.58,14.86,14.86,0,0,1-4.38-1.91,5.83,5.83,0,0,1,.87,2,11.49,11.49,0,0,1,.19,2.26,12.18,12.18,0,0,1-1.18,5,22.14,22.14,0,0,1-6.87,8.74,14.38,14.38,0,0,1-2.53,1.49,17.4,17.4,0,0,1-2.89,1,22.36,22.36,0,0,1-3.14.59,27.67,27.67,0,0,1-3.29.19,3.92,3.92,0,0,1-2.25-.74,8.74,8.74,0,0,1-1.95-1.8,9.57,9.57,0,0,1-1.38-2.28,5.77,5.77,0,0,1-.52-2.19,16.35,16.35,0,0,1,.64-4.61A22.71,22.71,0,0,1,123,30.87a33,33,0,0,1,2.5-4c1-1.31,2-2.62,3-3.93a20.16,20.16,0,0,1,2-2.14,19.06,19.06,0,0,1,2.38-1.88,13.43,13.43,0,0,1,2.52-1.35,6.37,6.37,0,0,1,2.43-.52,4.45,4.45,0,0,1,1.63.27,4.77,4.77,0,0,1,1.28.75A10.24,10.24,0,0,1,142,19.28c.42.5.91,1,1.46,1.66a5.73,5.73,0,0,0,1.47.78,24.06,24.06,0,0,0,2.84,1c1.1.33,2.25.61,3.45.86a16.31,16.31,0,0,0,3.29.37c1,0,1.9,0,2.73-.1a23.3,23.3,0,0,0,2.41-.34,16.43,16.43,0,0,0,2.32-.66c.77-.27,1.6-.61,2.49-1A3,3,0,0,1,164.62,22.63ZM142.5,29.74a10.82,10.82,0,0,0-.12-1.89,8.48,8.48,0,0,0-.52-2,4.25,4.25,0,0,0-1-1.52,1.68,1.68,0,0,0-1.49-.48,11.76,11.76,0,0,1-2.25-1.12,2.87,2.87,0,0,0-1.36-.6,1.61,1.61,0,0,0-.77.23,4.34,4.34,0,0,0-.86.6,9.75,9.75,0,0,0-.91.91q-.45.51-.9,1.08c-.59.77-1.14,1.47-1.64,2.1s-1,1.26-1.42,1.88-.88,1.27-1.29,2-.83,1.44-1.25,2.29a8.33,8.33,0,0,0-.47,1.27q-.21.75-.36,1.53c-.1.52-.17,1-.22,1.57s-.07,1-.07,1.4a2.35,2.35,0,0,0,.26.94,5.25,5.25,0,0,0,.7,1.06,4.3,4.3,0,0,0,1,.88,2,2,0,0,0,1.08.35,20.88,20.88,0,0,0,2.57-.13,8.88,8.88,0,0,0,2-.47,9.64,9.64,0,0,0,1.83-.94c.61-.39,1.32-.91,2.13-1.54a10.79,10.79,0,0,0,1.17-1q.57-.6,1.14-1.26c.37-.45.73-.9,1.06-1.36s.66-.93,1-1.38A4,4,0,0,0,142,33a10.32,10.32,0,0,0,.33-1.3,11.93,11.93,0,0,0,.16-1.19C142.48,30.15,142.5,29.89,142.5,29.74Z"/><path class="cls-1" d="M209.25,26.27a3.78,3.78,0,0,1-.19,1.14,10.18,10.18,0,0,1-.48,1.16,12.33,12.33,0,0,1-.63,1.12l-.69,1a26.58,26.58,0,0,1-2,2.71c-.77.92-1.59,1.81-2.47,2.68s-1.78,1.69-2.71,2.46a32.19,32.19,0,0,1-2.73,2l-2,1.34A15.48,15.48,0,0,1,193.38,43a12.12,12.12,0,0,1-2,.71A9.51,9.51,0,0,1,189,44a6.22,6.22,0,0,1-4-1.24,5.86,5.86,0,0,1-1.34-1.62,13.1,13.1,0,0,1-1-2.2,23,23,0,0,1-.74-2.58c-.21-.91-.38-1.81-.52-2.7-.18-1.1-.34-2.09-.5-3a15,15,0,0,0-.55-2.22,4.15,4.15,0,0,0-.75-1.4,1.52,1.52,0,0,0-1.16-.48,5.24,5.24,0,0,0-1.07.11,3.46,3.46,0,0,0-1,.48,7.47,7.47,0,0,0-1.2,1c-.43.43-.94,1-1.52,1.71s-1.25,1.58-2,2.61-1.63,2.25-2.64,3.67q-.74,1-1.74,2.28c-.67.83-1.36,1.62-2.06,2.37a25,25,0,0,1-2.06,2,5.21,5.21,0,0,1-1.78,1.1c-1.73-.37-2.6-2.54-2.6-6.49,0-1,.12-2.63.35-4.76.12-1,.26-2,.42-3s.35-2.11.59-3.17.51-2.08.81-3.08A19.25,19.25,0,0,1,162,20.61a3.66,3.66,0,0,1,.62-.93,2.26,2.26,0,0,1,.66-.5A2.31,2.31,0,0,1,164,19a6.34,6.34,0,0,1,.76,0c.31,0,.6.21.84.65a3.6,3.6,0,0,1,.37,1.8,7.11,7.11,0,0,1-.12,1.34,9.08,9.08,0,0,1-.32,1.27L165,25.4c-.15.5-.31,1.08-.47,1.73l-.4,1.78c-.15.65-.29,1.31-.41,2s-.24,1.33-.33,2a12.51,12.51,0,0,0-.13,1.73,3.93,3.93,0,0,0,.17,1.1q.84-.09,2.73-2.49l2.15-2.67c.78-1,1.62-2,2.53-3.19.67-.87,1.34-1.68,2-2.43a15.17,15.17,0,0,1,2.06-2,9.12,9.12,0,0,1,2.26-1.33,6.87,6.87,0,0,1,2.65-.49,4.62,4.62,0,0,1,2.56.66,5,5,0,0,1,1.65,1.84,10.8,10.8,0,0,1,1,2.8,35.7,35.7,0,0,1,.55,3.58c.12,1.11.23,2.2.34,3.29a12.32,12.32,0,0,0,.63,2.92,5.12,5.12,0,0,0,1.37,2.08,3.64,3.64,0,0,0,2.54.8,6.73,6.73,0,0,0,2.67-.59A17,17,0,0,0,196,36.86a33.81,33.81,0,0,0,3.18-2.48c1.1-.94,2.23-2,3.4-3.1a20.33,20.33,0,0,0,1.49-1.65c.54-.66,1.08-1.3,1.6-1.91a21.24,21.24,0,0,1,1.47-1.57,1.87,1.87,0,0,1,1.09-.65,1.68,1.68,0,0,1,.58.18A.6.6,0,0,1,209.25,26.27Z"/><path class="cls-1" d="M273.75,20.58a11.56,11.56,0,0,1-2.82,7.29,32,32,0,0,1-7.13,6.46c-1.44,1-2.91,1.87-4.4,2.71s-3,1.6-4.57,2.29-3,1.3-4.4,1.82-2.66,1-3.87,1.32a43.68,43.68,0,0,0-5.33,2.13l-.59.31-.86.46a5.45,5.45,0,0,1-1.57.68,20.29,20.29,0,0,1-3.4.59,3.62,3.62,0,0,1-2.43-.85A4.19,4.19,0,0,1,231,43.51c-.19-.83-.34-1.52-.42-2.08a8.58,8.58,0,0,1-.14-1.27,6,6,0,0,1,.18-1.21,5.66,5.66,0,0,0,.21-1.4,10.17,10.17,0,0,1,.06-1c0-.38.09-.82.17-1.32l.2-1.2c0-.3.08-.53.1-.69.08-.49.23-1.43.44-2.8s.5-3.19.83-5.46c.2-1.21.43-2.48.68-3.82s.56-2.78.89-4.3c0-.14.09-.31.14-.53s.11-.48.19-.77c.16-.59.27-1.1.35-1.51a6.32,6.32,0,0,0,.12-1.19,1.5,1.5,0,0,0-.35-1,5.06,5.06,0,0,0-1-.86,5.19,5.19,0,0,1-.87-.79,1.41,1.41,0,0,1-.26-.93,3.69,3.69,0,0,1,1-2.37,2.89,2.89,0,0,1,2.16-1.21,34.81,34.81,0,0,1,3.65.26,30.88,30.88,0,0,0,3.14.27q1.5,0,4.59-.18c2-.12,3.55-.17,4.56-.17a45.15,45.15,0,0,1,8.08.68,21.13,21.13,0,0,1,6.84,2.42A26.85,26.85,0,0,1,269,10.75a11.34,11.34,0,0,1,3.17,4.44A13.61,13.61,0,0,1,273.75,20.58Zm-5.15,0a7.32,7.32,0,0,0-3-6.3,16.71,16.71,0,0,0-7.11-2.85c-1.36-.21-2.75-.38-4.16-.5s-2.86-.18-4.34-.18c-.46,0-.93,0-1.42.05l-1.57.1-3.08.3c-1,.1-2,.16-3.14.2-.28,1.31-.55,2.66-.83,4.08s-.55,2.88-.83,4.42q-.09.57-.27,1.47c-.12.6-.26,1.35-.44,2.23s-.31,1.7-.46,2.43-.27,1.42-.37,2-.2,1.29-.3,2-.18,1.37-.26,2.07-.15,1.39-.2,2.07-.07,1.32-.07,1.91a8,8,0,0,0,.68,3.53,30.94,30.94,0,0,0,4.53-1c.77-.22,1.58-.46,2.42-.74s1.71-.58,2.62-.92l2.44-.87c.7-.25,1.31-.45,1.82-.61q9.09-3,11.88-5.6a13.62,13.62,0,0,0,1-1.06c.38-.44.79-1,1.25-1.57a27.09,27.09,0,0,0,2.31-3.7A7.09,7.09,0,0,0,268.6,20.58Z"/><path class="cls-1" d="M322.58,22.63a2.57,2.57,0,0,1-.22,1,5.15,5.15,0,0,1-.58,1,7.49,7.49,0,0,1-.78.91,4.58,4.58,0,0,1-.88.7,10.69,10.69,0,0,1-2.94,1.2,18.19,18.19,0,0,1-4.73.52,18.64,18.64,0,0,1-4.53-.58,14.86,14.86,0,0,1-4.38-1.91,5.64,5.64,0,0,1,.87,2,11.43,11.43,0,0,1,.2,2.26,12.2,12.2,0,0,1-1.19,5,22.14,22.14,0,0,1-6.87,8.74A14,14,0,0,1,294,44.94a17.4,17.4,0,0,1-2.89,1,22.36,22.36,0,0,1-3.14.59,27.5,27.5,0,0,1-3.28.19,3.92,3.92,0,0,1-2.25-.74,8.57,8.57,0,0,1-2-1.8,9.91,9.91,0,0,1-1.38-2.28,5.74,5.74,0,0,1-.51-2.19,16.72,16.72,0,0,1,.63-4.61A23.4,23.4,0,0,1,281,30.87a33,33,0,0,1,2.5-4q1.43-2,3-3.93a21.23,21.23,0,0,1,2-2.14,19.15,19.15,0,0,1,2.39-1.88,13.05,13.05,0,0,1,2.51-1.35,6.37,6.37,0,0,1,2.43-.52,4.42,4.42,0,0,1,1.63.27,5,5,0,0,1,1.29.75A10.21,10.21,0,0,1,300,19.28c.43.5.92,1,1.47,1.66a5.6,5.6,0,0,0,1.46.78,23.63,23.63,0,0,0,2.85,1c1.09.33,2.24.61,3.45.86a16.22,16.22,0,0,0,3.28.37c1,0,1.9,0,2.73-.1a22.92,22.92,0,0,0,2.41-.34,16.56,16.56,0,0,0,2.33-.66c.77-.27,1.6-.61,2.48-1A3,3,0,0,1,322.58,22.63Zm-22.12,7.11a10.82,10.82,0,0,0-.12-1.89,8.48,8.48,0,0,0-.52-2,4.23,4.23,0,0,0-1-1.52,1.71,1.71,0,0,0-1.5-.48,11.76,11.76,0,0,1-2.25-1.12,2.83,2.83,0,0,0-1.36-.6,1.61,1.61,0,0,0-.77.23,4.65,4.65,0,0,0-.86.6,8.63,8.63,0,0,0-.9.91c-.31.34-.61.7-.91,1.08-.59.77-1.14,1.47-1.64,2.1s-1,1.26-1.42,1.88-.88,1.27-1.29,2-.83,1.44-1.24,2.29a7.36,7.36,0,0,0-.48,1.27c-.14.5-.25,1-.35,1.53s-.18,1-.23,1.57-.07,1-.07,1.4a2.23,2.23,0,0,0,.27.94,5.19,5.19,0,0,0,.69,1.06,4.52,4.52,0,0,0,1,.88,2.05,2.05,0,0,0,1.08.35,21.05,21.05,0,0,0,2.58-.13,9.16,9.16,0,0,0,2-.47,9.57,9.57,0,0,0,1.82-.94c.61-.39,1.32-.91,2.13-1.54a9.19,9.19,0,0,0,1.17-1q.59-.6,1.14-1.26c.38-.45.73-.9,1.07-1.36s.65-.93.94-1.38a4.33,4.33,0,0,0,.51-1.1,10.27,10.27,0,0,0,.32-1.3c.08-.43.14-.83.17-1.19S300.46,29.89,300.46,29.74Z"/><path class="cls-1" d="M368.57,23.49a7,7,0,0,1-.56,2.56,10.41,10.41,0,0,1-1.54,2.68,36.37,36.37,0,0,1-2.8,3.17c-1,1-2.12,2.05-3.24,3s-2.27,1.85-3.44,2.67a34.61,34.61,0,0,1-3.39,2.13,20.7,20.7,0,0,1-3.09,1.42,7.65,7.65,0,0,1-2.55.52,5.88,5.88,0,0,1-2.43-.47,5.77,5.77,0,0,1-1.79-1.29A7.54,7.54,0,0,1,342.48,38a19.72,19.72,0,0,1-.87-2.31,22.79,22.79,0,0,1-.61-2.5c-.16-.86-.3-1.7-.44-2.51-.5.75-1.05,1.6-1.67,2.54s-1.28,1.89-2,2.85-1.37,1.9-2.07,2.8-1.36,1.68-2,2.36a24.11,24.11,0,0,1-2.27,2.1,17.22,17.22,0,0,1-2.6,1.76,15,15,0,0,1-2.89,1.21,10.5,10.5,0,0,1-3.11.46,4.23,4.23,0,0,1-3.67-1.92A7.73,7.73,0,0,1,317,40.37a16.66,16.66,0,0,1,.2-2.48c.13-.85.27-1.71.44-2.56s.33-1.68.49-2.5a21,21,0,0,0,.33-2.33c0-.29,0-.66,0-1.11s0-1,0-1.55V26.37c0-.44,0-.87,0-1.27s.05-.8.09-1.2.1-.81.18-1.24a3.71,3.71,0,0,1,.8-1.75,2.44,2.44,0,0,1,2-.74q2.72,0,2.72,3.76a8.54,8.54,0,0,1-.13,1.44c-.09.52-.2,1.06-.31,1.63s-.25,1.13-.37,1.71-.25,1.15-.35,1.71c-.19.77-.39,1.54-.59,2.31S322.2,34.25,322,35s-.31,1.43-.41,2.11a14.63,14.63,0,0,0-.14,1.88,4.75,4.75,0,0,0,.12,1,4,4,0,0,0,.35,1,2.36,2.36,0,0,0,.64.82,1.39,1.39,0,0,0,.93.32,6.6,6.6,0,0,0,3.17-.87,16.38,16.38,0,0,0,3.06-2.16,30,30,0,0,0,2.76-2.76c.86-1,1.61-1.87,2.26-2.68a21.64,21.64,0,0,0,1.88-2.87c.63-1.1,1.22-2.25,1.78-3.45s1.1-2.38,1.61-3.57,1-2.25,1.4-3.2c.93-2.17,1.75-3.25,2.48-3.25a1.6,1.6,0,0,1,1.07.25,1.42,1.42,0,0,1,.27,1,12.8,12.8,0,0,1-.14,1.6c-.09.67-.19,1.37-.31,2.1s-.22,1.43-.31,2.1a12.62,12.62,0,0,0-.13,1.57c0,.34,0,.75,0,1.23s0,1,.05,1.5.05,1,.1,1.52.12.94.19,1.29a12.71,12.71,0,0,0,.42,1.53,11.78,11.78,0,0,0,.75,1.76A5.68,5.68,0,0,0,347,36.26a2.14,2.14,0,0,0,1.51.61,8.6,8.6,0,0,0,3.63-.95,27.34,27.34,0,0,0,4.16-2.44,48.51,48.51,0,0,0,4.24-3.35q2.1-1.85,3.91-3.65c.47-.48,1-.95,1.43-1.42a16,16,0,0,1,1.34-1.19,4.76,4.76,0,0,1,1-.62C368.45,23.15,368.57,23.23,368.57,23.49Z"/><path class="cls-1" d="M408.46,25.92a3,3,0,0,1-.83,1.92,11.1,11.1,0,0,1-1.54,1.49,28.79,28.79,0,0,1-2.42,1.8c-1,.65-2,1.32-3.08,2s-2.26,1.4-3.5,2.13l-3.67,2.16c-1.21.72-2.43,1.42-3.67,2.11s-2.28,1.28-3.1,1.77l-1.91,1.16a8.68,8.68,0,0,0-1.37,1.14l-1.71,1.7a46.17,46.17,0,0,1-5.33,4.56A5.88,5.88,0,0,1,372.75,51a4.49,4.49,0,0,1-2-.45,1.45,1.45,0,0,1-.95-1.39,1.52,1.52,0,0,1,.47-1.07c.59-.59,1.14-1.09,1.64-1.5s1-.81,1.56-1.19,1.11-.76,1.75-1.15,1.37-.88,2.22-1.46c1-.69,1.81-1.21,2.37-1.58s.87-.58.94-.64A32.42,32.42,0,0,0,384,37.92a21.06,21.06,0,0,0,2.44-2.74,10.34,10.34,0,0,0,2.1-6.36,7.24,7.24,0,0,0-.25-1.66,10.92,10.92,0,0,0-.72-2,7.35,7.35,0,0,0-1.14-1.72,2,2,0,0,0-1.5-.72,4.69,4.69,0,0,0-1.75.34,9.4,9.4,0,0,0-1.71.9,14.44,14.44,0,0,0-1.68,1.29l-1.61,1.46a35.38,35.38,0,0,0-3,3.35c-1,1.23-2,2.61-3.09,4.15a17.87,17.87,0,0,0-1.39,2.37,21.73,21.73,0,0,0-1,2.35,18.16,18.16,0,0,0-.6,2.15,10.79,10.79,0,0,0-.24,1.72l-.12,2.42a1.76,1.76,0,0,1-.69,1.35,2.48,2.48,0,0,1-1.56.49,2,2,0,0,1-1.91-1,6.61,6.61,0,0,1-.58-3.13c0-.19,0-.53,0-1s0-1,.06-1.63.05-1.26.08-1.93.05-1.3.07-1.89,0-1.11.06-1.56,0-.74.06-.9c.06-1.24.13-2.44.22-3.58s.19-2.31.3-3.5.23-2.41.38-3.67.31-2.63.49-4.09.35-2.85.52-4.17.34-2.6.52-3.82.38-2.43.6-3.62.5-2.36.82-3.55l.24-.8A8.07,8.07,0,0,1,368.81,2a7.66,7.66,0,0,1,.58-1.07.82.82,0,0,1,.66-.47l.54,0a4.56,4.56,0,0,1,.63,0,3.07,3.07,0,0,1,.67.14,1.47,1.47,0,0,1,.59.42,2.48,2.48,0,0,1,.43.67,2.85,2.85,0,0,1,.22.74,5.94,5.94,0,0,1,.08.71c0,.22,0,.42,0,.57a8,8,0,0,1-.29,1.56c-.2.76-.44,1.77-.71,3q-.75,3.33-1.44,6.82T369.67,22c-.1.77-.2,1.61-.3,2.53s-.19,1.86-.28,2.84-.17,2-.24,3-.11,2-.13,2.9c.61-.95,1.24-2,1.9-3.21A20.42,20.42,0,0,1,373,26.6a34.79,34.79,0,0,1,2.81-3,28.79,28.79,0,0,1,3-2.52,10.49,10.49,0,0,1,6-2.37,6,6,0,0,1,3.17.77,8.87,8.87,0,0,1,2.59,2.19,10.48,10.48,0,0,1,1.72,3A9.42,9.42,0,0,1,393,28a15.75,15.75,0,0,1-.86,3.82,11.4,11.4,0,0,1-.83,2.09l-.74,1.28,2.4-1.54L395.55,32l2.62-1.64c.86-.54,1.65-1,2.36-1.45.12-.08.35-.24.71-.46l1.45-.94,1.72-1.12c.53-.36,1-.67,1.48-.95a6.16,6.16,0,0,1,1.6-.89.78.78,0,0,1,.75.45A2,2,0,0,1,408.46,25.92Z"/><path class="cls-1" d="M433.13,29.5a10.34,10.34,0,0,1-1.69,4.35,12.06,12.06,0,0,1-.9,1.35c-.38.52-.81,1.06-1.29,1.63s-1,1.13-1.48,1.71-1,1.13-1.51,1.62a28.07,28.07,0,0,1-2.47,2.19A24.89,24.89,0,0,1,421,44.28a16.48,16.48,0,0,1-3.08,1.37,10,10,0,0,1-6.95-.22,8.14,8.14,0,0,1-3.09-2.28,11.28,11.28,0,0,1-2.08-3.86,18,18,0,0,1-.75-5.5c0-1.44.07-2.94.21-4.51s.31-3.15.53-4.73.46-3.14.72-4.69.54-3.05.82-4.49c.18-1,.33-1.79.46-2.43s.24-1.21.34-1.74.19-1.07.26-1.62l.3-2c.08-.55.15-1,.22-1.46s.13-.78.17-1a5.4,5.4,0,0,1,.4-1.37,4.35,4.35,0,0,1,.71-1.15,3.18,3.18,0,0,1,1-.8,2.58,2.58,0,0,1,1.24-.3,2.22,2.22,0,0,1,2.1,1.34c-.11.61-.24,1.2-.37,1.76s-.24,1.16-.34,1.79q-.74,3.74-1.21,6c-.32,1.54-.54,2.63-.68,3.26-.24,1.24-.49,2.59-.76,4s-.51,2.91-.74,4.41-.41,3-.54,4.44-.21,2.82-.21,4.09a20,20,0,0,0,.32,3.71A8.48,8.48,0,0,0,411,39.15,5.2,5.2,0,0,0,412.86,41a5.54,5.54,0,0,0,2.77.65,8.35,8.35,0,0,0,3.49-.78,17.47,17.47,0,0,0,3.31-2,29,29,0,0,0,3-2.68c.95-1,1.82-1.92,2.61-2.83.63-.75,1.18-1.4,1.66-1.94s.87-1,1.18-1.38.55-.6.87-.92a1.41,1.41,0,0,1,.91-.47C433,28.64,433.13,28.93,433.13,29.5Z"/><path class="cls-1" d="M467,27a4,4,0,0,1-.65,1.57A55.62,55.62,0,0,1,462.91,33a53.93,53.93,0,0,1-4.06,4.22A50.76,50.76,0,0,1,454.38,41a35.72,35.72,0,0,1-4.69,3A24.46,24.46,0,0,1,445,45.9a15.35,15.35,0,0,1-4.54.66,9.65,9.65,0,0,1-7.36-2.76c-1.75-1.83-2.62-4.61-2.62-8.32a29,29,0,0,1,1.43-9,25,25,0,0,1,4.9-8.44,12.8,12.8,0,0,1,1.47-1.36A12.34,12.34,0,0,1,440,15.49a10.13,10.13,0,0,1,1.86-.8,8.16,8.16,0,0,1,1.94-.35,6.49,6.49,0,0,1,.65.05,5.41,5.41,0,0,1,.89.21,6.1,6.1,0,0,1,.92.37,2.11,2.11,0,0,1,.71.55,9.06,9.06,0,0,1,1.32,1.95,5.68,5.68,0,0,1,.55,2.23,8.7,8.7,0,0,1-.31,2.68,10.57,10.57,0,0,1-1.25,2.69A17.28,17.28,0,0,1,445,27.91q-1.43,1.47-3.44,3.16l-2.83,2.35a39.5,39.5,0,0,1-3.74,2.71,5.47,5.47,0,0,0,1.73,4.37,7,7,0,0,0,4.75,1.5,13.43,13.43,0,0,0,3.41-.45,22.55,22.55,0,0,0,3.38-1.17,28.68,28.68,0,0,0,3.21-1.66c1-.62,2-1.26,2.91-1.91q2.52-1.83,4.57-3.65T463,29.32l1.6-1.6a4.24,4.24,0,0,1,2.1-1.27C466.89,26.45,467,26.64,467,27Zm-22.63-5.89a4.35,4.35,0,0,0-.13-.88,2.52,2.52,0,0,0-.31-.75,2,2,0,0,0-.47-.52,1,1,0,0,0-.63-.19,4.65,4.65,0,0,0-3.13,1.91,20.77,20.77,0,0,0-3,4.81,9.21,9.21,0,0,0-.57,1.47q-.26.81-.48,1.65c-.15.57-.27,1.13-.38,1.68s-.2,1-.28,1.48l2.84-2.13a31,31,0,0,0,2.43-2c.47-.43,1-.9,1.45-1.4a16.71,16.71,0,0,0,1.35-1.59,7.91,7.91,0,0,0,1-1.72A4.34,4.34,0,0,0,444.38,21.12Z"/><path class="cls-1" d="M.15,173.21l2.67-3.55c2.49,2.49,5.63,4.8,10.67,4.8s9.26-3.92,9.26-10.26-3.56-9.91-9-9.91c-2.91,0-4.74.89-7.24,2.55l-2.9-1.78L5,134.71H26.13v4.63H9.7L8.63,151.92a12.48,12.48,0,0,1,6.47-1.72c7.23,0,13.11,4.27,13.11,13.82S21.33,179,14,179A18.45,18.45,0,0,1,.15,173.21Z"/><path class="cls-1" d="M34.55,186.27c3.68-1.6,5.88-4.45,5.94-8.07a2.46,2.46,0,0,1-.66.06,3.72,3.72,0,0,1-4-3.8,3.86,3.86,0,0,1,4.09-3.8c2.85,0,4.57,2.44,4.57,6.41,0,5.7-3.32,10.15-8.66,12.4Z"/><path class="cls-1" d="M49.56,173.21l2.67-3.55c2.5,2.49,5.64,4.8,10.68,4.8s9.26-3.92,9.26-10.26-3.56-9.91-9-9.91c-2.91,0-4.75.89-7.24,2.55L53,155.06l1.36-20.35H75.55v4.63H59.12l-1.07,12.58a12.45,12.45,0,0,1,6.46-1.72c7.24,0,13.12,4.27,13.12,13.82S70.74,179,63.39,179A18.48,18.48,0,0,1,49.56,173.21Z"/><path class="cls-1" d="M83.74,156.31c0-15.13,5.28-22.43,13.58-22.43s13.53,7.36,13.53,22.43S105.57,179,97.32,179,83.74,171.44,83.74,156.31Zm21.83,0c0-12.7-3.32-18-8.25-18s-8.3,5.34-8.3,18,3.32,18.33,8.3,18.33S105.57,169.12,105.57,156.31Z"/><path class="cls-1" d="M116.42,167.4c0-5.81,4-9.85,8-12v-.3c-3.2-2.19-5.87-5.46-5.87-10,0-6.64,5.1-11,11.92-11,7.42,0,11.93,4.75,11.93,11.45,0,4.57-3.2,8.48-5.81,10.5v.3c3.79,2.19,7.35,5.45,7.35,11.39C144,174,138.49,179,130.31,179,122.3,179,116.42,174.1,116.42,167.4Zm22.37.18c0-5.82-5.34-8-11.51-10.5-3.5,2.25-5.93,5.69-5.93,9.85,0,4.62,3.86,8,9.08,8C135.41,174.94,138.79,171.91,138.79,167.58Zm-1-21.77c0-4.27-2.73-7.78-7.41-7.78a6.69,6.69,0,0,0-6.89,7.06c0,5.22,4.69,7.48,9.79,9.5C136.24,152,137.78,149,137.78,145.81Z"/><path class="cls-1" d="M174.36,177.5c0,1.46-.36,2.18-1.39,2.58s-2.7.39-5.4.39a9.78,9.78,0,0,0-.85-2.24c2.06.09,4,.06,4.61,0s.76-.18.76-.76v-9.28H151.77v12.31h-2.24V154.91h24.83ZM151.77,166h8.89V157.1h-8.89Zm20.32,0V157.1h-9.22V166Z"/><path class="cls-1" d="M179.79,168.77a28.32,28.32,0,0,1,4.46-15.37l1.73.79a29.33,29.33,0,0,0,0,29.16l-1.73.82A28.42,28.42,0,0,1,179.79,168.77Z"/><path class="cls-1" d="M198.72,171.22a37.26,37.26,0,0,0-2.76-3.76v13h-2.19V167a32.33,32.33,0,0,1-4.39,7.94,10.81,10.81,0,0,0-1.12-2.06,31.18,31.18,0,0,0,5.21-9.49h-4.64v-2.12h4.94V156.7c-1.48.3-3,.55-4.42.76a8.6,8.6,0,0,0-.7-1.76,44.76,44.76,0,0,0,9.61-2.42l1.55,1.69a25.37,25.37,0,0,1-3.85,1.22v5.12h3.79v2.12H196v1.85c.94.79,3.51,3.46,4.12,4.16Zm14.94,6.89c.64,0,.79-.49.85-3.79a5.73,5.73,0,0,0,2,.91c-.21,3.88-.78,4.91-2.57,4.91h-2.58c-2.09,0-2.58-.67-2.58-2.91V168.8h-2.58c-.54,5.09-2,9.43-7.27,11.73a7.18,7.18,0,0,0-1.37-1.73c4.73-1.91,5.95-5.7,6.43-10h-3.09v-9.88h13.89v9.88h-3.85v8.43c0,.76.09.88.75.88Zm-9.85-19.23a23.23,23.23,0,0,0-2.61-5.21l1.88-.79a22.32,22.32,0,0,1,2.7,5.07ZM203,166.8h9.49v-5.91H203Zm11.61-13.19a50.8,50.8,0,0,1-3.12,5.21l-1.88-.75a32.31,32.31,0,0,0,2.73-5.25Z"/><path class="cls-1" d="M225.58,174.38c1.43,2.21,4.07,3.24,7.55,3.39,3.31.13,10,0,13.59-.21a10.42,10.42,0,0,0-.73,2.31c-3.3.12-9.52.18-12.86.06-3.94-.16-6.63-1.25-8.58-3.58-1.45,1.27-3,2.58-4.57,3.88L218.76,178a49.87,49.87,0,0,0,4.61-3.46v-7.67h-4.21v-2.12h6.42Zm-.93-14.65a21.18,21.18,0,0,0-5.16-4.79l1.67-1.36a22.83,22.83,0,0,1,5.27,4.67Zm12.61-5.36c.76,9.24,3.09,16.4,9.16,19.52a10.22,10.22,0,0,0-1.79,1.7c-4.25-2.49-6.71-6.76-8.07-12.28-1.58,5.43-4.15,9.55-8,12.28a14.81,14.81,0,0,0-1.76-1.67c4.42-2.82,7-7.55,8.18-13.73l1,.15c-.21-1.24-.36-2.52-.51-3.85h-5.52v-2.12Z"/><path class="cls-1" d="M249.21,183.35a29.33,29.33,0,0,0,0-29.16l1.7-.79a28.6,28.6,0,0,1,0,30.77Z"/><path class="cls-1" d="M6.79,234.06c0,1.14,0,2.25,0,3.39,0,.68-.06,1-.75,1s-.75-.3-.75-1c0-1.14.07-2.25.07-3.39V223.14a24.35,24.35,0,0,0-.09-2.86,3.49,3.49,0,0,1,0-.44c0-.16.07-.25.23-.25.41,0,1.62.23,1.62.53s-.07.2-.16.29a10.4,10.4,0,0,0-.16,2.73Zm4.16-6c.34.25,1.8,1.38,1.8,1.73a1,1,0,0,1-.75.81.69.69,0,0,1-.46-.22A26.88,26.88,0,0,0,8,227.49c-.18-.12-.41-.23-.41-.48s.39-.82.68-.82A14.15,14.15,0,0,1,11,228.06Zm2-5.76a6.6,6.6,0,0,1,1,1.23,1.11,1.11,0,0,1-.82.73c-.16,0-.25-.14-.32-.23a21.59,21.59,0,0,0-1.52-1.8c-.07-.09-.18-.18-.18-.29a1.13,1.13,0,0,1,.77-.66C12,221.28,12.77,222.1,12.93,222.3ZM15.07,221a8.27,8.27,0,0,1,1,1.23c0,.29-.53.75-.8.75s-.25-.14-.34-.25a19.87,19.87,0,0,0-1.5-1.78c-.07-.07-.18-.18-.18-.29a1.13,1.13,0,0,1,.75-.69C14.18,219.93,14.89,220.78,15.07,221Z"/><path class="cls-1" d="M23.78,226.83a.56.56,0,0,0,.57-.55v-.7a7.89,7.89,0,0,0-.09-1.62c0-.07,0-.18,0-.25,0-.23.16-.27.35-.27s1.34.07,1.34.43a.58.58,0,0,1-.21.36c-.18.16-.16.66-.16,1.32v.73a.55.55,0,0,0,.55.55h2.57c.75,0,1.37-.05,1.46-.05a1.18,1.18,0,0,1,.88.78c0,.27-.13.2-.25,1a16.2,16.2,0,0,1-.79,3.1A9.51,9.51,0,0,1,26.9,236c-.5.41-2.71,2.09-3.26,2.09a.86.86,0,0,1-.7-.7c0-.25.23-.36.43-.46a15.5,15.5,0,0,0,2.37-1.5,9.72,9.72,0,0,0,3.41-5.12,8.22,8.22,0,0,0,.34-1.82c0-.63-.64-.57-.8-.57H21.14a.66.66,0,0,0-.64.64v2.05c0,.45,0,1,0,1.16,0,.48-.3.5-.69.5s-.57-.07-.57-.5,0-.8,0-1.18v-2.28c0-.27,0-.57,0-.84,0-.59.19-.71.89-.71.5,0,1,0,1.46,0Z"/><path class="cls-1" d="M48,227.83c.88,0,1.77-.05,2.66-.05.52,0,.57.16.57.73,0,.41,0,.68-.48.68-.93,0-1.84,0-2.75,0H37.54c-.91,0-1.82,0-2.73,0-.48,0-.5-.25-.5-.68s0-.73.57-.73c.84,0,1.77.05,2.66.05Z"/><path class="cls-1" d="M67.54,222.48c.91,0,1.8,0,1.89,0,.48,0,1,.73,1,.86s-.18.3-.34,1.37a13.5,13.5,0,0,1-6.12,10,21.45,21.45,0,0,1-4.05,2.14,2,2,0,0,1-.7.21c-.44,0-.75-.62-.75-.87s.18-.32.38-.36a15.21,15.21,0,0,0,8-5.71,12.28,12.28,0,0,0,1.87-5.46,2.55,2.55,0,0,0,0-.39c0-.57-.52-.5-1.21-.5H58.9c-.91,0-1.82.07-2.73.07-.48,0-.5-.3-.5-.68s0-.66.5-.66c.91,0,1.82,0,2.73,0Zm4-1.7c.19.18,1,1,1,1.2a1.12,1.12,0,0,1-.82.77c-.14,0-.23-.13-.32-.25a21.18,21.18,0,0,0-1.57-1.72c-.07-.07-.18-.19-.18-.28a1.13,1.13,0,0,1,.73-.7C70.63,219.8,71.36,220.59,71.54,220.78Zm1.92-1.69c.16.18,1,1,1,1.21a1.1,1.1,0,0,1-.82.75c-.14,0-.23-.11-.3-.23-.5-.59-1-1.18-1.57-1.73-.09-.07-.2-.18-.2-.29s.52-.69.75-.69S73.27,218.91,73.46,219.09Z"/><path class="cls-1" d="M80.82,222.23c.18.05.39.07.39.27s-.07.19-.18.3a.87.87,0,0,0-.14.59,41,41,0,0,1-.16,4.44,12.18,12.18,0,0,1-4,8.17.43.43,0,0,1-.27.13c-.25,0-1.14-.36-1.14-.68s.27-.34.45-.48c3.3-2.59,3.87-6.3,3.87-10.21a14,14,0,0,0-.11-2.16c0-.07,0-.21,0-.28a.23.23,0,0,1,.25-.25A9.88,9.88,0,0,1,80.82,222.23Zm5.23,11.38c0,.16,0,.43.23.43s.48-.23.64-.34a62.5,62.5,0,0,0,6.3-5.17c.09-.09.25-.27.39-.27s.68.59.68.86-.34.48-.48.6a83.79,83.79,0,0,1-6.89,5.53,1.46,1.46,0,0,0-.27.2c-.16.14-.3.3-.53.3a3.58,3.58,0,0,1-1-.41c-.29-.19-.48-.25-.48-.57s.09-1.39.09-2.73v-6.92a21.11,21.11,0,0,0-.09-3,2,2,0,0,1,0-.34.22.22,0,0,1,.23-.23,9.59,9.59,0,0,1,1.27.27c.14,0,.27.1.27.28s-.07.18-.16.27-.16.64-.16,1.43Z"/><path class="cls-1" d="M109.12,222.3c.91,0,1.8-.05,1.89-.05.47,0,1,.73,1,.87s-.18.3-.34,1.36a13.52,13.52,0,0,1-6.12,10,22.08,22.08,0,0,1-4,2.14,2,2,0,0,1-.71.21c-.43,0-.75-.62-.75-.87s.19-.32.39-.36a15.25,15.25,0,0,0,8-5.71,12.27,12.27,0,0,0,1.86-5.46,1.75,1.75,0,0,0,0-.39c0-.57-.53-.5-1.21-.5h-8.67c-.91,0-1.82.07-2.73.07-.47,0-.5-.3-.5-.69s.05-.66.5-.66c.91,0,1.82.05,2.73.05Z"/><path class="cls-1" d="M129.18,222.73l1.66,0c1.07,0,1.3.25,1.3,1.11,0,.6,0,1.16,0,1.76v7.71c0,.79,0,1.57,0,2.34,0,.5-.14.62-.82.62s-.61-.25-.61-.87-.35-.68-1-.68H120c-.64,0-1,0-1,.68s.07.87-.61.87-.82-.12-.82-.62c0-.77,0-1.55,0-2.34v-7.71c0-.57,0-1.14,0-1.73,0-.87.18-1.14,1.27-1.14l1.69,0ZM119.6,224a.64.64,0,0,0-.64.64v8.19a.64.64,0,0,0,.64.64h10.56a.62.62,0,0,0,.63-.64v-8.19a.61.61,0,0,0-.63-.64Z"/><path class="cls-1" d="M151.79,224.42a17,17,0,0,0,1.91,0,.68.68,0,0,1,.2,0c.27,0,.93.73.93,1s-.54.56-1.22,1.25c-2.05,2-4.14,4.07-6.37,5.91a.76.76,0,0,0-.37.62,1,1,0,0,0,.32.63,7.15,7.15,0,0,1,1,1.53c0,.36-.6.73-.94.73s-.32-.19-.41-.34a19.22,19.22,0,0,0-4-4.78c-.16-.12-.37-.28-.37-.5a.89.89,0,0,1,.73-.71c.36,0,2,1.55,2.25,1.89a.71.71,0,0,0,.53.27.9.9,0,0,0,.61-.29,62.89,62.89,0,0,0,5.62-5.33c.09-.09.21-.2.21-.34s-.35-.23-.55-.23H140.27c-.91,0-1.82.07-2.73.07-.45,0-.47-.25-.47-.68s.06-.66.54-.66c.89,0,1.78,0,2.66,0Z"/><path class="cls-1" d="M171.92,227.83c.88,0,1.77-.05,2.66-.05.52,0,.57.16.57.73,0,.41,0,.68-.48.68-.93,0-1.84,0-2.75,0H161.5c-.91,0-1.82,0-2.73,0-.48,0-.51-.25-.51-.68s.05-.73.57-.73c.85,0,1.78.05,2.67.05Z"/><path class="cls-1" d="M182.94,227.35c.89.52,1.46.82,1.46,1.09s-.32.89-.73.89a.83.83,0,0,1-.48-.23,36,36,0,0,0-3.3-2c-.15-.09-.34-.18-.34-.37s.32-.86.69-.86A21.08,21.08,0,0,1,182.94,227.35Zm12.18-2.48a4.47,4.47,0,0,1-.32,1,17.81,17.81,0,0,1-11.68,10.83,1.08,1.08,0,0,0-.7.52c-.07.14-.16.3-.34.3s-.34-.25-.52-.62a5.62,5.62,0,0,1-.37-.91c0-.18.25-.22.39-.27a24.59,24.59,0,0,0,2.75-.91,15.37,15.37,0,0,0,5.8-3.8,17.53,17.53,0,0,0,3.76-6.57c.07-.21.13-.48.36-.48S195.12,224.6,195.12,224.87Zm-9.83-2.64c.22.16,1.43,1,1.54,1.14a.33.33,0,0,1,.12.25c0,.25-.37.86-.75.86a.83.83,0,0,1-.5-.27,31.28,31.28,0,0,0-2.94-2.16c-.14-.09-.32-.18-.32-.36s.41-.82.73-.82A12.24,12.24,0,0,1,185.29,222.23Zm5.57-1.95a5.1,5.1,0,0,1,1.23.86c.2.16,1.14.89,1.14,1.11s-.46.8-.75.8c-.14,0-.23-.11-.32-.18a19.78,19.78,0,0,0-1.75-1.55c-.1-.07-.23-.18-.23-.29S190.63,220.28,190.86,220.28Zm1.82-1.85c.23,0,1,.69,1.23.84s1.14.91,1.14,1.12-.46.82-.75.82-.23-.12-.32-.21c-.55-.54-1.14-1-1.75-1.54-.07-.05-.23-.16-.23-.28S192.45,218.43,192.68,218.43Z"/><path class="cls-1" d="M207.58,226.26l1.34,0c.5,0,1.07.11,1.07.72,0,.3-.14,1.21-.18,1.57l-.57,4.92a.53.53,0,0,0,.57.61h1.09c.68,0,1.34,0,2,0,.48,0,.55.18.55.63s-.05.62-.48.62c-.7,0-1.39-.05-2.09-.05h-9.49c-.7,0-1.41.05-2.11.05-.44,0-.48-.27-.48-.64s.07-.61.52-.61c.68,0,1.37,0,2.07,0h6a.63.63,0,0,0,.64-.57l.57-5c0-.14.07-.43.07-.55a.56.56,0,0,0-.59-.54h-3.8c-.8,0-1.76,0-2.07,0s-.46-.27-.46-.61.05-.62.48-.62,1.18,0,2,0Z"/><path class="cls-1" d="M223,236.59c0,.25-.57,1-.93,1-.18,0-.32-.16-.43-.3a11.89,11.89,0,0,0-3.42-3c-.16-.09-.34-.2-.34-.41a1.3,1.3,0,0,1,.84-.88C219.29,233,223,236,223,236.59Z"/><path class="cls-1" d="M237.82,226.65c.41.25,1.85,1.09,2.14,1.29.09.07.21.18.21.3,0,.32-.34.91-.71.91a.89.89,0,0,1-.5-.23c-1.07-.75-2.21-1.41-3.34-2.07-.14-.07-.3-.16-.3-.32s.32-.86.68-.86A9.61,9.61,0,0,1,237.82,226.65Zm13.06-2a4.59,4.59,0,0,1-.31,1,17.87,17.87,0,0,1-11.68,10.83,1.08,1.08,0,0,0-.7.52c-.07.14-.16.3-.34.3s-.34-.25-.53-.62a6.59,6.59,0,0,1-.36-.91c0-.18.25-.23.39-.27a25.28,25.28,0,0,0,2.75-.91,15.49,15.49,0,0,0,5.8-3.8,17.49,17.49,0,0,0,3.76-6.58c.06-.2.13-.47.36-.47S250.88,224.42,250.88,224.69Zm-10.46-3.12c.32.25,2,1.44,2.16,1.6a.31.31,0,0,1,.14.27c0,.25-.37.86-.76.86a1,1,0,0,1-.5-.27,31.14,31.14,0,0,0-2.93-2.16c-.14-.09-.32-.18-.32-.37s.41-.82.73-.82A5.82,5.82,0,0,1,240.42,221.57Z"/><path class="cls-1" d="M264,225.51l1.27,0c1.32,0,1.1.5,1.1,2.29v7.08c0,.48,0,.93,0,1.41s-.27.55-.68.55-.64-.12-.66-.46-.05-.32-.64-.32h-6.07l-2.05,0c-.44,0-.46-.27-.46-.63s0-.59.46-.59,1.27,0,2.05,0h6.18a.65.65,0,0,0,.64-.64V232a.65.65,0,0,0-.64-.63h-5.93c-.78,0-1.71,0-2.08,0s-.45-.27-.45-.61,0-.62.45-.62,1.32.05,2.08.05h5.93a.66.66,0,0,0,.64-.64v-2.3a.65.65,0,0,0-.64-.63h-6.09c-.78,0-1.69,0-2.07,0s-.44-.27-.44-.61.05-.62.46-.62,1.3,0,2,0Z"/><path class="cls-1" d="M284,223.12c.54,0,1.11-.05,1.66-.05,1,0,1.3.21,1.3,1.1,0,.59,0,1.2,0,1.79v7.62c0,.71.05,1.64.05,1.94,0,.5-.36.52-.77.52-.69,0-.71-.09-.75-.52s-.39-.52-1-.52h-8.19c-.93,0-2.16,0-2.66,0s-.48-.23-.48-.68.05-.66.5-.66,1.66,0,2.64,0H285a.62.62,0,0,0,.63-.63V225a.63.63,0,0,0-.63-.63h-8.67c-.93,0-2.34,0-2.64,0s-.5-.18-.5-.68,0-.66.48-.66c.61,0,1.59.07,2.66.07Z"/><path class="cls-1" d="M305.24,225.62c.5,0,1,0,1.53,0a1.83,1.83,0,0,1,.32,0c.5,0,1,.72,1,.88s-.32,1-.34,1.12c-1,3.64-4,6.94-7.05,9a10.07,10.07,0,0,1-2.66,1.41c-.28,0-.73-.52-.73-.82s.36-.38.54-.47a16.69,16.69,0,0,0,7.85-7.65,8.35,8.35,0,0,0,.69-1.75c0-.32-.07-.48-1.16-.48h-9.4c-.91,0-1.82,0-2.73,0-.46,0-.5-.25-.5-.66s.09-.68.54-.68c.89,0,1.8,0,2.69,0Zm-2.16-4.84c.78,0,1.66-.05,2.3-.05s.55.18.55.68-.05.66-.53.66c-.77,0-1.54,0-2.32,0h-5.87c-.79,0-1.57,0-2.34,0-.48,0-.53-.2-.53-.66s.05-.68.53-.68c.68,0,1.55.05,2.34.05Z"/><path class="cls-1" d="M318.66,234.06c0,1.14,0,2.25,0,3.39,0,.68-.07,1-.75,1s-.76-.3-.76-1c0-1.14.07-2.25.07-3.39V223.14a24.35,24.35,0,0,0-.09-2.86,3.42,3.42,0,0,1,0-.44c0-.16.06-.25.22-.25.41,0,1.62.23,1.62.53s-.07.2-.16.29a10.4,10.4,0,0,0-.16,2.73Zm4.16-6c.35.25,1.8,1.38,1.8,1.73a1,1,0,0,1-.75.81.67.67,0,0,1-.45-.22,27.62,27.62,0,0,0-3.6-2.89c-.18-.12-.41-.23-.41-.48s.39-.82.68-.82A14.15,14.15,0,0,1,322.82,228.06Zm2-5.76a6.6,6.6,0,0,1,1,1.23,1.11,1.11,0,0,1-.82.73c-.16,0-.25-.14-.32-.23a21.59,21.59,0,0,0-1.52-1.8c-.07-.09-.18-.18-.18-.29a1.13,1.13,0,0,1,.77-.66C323.92,221.28,324.64,222.1,324.8,222.3Zm2.14-1.34a8.27,8.27,0,0,1,1,1.23c0,.29-.53.75-.8.75s-.25-.14-.34-.25a18.33,18.33,0,0,0-1.5-1.78c-.07-.07-.18-.18-.18-.29a1.13,1.13,0,0,1,.75-.69C326.05,219.93,326.76,220.78,326.94,221Z"/><path class="cls-1" d="M335.65,226.83a.56.56,0,0,0,.57-.55v-.7a7.89,7.89,0,0,0-.09-1.62c0-.07,0-.18,0-.25,0-.23.15-.27.34-.27s1.34.07,1.34.43a.58.58,0,0,1-.21.36c-.18.16-.16.66-.16,1.32v.73a.55.55,0,0,0,.55.55h2.57c.75,0,1.37-.05,1.46-.05a1.18,1.18,0,0,1,.88.78c0,.27-.13.2-.25,1a15.49,15.49,0,0,1-.79,3.1,9.51,9.51,0,0,1-3.07,4.34c-.5.41-2.71,2.09-3.26,2.09a.87.87,0,0,1-.7-.7c0-.25.23-.36.43-.46a15.5,15.5,0,0,0,2.37-1.5,9.61,9.61,0,0,0,3.41-5.12,8.22,8.22,0,0,0,.34-1.82c0-.63-.64-.57-.8-.57H333a.66.66,0,0,0-.64.64v2.05c0,.45,0,1,0,1.16,0,.48-.3.5-.69.5s-.56-.07-.56-.5,0-.8,0-1.18v-2.28c0-.27,0-.57,0-.84,0-.59.18-.71.88-.71.5,0,1,0,1.46,0Z"/><path class="cls-1" d="M359.83,227.83c.89,0,1.77-.05,2.66-.05.52,0,.57.16.57.73,0,.41,0,.68-.48.68-.93,0-1.84,0-2.75,0H349.41c-.91,0-1.82,0-2.73,0-.48,0-.5-.25-.5-.68s0-.73.57-.73c.84,0,1.77.05,2.66.05Z"/><path class="cls-1" d="M379.41,222.48c.91,0,1.8,0,1.89,0,.48,0,1,.73,1,.86s-.18.3-.34,1.37a13.5,13.5,0,0,1-6.12,10,21.45,21.45,0,0,1-4.05,2.14,1.9,1.9,0,0,1-.7.21c-.43,0-.75-.62-.75-.87s.18-.32.38-.36a15.17,15.17,0,0,0,8-5.71,12.28,12.28,0,0,0,1.87-5.46,2.55,2.55,0,0,0,0-.39c0-.57-.52-.5-1.21-.5h-8.66c-.91,0-1.82.07-2.73.07-.48,0-.5-.3-.5-.68s0-.66.5-.66c.91,0,1.82,0,2.73,0Zm4-1.7c.18.18,1,1,1,1.2a1.12,1.12,0,0,1-.82.77c-.14,0-.23-.13-.32-.25a19.5,19.5,0,0,0-1.57-1.72c-.07-.07-.18-.19-.18-.28a1.13,1.13,0,0,1,.73-.7C382.51,219.8,383.23,220.59,383.42,220.78Zm1.91-1.69c.16.18,1,1,1,1.21a1.1,1.1,0,0,1-.82.75c-.14,0-.23-.11-.3-.23-.5-.59-1-1.18-1.57-1.73-.09-.07-.2-.18-.2-.29s.52-.69.75-.69S385.15,218.91,385.33,219.09Z"/><path class="cls-1" d="M392.69,222.23c.18.05.39.07.39.27s-.07.19-.18.3a.87.87,0,0,0-.14.59,41,41,0,0,1-.16,4.44,12.18,12.18,0,0,1-4.05,8.17.43.43,0,0,1-.27.13c-.25,0-1.14-.36-1.14-.68s.27-.34.46-.48c3.29-2.59,3.86-6.3,3.86-10.21a14,14,0,0,0-.11-2.16c0-.07,0-.21,0-.28a.23.23,0,0,1,.25-.25A9.88,9.88,0,0,1,392.69,222.23Zm5.23,11.38c0,.16,0,.43.23.43s.48-.23.64-.34a62.5,62.5,0,0,0,6.3-5.17c.09-.09.25-.27.39-.27s.68.59.68.86-.34.48-.48.6a83.79,83.79,0,0,1-6.89,5.53,1.46,1.46,0,0,0-.27.2c-.16.14-.3.3-.53.3a3.71,3.71,0,0,1-1-.41c-.29-.19-.48-.25-.48-.57s.1-1.39.1-2.73v-6.92a21.1,21.1,0,0,0-.1-3,2,2,0,0,1,0-.34.22.22,0,0,1,.23-.23,9.59,9.59,0,0,1,1.27.27c.14,0,.27.1.27.28s-.07.18-.16.27-.16.64-.16,1.43Z"/><path class="cls-1" d="M413.84,236.59c0,.25-.56,1-.93,1-.18,0-.32-.16-.43-.3a12,12,0,0,0-3.41-3c-.16-.09-.34-.2-.34-.41a1.3,1.3,0,0,1,.84-.88C410.18,233,413.84,236,413.84,236.59Z"/><path class="cls-1" d="M13.39,256.69c0,.2-.18.29-.32.39s-.21.38-.28.52a33.42,33.42,0,0,1-2.36,5.21.94.94,0,0,0-.18.48c0,.43.47.57,2.07,2.11.09.12.18.18.18.34,0,.34-.46.89-.8.89s-.41-.23-.54-.39c-.32-.34-1.25-1.41-1.71-1.41s-.45.21-.64.44A19,19,0,0,1,3.38,270a14.58,14.58,0,0,1-2.55,1.25c-.39,0-.78-.57-.78-.82s.35-.34.69-.5a17.77,17.77,0,0,0,6.91-5.21A1.52,1.52,0,0,0,8,264a.55.55,0,0,0-.25-.47,17.74,17.74,0,0,0-3.34-1.32c-.23-.07-.46-.14-.46-.41s.23-.84.62-.84a18.62,18.62,0,0,1,3.7,1.41.88.88,0,0,0,.44.16c.38,0,.52-.28.68-.57a22.57,22.57,0,0,0,2.25-5.6c0-.18,0-.39.18-.39S13.39,256.28,13.39,256.69Z"/><path class="cls-1" d="M31.7,257.3l1.66,0c1.07,0,1.29.25,1.29,1.11,0,.6,0,1.16,0,1.76v7.71c0,.8,0,1.57,0,2.34,0,.5-.14.62-.82.62s-.62-.25-.62-.87-.34-.68-1-.68H22.53c-.64,0-1,0-1,.68s.07.87-.62.87-.81-.12-.81-.62c0-.77,0-1.54,0-2.34v-7.71c0-.57,0-1.14,0-1.73,0-.87.18-1.14,1.27-1.14l1.69,0Zm-9.58,1.25a.64.64,0,0,0-.64.64v8.19a.64.64,0,0,0,.64.64H32.67a.62.62,0,0,0,.64-.64v-8.19a.61.61,0,0,0-.64-.64Z"/><path class="cls-1" d="M56.78,260.74c0,.29-1.11,1.36-1.38,1.64A44.75,44.75,0,0,1,50,266.9a36.33,36.33,0,0,1-6.65,3.78c-.57.25-.57.27-.77.71a.32.32,0,0,1-.27.15c-.23,0-.34-.27-.5-.61a4.71,4.71,0,0,1-.44-.91c0-.18.35-.25.57-.32a29.7,29.7,0,0,0,8.94-5.05,38.81,38.81,0,0,0,4.94-4.73.5.5,0,0,1,.34-.25C56.51,259.67,56.78,260.56,56.78,260.74ZM42.7,255.92l2.23,1.56c.52.39,1.11.78,1.11,1s-.43.89-.79.89-.77-.48-1-.64c-.8-.62-1.59-1.25-2.46-1.8-.13-.09-.29-.18-.29-.36s.38-.84.75-.84A.9.9,0,0,1,42.7,255.92Z"/><path class="cls-1" d="M65.22,268.63c0,1.14,0,2.25,0,3.39,0,.69-.07,1-.76,1s-.75-.29-.75-1c0-1.14.07-2.25.07-3.39V257.71a24.35,24.35,0,0,0-.09-2.86,3.42,3.42,0,0,1,0-.44c0-.16.06-.25.22-.25.41,0,1.62.23,1.62.53s-.07.2-.16.29a10.4,10.4,0,0,0-.16,2.73Zm4.16-6c.34.25,1.8,1.38,1.8,1.73a1,1,0,0,1-.75.81A.69.69,0,0,1,70,265a26.88,26.88,0,0,0-3.59-2.89c-.18-.12-.41-.23-.41-.48s.39-.82.68-.82A14.15,14.15,0,0,1,69.38,262.63Zm2-5.76a6.6,6.6,0,0,1,1,1.23,1.11,1.11,0,0,1-.82.73c-.16,0-.25-.14-.32-.23a23.35,23.35,0,0,0-1.52-1.8c-.07-.09-.18-.18-.18-.29a1.13,1.13,0,0,1,.77-.66C70.48,255.85,71.2,256.67,71.36,256.87Zm2.14-1.34a8.27,8.27,0,0,1,1,1.23c0,.29-.53.75-.8.75s-.25-.14-.34-.25a18.33,18.33,0,0,0-1.5-1.78c-.07-.07-.18-.18-.18-.29a1.13,1.13,0,0,1,.75-.69C72.61,254.5,73.32,255.35,73.5,255.53Z"/><path class="cls-1" d="M82.21,261.4a.56.56,0,0,0,.57-.55v-.7a7.89,7.89,0,0,0-.09-1.62c0-.07,0-.18,0-.25,0-.23.15-.27.34-.27s1.34.07,1.34.43a.58.58,0,0,1-.21.36c-.18.16-.16.66-.16,1.32v.73a.55.55,0,0,0,.55.55H87.1c.75,0,1.37,0,1.46,0a1.18,1.18,0,0,1,.88.78c0,.27-.13.2-.25,1a15.49,15.49,0,0,1-.79,3.1,9.51,9.51,0,0,1-3.07,4.34c-.5.41-2.71,2.1-3.26,2.1a.87.87,0,0,1-.7-.71c0-.25.23-.36.43-.46a15.5,15.5,0,0,0,2.37-1.5,9.63,9.63,0,0,0,3.41-5.12,8.22,8.22,0,0,0,.34-1.82c0-.63-.64-.56-.8-.56H79.57a.65.65,0,0,0-.64.63v2.05c0,.45,0,1,0,1.16,0,.48-.3.5-.69.5s-.56-.07-.56-.5,0-.8,0-1.18v-2.28c0-.27,0-.57,0-.84,0-.59.18-.71.88-.71.5,0,1,0,1.46,0Z"/><path class="cls-1" d="M106.39,262.4c.89,0,1.77,0,2.66,0,.52,0,.57.16.57.73,0,.41,0,.68-.48.68-.93,0-1.84,0-2.75,0H96c-.91,0-1.82,0-2.73,0-.48,0-.5-.25-.5-.68s0-.73.57-.73c.84,0,1.77,0,2.66,0Z"/><path class="cls-1" d="M126,257.05c.91,0,1.8,0,1.89,0,.48,0,1,.73,1,.86s-.18.3-.34,1.37a13.5,13.5,0,0,1-6.12,10,21.45,21.45,0,0,1-4,2.14,1.9,1.9,0,0,1-.7.21c-.43,0-.75-.62-.75-.87s.18-.32.38-.36a15.17,15.17,0,0,0,8-5.71,12.28,12.28,0,0,0,1.87-5.46,2.55,2.55,0,0,0,0-.39c0-.57-.52-.5-1.2-.5h-8.67c-.91,0-1.82.07-2.73.07-.48,0-.5-.3-.5-.68s0-.66.5-.66c.91,0,1.82,0,2.73,0Zm4-1.7c.18.18,1,1,1,1.2a1.12,1.12,0,0,1-.82.78c-.14,0-.23-.14-.32-.25a18.29,18.29,0,0,0-1.57-1.73c-.07-.07-.18-.19-.18-.28a1.13,1.13,0,0,1,.73-.7C129.07,254.37,129.79,255.16,130,255.35Zm1.91-1.69c.16.18,1,1,1,1.21a1.1,1.1,0,0,1-.82.75c-.14,0-.23-.11-.3-.23-.5-.59-1-1.18-1.57-1.73-.09-.07-.2-.18-.2-.29s.52-.69.75-.69S131.71,253.48,131.89,253.66Z"/><path class="cls-1" d="M139.25,256.8c.18.05.39.07.39.28s-.07.18-.18.29a.87.87,0,0,0-.14.59,41,41,0,0,1-.16,4.44,12.18,12.18,0,0,1-4,8.17.43.43,0,0,1-.27.13c-.25,0-1.14-.36-1.14-.68s.27-.34.46-.48c3.29-2.59,3.86-6.3,3.86-10.21a14,14,0,0,0-.11-2.16c0-.07,0-.21,0-.28a.23.23,0,0,1,.25-.25A9.88,9.88,0,0,1,139.25,256.8Zm5.23,11.38c0,.16,0,.43.23.43s.48-.23.64-.34a62.5,62.5,0,0,0,6.3-5.17c.09-.09.25-.27.39-.27s.68.59.68.87-.34.47-.48.59a83.79,83.79,0,0,1-6.89,5.53,1.46,1.46,0,0,0-.27.2c-.16.14-.3.3-.53.3a3.71,3.71,0,0,1-1-.41c-.29-.19-.48-.25-.48-.57s.1-1.39.1-2.73v-6.92a21.1,21.1,0,0,0-.1-3,2,2,0,0,1,0-.34.22.22,0,0,1,.23-.23,8.26,8.26,0,0,1,1.27.28c.14,0,.27.09.27.27s-.07.18-.16.27-.16.64-.16,1.43Z"/><path class="cls-1" d="M170.37,258.21a7.28,7.28,0,0,1,2.18,5.35,7.78,7.78,0,0,1-4.32,7.1,7.52,7.52,0,0,1-2.21.79c-.34,0-1-.68-1-.95s.18-.23.32-.25a6.69,6.69,0,0,0,5.82-6.6,6.25,6.25,0,0,0-4.73-6.23,4.74,4.74,0,0,0-1-.16c-.64,0-.64.57-.66.95-.16,3.41-1,7.83-3.21,10.54a3.67,3.67,0,0,1-2.64,1.57,3.3,3.3,0,0,1-2.71-1.94,6.76,6.76,0,0,1-.63-3.05,9.07,9.07,0,0,1,9.12-9.28A7.69,7.69,0,0,1,170.37,258.21Zm-8.05-.59a7.88,7.88,0,0,0-5.42,7.62c0,1.23.43,3.76,2,3.76,1.43,0,2.75-2.51,3.2-3.69a24,24,0,0,0,1.44-7.17c0-.06,0-.18,0-.25a.44.44,0,0,0-.43-.47A3.33,3.33,0,0,0,162.32,257.62Z"/><path class="cls-1" d="M182.58,263.2c0,.06.11.13.32.2a3.52,3.52,0,0,1,2.82,3.57c0,2.35-1.77,4.71-6.1,4.71a8.84,8.84,0,0,1-3.55-.68c-.29-.14-.41-.27-.41-.46a1,1,0,0,1,.07-.31l.12-.3c.11-.27.18-.41.32-.41a.94.94,0,0,1,.36.16,6.82,6.82,0,0,0,3.23.77c3.25,0,4.57-1.84,4.57-3.43,0-1.89-1.41-3-4.59-3l-1.48,0c-.48,0-.57-.07-.57-.54v-.16c0-.48.09-.55.57-.55l1.25,0c3.09,0,4.12-1.54,4.12-2.95s-1.25-2.55-3.19-2.55a5.65,5.65,0,0,0-3.11.91,1,1,0,0,1-.39.18c-.14,0-.23-.11-.34-.36l-.14-.28a1,1,0,0,1-.11-.38c0-.19.11-.3.38-.44a8.09,8.09,0,0,1,3.8-.91c3.1,0,4.46,1.69,4.46,3.67a3.6,3.6,0,0,1-2.11,3.32C182.69,263.06,182.58,263.13,182.58,263.2Z"/><path class="cls-1" d="M190.49,262c0-.12,0-.19-.16-.19a.16.16,0,0,0-.13.09,19.5,19.5,0,0,1-1.16,1.94c-.12.16-.25.32-.46.32s-.72-.3-.72-.57a1.54,1.54,0,0,1,.29-.57,33.83,33.83,0,0,0,4.07-9.58c0-.16.07-.43.3-.43s.41.11.52.13c.59.21.89.3.89.51s-.18.25-.32.31c-.32.16-.36.32-.48.71a40.44,40.44,0,0,1-1.45,4.09c0,.05,0,.07,0,.12s.12.2.23.23.41,0,.41.25-.13.2-.32.31c-.34.21-.29.62-.29,2.21V270c0,.89.07,1.77.07,2.64,0,.52-.05.84-.66.84s-.66-.32-.66-.82c0-.89.06-1.77.06-2.66Zm6.24,10.23a.4.4,0,0,0-.46.44c0,.5,0,.72-.63.72s-.64-.18-.64-.66c0-.75,0-1.52,0-2.27V257.64c0-.63,0-1.25,0-1.88,0-.85.18-1.14,1.05-1.14l1.47,0H205l1.39,0c.89,0,1.14.18,1.14,1.09,0,.66-.05,1.3-.05,1.93v12.72c0,.78.05,1.55.05,2.32,0,.48-.16.62-.64.62s-.59-.25-.64-.59-.15-.44-.45-.44Zm9.53-15.88c0-.43-.2-.63-.64-.63h-8.76a.55.55,0,0,0-.63.63v14.13c0,.46.2.59.63.64h8.74c.46,0,.66-.18.66-.64ZM202.73,269h-2.91c-.23,0-.32.14-.41.34s-.36.21-.57.21c-.56,0-.61-.16-.61-.57v-4.8c0-.66.16-1,.86-1l.69,0h.29c.46,0,.62-.18.62-.63V261c0-.46-.19-.64-.62-.64h-.54c-.64,0-1.28,0-1.94,0-.38,0-.41-.27-.41-.61s0-.59.41-.59l1.94,0h.54c.43,0,.62-.18.62-.61a11.81,11.81,0,0,0-.09-1.69c0-.06,0-.16,0-.22,0-.25.16-.3.37-.3a2.59,2.59,0,0,1,.63.07c.5,0,.94,0,.94.29s-.12.21-.32.35-.32.43-.3,1.52c0,.43.21.59.64.59h.39l1.93,0c.41,0,.43.27.43.59s0,.61-.43.61c-.64,0-1.27,0-1.93,0h-.39c-.46,0-.64.18-.64.64v1.57c0,.45.18.63.64.63h.18l.66,0c.77,0,.91.32.91,1,0,.3,0,.59,0,.89v2.71c0,.39,0,.79,0,1.18s-.07.55-.61.55c-.34,0-.5-.05-.59-.23S202.92,269,202.73,269Zm-.31-1.14a.57.57,0,0,0,.63-.61v-2.28a.58.58,0,0,0-.63-.63h-2.35a.61.61,0,0,0-.63.63v2.28a.61.61,0,0,0,.63.61Z"/><path class="cls-1" d="M218.77,266.27c0,2.93-.3,3.27,3,3.27,1.73,0,3.73-.16,5.44-.34h.21c.27,0,.27.23.27.43,0,.73-.14,1-.53,1-.93.12-3.89.14-5,.14s-3.26.09-4-.5-.73-1.25-.73-2.18c0-.59,0-1.19,0-1.78v-3.46a.45.45,0,0,0-.45-.45h-.12l-2,.39c-.35.06-2.87.59-2.94.59-.39,0-.46-.71-.46-.94,0-.5.46-.34,3.17-.86l2.23-.43a.66.66,0,0,0,.52-.64v-2.59c0-.69,0-2.25-.09-2.85a1.77,1.77,0,0,1,0-.29c0-.16.09-.21.23-.21s1.59.09,1.59.46c0,.13-.09.2-.16.32a1,1,0,0,0-.2.61c0,.5,0,1.43,0,2v2.29a.45.45,0,0,0,.57.46l5.89-1.14c.27,0,2.39-.5,2.43-.5.3,0,1.05.59,1.05.89a.86.86,0,0,1-.25.5c-.71.82-1.41,1.64-2.09,2.46s-1.28,1.52-1.94,2.25c-.18.2-.36.48-.68.48s-1-.34-1-.69a.46.46,0,0,1,.18-.31,29.89,29.89,0,0,0,3.44-3.67.23.23,0,0,0,.06-.18.15.15,0,0,0-.16-.16c-.13,0-.86.14-1,.18l-5.85,1.14a.67.67,0,0,0-.61.75Z"/><path class="cls-1" d="M236,262.42a8,8,0,0,1,.87,1.64c0,.39-.62.59-.82.59s-.3-.16-.39-.32a23.91,23.91,0,0,0-1.45-2.45.62.62,0,0,1-.16-.39c0-.27.43-.57.7-.57S235.62,261.83,236,262.42Zm10.65-1.61a.39.39,0,0,1-.23.34.33.33,0,0,0-.15.22A25.3,25.3,0,0,1,244.9,265a12,12,0,0,1-4.73,5.34,12.59,12.59,0,0,1-3.71,1.5c-.34,0-.73-.52-.73-.81s.25-.35.46-.39a11.39,11.39,0,0,0,4.66-2.23,12.3,12.3,0,0,0,3.12-4.12,13.61,13.61,0,0,0,1.16-3.75c0-.18.05-.34.27-.34C245.43,260.15,246.63,260.44,246.63,260.81Zm-5.8.34a8.35,8.35,0,0,1,.89,1.64c0,.36-.64.59-.82.59s-.34-.23-.46-.41A20.85,20.85,0,0,0,239,260.6a.82.82,0,0,1-.16-.36c0-.3.46-.59.71-.59S240.38,260.4,240.83,261.15Z"/><path class="cls-1" d="M256.89,268.63c0,1.14,0,2.25,0,3.39,0,.69-.07,1-.75,1s-.75-.29-.75-1c0-1.14.07-2.25.07-3.39V257.71a24.35,24.35,0,0,0-.09-2.86,2.28,2.28,0,0,1,0-.44c0-.16.07-.25.23-.25.41,0,1.62.23,1.62.53s-.07.2-.16.29a10.4,10.4,0,0,0-.16,2.73Zm4.16-6c.34.25,1.8,1.38,1.8,1.73a1,1,0,0,1-.75.81.69.69,0,0,1-.46-.22,26.88,26.88,0,0,0-3.59-2.89c-.18-.12-.41-.23-.41-.48s.38-.82.68-.82A14.79,14.79,0,0,1,261.05,262.63Z"/><path class="cls-1" d="M274.08,269.63a3.06,3.06,0,1,1-3.05-3.05A3,3,0,0,1,274.08,269.63Zm-5.21,0a2.16,2.16,0,1,0,2.16-2.16A2.17,2.17,0,0,0,268.87,269.63Z"/><path class="cls-1" d="M2.49,306.12l-.73-.73L9.15,298l-7.39-7.38.73-.72,7.37,7.39,7.37-7.39.73.72L10.57,298,18,305.39l-.73.73-7.37-7.4ZM5.56,298a1.9,1.9,0,1,1-1.89-1.89A1.89,1.89,0,0,1,5.56,298Zm6.19-6.19a1.89,1.89,0,1,1-1.89-1.91A1.9,1.9,0,0,1,11.75,291.83Zm0,12.37a1.89,1.89,0,1,1-1.89-1.88A1.88,1.88,0,0,1,11.75,304.2ZM18,298a1.9,1.9,0,1,1-1.91-1.89A1.9,1.9,0,0,1,18,298Z"/><path class="cls-1" d="M26.53,296.17c0-.11-.05-.22-.16-.22a.19.19,0,0,0-.18.11c-.64.93-1.32,1.82-2.05,2.71-.18.22-.45.61-.77.61s-.71-.32-.71-.61.23-.41.34-.55a30.35,30.35,0,0,0,5.83-10c.07-.18.11-.41.34-.41a2.07,2.07,0,0,1,.52.16c.55.2.84.32.84.52s-.2.27-.32.32c-.36.16-.4.32-.54.68a34.72,34.72,0,0,1-1.78,3.78.3.3,0,0,0,0,.13c0,.12.12.19.21.21s.27.09.27.25-.14.18-.32.32c-.36.23-.29.66-.29,2.27v7.87c0,.94,0,1.87,0,2.8,0,.57,0,.87-.64.87s-.66-.32-.66-.84c0-1,.05-1.89.05-2.83ZM41,290.92c.18,0,1.11.79,1.11,1s-.11.18-.23.18l-.25,0a.34.34,0,0,0-.25.13,38.11,38.11,0,0,1-6.73,5.28.88.88,0,0,0-.48.94v6.41c0,1.05.07,1.28,1.14,1.28h4.14c1,0,1.55-.28,2-3.08.09-.54.09-.75.46-.75s.88.09.88.53a12.37,12.37,0,0,1-.82,2.93c-.72,1.71-1.68,1.57-2.34,1.57H35c-1.32,0-2.19-.45-2.19-1.93,0-.59.05-1.19.05-1.75V291.17a24,24,0,0,0-.09-2.82.72.72,0,0,1,0-.25c0-.23.14-.28.34-.28a12.21,12.21,0,0,1,1.32.12c.16,0,.35.07.35.25s-.12.2-.32.34c-.37.2-.3.68-.3,2.64v4.71c0,.18.07.36.3.36a.35.35,0,0,0,.2-.07,36.08,36.08,0,0,0,6.05-5.07C40.77,291,40.84,290.92,41,290.92Z"/><path class="cls-1" d="M50.27,298.58c-.11,0-.13.12-.15.21v5.1c0,1,.06,2.09.06,3.14,0,.52,0,.86-.66.86s-.66-.34-.66-.84c0-1.07,0-2.12,0-3.16v-4.33c0-.09,0-.13-.11-.13a.23.23,0,0,0-.12.06,22.5,22.5,0,0,1-2.34,4.42c-.18.25-.3.45-.52.45s-.69-.34-.69-.59.23-.43.32-.57a28.74,28.74,0,0,0,3.19-6.07.86.86,0,0,0,0-.18c0-.3-.23-.37-.45-.39h-.37c-.61,0-1.25.05-1.86.05-.41,0-.41-.28-.41-.6s0-.61.41-.61c.61,0,1.25.05,1.86.05h.43c.44,0,.62-.19.62-.64V291c0-.87,0-1.91-.09-2.73,0-.07,0-.16,0-.23,0-.25.16-.3.36-.3a4.6,4.6,0,0,1,.64,0c.7.07.93.09.93.32s-.11.2-.32.32-.29.68-.29,2.57v3.82c0,.45.18.64.63.64h.39c.61,0,1.23-.05,1.86-.05.41,0,.41.3.41.64s0,.57-.41.57c-.63,0-1.25-.05-1.86-.05h-.25c-.16,0-.36.09-.36.3a.46.46,0,0,0,.06.22,32.92,32.92,0,0,0,2.48,3.26c.09.09.21.2.21.34a.82.82,0,0,1-.68.63c-.48,0-1.87-2.16-2.17-2.63A.21.21,0,0,0,50.27,298.58Zm-2.7-3.93c-.34,0-.48-.25-.55-.55a20.07,20.07,0,0,0-1-3.05,1,1,0,0,1-.13-.41c0-.29.43-.52.68-.52.45,0,.66.73,1.09,2.09a14.88,14.88,0,0,1,.52,1.91A.57.57,0,0,1,47.57,294.65Zm5.91-3.94c-.23.05-.32.07-.38.3-.3.84-.73,2.27-1.07,3.05a.52.52,0,0,1-.53.38c-.22,0-.75-.13-.75-.43a.62.62,0,0,1,.09-.27A21.34,21.34,0,0,0,52,290.35c0-.18.09-.3.27-.3.34,0,1.41.25,1.41.44S53.6,290.69,53.48,290.71Zm8.67.44c1,0,2,0,2.59,0s.44.23.44.66,0,.64-.44.64-1.63,0-2.59,0H56.08c-.46,0-.64.18-.64.64v3.52a28.91,28.91,0,0,1-1.23,8.63,14.61,14.61,0,0,1-1,2.48.3.3,0,0,1-.3.18c-.29,0-1-.27-1-.59a1.34,1.34,0,0,1,.15-.41c1.55-2.94,2.08-7.12,2.08-10.42V294c0-.61,0-1.22,0-1.84,0-1.27.62-1,3.35-1h1.09c.43,0,.64-.19.64-.64a17.06,17.06,0,0,0-.12-2.14c0-.09,0-.16,0-.23,0-.25.2-.29.39-.29s.45,0,.66,0c.77.05,1,.09,1,.34s-.14.21-.34.34-.3.53-.3,1.57v.39c0,.43.18.62.64.62Zm-1.41,6.25c0,.46.18.64.64.64h.84c.68,0,1.36-.05,2-.05.41,0,.41.28.41.62s0,.61-.41.61c-.69,0-1.37,0-2,0h-.84c-.46,0-.64.18-.64.61v5.85c0,.45.18.63.64.63h1.07c.84,0,1.68,0,2.5,0,.43,0,.45.23.45.61s0,.62-.43.62c-.84,0-1.68-.07-2.52-.07H57.76c-.84,0-1.68.07-2.55.07-.41,0-.43-.25-.43-.62s0-.61.43-.61c.87,0,1.71,0,2.55,0h1.16c.43,0,.61-.18.61-.63v-5.85c0-.43-.18-.61-.61-.61h-.3c-.68,0-1.36,0-2,0-.41,0-.44-.29-.44-.61s0-.62.44-.62c.68,0,1.36.05,2,.05h.3c.43,0,.61-.18.61-.64v-1.48c0-.79,0-1.61-.09-2.41,0-.07,0-.16,0-.23s.18-.27.36-.27a4.48,4.48,0,0,1,.64.05c.73.06.93.09.93.31s-.11.21-.31.32-.3.6-.3,2.23Z"/><path class="cls-1" d="M73.59,299.65c-.09,0-.14.1-.14.16v4.26c0,.93,0,1.89,0,2.82,0,.48,0,.91-.59.91s-.64-.39-.64-.87c0-.95,0-1.91,0-2.86v-4.21c0-.09,0-.16-.11-.16s-.09.05-.11.09c-.39.84-2.57,5.57-3.39,5.57-.25,0-.69-.34-.69-.59a.7.7,0,0,1,.19-.36,34.21,34.21,0,0,0,3.57-6.28.58.58,0,0,0,0-.18c0-.34-.34-.37-.43-.37h-.64c-.75,0-1.48.05-2.23.05-.38,0-.43-.25-.43-.57s0-.59.43-.59c.75,0,1.48,0,2.23,0h1c.43,0,.59-.18.61-.63a10.26,10.26,0,0,0-.09-1.57c0-.07,0-.16,0-.23,0-.23.16-.3.36-.3a6.3,6.3,0,0,1,1,.12c.18,0,.55,0,.55.27s-.14.21-.32.32-.3.43-.3,1.46c0,.43.23.56.64.56h.7c.75,0,1.48,0,2.23,0,.41,0,.44.25.44.59s0,.57-.44.57c-.68,0-1.45-.05-2.23-.05h-.63c-.19,0-.39.07-.39.32a.35.35,0,0,0,.07.21,22.83,22.83,0,0,0,3,3.86.54.54,0,0,1,.18.35.8.8,0,0,1-.66.66c-.59,0-2.3-2.64-2.59-3.23C73.7,299.7,73.66,299.65,73.59,299.65Zm-1-8.6h-.75a.88.88,0,0,0-.93.48c-.39.57-1,1.39-1.41,1.91a.71.71,0,0,1-.48.28c-.25,0-.75-.28-.75-.55s.18-.34.27-.46a18.9,18.9,0,0,0,3-4.75c0-.11.11-.23.25-.23a4.12,4.12,0,0,1,.64.18c.52.21.75.26.75.44s-.27.22-.41.25-.37.43-.59.86a.3.3,0,0,0-.05.18c0,.21.16.28.34.28h3c.66,0,1.35-.05,1.89-.05.39,0,.43.21.43.62s0,.61-.43.61-1.23-.05-1.89-.05h-.38c-.23,0-.44.1-.44.37a.61.61,0,0,0,.05.18,8.33,8.33,0,0,1,.5,1.48c0,.36-.48.5-.71.5-.43,0-.4-.57-1-2A.74.74,0,0,0,72.63,291.05Zm11.31,2.05c0,.32-.43.52-.71.52s-.34-.38-1.06-2a.78.78,0,0,0-.87-.53h-.84a.87.87,0,0,0-.91.5c-.32.5-.8,1.21-1.18,1.69a.63.63,0,0,1-.51.34c-.25,0-.75-.28-.75-.57,0-.14.19-.34.37-.57a19.7,19.7,0,0,0,2.57-4.5c0-.12.09-.21.23-.21a7.11,7.11,0,0,1,1.07.32c.13.05.31.11.31.3s-.16.18-.25.2-.29.07-.38.23-.16.34-.34.68a.27.27,0,0,0,0,.16c0,.23.16.29.34.29h4c.87,0,1.73,0,2.59,0,.41,0,.46.2.46.61s0,.62-.46.62c-.86,0-1.72-.05-2.59-.05H83.76c-.21,0-.41.09-.41.34a.65.65,0,0,0,0,.21A7.48,7.48,0,0,1,83.94,293.1ZM85.6,307c0-.32-.16-.44-.46-.44H79.8a.4.4,0,0,0-.46.44v.22c0,.46-.06.62-.61.62s-.64-.14-.64-.57c0-.59,0-1.21,0-1.8v-8.42c0-.5,0-1,0-1.45,0-.69.07-1.14.89-1.14h7c.75,0,.89.34.89,1s0,1.05,0,1.57v8.42c0,.57,0,1.16,0,1.73s-.06.64-.63.64-.64-.19-.64-.64ZM85,298.08a.62.62,0,0,0,.64-.63v-1.21a.61.61,0,0,0-.64-.61H80a.61.61,0,0,0-.64.61v1.21a.64.64,0,0,0,.61.63Zm-5.69,3a.65.65,0,0,0,.64.64H85a.65.65,0,0,0,.64-.64v-1.29a.66.66,0,0,0-.64-.64H80a.66.66,0,0,0-.64.64Zm0,3.76c.05.41.25.64.64.64H85a.64.64,0,0,0,.64-.64v-1.44a.65.65,0,0,0-.64-.63H80a.65.65,0,0,0-.64.63Z"/><path class="cls-1" d="M106.43,292.78a7.29,7.29,0,0,1,2.19,5.35,7.79,7.79,0,0,1-4.33,7.1,7.46,7.46,0,0,1-2.2.79c-.34,0-1-.68-1-.95s.18-.23.32-.25a6.69,6.69,0,0,0,5.82-6.6,6.24,6.24,0,0,0-4.73-6.23,4.64,4.64,0,0,0-1-.16c-.64,0-.64.57-.66.95-.16,3.42-1,7.83-3.21,10.54A3.65,3.65,0,0,1,95,304.89,3.28,3.28,0,0,1,92.33,303a6.61,6.61,0,0,1-.64-3.05,9.07,9.07,0,0,1,9.12-9.28A7.67,7.67,0,0,1,106.43,292.78Zm-8.05-.59A7.89,7.89,0,0,0,93,299.81c0,1.23.44,3.76,2,3.76,1.43,0,2.75-2.51,3.21-3.69a24.3,24.3,0,0,0,1.43-7.17c0-.06,0-.18,0-.25a.44.44,0,0,0-.43-.47A3.33,3.33,0,0,0,98.38,292.19Z"/><path class="cls-1" d="M115.16,300.88c.6,2.32,2.87,2.85,5,2.85a32.75,32.75,0,0,0,6.78-.75,2.24,2.24,0,0,1,.44-.07c.34,0,.31.38.31.63s0,.73-.29.87a40.52,40.52,0,0,1-6.8.66c-2.28,0-4.74-.34-6.12-2.34a4.3,4.3,0,0,1-.75-1.87c0-.43.88-.55,1-.55C115.05,300.31,115.07,300.56,115.16,300.88Zm1.44-9.44a14.48,14.48,0,0,0,4.55.64,19.88,19.88,0,0,0,3.61-.34.8.8,0,0,1,.26-.05c.36,0,.38.5.38.77,0,.55-.07.69-.43.73-1,.09-2.41.16-3.46.16a17.82,17.82,0,0,1-5.53-.68.38.38,0,0,1-.27-.43c0-.25.11-.91.43-.91A1.92,1.92,0,0,1,116.6,291.44Zm11.35-.16c.16.18,1,1,1,1.21a1.1,1.1,0,0,1-.82.75c-.13,0-.23-.14-.29-.23-.5-.59-1-1.18-1.6-1.73-.06-.09-.18-.18-.18-.29a1.13,1.13,0,0,1,.75-.69C127,290.3,127.75,291.1,128,291.28Zm1.93-1.5c.19.18,1,1,1,1.21a1.11,1.11,0,0,1-.79.75c-.16,0-.25-.14-.32-.23-.5-.62-1-1.18-1.57-1.75-.07-.07-.2-.18-.2-.28s.52-.7.75-.7S129.7,289.58,129.88,289.78Z"/><path class="cls-1" d="M136.41,300.27c-.44,0-.64.16-.69.59a13.49,13.49,0,0,1-2.36,6.55.7.7,0,0,1-.55.34A.93.93,0,0,1,132,307c0-.16.18-.32.31-.5,2-2.66,2.28-5.71,2.28-9v-5.92c0-.61,0-1.23,0-1.84,0-.91.29-1.11,1.32-1.11l1.63,0h10.2l1.64,0c.88,0,1.29.15,1.29,1.06,0,.64,0,1.26,0,1.89v12c0,.54,0,1.09,0,1.64a2.25,2.25,0,0,1-.63,1.95c-.78.64-2.1.57-3.05.57-.64,0-1-.09-1-1,0-.34.16-.43.48-.43s.87,0,1.27,0c1.48,0,1.58-.27,1.58-2v-3.54c0-.46-.19-.64-.64-.64h-5.3c-.44,0-.62.18-.62.64v2.61c0,1,.05,2,.05,3.05,0,.55,0,.91-.66.91s-.66-.36-.66-.89c0-1,.07-2,.07-3.07v-2.61c0-.46-.19-.64-.64-.64Zm5.21-9.74a.66.66,0,0,0-.64-.64h-4.46a.66.66,0,0,0-.64.64v2.75c.05.39.25.62.64.62H141c.39,0,.59-.23.64-.62Zm-5.1,4.51c-.43,0-.64.18-.64.63v2.87c0,.43.21.59.62.59H141c.45,0,.64-.18.64-.64v-2.82c0-.45-.19-.63-.64-.63Zm12.22-1.14c.41,0,.59-.23.64-.62v-2.75a.64.64,0,0,0-.64-.64h-5.3c-.39.05-.62.25-.62.64v2.75a.57.57,0,0,0,.62.62Zm-5.92,4.59a.57.57,0,0,0,.62.64h5.3a.63.63,0,0,0,.64-.64v-2.82a.64.64,0,0,0-.64-.63h-5.3a.6.6,0,0,0-.62.63Z"/><path class="cls-1" d="M163.54,289.89c.43,0,.62-.16.64-.59s-.05-.61-.09-.93a.71.71,0,0,1,0-.2c0-.23.13-.3.34-.3a6.26,6.26,0,0,1,.63,0c.53.07,1,0,1,.32s-.14.21-.32.32-.29.37-.29.78.2.56.61.56h3.8c.86,0,1.75,0,2.62,0,.41,0,.45.23.45.61s0,.62-.45.62c-.87,0-1.76-.05-2.62-.05h-.39c-.09,0-.16,0-.16.12s.05.06.07.11c.21.11.59.27.59.48s-.16.18-.29.2a.38.38,0,0,0-.39.18c-.2.39-.41.8-.64,1.19a.53.53,0,0,0,0,.18c0,.23.16.29.36.32h2.66c.89,0,1.76-.05,2.64-.05.43,0,.46.18.46.62s0,.61-.43.61c-.89,0-1.78-.07-2.67-.07H157.9c-.89,0-1.75.07-2.64.07-.43,0-.45-.25-.45-.61s0-.62.45-.62c.89,0,1.75.05,2.64.05h8.44a.89.89,0,0,0,.93-.48,13,13,0,0,0,.91-1.73.6.6,0,0,0,.07-.2c0-.28-.2-.35-.43-.37h-8c-.89,0-1.76.05-2.62.05-.43,0-.46-.23-.46-.62s.05-.61.46-.61c.86,0,1.73,0,2.62,0Zm-4.64,13.56c-.16,0-.25.14-.32.28a18.23,18.23,0,0,1-2.43,3.3.7.7,0,0,1-.53.31c-.22,0-.72-.27-.72-.54s.16-.3.38-.55a14,14,0,0,0,2.35-3.3c.07-.13.11-.29.29-.29A7.26,7.26,0,0,1,159,303c.11,0,.32.11.32.27S159,303.43,158.9,303.45ZM171,300.4c0,.19,0,.39,0,.57,0,.62-.27.8-1,.8l-1.48,0h-7.62l-1.53,0c-.68,0-1-.18-1-.8v-4.09c0-.73.36-.8,1.38-.8l1.1,0h9.21c.73,0,.91.28.91.78,0,.18,0,.38,0,.57Zm-1.6-2a.45.45,0,0,0,.46-.48v-.25a.44.44,0,0,0-.46-.46H160a.44.44,0,0,0-.46.46v.25a.46.46,0,0,0,.46.48Zm-9.39,1a.44.44,0,0,0-.46.46v.43a.45.45,0,0,0,.46.48h9.39a.45.45,0,0,0,.46-.48v-.43a.44.44,0,0,0-.46-.46Zm7.05,7.06c1.07,0,1.3-.09,1.73-1.78.09-.36.14-.52.46-.52s.75.11.75.48a6.6,6.6,0,0,1-.82,2.27c-.41.64-1.09.66-1.78.66h-5.28c-.9,0-2.09,0-2.09-1.25,0-.25.05-.48.05-.7V304c0-.31-.07-.79-.09-1.11,0-.09,0-.18,0-.25s.14-.25.32-.25,1.12.09,1.32.11.25.07.25.21-.11.18-.2.25c-.32.18-.37.36-.37,1v1.6c0,.75.46.75,1.25.75Zm-5.53-12.77c-.27,0-.36-.13-.5-.45a9.73,9.73,0,0,0-.48-1.09.8.8,0,0,1-.11-.34c0-.3.43-.53.71-.53s.41.25.72.94a3.33,3.33,0,0,1,.37,1C162.27,293.51,161.77,293.62,161.56,293.62Zm2.64,8.72c.32.32.66.66,1,1s.77.89.77,1.16-.39.57-.68.57-.37-.18-.5-.37a11.06,11.06,0,0,0-1.43-1.63c-.12-.14-.23-.23-.23-.41a.72.72,0,0,1,.68-.59C164,302.07,164.07,302.2,164.2,302.34Zm9.31,4.78c-.3,0-.41-.23-.53-.46a22.27,22.27,0,0,0-2.27-3.39.67.67,0,0,1-.18-.41c0-.29.41-.54.68-.54a.57.57,0,0,1,.39.2c.38.46,1,1.34,1.36,1.84a9.36,9.36,0,0,1,1.23,2.23C174.19,306.93,173.78,307.12,173.51,307.12Z"/><path class="cls-1" d="M182.28,290.42c.16.07.37.16.37.34s-.14.23-.32.32a.85.85,0,0,0-.46.47,11.32,11.32,0,0,0-.63,2.07,26.51,26.51,0,0,0-.69,5.69c0,.57.16,4.17.75,4.17a.26.26,0,0,0,.21-.14c.09-.18.55-1.37.66-1.64.16-.43.29-.79.52-.79s.43.11.43.31a1.59,1.59,0,0,1-.06.3,11.4,11.4,0,0,0-.91,4.21v.2a.48.48,0,0,1-.37.53,2.42,2.42,0,0,1-.61.2c-.3,0-.48-.41-.57-.61a16.17,16.17,0,0,1-1.3-6.72,26.07,26.07,0,0,1,1-7.23c.16-.61.36-1.23.52-1.84,0-.14.09-.34.28-.34A7.7,7.7,0,0,1,182.28,290.42Zm9.35-.53a.21.21,0,0,1,.16.21.57.57,0,0,1-.2.36c-.23.28-.21.66-.21,1.66s-.09,1.64.48,1.64a15.51,15.51,0,0,0,2.6-.66,1.9,1.9,0,0,1,.36-.09c.25,0,.34.39.41.71a1.23,1.23,0,0,1,0,.36c0,.25-.13.32-.52.41-.68.16-1.82.34-2.5.43-.41.07-.78.16-.78.66,0,.82.19,4.55.23,5.58a.69.69,0,0,0,.48.72c.59.25,3.37,1.69,3.37,2.3,0,.46-.48,1-.78,1s-.41-.27-.54-.38c-.34-.35-1.82-1.62-2.28-1.62-.2,0-.2.23-.23.39-.11,1.75-1.43,2.36-3,2.36s-3.44-.68-3.44-2.5S187,301,188.47,301a12.42,12.42,0,0,1,1.64.16c.27,0,.36-.21.36-.43,0-1.05-.13-3.42-.18-4.51,0-.39.05-1-.48-1h-.2c-.64.07-1.59.09-2.25.09-.37,0-2.32,0-2.55-.07s-.34-.48-.34-.89.07-.48.27-.48a3.56,3.56,0,0,1,.43.05c.91.09,2.07.16,3,.16,1.48,0,2,0,2-.52s-.22-2.94-.34-3.6c0,0,0-.11,0-.18a.25.25,0,0,1,.27-.25A15.38,15.38,0,0,1,191.63,289.89Zm-5.16,13.52c0,1,1.36,1.34,2.14,1.34,1.23,0,1.89-.5,1.89-1.77a.56.56,0,0,0-.28-.53,4.73,4.73,0,0,0-1.61-.27C187.88,302.18,186.47,302.45,186.47,303.41Z"/><path class="cls-1" d="M201.59,300.88c.59,2.32,2.87,2.85,5,2.85a32.75,32.75,0,0,0,6.78-.75,2.26,2.26,0,0,1,.43-.07c.35,0,.32.38.32.63s0,.73-.29.87a40.54,40.54,0,0,1-6.81.66c-2.27,0-4.73-.34-6.11-2.34a4.31,4.31,0,0,1-.76-1.87c0-.43.89-.55,1-.55C201.48,300.31,201.5,300.56,201.59,300.88Zm1.44-9.44a14.48,14.48,0,0,0,4.55.64,19.88,19.88,0,0,0,3.61-.34.79.79,0,0,1,.25-.05c.37,0,.39.5.39.77,0,.55-.07.69-.43.73-1.05.09-2.41.16-3.46.16a17.79,17.79,0,0,1-5.53-.68.38.38,0,0,1-.27-.43c0-.25.11-.91.43-.91A2,2,0,0,1,203,291.44Zm11.35-.16c.16.18,1,1,1,1.21a1.1,1.1,0,0,1-.82.75c-.14,0-.23-.14-.3-.23a23.43,23.43,0,0,0-1.59-1.73c-.07-.09-.18-.18-.18-.29a1.13,1.13,0,0,1,.75-.69C213.45,290.3,214.17,291.1,214.38,291.28Zm1.93-1.5c.18.18,1,1,1,1.21a1.11,1.11,0,0,1-.79.75c-.16,0-.25-.14-.32-.23-.5-.62-1-1.18-1.57-1.75-.07-.07-.21-.18-.21-.28s.53-.7.75-.7S216.13,289.58,216.31,289.78Z"/><path class="cls-1" d="M228,289.21c.18.37,1.46,2.82,1.57,3a.59.59,0,0,0,.55.37,10.35,10.35,0,0,0,2.95-1.41c.14-.09.43-.32.59-.32s.76.68.76.93c0,.46-2.94,1.66-3.44,1.84-.18.07-.36.14-.36.39a3,3,0,0,0,.38.82c.84,1.48,2.5,4.48,3.67,5.57a.79.79,0,0,1,.31.6,1.15,1.15,0,0,1-.91.93c-.27,0-.72-.37-.95-.52a11,11,0,0,0-5.55-1.87c-1.6,0-3.1.91-3.1,2.66,0,2.82,3.71,3.41,5.87,3.41.55,0,1,0,1.19,0s.31.07.31.3c0,1.2-.75,1.06-.88,1.06-2.94,0-7.74-.88-7.74-4.66,0-2.5,2.05-3.91,4.39-3.91a9.56,9.56,0,0,1,4.39,1.23.87.87,0,0,0,.32.11c.07,0,.14-.05.14-.11a.88.88,0,0,0-.21-.39c-.84-1.23-1.95-3.16-2.68-4.51a.64.64,0,0,0-.59-.4,1.22,1.22,0,0,0-.3.06,31,31,0,0,1-5.73.91c-.59,0-.77-1-.77-1.11s.27-.25,1.11-.25a23.44,23.44,0,0,0,4.73-.64c.21-.07.43-.14.43-.39a10.16,10.16,0,0,0-1-1.88,10.41,10.41,0,0,0-.93-1.41.62.62,0,0,1-.2-.37c0-.27,1.07-.39,1.2-.39S227.89,289,228,289.21Zm8.44,1.09c.16.19.8.91.8,1.1a1.1,1.1,0,0,1-.87.7c-.13,0-.23-.16-.29-.25-.46-.64-.94-1.25-1.46-1.84a.47.47,0,0,1-.16-.3c0-.2.52-.66.77-.66S236.28,290.1,236.44,290.3Zm1.62-1.86a11.75,11.75,0,0,1,1.29,1.7c0,.28-.52.73-.84.73-.16,0-.23-.16-.5-.52-.43-.59-.77-1-1.25-1.57-.07-.09-.18-.18-.18-.3s.54-.66.77-.66S237.65,288,238.06,288.44Z"/><path class="cls-1" d="M244.44,292.58c.16,0,.41.13.41.32s-.13.25-.25.34-.25.34-.29.63a11.49,11.49,0,0,0-.14,2,14.93,14.93,0,0,0,.84,5.69c.37.86,1.39,2.52,2.46,2.52.7,0,1.59-1.16,1.91-1.73.09-.18.27-.56.5-.56s.82.5.82.75-1,1.47-1.25,1.75a2.77,2.77,0,0,1-1.94,1.2c-1.57,0-2.77-1.57-3.41-2.84a16.24,16.24,0,0,1-1.2-6.92c0-.45.06-3,.09-3.34,0-.16.13-.21.27-.21A6,6,0,0,1,244.44,292.58Zm10.17-.16a7.22,7.22,0,0,1,2.73,2.55,11.51,11.51,0,0,1,1.64,4.46,4.36,4.36,0,0,1,0,.52c0,.48-.5.55-.89.55s-.52-.25-.57-.55a9,9,0,0,0-3.23-6.37c-.18-.14-.37-.25-.37-.43A.84.84,0,0,1,254.61,292.42Z"/><path class="cls-1" d="M271.81,289.14c.27.07.52.09.52.34s-.09.23-.18.39a3.39,3.39,0,0,0-.16,1.41v.52a.47.47,0,0,0,.45.51l.32,0a23.21,23.21,0,0,0,4.19-.84,1.27,1.27,0,0,1,.38-.07c.39,0,.39.68.39,1s-.09.36-.7.5c-1.23.25-3,.52-4.21.64-.43,0-.78.18-.78.66,0,2.39.05,2.71.5,2.71a20.6,20.6,0,0,0,3.44-.64,1.46,1.46,0,0,1,.3-.07c.25,0,.22.34.22.52,0,1-.2.89-.82,1A27,27,0,0,1,273,298c-.73.07-.82.23-.82.77,0,.37.07,2.3.09,2.6.07.54.32.59.84.72.84.23,4,1.55,4,2.12a1.23,1.23,0,0,1-.89,1.05c-.18,0-.45-.25-.59-.37a10.84,10.84,0,0,0-2.5-1.48,1.34,1.34,0,0,0-.39-.11c-.34,0-.36.36-.36.45a3.53,3.53,0,0,1-.37,1.37c-.68,1.16-2.27,1.5-3.52,1.5-1.55,0-3.35-.68-3.35-2.5,0-2.09,2.55-2.55,4.19-2.55.32,0,.84,0,1.18.05l.14,0c.32,0,.39-.23.39-.48s-.09-2.39-.09-2.48c0-.34-.19-.43-.5-.43s-1.6,0-2.48,0a10.91,10.91,0,0,1-2-.09,1.85,1.85,0,0,1-.3-1,.29.29,0,0,1,.28-.31c.23,0,1.86.13,2.71.13,1.75,0,2.27.05,2.27-.47s-.05-1.73-.09-2.28c0-.14,0-.64-.5-.64s-3.21.16-4.78.16H264.3c-.41,0-.46-.57-.46-.91s.07-.5.37-.5,2,.14,3.36.14c.39,0,2.42,0,2.64-.09a.54.54,0,0,0,.41-.53,22.22,22.22,0,0,0-.2-2.48,1.67,1.67,0,0,1-.05-.31c0-.16.12-.21.25-.21S271.53,289.1,271.81,289.14Zm-5.4,15c0,1.07,1.21,1.3,2,1.3,1.12,0,2.44-.34,2.57-1.66a3.14,3.14,0,0,0,0-.53c0-.38-.26-.52-1.44-.52C268.64,302.77,266.41,302.82,266.41,304.18Z"/><path class="cls-1" d="M288,291.44c.11.05.18.11.18.23a.45.45,0,0,1-.16.32c-.27.27-.25.66-.25,1.2s0,1.39,0,2.07a.46.46,0,0,0,.43.48c.09,0,4.75-.73,5.28-.8a.64.64,0,0,0,.54-.7V294a14.91,14.91,0,0,0-.36-3.8.53.53,0,0,1-.05-.18c0-.14.12-.23.28-.23s1.61.12,1.61.46a.51.51,0,0,1-.09.25,1.29,1.29,0,0,0-.2.73c0,.91,0,1.82,0,2.7v.21a.43.43,0,0,0,.43.45l.23,0c.5-.09,3.48-.52,3.8-.52s.32.38.32.61c0,.82-.23.73-.8.78-1,.11-2.09.2-3.14.34a1.08,1.08,0,0,0-.75.25,9.3,9.3,0,0,0-.38,2.54c-.21,1.37-.67,2.3-2.05,2.69a4.64,4.64,0,0,1-1.37.2c-.57,0-.66-.63-.66-.93s.09-.41.34-.41l.44,0a1.74,1.74,0,0,0,1.77-.88,9.06,9.06,0,0,0,.5-2.66.44.44,0,0,0-.43-.46c-.09,0-.52.07-.64.09-1.48.21-3,.48-4.41.73-.39.07-.68.18-.68.66,0,1.16.09,3.68.22,4.78a2.17,2.17,0,0,0,1.39,2,7.9,7.9,0,0,0,2.73.36,18,18,0,0,0,4.14-.48,1.09,1.09,0,0,1,.25,0c.28,0,.25.36.25.55a1.49,1.49,0,0,1-.18.84,22.49,22.49,0,0,1-4.3.36c-3.62,0-5.39-.57-5.6-4.55,0-1.16-.09-2.32-.11-3.48,0-.32-.07-.57-.46-.57s-3,.55-3.45.66a1.47,1.47,0,0,1-.46.07c-.36,0-.52-.77-.52-1.07s.38-.39.95-.45c1.07-.12,2.12-.32,3.19-.48.39-.05.68-.12.68-.64a34.8,34.8,0,0,0-.16-3.89,1.09,1.09,0,0,1,0-.25.22.22,0,0,1,.25-.25A13.48,13.48,0,0,1,288,291.44Z"/><path class="cls-1" d="M312.75,289.62c.15.14.63.48.63.71s-.27.34-.48.36a.93.93,0,0,0-.63.41c-.55.64-1.09,1.41-1.57,2.09a40.18,40.18,0,0,0-3,4.83.13.13,0,0,0,.14.13c.13,0,.34-.18.45-.27a8.57,8.57,0,0,1,4-1.57,2.42,2.42,0,0,1,2.07,1.16,3.38,3.38,0,0,1,.23,1.25,10.71,10.71,0,0,1-.32,2.25,15.66,15.66,0,0,0-.36,2.55c0,.52.13,1.23.81,1.23,1.57,0,3.85-2.57,4.58-3.84.07-.12.16-.28.32-.28s.79,1.05.79,1.3a.56.56,0,0,1-.25.43c-.5.52-1,1-1.59,1.53-1.07,1-2.43,2.2-4,2.2-1.39,0-1.94-1.2-1.94-2.43A14.55,14.55,0,0,1,313,301a10.3,10.3,0,0,0,.23-2.05c0-.82-.28-1.48-1.23-1.48-1.75,0-4.44,2-5.42,3.41a15.47,15.47,0,0,0-1.75,4.58c0,.22-.11.45-.38.45s-1.23-.32-1.23-.61c0-.09.29-.76.34-.91a58.14,58.14,0,0,1,2.55-5.71,70.49,70.49,0,0,1,4.8-8.08,8.38,8.38,0,0,0,.61-1.09c.07-.14.21-.5.39-.5S312.59,289.51,312.75,289.62Z"/><path class="cls-1" d="M329.55,304.2a3.06,3.06,0,1,1-3.05-3A3,3,0,0,1,329.55,304.2Zm-5.21,0A2.17,2.17,0,1,0,326.5,302,2.18,2.18,0,0,0,324.34,304.2Z"/></g></g></svg>