<?xml version="1.0" encoding="utf-8"?>
<!-- Generator: Adobe Illustrator 26.2.1, SVG Export Plug-In . SVG Version: 6.00 Build 0)  -->
<svg version="1.1" id="レイヤー_1" xmlns="http://www.w3.org/2000/svg" xmlns:xlink="http://www.w3.org/1999/xlink" x="0px"
	 y="0px" viewBox="0 0 576.2 308" style="enable-background:new 0 0 576.2 308;" xml:space="preserve">
<style type="text/css">
	.st0{fill:#8D7C28;}
</style>
<g>
	<g>
		<g>
			<path class="st0" d="M34.1,28.4c-2.2,3.1-5.4,5.6-9.3,7.5c4.8,1.6,10.6,2.6,16.8,3c-0.7,0.8-1.4,2.1-1.9,3.1
				c-7.1-0.6-13.5-2-18.8-4.3C15,40,8,41.2,1.4,41.9c-0.3-0.9-0.8-2-1.3-2.8c5.8-0.4,12-1.4,17.4-3.2c-2.4-1.4-4.6-3.1-6.4-5.2
				c-2.4,1.5-5.3,2.9-8.5,4.1c-0.4-0.8-1.4-1.8-2-2.3c6.2-2,10.8-4.8,13.5-7.7H6.2V8.3H18c0.2-0.9,0.4-1.7,0.6-2.6H1.8V3h37.9v2.8
				H22.2c-0.3,0.9-0.6,1.8-0.9,2.6h14.1v16.5H18.1c-0.7,0.9-1.4,1.6-2.3,2.4h15.6L32,27L34.1,28.4z M9.4,13.1H32v-2.6H9.4V13.1z
				 M9.4,17.9H32v-2.7H9.4V17.9z M9.4,22.7H32V20H9.4V22.7z M14,29.7c1.8,1.9,4.2,3.5,7.1,4.9c3.1-1.3,5.8-3,7.8-4.9H14z"/>
			<path class="st0" d="M67,36.3c1.4-0.1,2.7-0.3,3.8-0.5c5.7-1.3,11.3-5.5,11.3-13.2c0-6.7-4.3-12.3-11.8-12.9
				c-0.6,4.1-1.4,8.6-2.6,12.8c-2.7,9.1-6.3,13.8-10.4,13.8c-4,0-7.9-4.6-7.9-11.9c0-9.7,8.6-18.1,19.5-18.1
				c10.4,0,17.1,7.4,17.1,16.3c0,9.3-6.2,15.6-16.8,17L67,36.3z M64.1,21.7c1.1-3.7,2-7.9,2.5-12c-8.5,1.1-13.7,8.4-13.7,14.4
				c0,5.6,2.6,8.1,4.5,8.1C59.3,32.2,61.8,29.2,64.1,21.7z"/>
			<path class="st0" d="M104.1,16.3c5.9,1.8,14.4,5,19.2,7.4l-1.6,3.8c-4.9-2.6-12.6-5.6-17.6-7.2v14.8c0,1.4,0.1,3.9,0.3,5.3h-4.3
				c0.2-1.4,0.3-3.6,0.3-5.3V9c0-1.3-0.1-3.3-0.4-4.7h4.4c-0.1,1.4-0.3,3.3-0.3,4.7V16.3z M117.6,14.1c-1.1-2.3-2.5-4.8-4-6.8
				l2.5-1.1c1.2,1.7,3.1,4.7,4.1,6.8L117.6,14.1z M123.2,11.8c-1.2-2.3-2.6-4.7-4.2-6.7l2.5-1.2c1.2,1.6,3.1,4.6,4.2,6.6L123.2,11.8
				z"/>
			<path class="st0" d="M163.6,17.6c-0.2,0.5-0.4,1.6-0.5,2.3c-0.4,2.7-1.6,7.8-3.6,11.2c-2.6,4.7-7.9,8.8-15.5,10.7l-2.8-3.1
				c1.3-0.2,3.3-0.7,4.3-1.1c4-1.4,7.8-3.5,10.4-7.6c1.9-3,3.1-7.1,3.4-10.3h-20.9v6.4c0,0.6,0,1.6,0.1,2.2h-3.7
				c0-0.6,0.1-1.6,0.1-2.3v-6.5c0-0.8-0.1-2.3-0.2-3.1c1,0.1,2.5,0.1,3.8,0.1h8.2v-3.2c0-0.7,0-1.6-0.2-2.7h4
				c-0.2,1.1-0.2,2-0.2,2.7v3.2h8.4c1.3,0,2.1-0.1,2.5-0.2L163.6,17.6z"/>
			<path class="st0" d="M173.8,19c1.3,0.1,3.7,0.2,6.2,0.2h24.6c2.2,0,3.9-0.1,4.8-0.2v4.4c-0.9,0-2.8-0.2-4.8-0.2H180
				c-2.5,0-4.8,0.1-6.2,0.2V19z"/>
			<path class="st0" d="M246.8,7.9l2.2,1.4c-0.3,0.6-0.5,1.3-0.7,2.2c-1,4.7-3.1,11.9-6.7,16.6c-4.1,5.3-9.5,9.4-17.7,12l-3.1-3.4
				c8.7-2.2,13.7-6,17.5-10.8c3.2-4.1,5.3-10.3,5.9-14.6h-23c-1.8,0-3.3,0.1-4.4,0.1v-4c1.2,0.1,3,0.3,4.5,0.3h22.5
				c0.6,0,1.2,0,1.9-0.1c-0.9-1.7-2.3-4-3.3-5.4l2.4-1c1.1,1.5,2.7,4.2,3.6,5.9L246.8,7.9z M250.7,0c1.1,1.5,2.7,4.2,3.7,5.9
				L251.9,7c-1-1.8-2.5-4.4-3.7-6L250.7,0z"/>
			<path class="st0" d="M256.6,37.3c3.8-2.7,6.5-6.7,7.8-11c1.3-4.1,1.3-13.1,1.3-18.1c0-1.3-0.1-2.3-0.3-3.3h4.1
				c0,0.5-0.2,1.9-0.2,3.2c0,5-0.2,14.6-1.4,19.1c-1.3,4.8-4.2,9.2-8,12.3L256.6,37.3z M277.1,37.5c0.2-0.7,0.3-1.6,0.3-2.5V8.1
				c0-1.7-0.2-3-0.3-3.3h4.1c0,0.4-0.2,1.6-0.2,3.3V34c4.1-1.9,9.7-6,13.1-11l2.2,3.1c-3.9,5.3-10.1,9.8-15.3,12.4
				c-0.7,0.4-1.1,0.7-1.5,1L277.1,37.5z"/>
			<path class="st0" d="M38.5,78.4c-3,2.2-6.9,4.4-10.2,6.1c3.5,2,7.8,3.4,12.7,4.1c-0.7,0.7-1.6,2-2,2.9c-9.7-1.7-16.8-5.8-20.6-13
				h-7v8.8l11.5-1.1l0,3c-7,0.8-14.3,1.5-19.4,1.9L3,88c1.5-0.1,3.2-0.3,5.1-0.4V63.8c-1.9,1.2-4,2.3-6,3.2c-0.4-0.8-1.3-2-2-2.7
				c7.6-3.3,15.1-8.9,18.7-13.9H22c4.9,5.6,12.7,10.8,19.6,13.4c-0.8,0.8-1.6,2-2.2,2.9c-1.9-0.9-4-1.9-6-3.1v14.6
				c0.9-0.6,1.8-1.3,2.5-1.8L38.5,78.4z M32,62.8c-4.4-2.8-8.7-6.1-11.5-9.3c-2.5,3-6.4,6.4-10.9,9.3H19v-4.4h3.4v4.4H32z
				 M11.3,69.3h18.9v-3.8H11.3V69.3z M11.3,75.8h18.9v-4H11.3V75.8z M21.7,78.5c1.1,1.7,2.4,3.1,4.1,4.4c2.3-1.2,5.1-2.8,7.4-4.4
				H21.7z"/>
			<path class="st0" d="M52,73.5c2.4-2.4,6.2-7.5,8.7-10.6c2.6-3.1,5-3.5,7.9-0.5c2.6,2.7,6.1,7.1,9,10.2c2.7,3,7.1,7.6,11,11.2
				l-2.8,3.2c-3.4-3.2-7.5-7.8-10.5-11.2c-2.9-3.3-6.2-7.6-8.4-9.8c-1.9-2-2.7-1.8-4.2,0.1c-2.1,2.6-5.8,7.5-8,10.2
				c-0.9,1.2-1.9,2.6-2.6,3.5l-3.3-3.4C49.9,75.6,50.8,74.8,52,73.5z M81.8,65l-2.6,1.2c-1.1-2.3-2.7-5.2-4.2-7.2l2.6-1.1
				C78.7,59.4,80.8,62.8,81.8,65z M87.8,62.5l-2.6,1.3c-1.2-2.4-2.8-5.1-4.4-7.1l2.5-1.2C84.5,57.1,86.7,60.4,87.8,62.5z"/>
			<path class="st0" d="M105.7,85.1c3.7-0.8,7.7-1.8,11.5-2.6l0.3,3.2c-7.1,1.8-14.6,3.5-20.1,4.8l-1.1-3.5c1.8-0.3,3.8-0.7,6-1.2
				V50.8h3.4v13.6h10.1v3.2h-10.1V85.1z M132,87.4c2.1,0,2.4-1.6,2.6-8.1c0.9,0.7,2.2,1.2,3.1,1.4c-0.4,7.3-1.3,9.8-5.6,9.8h-7.5
				c-4.4,0-5.5-1.3-5.5-6.2V50.8h3.4v16c4.1-2,8.4-4.4,11-6.5l2.5,2.8c-3.7,2.4-8.8,4.9-13.5,6.9v14.5c0,2.5,0.4,2.9,2.5,2.9H132z"
				/>
			<path class="st0" d="M148.1,73.5c2.4-2.4,6.2-7.5,8.7-10.6c2.6-3.1,5-3.5,7.9-0.5c2.6,2.7,6.1,7.1,9,10.2c2.7,3,7.1,7.6,11,11.2
				l-2.8,3.2c-3.4-3.2-7.5-7.8-10.5-11.2c-2.9-3.3-6.2-7.6-8.4-9.8c-1.9-2-2.7-1.8-4.2,0.1c-2.1,2.6-5.8,7.5-8,10.2
				c-0.9,1.2-1.9,2.6-2.6,3.5l-3.3-3.4C146,75.6,146.9,74.8,148.1,73.5z M177.9,65l-2.6,1.2c-1.1-2.3-2.7-5.2-4.2-7.2l2.6-1.1
				C174.8,59.4,176.9,62.8,177.9,65z M183.9,62.5l-2.6,1.3c-1.2-2.4-2.8-5.1-4.4-7.1l2.5-1.2C180.6,57.1,182.8,60.4,183.9,62.5z"/>
			<path class="st0" d="M191.8,84.2l2.1-2.7c1.9,2,4.4,3.8,8.2,3.8c3.9,0,6.7-2.3,6.7-6.1c0-4-2.6-6.6-10.2-6.6v-3.1
				c6.8,0,9.1-2.7,9.1-6.3c0-3.2-2.2-5.2-5.6-5.3c-2.6,0.1-5,1.4-6.8,3.3l-2.2-2.6c2.5-2.3,5.4-4,9.2-4c5.5,0,9.6,3,9.6,8.3
				c0,4-2.4,6.6-5.9,7.9v0.2c3.9,0.9,7,3.9,7,8.4c0,5.9-4.7,9.4-10.6,9.4C197.2,88.7,194,86.5,191.8,84.2z"/>
			<path class="st0" d="M232,51.6c-1,3-2.2,5.9-3.6,8.7v31.3h-3.2V66c-1.4,2.2-2.8,4.2-4.4,5.9c-0.3-0.7-1.2-2.6-1.8-3.4
				c4-4.4,7.6-11.1,9.8-17.9L232,51.6z M259.6,53.2v37.9h-3.2v-2.3h-19.8v2.6h-3.1V53.2H259.6z M256.4,85.8V56.2h-19.8v29.7H256.4z
				 M247.9,65.2v4.9h5.2v11.9h-12.8V70.2h4.9v-4.9h-6.7v-2.6h6.7v-5.1h2.7v5.1h6.9v2.6H247.9z M250.5,72.7h-7.6v7h7.6V72.7z"/>
			<path class="st0" d="M291.7,75.2c3.4-3.1,6.6-8,8-10.7c-0.8,0.2-9,1.8-17,3.5v13.3c0,3.1,1.1,4.1,6.5,4.1c5.2,0,9.5-0.4,14-1.3
				l-0.2,3.9c-4,0.5-8.5,0.9-14.1,0.9c-8.4,0-9.9-2.2-9.9-6.6V68.7c-4.5,0.9-8.5,1.8-10.3,2.2l-0.7-3.8c2-0.3,6.3-1,11-1.9v-7.7
				c0-1.3-0.1-2.8-0.3-4.1h4.3c-0.2,1.3-0.3,2.8-0.3,4.1v7c7.6-1.5,15.5-3.1,17.4-3.5c1-0.2,1.8-0.5,2.4-0.8l2.6,2.1
				c-0.3,0.4-0.8,1.2-1.1,1.8c-2.1,3.7-5.6,9.3-9.2,13.1L291.7,75.2z"/>
			<path class="st0" d="M321.6,74.6l-3.4,1.3c-0.7-2.3-3.1-8.5-4-10.1l3.3-1.3C318.4,66.4,320.7,72.3,321.6,74.6z M344.2,64.7
				c-0.3,0.9-0.5,1.7-0.7,2.2c-1.2,4.9-3.1,9.7-6.4,13.8c-4.1,5.3-9.6,8.8-14.6,10.7l-3-3.1c5.2-1.5,10.9-4.9,14.6-9.5
				c3.2-3.9,5.5-9.6,6.2-15.4L344.2,64.7z M331.5,71.9l-3.3,1.2c-0.5-2-2.6-7.7-3.5-9.7l3.3-1.1C328.7,64,330.9,69.9,331.5,71.9z"/>
			<path class="st0" d="M379,76.5c-4.9-2.7-12.7-5.7-17.6-7.2l0,14.8c0,1.4,0.1,3.8,0.3,5.3h-4.3c0.2-1.4,0.3-3.6,0.3-5.3V58
				c0-1.3-0.1-3.3-0.4-4.7h4.4c-0.1,1.4-0.3,3.3-0.3,4.7v7.3c5.9,1.8,14.4,5,19.2,7.4L379,76.5z"/>
		</g>
	</g>
	<g>
		<g>
			<path class="st0" d="M0.1,158.1l2.7-3.6c2.5,2.5,5.6,4.8,10.7,4.8c5.1,0,9.3-3.9,9.3-10.3c0-6.2-3.6-9.9-9-9.9
				c-2.9,0-4.7,0.9-7.2,2.6L3.5,140l1.4-20.3h21.2v4.6H9.6l-1.1,12.6c1.9-1.1,3.9-1.7,6.5-1.7c7.2,0,13.1,4.3,13.1,13.8
				c0,9.6-6.9,14.9-14.2,14.9C7.2,163.9,3,161,0.1,158.1z"/>
			<path class="st0" d="M34.5,171.2c3.7-1.6,5.9-4.4,5.9-8.1c-0.2,0.1-0.4,0.1-0.7,0.1c-2.1,0-4-1.3-4-3.8c0-2.3,1.9-3.8,4.1-3.8
				c2.8,0,4.6,2.4,4.6,6.4c0,5.7-3.3,10.1-8.7,12.4L34.5,171.2z"/>
			<path class="st0" d="M49.5,158.1l2.7-3.6c2.5,2.5,5.6,4.8,10.7,4.8c5.1,0,9.3-3.9,9.3-10.3c0-6.2-3.6-9.9-9-9.9
				c-2.9,0-4.7,0.9-7.2,2.6L53,140l1.4-20.3h21.2v4.6H59.1L58,136.8c1.9-1.1,3.9-1.7,6.5-1.7c7.2,0,13.1,4.3,13.1,13.8
				c0,9.6-6.9,14.9-14.2,14.9C56.6,163.9,52.4,161,49.5,158.1z"/>
			<path class="st0" d="M83.7,141.2c0-15.1,5.3-22.4,13.6-22.4c8.2,0,13.5,7.4,13.5,22.4c0,15.1-5.3,22.7-13.5,22.7
				C89,163.9,83.7,156.3,83.7,141.2z M105.5,141.2c0-12.7-3.3-18-8.2-18c-5,0-8.3,5.3-8.3,18c0,12.8,3.3,18.3,8.3,18.3
				C102.2,159.6,105.5,154,105.5,141.2z"/>
			<path class="st0" d="M116.4,152.3c0-5.8,4-9.8,8-12V140c-3.2-2.2-5.9-5.5-5.9-10c0-6.6,5.1-11,11.9-11c7.4,0,11.9,4.7,11.9,11.5
				c0,4.6-3.2,8.5-5.8,10.5v0.3c3.8,2.2,7.4,5.5,7.4,11.4c0,6.3-5.5,11.3-13.6,11.3C122.2,163.9,116.4,159,116.4,152.3z
				 M138.7,152.5c0-5.8-5.3-8-11.5-10.5c-3.5,2.3-5.9,5.7-5.9,9.8c0,4.6,3.9,8,9.1,8C135.4,159.8,138.7,156.8,138.7,152.5z
				 M137.7,130.7c0-4.3-2.7-7.8-7.4-7.8c-4,0-6.9,2.8-6.9,7.1c0,5.2,4.7,7.5,9.8,9.5C136.2,136.9,137.7,133.9,137.7,130.7z"/>
			<path class="st0" d="M174.3,162.4c0,1.5-0.4,2.2-1.4,2.6c-1,0.4-2.7,0.4-5.4,0.4c-0.1-0.6-0.5-1.6-0.8-2.2c2.1,0.1,4,0.1,4.6,0
				c0.5,0,0.8-0.2,0.8-0.8v-9.3h-20.3v12.3h-2.2v-25.6h24.8V162.4z M151.7,150.9h8.9V142h-8.9V150.9z M172,150.9V142h-9.2v8.9H172z"
				/>
			<path class="st0" d="M179.7,153.7c0-5.9,1.7-10.9,4.5-15.4l1.7,0.8c-2.6,4.3-3.9,9.4-3.9,14.6s1.2,10.3,3.9,14.6l-1.7,0.8
				C181.4,164.5,179.7,159.7,179.7,153.7z"/>
			<path class="st0" d="M198.7,156.1c-0.5-0.8-1.7-2.5-2.8-3.8v13h-2.2V152c-1.2,3.1-2.8,6.1-4.4,7.9c-0.2-0.6-0.8-1.5-1.1-2.1
				c1.9-2.1,4-6,5.2-9.5h-4.6v-2.1h4.9v-4.6c-1.5,0.3-3,0.5-4.4,0.8c-0.1-0.5-0.4-1.2-0.7-1.8c3.4-0.5,7.4-1.4,9.6-2.4l1.5,1.7
				c-1.1,0.5-2.4,0.9-3.9,1.2v5.1h3.8v2.1h-3.8v1.8c0.9,0.8,3.5,3.5,4.1,4.2L198.7,156.1z M213.6,163c0.6,0,0.8-0.5,0.8-3.8
				c0.5,0.4,1.4,0.8,2,0.9c-0.2,3.9-0.8,4.9-2.6,4.9h-2.6c-2.1,0-2.6-0.7-2.6-2.9v-8.4h-2.6c-0.5,5.1-2,9.4-7.3,11.7
				c-0.2-0.5-0.9-1.3-1.4-1.7c4.7-1.9,5.9-5.7,6.4-10h-3.1v-9.9h13.9v9.9h-3.9v8.4c0,0.8,0.1,0.9,0.8,0.9H213.6z M203.8,143.8
				c-0.4-1.4-1.5-3.6-2.6-5.2l1.9-0.8c1.1,1.6,2.3,3.7,2.7,5.1L203.8,143.8z M203,151.7h9.5v-5.9H203V151.7z M214.6,138.5
				c-1,1.8-2.2,3.9-3.1,5.2l-1.9-0.8c0.9-1.4,2.1-3.7,2.7-5.2L214.6,138.5z"/>
			<path class="st0" d="M225.5,159.3c1.4,2.2,4.1,3.2,7.5,3.4c3.3,0.1,10,0,13.6-0.2c-0.2,0.5-0.6,1.6-0.7,2.3
				c-3.3,0.1-9.5,0.2-12.9,0.1c-3.9-0.2-6.6-1.2-8.6-3.6c-1.5,1.3-3,2.6-4.6,3.9l-1.2-2.3c1.4-0.9,3.1-2.2,4.6-3.5v-7.7h-4.2v-2.1
				h6.4V159.3z M224.6,144.6c-0.9-1.5-3.2-3.5-5.2-4.8l1.7-1.4c1.9,1.3,4.2,3.2,5.3,4.7L224.6,144.6z M237.2,139.3
				c0.8,9.2,3.1,16.4,9.2,19.5c-0.5,0.4-1.3,1.2-1.8,1.7c-4.2-2.5-6.7-6.8-8.1-12.3c-1.6,5.4-4.2,9.6-8,12.3
				c-0.4-0.4-1.2-1.3-1.8-1.7c4.4-2.8,7-7.5,8.2-13.7l1,0.2c-0.2-1.2-0.4-2.5-0.5-3.9h-5.5v-2.1H237.2z"/>
			<path class="st0" d="M249.2,168.3c2.6-4.3,3.9-9.4,3.9-14.6s-1.3-10.2-3.9-14.6l1.7-0.8c2.8,4.5,4.5,9.4,4.5,15.4
				c0,6-1.7,10.9-4.5,15.4L249.2,168.3z"/>
		</g>
	</g>
	<g>
		<g>
			<path class="st0" d="M6.7,219c0,1.1,0,2.3,0,3.4c0,0.7-0.1,1-0.8,1c-0.7,0-0.8-0.3-0.8-1c0-1.1,0.1-2.3,0.1-3.4v-10.9
				c0-0.8,0-2.2-0.1-2.9c0-0.1,0-0.3,0-0.4c0-0.2,0.1-0.2,0.2-0.2c0.4,0,1.6,0.2,1.6,0.5c0,0.2-0.1,0.2-0.2,0.3
				c-0.2,0.3-0.2,2.3-0.2,2.7V219z M10.9,213c0.3,0.2,1.8,1.4,1.8,1.7c0,0.3-0.4,0.8-0.8,0.8c-0.2,0-0.3-0.1-0.5-0.2
				c-1.2-1.1-2.3-2-3.6-2.9c-0.2-0.1-0.4-0.2-0.4-0.5c0-0.3,0.4-0.8,0.7-0.8C8.5,211.1,10.5,212.7,10.9,213z M12.9,207.2
				c0.2,0.2,1,1,1,1.2c0,0.3-0.5,0.7-0.8,0.7c-0.2,0-0.2-0.1-0.3-0.2c-0.4-0.6-1-1.3-1.5-1.8c-0.1-0.1-0.2-0.2-0.2-0.3
				c0-0.2,0.5-0.7,0.8-0.7C12,206.2,12.7,207,12.9,207.2z M15,205.9c0.1,0.2,1,1.1,1,1.2c0,0.3-0.5,0.8-0.8,0.8
				c-0.2,0-0.2-0.1-0.3-0.3c-0.4-0.5-1.1-1.3-1.5-1.8c-0.1-0.1-0.2-0.2-0.2-0.3c0-0.2,0.5-0.7,0.8-0.7
				C14.1,204.8,14.8,205.7,15,205.9z"/>
			<path class="st0" d="M23.7,211.7c0.3,0,0.6-0.2,0.6-0.5v-0.7c0-0.5,0-1.2-0.1-1.6c0-0.1,0-0.2,0-0.2c0-0.2,0.2-0.3,0.3-0.3
				c0.3,0,1.3,0.1,1.3,0.4c0,0.1-0.1,0.3-0.2,0.4c-0.2,0.2-0.2,0.7-0.2,1.3v0.7c0,0.3,0.2,0.5,0.5,0.5h2.6c0.8,0,1.4,0,1.5,0
				c0.4,0,0.9,0.6,0.9,0.8c0,0.3-0.1,0.2-0.2,1c-0.2,1-0.4,2.1-0.8,3.1c-0.7,1.9-1.6,3.1-3.1,4.3c-0.5,0.4-2.7,2.1-3.3,2.1
				c-0.3,0-0.7-0.4-0.7-0.7c0-0.2,0.2-0.4,0.4-0.5c0.8-0.4,1.7-1,2.4-1.5c1.7-1.4,2.8-3,3.4-5.1c0.1-0.4,0.3-1.4,0.3-1.8
				c0-0.6-0.6-0.6-0.8-0.6h-7.6c-0.3,0-0.6,0.3-0.6,0.6v2c0,0.5,0,1,0,1.2c0,0.5-0.3,0.5-0.7,0.5c-0.4,0-0.6-0.1-0.6-0.5
				c0-0.4,0-0.8,0-1.2v-2.3c0-0.3,0-0.6,0-0.8c0-0.6,0.2-0.7,0.9-0.7c0.5,0,1,0,1.5,0H23.7z"/>
			<path class="st0" d="M47.9,212.7c0.9,0,1.8,0,2.7,0c0.5,0,0.6,0.2,0.6,0.7c0,0.4,0,0.7-0.5,0.7c-0.9,0-1.8,0-2.8,0H37.5
				c-0.9,0-1.8,0-2.7,0c-0.5,0-0.5-0.2-0.5-0.7c0-0.6,0-0.7,0.6-0.7c0.8,0,1.8,0,2.7,0H47.9z"/>
			<path class="st0" d="M67.5,207.4c0.9,0,1.8,0,1.9,0c0.5,0,1,0.7,1,0.9c0,0.3-0.2,0.3-0.3,1.4c-0.6,4.3-2.5,7.5-6.1,10
				c-1.3,0.9-2.6,1.5-4,2.1c-0.2,0.1-0.5,0.2-0.7,0.2c-0.4,0-0.8-0.6-0.8-0.9c0-0.2,0.2-0.3,0.4-0.4c3.1-1,6.2-3,8-5.7
				c1-1.6,1.7-3.6,1.9-5.5c0-0.1,0-0.3,0-0.4c0-0.6-0.5-0.5-1.2-0.5h-8.7c-0.9,0-1.8,0.1-2.7,0.1c-0.5,0-0.5-0.3-0.5-0.7
				c0-0.4,0-0.7,0.5-0.7c0.9,0,1.8,0,2.7,0H67.5z M71.5,205.7c0.2,0.2,1,1,1,1.2c0,0.3-0.5,0.8-0.8,0.8c-0.1,0-0.2-0.1-0.3-0.2
				c-0.5-0.6-1-1.2-1.6-1.7c-0.1-0.1-0.2-0.2-0.2-0.3c0-0.2,0.5-0.7,0.7-0.7S71.3,205.5,71.5,205.7z M73.4,204c0.2,0.2,1,1,1,1.2
				c0,0.3-0.5,0.8-0.8,0.8c-0.1,0-0.2-0.1-0.3-0.2c-0.5-0.6-1-1.2-1.6-1.7c-0.1-0.1-0.2-0.2-0.2-0.3c0-0.2,0.5-0.7,0.8-0.7
				C72.5,203,73.2,203.8,73.4,204z"/>
			<path class="st0" d="M80.8,207.1c0.2,0,0.4,0.1,0.4,0.3c0,0.1-0.1,0.2-0.2,0.3c-0.1,0.1-0.1,0.4-0.1,0.6c0,1.5,0,3-0.2,4.4
				c-0.4,3.3-1.6,6-4,8.2c-0.1,0.1-0.2,0.1-0.3,0.1c-0.2,0-1.1-0.4-1.1-0.7c0-0.2,0.3-0.3,0.5-0.5c3.3-2.6,3.9-6.3,3.9-10.2
				c0-0.7,0-1.5-0.1-2.2c0-0.1,0-0.2,0-0.3c0-0.2,0.1-0.2,0.2-0.2C79.9,207,80.5,207.1,80.8,207.1z M86,218.5c0,0.2,0,0.4,0.2,0.4
				s0.5-0.2,0.6-0.3c2-1.4,4.6-3.5,6.3-5.2c0.1-0.1,0.2-0.3,0.4-0.3c0.2,0,0.7,0.6,0.7,0.9c0,0.2-0.3,0.5-0.5,0.6
				c-1.8,1.7-4.9,4.1-6.9,5.5c-0.1,0.1-0.2,0.1-0.3,0.2c-0.2,0.1-0.3,0.3-0.5,0.3s-0.8-0.3-1-0.4c-0.3-0.2-0.5-0.2-0.5-0.6
				c0-0.2,0.1-1.4,0.1-2.7V210c0-1,0-2-0.1-3c0-0.1,0-0.2,0-0.3c0-0.1,0.1-0.2,0.2-0.2c0.2,0,1,0.2,1.3,0.3c0.1,0,0.3,0.1,0.3,0.3
				c0,0.1-0.1,0.2-0.2,0.3c-0.2,0.2-0.2,0.6-0.2,1.4V218.5z"/>
			<path class="st0" d="M109.1,207.2c0.9,0,1.8,0,1.9,0c0.5,0,1,0.7,1,0.9c0,0.3-0.2,0.3-0.3,1.4c-0.6,4.3-2.5,7.5-6.1,10
				c-1.3,0.9-2.6,1.5-4,2.1c-0.2,0.1-0.5,0.2-0.7,0.2c-0.4,0-0.8-0.6-0.8-0.9c0-0.2,0.2-0.3,0.4-0.4c3.1-1,6.2-3,8-5.7
				c1-1.6,1.7-3.5,1.9-5.5c0-0.1,0-0.3,0-0.4c0-0.6-0.5-0.5-1.2-0.5h-8.7c-0.9,0-1.8,0.1-2.7,0.1c-0.5,0-0.5-0.3-0.5-0.7
				c0-0.4,0-0.7,0.5-0.7c0.9,0,1.8,0,2.7,0H109.1z"/>
			<path class="st0" d="M129.1,207.6c0.6,0,1.1,0,1.7,0c1.1,0,1.3,0.2,1.3,1.1c0,0.6,0,1.2,0,1.8v7.7c0,0.8,0,1.6,0,2.3
				c0,0.5-0.1,0.6-0.8,0.6s-0.6-0.2-0.6-0.9c0-0.7-0.3-0.7-1-0.7H120c-0.6,0-1,0-1,0.7c0,0.6,0.1,0.9-0.6,0.9s-0.8-0.1-0.8-0.6
				c0-0.8,0-1.5,0-2.3v-7.7c0-0.6,0-1.1,0-1.7c0-0.9,0.2-1.1,1.3-1.1c0.6,0,1.1,0,1.7,0H129.1z M119.5,208.9c-0.3,0-0.6,0.3-0.6,0.6
				v8.2c0,0.4,0.3,0.6,0.6,0.6h10.6c0.4,0,0.6-0.3,0.6-0.6v-8.2c0-0.4-0.3-0.6-0.6-0.6H119.5z"/>
			<path class="st0" d="M151.7,209.3c0.5,0,1.5,0,1.9,0c0.1,0,0.1,0,0.2,0c0.3,0,0.9,0.7,0.9,1c0,0.2-0.5,0.6-1.2,1.2
				c-2,2-4.1,4.1-6.4,5.9c-0.2,0.2-0.4,0.3-0.4,0.6c0,0.3,0.2,0.4,0.3,0.6c0.2,0.2,1,1.3,1,1.5c0,0.4-0.6,0.7-0.9,0.7
				c-0.2,0-0.3-0.2-0.4-0.3c-1.1-1.8-2.4-3.4-4-4.8c-0.2-0.1-0.4-0.3-0.4-0.5c0-0.3,0.4-0.7,0.7-0.7c0.4,0,2,1.5,2.3,1.9
				c0.2,0.2,0.3,0.3,0.5,0.3c0.3,0,0.4-0.1,0.6-0.3c1.9-1.6,3.9-3.5,5.6-5.3c0.1-0.1,0.2-0.2,0.2-0.3c0-0.2-0.3-0.2-0.5-0.2h-11.5
				c-0.9,0-1.8,0.1-2.7,0.1c-0.5,0-0.5-0.2-0.5-0.7c0-0.5,0.1-0.7,0.5-0.7c0.9,0,1.8,0,2.7,0H151.7z"/>
			<path class="st0" d="M171.9,212.7c0.9,0,1.8,0,2.7,0c0.5,0,0.6,0.2,0.6,0.7c0,0.4,0,0.7-0.5,0.7c-0.9,0-1.8,0-2.8,0h-10.4
				c-0.9,0-1.8,0-2.7,0c-0.5,0-0.5-0.2-0.5-0.7c0-0.6,0-0.7,0.6-0.7c0.8,0,1.8,0,2.7,0H171.9z"/>
			<path class="st0" d="M182.9,212.3c0.9,0.5,1.5,0.8,1.5,1.1c0,0.2-0.3,0.9-0.7,0.9c-0.2,0-0.3-0.1-0.5-0.2c-1.1-0.7-2.2-1.4-3.3-2
				c-0.2-0.1-0.3-0.2-0.3-0.4c0-0.2,0.3-0.9,0.7-0.9C180.5,210.8,182.5,212,182.9,212.3z M195.1,209.8c0,0.2-0.2,0.8-0.3,1
				c-0.8,2.1-2.5,4.8-4.1,6.4c-2.1,2-4.8,3.4-7.5,4.4c-0.3,0.1-0.5,0.2-0.7,0.5c-0.1,0.1-0.2,0.3-0.3,0.3c-0.3,0-0.3-0.3-0.5-0.6
				c-0.1-0.2-0.4-0.8-0.4-0.9c0-0.2,0.2-0.2,0.4-0.3c0.7-0.2,2-0.6,2.8-0.9c2.3-0.9,4.1-2,5.8-3.8c1.8-1.9,2.9-4.1,3.8-6.6
				c0.1-0.2,0.1-0.5,0.4-0.5C194.5,208.9,195.1,209.5,195.1,209.8z M185.2,207.1c0.2,0.2,1.4,1,1.5,1.1c0.1,0.1,0.1,0.1,0.1,0.2
				c0,0.2-0.4,0.9-0.8,0.9c-0.2,0-0.4-0.2-0.5-0.3c-0.9-0.8-1.9-1.5-2.9-2.2c-0.1-0.1-0.3-0.2-0.3-0.4c0-0.3,0.4-0.8,0.7-0.8
				C183.4,205.8,184.9,206.9,185.2,207.1z M190.8,205.2c0.2,0,1,0.7,1.2,0.9c0.2,0.2,1.1,0.9,1.1,1.1c0,0.2-0.5,0.8-0.8,0.8
				c-0.1,0-0.2-0.1-0.3-0.2c-0.5-0.5-1.1-1.1-1.8-1.5c-0.1-0.1-0.2-0.2-0.2-0.3C190.1,205.7,190.6,205.2,190.8,205.2z M192.6,203.3
				c0.2,0,1,0.7,1.2,0.8c0.2,0.2,1.1,0.9,1.1,1.1c0,0.3-0.5,0.8-0.8,0.8c-0.1,0-0.2-0.1-0.3-0.2c-0.5-0.5-1.1-1-1.8-1.5
				c-0.1,0-0.2-0.2-0.2-0.3C191.9,203.9,192.4,203.3,192.6,203.3z"/>
			<path class="st0" d="M207.5,211.2c0.5,0,0.9,0,1.3,0c0.5,0,1.1,0.1,1.1,0.7c0,0.3-0.1,1.2-0.2,1.6l-0.6,4.9
				c0,0.3,0.2,0.6,0.6,0.6h1.1c0.7,0,1.3,0,2,0c0.5,0,0.5,0.2,0.5,0.6c0,0.4,0,0.6-0.5,0.6c-0.7,0-1.4,0-2.1,0h-9.5
				c-0.7,0-1.4,0-2.1,0c-0.4,0-0.5-0.3-0.5-0.6c0-0.4,0.1-0.6,0.5-0.6c0.7,0,1.4,0,2.1,0h6c0.3,0,0.6-0.2,0.6-0.6l0.6-5
				c0-0.1,0.1-0.4,0.1-0.5c0-0.3-0.2-0.5-0.6-0.5h-3.8c-0.8,0-1.8,0-2.1,0c-0.4,0-0.5-0.3-0.5-0.6c0-0.4,0-0.6,0.5-0.6
				c0.5,0,1.2,0,2,0H207.5z"/>
			<path class="st0" d="M222.9,221.5c0,0.2-0.6,1-0.9,1c-0.2,0-0.3-0.2-0.4-0.3c-1-1.2-2.1-2.2-3.4-3c-0.2-0.1-0.3-0.2-0.3-0.4
				c0-0.3,0.6-0.9,0.8-0.9C219.2,217.9,222.9,220.9,222.9,221.5z"/>
			<path class="st0" d="M237.8,211.6c0.4,0.2,1.8,1.1,2.1,1.3c0.1,0.1,0.2,0.2,0.2,0.3c0,0.3-0.3,0.9-0.7,0.9
				c-0.2,0-0.4-0.1-0.5-0.2c-1.1-0.8-2.2-1.4-3.3-2.1c-0.1-0.1-0.3-0.2-0.3-0.3c0-0.2,0.3-0.9,0.7-0.9
				C236.2,210.6,237.5,211.4,237.8,211.6z M250.8,209.6c0,0.2-0.2,0.8-0.3,1c-0.8,2.1-2.5,4.8-4.1,6.4c-2.1,2-4.8,3.4-7.5,4.4
				c-0.3,0.1-0.5,0.2-0.7,0.5c-0.1,0.1-0.2,0.3-0.3,0.3c-0.3,0-0.3-0.2-0.5-0.6c-0.1-0.2-0.4-0.8-0.4-0.9c0-0.2,0.2-0.2,0.4-0.3
				c0.7-0.2,2-0.6,2.8-0.9c2.3-0.9,4.1-2,5.8-3.8c1.8-1.9,2.9-4.1,3.8-6.6c0.1-0.2,0.1-0.5,0.4-0.5
				C250.2,208.7,250.8,209.3,250.8,209.6z M240.4,206.5c0.3,0.2,2,1.4,2.2,1.6c0.1,0.1,0.1,0.2,0.1,0.3c0,0.2-0.4,0.9-0.8,0.9
				c-0.2,0-0.4-0.2-0.5-0.3c-0.9-0.8-1.9-1.5-2.9-2.2c-0.1-0.1-0.3-0.2-0.3-0.4c0-0.3,0.4-0.8,0.7-0.8
				C239.2,205.6,240.1,206.3,240.4,206.5z"/>
			<path class="st0" d="M264,210.4c0.4,0,0.9,0,1.3,0c1.3,0,1.1,0.5,1.1,2.3v7.1c0,0.5,0,0.9,0,1.4c0,0.5-0.3,0.5-0.7,0.5
				c-0.5,0-0.6-0.1-0.7-0.5c0-0.2,0-0.3-0.6-0.3h-6.1c-0.8,0-1.8,0-2,0c-0.4,0-0.5-0.3-0.5-0.6c0-0.3,0-0.6,0.5-0.6c0.4,0,1.3,0,2,0
				h6.2c0.3,0,0.6-0.3,0.6-0.6v-2.3c0-0.3-0.3-0.6-0.6-0.6h-5.9c-0.8,0-1.7,0-2.1,0c-0.4,0-0.5-0.3-0.5-0.6c0-0.3,0-0.6,0.5-0.6
				c0.4,0,1.3,0,2.1,0h5.9c0.3,0,0.6-0.3,0.6-0.6v-2.3c0-0.3-0.3-0.6-0.6-0.6h-6.1c-0.8,0-1.7,0-2.1,0c-0.4,0-0.4-0.3-0.4-0.6
				c0-0.4,0-0.6,0.5-0.6c0.4,0,1.3,0,2,0H264z"/>
			<path class="st0" d="M283.9,208c0.5,0,1.1,0,1.7,0c1,0,1.3,0.2,1.3,1.1c0,0.6,0,1.2,0,1.8v7.6c0,0.7,0,1.6,0,1.9
				c0,0.5-0.4,0.5-0.8,0.5c-0.7,0-0.7-0.1-0.8-0.5c-0.1-0.5-0.4-0.5-1-0.5h-8.2c-0.9,0-2.2,0-2.7,0c-0.4,0-0.5-0.2-0.5-0.7
				s0-0.7,0.5-0.7c0.5,0,1.7,0,2.6,0h8.7c0.4,0,0.6-0.3,0.6-0.6v-8.1c0-0.3-0.3-0.6-0.6-0.6h-8.7c-0.9,0-2.3,0-2.6,0
				c-0.4,0-0.5-0.2-0.5-0.7c0-0.4,0-0.7,0.5-0.7c0.6,0,1.6,0.1,2.7,0.1H283.9z"/>
			<path class="st0" d="M305.2,210.5c0.5,0,1,0,1.5,0c0.1,0,0.2,0,0.3,0c0.5,0,1,0.7,1,0.9c0,0.1-0.3,1-0.3,1.1
				c-1,3.6-4,6.9-7.1,9.1c-0.5,0.3-2.1,1.4-2.7,1.4c-0.3,0-0.7-0.5-0.7-0.8c0-0.2,0.4-0.4,0.5-0.5c3.3-1.5,6.3-4.4,7.8-7.6
				c0.2-0.3,0.7-1.5,0.7-1.8c0-0.3-0.1-0.5-1.2-0.5h-9.4c-0.9,0-1.8,0-2.7,0c-0.5,0-0.5-0.2-0.5-0.7c0-0.5,0.1-0.7,0.5-0.7
				c0.9,0,1.8,0,2.7,0H305.2z M303,205.7c0.8,0,1.7,0,2.3,0c0.5,0,0.5,0.2,0.5,0.7c0,0.5,0,0.7-0.5,0.7c-0.8,0-1.5,0-2.3,0h-5.9
				c-0.8,0-1.6,0-2.3,0c-0.5,0-0.5-0.2-0.5-0.7c0-0.5,0-0.7,0.5-0.7c0.7,0,1.5,0,2.3,0H303z"/>
			<path class="st0" d="M318.6,219c0,1.1,0,2.3,0,3.4c0,0.7-0.1,1-0.8,1c-0.7,0-0.8-0.3-0.8-1c0-1.1,0.1-2.3,0.1-3.4v-10.9
				c0-0.8,0-2.2-0.1-2.9c0-0.1,0-0.3,0-0.4c0-0.2,0.1-0.2,0.2-0.2c0.4,0,1.6,0.2,1.6,0.5c0,0.2-0.1,0.2-0.2,0.3
				c-0.2,0.3-0.2,2.3-0.2,2.7V219z M322.8,213c0.3,0.2,1.8,1.4,1.8,1.7c0,0.3-0.4,0.8-0.8,0.8c-0.2,0-0.3-0.1-0.5-0.2
				c-1.2-1.1-2.3-2-3.6-2.9c-0.2-0.1-0.4-0.2-0.4-0.5c0-0.3,0.4-0.8,0.7-0.8C320.4,211.1,322.4,212.7,322.8,213z M324.7,207.2
				c0.2,0.2,1,1,1,1.2c0,0.3-0.5,0.7-0.8,0.7c-0.2,0-0.2-0.1-0.3-0.2c-0.4-0.6-1-1.3-1.5-1.8c-0.1-0.1-0.2-0.2-0.2-0.3
				c0-0.2,0.5-0.7,0.8-0.7C323.9,206.2,324.6,207,324.7,207.2z M326.9,205.9c0.1,0.2,1,1.1,1,1.2c0,0.3-0.5,0.8-0.8,0.8
				c-0.2,0-0.2-0.1-0.3-0.3c-0.4-0.5-1.1-1.3-1.5-1.8c-0.1-0.1-0.2-0.2-0.2-0.3c0-0.2,0.5-0.7,0.8-0.7
				C326,204.8,326.7,205.7,326.9,205.9z"/>
			<path class="st0" d="M335.6,211.7c0.3,0,0.6-0.2,0.6-0.5v-0.7c0-0.5,0-1.2-0.1-1.6c0-0.1,0-0.2,0-0.2c0-0.2,0.2-0.3,0.3-0.3
				c0.3,0,1.3,0.1,1.3,0.4c0,0.1-0.1,0.3-0.2,0.4c-0.2,0.2-0.2,0.7-0.2,1.3v0.7c0,0.3,0.2,0.5,0.5,0.5h2.6c0.8,0,1.4,0,1.5,0
				c0.4,0,0.9,0.6,0.9,0.8c0,0.3-0.1,0.2-0.2,1c-0.2,1-0.4,2.1-0.8,3.1c-0.7,1.9-1.6,3.1-3.1,4.3c-0.5,0.4-2.7,2.1-3.3,2.1
				c-0.3,0-0.7-0.4-0.7-0.7c0-0.2,0.2-0.4,0.4-0.5c0.8-0.4,1.7-1,2.4-1.5c1.7-1.4,2.8-3,3.4-5.1c0.1-0.4,0.3-1.4,0.3-1.8
				c0-0.6-0.6-0.6-0.8-0.6H333c-0.3,0-0.6,0.3-0.6,0.6v2c0,0.5,0,1,0,1.2c0,0.5-0.3,0.5-0.7,0.5c-0.4,0-0.6-0.1-0.6-0.5
				c0-0.4,0-0.8,0-1.2v-2.3c0-0.3,0-0.6,0-0.8c0-0.6,0.2-0.7,0.9-0.7c0.5,0,1,0,1.5,0H335.6z"/>
			<path class="st0" d="M359.8,212.7c0.9,0,1.8,0,2.7,0c0.5,0,0.6,0.2,0.6,0.7c0,0.4,0,0.7-0.5,0.7c-0.9,0-1.8,0-2.8,0h-10.4
				c-0.9,0-1.8,0-2.7,0c-0.5,0-0.5-0.2-0.5-0.7c0-0.6,0-0.7,0.6-0.7c0.8,0,1.8,0,2.7,0H359.8z"/>
			<path class="st0" d="M379.4,207.4c0.9,0,1.8,0,1.9,0c0.5,0,1,0.7,1,0.9c0,0.3-0.2,0.3-0.3,1.4c-0.6,4.3-2.5,7.5-6.1,10
				c-1.3,0.9-2.6,1.5-4,2.1c-0.2,0.1-0.5,0.2-0.7,0.2c-0.4,0-0.8-0.6-0.8-0.9c0-0.2,0.2-0.3,0.4-0.4c3.1-1,6.2-3,8-5.7
				c1-1.6,1.7-3.6,1.9-5.5c0-0.1,0-0.3,0-0.4c0-0.6-0.5-0.5-1.2-0.5h-8.7c-0.9,0-1.8,0.1-2.7,0.1c-0.5,0-0.5-0.3-0.5-0.7
				c0-0.4,0-0.7,0.5-0.7c0.9,0,1.8,0,2.7,0H379.4z M383.4,205.7c0.2,0.2,1,1,1,1.2c0,0.3-0.5,0.8-0.8,0.8c-0.1,0-0.2-0.1-0.3-0.2
				c-0.5-0.6-1-1.2-1.6-1.7c-0.1-0.1-0.2-0.2-0.2-0.3c0-0.2,0.5-0.7,0.7-0.7S383.2,205.5,383.4,205.7z M385.3,204c0.2,0.2,1,1,1,1.2
				c0,0.3-0.5,0.8-0.8,0.8c-0.1,0-0.2-0.1-0.3-0.2c-0.5-0.6-1-1.2-1.6-1.7c-0.1-0.1-0.2-0.2-0.2-0.3c0-0.2,0.5-0.7,0.8-0.7
				C384.3,203,385.1,203.8,385.3,204z"/>
			<path class="st0" d="M392.6,207.1c0.2,0,0.4,0.1,0.4,0.3c0,0.1-0.1,0.2-0.2,0.3c-0.1,0.1-0.1,0.4-0.1,0.6c0,1.5,0,3-0.2,4.4
				c-0.4,3.3-1.6,6-4,8.2c-0.1,0.1-0.2,0.1-0.3,0.1c-0.2,0-1.1-0.4-1.1-0.7c0-0.2,0.3-0.3,0.5-0.5c3.3-2.6,3.9-6.3,3.9-10.2
				c0-0.7,0-1.5-0.1-2.2c0-0.1,0-0.2,0-0.3c0-0.2,0.1-0.2,0.2-0.2C391.8,207,392.4,207.1,392.6,207.1z M397.9,218.5
				c0,0.2,0,0.4,0.2,0.4s0.5-0.2,0.6-0.3c2-1.4,4.6-3.5,6.3-5.2c0.1-0.1,0.2-0.3,0.4-0.3c0.2,0,0.7,0.6,0.7,0.9
				c0,0.2-0.3,0.5-0.5,0.6c-1.8,1.7-4.9,4.1-6.9,5.5c-0.1,0.1-0.2,0.1-0.3,0.2c-0.2,0.1-0.3,0.3-0.5,0.3s-0.8-0.3-1-0.4
				c-0.3-0.2-0.5-0.2-0.5-0.6c0-0.2,0.1-1.4,0.1-2.7V210c0-1,0-2-0.1-3c0-0.1,0-0.2,0-0.3c0-0.1,0.1-0.2,0.2-0.2
				c0.2,0,1,0.2,1.3,0.3c0.1,0,0.3,0.1,0.3,0.3c0,0.1-0.1,0.2-0.2,0.3c-0.2,0.2-0.2,0.6-0.2,1.4V218.5z"/>
			<path class="st0" d="M413.8,221.5c0,0.2-0.6,1-0.9,1c-0.2,0-0.3-0.2-0.4-0.3c-1-1.2-2.1-2.2-3.4-3c-0.2-0.1-0.3-0.2-0.3-0.4
				c0-0.3,0.6-0.9,0.8-0.9C410.1,217.9,413.8,220.9,413.8,221.5z"/>
			<path class="st0" d="M13.3,241.6c0,0.2-0.2,0.3-0.3,0.4c-0.1,0.1-0.2,0.4-0.3,0.5c-0.6,1.8-1.5,3.6-2.4,5.2
				c-0.1,0.2-0.2,0.3-0.2,0.5c0,0.4,0.5,0.6,2.1,2.1c0.1,0.1,0.2,0.2,0.2,0.3c0,0.3-0.5,0.9-0.8,0.9c-0.2,0-0.4-0.2-0.5-0.4
				c-0.3-0.3-1.3-1.4-1.7-1.4c-0.3,0-0.5,0.2-0.6,0.4c-1.5,1.9-3.4,3.5-5.4,4.7c-0.4,0.2-2.2,1.2-2.5,1.2c-0.4,0-0.8-0.6-0.8-0.8
				s0.3-0.3,0.7-0.5c2.7-1.1,5.1-2.9,6.9-5.2c0.1-0.2,0.4-0.5,0.4-0.7c0-0.2-0.1-0.4-0.2-0.5c-0.6-0.4-2.5-1.1-3.3-1.3
				c-0.2-0.1-0.5-0.1-0.5-0.4c0-0.2,0.2-0.8,0.6-0.8c0.6,0,3.1,1.1,3.7,1.4c0.2,0.1,0.3,0.2,0.4,0.2c0.4,0,0.5-0.3,0.7-0.6
				c0.7-1.4,2-4.1,2.3-5.6c0-0.2,0-0.4,0.2-0.4C11.8,240.9,13.3,241.2,13.3,241.6z"/>
			<path class="st0" d="M31.6,242.2c0.6,0,1.1,0,1.7,0c1.1,0,1.3,0.2,1.3,1.1c0,0.6,0,1.2,0,1.8v7.7c0,0.8,0,1.6,0,2.3
				c0,0.5-0.1,0.6-0.8,0.6s-0.6-0.2-0.6-0.9c0-0.7-0.3-0.7-1-0.7h-9.7c-0.6,0-1,0-1,0.7c0,0.6,0.1,0.9-0.6,0.9s-0.8-0.1-0.8-0.6
				c0-0.8,0-1.5,0-2.3v-7.7c0-0.6,0-1.1,0-1.7c0-0.9,0.2-1.1,1.3-1.1c0.6,0,1.1,0,1.7,0H31.6z M22.1,243.5c-0.3,0-0.6,0.3-0.6,0.6
				v8.2c0,0.4,0.3,0.6,0.6,0.6h10.6c0.4,0,0.6-0.3,0.6-0.6v-8.2c0-0.4-0.3-0.6-0.6-0.6H22.1z"/>
			<path class="st0" d="M56.7,245.7c0,0.3-1.1,1.4-1.4,1.6c-1.5,1.5-3.6,3.3-5.4,4.5c-2.1,1.5-4.3,2.8-6.6,3.8
				c-0.6,0.2-0.6,0.3-0.8,0.7c0,0.1-0.2,0.2-0.3,0.2c-0.2,0-0.3-0.3-0.5-0.6c-0.1-0.2-0.4-0.8-0.4-0.9c0-0.2,0.3-0.2,0.6-0.3
				c2.9-0.8,6.6-3.1,8.9-5.1c1.4-1.1,3.8-3.3,4.9-4.7c0.1-0.1,0.2-0.2,0.3-0.2C56.5,244.6,56.7,245.5,56.7,245.7z M42.6,240.8
				c0.8,0.5,1.5,1,2.2,1.6c0.5,0.4,1.1,0.8,1.1,1c0,0.3-0.4,0.9-0.8,0.9c-0.2,0-0.8-0.5-1-0.6c-0.8-0.6-1.6-1.2-2.5-1.8
				c-0.1-0.1-0.3-0.2-0.3-0.4c0-0.2,0.4-0.8,0.8-0.8C42.4,240.7,42.5,240.8,42.6,240.8z"/>
			<path class="st0" d="M65.2,253.5c0,1.1,0,2.3,0,3.4c0,0.7-0.1,1-0.8,1c-0.7,0-0.8-0.3-0.8-1c0-1.1,0.1-2.3,0.1-3.4v-10.9
				c0-0.8,0-2.2-0.1-2.9c0-0.1,0-0.3,0-0.4c0-0.2,0.1-0.2,0.2-0.2c0.4,0,1.6,0.2,1.6,0.5c0,0.2-0.1,0.2-0.2,0.3
				c-0.2,0.3-0.2,2.3-0.2,2.7V253.5z M69.3,247.5c0.3,0.2,1.8,1.4,1.8,1.7c0,0.3-0.4,0.8-0.8,0.8c-0.2,0-0.3-0.1-0.5-0.2
				c-1.2-1.1-2.3-2-3.6-2.9c-0.2-0.1-0.4-0.2-0.4-0.5c0-0.3,0.4-0.8,0.7-0.8C67,245.7,68.9,247.2,69.3,247.5z M71.3,241.8
				c0.2,0.2,1,1,1,1.2c0,0.3-0.5,0.7-0.8,0.7c-0.2,0-0.2-0.1-0.3-0.2c-0.4-0.6-1-1.3-1.5-1.8c-0.1-0.1-0.2-0.2-0.2-0.3
				c0-0.2,0.5-0.7,0.8-0.7C70.4,240.8,71.1,241.6,71.3,241.8z M73.4,240.4c0.1,0.2,1,1.1,1,1.2c0,0.3-0.5,0.8-0.8,0.8
				c-0.2,0-0.2-0.1-0.3-0.3c-0.4-0.5-1.1-1.3-1.5-1.8c-0.1-0.1-0.2-0.2-0.2-0.3c0-0.2,0.5-0.7,0.8-0.7
				C72.6,239.4,73.3,240.3,73.4,240.4z"/>
			<path class="st0" d="M82.2,246.3c0.3,0,0.6-0.2,0.6-0.5v-0.7c0-0.5,0-1.2-0.1-1.6c0-0.1,0-0.2,0-0.2c0-0.2,0.2-0.3,0.3-0.3
				c0.3,0,1.3,0.1,1.3,0.4c0,0.1-0.1,0.3-0.2,0.4c-0.2,0.2-0.2,0.7-0.2,1.3v0.7c0,0.3,0.2,0.5,0.5,0.5H87c0.8,0,1.4,0,1.5,0
				c0.4,0,0.9,0.6,0.9,0.8c0,0.3-0.1,0.2-0.2,1c-0.2,1-0.4,2.1-0.8,3.1c-0.7,1.9-1.6,3.1-3.1,4.3c-0.5,0.4-2.7,2.1-3.3,2.1
				c-0.3,0-0.7-0.4-0.7-0.7c0-0.2,0.2-0.4,0.4-0.5c0.8-0.4,1.7-1,2.4-1.5c1.7-1.4,2.8-3,3.4-5.1c0.1-0.4,0.3-1.4,0.3-1.8
				c0-0.6-0.6-0.6-0.8-0.6h-7.6c-0.3,0-0.6,0.3-0.6,0.6v2c0,0.5,0,1,0,1.2c0,0.5-0.3,0.5-0.7,0.5c-0.4,0-0.6-0.1-0.6-0.5
				c0-0.4,0-0.8,0-1.2v-2.3c0-0.3,0-0.6,0-0.8c0-0.6,0.2-0.7,0.9-0.7c0.5,0,1,0,1.5,0H82.2z"/>
			<path class="st0" d="M106.3,247.3c0.9,0,1.8,0,2.7,0c0.5,0,0.6,0.2,0.6,0.7c0,0.4,0,0.7-0.5,0.7c-0.9,0-1.8,0-2.8,0H95.9
				c-0.9,0-1.8,0-2.7,0c-0.5,0-0.5-0.2-0.5-0.7c0-0.6,0-0.7,0.6-0.7c0.8,0,1.8,0,2.7,0H106.3z"/>
			<path class="st0" d="M125.9,242c0.9,0,1.8,0,1.9,0c0.5,0,1,0.7,1,0.9c0,0.3-0.2,0.3-0.3,1.4c-0.6,4.3-2.5,7.5-6.1,10
				c-1.3,0.9-2.6,1.5-4,2.1c-0.2,0.1-0.5,0.2-0.7,0.2c-0.4,0-0.8-0.6-0.8-0.9c0-0.2,0.2-0.3,0.4-0.4c3.1-1,6.2-3,8-5.7
				c1-1.6,1.7-3.6,1.9-5.5c0-0.1,0-0.3,0-0.4c0-0.6-0.5-0.5-1.2-0.5h-8.7c-0.9,0-1.8,0.1-2.7,0.1c-0.5,0-0.5-0.3-0.5-0.7
				c0-0.4,0-0.7,0.5-0.7c0.9,0,1.8,0,2.7,0H125.9z M129.9,240.3c0.2,0.2,1,1,1,1.2c0,0.3-0.5,0.8-0.8,0.8c-0.1,0-0.2-0.1-0.3-0.2
				c-0.5-0.6-1-1.2-1.6-1.7c-0.1-0.1-0.2-0.2-0.2-0.3c0-0.2,0.5-0.7,0.7-0.7S129.7,240.1,129.9,240.3z M131.8,238.6
				c0.2,0.2,1,1,1,1.2c0,0.3-0.5,0.8-0.8,0.8c-0.1,0-0.2-0.1-0.3-0.2c-0.5-0.6-1-1.2-1.6-1.7c-0.1-0.1-0.2-0.2-0.2-0.3
				c0-0.2,0.5-0.7,0.8-0.7C130.9,237.6,131.7,238.4,131.8,238.6z"/>
			<path class="st0" d="M139.2,241.7c0.2,0,0.4,0.1,0.4,0.3c0,0.1-0.1,0.2-0.2,0.3c-0.1,0.1-0.1,0.4-0.1,0.6c0,1.5,0,3-0.2,4.4
				c-0.4,3.3-1.6,6-4,8.2c-0.1,0.1-0.2,0.1-0.3,0.1c-0.2,0-1.1-0.4-1.1-0.7c0-0.2,0.3-0.3,0.5-0.5c3.3-2.6,3.9-6.3,3.9-10.2
				c0-0.7,0-1.5-0.1-2.2c0-0.1,0-0.2,0-0.3c0-0.2,0.1-0.2,0.2-0.2C138.4,241.6,138.9,241.7,139.2,241.7z M144.4,253.1
				c0,0.2,0,0.4,0.2,0.4s0.5-0.2,0.6-0.3c2-1.4,4.6-3.5,6.3-5.2c0.1-0.1,0.2-0.3,0.4-0.3c0.2,0,0.7,0.6,0.7,0.9
				c0,0.2-0.3,0.5-0.5,0.6c-1.8,1.7-4.9,4.1-6.9,5.5c-0.1,0.1-0.2,0.1-0.3,0.2c-0.2,0.1-0.3,0.3-0.5,0.3s-0.8-0.3-1-0.4
				c-0.3-0.2-0.5-0.2-0.5-0.6c0-0.2,0.1-1.4,0.1-2.7v-6.9c0-1,0-2-0.1-3c0-0.1,0-0.2,0-0.3c0-0.1,0.1-0.2,0.2-0.2
				c0.2,0,1,0.2,1.3,0.3c0.1,0,0.3,0.1,0.3,0.3c0,0.1-0.1,0.2-0.2,0.3c-0.2,0.2-0.2,0.6-0.2,1.4V253.1z"/>
			<path class="st0" d="M170.3,243.1c1.5,1.5,2.2,3.3,2.2,5.3c0,3.1-1.6,5.7-4.3,7.1c-0.5,0.3-1.7,0.8-2.2,0.8c-0.3,0-1-0.7-1-1
				c0-0.2,0.2-0.2,0.3-0.2c3.3-0.5,5.8-3.2,5.8-6.6c0-2.9-1.8-5.5-4.7-6.2c-0.3-0.1-0.7-0.2-1-0.2c-0.6,0-0.6,0.6-0.7,1
				c-0.2,3.4-1,7.8-3.2,10.5c-0.7,0.8-1.5,1.6-2.6,1.6c-1.2,0-2.2-0.9-2.7-1.9c-0.5-0.9-0.6-2-0.6-3c0-5.2,3.9-9.3,9.1-9.3
				C166.8,241,168.8,241.6,170.3,243.1z M162.3,242.5c-3.3,1.2-5.4,4.1-5.4,7.6c0,1.2,0.4,3.8,2,3.8c1.4,0,2.8-2.5,3.2-3.7
				c0.9-2.3,1.3-4.7,1.4-7.2c0-0.1,0-0.2,0-0.2c0-0.3-0.2-0.5-0.4-0.5C162.9,242.3,162.5,242.5,162.3,242.5z"/>
			<path class="st0" d="M182.5,248.1c0,0.1,0.1,0.1,0.3,0.2c2,0.6,2.8,1.9,2.8,3.6c0,2.3-1.8,4.7-6.1,4.7c-1.5,0-2.8-0.3-3.5-0.7
				c-0.3-0.1-0.4-0.3-0.4-0.5c0-0.1,0-0.2,0.1-0.3l0.1-0.3c0.1-0.3,0.2-0.4,0.3-0.4c0.1,0,0.2,0.1,0.4,0.2c0.7,0.4,1.9,0.8,3.2,0.8
				c3.3,0,4.6-1.8,4.6-3.4c0-1.9-1.4-3-4.6-3c-0.5,0-1.2,0-1.5,0c-0.5,0-0.6-0.1-0.6-0.5v-0.2c0-0.5,0.1-0.5,0.6-0.5
				c0.2,0,0.8,0,1.3,0c3.1,0,4.1-1.5,4.1-3c0-1.5-1.3-2.5-3.2-2.5c-1.3,0-2.4,0.4-3.1,0.9c-0.2,0.1-0.3,0.2-0.4,0.2
				c-0.1,0-0.2-0.1-0.3-0.4l-0.1-0.3c-0.1-0.2-0.1-0.3-0.1-0.4c0-0.2,0.1-0.3,0.4-0.4c0.9-0.5,2.2-0.9,3.8-0.9
				c3.1,0,4.5,1.7,4.5,3.7c0,1.1-0.5,2.6-2.1,3.3C182.6,248,182.5,248,182.5,248.1z"/>
			<path class="st0" d="M190.4,246.9c0-0.1,0-0.2-0.2-0.2c-0.1,0-0.1,0-0.1,0.1c-0.3,0.5-0.8,1.5-1.2,1.9c-0.1,0.2-0.2,0.3-0.5,0.3
				c-0.2,0-0.7-0.3-0.7-0.6c0-0.2,0.2-0.4,0.3-0.6c1.6-2.3,3.5-6.9,4.1-9.6c0-0.2,0.1-0.4,0.3-0.4c0.1,0,0.4,0.1,0.5,0.1
				c0.6,0.2,0.9,0.3,0.9,0.5c0,0.2-0.2,0.2-0.3,0.3c-0.3,0.2-0.4,0.3-0.5,0.7c-0.4,1.2-0.9,2.9-1.5,4.1c0,0,0,0.1,0,0.1
				c0,0.1,0.1,0.2,0.2,0.2c0.2,0,0.4,0,0.4,0.2c0,0.2-0.1,0.2-0.3,0.3c-0.3,0.2-0.3,0.6-0.3,2.2v8.1c0,0.9,0.1,1.8,0.1,2.6
				c0,0.5,0,0.8-0.7,0.8c-0.6,0-0.7-0.3-0.7-0.8c0-0.9,0.1-1.8,0.1-2.7V246.9z M196.7,257.2c-0.3,0-0.5,0.1-0.5,0.4
				c0,0.5,0,0.7-0.6,0.7c-0.5,0-0.6-0.2-0.6-0.7c0-0.8,0-1.5,0-2.3v-12.9c0-0.6,0-1.2,0-1.9c0-0.8,0.2-1.1,1-1.1c0.5,0,1,0,1.5,0
				h7.4c0.5,0,0.9,0,1.4,0c0.9,0,1.1,0.2,1.1,1.1c0,0.7,0,1.3,0,1.9v12.7c0,0.8,0,1.5,0,2.3c0,0.5-0.2,0.6-0.6,0.6
				c-0.6,0-0.6-0.3-0.6-0.6c0-0.3-0.2-0.4-0.5-0.4H196.7z M206.2,241.3c0-0.4-0.2-0.6-0.6-0.6h-8.8c-0.4,0-0.6,0.2-0.6,0.6v14.1
				c0,0.5,0.2,0.6,0.6,0.6h8.7c0.5,0,0.7-0.2,0.7-0.6V241.3z M202.7,253.9h-2.9c-0.2,0-0.3,0.1-0.4,0.3c-0.1,0.2-0.4,0.2-0.6,0.2
				c-0.6,0-0.6-0.2-0.6-0.6V249c0-0.7,0.2-1,0.9-1c0.2,0,0.5,0,0.7,0h0.3c0.5,0,0.6-0.2,0.6-0.6v-1.6c0-0.5-0.2-0.6-0.6-0.6h-0.5
				c-0.6,0-1.3,0-1.9,0c-0.4,0-0.4-0.3-0.4-0.6c0-0.3,0-0.6,0.4-0.6c0.7,0,1.3,0,1.9,0h0.5c0.4,0,0.6-0.2,0.6-0.6
				c0-0.6,0-1.1-0.1-1.7c0-0.1,0-0.2,0-0.2c0-0.3,0.2-0.3,0.4-0.3c0.2,0,0.4,0,0.6,0.1c0.5,0,0.9,0,0.9,0.3c0,0.2-0.1,0.2-0.3,0.3
				c-0.3,0.2-0.3,0.4-0.3,1.5c0,0.4,0.2,0.6,0.6,0.6h0.4c0.7,0,1.3,0,1.9,0c0.4,0,0.4,0.3,0.4,0.6c0,0.3,0,0.6-0.4,0.6
				c-0.6,0-1.3,0-1.9,0h-0.4c-0.5,0-0.6,0.2-0.6,0.6v1.6c0,0.5,0.2,0.6,0.6,0.6h0.2c0.2,0,0.4,0,0.7,0c0.8,0,0.9,0.3,0.9,1
				c0,0.3,0,0.6,0,0.9v2.7c0,0.4,0,0.8,0,1.2s-0.1,0.5-0.6,0.5c-0.3,0-0.5,0-0.6-0.2C202.9,254,202.9,253.9,202.7,253.9z
				 M202.4,252.7c0.4,0,0.6-0.2,0.6-0.6v-2.3c0-0.4-0.2-0.6-0.6-0.6H200c-0.4,0-0.6,0.2-0.6,0.6v2.3c0,0.4,0.2,0.6,0.6,0.6H202.4z"
				/>
			<path class="st0" d="M218.7,251.2c0,2.9-0.3,3.3,3,3.3c1.7,0,3.7-0.2,5.4-0.3h0.2c0.3,0,0.3,0.2,0.3,0.4c0,0.7-0.1,1-0.5,1
				c-0.9,0.1-3.9,0.1-5,0.1c-1,0-3.3,0.1-4-0.5c-0.7-0.5-0.7-1.2-0.7-2.2c0-0.6,0-1.2,0-1.8v-3.5c0-0.2-0.2-0.5-0.5-0.5h-0.1l-2,0.4
				c-0.3,0.1-2.9,0.6-2.9,0.6c-0.4,0-0.5-0.7-0.5-0.9c0-0.5,0.5-0.3,3.2-0.9l2.2-0.4c0.3-0.1,0.5-0.3,0.5-0.6v-2.6
				c0-0.7,0-2.3-0.1-2.8c0-0.1,0-0.2,0-0.3c0-0.2,0.1-0.2,0.2-0.2c0.1,0,1.6,0.1,1.6,0.5c0,0.1-0.1,0.2-0.2,0.3
				c-0.2,0.2-0.2,0.4-0.2,0.6c0,0.5,0,1.4,0,2v2.3c0,0.3,0.3,0.5,0.6,0.5l5.9-1.1c0.3,0,2.4-0.5,2.4-0.5c0.3,0,1,0.6,1,0.9
				c0,0.2-0.1,0.4-0.2,0.5c-0.7,0.8-1.4,1.6-2.1,2.5c-0.6,0.8-1.3,1.5-1.9,2.3c-0.2,0.2-0.4,0.5-0.7,0.5c-0.3,0-1-0.3-1-0.7
				c0-0.1,0.1-0.2,0.2-0.3c1.3-1.1,2.4-2.4,3.4-3.7c0,0,0.1-0.1,0.1-0.2c0-0.1-0.1-0.2-0.2-0.2c-0.1,0-0.9,0.1-1,0.2l-5.8,1.1
				c-0.4,0.1-0.6,0.3-0.6,0.8V251.2z"/>
			<path class="st0" d="M235.9,247.3c0.2,0.3,0.9,1.4,0.9,1.6c0,0.4-0.6,0.6-0.8,0.6c-0.2,0-0.3-0.2-0.4-0.3
				c-0.4-0.9-0.9-1.7-1.5-2.5c-0.1-0.1-0.2-0.2-0.2-0.4c0-0.3,0.4-0.6,0.7-0.6C235,245.8,235.6,246.7,235.9,247.3z M246.6,245.7
				c0,0.2-0.1,0.2-0.2,0.3c-0.1,0.1-0.1,0.1-0.2,0.2c-0.3,1.1-0.9,2.5-1.3,3.6c-1.1,2.3-2.5,4-4.7,5.3c-0.7,0.4-2.9,1.5-3.7,1.5
				c-0.3,0-0.7-0.5-0.7-0.8c0-0.3,0.2-0.3,0.5-0.4c1.7-0.5,3.3-1,4.7-2.2c1.3-1.1,2.4-2.5,3.1-4.1c0.5-1,1-2.6,1.2-3.8
				c0-0.2,0-0.3,0.3-0.3C245.4,245.1,246.6,245.4,246.6,245.7z M240.8,246.1c0.2,0.3,0.9,1.4,0.9,1.6c0,0.4-0.6,0.6-0.8,0.6
				c-0.2,0-0.3-0.2-0.5-0.4c-0.4-0.9-0.9-1.6-1.4-2.4c-0.1-0.1-0.2-0.2-0.2-0.4c0-0.3,0.5-0.6,0.7-0.6
				C239.9,244.6,240.3,245.3,240.8,246.1z"/>
			<path class="st0" d="M256.8,253.5c0,1.1,0,2.3,0,3.4c0,0.7-0.1,1-0.8,1c-0.7,0-0.8-0.3-0.8-1c0-1.1,0.1-2.3,0.1-3.4v-10.9
				c0-0.8,0-2.2-0.1-2.9c0-0.1,0-0.3,0-0.4c0-0.2,0.1-0.2,0.2-0.2c0.4,0,1.6,0.2,1.6,0.5c0,0.2-0.1,0.2-0.2,0.3
				c-0.2,0.3-0.2,2.3-0.2,2.7V253.5z M261,247.5c0.3,0.2,1.8,1.4,1.8,1.7c0,0.3-0.4,0.8-0.8,0.8c-0.2,0-0.3-0.1-0.5-0.2
				c-1.2-1.1-2.3-2-3.6-2.9c-0.2-0.1-0.4-0.2-0.4-0.5c0-0.3,0.4-0.8,0.7-0.8C258.6,245.7,260.6,247.2,261,247.5z"/>
			<path class="st0" d="M274,254.5c0,1.7-1.4,3-3,3s-3.1-1.4-3.1-3s1.4-3,3.1-3S274,252.9,274,254.5z M268.8,254.5
				c0,1.2,1,2.2,2.2,2.2c1.2,0,2.2-1,2.2-2.2c0-1.2-1-2.2-2.2-2.2C269.8,252.4,268.8,253.4,268.8,254.5z"/>
			<path class="st0" d="M2.4,291l-0.7-0.7l7.4-7.4l-7.4-7.4l0.7-0.7l7.4,7.4l7.4-7.4l0.7,0.7l-7.4,7.4l7.4,7.4l-0.7,0.7l-7.4-7.4
				L2.4,291z M5.5,282.9c0,1-0.8,1.9-1.9,1.9c-1,0-1.9-0.8-1.9-1.9s0.9-1.9,1.9-1.9C4.7,281,5.5,281.9,5.5,282.9z M11.7,276.7
				c0,1-0.8,1.9-1.9,1.9c-1,0-1.9-0.9-1.9-1.9c0-1.1,0.9-1.9,1.9-1.9C10.9,274.8,11.7,275.7,11.7,276.7z M11.7,289.1
				c0,1-0.8,1.9-1.9,1.9c-1,0-1.9-0.9-1.9-1.9s0.9-1.9,1.9-1.9C10.9,287.2,11.7,288.1,11.7,289.1z M17.9,282.9c0,1-0.8,1.9-1.9,1.9
				c-1,0-1.9-0.8-1.9-1.9S15,281,16,281C17.1,281,17.9,281.9,17.9,282.9z"/>
			<path class="st0" d="M26.5,281.1c0-0.1,0-0.2-0.2-0.2c-0.1,0-0.1,0-0.2,0.1c-0.6,0.9-1.3,1.8-2,2.7c-0.2,0.2-0.5,0.6-0.8,0.6
				c-0.3,0-0.7-0.3-0.7-0.6c0-0.2,0.2-0.4,0.3-0.5c2.3-2.5,4.8-6.7,5.8-10c0.1-0.2,0.1-0.4,0.3-0.4c0.1,0,0.4,0.1,0.5,0.2
				c0.5,0.2,0.8,0.3,0.8,0.5c0,0.2-0.2,0.3-0.3,0.3c-0.4,0.2-0.4,0.3-0.5,0.7c-0.5,1.4-1.1,2.5-1.8,3.8c0,0,0,0.1,0,0.1
				c0,0.1,0.1,0.2,0.2,0.2c0.1,0,0.3,0.1,0.3,0.3c0,0.1-0.1,0.2-0.3,0.3c-0.4,0.2-0.3,0.7-0.3,2.3v7.9c0,0.9,0,1.9,0,2.8
				c0,0.6,0,0.9-0.6,0.9c-0.6,0-0.7-0.3-0.7-0.8c0-1,0-1.9,0-2.8V281.1z M40.9,275.8c0.2,0,1.1,0.8,1.1,1c0,0.1-0.1,0.2-0.2,0.2
				c-0.1,0-0.2,0-0.2,0s-0.2,0-0.2,0.1c-2,2-4.3,3.8-6.7,5.3c-0.4,0.2-0.5,0.5-0.5,0.9v6.4c0,1,0.1,1.3,1.1,1.3h4.1
				c1,0,1.5-0.3,2-3.1c0.1-0.5,0.1-0.8,0.5-0.8c0.3,0,0.9,0.1,0.9,0.5c0,0.6-0.6,2.3-0.8,2.9c-0.7,1.7-1.7,1.6-2.3,1.6H35
				c-1.3,0-2.2-0.5-2.2-1.9c0-0.6,0-1.2,0-1.8v-12.5c0-0.9,0-1.9-0.1-2.8c0-0.1,0-0.2,0-0.2c0-0.2,0.1-0.3,0.3-0.3
				c0.2,0,1,0.1,1.3,0.1c0.2,0,0.3,0.1,0.3,0.2c0,0.2-0.1,0.2-0.3,0.3c-0.4,0.2-0.3,0.7-0.3,2.6v4.7c0,0.2,0.1,0.4,0.3,0.4
				c0.1,0,0.1,0,0.2-0.1c2.3-1.6,4-3,6.1-5.1C40.7,275.9,40.8,275.8,40.9,275.8z"/>
			<path class="st0" d="M50.2,283.5c-0.1,0-0.1,0.1-0.2,0.2v5.1c0,1,0.1,2.1,0.1,3.1c0,0.5,0,0.9-0.7,0.9s-0.7-0.3-0.7-0.8
				c0-1.1,0-2.1,0-3.2v-4.3c0-0.1,0-0.1-0.1-0.1c0,0-0.1,0-0.1,0.1c-0.5,1.4-1.5,3.2-2.3,4.4c-0.2,0.2-0.3,0.5-0.5,0.5
				c-0.2,0-0.7-0.3-0.7-0.6c0-0.2,0.2-0.4,0.3-0.6c1.3-1.8,2.4-4,3.2-6.1c0-0.1,0-0.1,0-0.2c0-0.3-0.2-0.4-0.5-0.4h-0.4
				c-0.6,0-1.3,0-1.9,0c-0.4,0-0.4-0.3-0.4-0.6c0-0.3,0-0.6,0.4-0.6c0.6,0,1.3,0,1.9,0h0.4c0.4,0,0.6-0.2,0.6-0.6v-3.8
				c0-0.9,0-1.9-0.1-2.7c0-0.1,0-0.2,0-0.2c0-0.2,0.2-0.3,0.4-0.3c0.2,0,0.5,0,0.6,0c0.7,0.1,0.9,0.1,0.9,0.3c0,0.2-0.1,0.2-0.3,0.3
				c-0.4,0.2-0.3,0.7-0.3,2.6v3.8c0,0.5,0.2,0.6,0.6,0.6h0.4c0.6,0,1.2,0,1.9,0c0.4,0,0.4,0.3,0.4,0.6c0,0.3,0,0.6-0.4,0.6
				c-0.6,0-1.3,0-1.9,0h-0.3c-0.2,0-0.4,0.1-0.4,0.3c0,0.1,0,0.1,0.1,0.2c0.7,1.1,1.6,2.3,2.5,3.3c0.1,0.1,0.2,0.2,0.2,0.3
				c0,0.2-0.4,0.6-0.7,0.6c-0.5,0-1.9-2.2-2.2-2.6C50.3,283.5,50.3,283.5,50.2,283.5z M47.5,279.6c-0.3,0-0.5-0.2-0.5-0.5
				c-0.2-1-0.6-2.1-1-3c-0.1-0.1-0.1-0.3-0.1-0.4c0-0.3,0.4-0.5,0.7-0.5c0.5,0,0.7,0.7,1.1,2.1c0.1,0.3,0.5,1.7,0.5,1.9
				C48.1,279.4,47.8,279.6,47.5,279.6z M53.4,275.6c-0.2,0-0.3,0.1-0.4,0.3c-0.3,0.8-0.7,2.3-1.1,3c-0.1,0.2-0.2,0.4-0.5,0.4
				c-0.2,0-0.8-0.1-0.8-0.4c0-0.1,0-0.2,0.1-0.3c0.5-1.1,0.9-2.2,1.2-3.4c0-0.2,0.1-0.3,0.3-0.3c0.3,0,1.4,0.2,1.4,0.4
				C53.7,275.5,53.5,275.6,53.4,275.6z M62.1,276.1c1,0,2,0,2.6,0c0.4,0,0.4,0.2,0.4,0.7c0,0.4,0,0.6-0.4,0.6c-0.6,0-1.6,0-2.6,0H56
				c-0.5,0-0.6,0.2-0.6,0.6v3.5c0,2.9-0.4,5.8-1.2,8.6c-0.2,0.6-0.7,2-1,2.5c-0.1,0.1-0.2,0.2-0.3,0.2c-0.3,0-1-0.3-1-0.6
				c0-0.1,0.1-0.3,0.2-0.4c1.5-2.9,2.1-7.1,2.1-10.4v-2.3c0-0.6,0-1.2,0-1.8c0-1.3,0.6-1,3.3-1h1.1c0.4,0,0.6-0.2,0.6-0.6
				c0-0.7,0-1.4-0.1-2.1c0-0.1,0-0.2,0-0.2c0-0.2,0.2-0.3,0.4-0.3c0.2,0,0.5,0,0.7,0c0.8,0,1,0.1,1,0.3c0,0.2-0.1,0.2-0.3,0.3
				c-0.3,0.2-0.3,0.5-0.3,1.6v0.4c0,0.4,0.2,0.6,0.6,0.6H62.1z M60.7,282.3c0,0.5,0.2,0.6,0.6,0.6h0.8c0.7,0,1.4,0,2,0
				c0.4,0,0.4,0.3,0.4,0.6c0,0.3,0,0.6-0.4,0.6c-0.7,0-1.4,0-2,0h-0.8c-0.5,0-0.6,0.2-0.6,0.6v5.8c0,0.5,0.2,0.6,0.6,0.6h1.1
				c0.8,0,1.7,0,2.5,0c0.4,0,0.5,0.2,0.5,0.6c0,0.4,0,0.6-0.4,0.6c-0.8,0-1.7-0.1-2.5-0.1h-4.7c-0.8,0-1.7,0.1-2.5,0.1
				c-0.4,0-0.4-0.2-0.4-0.6c0-0.4,0-0.6,0.4-0.6c0.9,0,1.7,0,2.5,0h1.2c0.4,0,0.6-0.2,0.6-0.6v-5.8c0-0.4-0.2-0.6-0.6-0.6h-0.3
				c-0.7,0-1.4,0-2,0c-0.4,0-0.4-0.3-0.4-0.6c0-0.3,0-0.6,0.4-0.6c0.7,0,1.4,0,2,0h0.3c0.4,0,0.6-0.2,0.6-0.6v-1.5
				c0-0.8,0-1.6-0.1-2.4c0-0.1,0-0.2,0-0.2c0-0.2,0.2-0.3,0.4-0.3c0.2,0,0.4,0,0.6,0c0.7,0.1,0.9,0.1,0.9,0.3c0,0.2-0.1,0.2-0.3,0.3
				c-0.3,0.2-0.3,0.6-0.3,2.2V282.3z"/>
			<path class="st0" d="M73.5,284.6c-0.1,0-0.1,0.1-0.1,0.2v4.3c0,0.9,0,1.9,0,2.8c0,0.5,0,0.9-0.6,0.9c-0.6,0-0.6-0.4-0.6-0.9
				c0-1,0-1.9,0-2.9v-4.2c0-0.1,0-0.2-0.1-0.2c-0.1,0-0.1,0-0.1,0.1c-0.4,0.8-2.6,5.6-3.4,5.6c-0.2,0-0.7-0.3-0.7-0.6
				c0-0.1,0.1-0.3,0.2-0.4c1.5-1.9,2.6-4.1,3.6-6.3c0-0.1,0-0.1,0-0.2c0-0.3-0.3-0.4-0.4-0.4h-0.6c-0.8,0-1.5,0-2.2,0
				c-0.4,0-0.4-0.2-0.4-0.6c0-0.3,0-0.6,0.4-0.6c0.8,0,1.5,0,2.2,0h1c0.4,0,0.6-0.2,0.6-0.6c0-0.5,0-1-0.1-1.6c0-0.1,0-0.2,0-0.2
				c0-0.2,0.2-0.3,0.4-0.3c0.3,0,0.6,0.1,1,0.1c0.2,0,0.5,0,0.5,0.3c0,0.1-0.1,0.2-0.3,0.3c-0.3,0.2-0.3,0.4-0.3,1.5
				c0,0.4,0.2,0.6,0.6,0.6h0.7c0.8,0,1.5,0,2.2,0c0.4,0,0.4,0.2,0.4,0.6c0,0.3,0,0.6-0.4,0.6c-0.7,0-1.5,0-2.2,0h-0.6
				c-0.2,0-0.4,0.1-0.4,0.3c0,0.1,0,0.1,0.1,0.2c0.8,1.4,1.9,2.7,3,3.9c0.1,0.1,0.2,0.2,0.2,0.3c0,0.3-0.4,0.7-0.7,0.7
				c-0.6,0-2.3-2.6-2.6-3.2C73.6,284.6,73.6,284.6,73.5,284.6z M72.6,276h-0.8c-0.5,0-0.7,0.1-0.9,0.5c-0.4,0.6-1,1.4-1.4,1.9
				c-0.1,0.1-0.3,0.3-0.5,0.3c-0.3,0-0.8-0.3-0.8-0.5c0-0.2,0.2-0.3,0.3-0.5c1-1.2,2.4-3.3,3-4.8c0-0.1,0.1-0.2,0.2-0.2
				c0.1,0,0.5,0.1,0.6,0.2c0.5,0.2,0.8,0.2,0.8,0.4c0,0.2-0.3,0.2-0.4,0.2c-0.2,0-0.4,0.4-0.6,0.9c0,0,0,0.1,0,0.2
				c0,0.2,0.2,0.3,0.3,0.3h3c0.7,0,1.3,0,1.9,0c0.4,0,0.4,0.2,0.4,0.6c0,0.4,0,0.6-0.4,0.6c-0.5,0-1.2,0-1.9,0H75
				c-0.2,0-0.4,0.1-0.4,0.4c0,0.1,0,0.1,0,0.2c0.1,0.3,0.5,1.2,0.5,1.5c0,0.4-0.5,0.5-0.7,0.5c-0.4,0-0.4-0.6-1-2
				C73.3,276.1,73,276,72.6,276z M83.9,278c0,0.3-0.4,0.5-0.7,0.5c-0.4,0-0.3-0.4-1.1-2c-0.2-0.4-0.4-0.5-0.9-0.5h-0.8
				c-0.5,0-0.6,0.1-0.9,0.5c-0.3,0.5-0.8,1.2-1.2,1.7c-0.1,0.2-0.2,0.3-0.5,0.3c-0.2,0-0.8-0.3-0.8-0.6c0-0.1,0.2-0.3,0.4-0.6
				c1-1.3,2-3,2.6-4.5c0-0.1,0.1-0.2,0.2-0.2c0.2,0,0.9,0.2,1.1,0.3c0.1,0,0.3,0.1,0.3,0.3c0,0.1-0.2,0.2-0.2,0.2
				c-0.2,0-0.3,0.1-0.4,0.2c-0.1,0.1-0.2,0.3-0.3,0.7c0,0,0,0.1,0,0.2c0,0.2,0.2,0.3,0.3,0.3h4c0.9,0,1.7,0,2.6,0
				c0.4,0,0.5,0.2,0.5,0.6s0,0.6-0.5,0.6c-0.9,0-1.7,0-2.6,0h-1.3c-0.2,0-0.4,0.1-0.4,0.3c0,0.1,0,0.1,0,0.2
				C83.5,276.9,83.9,277.8,83.9,278z M85.5,291.9c0-0.3-0.2-0.4-0.5-0.4h-5.3c-0.3,0-0.5,0.1-0.5,0.4v0.2c0,0.5-0.1,0.6-0.6,0.6
				c-0.5,0-0.6-0.1-0.6-0.6c0-0.6,0-1.2,0-1.8V282c0-0.5,0-1,0-1.5c0-0.7,0.1-1.1,0.9-1.1h7c0.8,0,0.9,0.3,0.9,1c0,0.5,0,1,0,1.6
				v8.4c0,0.6,0,1.2,0,1.7c0,0.5-0.1,0.6-0.6,0.6c-0.6,0-0.6-0.2-0.6-0.6V291.9z M85,283c0.4,0,0.6-0.2,0.6-0.6v-1.2
				c0-0.4-0.2-0.6-0.6-0.6h-5.1c-0.4,0-0.6,0.2-0.6,0.6v1.2c0,0.4,0.2,0.6,0.6,0.6H85z M79.3,286c0,0.4,0.3,0.6,0.6,0.6H85
				c0.4,0,0.6-0.2,0.6-0.6v-1.3c0-0.4-0.2-0.6-0.6-0.6h-5.1c-0.4,0-0.6,0.2-0.6,0.6V286z M79.3,289.7c0,0.4,0.3,0.6,0.6,0.6H85
				c0.4,0,0.6-0.2,0.6-0.6v-1.4c0-0.4-0.2-0.6-0.6-0.6h-5.1c-0.4,0-0.6,0.2-0.6,0.6V289.7z"/>
			<path class="st0" d="M106.4,277.7c1.5,1.5,2.2,3.3,2.2,5.3c0,3.1-1.6,5.7-4.3,7.1c-0.5,0.3-1.7,0.8-2.2,0.8c-0.3,0-1-0.7-1-1
				c0-0.2,0.2-0.2,0.3-0.2c3.3-0.5,5.8-3.2,5.8-6.6c0-2.9-1.8-5.5-4.7-6.2c-0.3-0.1-0.7-0.2-1-0.2c-0.6,0-0.6,0.6-0.7,1
				c-0.2,3.4-1,7.8-3.2,10.5c-0.7,0.8-1.5,1.6-2.6,1.6c-1.2,0-2.2-0.9-2.7-1.9c-0.5-0.9-0.6-2-0.6-3c0-5.2,3.9-9.3,9.1-9.3
				C102.9,275.5,104.9,276.2,106.4,277.7z M98.3,277.1c-3.3,1.2-5.4,4.1-5.4,7.6c0,1.2,0.4,3.8,2,3.8c1.4,0,2.8-2.5,3.2-3.7
				c0.9-2.3,1.3-4.7,1.4-7.2c0-0.1,0-0.2,0-0.2c0-0.3-0.2-0.5-0.4-0.5C98.9,276.9,98.5,277,98.3,277.1z"/>
			<path class="st0" d="M115.1,285.8c0.6,2.3,2.9,2.8,5,2.8c2.2,0,4.6-0.3,6.8-0.8c0.1,0,0.3-0.1,0.4-0.1c0.3,0,0.3,0.4,0.3,0.6
				c0,0.4,0,0.7-0.3,0.9c-0.8,0.4-5.7,0.7-6.8,0.7c-2.3,0-4.7-0.3-6.1-2.3c-0.3-0.4-0.8-1.3-0.8-1.9c0-0.4,0.9-0.5,1-0.5
				C115,285.2,115,285.5,115.1,285.8z M116.5,276.4c1.3,0.5,3.2,0.6,4.5,0.6c1.2,0,2.4-0.1,3.6-0.3c0.1,0,0.2,0,0.3,0
				c0.4,0,0.4,0.5,0.4,0.8c0,0.5-0.1,0.7-0.4,0.7c-1,0.1-2.4,0.2-3.5,0.2c-1.5,0-4.2-0.1-5.5-0.7c-0.2-0.1-0.3-0.2-0.3-0.4
				c0-0.2,0.1-0.9,0.4-0.9C116.2,276.2,116.4,276.3,116.5,276.4z M127.9,276.2c0.2,0.2,1,1,1,1.2c0,0.2-0.5,0.8-0.8,0.8
				c-0.1,0-0.2-0.1-0.3-0.2c-0.5-0.6-1-1.2-1.6-1.7c-0.1-0.1-0.2-0.2-0.2-0.3c0-0.2,0.5-0.7,0.8-0.7
				C127,275.2,127.7,276,127.9,276.2z M129.8,274.7c0.2,0.2,1,1,1,1.2c0,0.3-0.5,0.8-0.8,0.8c-0.2,0-0.3-0.1-0.3-0.2
				c-0.5-0.6-1-1.2-1.6-1.8c-0.1-0.1-0.2-0.2-0.2-0.3c0-0.2,0.5-0.7,0.8-0.7C128.9,273.7,129.6,274.5,129.8,274.7z"/>
			<path class="st0" d="M136.4,285.2c-0.4,0-0.6,0.2-0.7,0.6c-0.3,2.3-0.9,4.7-2.4,6.6c-0.1,0.2-0.3,0.3-0.5,0.3
				c-0.3,0-0.8-0.4-0.8-0.8c0-0.2,0.2-0.3,0.3-0.5c2-2.7,2.3-5.7,2.3-9v-5.9c0-0.6,0-1.2,0-1.8c0-0.9,0.3-1.1,1.3-1.1
				c0.5,0,1.1,0,1.6,0h10.2c0.5,0,1.1,0,1.6,0c0.9,0,1.3,0.2,1.3,1.1c0,0.6,0,1.2,0,1.9v12c0,0.5,0,1.1,0,1.6c0,0.8,0,1.5-0.6,2
				c-0.8,0.6-2.1,0.6-3,0.6c-0.6,0-1-0.1-1-1c0-0.3,0.2-0.4,0.5-0.4c0.4,0,0.9,0,1.3,0c1.5,0,1.6-0.3,1.6-2v-3.5
				c0-0.5-0.2-0.6-0.6-0.6h-5.3c-0.4,0-0.6,0.2-0.6,0.6v2.6c0,1,0,2,0,3c0,0.5,0,0.9-0.7,0.9c-0.6,0-0.7-0.4-0.7-0.9
				c0-1,0.1-2,0.1-3.1v-2.6c0-0.5-0.2-0.6-0.6-0.6H136.4z M141.6,275.4c0-0.4-0.2-0.6-0.6-0.6h-4.5c-0.4,0-0.6,0.2-0.6,0.6v2.8
				c0,0.4,0.3,0.6,0.6,0.6h4.5c0.4,0,0.6-0.2,0.6-0.6V275.4z M136.5,279.9c-0.4,0-0.6,0.2-0.6,0.6v2.9c0,0.4,0.2,0.6,0.6,0.6h4.5
				c0.5,0,0.6-0.2,0.6-0.6v-2.8c0-0.5-0.2-0.6-0.6-0.6H136.5z M148.7,278.8c0.4,0,0.6-0.2,0.6-0.6v-2.8c0-0.4-0.2-0.6-0.6-0.6h-5.3
				c-0.4,0-0.6,0.2-0.6,0.6v2.8c0,0.4,0.2,0.6,0.6,0.6H148.7z M142.8,283.4c0,0.4,0.2,0.6,0.6,0.6h5.3c0.4,0,0.6-0.2,0.6-0.6v-2.8
				c0-0.4-0.2-0.6-0.6-0.6h-5.3c-0.4,0-0.6,0.2-0.6,0.6V283.4z"/>
			<path class="st0" d="M163.5,274.8c0.4,0,0.6-0.2,0.6-0.6c0-0.3,0-0.6-0.1-0.9c0-0.1,0-0.1,0-0.2c0-0.2,0.1-0.3,0.3-0.3
				s0.5,0,0.6,0c0.5,0.1,1,0,1,0.3c0,0.2-0.1,0.2-0.3,0.3c-0.3,0.2-0.3,0.4-0.3,0.8c0,0.4,0.2,0.6,0.6,0.6h3.8c0.9,0,1.8,0,2.6,0
				c0.4,0,0.5,0.2,0.5,0.6s0,0.6-0.5,0.6c-0.9,0-1.8,0-2.6,0h-0.4c-0.1,0-0.2,0-0.2,0.1c0,0,0,0.1,0.1,0.1c0.2,0.1,0.6,0.3,0.6,0.5
				c0,0.2-0.2,0.2-0.3,0.2c-0.2,0-0.3,0-0.4,0.2c-0.2,0.4-0.4,0.8-0.6,1.2c0,0.1,0,0.1,0,0.2c0,0.2,0.2,0.3,0.4,0.3h2.7
				c0.9,0,1.8,0,2.6,0c0.4,0,0.5,0.2,0.5,0.6c0,0.4,0,0.6-0.4,0.6c-0.9,0-1.8-0.1-2.7-0.1h-13.7c-0.9,0-1.8,0.1-2.6,0.1
				c-0.4,0-0.5-0.3-0.5-0.6c0-0.4,0-0.6,0.5-0.6c0.9,0,1.8,0,2.6,0h8.4c0.5,0,0.7-0.1,0.9-0.5c0.4-0.6,0.6-1.1,0.9-1.7
				c0-0.1,0.1-0.1,0.1-0.2c0-0.3-0.2-0.3-0.4-0.4h-8.1c-0.9,0-1.8,0-2.6,0c-0.4,0-0.5-0.2-0.5-0.6s0-0.6,0.5-0.6c0.9,0,1.7,0,2.6,0
				H163.5z M158.8,288.4c-0.2,0-0.2,0.1-0.3,0.3c-0.7,1.2-1.5,2.3-2.4,3.3c-0.1,0.2-0.3,0.3-0.5,0.3c-0.2,0-0.7-0.3-0.7-0.5
				c0-0.2,0.2-0.3,0.4-0.5c0.9-1,1.8-2.1,2.3-3.3c0.1-0.1,0.1-0.3,0.3-0.3c0.2,0,0.8,0.2,1,0.3c0.1,0,0.3,0.1,0.3,0.3
				C159.2,288.3,158.9,288.3,158.8,288.4z M171,285.3c0,0.2,0,0.4,0,0.6c0,0.6-0.3,0.8-1,0.8c-0.5,0-1,0-1.5,0h-7.6
				c-0.5,0-1,0-1.5,0c-0.7,0-1-0.2-1-0.8v-4.1c0-0.7,0.4-0.8,1.4-0.8c0.3,0,0.7,0,1.1,0h9.2c0.7,0,0.9,0.3,0.9,0.8
				c0,0.2,0,0.4,0,0.6V285.3z M169.4,283.3c0.3,0,0.5-0.2,0.5-0.5v-0.2c0-0.3-0.2-0.5-0.5-0.5H160c-0.3,0-0.5,0.2-0.5,0.5v0.2
				c0,0.3,0.2,0.5,0.5,0.5H169.4z M160,284.2c-0.3,0-0.5,0.2-0.5,0.5v0.4c0,0.3,0.2,0.5,0.5,0.5h9.4c0.3,0,0.5-0.2,0.5-0.5v-0.4
				c0-0.3-0.2-0.5-0.5-0.5H160z M167,291.3c1.1,0,1.3-0.1,1.7-1.8c0.1-0.4,0.1-0.5,0.5-0.5c0.3,0,0.8,0.1,0.8,0.5
				c0,0.5-0.5,1.8-0.8,2.3c-0.4,0.6-1.1,0.7-1.8,0.7h-5.3c-0.9,0-2.1,0-2.1-1.2c0-0.3,0-0.5,0-0.7V289c0-0.3-0.1-0.8-0.1-1.1
				c0-0.1,0-0.2,0-0.2c0-0.2,0.1-0.2,0.3-0.2c0.1,0,1.1,0.1,1.3,0.1c0.1,0,0.2,0.1,0.2,0.2s-0.1,0.2-0.2,0.2c-0.3,0.2-0.4,0.4-0.4,1
				v1.6c0,0.8,0.5,0.8,1.3,0.8H167z M161.5,278.5c-0.3,0-0.4-0.1-0.5-0.5c-0.1-0.2-0.2-0.6-0.5-1.1c-0.1-0.1-0.1-0.2-0.1-0.3
				c0-0.3,0.4-0.5,0.7-0.5c0.3,0,0.4,0.2,0.7,0.9c0.1,0.2,0.4,0.8,0.4,1C162.2,278.4,161.7,278.5,161.5,278.5z M164.1,287.3
				c0.3,0.3,0.7,0.7,1,1c0.2,0.2,0.8,0.9,0.8,1.2c0,0.3-0.4,0.6-0.7,0.6c-0.2,0-0.4-0.2-0.5-0.4c-0.6-0.8-0.8-0.9-1.4-1.6
				c-0.1-0.1-0.2-0.2-0.2-0.4c0-0.3,0.4-0.6,0.7-0.6C163.9,287,164,287.1,164.1,287.3z M173.5,292c-0.3,0-0.4-0.2-0.5-0.5
				c-0.7-1.2-1.4-2.3-2.3-3.4c-0.1-0.1-0.2-0.2-0.2-0.4c0-0.3,0.4-0.5,0.7-0.5c0.2,0,0.3,0.1,0.4,0.2c0.4,0.5,1,1.3,1.4,1.8
				c0.3,0.4,1.2,1.8,1.2,2.2C174.1,291.8,173.7,292,173.5,292z"/>
			<path class="st0" d="M182.2,275.3c0.2,0.1,0.4,0.2,0.4,0.3s-0.1,0.2-0.3,0.3c-0.2,0.1-0.3,0.2-0.5,0.5c-0.2,0.5-0.5,1.5-0.6,2.1
				c-0.4,1.8-0.7,3.8-0.7,5.7c0,0.6,0.2,4.2,0.8,4.2c0.1,0,0.2-0.1,0.2-0.1c0.1-0.2,0.5-1.4,0.7-1.6c0.2-0.4,0.3-0.8,0.5-0.8
				c0.2,0,0.4,0.1,0.4,0.3c0,0.1,0,0.2-0.1,0.3c-0.5,1.6-0.9,2.5-0.9,4.2v0.2c0,0.3-0.1,0.4-0.4,0.5c-0.1,0.1-0.5,0.2-0.6,0.2
				c-0.3,0-0.5-0.4-0.6-0.6c-1-2.1-1.3-4.4-1.3-6.7c0-2.6,0.4-4.7,1-7.2c0.2-0.6,0.4-1.2,0.5-1.8c0-0.1,0.1-0.3,0.3-0.3
				C181.3,274.8,182,275.2,182.2,275.3z M191.6,274.8c0.1,0,0.2,0.1,0.2,0.2c0,0.1-0.1,0.3-0.2,0.4c-0.2,0.3-0.2,0.7-0.2,1.7
				c0,1-0.1,1.6,0.5,1.6c0.4,0,2.1-0.5,2.6-0.7c0.1,0,0.2-0.1,0.4-0.1c0.3,0,0.3,0.4,0.4,0.7c0,0.2,0,0.2,0,0.4
				c0,0.2-0.1,0.3-0.5,0.4c-0.7,0.2-1.8,0.3-2.5,0.4c-0.4,0.1-0.8,0.2-0.8,0.7c0,0.8,0.2,4.6,0.2,5.6c0,0.4,0.1,0.6,0.5,0.7
				c0.6,0.2,3.4,1.7,3.4,2.3c0,0.5-0.5,1-0.8,1c-0.2,0-0.4-0.3-0.5-0.4c-0.3-0.3-1.8-1.6-2.3-1.6c-0.2,0-0.2,0.2-0.2,0.4
				c-0.1,1.8-1.4,2.4-3,2.4c-1.5,0-3.4-0.7-3.4-2.5c0-1.8,1.7-2.4,3.2-2.4c0.8,0,1.5,0.2,1.6,0.2c0.3,0,0.4-0.2,0.4-0.4
				c0-1-0.1-3.4-0.2-4.5c0-0.4,0-1-0.5-1h-0.2c-0.6,0.1-1.6,0.1-2.3,0.1c-0.4,0-2.3,0-2.5-0.1c-0.3-0.1-0.3-0.5-0.3-0.9
				c0-0.4,0.1-0.5,0.3-0.5c0.1,0,0.3,0,0.4,0c0.9,0.1,2.1,0.2,3,0.2c1.5,0,2,0,2-0.5c0-0.6-0.2-2.9-0.3-3.6c0,0,0-0.1,0-0.2
				c0-0.1,0.1-0.2,0.3-0.2C190.2,274.4,191.4,274.7,191.6,274.8z M186.4,288.3c0,1,1.4,1.3,2.1,1.3c1.2,0,1.9-0.5,1.9-1.8
				c0-0.2-0.1-0.4-0.3-0.5c-0.3-0.2-1.2-0.3-1.6-0.3C187.8,287.1,186.4,287.4,186.4,288.3z"/>
			<path class="st0" d="M201.5,285.8c0.6,2.3,2.9,2.8,5,2.8c2.2,0,4.6-0.3,6.8-0.8c0.1,0,0.3-0.1,0.4-0.1c0.3,0,0.3,0.4,0.3,0.6
				c0,0.4,0,0.7-0.3,0.9c-0.8,0.4-5.7,0.7-6.8,0.7c-2.3,0-4.7-0.3-6.1-2.3c-0.3-0.4-0.8-1.3-0.8-1.9c0-0.4,0.9-0.5,1-0.5
				C201.4,285.2,201.4,285.5,201.5,285.8z M203,276.4c1.3,0.5,3.2,0.6,4.5,0.6c1.2,0,2.4-0.1,3.6-0.3c0.1,0,0.2,0,0.3,0
				c0.4,0,0.4,0.5,0.4,0.8c0,0.5-0.1,0.7-0.4,0.7c-1,0.1-2.4,0.2-3.5,0.2c-1.5,0-4.2-0.1-5.5-0.7c-0.2-0.1-0.3-0.2-0.3-0.4
				c0-0.2,0.1-0.9,0.4-0.9C202.6,276.2,202.9,276.3,203,276.4z M214.3,276.2c0.2,0.2,1,1,1,1.2c0,0.2-0.5,0.8-0.8,0.8
				c-0.1,0-0.2-0.1-0.3-0.2c-0.5-0.6-1-1.2-1.6-1.7c-0.1-0.1-0.2-0.2-0.2-0.3c0-0.2,0.5-0.7,0.8-0.7
				C213.4,275.2,214.1,276,214.3,276.2z M216.3,274.7c0.2,0.2,1,1,1,1.2c0,0.3-0.5,0.8-0.8,0.8c-0.2,0-0.3-0.1-0.3-0.2
				c-0.5-0.6-1-1.2-1.6-1.8c-0.1-0.1-0.2-0.2-0.2-0.3c0-0.2,0.5-0.7,0.8-0.7C215.3,273.7,216.1,274.5,216.3,274.7z"/>
			<path class="st0" d="M227.9,274.1c0.2,0.4,1.5,2.8,1.6,3c0.1,0.2,0.3,0.4,0.5,0.4c0.6,0,2.4-1,3-1.4c0.1-0.1,0.4-0.3,0.6-0.3
				c0.3,0,0.8,0.7,0.8,0.9c0,0.5-2.9,1.7-3.4,1.8c-0.2,0.1-0.4,0.1-0.4,0.4c0,0.2,0.3,0.7,0.4,0.8c0.8,1.5,2.5,4.5,3.7,5.6
				c0.2,0.2,0.3,0.3,0.3,0.6c0,0.4-0.6,0.9-0.9,0.9c-0.3,0-0.7-0.4-1-0.5c-1.5-1-3.7-1.9-5.6-1.9c-1.6,0-3.1,0.9-3.1,2.7
				c0,2.8,3.7,3.4,5.9,3.4c0.5,0,1,0,1.2,0c0.2,0,0.3,0.1,0.3,0.3c0,1.2-0.8,1.1-0.9,1.1c-2.9,0-7.7-0.9-7.7-4.7
				c0-2.5,2-3.9,4.4-3.9c1.5,0,3,0.5,4.4,1.2c0.1,0,0.2,0.1,0.3,0.1c0.1,0,0.1,0,0.1-0.1c0-0.1-0.1-0.3-0.2-0.4
				c-0.8-1.2-2-3.2-2.7-4.5c-0.1-0.2-0.3-0.4-0.6-0.4c-0.1,0-0.2,0-0.3,0.1c-1.3,0.4-4.4,0.9-5.7,0.9c-0.6,0-0.8-1-0.8-1.1
				c0-0.2,0.3-0.3,1.1-0.3c0.5,0,3.2-0.2,4.7-0.6c0.2-0.1,0.4-0.1,0.4-0.4c0-0.3-0.8-1.6-1-1.9c-0.3-0.5-0.6-1-0.9-1.4
				c-0.1-0.1-0.2-0.2-0.2-0.4c0-0.3,1.1-0.4,1.2-0.4C227.7,273.7,227.8,273.9,227.9,274.1z M236.4,275.2c0.2,0.2,0.8,0.9,0.8,1.1
				c0,0.2-0.5,0.7-0.9,0.7c-0.1,0-0.2-0.2-0.3-0.2c-0.5-0.6-0.9-1.3-1.5-1.8c-0.1-0.1-0.2-0.2-0.2-0.3c0-0.2,0.5-0.7,0.8-0.7
				C235.4,274,236.2,275,236.4,275.2z M238,273.4c0.2,0.2,1.3,1.5,1.3,1.7c0,0.3-0.5,0.7-0.8,0.7c-0.2,0-0.2-0.2-0.5-0.5
				c-0.4-0.6-0.8-1-1.3-1.6c-0.1-0.1-0.2-0.2-0.2-0.3c0-0.2,0.5-0.7,0.8-0.7C237.5,272.7,237.6,272.9,238,273.4z"/>
			<path class="st0" d="M244.4,277.5c0.2,0,0.4,0.1,0.4,0.3c0,0.1-0.1,0.2-0.2,0.3c-0.2,0.2-0.2,0.3-0.3,0.6c-0.1,0.7-0.1,1.3-0.1,2
				c0,1.8,0.1,4,0.8,5.7c0.4,0.9,1.4,2.5,2.5,2.5c0.7,0,1.6-1.2,1.9-1.7c0.1-0.2,0.3-0.6,0.5-0.6c0.2,0,0.8,0.5,0.8,0.8
				c0,0.3-1,1.5-1.3,1.8c-0.5,0.6-1.1,1.2-1.9,1.2c-1.6,0-2.8-1.6-3.4-2.8c-1-2-1.2-4.7-1.2-6.9c0-0.5,0.1-3,0.1-3.3
				c0-0.2,0.1-0.2,0.3-0.2C243.4,277.1,244.2,277.4,244.4,277.5z M254.6,277.3c0.4,0,1.9,1.3,2.7,2.5c0.9,1.3,1.4,2.9,1.6,4.5
				c0,0.1,0,0.4,0,0.5c0,0.5-0.5,0.5-0.9,0.5c-0.5,0-0.5-0.3-0.6-0.5c-0.3-2.5-1.2-4.8-3.2-6.4c-0.2-0.1-0.4-0.2-0.4-0.4
				C253.9,277.7,254.3,277.3,254.6,277.3z"/>
			<path class="st0" d="M271.8,274.1c0.3,0.1,0.5,0.1,0.5,0.3c0,0.2-0.1,0.2-0.2,0.4c-0.1,0.2-0.2,0.5-0.2,1.4v0.5
				c0,0.3,0.2,0.5,0.5,0.5c0.1,0,0.2,0,0.3,0c1.4-0.1,2.8-0.5,4.2-0.8c0.1,0,0.2-0.1,0.4-0.1c0.4,0,0.4,0.7,0.4,1
				c0,0.4-0.1,0.4-0.7,0.5c-1.2,0.2-3,0.5-4.2,0.6c-0.4,0-0.8,0.2-0.8,0.7c0,2.4,0,2.7,0.5,2.7c0.8,0,2.7-0.4,3.4-0.6
				c0.1,0,0.2-0.1,0.3-0.1c0.2,0,0.2,0.3,0.2,0.5c0,1-0.2,0.9-0.8,1c-0.8,0.2-1.9,0.3-2.7,0.4c-0.7,0.1-0.8,0.2-0.8,0.8
				c0,0.4,0.1,2.3,0.1,2.6c0.1,0.5,0.3,0.6,0.8,0.7c0.8,0.2,4,1.5,4,2.1c0,0.5-0.5,1-0.9,1c-0.2,0-0.5-0.2-0.6-0.4
				c-0.8-0.6-1.6-1.1-2.5-1.5c-0.1,0-0.3-0.1-0.4-0.1c-0.3,0-0.4,0.4-0.4,0.5c0,0.5-0.1,1-0.4,1.4c-0.7,1.2-2.3,1.5-3.5,1.5
				c-1.5,0-3.3-0.7-3.3-2.5c0-2.1,2.5-2.5,4.2-2.5c0.3,0,0.8,0,1.2,0c0,0,0.1,0,0.1,0c0.3,0,0.4-0.2,0.4-0.5c0-0.2-0.1-2.4-0.1-2.5
				c0-0.3-0.2-0.4-0.5-0.4c-0.4,0-1.6,0-2.5,0c-0.3,0-1.9,0-2-0.1c-0.2-0.2-0.3-0.8-0.3-1c0-0.2,0.1-0.3,0.3-0.3
				c0.2,0,1.9,0.1,2.7,0.1c1.8,0,2.3,0,2.3-0.5s0-1.7-0.1-2.3c0-0.1,0-0.6-0.5-0.6s-3.2,0.2-4.8,0.2h-1.2c-0.4,0-0.5-0.6-0.5-0.9
				c0-0.4,0.1-0.5,0.4-0.5c0.3,0,2,0.1,3.4,0.1c0.4,0,2.4,0,2.6-0.1c0.2-0.1,0.4-0.3,0.4-0.5c0-0.5-0.1-2.1-0.2-2.5
				c0-0.1,0-0.2,0-0.3c0-0.2,0.1-0.2,0.2-0.2C270.8,273.9,271.5,274,271.8,274.1z M266.4,289.1c0,1.1,1.2,1.3,2,1.3
				c1.1,0,2.4-0.3,2.6-1.7c0-0.2,0-0.4,0-0.5c0-0.4-0.3-0.5-1.4-0.5C268.6,287.7,266.4,287.7,266.4,289.1z"/>
			<path class="st0" d="M287.9,276.4c0.1,0,0.2,0.1,0.2,0.2c0,0.1-0.1,0.2-0.2,0.3c-0.3,0.3-0.3,0.7-0.3,1.2c0,0.7,0,1.4,0,2.1
				c0,0.3,0.2,0.5,0.4,0.5c0.1,0,4.8-0.7,5.3-0.8c0.4-0.1,0.5-0.4,0.5-0.7v-0.2c0-1,0-2.8-0.4-3.8c0,0,0-0.1,0-0.2
				c0-0.1,0.1-0.2,0.3-0.2c0.1,0,1.6,0.1,1.6,0.5c0,0.1,0,0.2-0.1,0.2c-0.1,0.3-0.2,0.4-0.2,0.7c0,0.9,0,1.8,0,2.7v0.2
				c0,0.2,0.2,0.5,0.4,0.5c0.1,0,0.2,0,0.2,0c0.5-0.1,3.5-0.5,3.8-0.5c0.3,0,0.3,0.4,0.3,0.6c0,0.8-0.2,0.7-0.8,0.8
				c-1,0.1-2.1,0.2-3.1,0.3c-0.3,0-0.5,0-0.8,0.2c-0.2,0.3-0.2,1.2-0.4,2.5c-0.2,1.4-0.7,2.3-2,2.7c-0.5,0.1-0.9,0.2-1.4,0.2
				c-0.6,0-0.7-0.6-0.7-0.9c0-0.2,0.1-0.4,0.3-0.4c0.1,0,0.3,0,0.4,0c0.7,0,1.4-0.2,1.8-0.9c0.3-0.6,0.5-2,0.5-2.7
				c0-0.2-0.2-0.5-0.4-0.5c-0.1,0-0.5,0.1-0.6,0.1c-1.5,0.2-3,0.5-4.4,0.7c-0.4,0.1-0.7,0.2-0.7,0.7c0,1.2,0.1,3.7,0.2,4.8
				c0.1,1,0.5,1.7,1.4,2c0.8,0.3,1.9,0.4,2.7,0.4c1.3,0,2.9-0.2,4.1-0.5c0.1,0,0.2,0,0.2,0c0.3,0,0.2,0.4,0.2,0.5
				c0,0.2,0,0.7-0.2,0.8c-0.2,0.2-3.7,0.4-4.3,0.4c-3.6,0-5.4-0.6-5.6-4.5c0-1.2-0.1-2.3-0.1-3.5c0-0.3-0.1-0.6-0.5-0.6
				c-0.3,0-3,0.5-3.5,0.7c-0.1,0-0.3,0.1-0.5,0.1c-0.4,0-0.5-0.8-0.5-1.1c0-0.5,0.4-0.4,1-0.5c1.1-0.1,2.1-0.3,3.2-0.5
				c0.4,0,0.7-0.1,0.7-0.6c0-0.9,0-3.2-0.2-3.9c0-0.1,0-0.2,0-0.2c0-0.2,0.1-0.2,0.2-0.2S287.7,276.3,287.9,276.4z"/>
			<path class="st0" d="M312.7,274.5c0.2,0.1,0.6,0.5,0.6,0.7c0,0.2-0.3,0.3-0.5,0.4c-0.3,0.1-0.4,0.2-0.6,0.4
				c-0.5,0.6-1.1,1.4-1.6,2.1c-0.4,0.6-3,4.4-3,4.8c0,0.1,0,0.1,0.1,0.1c0.1,0,0.3-0.2,0.5-0.3c1-0.7,2.8-1.6,4-1.6
				c0.8,0,1.8,0.5,2.1,1.2c0.2,0.4,0.2,0.8,0.2,1.3c0,0.8-0.2,1.5-0.3,2.3c-0.1,0.7-0.4,1.8-0.4,2.5c0,0.5,0.1,1.2,0.8,1.2
				c1.6,0,3.8-2.6,4.6-3.8c0.1-0.1,0.2-0.3,0.3-0.3c0.3,0,0.8,1,0.8,1.3c0,0.2-0.1,0.3-0.2,0.4c-0.5,0.5-1,1-1.6,1.5
				c-1.1,1-2.4,2.2-4,2.2c-1.4,0-1.9-1.2-1.9-2.4c0-0.9,0.2-1.8,0.3-2.7c0.1-0.8,0.2-1.3,0.2-2c0-0.8-0.3-1.5-1.2-1.5
				c-1.8,0-4.4,2-5.4,3.4c-0.8,1.1-1.5,3.3-1.8,4.6c0,0.2-0.1,0.5-0.4,0.5c-0.2,0-1.2-0.3-1.2-0.6c0-0.1,0.3-0.8,0.3-0.9
				c0.8-1.9,1.6-3.8,2.5-5.7c1.7-3.3,2.8-5,4.8-8.1c0.2-0.4,0.5-0.7,0.6-1.1c0.1-0.1,0.2-0.5,0.4-0.5
				C312,273.9,312.5,274.4,312.7,274.5z"/>
			<path class="st0" d="M329.5,289.1c0,1.7-1.4,3-3,3s-3.1-1.4-3.1-3s1.4-3,3.1-3S329.5,287.4,329.5,289.1z M324.3,289.1
				c0,1.2,1,2.2,2.2,2.2c1.2,0,2.2-1,2.2-2.2c0-1.2-1-2.2-2.2-2.2C325.3,287,324.3,287.9,324.3,289.1z"/>
		</g>
	</g>
</g>
</svg>
