<svg xmlns="http://www.w3.org/2000/svg" viewBox="0 0 433.16 211.21"><defs><style>.cls-1{fill:#0c6885;}</style></defs><g id="レイヤー_2" data-name="レイヤー 2"><g id="テキスト"><path class="cls-1" d="M2.65,114.55H9V93.15H3.94V90.88a18.27,18.27,0,0,0,6-2h2.73v25.7h5.76v3H2.65Z"/><path class="cls-1" d="M23,122.85a5.88,5.88,0,0,0,3.92-5.32,1.6,1.6,0,0,1-.43,0,2.46,2.46,0,0,1-2.62-2.51,2.54,2.54,0,0,1,2.69-2.5c1.88,0,3,1.6,3,4.22A8.71,8.71,0,0,1,23.86,125Z"/><path class="cls-1" d="M33.56,110.41c0-3.84,2.66-6.5,5.28-7.91v-.19A8,8,0,0,1,35,95.7c0-4.39,3.36-7.28,7.86-7.28,4.89,0,7.87,3.13,7.87,7.55,0,3-2.12,5.59-3.84,6.92v.2c2.51,1.45,4.85,3.6,4.85,7.51,0,4.19-3.6,7.44-9,7.44S33.56,114.83,33.56,110.41Zm14.75.11c0-3.83-3.52-5.28-7.59-6.92a7.77,7.77,0,0,0-3.91,6.49c0,3,2.54,5.28,6,5.28S48.31,113.38,48.31,110.52Zm-.67-14.36A4.78,4.78,0,0,0,42.75,91a4.41,4.41,0,0,0-4.54,4.66c0,3.44,3.1,4.92,6.46,6.25A7.66,7.66,0,0,0,47.64,96.16Z"/><path class="cls-1" d="M54.65,114.12l1.8-2.34a9.47,9.47,0,0,0,7.12,3.28c3.4,0,5.83-2,5.83-5.32S67.09,104,60.48,104v-2.74c5.91,0,7.94-2.39,7.94-5.48,0-2.77-1.88-4.53-4.85-4.61a9,9,0,0,0-6,2.85l-1.91-2.27a11.49,11.49,0,0,1,8-3.44c4.81,0,8.33,2.58,8.33,7.2,0,3.48-2.07,5.79-5.13,6.92v.16A7.38,7.38,0,0,1,73,109.86c0,5.12-4.11,8.18-9.2,8.18A11.85,11.85,0,0,1,54.65,114.12Z"/><path class="cls-1" d="M92.76,93.47a6.09,6.09,0,0,0-4.62-2.2c-3.91,0-7.24,3-7.39,11.94a8.93,8.93,0,0,1,6.53-3.49c4.85,0,7.94,3,7.94,9,0,5.56-3.75,9.32-8.21,9.32-5.52,0-9.59-4.74-9.59-14.21,0-11.23,5-15.53,10.6-15.53a8.77,8.77,0,0,1,6.69,2.94Zm-.9,15.25c0-3.87-1.68-6.33-5.17-6.33-1.8,0-4,1-5.86,3.67.43,6,2.58,9.2,6.18,9.2C89.75,115.26,91.86,112.64,91.86,108.72Z"/><path class="cls-1" d="M115.21,117.07c0,1-.24,1.44-.92,1.7a12.59,12.59,0,0,1-3.56.26,6.4,6.4,0,0,0-.56-1.48c1.36.06,2.66,0,3,0s.5-.12.5-.5v-6.13h-13.4v8.13H98.83V102.16h16.38Zm-14.9-7.61h5.86V103.6h-5.86Zm13.4,0V103.6h-6.08v5.86Z"/><path class="cls-1" d="M118.79,111.31a18.69,18.69,0,0,1,2.94-10.15l1.14.52a19.37,19.37,0,0,0,0,19.25l-1.14.54A18.75,18.75,0,0,1,118.79,111.31Z"/><path class="cls-1" d="M131.27,112.93a23.91,23.91,0,0,0-1.82-2.49V119H128v-8.85a21.33,21.33,0,0,1-2.9,5.25,6.88,6.88,0,0,0-.74-1.36,20.71,20.71,0,0,0,3.44-6.27h-3.06v-1.4H128v-3c-1,.2-2,.36-2.92.5a5.6,5.6,0,0,0-.46-1.16,29.81,29.81,0,0,0,6.34-1.6l1,1.12a16.58,16.58,0,0,1-2.54.8v3.38H132v1.4h-2.5V109c.62.52,2.32,2.29,2.72,2.75Zm9.86,4.54c.42,0,.52-.32.56-2.5a3.69,3.69,0,0,0,1.3.6c-.14,2.56-.52,3.24-1.7,3.24h-1.7c-1.38,0-1.7-.44-1.7-1.92v-5.56h-1.7c-.36,3.36-1.34,6.22-4.8,7.74a4.7,4.7,0,0,0-.9-1.14c3.12-1.26,3.92-3.76,4.24-6.6h-2V104.8h9.16v6.53h-2.54v5.56c0,.5.06.58.5.58Zm-6.5-12.69a15.31,15.31,0,0,0-1.72-3.44l1.24-.52a14.8,14.8,0,0,1,1.78,3.34Zm-.52,5.22h6.26v-3.9h-6.26Zm7.66-8.7a33.94,33.94,0,0,1-2.06,3.44l-1.24-.5a21.06,21.06,0,0,0,1.8-3.46Z"/><path class="cls-1" d="M149,115c.94,1.46,2.68,2.14,5,2.24s6.62,0,9-.14a6.77,6.77,0,0,0-.48,1.52c-2.18.08-6.28.12-8.48,0-2.6-.1-4.38-.82-5.66-2.36-1,.84-2,1.7-3,2.56l-.8-1.5a33.4,33.4,0,0,0,3-2.28V110h-2.78v-1.4H149Zm-.62-9.67a13.8,13.8,0,0,0-3.4-3.16l1.1-.9a15.22,15.22,0,0,1,3.48,3.08Zm8.32-3.54c.5,6.1,2,10.83,6,12.89a6.9,6.9,0,0,0-1.18,1.12c-2.8-1.64-4.42-4.46-5.32-8.11a14.28,14.28,0,0,1-5.3,8.11,8.72,8.72,0,0,0-1.16-1.1c2.92-1.86,4.6-5,5.4-9.07l.64.1c-.14-.82-.24-1.66-.34-2.54h-3.64v-1.4Z"/><path class="cls-1" d="M164.57,120.93a19.37,19.37,0,0,0,0-19.25l1.12-.52a18.9,18.9,0,0,1,0,20.31Z"/><path class="cls-1" d="M9,146.5c0,.13-.12.19-.21.25s-.14.26-.18.35a22.55,22.55,0,0,1-1.56,3.43.66.66,0,0,0-.12.32c0,.28.31.37,1.36,1.39.06.08.12.12.12.23s-.3.58-.52.58-.27-.15-.36-.25-.83-.93-1.13-.93-.3.13-.42.28a12.6,12.6,0,0,1-3.58,3.12,9.67,9.67,0,0,1-1.68.83c-.25,0-.51-.38-.51-.54s.22-.23.45-.33a11.72,11.72,0,0,0,4.56-3.44c.09-.12.25-.31.25-.46a.39.39,0,0,0-.16-.32,12.87,12.87,0,0,0-2.21-.87c-.15,0-.3-.09-.3-.27s.15-.55.41-.55a12,12,0,0,1,2.44.93.59.59,0,0,0,.29.1c.25,0,.34-.18.45-.37a14.92,14.92,0,0,0,1.48-3.69c0-.12,0-.26.12-.26S9,146.23,9,146.5Z"/><path class="cls-1" d="M21.11,146.9H22.2c.71,0,.85.16.85.73,0,.39,0,.77,0,1.16v5.08c0,.53,0,1,0,1.55,0,.33-.09.4-.54.4s-.41-.16-.41-.57-.22-.45-.64-.45H15.06c-.42,0-.64,0-.64.45s0,.57-.41.57-.54-.07-.54-.4c0-.51,0-1,0-1.55v-5.08c0-.38,0-.75,0-1.14,0-.57.12-.75.84-.75h6.78Zm-6.32.83a.42.42,0,0,0-.42.42v5.4a.42.42,0,0,0,.42.42h7a.41.41,0,0,0,.42-.42v-5.4a.4.4,0,0,0-.42-.42Z"/><path class="cls-1" d="M37.65,149.17c0,.19-.73.9-.91,1.08a30.51,30.51,0,0,1-3.54,3,24,24,0,0,1-4.38,2.49c-.38.17-.38.18-.51.47a.21.21,0,0,1-.18.1c-.15,0-.23-.18-.33-.4a3.27,3.27,0,0,1-.29-.6c0-.12.23-.17.38-.21a19.79,19.79,0,0,0,5.89-3.33A25.35,25.35,0,0,0,37,148.63a.29.29,0,0,1,.22-.17C37.47,148.46,37.65,149.05,37.65,149.17ZM28.37,146l1.46,1c.35.26.74.51.74.68s-.28.58-.52.58-.51-.31-.65-.42c-.52-.4-1-.82-1.62-1.18-.09-.06-.19-.12-.19-.24s.25-.56.49-.56A.57.57,0,0,1,28.37,146Z"/><path class="cls-1" d="M49.68,147.5A4.83,4.83,0,0,1,51.12,151a5.36,5.36,0,0,1-4.31,5.2c-.22,0-.63-.45-.63-.63s.12-.15.21-.16a4.41,4.41,0,0,0,3.84-4.35A4.12,4.12,0,0,0,47.11,147a2.85,2.85,0,0,0-.65-.11c-.42,0-.42.38-.44.63-.1,2.25-.66,5.16-2.11,6.95a2.44,2.44,0,0,1-1.74,1,2.15,2.15,0,0,1-1.79-1.27,4.48,4.48,0,0,1-.42-2,6,6,0,0,1,6-6.12A5.09,5.09,0,0,1,49.68,147.5Zm-5.31-.39a5.21,5.21,0,0,0-3.57,5c0,.81.28,2.47,1.33,2.47S44,153,44.25,152.18a15.84,15.84,0,0,0,.94-4.72c0-.05,0-.12,0-.17a.29.29,0,0,0-.29-.31A2.45,2.45,0,0,0,44.37,147.11Z"/><path class="cls-1" d="M58.51,145.15c.12.24,1,1.86,1,2a.4.4,0,0,0,.36.24,6.82,6.82,0,0,0,2-.93c.09-.06.28-.21.39-.21s.49.45.49.61-1.93,1.1-2.26,1.22c-.12,0-.24.09-.24.25a1.89,1.89,0,0,0,.25.54,20.37,20.37,0,0,0,2.42,3.68.51.51,0,0,1,.21.39.77.77,0,0,1-.6.61c-.18,0-.48-.24-.63-.34A7.31,7.31,0,0,0,58.23,152a1.84,1.84,0,0,0-2,1.75c0,1.86,2.44,2.25,3.87,2.25.36,0,.64,0,.78,0s.21,0,.21.2c0,.79-.5.7-.59.7-1.93,0-5.1-.58-5.1-3.07a2.64,2.64,0,0,1,2.9-2.58,6.28,6.28,0,0,1,2.89.81.52.52,0,0,0,.21.07.08.08,0,0,0,.09-.07.64.64,0,0,0-.13-.26c-.56-.81-1.29-2.08-1.77-3a.43.43,0,0,0-.39-.27.59.59,0,0,0-.2,0,20.64,20.64,0,0,1-3.78.6c-.39,0-.51-.68-.51-.74s.09-.16.74-.16a15.82,15.82,0,0,0,3.12-.42c.13,0,.28-.09.28-.26a7.17,7.17,0,0,0-.66-1.24,8.27,8.27,0,0,0-.61-.93.4.4,0,0,1-.14-.24c0-.18.71-.26.8-.26S58.44,145,58.51,145.15Z"/><path class="cls-1" d="M70.77,145c.11,0,.33.06.33.21s-.13.23-.19.32a7.24,7.24,0,0,0-.27,1.89s0,.12.07.12a.35.35,0,0,0,.12,0,.15.15,0,0,1,.09,0c.17,0,.6.72.6.86s-.13.21-.21.28A4.51,4.51,0,0,0,70.5,150c0,.39,0,.51.09.51a.19.19,0,0,0,.12-.07,7.1,7.1,0,0,1,4.4-2.16,3.21,3.21,0,0,1,2.26,1,3.35,3.35,0,0,1,.93,2.38,4.58,4.58,0,0,1-2.73,3.92,9.44,9.44,0,0,1-1.84.72c-.21,0-.54-.5-.54-.69s.1-.2.24-.23c1.83-.36,4-1.53,4-3.64A2.51,2.51,0,0,0,75,149c-1.56,0-3.2,1.25-4.28,2.27a.75.75,0,0,0-.25.69v.39c0,.91,0,1.84.06,2.77,0,.27.07,1.37.07,1.55s-.18.27-.55.27-.44-.08-.44-.33c0-1.25,0-2.49,0-3.74v-.3c0-.09,0-.21-.09-.21s-.13.06-.19.12c-.32.36-1.61,2-1.83,2.3,0,.07-.11.16-.21.16s-.62-.39-.62-.6a.54.54,0,0,1,.17-.3,19.14,19.14,0,0,0,1.9-2.23,9.54,9.54,0,0,0,.83-1.4,5.7,5.7,0,0,0,.1-1.33c0-.23-.12-.36-.27-.36s-1.42.31-1.66.37a1.82,1.82,0,0,1-.36.08c-.32,0-.44-.75-.44-.84s.17-.17.45-.17a9.11,9.11,0,0,0,1.79-.21c.19,0,.43-.07.52-.3s.11-1.87.11-2.17,0-.44,0-.54,0-.17.13-.17S70.62,144.92,70.77,145Z"/><path class="cls-1" d="M83.15,151.21c-.38.25-1.13.82-1.47,1.11a.62.62,0,0,1-.3.18c-.18,0-.53-.42-.53-.69s.2-.21.42-.36c.53-.33,1-.69,1.58-1a.47.47,0,0,0,.31-.43.8.8,0,0,0-.1-.33A9.63,9.63,0,0,0,82,147.79a.36.36,0,0,1-.11-.21c0-.14.21-.17.57-.3a1.59,1.59,0,0,1,.5-.15c.1,0,.16,0,.16.15s0,.1,0,.13v.09a10.55,10.55,0,0,0,.75,1.79c.06.13.13.27.3.27a.43.43,0,0,0,.24-.08c1.45-.91,3.22-2,5-2a2.28,2.28,0,0,1,2.58,2.29c0,1.92-1.92,2.79-3.53,3.18a3.58,3.58,0,0,1-.54.09c-.28,0-.52-.54-.52-.64s.16-.2.28-.21c1.28-.21,3.47-.78,3.47-2.4,0-1.11-.84-1.53-1.85-1.53a6.91,6.91,0,0,0-3.13,1.06c-.45.26-.9.5-1.32.77-.15.09-.3.18-.3.37a48.8,48.8,0,0,0,2.83,5,1.19,1.19,0,0,1,.24.51c0,.24-.51.46-.7.46s-.24-.16-.47-.61c-.81-1.58-1.72-3.12-2.52-4.7a.3.3,0,0,0-.28-.21C83.43,151,83.27,151.12,83.15,151.21Zm3.45-5.09c.52.21.78.29.78.5s-.18.57-.39.57a.36.36,0,0,1-.23-.08,9.08,9.08,0,0,0-1.93-.69c-.12,0-.2-.07-.2-.19s.15-.65.38-.65A12,12,0,0,1,86.6,146.12Z"/><path class="cls-1" d="M99.74,145.34c.13,0,.39.08.39.24s-.08.17-.14.23c-.21.22-.21.37-.27.73s-.13.8-.21,1.22a1.1,1.1,0,0,0,0,.16.23.23,0,0,0,.23.23h.1s.69-.08,1-.08c1.41,0,1.9.87,1.9,2.19a10.75,10.75,0,0,1-.84,4.52,2.77,2.77,0,0,1-2.53,1.53c-.59,0-.72-.66-.72-.84s0-.15.1-.15a6.41,6.41,0,0,0,.78.1,1.79,1.79,0,0,0,1.7-1.21,9.25,9.25,0,0,0,.69-3.53c0-1-.09-1.84-1.29-1.84-1.43,0-1.4.27-1.46.52a16.9,16.9,0,0,1-2.52,5.57,14.79,14.79,0,0,1-1,1.3.32.32,0,0,1-.22.12c-.17,0-.59-.31-.59-.49s.11-.23.2-.32A13.8,13.8,0,0,0,98,150.59a10.89,10.89,0,0,0,.34-1.23.15.15,0,0,0-.16-.15,2.61,2.61,0,0,0-.27.06,19.47,19.47,0,0,0-2.1.63.48.48,0,0,1-.17,0c-.19,0-.48-.66-.48-.84s.2-.11,1-.29,1.36-.31,2-.43c.44-.08.42-.24.5-.66a13,13,0,0,0,.16-1.88,1.82,1.82,0,0,0-.06-.51v-.06a.13.13,0,0,1,.14-.13A6.76,6.76,0,0,1,99.74,145.34Zm6.75,4.85c0,.16-.44.46-.65.46s-.24-.13-.3-.27a9.44,9.44,0,0,0-1.9-3,.35.35,0,0,1-.12-.23c0-.22.48-.42.6-.42C104.58,146.69,106.49,149.81,106.49,150.19Z"/><path class="cls-1" d="M113.64,145.12c0,.1-.09.18-.19.28a9.94,9.94,0,0,0-.54,1.74.25.25,0,0,0,0,.12.16.16,0,0,0,.17.15.45.45,0,0,0,.16,0c.29-.06.89-.22,1.14-.3a1,1,0,0,1,.17,0c.18,0,.21.51.21.63,0,.31-.14.33-1.76.61-.3.06-.45.08-.55.39a30.44,30.44,0,0,1-1.52,3.69c-.3.65-.69,1.41-1,2a.26.26,0,0,1-.24.16c-.16,0-.66-.22-.66-.43a1.15,1.15,0,0,1,.23-.47,25.92,25.92,0,0,0,2.07-4.11c0-.12.28-.75.28-.84a.15.15,0,0,0-.16-.15s-1.59.18-1.94.18h-.19c-.32,0-.35-.45-.35-.69s.14-.19.3-.19a11.85,11.85,0,0,0,2.61-.23c.18-.12.21-.33.3-.69a7.28,7.28,0,0,0,.33-2.07c0-.13,0-.24.17-.24S113.64,144.91,113.64,145.12Zm2.42,4.21s0,.45,0,.86c0,.61.11,2.94.2,3.45.06.28.28.33.52.4s2.24,1,2.24,1.31-.29.55-.51.55a.62.62,0,0,1-.35-.18,5.87,5.87,0,0,0-1.68-.91c-.15,0-.13.16-.13.25a1.66,1.66,0,0,1-1.85,1.86c-1,0-2.35-.58-2.35-1.75s1.21-1.53,2.2-1.53a7.63,7.63,0,0,1,.84,0h.08a.16.16,0,0,0,.16-.18c0-.4-.27-3.7-.31-4.09,0,0,0-.09,0-.14s.12-.19.24-.19S116.06,149.12,116.06,149.33Zm-3.18,5.82c0,.68,1,1,1.54,1,.75,0,1.07-.43,1.07-1.15,0-.47-.06-.6-1.1-.6C113.9,154.39,112.88,154.46,112.88,155.15Zm6.66-5.74c0,.22-.42.49-.6.49s-.15,0-.21-.13a7.24,7.24,0,0,0-1.79-1.83c-.07-.06-.19-.15-.19-.26a.84.84,0,0,1,.55-.52A7.08,7.08,0,0,1,119.54,149.41Z"/><path class="cls-1" d="M130.47,147c.3,0,.42-.13.42-.42v-.78a7.26,7.26,0,0,0-.06-1.14.71.71,0,0,1,0-.15c0-.16.09-.19.24-.19a3.4,3.4,0,0,1,.45,0c.34,0,.64,0,.64.21s-.07.15-.21.22-.22.53-.21,1.8c0,.3.12.42.42.42h.68l1.72,0c.3,0,.32.14.32.42s0,.44-.32.44l-1.72,0h-.68c-.3,0-.42.12-.42.4v6.63c0,.72,0,1.43,0,2.13,0,.41,0,.65-.45.65s-.46-.26-.45-.66-.12-.35-.36-.35h-4.41c-.21,0-.31.08-.31.29,0,.37,0,.66-.45.66s-.47-.24-.47-.63c0-.72,0-1.44,0-2.15v-6.57c0-.28-.12-.4-.42-.4h-.63c-.59,0-1.16,0-1.74,0-.29,0-.32-.17-.32-.44s0-.42.32-.42c.58,0,1.15,0,1.74,0h.63c.3,0,.42-.12.42-.42v-.09a13.22,13.22,0,0,0-.06-1.89.36.36,0,0,1,0-.15c0-.16.09-.21.24-.21a2.3,2.3,0,0,1,.45.05c.35,0,.65,0,.65.21s-.08.13-.23.22-.19.51-.19,1.77v.09c0,.3.12.42.42.42Zm-4.72,3.83a.43.43,0,0,0,.42.42h4.3a.43.43,0,0,0,.42-.42v-2.63a.39.39,0,0,0-.42-.4h-4.3a.39.39,0,0,0-.42.4Zm0,4.59a.37.37,0,0,0,.43.39h4.28c.3,0,.4-.12.43-.41v-3c0-.29-.12-.42-.42-.42h-4.3c-.3,0-.42.13-.42.42Z"/><path class="cls-1" d="M144.26,146.42a.27.27,0,0,1-.12.21,17.15,17.15,0,0,0-2,3.44.63.63,0,0,0-.09.24c0,.21.27.22.44.25a14,14,0,0,1,2.34.74,1,1,0,0,0,.3.1c.22,0,.27-.22.31-.37a8.27,8.27,0,0,0,.3-1.94V149c0-.17,0-.29.18-.29s1,.12,1,.36a.29.29,0,0,1-.11.21,1,1,0,0,0-.22.51,15.9,15.9,0,0,1-.41,1.65,1.72,1.72,0,0,0,0,.24c0,.24.21.33.4.44.45.22,1,.54,1.47.73.23.11.33.15.33.3s-.36.78-.58.78-.26-.13-.35-.19a6.4,6.4,0,0,0-1.54-1,.32.32,0,0,0-.3.23,11.33,11.33,0,0,1-1.79,2.56c-.19.2-1.09,1-1.33,1s-.71-.25-.71-.48.12-.16.2-.19a7.14,7.14,0,0,0,3-3.47c0-.27-.22-.37-1.11-.7a8.54,8.54,0,0,0-2-.5c-.33,0-.44.27-1.1,1.59-.45.9-.88,2.13-2.07,2.13a1.44,1.44,0,0,1-1.45-1.5,3.27,3.27,0,0,1,2.29-2.76,5,5,0,0,1,1.26-.24c.23,0,.38,0,.48-.24.53-1,1-2.1,1.52-3.1a.88.88,0,0,0,.13-.3.14.14,0,0,0-.15-.14c-.06,0-2.49.89-2.71,1a1.08,1.08,0,0,1-.35.1c-.21,0-.54-.52-.54-.73s.15-.2.29-.21a15.13,15.13,0,0,0,3.49-1.1.67.67,0,0,1,.33-.15C143.36,145.55,144.26,146.14,144.26,146.42Zm-3.89,4.82a3.63,3.63,0,0,0-.81.22,2.5,2.5,0,0,0-1.59,2,.58.58,0,0,0,.59.64.88.88,0,0,0,.73-.4,9.28,9.28,0,0,0,.69-1.07,7,7,0,0,0,.57-1.23A.16.16,0,0,0,140.37,151.24Z"/><path class="cls-1" d="M154.17,145.25c.35,0,.33.15.36.44a21.64,21.64,0,0,0,.65,3.3c0,.13.09.36.33.36a4.81,4.81,0,0,0,.88-.44c.66-.36,2-1.08,2.55-1.47a.82.82,0,0,1,.39-.18c.21,0,.59.75.59.87s-.17.17-.27.2a34.06,34.06,0,0,0-4.53,2.25c-1.08.63-2.9,1.68-2.9,3.1a1.47,1.47,0,0,0,.74,1.13,4.88,4.88,0,0,0,2.64.58,29,29,0,0,0,4-.36l.15,0c.17,0,.15.24.15.47s0,.48-.18.52c-.42.12-3.55.23-4.15.23a5.33,5.33,0,0,1-2.88-.62,2.33,2.33,0,0,1-1.22-2c0-1.62,1.62-2.65,2.84-3.45.16-.1.28-.19.28-.39a.6.6,0,0,0-.06-.22,22.58,22.58,0,0,1-.75-2.64,6.2,6.2,0,0,0-.34-1.23.64.64,0,0,1,0-.17C153.36,145.25,154,145.25,154.17,145.25Z"/><path class="cls-1" d="M170,148.61c-.1,0-.15.11-.15.2v.24c0,.51,0,1,0,1.53,0,.36,0,.58-.44.58s-.43-.22-.43-.57c0-.51,0-1,0-1.54v-.26c0-.09,0-.19-.15-.19a.25.25,0,0,0-.14.06,18.94,18.94,0,0,1-4.18,3,7.1,7.1,0,0,1-1.44.63c-.2,0-.38-.3-.38-.51s.24-.28.47-.37a16.11,16.11,0,0,0,4.95-3.09.17.17,0,0,0,.06-.14.16.16,0,0,0-.18-.15h-3.17l-1.74,0c-.28,0-.3-.15-.3-.4s0-.41.3-.41l1.74,0h3.75c.3,0,.41-.1.41-.4v-.72c0-.26-.11-.38-.38-.38-1,.11-3.16.21-4.15.21-.32,0-.56,0-.56-.52,0-.35.29-.3.54-.3,2.31,0,6.6-.17,8.72-.86a1.29,1.29,0,0,1,.19,0,1.6,1.6,0,0,1,.63.76.11.11,0,0,1-.12.12.47.47,0,0,1-.19-.06l-.18,0-.23,0a29.36,29.36,0,0,1-3.09.54.4.4,0,0,0-.39.45v.8c0,.28.12.4.42.4h3.68c.58,0,1.15,0,1.74,0,.27,0,.28.15.28.41s0,.4-.28.4c-.59,0-1.16,0-1.74,0h-3.18a.16.16,0,0,0-.18.15.16.16,0,0,0,.06.14,16.85,16.85,0,0,0,4.89,3.1c.15.06.46.17.46.38s-.16.51-.42.51a13.82,13.82,0,0,1-2.05-1,16.42,16.42,0,0,1-3.39-2.58A.25.25,0,0,0,170,148.61Zm-3.6,8.15c-.21,0-.28.07-.3.28,0,.05,0,.11,0,.15,0,.29-.08.38-.42.38s-.42-.11-.42-.38,0-.55,0-.84v-3.24c0-.31,0-.57,0-.78,0-.46.1-.67.7-.67h6.77c.52,0,.7.12.7.67,0,.26,0,.53,0,.78v3.24c0,.3,0,.59,0,.87s-.12.35-.42.35-.42-.06-.42-.35a1.09,1.09,0,0,1,0-.18c0-.21-.1-.28-.3-.28Zm6.26-3.93c0-.26-.17-.42-.42-.42h-5.73c-.26,0-.39.16-.42.42v.57c0,.25.15.42.42.42h5.73a.42.42,0,0,0,.42-.42Zm-.42,3.18a.42.42,0,0,0,.42-.42v-.66c0-.26-.17-.42-.42-.42h-5.73c-.26,0-.39.16-.42.42v.66c0,.25.15.42.42.42Z"/><path class="cls-1" d="M181.2,146.27c0,.14-.18.23-.27.29-.24.15-.43,1.12-.49,1.42a10.8,10.8,0,0,0-.17,1.89c0,.2,0,1.37.18,1.37s.2-.27.3-.51.57-1.31.75-1.31.29.09.29.21a.56.56,0,0,1-.06.2,9.06,9.06,0,0,0-1,2.82c0,.12,0,.25,0,.37a.68.68,0,0,1,0,.2c0,.22-.42.36-.62.36s-.27-.2-.33-.36a13,13,0,0,1-.46-3.41,13.37,13.37,0,0,1,.46-3.33A2.09,2.09,0,0,0,180,146c0-.09,0-.3.17-.3S181.2,146.08,181.2,146.27Zm5.4-.76a18.89,18.89,0,0,1,.44,4.05c0,2.61-.42,4.81-2.36,6.7-.21.2-.81.72-1.08.72-.12,0-.61-.36-.61-.6s.1-.16.19-.21a5.73,5.73,0,0,0,2.18-2.44,10.06,10.06,0,0,0,.75-4.2,12,12,0,0,0-.53-3.84,1,1,0,0,1,0-.15c0-.23.56-.33.72-.33S186.56,145.36,186.6,145.51Z"/><path class="cls-1" d="M193.64,145.9c.36.16.54.24.54.37s-.08.15-.21.21-.38.44-.54.89a12.06,12.06,0,0,0-.71,4.21,7.94,7.94,0,0,0,.45,2.84c.05.09.08.16.18.16s.21-.18.51-.87c.17-.36.24-.51.36-.51s.27.08.27.18-.21.75-.25.89a6.78,6.78,0,0,0-.29,1.32,1.89,1.89,0,0,0,.05.39v.13c0,.2-.6.45-.69.45s-.47-.55-.56-.73a10.42,10.42,0,0,1-.87-4.4,16.16,16.16,0,0,1,.83-4.87c.07-.23.13-.45.19-.68s.06-.22.18-.22A3.62,3.62,0,0,1,193.64,145.9Zm2.44,7.69a2.86,2.86,0,0,0,2.51,1.11,11.93,11.93,0,0,0,3.3-.49,1.14,1.14,0,0,1,.25-.06c.18,0,.17.18.17.34s0,.6-.14.68a16.2,16.2,0,0,1-3.39.42,4.2,4.2,0,0,1-3.15-1.11c-.07-.08-.24-.23-.24-.35s.27-.69.48-.69A.25.25,0,0,1,196.08,153.59Zm.65-6.69a7.5,7.5,0,0,0,2,.26,9.88,9.88,0,0,0,2.31-.3,1,1,0,0,1,.26-.05c.19,0,.19.3.19.48s0,.39-.06.45a13.41,13.41,0,0,1-2.56.27,9.85,9.85,0,0,1-2.45-.3c-.16-.07-.16-.24-.16-.4s0-.48.21-.48A.9.9,0,0,1,196.73,146.9Z"/><path class="cls-1" d="M208.83,156c0,.16-.37.66-.61.66s-.21-.11-.29-.2a7.68,7.68,0,0,0-2.25-2c-.1-.06-.22-.14-.22-.27a.88.88,0,0,1,.55-.59A8.23,8.23,0,0,1,208.83,156Z"/><path class="cls-1" d="M222.53,150.19c.48,0,.48-.56.48-1.44,0-1.13,0-1.46-.36-1.46l-.2,0a26.16,26.16,0,0,1-3.43.29c-.45,0-.59-.68-.59-.69s.17-.17.27-.17l.18,0a24.71,24.71,0,0,0,4.29-.39,10.65,10.65,0,0,0,2.75-.87.43.43,0,0,1,.25-.11,1.8,1.8,0,0,1,.78.89c0,.09-.09.13-.18.13a.45.45,0,0,1-.16,0h-.15a1.55,1.55,0,0,0-.47.12,17.12,17.12,0,0,1-1.66.46c-.24.06-.53.09-.53.41,0,0,0,.09,0,.12a10.67,10.67,0,0,1,0,1.14c0,.48,0,1,0,1.27a.28.28,0,0,0,.3.29h2.61l1.77,0c.31,0,.36.1.36.43s0,.45-.35.45c-.58,0-1.18,0-1.78,0H224c-.39,0-.42.37-.49.66a7.38,7.38,0,0,1-2.57,4.08,8.36,8.36,0,0,1-1.87,1.15c-.17,0-.66-.37-.66-.55s.16-.21.33-.3a6.89,6.89,0,0,0,2.58-1.88,7.08,7.08,0,0,0,1.15-2,5.94,5.94,0,0,0,.26-.93.24.24,0,0,0-.24-.24h-3.72c-.6,0-1.2,0-1.8,0-.32,0-.33-.18-.33-.45s0-.43.33-.43l1.8,0Z"/><path class="cls-1" d="M239.87,150.26l1.75,0c.35,0,.38.11.38.48s0,.45-.32.45c-.61,0-1.21,0-1.81,0H233l-1.8,0c-.32,0-.33-.16-.33-.45s0-.48.37-.48c.56,0,1.17,0,1.76,0Z"/><path class="cls-1" d="M251.73,146.84c.24,0,1,0,1.14,0a1,1,0,0,1,.26,0c.19,0,.61.48.61.64a.5.5,0,0,1-.16.29,5.94,5.94,0,0,0-.53.78A24.52,24.52,0,0,1,251,151.4a.41.41,0,0,0-.13.32.45.45,0,0,0,.24.39,19.76,19.76,0,0,1,2.74,2.08c.2.18,1.14,1,1.14,1.22s-.36.61-.58.61-.2-.1-.27-.19a17.54,17.54,0,0,0-1.79-1.76,22.35,22.35,0,0,0-1.9-1.42.46.46,0,0,0-.3-.12c-.2,0-.32.15-.56.39a18.71,18.71,0,0,1-3.88,2.7,1.57,1.57,0,0,1-.5.21.86.86,0,0,1-.6-.57c0-.17.21-.24.39-.32a16.75,16.75,0,0,0,7.14-6.48,1.62,1.62,0,0,0,.29-.57c0-.27-.36-.22-.66-.22H248c-.58,0-1.18,0-1.78,0-.32,0-.33-.15-.33-.44s0-.45.31-.45l1.8,0Zm3-.82c.12.12.66.66.66.79a.73.73,0,0,1-.53.5c-.1,0-.15-.09-.21-.15a14.12,14.12,0,0,0-1-1.14c0-.06-.14-.12-.14-.2s.35-.46.5-.46S254.63,145.88,254.75,146Zm.63-1.58c.13,0,.63.53.75.65s.66.67.66.79a.72.72,0,0,1-.54.5c-.09,0-.15-.09-.2-.15a14,14,0,0,0-1.05-1.14c0-.05-.12-.12-.12-.2A.76.76,0,0,1,255.38,144.44Z"/><path class="cls-1" d="M268.14,147.5a4.79,4.79,0,0,1,1.44,3.53,5.37,5.37,0,0,1-4.3,5.2c-.23,0-.63-.45-.63-.63s.12-.15.21-.16a4.41,4.41,0,0,0,3.84-4.35,4.12,4.12,0,0,0-3.12-4.11,2.94,2.94,0,0,0-.66-.11c-.42,0-.42.38-.44.63-.1,2.25-.66,5.16-2.11,6.95a2.42,2.42,0,0,1-1.74,1,2.16,2.16,0,0,1-1.79-1.27,4.48,4.48,0,0,1-.42-2,6,6,0,0,1,6-6.12A5,5,0,0,1,268.14,147.5Zm-5.31-.39a5.21,5.21,0,0,0-3.57,5c0,.81.29,2.47,1.34,2.47s1.81-1.65,2.11-2.43a15.85,15.85,0,0,0,1-4.72c0-.05,0-.12,0-.17a.29.29,0,0,0-.28-.31A2.68,2.68,0,0,0,262.83,147.11Z"/><path class="cls-1" d="M280.23,147.16l1.1,0c.67,0,.85.13.85.72,0,.39,0,.79,0,1.18v5c0,.46,0,1.08,0,1.27s-.24.35-.51.35c-.45,0-.47-.06-.5-.35s-.25-.34-.63-.34h-5.4c-.61,0-1.42,0-1.75,0s-.32-.15-.32-.45,0-.44.33-.44,1.1,0,1.74,0h5.72a.41.41,0,0,0,.42-.42v-5.35a.42.42,0,0,0-.42-.42h-5.72c-.61,0-1.54,0-1.74,0s-.33-.12-.33-.45,0-.44.32-.44,1,0,1.75,0Z"/><path class="cls-1" d="M293.46,147.31a8.43,8.43,0,0,0,1.34-.06.37.37,0,0,1,.15,0,1.35,1.35,0,0,1,.67.7c0,.15-.24.35-.6,1.08-1.68,3.38-3.42,5.67-6.79,7.49a3.05,3.05,0,0,1-.8.34c-.19,0-.79-.28-.79-.49s.21-.21.31-.26a14,14,0,0,0,2.39-1.32,13.19,13.19,0,0,0,3.63-3.88,12.62,12.62,0,0,0,1.27-2.55c0-.23-.37-.2-.72-.2h-3.43a.64.64,0,0,0-.71.36c-.31.44-2,2.52-2.44,2.52-.14,0-.66-.24-.66-.45s.06-.13.12-.18a14,14,0,0,0,3.9-5.17c0-.14.09-.3.21-.3s1,.28,1,.48-.09.15-.15.18a.7.7,0,0,0-.42.42c-.09.18-.23.45-.51.9a.42.42,0,0,0-.06.19.21.21,0,0,0,.22.23Z"/><path class="cls-1" d="M301.73,145.25c.34,0,.33.15.36.44a22.9,22.9,0,0,0,.64,3.3c0,.13.09.36.33.36a4.88,4.88,0,0,0,.89-.44c.66-.36,2-1.08,2.55-1.47a.82.82,0,0,1,.39-.18c.21,0,.58.75.58.87s-.16.17-.27.2a35.31,35.31,0,0,0-4.53,2.25c-1.08.63-2.89,1.68-2.89,3.1a1.48,1.48,0,0,0,.73,1.13,4.9,4.9,0,0,0,2.64.58,29,29,0,0,0,4-.36l.15,0c.16,0,.15.24.15.47s0,.48-.18.52c-.42.12-3.56.23-4.16.23a5.33,5.33,0,0,1-2.88-.62,2.34,2.34,0,0,1-1.21-2c0-1.62,1.62-2.65,2.83-3.45.17-.1.29-.19.29-.39a.6.6,0,0,0-.06-.22,19.26,19.26,0,0,1-.75-2.64,7,7,0,0,0-.35-1.23,1.36,1.36,0,0,1,0-.17C300.92,145.25,301.56,145.25,301.73,145.25Z"/><path class="cls-1" d="M314.37,156c0,.16-.37.66-.61.66s-.21-.11-.29-.2a7.68,7.68,0,0,0-2.25-2c-.1-.06-.22-.14-.22-.27a.88.88,0,0,1,.55-.59A8.23,8.23,0,0,1,314.37,156Z"/><path class="cls-1" d="M324.72,151.21c-.37.25-1.12.82-1.47,1.11a.62.62,0,0,1-.3.18c-.18,0-.52-.42-.52-.69s.19-.21.42-.36c.52-.33,1-.69,1.57-1,.18-.1.32-.21.32-.43a.68.68,0,0,0-.11-.33,9.15,9.15,0,0,0-1.11-1.86.41.41,0,0,1-.1-.21c0-.14.21-.17.57-.3a1.54,1.54,0,0,1,.49-.15c.11,0,.17,0,.17.15s0,.1,0,.13v.09a10.55,10.55,0,0,0,.75,1.79c.06.13.14.27.3.27a.41.41,0,0,0,.24-.08c1.46-.91,3.23-2,5-2a2.28,2.28,0,0,1,2.58,2.29c0,1.92-1.92,2.79-3.52,3.18a3.8,3.8,0,0,1-.54.09c-.29,0-.53-.54-.53-.64s.17-.2.29-.21c1.27-.21,3.46-.78,3.46-2.4,0-1.11-.84-1.53-1.84-1.53a6.91,6.91,0,0,0-3.14,1.06c-.45.26-.9.5-1.32.77-.15.09-.3.18-.3.37a49,49,0,0,0,2.84,5,1.19,1.19,0,0,1,.24.51c0,.24-.51.46-.71.46s-.24-.16-.46-.61c-.81-1.58-1.73-3.12-2.52-4.7a.31.31,0,0,0-.29-.21A.93.93,0,0,0,324.72,151.21Zm3.45-5.09c.53.21.78.29.78.5s-.18.57-.39.57a.33.33,0,0,1-.22-.08,9,9,0,0,0-1.94-.69c-.12,0-.19-.07-.19-.19s.15-.65.37-.65A11.49,11.49,0,0,1,328.17,146.12Z"/><path class="cls-1" d="M340.91,145.15c.12.24,1,1.86,1,2a.41.41,0,0,0,.36.24,6.82,6.82,0,0,0,1.95-.93,1.15,1.15,0,0,1,.39-.21c.2,0,.5.45.5.61s-1.94,1.1-2.27,1.22c-.12,0-.24.09-.24.25a1.92,1.92,0,0,0,.26.54,20.33,20.33,0,0,0,2.41,3.68.51.51,0,0,1,.21.39.76.76,0,0,1-.6.61c-.18,0-.48-.24-.63-.34a7.31,7.31,0,0,0-3.66-1.23,1.84,1.84,0,0,0-2,1.75c0,1.86,2.45,2.25,3.87,2.25.36,0,.65,0,.78,0s.21,0,.21.2c0,.79-.49.7-.58.7-1.94,0-5.1-.58-5.1-3.07a2.64,2.64,0,0,1,2.89-2.58,6.32,6.32,0,0,1,2.9.81.48.48,0,0,0,.21.07s.09,0,.09-.07a.55.55,0,0,0-.14-.26c-.55-.81-1.29-2.08-1.77-3a.42.42,0,0,0-.39-.27.59.59,0,0,0-.19,0,20.64,20.64,0,0,1-3.78.6c-.39,0-.51-.68-.51-.74s.09-.16.73-.16a15.82,15.82,0,0,0,3.12-.42c.14,0,.29-.09.29-.26a12.76,12.76,0,0,0-1.28-2.17.38.38,0,0,1-.13-.24c0-.18.7-.26.79-.26S340.83,145,340.91,145.15Z"/><path class="cls-1" d="M352.38,145.76c.12.05.26.09.26.24s-.08.17-.15.24a1.2,1.2,0,0,0-.3.86,41.46,41.46,0,0,0-.29,5.11c0,1.46.09,3.41,2,3.41a4.31,4.31,0,0,0,3.24-1.65,4.35,4.35,0,0,0,.9-2.25c0-.14,0-.42.21-.42a.9.9,0,0,1,.69.75,5,5,0,0,1-.56,1.63,5.19,5.19,0,0,1-4.39,2.81,2.86,2.86,0,0,1-2.36-1.11,5.41,5.41,0,0,1-.66-3.08c0-1.11.05-2.52.14-3.61,0-.59.19-2.15.19-2.61v-.29c0-.13,0-.28.2-.28A4.08,4.08,0,0,1,352.38,145.76Z"/><path class="cls-1" d="M363.84,147.37c.11,0,.27.09.27.21s-.09.16-.16.22a.53.53,0,0,0-.2.42,8.54,8.54,0,0,0-.09,1.34,9.88,9.88,0,0,0,.56,3.75c.24.57.91,1.66,1.62,1.66.46,0,1.05-.76,1.26-1.14.06-.12.18-.37.33-.37s.54.33.54.49-.66,1-.83,1.16a1.79,1.79,0,0,1-1.27.79c-1,0-1.83-1-2.25-1.87a10.7,10.7,0,0,1-.8-4.56c0-.3.05-2,.06-2.21a.16.16,0,0,1,.18-.13A3.88,3.88,0,0,1,363.84,147.37Zm6.71-.11a4.84,4.84,0,0,1,1.8,1.68,7.8,7.8,0,0,1,1.08,2.94c0,.09,0,.26,0,.35,0,.31-.33.36-.59.36s-.34-.17-.37-.36a5.94,5.94,0,0,0-2.13-4.2c-.12-.09-.24-.17-.24-.29A.55.55,0,0,1,370.55,147.26Z"/><path class="cls-1" d="M377.85,153.46a24,24,0,0,1,6.66,1.9c.15.08.32.17.32.35s-.14.6-.39.6a.64.64,0,0,1-.3-.11,21,21,0,0,0-6.62-1.93c-.27,0-.4-.05-.4-.35s.06-.52.31-.52Zm.93-3.84c1.37.33,2.7.72,4,1.18.5.18.66.23.66.44s-.13.61-.39.61a.9.9,0,0,1-.37-.12,24.55,24.55,0,0,0-4.4-1.35c-.21,0-.36-.06-.36-.31s.08-.56.33-.56A3.1,3.1,0,0,1,378.78,149.62Zm.15-3.83a23.77,23.77,0,0,1,2.93.92c1.39.52,1.44.6,1.44.76s-.15.63-.39.63a.58.58,0,0,1-.29-.09,20.39,20.39,0,0,0-3.81-1.38c-.16,0-.28-.09-.28-.27S378.62,145.79,378.93,145.79Z"/><path class="cls-1" d="M391.22,146.57c.12,0,.25.05.25.18s0,.12-.12.2a.58.58,0,0,0-.09.39,28.39,28.39,0,0,1-.1,2.92,8.06,8.06,0,0,1-2.67,5.39.31.31,0,0,1-.18.09c-.17,0-.75-.24-.75-.45s.18-.23.3-.32c2.17-1.71,2.55-4.15,2.55-6.73a8.52,8.52,0,0,0-.08-1.43s0-.13,0-.18a.15.15,0,0,1,.16-.16A6,6,0,0,1,391.22,146.57Zm3.45,7.5c0,.11,0,.29.15.29s.31-.15.42-.23a41,41,0,0,0,4.15-3.4c.06-.06.17-.18.26-.18s.45.39.45.57-.23.31-.32.39a54,54,0,0,1-4.54,3.64,1.41,1.41,0,0,0-.18.14c-.11.09-.2.19-.35.19a2.19,2.19,0,0,1-.66-.27c-.19-.12-.31-.16-.31-.37s.06-.92.06-1.8v-4.56a14.36,14.36,0,0,0-.06-2,.83.83,0,0,1,0-.22.14.14,0,0,1,.15-.15,5.26,5.26,0,0,1,.84.18c.09,0,.18.06.18.18s-.05.12-.11.18-.1.42-.1.94Z"/><path class="cls-1" d="M409.43,147.31a8.3,8.3,0,0,0,1.33-.06.44.44,0,0,1,.15,0,1.33,1.33,0,0,1,.68.7c0,.15-.24.35-.6,1.08-1.68,3.38-3.42,5.67-6.8,7.49a3,3,0,0,1-.79.34c-.2,0-.8-.28-.8-.49s.21-.21.32-.26a13.92,13.92,0,0,0,2.38-1.32,13.19,13.19,0,0,0,3.63-3.88,12.17,12.17,0,0,0,1.28-2.55c0-.23-.38-.2-.72-.2h-3.44c-.4,0-.46,0-.7.36s-2,2.52-2.45,2.52c-.13,0-.66-.24-.66-.45s.06-.13.12-.18a13.84,13.84,0,0,0,3.9-5.17c.05-.14.09-.3.21-.3s1,.28,1,.48-.09.15-.15.18a.75.75,0,0,0-.42.42,8.22,8.22,0,0,1-.51.9.42.42,0,0,0-.06.19.22.22,0,0,0,.23.23Z"/><path class="cls-1" d="M422.15,145.87H425c.64,0,1.33,0,1.71,0s.28.15.28.4,0,.41-.28.41-1.08-.05-1.71-.05h-2.75c-.19,0-.36.09-.36.32V147a12.69,12.69,0,0,0,.83,2.73.22.22,0,0,0,.21.15.23.23,0,0,0,.19-.12,11.33,11.33,0,0,0,1.13-2.29c0-.11.07-.24.21-.24s.88.27.88.46-.12.15-.21.18-.22.15-.33.38a16.7,16.7,0,0,1-1.26,2.22.52.52,0,0,0-.12.31.48.48,0,0,0,.12.32c.42.52,1.14,1.33,1.88,1.33s.72-.75.84-1.39c0-.18,0-.32.27-.32s.48,0,.48.29a3.46,3.46,0,0,1-.29,1.21c-.25.62-.55,1-1.27,1a3.31,3.31,0,0,1-2.37-1.46c-.08-.07-.15-.15-.26-.15a.31.31,0,0,0-.25.14c-.21.24-1.11,1.3-1.38,1.3s-.45-.22-.45-.4.22-.33.31-.42a11.8,11.8,0,0,0,1.1-1.14.54.54,0,0,0,.13-.33.52.52,0,0,0-.07-.29,12.45,12.45,0,0,1-1.13-3.43c0-.3-.16-.38-.46-.41h-4.38a.37.37,0,0,0-.42.42v1.52a10.17,10.17,0,0,1-.89,4.38c-.09.18-.31.69-.55.69s-.54-.21-.54-.39a2.33,2.33,0,0,1,.22-.45,8.65,8.65,0,0,0,1-4.32v-.9c0-.35,0-.69,0-1,0-.58.21-.66,1-.66l1,0h3.53c.27,0,.37-.12.37-.41s-.09-1-.09-1.08.06-.13.15-.13l.86.07c.09,0,.21,0,.21.15s-.09.15-.21.21-.14.14-.14.27,0,.36,0,.53A.38.38,0,0,0,422.15,145.87ZM416.58,154c-.18,0-.19.07-.25.24a12.43,12.43,0,0,1-1.16,2.58c-.09.13-.16.25-.33.25s-.51-.13-.51-.33a.62.62,0,0,1,.14-.28,10.5,10.5,0,0,0,1.15-2.66c0-.09.05-.22.17-.22a6.42,6.42,0,0,1,.7.12c.09,0,.24,0,.24.16S416.64,154,416.58,154Zm1.14-5.66-.85,0c-.24,0-.26-.18-.26-.38s0-.36.26-.36l.85,0h1.58l.87,0c.24,0,.24.2.24.39s0,.35-.24.35l-.87,0Zm1.52.95.49,0c.33,0,.51.15.51.48v1.85c0,.37-.21.49-.54.49h-1.65c-.36,0-.45,0-.48.22s-.28.14-.39.14-.34,0-.34-.29v-2.37c0-.36.16-.51.52-.51l.48,0Zm2.88,7.05a1.56,1.56,0,0,0,.61-.08,2.24,2.24,0,0,0,.45-1c.05-.29.05-.42.32-.42s.48,0,.48.31a3.75,3.75,0,0,1-.39,1.31c-.36.67-.77.66-1.46.66H418.8c-.61,0-1.38-.05-1.38-.84,0-.09,0-.23,0-.32v-1.41a4.41,4.41,0,0,0-.05-.81s0-.09,0-.13.07-.17.18-.17l.21,0c.22,0,.37,0,.51,0s.33.05.33.15-.08.12-.14.17c-.21.12-.24.25-.24.73v1.32c0,.51.32.5.83.5ZM417.59,151a.41.41,0,0,0,.4.42h1.1a.41.41,0,0,0,.4-.42v-.57a.41.41,0,0,0-.4-.42H418a.41.41,0,0,0-.42.42Zm4.06,4.18c-.16,0-.25-.1-.37-.21-.45-.4-.93-.79-1.41-1.17-.09-.07-.21-.16-.21-.28a.48.48,0,0,1,.4-.44,4.81,4.81,0,0,1,1.08.77c.18.15.93.72.93.91A.48.48,0,0,1,421.65,155.18Zm2.93-9.48a.36.36,0,0,1-.23-.09,12.44,12.44,0,0,0-1.12-.78c-.09-.06-.17-.12-.17-.22s.21-.47.38-.47a2.48,2.48,0,0,1,.79.44c.2.12.77.45.77.67A.54.54,0,0,1,424.58,145.7Zm1.54,10.85c-.16,0-.27-.15-.36-.27a19.75,19.75,0,0,0-1.41-1.76.52.52,0,0,1-.15-.28c0-.18.27-.38.45-.38a.44.44,0,0,1,.29.17l.76.9a5.2,5.2,0,0,1,.87,1.24C426.57,156.37,426.32,156.55,426.12,156.55Z"/><path class="cls-1" d="M433.16,155a2,2,0,1,1-2-2A2,2,0,0,1,433.16,155Zm-3.44,0a1.43,1.43,0,1,0,2.85,0,1.43,1.43,0,0,0-2.85,0Z"/><path class="cls-1" d="M1,182c0,.08,0,.18-.19.18s-.18-.13-.38-.43c-.06-.09-.23-.3-.23-.42s.06-.12.68-.35c1.2-.42,2.35-.94,3.49-1.45a.52.52,0,0,0,.36-.59v-3.09c0-.3-.12-.42-.42-.42H2.38c-.54,0-1.08,0-1.6,0-.3,0-.32-.13-.32-.42s0-.43.32-.43c.52,0,1.06,0,1.6,0H4.26c.3,0,.42-.12.42-.41v-.93a13.22,13.22,0,0,0-.06-1.89.36.36,0,0,1,0-.15c0-.16.1-.21.24-.21s.3,0,.45,0c.35.05.65,0,.65.23s-.07.13-.21.22-.21.51-.21,1.77v8.33c0,.7,0,1.42,0,2.13,0,.4,0,.64-.46.64s-.45-.24-.45-.63c0-.72,0-1.44,0-2.14v-1.08c0-.14-.06-.27-.22-.27a.29.29,0,0,0-.14,0c-1.07.51-2.16,1-3.25,1.47C1,181.8,1,181.88,1,182Zm11.62-8c.15,0,.27.32.45.6a.84.84,0,0,1,.1.29A.12.12,0,0,1,13,175a.74.74,0,0,1-.14,0,.53.53,0,0,0-.18,0,.29.29,0,0,0-.1,0,24,24,0,0,1-3.51,1.68c-.3.12-.36.24-.36.56v5.32c0,.71.05.84.73.84h1.89c.48,0,.9.08,1.22-1.92.06-.36.06-.49.3-.49s.58.07.58.34a7.44,7.44,0,0,1-.6,2.06c-.33.72-.64.81-1.39.81H9.25c-.87,0-1.42-.3-1.42-1.28,0-.37,0-.76,0-1.15v-8.42a14.28,14.28,0,0,0-.06-1.86.86.86,0,0,1,0-.16c0-.15.09-.18.22-.18s.69,0,.87.07.22,0,.22.17-.07.13-.21.22-.19.45-.19,1.74v2.25c0,.15.06.3.24.3l.13,0A20.56,20.56,0,0,0,12.39,174,.38.38,0,0,1,12.57,173.94Z"/><path class="cls-1" d="M18.41,178.67a1.58,1.58,0,0,1-.11.37,23,23,0,0,1-2.05,4,.65.65,0,0,0-.17.34c0,.08,0,.2,0,.29a.14.14,0,0,1-.16.16c-.06,0-.78-.43-.78-.61a1.91,1.91,0,0,1,.3-.48,19.92,19.92,0,0,0,2.2-4.28.19.19,0,0,1,.19-.16C18,178.28,18.41,178.49,18.41,178.67ZM17,175.46c.25.18.84.55.84.76s-.2.44-.42.44a.38.38,0,0,1-.27-.14c-.56-.42-1.12-.82-1.71-1.2-.12-.06-.28-.15-.28-.3a.51.51,0,0,1,.38-.45A7.24,7.24,0,0,1,17,175.46Zm.71-3.33c.33.22.85.54.85.75a.53.53,0,0,1-.43.45c-.13,0-.28-.14-.39-.23-.57-.4-1.15-.78-1.73-1.17-.1-.06-.29-.16-.29-.3a.53.53,0,0,1,.41-.45A10.32,10.32,0,0,1,17.75,172.13Zm8.8,8.91c0,.25.07.4.36.4s.82,0,1.09,0,.32.12.32.41-.05.4-.3.4c-.42,0-.83,0-1.23,0s-.37.14-.42.39c-.27,1.38-.6,1.73-2,1.73-.65,0-.91.06-.91-.54,0-.2,0-.35.26-.35s.44,0,.77,0c.75,0,1-.09,1.12-.85a.26.26,0,0,0,0-.11c0-.22-.18-.3-.38-.3H20.79c-.23,0-.32.06-.34.29-.1.57-.08.67-.37.67s-.54,0-.54-.25c0-.05.06-.35.13-.8.13-1,.33-2.47.34-2.58s0-.33,0-.34c0-.24-.14-.32-.35-.33s-.54,0-.82,0-.28-.17-.28-.41,0-.4.28-.4l.89,0c.27,0,.4-.11.44-.39.1-1,.13-1.61.16-2,.06-.66.13-.75.67-.75l.93,0h3.3l.89,0c.57,0,.66.12.66.69s-.05,1.4-.06,2.09c0,.27.12.37.39.39l.9,0c.27,0,.3.15.3.4s0,.41-.29.41-.64,0-1,0-.4.1-.42.39Zm-5.43-7.71a.52.52,0,0,0-.58.34,13.84,13.84,0,0,1-1,1.58.45.45,0,0,1-.35.22c-.15,0-.48-.15-.48-.33a.65.65,0,0,1,.15-.3,12.15,12.15,0,0,0,1.76-3.66c0-.12.05-.27.21-.27s.88.21.88.38-.08.13-.17.16-.19.14-.41.77a.25.25,0,0,0,0,.12c0,.24.25.25.3.25h4.78c.5,0,1,0,1.55,0,.26,0,.3.09.3.41s0,.4-.28.4c-.53,0-1.05,0-1.57,0Zm.18,5.52c-.3,0-.42.1-.47.4-.07.6-.13,1.2-.21,1.8,0,.29.09.39.38.39h1.26c.3,0,.42-.09.45-.39l.17-1.81c0-.29-.13-.39-.4-.39Zm1.24-.75a.39.39,0,0,0,.46-.39l.13-1.62c0-.27-.12-.39-.39-.39H21.62c-.4,0-.45,0-.52.57,0,.3-.07.72-.12,1.42,0,.29.11.41.4.41Zm3.35,1.14c0-.29-.12-.39-.39-.39H24.09c-.29,0-.42.09-.45.39l-.15,1.81c0,.29.12.39.39.39H25.3c.29,0,.42-.09.45-.39C25.81,180.45,25.88,179.85,25.89,179.24Zm-.38-1.14c.3,0,.42-.11.44-.41s0-1.29,0-1.6-.16-.39-.49-.39H24.34c-.28,0-.43.1-.45.39l-.12,1.62c0,.27.11.39.38.39Z"/><path class="cls-1" d="M30.83,183.68s0,.21-.16.21a2,2,0,0,1-.75-.68c0-.13.19-.18.56-.46.54-.42,1.1-.84,1.64-1.28a.71.71,0,0,0,.28-.66v-2.94c0-.3-.12-.42-.42-.42h-.89l-.59,0c-.23,0-.28-.12-.28-.4s.07-.41.29-.41.41,0,.58,0h1.37c.62,0,.75.19.75.66s0,.78,0,1.15v2a2.68,2.68,0,0,0,.11.9,2.55,2.55,0,0,0,1.25,1.26,11.59,11.59,0,0,0,4.06.45H43c.15,0,.19.06.19.21,0,.64-.21.55-1.29.55H38.31c-1.1,0-3.08,0-4-.46a3.55,3.55,0,0,1-1.32-1.2c-.08-.09-.15-.18-.27-.18a.34.34,0,0,0-.24.09c-.51.43-1.05.85-1.58,1.27C30.81,183.5,30.83,183.57,30.83,183.68ZM33,174.36c-.16,0-.24-.12-.33-.24a20.58,20.58,0,0,0-2-2.16c-.09-.09-.21-.19-.21-.33a.49.49,0,0,1,.44-.4c.13,0,.24.12.39.24.35.33.67.67,1,1A6.63,6.63,0,0,1,33.43,174,.47.47,0,0,1,33,174.36Zm4,.84a.47.47,0,0,0,.51-.3,3.77,3.77,0,0,0,.28-.57.43.43,0,0,0,0-.12c0-.19-.13-.22-.3-.24H35.89l-1.5,0c-.27,0-.28-.18-.28-.4s0-.41.28-.41l1.5,0H39a.59.59,0,0,0,.6-.31,10.49,10.49,0,0,0,.84-1.8c0-.09.06-.17.16-.17s.85.33.85.51-.11.12-.23.15-.15,0-.2.12a11.31,11.31,0,0,1-.57,1.16.61.61,0,0,0,0,.13c0,.15.12.2.26.21h.85c.51,0,1,0,1.5,0,.29,0,.29.17.29.41s0,.4-.29.4c-.49,0-1,0-1.5,0H39.12a.43.43,0,0,0-.48.3c-.08.2-.17.38-.24.57a.24.24,0,0,0,0,.12c0,.18.1.23.27.24H41c.85,0,.67.4.67,1.57v4c0,.35,0,.69,0,1s-.09.36-.41.36a.44.44,0,0,1-.39-.15c-.06-.12-.12-.21-.27-.21H36.5c-.14,0-.2.09-.28.21s-.24.15-.37.15c-.31,0-.42-.08-.42-.36s0-.69,0-1v-4c0-.3,0-.6,0-.9,0-.52.14-.67.67-.67H37Zm.09-2a.3.3,0,0,1-.28-.21,10.64,10.64,0,0,0-.89-1.43.49.49,0,0,1-.12-.25c0-.21.29-.36.45-.36s.27.15.51.51a6,6,0,0,1,.8,1.38C37.56,173.06,37.2,173.15,37.09,173.15Zm3.8,3.15a.35.35,0,0,0-.36-.36H36.62a.35.35,0,0,0-.38.36v.46a.34.34,0,0,0,.38.36h3.91a.34.34,0,0,0,.36-.36Zm-4.65,2.41a.35.35,0,0,0,.38.36h3.91a.35.35,0,0,0,.36-.36v-.52a.35.35,0,0,0-.36-.36H36.62a.35.35,0,0,0-.38.36Zm0,2a.35.35,0,0,0,.38.36h3.91a.35.35,0,0,0,.36-.36v-.54a.35.35,0,0,0-.36-.38H36.62a.36.36,0,0,0-.38.38Z"/><path class="cls-1" d="M55.39,174.3a4.79,4.79,0,0,1,1.44,3.53,5.37,5.37,0,0,1-4.3,5.2c-.23,0-.63-.45-.63-.63s.12-.15.21-.16A4.41,4.41,0,0,0,56,177.89a4.12,4.12,0,0,0-3.12-4.11,2.94,2.94,0,0,0-.66-.11c-.42,0-.42.38-.44.63-.1,2.25-.66,5.16-2.11,6.95a2.42,2.42,0,0,1-1.74,1A2.16,2.16,0,0,1,46.09,181a4.48,4.48,0,0,1-.42-2,6,6,0,0,1,6-6.12A5,5,0,0,1,55.39,174.3Zm-5.31-.39a5.21,5.21,0,0,0-3.57,5c0,.81.29,2.47,1.34,2.47S49.67,179.76,50,179a15.85,15.85,0,0,0,.95-4.72s0-.12,0-.17a.29.29,0,0,0-.28-.31A2.68,2.68,0,0,0,50.08,173.91Z"/><path class="cls-1" d="M62.7,179.91a.15.15,0,0,0-.15.14,8,8,0,0,1-2.38,3.87c-.16.13-.37.34-.55.34s-.46-.34-.46-.51a.34.34,0,0,1,.21-.27A6.85,6.85,0,0,0,62,178.41c0-.28-.12-.39-.39-.39h-.69l-1.47,0c-.28,0-.28-.18-.28-.4s0-.41.28-.41l1.47,0h.69c.29,0,.42-.12.42-.4V175c0-.29-.13-.42-.42-.42H61.3a.47.47,0,0,0-.51.3c-.27.51-.52,1-.83,1.47-.1.12-.19.25-.37.25s-.46-.16-.46-.33a.6.6,0,0,1,.09-.22,13.47,13.47,0,0,0,2.07-4.64c0-.12,0-.33.21-.33s.92.2.92.39-.11.14-.19.17-.21.16-.27.36a13.54,13.54,0,0,1-.52,1.47.24.24,0,0,0,0,.12c0,.24.24.24.28.25h1.56c.51,0,1,0,1.47,0s.3.14.3.41,0,.4-.3.4-1-.06-1.47,0a.37.37,0,0,0-.42.42v1.92c0,.28.14.4.42.4h.3c.5,0,1,0,1.47,0,.27,0,.29.18.29.41s0,.4-.29.4c-.45,0-1,0-1.47,0h-.3c-.22,0-.39.08-.42.32a1.07,1.07,0,0,0,.14.52,14.38,14.38,0,0,0,2.22,2.94.29.29,0,0,1,.07.18.56.56,0,0,1-.45.45c-.19,0-.4-.28-.7-.63a15.74,15.74,0,0,1-1.28-1.8A.18.18,0,0,0,62.7,179.91ZM72,183.09c.28,0,.31.12.31.41s0,.4-.3.4c-.58,0-1.15,0-1.74,0H66.58c-.58,0-1.17,0-1.75,0-.27,0-.29-.16-.29-.4s0-.41.29-.41l1.75,0h2.06a.52.52,0,0,0,.57-.36,12.12,12.12,0,0,0,.84-3.15c0-.12.06-.18.18-.18s.88.21.88.41-.12.12-.24.16a.29.29,0,0,0-.16.15,15.71,15.71,0,0,1-.71,2.6.45.45,0,0,0,0,.12c0,.24.22.24.28.25C70.86,183.12,71.44,183.09,72,183.09Zm-4.94-10.42c-.55,0-1.12,0-1.68,0-.27,0-.28-.18-.28-.4s0-.41.28-.41c.57,0,1.13,0,1.68,0H70.2l1.65,0c.28,0,.3.15.3.41s0,.4-.29.4c-.55,0-1.11,0-1.66,0Zm4.4,4.8c0,.22,0,.45,0,.66,0,.48-.15.64-.63.64H66.43c-.43,0-.66-.1-.66-.58,0-.24,0-.48,0-.72v-1.92c0-.23,0-.47,0-.69,0-.47.18-.6.63-.6h4.44c.45,0,.66.1.66.6,0,.22,0,.45,0,.69Zm-4.17,5.19c-.26,0-.33-.17-.38-.38a15.21,15.21,0,0,0-.72-2.26.67.67,0,0,1-.07-.24c0-.2.27-.35.45-.35a.34.34,0,0,1,.28.2,9.1,9.1,0,0,1,.47,1.24,13,13,0,0,1,.37,1.46A.38.38,0,0,1,67.32,182.66Zm3.37-7.23a.41.41,0,0,0-.4-.42H67a.42.42,0,0,0-.42.42v2.17c0,.26.16.41.42.41h3.3a.37.37,0,0,0,.4-.41Z"/><path class="cls-1" d="M76.47,174.17c.1,0,.27.09.27.21s-.09.16-.17.22-.16.23-.19.42a7.48,7.48,0,0,0-.09,1.34,9.87,9.87,0,0,0,.55,3.75c.24.57.92,1.66,1.62,1.66.47,0,1.05-.76,1.26-1.14.06-.12.18-.37.33-.37s.54.33.54.49-.66,1-.82,1.16a1.83,1.83,0,0,1-1.28.79c-1,0-1.82-1-2.25-1.87a10.69,10.69,0,0,1-.79-4.56c0-.3,0-2,.06-2.21s.09-.13.18-.13A3.88,3.88,0,0,1,76.47,174.17Zm6.7-.11a4.76,4.76,0,0,1,1.8,1.68,7.63,7.63,0,0,1,1.08,2.94,2.07,2.07,0,0,1,0,.35c0,.31-.33.36-.58.36s-.35-.17-.38-.36a5.94,5.94,0,0,0-2.13-4.2c-.12-.09-.24-.17-.24-.29A.56.56,0,0,1,83.17,174.06Z"/><path class="cls-1" d="M95.14,182.91a1,1,0,0,0-.33.09,16.25,16.25,0,0,1-3.67,1.07c-.47.07-1.7.25-2.12.25a.45.45,0,0,1-.48-.51c0-.3.29-.28.58-.3a16.06,16.06,0,0,0,4.87-1,.23.23,0,0,0,.15-.19.21.21,0,0,0-.11-.2,6.62,6.62,0,0,1-1.38-1.27.37.37,0,0,0-.31-.18.56.56,0,0,0-.26.07,12.58,12.58,0,0,1-2.43,1.08,1.7,1.7,0,0,1-.39.09c-.24,0-.37-.28-.37-.43s.25-.3.53-.39A11.46,11.46,0,0,0,93.25,179a.13.13,0,0,0,.06-.13c0-.11-.1-.15-.19-.15H91.81c-.49,0-.69-.12-.69-.63,0-.27,0-.54,0-.81v-2.49c0-.25,0-.51,0-.76,0-.53.15-.66.67-.66h1.67a.47.47,0,0,0,.51-.31l.18-.44a.3.3,0,0,0,0-.13c0-.18-.15-.24-.3-.26H90.48c-.57,0-1.15.05-1.74.05-.27,0-.28-.17-.28-.41s0-.4.28-.4c.59,0,1.17,0,1.74,0h9l1.73,0c.28,0,.3.13.3.4s0,.41-.3.41c-.57,0-1.16-.05-1.73-.05H95.46a.43.43,0,0,0-.47.33c-.06.15-.1.29-.16.44a.23.23,0,0,0,0,.12c0,.18.14.24.29.25h3c.5,0,.69.1.69.61,0,.27,0,.54,0,.81v2.49c0,.27,0,.53,0,.78,0,.51-.15.66-.66.66h-4s-.08,0-.08.06,0,0,0,.06c.23.15.36.22.36.34a.12.12,0,0,1-.12.12h-.18c-.15,0-.3.16-.51.36,0,0,0,0,0,.09s0,.09.12.09h2.66l1.12,0a.61.61,0,0,1,.6.65c0,.49-1.33,1.44-1.74,1.71a.23.23,0,0,0-.12.18.2.2,0,0,0,.14.19,12.05,12.05,0,0,0,4.69,1h.17c.15,0,.3,0,.3.36s-.18.45-.51.45a14.45,14.45,0,0,1-1.74-.18A14.12,14.12,0,0,1,95.49,183,.76.76,0,0,0,95.14,182.91Zm2.9-8.52a.28.28,0,0,0-.3-.3H92.19a.28.28,0,0,0-.3.3v.24a.28.28,0,0,0,.3.3h5.55a.28.28,0,0,0,.3-.3Zm-5.85,1.23a.3.3,0,0,0-.3.32v.22a.3.3,0,0,0,.3.32h5.55a.3.3,0,0,0,.3-.32v-.22a.3.3,0,0,0-.3-.32Zm0,1.55a.29.29,0,0,0-.3.31v.24a.3.3,0,0,0,.3.32h5.55a.3.3,0,0,0,.3-.32v-.24a.29.29,0,0,0-.3-.31Zm1.57,3.42c-.09,0-.19,0-.19.15a.14.14,0,0,0,.06.13,8.22,8.22,0,0,0,1.25.92.6.6,0,0,0,.32.1.59.59,0,0,0,.33-.1c.24-.14,1.43-.84,1.43-1.07s-.21-.13-.39-.13Z"/><path class="cls-1" d="M106.47,172.7c.36.16.54.24.54.37s-.07.15-.21.21-.38.44-.54.89a12.28,12.28,0,0,0-.7,4.21,7.94,7.94,0,0,0,.44,2.84c0,.09.08.16.19.16s.21-.18.51-.87c.16-.36.24-.51.36-.51s.27.08.27.18a8.42,8.42,0,0,1-.26.89,6.75,6.75,0,0,0-.28,1.32,1.84,1.84,0,0,0,0,.39v.13c0,.2-.6.45-.69.45s-.47-.55-.56-.73a10.42,10.42,0,0,1-.87-4.4,16.16,16.16,0,0,1,.83-4.87c.08-.23.13-.45.2-.68s.05-.22.18-.22A3.54,3.54,0,0,1,106.47,172.7Zm2.45,7.69a2.83,2.83,0,0,0,2.5,1.11,11.93,11.93,0,0,0,3.3-.49A1.29,1.29,0,0,1,115,181c.19,0,.17.18.17.34s0,.6-.14.68a16.1,16.1,0,0,1-3.38.42,4.22,4.22,0,0,1-3.16-1.11c-.07-.08-.23-.23-.23-.35s.27-.69.48-.69S108.87,180.32,108.92,180.39Zm.64-6.69a7.5,7.5,0,0,0,2,.26,10,10,0,0,0,2.32-.3.85.85,0,0,1,.25,0c.19,0,.19.3.19.48s0,.39-.06.45a13.41,13.41,0,0,1-2.56.27,9.71,9.71,0,0,1-2.44-.3c-.17-.07-.17-.24-.17-.4s0-.48.21-.48A.9.9,0,0,1,109.56,173.7Z"/><path class="cls-1" d="M121.67,182.84c0,.16-.38.66-.62.66s-.21-.11-.28-.2a7.94,7.94,0,0,0-2.25-2c-.11-.06-.23-.14-.23-.27a.87.87,0,0,1,.56-.59A8.32,8.32,0,0,1,121.67,182.84Z"/><path class="cls-1" d="M132.46,173.94a.56.56,0,0,0-.59.33c-.27.5-1.79,3.12-2.27,3.12-.18,0-.46-.24-.46-.39s.16-.27.22-.36a15.37,15.37,0,0,0,2.07-3.16,17.66,17.66,0,0,0,1-2.45c0-.1.08-.25.21-.25a1.33,1.33,0,0,1,.34.1c.31.12.58.2.58.35s-.14.16-.21.19-.23.12-.75,1.38a.58.58,0,0,0-.06.17c0,.16.13.22.28.24h6.24l1.29,0c.72,0,1,.09,1,.72s-.08,3.44-.12,4.17a27.63,27.63,0,0,1-.43,3.74c-.19,1-.32,1.56-1.24,2.05a3.91,3.91,0,0,1-1.57.27c-.8,0-1.08,0-1.08-.63,0-.15,0-.28.19-.28s.84.07,1.21.07c1,0,1.37-.36,1.58-1.32a49.89,49.89,0,0,0,.63-7.47c0-.57,0-.57-1.1-.57Zm4.92,7.35c0,.32,0,.63,0,1s0,.45-.39.45-.42-.08-.42-.33c0-.47,0-.5-.6-.5H133.5c-.4,0-.42,0-.42.72,0,.27,0,.33-.42.33s-.37-.1-.37-.46v-5.94c0-.44.17-.57.59-.57h3.92c.51,0,.6.22.6.73,0,.15,0,.33,0,.54Zm-1.21-2.82a.42.42,0,0,0,.42-.42v-.94a.42.42,0,0,0-.42-.42H133.5a.43.43,0,0,0-.42.42v.94a.43.43,0,0,0,.42.42Zm-2.67.75a.4.4,0,0,0-.42.41v1.08a.44.44,0,0,0,.42.42h2.67a.42.42,0,0,0,.42-.42v-1.08c0-.26-.15-.41-.42-.41Z"/><path class="cls-1" d="M150.45,172c0,.1-.12.15-.19.18-.27.12-.35.3-.59.72a2.13,2.13,0,0,0-.21.43.16.16,0,0,0,.17.14,16.06,16.06,0,0,0,2.52-.59l.13,0c.29,0,.32.63.32.66,0,.23-.39.29-.62.33-.94.21-1.92.36-2.89.48-.44.06-.41.15-.9.93a5.35,5.35,0,0,0-.57,1,.13.13,0,0,0,.13.13.88.88,0,0,0,.3-.1,4.61,4.61,0,0,1,2.16-.65,1.6,1.6,0,0,1,1.28.57,2.12,2.12,0,0,1,.31,1.08c0,.14,0,.35.21.35a17,17,0,0,0,2-1,1.14,1.14,0,0,1,.39-.14c.21,0,.37.5.37.68s-.24.24-.67.4c-.65.23-1.28.51-1.91.77-.24.1-.34.19-.34.48,0,.63,0,1.26,0,1.89,0,.37,0,.46-.44.46s-.4,0-.4-.33c0-.49,0-1,0-1.5,0-.16,0-.33-.24-.33a4.43,4.43,0,0,0-1,.5c-.64.37-1.44.91-1.44,1.75,0,1.29,1.64,1.47,2.6,1.47a10.75,10.75,0,0,0,2.76-.33.57.57,0,0,1,.22,0c.24,0,.23.27.23.45s0,.46-.2.51a21.57,21.57,0,0,1-2.85.21,5.58,5.58,0,0,1-2.11-.32,2.05,2.05,0,0,1-1.46-1.92c0-1.29,1.13-1.93,2.1-2.5l1.05-.57a.47.47,0,0,0,.3-.38c0-.72-.09-1.54-1-1.54a5.76,5.76,0,0,0-2.9,1.11,9.17,9.17,0,0,0-1.62,1.93c-.06.11-.13.24-.27.24s-.6-.31-.6-.52.08-.15.12-.2a33,33,0,0,0,2.82-4,.42.42,0,0,0,.09-.24c0-.12-.12-.12-.21-.12-.6,0-1.2.06-1.78.06-.14,0-.23,0-.23-.45s.06-.42.26-.42.72,0,1.12,0c1.59,0,1.47-.06,1.71-.52a8.86,8.86,0,0,0,.69-1.62c.05-.17.06-.29.2-.29A2.69,2.69,0,0,1,150.45,172Z"/><path class="cls-1" d="M162,171.92c.09,0,.21.06.21.18a.32.32,0,0,1-.11.24.68.68,0,0,0-.17.52c0,.26-.05.42-.05.59a.22.22,0,0,0,.22.25,13.22,13.22,0,0,0,1.61-.42l.12,0c.17,0,.19.47.19.59,0,.28,0,.33-1.55.61-.53.11-.63.09-.68.57,0,.3-.12,2.12-.12,2.37a1.44,1.44,0,0,0,.05.41,3,3,0,0,1,.05.58,6.36,6.36,0,0,1-.25,1.5,8.1,8.1,0,0,0-.3,1.76c0,1,1.58.93,2.26.93a8.62,8.62,0,0,0,2-.21,1.54,1.54,0,0,0,1.16-1,5.52,5.52,0,0,0,.29-1.57c0-.12,0-.2.17-.2s.75.23.75.45a5.75,5.75,0,0,1-.68,2.21c-.8,1.11-2.82,1.12-4.07,1.12s-2.73-.12-2.73-1.74a7,7,0,0,1,.17-1.17c0-.06-.05-.09-.11-.09a.6.6,0,0,0-.22.09,1.14,1.14,0,0,1-.54.14c-1,0-1.29-1.13-1.29-1.92,0-1,.47-2.3,1.64-2.3a1.56,1.56,0,0,1,.61.14h.1c.15,0,.14-.19.14-.3,0-.4,0-.79,0-1.2,0-.15,0-.27-.21-.27l-.37,0c-.32.05-1.58.23-1.82.23s-.29-.45-.29-.65.07-.21.26-.21h.07a13,13,0,0,0,2.13-.21c.33-.12.3-.36.3-1a4.45,4.45,0,0,0-.07-.89.54.54,0,0,1,0-.19.13.13,0,0,1,.13-.15C161.16,171.71,161.92,171.89,162,171.92Zm-2.8,6.76c0,.38.12,1,.61,1s1.08-.9,1.08-1.44-.33-1-.84-1C159.41,177.26,159.23,178.16,159.23,178.68Zm9.74-2.34c0,.21-.39.5-.55.5s-.22-.17-.29-.24a7.6,7.6,0,0,0-1.8-1.64c-.07,0-.19-.12-.19-.24a.83.83,0,0,1,.51-.51A7,7,0,0,1,169,176.34Z"/><path class="cls-1" d="M176.33,172.14c.13,0,.39.08.39.24s-.08.17-.14.23c-.21.22-.21.37-.27.73s-.13.8-.21,1.22a1.1,1.1,0,0,0,0,.16.23.23,0,0,0,.23.23h.1s.69-.08,1-.08c1.41,0,1.9.87,1.9,2.19a10.75,10.75,0,0,1-.84,4.52,2.77,2.77,0,0,1-2.53,1.53c-.59,0-.72-.66-.72-.84s0-.15.1-.15a6.41,6.41,0,0,0,.78.1,1.79,1.79,0,0,0,1.7-1.21,9.25,9.25,0,0,0,.69-3.53c0-1-.09-1.84-1.29-1.84-1.43,0-1.4.27-1.46.52a16.9,16.9,0,0,1-2.52,5.57,14.79,14.79,0,0,1-1,1.3.32.32,0,0,1-.22.12c-.17,0-.59-.31-.59-.49s.11-.23.2-.32a13.8,13.8,0,0,0,2.94-5,10.89,10.89,0,0,0,.34-1.23.15.15,0,0,0-.16-.15,2.61,2.61,0,0,0-.27.06,19.47,19.47,0,0,0-2.1.63.48.48,0,0,1-.17.05c-.19,0-.48-.66-.48-.84s.2-.11,1-.29,1.36-.31,2.05-.43c.44-.08.42-.24.5-.66a13,13,0,0,0,.16-1.88,1.82,1.82,0,0,0-.06-.51v-.06a.13.13,0,0,1,.14-.13A6.76,6.76,0,0,1,176.33,172.14Zm6.75,4.85c0,.16-.44.46-.65.46s-.24-.13-.3-.27a9.44,9.44,0,0,0-1.9-3,.35.35,0,0,1-.12-.23c0-.22.48-.42.6-.42C181.17,173.49,183.08,176.61,183.08,177Z"/><path class="cls-1" d="M192.12,182c0,.52.3.67.78.67a4.08,4.08,0,0,0,2.37-.87.32.32,0,0,1,.16-.09c.06,0,.14.06.14.2s-.08.79-.29.93a6.08,6.08,0,0,1-2.43.66,1.4,1.4,0,0,1-1.57-1.49,7.35,7.35,0,0,1,.12-1.14,6,6,0,0,0,.1-1.05c0-.55-.22-.82-.79-.82a3,3,0,0,0-1.88.91,33.77,33.77,0,0,0-2.66,3.15c-.16.18-.28.39-.44.39a.92.92,0,0,1-.57-.57.5.5,0,0,1,.13-.25c.46-.5.89-1,1.33-1.49,1.13-1.27,2.25-2.55,3.34-3.84.31-.39,1-1.12,1.27-1.45.09-.09.24-.24.24-.38s0-.1-.12-.1a12.31,12.31,0,0,0-1.23.31c-.29.09-2.83.69-3,.69s-.51-.69-.51-.73.15-.18.49-.23a31,31,0,0,0,5-1.09.71.71,0,0,1,.25-.06c.27,0,.72.7.72.88a.29.29,0,0,1-.16.21,9.72,9.72,0,0,0-.78.66,16.31,16.31,0,0,0-1.6,1.73l-.4.46c0,.05-.12.14-.12.2a.07.07,0,0,0,.08.07.16.16,0,0,0,.09,0,2.84,2.84,0,0,1,.72-.1,1.23,1.23,0,0,1,1.39,1.36C192.34,180.36,192.12,181.4,192.12,182Zm-1-9.56c.15.05.21.09.21.24s-.06.72-.34.72a.68.68,0,0,1-.27-.07c-.71-.3-1.42-.56-2.15-.8-.21-.06-.34-.1-.34-.28s.16-.63.39-.63S190.77,172.38,191.11,172.47Z"/><path class="cls-1" d="M205.79,173.39c0,.09-.16.18-.23.22a21,21,0,0,0-2.72,2.64c-.05.06-.25.26-.25.35a.1.1,0,0,0,.11.1,2.12,2.12,0,0,0,.31-.09,5.65,5.65,0,0,1,1.23-.13c1.84,0,3.61,1,3.61,3,0,2.41-2.25,3.75-4.43,3.75a3.35,3.35,0,0,1-2-.56,1.51,1.51,0,0,1-.68-1.21,1.54,1.54,0,0,1,1.55-1.5c.93,0,2.08.72,2.08,1.72a2,2,0,0,1-.16.63.13.13,0,0,0,.14.12,3.21,3.21,0,0,0,2.64-2.94c0-1.66-1.44-2.31-2.9-2.31a4.8,4.8,0,0,0-3.11,1.11,24.84,24.84,0,0,0-1.92,2c-.09.09-.13.18-.22.18-.29,0-.59-.42-.59-.58s.3-.41.59-.65c1.93-1.69,3.56-3.7,5.34-5.56a.36.36,0,0,0,.13-.26c0-.09-.06-.15-.17-.15a2.45,2.45,0,0,0-.37.08c-1.11.22-2.21.42-3.31.67a2.14,2.14,0,0,1-.35.06c-.31,0-.31-.46-.31-.69s.12-.39.42-.39h.38a13.85,13.85,0,0,0,3.62-.54,1.79,1.79,0,0,1,.46-.09A1.47,1.47,0,0,1,205.79,173.39Zm-3.44,7.32a.82.82,0,0,0-.84.81c0,.67,1,1,1.54,1,.33,0,.44-.45.44-.72A1.11,1.11,0,0,0,202.35,180.71Z"/><path class="cls-1" d="M218,173.07h2.3l1.71,0c.28,0,.3.15.3.41s0,.4-.29.4c-.58,0-1.16,0-1.72,0H218c-.3,0-.42.12-.42.41v1.5c0,.3.12.42.42.42h3.66c.59,0,1.15,0,1.74,0,.29,0,.32.13.32.43s0,.42-.32.42c-.59,0-1.15,0-1.74,0h-1.85c-.28,0-.4.12-.4.42v4.53c0,.32,0,.63,0,1,0,1.35-1.51,1.4-2.52,1.4-.13,0-.39,0-.48-.12a1.26,1.26,0,0,1-.15-.53.22.22,0,0,1,.24-.22h.24a3.67,3.67,0,0,0,.46,0c1.37,0,1.39-.39,1.39-1.41v-4.65c0-.3-.12-.42-.43-.42h-1.49c-.29,0-.43.11-.43.39a11.71,11.71,0,0,1-.37,3,5.33,5.33,0,0,1-2.31,3.22,5.05,5.05,0,0,1-1.45.69c-.2,0-.42-.33-.42-.51s.12-.19.24-.24c2.86-1,3.55-3.28,3.54-6.12,0-.28-.14-.39-.42-.39h-2.39l-1.74,0c-.3,0-.31-.15-.31-.42s0-.43.31-.43l1.74,0h3.68c.3,0,.42-.12.42-.42v-1.5c0-.29-.12-.41-.42-.41h-2.27c-.58,0-1.15,0-1.72,0-.29,0-.3-.16-.3-.4s0-.41.3-.41c.57,0,1.14,0,1.72,0h2.27c.3,0,.42-.12.42-.42a7,7,0,0,0-.06-1.29.36.36,0,0,1,0-.15c0-.15.12-.18.24-.18l.42,0c.33.05.61,0,.61.21s-.08.14-.21.21-.21.33-.19,1.17C217.56,173,217.68,173.07,218,173.07Zm-4.2,5.87a.31.31,0,0,0-.28.22,11.8,11.8,0,0,1-1.82,2.78.49.49,0,0,1-.39.22c-.16,0-.48-.18-.48-.36s.11-.21.18-.28a9.4,9.4,0,0,0,1.88-2.94c0-.11.09-.24.22-.24s.86.28.86.46S213.84,178.92,213.78,178.94Zm9.17,3.13c-.19,0-.28-.18-.35-.31a19.12,19.12,0,0,0-1.87-2.76.46.46,0,0,1-.15-.3c0-.18.26-.38.45-.38s.19.08.26.17a14,14,0,0,1,1,1.36,10.52,10.52,0,0,1,1.07,1.86C223.4,181.91,223.12,182.07,223,182.07Z"/><path class="cls-1" d="M232.09,175.11a.19.19,0,0,0-.17.12,6.31,6.31,0,0,1-3.32,3.06.54.54,0,0,1-.45-.46c0-.15.18-.23.41-.35a5.83,5.83,0,0,0,2.32-1.93,4.18,4.18,0,0,0,.6-1.25c0-.19-.16-.25-.33-.25h-3.54c-.3,0-.42.12-.42.42v7.2c0,.66,0,1.32,0,2,0,.36,0,.57-.45.57s-.45-.21-.45-.57c0-.63,0-1.26,0-1.89v-6.88c0-.33,0-.66,0-1,0-.53.16-.66.77-.66h4.17c.28,0,.42-.1.45-.4v-.32c0-.42-.05-1-.05-1.26s0-.27.21-.27.92,0,.92.23-.09.15-.17.19a.27.27,0,0,0-.14.26v.64a4.87,4.87,0,0,1,0,.54c0,.27.12.39.39.39h4.22c.49,0,.76.07.76.61,0,.35,0,.69,0,1V182c0,.29,0,.57,0,.86a1.17,1.17,0,0,1-.49,1.14,5.27,5.27,0,0,1-2.27.33c-.34,0-.58,0-.58-.6,0-.2.09-.24.28-.24.41,0,.83,0,1.25,0,.93,0,.94-.23.94-.93v-8.07c0-.3-.11-.42-.42-.42h-3.63c-.14,0-.28.06-.28.22a.58.58,0,0,0,0,.14,7.4,7.4,0,0,0,2.81,3c.16.11.4.21.4.39s-.21.48-.4.48a6.89,6.89,0,0,1-3.21-3A.23.23,0,0,0,232.09,175.11Zm0,4.86a.23.23,0,0,0-.21.14,5.12,5.12,0,0,1-1.75,1.8,4.31,4.31,0,0,1-1.19.48.6.6,0,0,1-.47-.48c0-.21.21-.26.47-.35a4,4,0,0,0,2.72-3.51c0-.22,0-.43,0-.64s0-.24.23-.24.89,0,.89.21-.13.16-.19.21a.25.25,0,0,0-.14.24c0,.06,0,.15,0,.21s0,.3,0,.46a1.55,1.55,0,0,0,0,.21.77.77,0,0,0,.1.42,6.11,6.11,0,0,0,2.71,2.54c.17.07.44.18.44.39s-.19.49-.4.49a6.06,6.06,0,0,1-3-2.46C232.21,180,232.17,180,232.08,180Z"/><path class="cls-1" d="M249.31,173.3c0,.13-.12.19-.21.25s-.13.26-.18.35a22.51,22.51,0,0,1-1.55,3.43.58.58,0,0,0-.12.32c0,.28.31.37,1.36,1.39.06.08.12.12.12.23s-.3.58-.52.58-.28-.15-.37-.25-.82-.93-1.12-.93-.3.13-.42.28a12.5,12.5,0,0,1-3.59,3.12,9.59,9.59,0,0,1-1.67.83c-.26,0-.51-.38-.51-.54s.22-.23.45-.33a11.79,11.79,0,0,0,4.56-3.44c.08-.12.25-.31.25-.46a.37.37,0,0,0-.17-.32,12.45,12.45,0,0,0-2.2-.87c-.15,0-.3-.09-.3-.27s.15-.55.41-.55a12.51,12.51,0,0,1,2.44.93.56.56,0,0,0,.28.1c.26,0,.35-.18.46-.37a15.74,15.74,0,0,0,1.48-3.69c0-.12,0-.26.12-.26S249.31,173,249.31,173.3Z"/><path class="cls-1" d="M261.39,173.7h1.1c.7,0,.85.16.85.73,0,.39,0,.77,0,1.16v5.08c0,.53,0,1,0,1.55,0,.33-.09.4-.54.4s-.41-.16-.41-.57-.22-.45-.64-.45h-6.42c-.42,0-.65,0-.65.45s.05.57-.4.57-.54-.07-.54-.4c0-.51,0-1,0-1.55v-5.08c0-.38,0-.75,0-1.14,0-.57.12-.75.84-.75h6.78Zm-6.31.83a.42.42,0,0,0-.42.42v5.4a.42.42,0,0,0,.42.42h7a.41.41,0,0,0,.42-.42V175a.4.4,0,0,0-.42-.42Z"/><path class="cls-1" d="M277.94,176c0,.19-.74.9-.92,1.08a29.69,29.69,0,0,1-3.54,3,23.35,23.35,0,0,1-4.38,2.49c-.37.17-.37.18-.51.47a.2.2,0,0,1-.18.1c-.15,0-.22-.18-.33-.4a3.18,3.18,0,0,1-.28-.6c0-.12.22-.17.37-.21a19.72,19.72,0,0,0,5.9-3.33,25.93,25.93,0,0,0,3.25-3.12c.05-.08.14-.17.22-.17S277.94,175.85,277.94,176Zm-9.29-3.18c.5.34,1,.69,1.47,1s.74.51.74.68-.29.58-.53.58a2.13,2.13,0,0,1-.64-.42c-.53-.4-1.05-.82-1.62-1.18-.09-.06-.2-.12-.2-.24s.26-.56.5-.56A.54.54,0,0,1,268.65,172.79Z"/><path class="cls-1" d="M290,174.3a4.83,4.83,0,0,1,1.44,3.53,5.36,5.36,0,0,1-4.31,5.2c-.22,0-.63-.45-.63-.63s.12-.15.21-.16a4.41,4.41,0,0,0,3.84-4.35,4.12,4.12,0,0,0-3.12-4.11,2.85,2.85,0,0,0-.66-.11c-.42,0-.42.38-.43.63-.11,2.25-.66,5.16-2.12,6.95a2.4,2.4,0,0,1-1.74,1,2.15,2.15,0,0,1-1.78-1.27,4.35,4.35,0,0,1-.42-2,6,6,0,0,1,6-6.12A5.09,5.09,0,0,1,290,174.3Zm-5.31-.39a5.2,5.2,0,0,0-3.57,5c0,.81.28,2.47,1.33,2.47s1.82-1.65,2.12-2.43a15.84,15.84,0,0,0,.94-4.72s0-.12,0-.17a.29.29,0,0,0-.29-.31A2.45,2.45,0,0,0,284.66,173.91Z"/><path class="cls-1" d="M297.8,173.42c.07,0,.12.07.12.15a.29.29,0,0,1-.11.21c-.18.18-.16.43-.16.79s0,.92,0,1.37a.3.3,0,0,0,.29.31c.06,0,3.13-.48,3.48-.52a.44.44,0,0,0,.36-.47v-.15a9.83,9.83,0,0,0-.24-2.5.27.27,0,0,1,0-.12c0-.09.07-.15.18-.15s1.06.07,1.06.3a.35.35,0,0,1-.06.16.91.91,0,0,0-.13.48c0,.6,0,1.2,0,1.79v.13a.28.28,0,0,0,.28.3H303c.33-.06,2.3-.35,2.51-.35s.21.26.21.41c0,.54-.15.48-.53.51-.69.07-1.38.13-2.07.22a.72.72,0,0,0-.49.17,6.08,6.08,0,0,0-.26,1.68A1.82,1.82,0,0,1,301,179.9a3.11,3.11,0,0,1-.9.13c-.37,0-.43-.42-.43-.61s.06-.27.22-.27h.29a1.15,1.15,0,0,0,1.17-.58,5.89,5.89,0,0,0,.33-1.76.29.29,0,0,0-.29-.3l-.42.06c-1,.14-1.95.32-2.91.48-.25.05-.45.12-.45.44,0,.76.06,2.43.15,3.15a1.44,1.44,0,0,0,.92,1.32,5.19,5.19,0,0,0,1.8.24,12,12,0,0,0,2.73-.32.9.9,0,0,1,.16,0c.18,0,.17.24.17.36a1,1,0,0,1-.12.56,15.28,15.28,0,0,1-2.84.24c-2.38,0-3.55-.38-3.69-3,0-.77-.06-1.53-.07-2.3,0-.21,0-.37-.3-.37s-2,.36-2.28.43a1,1,0,0,1-.3.05c-.24,0-.35-.51-.35-.71s.26-.25.63-.3c.71-.07,1.4-.21,2.1-.31.26,0,.45-.08.45-.42a23.6,23.6,0,0,0-.1-2.57.45.45,0,0,1,0-.16c0-.12.06-.17.16-.17A8.08,8.08,0,0,1,297.8,173.42Zm6.84-.87a4.54,4.54,0,0,1,.58.84c0,.18-.36.46-.55.46s-.15-.09-.21-.18a13.68,13.68,0,0,0-.93-1.23s-.11-.12-.11-.19.36-.42.53-.42S304.53,172.41,304.64,172.55Zm1.56-.84a4.28,4.28,0,0,1,.58.85c0,.17-.36.45-.55.45s-.15-.09-.21-.16a12.78,12.78,0,0,0-.93-1.23.4.4,0,0,1-.11-.2c0-.15.36-.42.51-.42S306.06,171.54,306.2,171.71Z"/><path class="cls-1" d="M310.2,174.17c.11,0,.27.09.27.21s-.09.16-.16.22a.53.53,0,0,0-.2.42,8.54,8.54,0,0,0-.09,1.34,9.88,9.88,0,0,0,.56,3.75c.24.57.91,1.66,1.62,1.66.46,0,1.05-.76,1.26-1.14.06-.12.18-.37.33-.37s.54.33.54.49-.66,1-.83,1.16a1.79,1.79,0,0,1-1.27.79c-1,0-1.83-1-2.25-1.87a10.7,10.7,0,0,1-.8-4.56c0-.3.05-2,.06-2.21a.16.16,0,0,1,.18-.13A3.88,3.88,0,0,1,310.2,174.17Zm6.71-.11a4.84,4.84,0,0,1,1.8,1.68,7.8,7.8,0,0,1,1.08,2.94c0,.09,0,.26,0,.35,0,.31-.33.36-.59.36s-.34-.17-.37-.36a5.94,5.94,0,0,0-2.13-4.2c-.12-.09-.24-.17-.24-.29A.55.55,0,0,1,316.91,174.06Z"/><path class="cls-1" d="M328.22,171.87c0,.11-.12.17-.24.24a.44.44,0,0,0-.21.32c-.18.55-.32,1.11-.47,1.65a.82.82,0,0,0-.06.25.16.16,0,0,0,.17.15,15.54,15.54,0,0,0,2.34-.72.61.61,0,0,1,.24-.06c.18,0,.16.21.16.35,0,.51,0,.55-.28.63-.86.25-1.73.43-2.61.6-.36.06-.39.18-.5.51a51.57,51.57,0,0,1-2.83,6.84c-.17.31-.29.57-.48.57s-.66-.26-.66-.48.15-.27.21-.36a35.49,35.49,0,0,0,2.95-6.59.24.24,0,0,0,0-.12.16.16,0,0,0-.16-.16c-.15,0-1.11.07-1.74.07s-.75.06-.75-.67a.18.18,0,0,1,.19-.21c.11,0,.69.07,1.28.07.37,0,.73,0,1.11,0a.52.52,0,0,0,.37-.14,11.36,11.36,0,0,0,.69-2.88c0-.15,0-.34.18-.34C327.17,171.35,328.22,171.65,328.22,171.87Zm-.36,9.75a3.7,3.7,0,0,0,2.79.83,6,6,0,0,0,2-.27.22.22,0,0,1,.12,0c.24,0,.24.41.24.57s0,.35-.18.42a10.72,10.72,0,0,1-2,.17,6.42,6.42,0,0,1-3-.56c-.21-.12-.72-.46-.72-.73s.34-.6.51-.6S327.8,181.55,327.86,181.62Zm2.1-5.17a8.46,8.46,0,0,1,2.53.37c.14.06.18.11.18.26s0,.61-.33.61a.76.76,0,0,1-.25-.06,6.53,6.53,0,0,0-2.15-.33l-.61,0c-.26,0-.3-.09-.3-.35C329,176.43,329.13,176.45,330,176.45Z"/><path class="cls-1" d="M343.5,173c0,.14-.13.17-.22.17-.36,0-.41,0-1.32.78s-1.65,1.38-2.45,2.1c-.55.51-1.06.9-1.06,1.33s.75,1.35,1.11,1.74a39.19,39.19,0,0,0,3.22,3c.32.27.6.47.6.66a.87.87,0,0,1-.7.65c-.15,0-.24-.12-.38-.29a21.87,21.87,0,0,0-1.81-1.92c-.78-.76-1.55-1.56-2.27-2.38a2.14,2.14,0,0,1-.67-1.43,1.52,1.52,0,0,1,.31-.94,18.32,18.32,0,0,1,1.77-1.61,27.63,27.63,0,0,0,2.75-2.5.26.26,0,0,1,.19-.12A2.57,2.57,0,0,1,343.5,173Z"/><path class="cls-1" d="M353,171.92c0,.1-.09.18-.2.28a12,12,0,0,0-.54,1.74.49.49,0,0,0,0,.12.15.15,0,0,0,.16.15.51.51,0,0,0,.17,0c.28-.06.88-.22,1.14-.3a.94.94,0,0,1,.16,0c.18,0,.21.51.21.63,0,.31-.13.33-1.75.61-.3.06-.45.08-.56.39a28.86,28.86,0,0,1-1.51,3.69c-.3.65-.69,1.41-1,2a.26.26,0,0,1-.24.16c-.17,0-.66-.22-.66-.43a1.26,1.26,0,0,1,.22-.47,25.92,25.92,0,0,0,2.07-4.11,7,7,0,0,0,.29-.84.16.16,0,0,0-.17-.15s-1.59.18-1.93.18h-.2c-.31,0-.34-.45-.34-.69s.13-.19.3-.19a12,12,0,0,0,2.61-.23c.18-.12.21-.33.3-.69a7.65,7.65,0,0,0,.33-2.07c0-.13,0-.24.16-.24S353,171.71,353,171.92Zm2.41,4.21s0,.45,0,.86c0,.61.1,2.94.19,3.45.06.28.29.33.53.4s2.23,1,2.23,1.31-.28.55-.51.55a.6.6,0,0,1-.34-.18,6,6,0,0,0-1.68-.91c-.15,0-.14.16-.14.25a1.66,1.66,0,0,1-1.84,1.86c-1,0-2.36-.58-2.36-1.75s1.22-1.53,2.21-1.53a7.75,7.75,0,0,1,.84,0h.07a.16.16,0,0,0,.17-.18c0-.4-.27-3.7-.32-4.09,0-.05,0-.09,0-.14s.12-.19.24-.19S355.41,175.92,355.41,176.13ZM352.23,182c0,.68,1,1,1.55,1,.75,0,1.06-.43,1.06-1.15,0-.47-.06-.6-1.09-.6C353.25,181.19,352.23,181.26,352.23,182Zm6.66-5.74c0,.22-.42.49-.6.49a.23.23,0,0,1-.21-.13,7.37,7.37,0,0,0-1.78-1.83c-.08-.06-.2-.15-.2-.26a.86.86,0,0,1,.56-.52A7,7,0,0,1,358.89,176.21Z"/><path class="cls-1" d="M362.87,180.12c-.27,0-.41.11-.41.39v.72c0,.32-.09.39-.4.39s-.42-.13-.42-.43,0-.77,0-1.16V174.5c0-.35,0-.68,0-1s.05-.71.56-.71h2.47c.5,0,.57.24.57.68,0,.28,0,.55,0,.82v5c0,.39,0,.8,0,1.2s-.09.38-.4.38-.41-.12-.42-.45-.09-.29-.3-.29Zm0-6.6a.43.43,0,0,0-.42.42v5a.43.43,0,0,0,.42.42H364a.39.39,0,0,0,.4-.42v-5a.38.38,0,0,0-.4-.42Zm7.2,5.45c-.08,0-.11.06-.11.13v2.52c0,.69,0,1.37,0,2.06,0,.34,0,.58-.42.58s-.45-.22-.45-.57c0-.69.05-1.38.05-2.07v-2.49c0-.06,0-.15-.12-.15s-.08,0-.11.08a19,19,0,0,1-3.63,3.81c-.12.09-.34.28-.49.28a.55.55,0,0,1-.44-.46c0-.17.24-.33.36-.42a18.87,18.87,0,0,0,4-4.07.25.25,0,0,0,.06-.15c0-.13-.12-.18-.24-.18h-.8l-1.75,0c-.27,0-.29-.15-.29-.4s0-.41.29-.41l1.75,0h1c.3,0,.42-.12.42-.42V175c0-.28-.12-.4-.42-.4H368c-.53,0-1.05,0-1.58,0-.27,0-.28-.17-.28-.41s0-.4.28-.4c.53,0,1.05,0,1.58,0h.75c.3,0,.42-.12.42-.42v-.48a9.5,9.5,0,0,0-.06-1.58.41.41,0,0,1,0-.15c0-.16.09-.19.23-.19a3.75,3.75,0,0,1,.48,0c.42,0,.57.07.57.21s-.09.13-.21.21-.2.36-.2.61v1.34c0,.3.12.42.42.42h1.22l1.56,0c.28,0,.3.16.3.4s0,.41-.3.41l-1.56,0h-1.22c-.3,0-.42.12-.42.4v1.74c0,.3.12.42.42.42h1.77c.59,0,1.16,0,1.74,0,.27,0,.3.12.3.41s0,.4-.3.4c-.57,0-1.15,0-1.74,0h-1.59c-.13,0-.25,0-.25.2s0,.09,0,.15a16.18,16.18,0,0,0,3.78,4.09c.09.09.24.2.24.33a.57.57,0,0,1-.43.47c-.29,0-1.23-.92-1.47-1.16a15.41,15.41,0,0,1-2.3-2.92A.15.15,0,0,0,370.07,179Z"/><path class="cls-1" d="M380.66,171.75c.1,0,.33.06.33.21s-.14.23-.2.32a7.24,7.24,0,0,0-.27,1.89s0,.12.08.12l.12,0a.15.15,0,0,1,.09,0c.16,0,.6.72.6.86s-.14.21-.21.28a4.51,4.51,0,0,0-.81,1.38c0,.39,0,.51.09.51a.21.21,0,0,0,.12-.07A7.05,7.05,0,0,1,385,175a3.23,3.23,0,0,1,2.27,1,3.35,3.35,0,0,1,.93,2.38,4.59,4.59,0,0,1-2.73,3.92,9.52,9.52,0,0,1-1.85.72c-.21,0-.54-.5-.54-.69s.11-.2.24-.23c1.83-.36,4-1.53,4-3.64a2.51,2.51,0,0,0-2.4-2.66c-1.56,0-3.19,1.25-4.27,2.27a.76.76,0,0,0-.26.69v.39c0,.91,0,1.84.06,2.77,0,.27.08,1.37.08,1.55s-.18.27-.56.27-.43-.08-.43-.33c0-1.25,0-2.49,0-3.74v-.3c0-.09,0-.21-.09-.21a.3.3,0,0,0-.2.12c-.31.36-1.6,1.95-1.83,2.3a.25.25,0,0,1-.21.16c-.18,0-.61-.39-.61-.6a.59.59,0,0,1,.16-.3,19.23,19.23,0,0,0,1.91-2.23,9.47,9.47,0,0,0,.82-1.4,5.2,5.2,0,0,0,.11-1.33c0-.23-.12-.36-.27-.36s-1.43.31-1.67.37a1.68,1.68,0,0,1-.36.08c-.31,0-.43-.75-.43-.84s.16-.17.45-.17a9,9,0,0,0,1.78-.21c.2,0,.44-.07.53-.3s.1-1.87.1-2.17,0-.44,0-.54,0-.17.14-.17S380.51,171.72,380.66,171.75Z"/><path class="cls-1" d="M392.42,174.17c.1,0,.27.09.27.21s-.09.16-.17.22-.16.23-.19.42a7.48,7.48,0,0,0-.09,1.34,9.87,9.87,0,0,0,.55,3.75c.24.57.92,1.66,1.62,1.66.47,0,1-.76,1.26-1.14.06-.12.18-.37.33-.37s.54.33.54.49-.66,1-.82,1.16a1.83,1.83,0,0,1-1.28.79c-1,0-1.83-1-2.25-1.87a10.69,10.69,0,0,1-.79-4.56c0-.3,0-2,.06-2.21s.09-.13.18-.13A3.88,3.88,0,0,1,392.42,174.17Zm6.7-.11a4.76,4.76,0,0,1,1.8,1.68,7.63,7.63,0,0,1,1.08,2.94,2.07,2.07,0,0,1,0,.35c0,.31-.33.36-.58.36s-.35-.17-.38-.36a5.94,5.94,0,0,0-2.13-4.2c-.12-.09-.24-.17-.24-.29A.56.56,0,0,1,399.12,174.06Z"/><path class="cls-1" d="M410.67,172c0,.1-.12.15-.19.18-.27.12-.35.3-.59.72a2.13,2.13,0,0,0-.21.43.16.16,0,0,0,.17.14,16.06,16.06,0,0,0,2.52-.59l.13,0c.29,0,.32.63.32.66,0,.23-.39.29-.62.33-.94.21-1.92.36-2.89.48-.44.06-.41.15-.9.93a5.35,5.35,0,0,0-.57,1,.13.13,0,0,0,.13.13.88.88,0,0,0,.3-.1,4.61,4.61,0,0,1,2.16-.65,1.6,1.6,0,0,1,1.28.57,2.12,2.12,0,0,1,.31,1.08c0,.14,0,.35.21.35a17,17,0,0,0,2-1,1.14,1.14,0,0,1,.39-.14c.21,0,.37.5.37.68s-.24.24-.67.4c-.65.23-1.28.51-1.91.77-.24.1-.34.19-.34.48,0,.63,0,1.26,0,1.89,0,.37-.05.46-.44.46s-.4,0-.4-.33c0-.49,0-1,0-1.5,0-.16,0-.33-.24-.33a4.43,4.43,0,0,0-1,.5c-.64.37-1.44.91-1.44,1.75,0,1.29,1.64,1.47,2.6,1.47a10.75,10.75,0,0,0,2.76-.33.57.57,0,0,1,.22,0c.24,0,.23.27.23.45s0,.46-.2.51a21.57,21.57,0,0,1-2.85.21,5.58,5.58,0,0,1-2.11-.32,2.05,2.05,0,0,1-1.46-1.92c0-1.29,1.13-1.93,2.1-2.5l1.05-.57a.47.47,0,0,0,.3-.38c0-.72-.09-1.54-1-1.54a5.76,5.76,0,0,0-2.9,1.11,9.17,9.17,0,0,0-1.62,1.93c-.06.11-.13.24-.27.24s-.6-.31-.6-.52.08-.15.12-.2a33,33,0,0,0,2.82-4,.42.42,0,0,0,.09-.24c0-.12-.12-.12-.21-.12-.6,0-1.2.06-1.78.06-.14,0-.23,0-.23-.45s.06-.42.26-.42.72,0,1.12,0c1.59,0,1.47-.06,1.71-.52a8.86,8.86,0,0,0,.69-1.62c.05-.17.06-.29.2-.29A2.69,2.69,0,0,1,410.67,172Z"/><path class="cls-1" d="M422.57,180.26v2c0,.19.07.34.28.34H423a23.67,23.67,0,0,0,2.38-.6,1,1,0,0,1,.17,0c.22,0,.28.24.28.42s-.13.32-.39.39a53.1,53.1,0,0,1-5.26,1.16c-.44.07-.42.09-.5.28a.15.15,0,0,1-.16.12c-.12,0-.15-.1-.24-.33a5.74,5.74,0,0,1-.2-.58c0-.12.09-.15.2-.15a21.3,21.3,0,0,0,2.16-.38c.28-.06.37-.19.37-.48v-1.53c0-.1-.06-.24-.19-.24a.3.3,0,0,0-.15.05,16.13,16.13,0,0,1-3,1.45,1.81,1.81,0,0,1-.49.14c-.2,0-.32-.29-.32-.45s.18-.26.33-.32a13.41,13.41,0,0,0,5.4-3.25.28.28,0,0,0,.06-.15c0-.12-.1-.15-.19-.17h-3.47c-.58,0-1.15,0-1.74,0-.27,0-.28-.17-.28-.41s0-.4.28-.4c.59,0,1.16,0,1.74,0h3.69c.29,0,.41-.12.41-.42v-.68c0-.28-.12-.4-.41-.4h-2.07c-.51,0-1,0-1.51,0-.29,0-.3-.18-.3-.41s0-.4.3-.4c.49,0,1,0,1.51,0h2.07c.29,0,.41-.12.41-.41V174c0-.3-.12-.39-.41-.42h-2.88c-.57,0-1.12,0-1.68,0-.27,0-.28-.17-.28-.41s0-.4.3-.4l1.66,0h2.87c.3,0,.42-.12.42-.42a7.61,7.61,0,0,0-.06-1c0-.05,0-.09,0-.14s.11-.19.24-.19a3,3,0,0,1,.42,0c.33,0,.62,0,.62.21s-.09.13-.21.21-.21.28-.2.85c0,.29.14.41.42.41h2.82c.56,0,1.11,0,1.65,0,.29,0,.32.12.32.4s0,.41-.3.41c-.56,0-1.11,0-1.67,0H425c-.29,0-.41.12-.41.42v.54c0,.29.12.41.41.41h2c.51,0,1,0,1.51,0,.27,0,.3.15.3.4s0,.41-.28.41l-1.53,0h-2c-.29,0-.41.12-.41.4v.68c0,.3.12.42.41.42h3.61l1.73,0c.28,0,.3.15.3.4s0,.41-.3.41c-.57,0-1.16,0-1.73,0h-3.12c-.16,0-.31.08-.31.27a.45.45,0,0,0,0,.12,7.64,7.64,0,0,0,.95,1.92.34.34,0,0,0,.31.2.41.41,0,0,0,.24-.08,16.06,16.06,0,0,0,2.25-1.68s.11-.1.17-.1.61.66.61.78a.13.13,0,0,1-.12.13l-.13,0a.66.66,0,0,0-.15,0,.22.22,0,0,0-.14,0,18.4,18.4,0,0,1-2,1.44.34.34,0,0,0-.18.27.3.3,0,0,0,.1.22,9,9,0,0,0,3.11,2.07c.18.08.4.14.4.33s-.16.5-.36.5a8.92,8.92,0,0,1-5.73-5.87.21.21,0,0,0-.37-.07c-.36.39-.9.91-1.31,1.27A.66.66,0,0,0,422.57,180.26Z"/><path class="cls-1" d="M2.26,206.47v-2.61c0-.28-.12-.4-.42-.4H.67c-.26,0-.26-.19-.26-.4s0-.39.26-.39.7,0,1.07,0h.1c.3,0,.42-.12.42-.42v-2.18c0-.3-.12-.42-.42-.42H1.72c-.4,0-.8,0-1.22,0s-.28-.19-.28-.4,0-.41.28-.41.82,0,1.22,0H3.79c.42,0,.83,0,1.23,0s.29.2.29.42,0,.39-.29.39-.81,0-1.23,0H3.48c-.3,0-.42.12-.42.42v2.18c0,.3.12.42.42.42s.85,0,1.11,0,.27.19.27.4,0,.39-.27.39-.71,0-1.11,0-.42.12-.42.4v2.39c0,.18.07.33.27.33l.12,0c.45-.13.84-.25,1.27-.42a1.08,1.08,0,0,1,.29-.09c.22,0,.3.26.3.44s-.12.28-.33.36c-1.27.45-2.58.79-3.9,1.12-.41.11-.37.12-.45.32s-.06.13-.15.13-.48-.88-.48-.91.11-.14.2-.15c.47-.08,1.21-.24,1.69-.38C2.19,206.89,2.26,206.77,2.26,206.47Zm5.6.6a5.54,5.54,0,0,1-2.73,3.39,5.89,5.89,0,0,1-1.95.68c-.29,0-.48-.39-.48-.56s.21-.21.66-.3a4.8,4.8,0,0,0,2.85-1.68,4.09,4.09,0,0,0,.9-1.93c0-.15,0-.36.21-.36a2.84,2.84,0,0,1,.45.1c.34.11.49.17.49.27s-.16.15-.24.18A.24.24,0,0,0,7.86,207.07Zm1.41-.52c0-.3-.12-.42-.42-.42H6.46c-.46,0-.66-.1-.66-.6v-6.6c0-.48.16-.61.63-.61h5.19c.44,0,.68.07.68.55,0,.3,0,.62,0,.92v4.87c0,1.1.14,1.47-.61,1.47H10.48c-.3,0-.42.12-.42.42v2.85c0,.57.24.58.74.58h.85c.6,0,.75-.07.9-1.21,0-.32.14-.39.3-.39s.51.06.51.31a5.37,5.37,0,0,1-.43,1.58c-.32.48-.74.46-1.25.46H10.53c-.75,0-1.28-.15-1.28-1,0-.21,0-.41,0-.62Zm1.81-5.9a.42.42,0,0,0,.42-.4v-.77a.41.41,0,0,0-.42-.4H7a.41.41,0,0,0-.42.4v.75a.41.41,0,0,0,.42.42ZM7,201.4a.41.41,0,0,0-.42.41v.75A.41.41,0,0,0,7,203h4.06c.26,0,.38-.13.42-.4v-.75a.41.41,0,0,0-.42-.41Zm0,2.31a.41.41,0,0,0-.42.41V205a.41.41,0,0,0,.42.41h4.06a.42.42,0,0,0,.42-.41v-.84a.41.41,0,0,0-.42-.42Z"/><path class="cls-1" d="M18.92,199.36c.12,0,.25.09.25.24s-.08.17-.15.24a1.2,1.2,0,0,0-.3.86,41.46,41.46,0,0,0-.29,5.11c0,1.46.09,3.41,2,3.41a4.31,4.31,0,0,0,3.24-1.65,4.35,4.35,0,0,0,.9-2.25c0-.14,0-.42.21-.42a.9.9,0,0,1,.69.75,5,5,0,0,1-.56,1.63,5.19,5.19,0,0,1-4.39,2.81A2.82,2.82,0,0,1,18.2,209a5.33,5.33,0,0,1-.66-3.08c0-1.11,0-2.52.13-3.61,0-.59.2-2.15.2-2.61v-.29c0-.13,0-.28.19-.28A4.34,4.34,0,0,1,18.92,199.36Z"/><path class="cls-1" d="M33.88,198.67c0,.11-.12.17-.24.24a.51.51,0,0,0-.21.32c-.18.55-.31,1.11-.46,1.65a.82.82,0,0,0-.06.25.16.16,0,0,0,.17.15,15.9,15.9,0,0,0,2.34-.72.56.56,0,0,1,.23-.06c.18,0,.17.21.17.35,0,.51,0,.55-.28.63-.86.25-1.73.43-2.62.6-.36.06-.38.18-.49.51a51.62,51.62,0,0,1-2.84,6.84c-.16.31-.28.57-.47.57s-.66-.26-.66-.48.15-.27.21-.36a35.49,35.49,0,0,0,2.95-6.59.42.42,0,0,0,0-.12.16.16,0,0,0-.16-.16c-.16,0-1.11.07-1.74.07s-.75.06-.75-.67c0-.12.05-.21.19-.21s.69.07,1.27.07c.38,0,.74,0,1.12,0a.54.54,0,0,0,.37-.14,12.27,12.27,0,0,0,.69-2.88c0-.15,0-.34.18-.34C32.83,198.15,33.88,198.45,33.88,198.67Zm-.36,9.75a3.7,3.7,0,0,0,2.79.83,6,6,0,0,0,2-.27.25.25,0,0,1,.13,0c.23,0,.23.41.23.57s0,.35-.18.42a10.54,10.54,0,0,1-2,.17,6.46,6.46,0,0,1-3-.56c-.21-.12-.71-.46-.71-.73s.34-.6.5-.6S33.46,208.35,33.52,208.42Zm2.1-5.17a8.53,8.53,0,0,1,2.54.37c.13.06.18.11.18.26s0,.61-.33.61a.82.82,0,0,1-.26-.06,6.43,6.43,0,0,0-2.14-.33l-.61,0c-.26,0-.31-.09-.31-.35C34.69,203.23,34.8,203.25,35.62,203.25Z"/><path class="cls-1" d="M45,200.17c.12,0,.26.05.26.18s-.05.12-.12.2a.58.58,0,0,0-.09.39,25.82,25.82,0,0,1-.11,2.92,8,8,0,0,1-2.67,5.39.26.26,0,0,1-.18.09c-.16,0-.75-.24-.75-.45s.18-.23.3-.32c2.18-1.71,2.55-4.15,2.55-6.73a9.72,9.72,0,0,0-.07-1.43s0-.13,0-.18a.15.15,0,0,1,.17-.16A5.58,5.58,0,0,1,45,200.17Zm3.45,7.5c0,.11,0,.29.15.29a.87.87,0,0,0,.42-.23,41.11,41.11,0,0,0,4.16-3.4c.06-.06.16-.18.25-.18s.45.39.45.57-.22.31-.31.39A55.78,55.78,0,0,1,49,208.75c-.06.05-.13.09-.18.14a.51.51,0,0,1-.34.19,2.09,2.09,0,0,1-.66-.27c-.2-.12-.32-.16-.32-.37s.06-.92.06-1.8v-4.56a14.36,14.36,0,0,0-.06-2,1.66,1.66,0,0,1,0-.22.14.14,0,0,1,.15-.15,4.83,4.83,0,0,1,.84.18c.09,0,.18.06.18.18s0,.12-.1.18-.11.42-.11.94Z"/><path class="cls-1" d="M63.23,200.73a7.93,7.93,0,0,0,1.3-.06.52.52,0,0,1,.18,0c.18,0,.57.63.57.78a.49.49,0,0,1-.12.25,3.07,3.07,0,0,0-.42.75,24,24,0,0,1-1.5,2.84.5.5,0,0,0-.12.31.38.38,0,0,0,.18.33c.47.33,1,.69,1,.9s-.27.62-.47.62a.35.35,0,0,1-.22-.12c-.24-.2-.5-.38-.74-.56a.52.52,0,0,0-.34-.16c-.24,0-.35.16-.5.34a12,12,0,0,1-3.37,2.7,11.53,11.53,0,0,1-1.82.83.92.92,0,0,1-.63-.65c0-.15.21-.19.51-.3a10.72,10.72,0,0,0,4.62-3,.65.65,0,0,0,.21-.42.44.44,0,0,0-.25-.39,17.73,17.73,0,0,0-1.91-1.05c-.07,0-.25-.12-.25-.23s.27-.6.48-.6a13.75,13.75,0,0,1,2.08,1.07,1.06,1.06,0,0,0,.45.19c.29,0,.38-.22.51-.45a13.76,13.76,0,0,0,1.26-2.73c0-.36-.45-.31-.69-.31H59.42c-.24,0-.35.19-.48.37a22,22,0,0,1-2.09,2.55.47.47,0,0,1-.31.14c-.21,0-.66-.24-.66-.45s.1-.18.16-.23a14.57,14.57,0,0,0,3.78-5.31c0-.09.11-.36.24-.36a4.4,4.4,0,0,1,.8.45c.1.06.16.09.16.2s-.21.21-.3.24-.16.21-.24.34c-.15.29-.31.56-.48.84a.34.34,0,0,0-.06.2.22.22,0,0,0,.24.21Z"/><path class="cls-1" d="M74.3,202a.43.43,0,0,0,.42-.43l0-.81a15.36,15.36,0,0,0-.1-1.94c0-.06,0-.15,0-.19s.08-.17.18-.17a4.83,4.83,0,0,1,.92.18.22.22,0,0,1,.13.2c0,.09-.07.13-.13.21s-.14.28-.14.52,0,.77,0,1.16l0,.84a.42.42,0,0,0,.48.42l1.12,0c.48,0,1.53-.07,1.8-.07s.33.12.33.46-.06.44-.39.44l-.91,0h-.81l-1.17,0a.41.41,0,0,0-.42.42l.07,4c0,.13,0,.34,0,.52a3.24,3.24,0,0,1-.32,1.67c-.43.6-1.5.67-2.19.67a.29.29,0,0,1-.34-.24,1.3,1.3,0,0,1-.11-.43c0-.17.11-.2.26-.2,1.63,0,1.83-.1,1.83-1.41v-.46l-.08-3.81a.16.16,0,0,0-.16-.17c-.09,0-.15.08-.21.15a20.29,20.29,0,0,1-4.32,4.31,5.58,5.58,0,0,1-1.25.76.68.68,0,0,1-.49-.54c0-.15.28-.28.43-.37a18.11,18.11,0,0,0,4.91-4.53.23.23,0,0,0,.07-.15c0-.21-.22-.17-.24-.17l-3,0c-.5,0-1.58.06-1.82.06s-.31-.18-.31-.47,0-.42.36-.42l.93,0,.82,0Z"/><path class="cls-1" d="M91.64,201.1a4.83,4.83,0,0,1,1.44,3.53,5.36,5.36,0,0,1-4.31,5.2c-.22,0-.63-.45-.63-.63s.12-.15.21-.16a4.41,4.41,0,0,0,3.84-4.35,4.12,4.12,0,0,0-3.12-4.11,2.85,2.85,0,0,0-.66-.11c-.42,0-.42.38-.43.63-.11,2.25-.66,5.16-2.12,7a2.4,2.4,0,0,1-1.74,1,2.15,2.15,0,0,1-1.78-1.27,4.35,4.35,0,0,1-.42-2,6,6,0,0,1,6-6.12A5.09,5.09,0,0,1,91.64,201.1Zm-5.31-.39a5.2,5.2,0,0,0-3.57,5c0,.81.28,2.47,1.33,2.47s1.82-1.65,2.12-2.43a15.84,15.84,0,0,0,.94-4.72c0-.05,0-.12,0-.17a.29.29,0,0,0-.29-.31A2.45,2.45,0,0,0,86.33,200.71Z"/><path class="cls-1" d="M102.18,209.71a1,1,0,0,0-.33.09,16.25,16.25,0,0,1-3.67,1.07c-.47.07-1.7.25-2.12.25a.45.45,0,0,1-.48-.51c0-.3.29-.28.57-.3a16.06,16.06,0,0,0,4.88-1,.23.23,0,0,0,.15-.19.21.21,0,0,0-.11-.2,6.62,6.62,0,0,1-1.38-1.27.37.37,0,0,0-.31-.18.56.56,0,0,0-.26.07,12.58,12.58,0,0,1-2.43,1.08,1.7,1.7,0,0,1-.39.09c-.24,0-.37-.28-.37-.43s.25-.3.52-.39a11.41,11.41,0,0,0,3.84-2.09.13.13,0,0,0,.06-.13c0-.11-.1-.15-.19-.15H98.85c-.49,0-.69-.12-.69-.63,0-.27,0-.54,0-.81v-2.49c0-.25,0-.51,0-.76,0-.53.15-.66.66-.66h1.68a.47.47,0,0,0,.51-.31l.18-.44a.3.3,0,0,0,0-.13c0-.18-.15-.24-.3-.26H97.52c-.57,0-1.16.05-1.74.05-.27,0-.29-.17-.29-.41s0-.4.29-.4l1.74,0h9l1.73,0c.28,0,.29.13.29.4s0,.41-.29.41c-.57,0-1.16-.05-1.73-.05H102.5a.43.43,0,0,0-.47.33c-.06.15-.1.29-.16.44a.23.23,0,0,0,0,.12c0,.18.14.24.29.25h3c.5,0,.69.1.69.61,0,.27,0,.54,0,.81v2.49c0,.27,0,.53,0,.78,0,.51-.15.66-.66.66h-4s-.08,0-.08.06,0,0,0,.06c.23.15.36.22.36.34a.12.12,0,0,1-.12.12h-.18c-.15,0-.3.16-.51.36,0,0,0,0,0,.09s0,.09.12.09h2.66l1.12,0a.61.61,0,0,1,.6.65c0,.49-1.33,1.44-1.74,1.71a.23.23,0,0,0-.12.18.2.2,0,0,0,.14.19,12.05,12.05,0,0,0,4.69,1h.17c.15,0,.29,0,.29.36s-.17.45-.5.45a14.45,14.45,0,0,1-1.74-.18,14.12,14.12,0,0,1-3.81-1.16A.76.76,0,0,0,102.18,209.71Zm2.9-8.52a.28.28,0,0,0-.3-.3H99.23a.28.28,0,0,0-.3.3v.24a.28.28,0,0,0,.3.3h5.55a.28.28,0,0,0,.3-.3Zm-5.85,1.23a.3.3,0,0,0-.3.32V203a.3.3,0,0,0,.3.32h5.55a.3.3,0,0,0,.3-.32v-.22a.3.3,0,0,0-.3-.32Zm0,1.55a.29.29,0,0,0-.3.31v.24a.3.3,0,0,0,.3.32h5.55a.3.3,0,0,0,.3-.32v-.24a.29.29,0,0,0-.3-.31Zm1.57,3.42c-.09,0-.19,0-.19.15a.14.14,0,0,0,.06.13,8.66,8.66,0,0,0,1.24.92.67.67,0,0,0,.33.1.59.59,0,0,0,.33-.1c.24-.14,1.43-.84,1.43-1.07s-.21-.13-.39-.13Z"/><path class="cls-1" d="M120.69,201.1a4.79,4.79,0,0,1,1.44,3.53,5.37,5.37,0,0,1-4.3,5.2c-.23,0-.63-.45-.63-.63s.12-.15.21-.16a4.41,4.41,0,0,0,3.84-4.35,4.12,4.12,0,0,0-3.13-4.11,2.76,2.76,0,0,0-.65-.11c-.42,0-.42.38-.44.63-.1,2.25-.66,5.16-2.11,7a2.42,2.42,0,0,1-1.74,1,2.16,2.16,0,0,1-1.79-1.27,4.48,4.48,0,0,1-.42-2,6,6,0,0,1,6-6.12A5,5,0,0,1,120.69,201.1Zm-5.31-.39a5.21,5.21,0,0,0-3.57,5c0,.81.29,2.47,1.34,2.47s1.81-1.65,2.11-2.43a15.85,15.85,0,0,0,.95-4.72c0-.05,0-.12,0-.17a.29.29,0,0,0-.28-.31A2.68,2.68,0,0,0,115.38,200.71Z"/><path class="cls-1" d="M127.08,201.84c0,3.25.08,6.24-2.16,8.89-.07.09-.18.24-.31.24a.69.69,0,0,1-.44-.49c0-.08.11-.2.17-.26a8.11,8.11,0,0,0,1.63-3.36,20.58,20.58,0,0,0,.32-4.84v-1.79c0-.39,0-.78,0-1.18s.21-.63.78-.63h7.4c.73,0,1.08.09,1.08.78,0,.34,0,.69,0,1v3.53a20.34,20.34,0,0,0,.61,5.7c0,.16.23.78.42.78.46,0,.62-1.34.65-1.67s0-.58.3-.58.5.09.5.37a6.27,6.27,0,0,1-.24,1.35c-.2.62-.5,1.29-1.25,1.29s-.85-.49-1-1a20,20,0,0,1-.75-5.77V199.6c0-.3-.11-.42-.42-.42H127.5c-.3,0-.42.12-.42.42Zm4.17,6.42c0,.21.08.37.32.37h.07c.32,0,.63-.07.94-.12a.22.22,0,0,0,.23-.22.37.37,0,0,0,0-.14,3.47,3.47,0,0,1-.32-.64c0-.2.29-.35.47-.35s.4.39.88,1.32a9.69,9.69,0,0,1,.74,1.59c0,.21-.29.33-.47.33s-.3-.3-.63-1a.4.4,0,0,0-.39-.25H133c-1.67.22-3.34.45-5,.61-.1,0-.1,0-.18.18s-.09.15-.18.15-.39-.87-.39-.91.11-.15.36-.17l.42,0c.69-.06,1.4-.12,2.09-.21a.39.39,0,0,0,.39-.45V207c0-.28-.13-.4-.42-.4h-.32c-.55,0-.55,0-.55.4s-.06.27-.42.27-.38,0-.38-.34v-3.56c0-.42.2-.54.6-.54h1.08c.28,0,.41-.1.41-.4v-.71c0-.27-.13-.36-.39-.36s-1.11.14-1.45.14c-.19,0-.44,0-.44-.51,0-.32.24-.3.55-.32a15.43,15.43,0,0,0,3.89-.57,1.21,1.21,0,0,1,.31-.09c.11,0,.15.08.3.24s.35.35.35.51a.12.12,0,0,1-.12.12.77.77,0,0,1-.23-.06l-.13,0c-.06,0-1.28.27-1.48.32s-.37.19-.37.49v.83c0,.28.12.4.42.4h1.11c.39,0,.6.12.6.53,0,.15,0,.3,0,.43v1.89c0,.14,0,.26,0,.39,0,.41-.22.53-.6.53h-1.11c-.3,0-.42.12-.42.4Zm-1.72-4.64a.35.35,0,0,0-.36.36v1.55a.35.35,0,0,0,.36.36h.57a.35.35,0,0,0,.36-.36V204a.35.35,0,0,0-.36-.36Zm1.72,1.86a.41.41,0,0,0,.41.41h.51a.4.4,0,0,0,.4-.41V204a.41.41,0,0,0-.4-.42h-.51a.41.41,0,0,0-.41.41Z"/><path class="cls-1" d="M142,200a17.84,17.84,0,0,0-.06-1.8c0-.05,0-.11,0-.15s.11-.2.24-.2l.42,0c.35,0,.62,0,.62.21s-.08.14-.21.21-.2.45-.2,1.7v.85c0,.3.12.42.42.42s.86,0,1.22,0,.3.14.3.41-.05.4-.3.4-.8,0-1.22,0-.42.12-.42.42v2.19c0,.15.06.3.26.3a.31.31,0,0,0,.13,0c.45-.19,1-.51,1.14-.51s.33.27.33.47.06.22-1.5.84a.5.5,0,0,0-.36.55v2.37c0,.69,0,1.38,0,2.07,0,.35,0,.57-.44.57s-.43-.22-.43-.55c0-.69,0-1.4,0-2.09v-2c0-.15-.06-.3-.24-.3h-.14l-1.21.44c-.26.09-.35.15-.39.33a.15.15,0,0,1-.15.13c-.2,0-.51-.82-.51-.88s.09-.14.18-.15a21.18,21.18,0,0,0,2.1-.66c.3-.12.36-.24.36-.56v-2.49c0-.3-.12-.42-.42-.42H141a.43.43,0,0,0-.5.38c-.3,1.26-.4,1.42-.66,1.42s-.48,0-.48-.25a2,2,0,0,1,.11-.38,14.22,14.22,0,0,0,.67-3.78v-.12a.2.2,0,0,1,.21-.21l.27,0c.23,0,.63.05.63.2s-.06.13-.13.16-.18.21-.21.53-.05.49-.12.93V201c0,.2.13.27.31.27h.59c.25,0,.36-.1.36-.36Zm5.32,2.16c0-.23-.16-.3-.34-.3h-.27c-.29,0-.38,0-.51.3-.32.6-.62,1.2-1,1.77-.09.13-.21.33-.39.33s-.5-.17-.5-.35.08-.16.11-.22a13.53,13.53,0,0,0,2.26-5.31c0-.18.05-.39.23-.39s.91.21.91.37-.1.15-.18.18-.21.2-.27.44c-.15.6-.36,1.18-.57,1.77a.24.24,0,0,0,0,.12c0,.18.15.25.3.25h3.39c.35,0,.68,0,1,0s.71.18.71.66c0,1-.09,3.09-.19,4.1a25.49,25.49,0,0,1-.59,3.87c-.38,1.41-1.4,1.47-2.75,1.47-.55,0-.87.06-.87-.63,0-.18.09-.24.27-.24s.62,0,.92,0c1,0,1.47-.1,1.71-1.08a19.55,19.55,0,0,0,.47-3c.08-.93.21-3,.21-3.9,0-.57,0-.57-.73-.55a.34.34,0,0,0-.39.33,11.13,11.13,0,0,1-3.48,7.41,5.36,5.36,0,0,1-1.66,1.06.53.53,0,0,1-.47-.48c0-.16.14-.21.41-.37a8.32,8.32,0,0,0,3.13-3.26,11,11,0,0,0,1.29-4.29c0-.28-.1-.4-.39-.4h-.51c-.3,0-.42.09-.48.39a10.89,10.89,0,0,1-3.45,5.92c-.18.17-.42.42-.67.42s-.42-.3-.42-.49.16-.26.31-.36a9.49,9.49,0,0,0,3.45-5.49Z"/><path class="cls-1" d="M155.81,201.19l-1,0c-.26,0-.26-.21-.26-.41s0-.39.26-.39.64,0,1,0h2.71c.35,0,.77,0,1,0s.27.2.27.41,0,.39-.27.39l-1,0Zm2.26,9H156.5c-.18,0-.29.07-.3.28a2.17,2.17,0,0,1,0,.26c0,.27-.09.34-.42.34s-.4-.12-.4-.4,0-.5,0-.74v-3c0-.4.12-.61.56-.61h2.64c.42,0,.57.16.57.58V210c0,.27,0,.54,0,.81s-.1.33-.42.33-.4-.07-.4-.34c0-.09,0-.17,0-.24S158.27,210.21,158.07,210.21Zm-1.62-7c-.3,0-.63,0-.79,0s-.26-.23-.26-.42,0-.38.26-.38.49,0,.79,0h1.67c.3,0,.64,0,.79,0s.26.21.26.42,0,.38-.26.38-.48,0-.79,0Zm0,2-.79,0c-.26,0-.26-.21-.26-.41s0-.37.26-.37h3.25c.26,0,.26.21.26.4s0,.38-.26.38l-.79,0Zm0-6c-.3,0-.63,0-.79,0s-.26-.22-.26-.42,0-.37.26-.37.49,0,.79,0h1.67c.3,0,.64,0,.79,0s.26.22.26.42,0,.37-.26.37-.48,0-.79,0ZM158,209.46c.26,0,.39-.15.42-.41v-1.57a.42.42,0,0,0-.42-.42h-1.33a.42.42,0,0,0-.42.42v1.57c0,.26.16.41.42.41Zm6.12-9.63h1.06c.44,0,1,0,1.27,0s.28.16.28.4,0,.39-.28.39-.83,0-1.27,0h-1.06a.37.37,0,0,0-.42.42v1.31c0,.3.14.42.42.42h1.76c.46,0,.91,0,1.38,0,.28,0,.29.16.29.4s0,.39-.29.39l-1.38,0h-4.62c-.47,0-.93,0-1.4,0-.27,0-.28-.18-.28-.39s0-.4.28-.4c.47,0,.93,0,1.4,0h1.24c.29,0,.42-.12.42-.42V201a.37.37,0,0,0-.42-.42h-.67c-.44,0-.92,0-1.26,0s-.29-.19-.29-.4,0-.39.29-.39.82,0,1.26,0h.67c.3,0,.42-.14.42-.42v-.33c0-.57-.08-.92-.08-1.14s.1-.2.23-.2a2.68,2.68,0,0,1,.42,0c.35,0,.62,0,.62.21s-.08.12-.21.21-.22.36-.2,1.2C163.65,199.71,163.79,199.83,164.07,199.83Zm1.46,5.71h.25c.43,0,.95,0,1.26,0s.29.18.29.41,0,.4-.28.4-.84,0-1.27,0h-.25c-.29,0-.42.12-.42.42v2.16c0,.32,0,.62,0,.93,0,1.19-1.3,1.23-2.18,1.23-.14,0-.42,0-.51-.1a1.11,1.11,0,0,1-.14-.51.21.21,0,0,1,.24-.23l.23,0h.43c1.09,0,1.13-.27,1.13-1.23v-2.28c0-.3-.14-.42-.42-.42H161.4c-.43,0-.91,0-1.26,0s-.28-.19-.28-.42,0-.39.28-.39.83,0,1.26,0h2.51c.3,0,.38-.1.42-.4s0-.65-.06-1c0-.05,0-.08,0-.12s.11-.18.23-.18a7.72,7.72,0,0,1,.81.09c.1,0,.24,0,.24.16s-.09.14-.23.21-.18.27-.19.83C165.13,205.45,165.25,205.54,165.53,205.54ZM162,209.19c-.15,0-.21-.09-.29-.23-.31-.49-.63-1-1-1.44a.43.43,0,0,1-.13-.27c0-.21.27-.36.45-.36s.56.51.85.93a4.47,4.47,0,0,1,.59,1C162.5,209.07,162.21,209.19,162,209.19Z"/><path class="cls-1" d="M173.79,208.63a2,2,0,1,1-2-2A2,2,0,0,1,173.79,208.63Zm-3.43,0a1.43,1.43,0,1,0,1.42-1.42A1.43,1.43,0,0,0,170.36,208.63Z"/><path class="cls-1" d="M18.05,45.86a17.67,17.67,0,0,0-.82,1.82,33.77,33.77,0,0,1-3.75,7.37,68.27,68.27,0,0,1,6.14,5.7L18.05,62.5a56.25,56.25,0,0,0-5.9-5.75,30.69,30.69,0,0,1-9.77,8.08L.6,63.25a27.68,27.68,0,0,0,9.93-7.85,70.65,70.65,0,0,0-7-5l1.33-1.57c2.12,1.35,5,3.4,7,4.92a28.52,28.52,0,0,0,3.37-6.79,13.58,13.58,0,0,0,.5-1.85Z"/><path class="cls-1" d="M43.62,61.2c0,.8,0,2.73.05,3H41.53c0-.17,0-.75,0-1.42H27.9c0,.65,0,1.25.05,1.42H25.8c0-.3.08-2.15.08-3V48.88c0-.57,0-1.35-.05-2,1,0,1.65,0,2.22,0H41.48c.55,0,1.44,0,2.19,0-.05.63-.05,1.32-.05,2ZM27.9,49V60.83H41.58V49Z"/><path class="cls-1" d="M60.55,58.83a23.62,23.62,0,0,0,8.35-9.2l1.2,2.12a24.82,24.82,0,0,1-8.4,8.88,27,27,0,0,1-9.82,3.9l-1.33-2.05A25.83,25.83,0,0,0,60.55,58.83ZM59.08,50.9,57.5,52.48a50.92,50.92,0,0,0-6.22-5.22l1.42-1.53A54.87,54.87,0,0,1,59.08,50.9Z"/><path class="cls-1" d="M78.93,51.73a80.5,80.5,0,0,1,10.67,4.1L88.73,58a65.31,65.31,0,0,0-9.8-4v8.23a29.14,29.14,0,0,0,.15,2.95h-2.4a27.44,27.44,0,0,0,.15-2.95V47.63a15.82,15.82,0,0,0-.2-2.6h2.45c-.08.78-.15,1.85-.15,2.6Zm7.52-1.25a25,25,0,0,0-2.22-3.8l1.37-.62a34.19,34.19,0,0,1,2.28,3.77Zm3.13-1.28a27.68,27.68,0,0,0-2.33-3.74l1.38-.65A32.59,32.59,0,0,1,91,48.5Z"/><path class="cls-1" d="M112.05,52.4a8.19,8.19,0,0,0-.27,1.28,20.59,20.59,0,0,1-2,6.25c-1.45,2.6-4.38,4.87-8.63,6l-1.57-1.75a13.63,13.63,0,0,0,2.37-.6,10.8,10.8,0,0,0,5.78-4.22,13.87,13.87,0,0,0,1.87-5.73H98v3.58a9.12,9.12,0,0,0,.07,1.2H96c0-.35.08-.9.08-1.3V53.45c0-.45,0-1.3-.1-1.75.57,0,1.4.08,2.1.08h4.57V50a8.84,8.84,0,0,0-.12-1.47h2.22a8.84,8.84,0,0,0-.12,1.47v1.78h4.7a4.9,4.9,0,0,0,1.4-.13Z"/><path class="cls-1" d="M117.71,53.23c.75.05,2.07.12,3.47.12h13.7c1.25,0,2.15-.07,2.7-.12v2.45c-.5,0-1.55-.13-2.68-.13H121.18c-1.38,0-2.7.05-3.47.13Z"/><path class="cls-1" d="M158.38,47l1.22.77a5.16,5.16,0,0,0-.37,1.25c-.55,2.62-1.75,6.65-3.73,9.22a19.12,19.12,0,0,1-9.85,6.68L144,63.05a16.52,16.52,0,0,0,9.75-6A18.94,18.94,0,0,0,157,48.9h-12.8c-1,0-1.85.05-2.47.08v-2.2a23.31,23.31,0,0,0,2.49.15h12.53a5.92,5.92,0,0,0,1.07-.07c-.52-1-1.27-2.2-1.82-3l1.35-.58a36.16,36.16,0,0,1,2,3.3Zm2.17-4.38a36.56,36.56,0,0,1,2,3.3l-1.37.6a28.08,28.08,0,0,0-2-3.32Z"/><path class="cls-1" d="M163.81,63.4a11.83,11.83,0,0,0,4.34-6.15c.73-2.3.75-7.27.75-10a9.34,9.34,0,0,0-.17-1.83H171a16.83,16.83,0,0,0-.13,1.8c0,2.77-.1,8.12-.77,10.62a13.75,13.75,0,0,1-4.45,6.85Zm11.44.13a5.94,5.94,0,0,0,.18-1.4v-15a13,13,0,0,0-.15-1.85h2.3a14.77,14.77,0,0,0-.1,1.85V61.58a19,19,0,0,0,7.27-6.15l1.2,1.7a25.17,25.17,0,0,1-8.52,6.92,4.8,4.8,0,0,0-.85.58Z"/><path class="cls-1" d="M203.85,57.71a4.1,4.1,0,0,0-3.06-1.47,4,4,0,0,0-3.4,2.37l-1.28-.68a5.14,5.14,0,0,1,8.75-1.23,4.16,4.16,0,0,0,3.06,1.48,4,4,0,0,0,3.41-2.38l1.28.69a5.4,5.4,0,0,1-4.7,3.15A5.47,5.47,0,0,1,203.85,57.71Z"/><path class="cls-1" d="M220.27,49.32h1.35V65.26h-1.35v-4c-1.62.71-3.24,1.39-4.54,1.93l-.63-1.35c1.32-.41,3.24-1.17,5.17-1.91v-5h-4.61V53.54h4.61Zm9.29,14.39c.83,0,.95-.78,1.08-3.75a3.64,3.64,0,0,0,1.28.63c-.16,3.26-.52,4.43-2.27,4.43h-2.88c-1.67,0-2.14-.54-2.14-2.45V49.34H226v5.94a27.61,27.61,0,0,0,4.44-3.22l1,1.15A43.45,43.45,0,0,1,226,56.67v5.92c0,.94.16,1.12.93,1.12Z"/><path class="cls-1" d="M237.3,56.81a12.6,12.6,0,0,0-3-1.91l.74-1a13.07,13.07,0,0,1,3.06,1.8Zm-2.59,7.62a52.51,52.51,0,0,0,2.8-5.82l1,.76c-.76,1.91-1.76,4.14-2.65,5.83Zm3.42-12.26a13.39,13.39,0,0,0-3-2l.75-1a12.21,12.21,0,0,1,3,1.94Zm3.4.27a13.39,13.39,0,0,1-1.86,2.82,7.35,7.35,0,0,0-1.15-.75,13.6,13.6,0,0,0,3-5.53l1.34.29c-.22.66-.45,1.31-.73,1.94h8.5v1.23ZM249.31,59c-.07,1.1-.15,2-.22,2.74h1.73v1.17h-1.89a3.63,3.63,0,0,1-.6,1.86,1.49,1.49,0,0,1-1.22.63,17.82,17.82,0,0,1-2.29,0,2.16,2.16,0,0,0-.34-1.12c.94.07,1.75.07,2.09.07s.52,0,.68-.25a2.86,2.86,0,0,0,.42-1.17H241l-.15.83-1.27-.13c.25-1.2.52-2.88.77-4.61h-1.66V57.75h1.84c.18-1.3.34-2.58.45-3.69h8.57s0,.47,0,.61c-.05,1.15-.1,2.16-.14,3.08h1.55V59Zm-7.73,0c-.12,1-.27,1.89-.39,2.74h2.61c.11-.79.23-1.75.34-2.74Zm.49-3.74c-.09.81-.2,1.66-.32,2.52h2.52c.09-.86.16-1.73.21-2.52Zm5.76,6.48c.09-.72.16-1.62.23-2.74h-2.77c-.11,1-.23,2-.34,2.74Zm.31-4c0-.76.07-1.59.11-2.52h-2.62c0,.79-.14,1.66-.21,2.52Z"/><path class="cls-1" d="M257.35,61.78c.85,1.32,2.41,1.93,4.48,2s6,0,8.07-.13a6.27,6.27,0,0,0-.43,1.37c-2,.07-5.66.11-7.64,0-2.34-.09-3.94-.74-5.09-2.13-.87.76-1.77,1.53-2.72,2.31l-.72-1.35A30.62,30.62,0,0,0,256,61.85V57.3h-2.51V56h3.82Zm-.56-8.69a12.55,12.55,0,0,0-3.06-2.87l1-.79a13.91,13.91,0,0,1,3.13,2.77Zm5.94.72c.09-.45.2-1,.27-1.43h-4.77V51.27h3a8.77,8.77,0,0,0-1.14-1.84l1-.4a6.6,6.6,0,0,1,1.33,2l-.47.2H265A18.58,18.58,0,0,0,266.23,49l1.33.34c-.38.67-.83,1.39-1.23,2h3.26v1.11h-5.13c-.16.49-.34,1-.5,1.43h4.19v8.48h-8.42V53.81Zm4.09,1H261v1.5h5.82Zm0,2.47H261v1.48h5.82Zm0,2.47H261v1.49h5.82Z"/><path class="cls-1" d="M276.54,58a14,14,0,0,1-3.17,4.62,7,7,0,0,0-1.06-.77,10.62,10.62,0,0,0,2.88-4.21Zm7.07-1.7v7.53c0,.78-.18,1.15-.73,1.39a9,9,0,0,1-2.76.23,5.51,5.51,0,0,0-.49-1.33c1,0,1.95,0,2.24,0s.34-.07.34-.31V56.25h-2.68v1.07c0,2.55-.36,5.81-3.93,8.21a4.91,4.91,0,0,0-1-1c3.32-2.17,3.6-5.06,3.6-7.26v-1h-5.42V55H280V52.42h-5.42V51.14H280V49h1.35v2.12h5.9v1.28h-5.9V55h7.31v1.27ZM286,57.5a25.27,25.27,0,0,1,3,4.52l-1.28.61A25.06,25.06,0,0,0,284.86,58Z"/><path class="cls-1" d="M307,63.71c0,.85-.18,1.28-.76,1.49a10.42,10.42,0,0,1-3.17.26,5.12,5.12,0,0,0-.41-1.35c1.17,0,2.27,0,2.61,0s.42-.12.42-.43V52.94h-5.48c-.07.25-.14.47-.22.7a41.11,41.11,0,0,1,4.79,3.14l-.9,1a38.55,38.55,0,0,0-4.39-3.08,7.3,7.3,0,0,1-4,3.3,3.51,3.51,0,0,0-.83-1,6.21,6.21,0,0,0,4.18-4.09h-4.94V65.42h-1.31V51.63h6.55a19.73,19.73,0,0,0,.29-2.58h1.41c-.08.92-.17,1.77-.31,2.58H307Zm-3.33-.51a39.45,39.45,0,0,0-4.11-3.33,7.77,7.77,0,0,1-4.19,3.33,3.22,3.22,0,0,0-.81-1,6.6,6.6,0,0,0,4.73-5.42h1.37a12.4,12.4,0,0,1-.56,2,40.44,40.44,0,0,1,4.54,3.45Z"/><path class="cls-1" d="M323.41,50.94a14.3,14.3,0,0,0-.59,1.32,24.89,24.89,0,0,1-2.7,5.31,50.75,50.75,0,0,1,4.43,4.1l-1.14,1.26a40.57,40.57,0,0,0-4.25-4.14,21.93,21.93,0,0,1-7,5.82l-1.28-1.13A20,20,0,0,0,318,57.82a50.19,50.19,0,0,0-5.06-3.64l1-1.13c1.53,1,3.62,2.45,5,3.55a20.81,20.81,0,0,0,2.43-4.9,9.64,9.64,0,0,0,.36-1.33Z"/><path class="cls-1" d="M341.83,62c0,.57,0,2,0,2.16h-1.55c0-.13,0-.54,0-1H330.5c0,.47,0,.9,0,1H329c0-.22.05-1.55.05-2.18V53.12c0-.41,0-1,0-1.4l1.6,0h9.67c.39,0,1,0,1.58,0,0,.45,0,1,0,1.4ZM330.5,53.18v8.55h9.85V53.18Z"/><path class="cls-1" d="M354,60.29a17,17,0,0,0,6-6.63l.86,1.53a17.91,17.91,0,0,1-6.05,6.39,19.3,19.3,0,0,1-7.08,2.81l-.95-1.47A18.65,18.65,0,0,0,354,60.29ZM353,54.58l-1.13,1.13A38.22,38.22,0,0,0,347.33,52l1-1.1A39.65,39.65,0,0,1,353,54.58Z"/><path class="cls-1" d="M370.84,57.71a4.12,4.12,0,0,0-3.06-1.47,4,4,0,0,0-3.4,2.37l-1.28-.68a5.14,5.14,0,0,1,8.75-1.23,4.14,4.14,0,0,0,3.06,1.48,4,4,0,0,0,3.4-2.38l1.28.69a5.38,5.38,0,0,1-4.7,3.15A5.43,5.43,0,0,1,370.84,57.71Z"/><path class="cls-1" d="M36.45,1.68a.87.87,0,0,1-.08.39,1.9,1.9,0,0,1-.25.39l-.27.41a.61.61,0,0,0-.12.33.5.5,0,0,1,0,.14c0,.07,0,.16-.07.29s-.12.43-.17.58a1.71,1.71,0,0,0-.1.32,9.89,9.89,0,0,0-.28,1.33A12.56,12.56,0,0,0,35,7.29c0,1,0,1.94-.12,2.93,0,.49-.07,1-.13,1.55s-.12,1.11-.18,1.71-.13,1.17-.19,1.72-.12,1.07-.18,1.58c-.1.91-.16,1.86-.21,2.84s-.07,2-.07,3.08c0,.71,0,1.63,0,2.74s.05,2.4.08,3.86a7.34,7.34,0,0,0,.72.58,5.06,5.06,0,0,1,.79.6.85.85,0,0,1,.25.65A2,2,0,0,1,35,32.58a2.4,2.4,0,0,1-1.55.7c-1.31,0-2.19-.88-2.63-2.65a22,22,0,0,1-.69-5.45,13,13,0,0,1,.12-1.76c.08-.59.15-1.18.21-1.78,0-.41.1-1,.19-1.8s.19-1.77.32-2.94.23-2.07.29-2.69l.12-1.08c0-.09,0-.24.05-.45s.05-.48.09-.82c.09-.68.16-1.27.19-1.76s.06-.89.06-1.17a1.22,1.22,0,0,0,0-.26,2.63,2.63,0,0,0,0-.31,1.4,1.4,0,0,0-.19-.51c-.23.3-.48.65-.78,1.06l-1,1.37c-.77,1-1.39,1.85-1.88,2.51l-.73,1-.73,1-.85,1.12c-.32.42-.67.91-1.06,1.46q-1.28,1.76-2.52,3.57c0,.07-.11.16-.2.29l-.35.51a8.22,8.22,0,0,1-.49.7,5.49,5.49,0,0,1-2.52,2.13A4.09,4.09,0,0,1,16,22.81c-.11-.2-.21-.39-.3-.54s-.17-.31-.24-.44l-.24-.41L14.93,21c-.26-.46-.5-.87-.71-1.25s-.39-.72-.56-1q-.5-.9-1-1.92c-.31-.68-.6-1.4-.86-2.14-.15-.49-.28-.9-.39-1.22s-.18-.55-.23-.69l-.2-.63c-.08-.26-.17-.57-.27-.94s-.22-.73-.34-1.11S10.16,9.3,10,8.91c-.27-.82-.41-1.26-.43-1.33-.1.36-.22.83-.39,1.39s-.33,1.15-.5,1.78S8.36,12,8.19,12.66s-.31,1.21-.43,1.72-.25,1-.36,1.47l-.32,1.32c-.23.81-.56,2.08-1,3.81a12.55,12.55,0,0,0-.43,3.24,8.75,8.75,0,0,0,.06.89c0,.37.1.82.19,1.36s.16,1,.2,1.4.06.78.06,1.1a2.44,2.44,0,0,1-.53,1.27c-.35.49-.7.74-1,.74a4.25,4.25,0,0,1-.53,0,4.52,4.52,0,0,0-.55,0,1.67,1.67,0,0,1-1.58-1.31,7.45,7.45,0,0,1-.49-2.69,5.25,5.25,0,0,1,.2-1.16c.06-.26.14-.57.23-.94s.2-.79.31-1.24l.3-1.08c.06-.26.1-.41.11-.47l.78-3q.36-1.32.63-2.34c.18-.68.37-1.38.57-2.12s.4-1.51.62-2.33.49-1.73.68-2.38A19.32,19.32,0,0,0,6.33,8q.17-1.08.24-1.44a6.47,6.47,0,0,1,.27-1q.18-.51.39-1c.29-.7.65-1,1.1-1a7.9,7.9,0,0,1,2.3.27A2.52,2.52,0,0,1,12,5a7.14,7.14,0,0,1,.47.91,7.61,7.61,0,0,1,.33,1c.09.31.19.67.29,1.08s.21.88.31,1.4a4.59,4.59,0,0,0,.24.8c.1.26.21.55.33.88a37.88,37.88,0,0,0,4.51,9.12,6.33,6.33,0,0,1,.63-.47l.44-.35a2.84,2.84,0,0,0,.3-.31c.18-.23.37-.48.57-.76s.38-.59.56-.92l1.1-1.9a10,10,0,0,1,1.17-1.58c.21-.22.45-.5.73-.85s.6-.75,1-1.22l1-1.23c.28-.35.51-.64.7-.86L27.26,9l.54-.69.58-.76.71-1,.56-.68L30,5.46l.24-.32L31,4c.28-.42.58-.9.91-1.45s.64-1,.9-1.42l.66-1A.46.46,0,0,1,33.89,0a1.79,1.79,0,0,1,.73.16,5,5,0,0,1,.86.44,4.25,4.25,0,0,1,.72.55C36.39,1.35,36.48,1.53,36.45,1.68Z"/><path class="cls-1" d="M66.65,17.81a2.77,2.77,0,0,1-.43,1,36.39,36.39,0,0,1-2.28,2.93,35.05,35.05,0,0,1-2.67,2.78,35.93,35.93,0,0,1-3,2.46,24.75,24.75,0,0,1-3.1,2,16.61,16.61,0,0,1-3.11,1.28,10.05,10.05,0,0,1-3,.42,6.4,6.4,0,0,1-4.86-1.81q-1.72-1.82-1.72-5.49a19.1,19.1,0,0,1,.94-6,16.41,16.41,0,0,1,3.24-5.56,7.55,7.55,0,0,1,1-.9,8.27,8.27,0,0,1,1.13-.76A6.43,6.43,0,0,1,50,9.69a5.58,5.58,0,0,1,1.27-.24c.11,0,.25,0,.43,0a5,5,0,0,1,.59.14,6.44,6.44,0,0,1,.61.24,1.32,1.32,0,0,1,.46.37,5.23,5.23,0,0,1,.87,1.29A3.53,3.53,0,0,1,54.63,13a5.57,5.57,0,0,1-.2,1.77,6.86,6.86,0,0,1-.82,1.78,11.91,11.91,0,0,1-1.51,1.87c-.63.64-1.38,1.34-2.27,2.08-.56.47-1.18,1-1.87,1.55a25.42,25.42,0,0,1-2.47,1.79,3.61,3.61,0,0,0,1.15,2.88,4.61,4.61,0,0,0,3.13,1A8.82,8.82,0,0,0,52,27.4a14.25,14.25,0,0,0,2.22-.77,18.43,18.43,0,0,0,2.12-1.09c.69-.41,1.33-.83,1.93-1.26,1.1-.81,2.11-1.61,3-2.41s1.79-1.65,2.68-2.53L65,18.28a2.78,2.78,0,0,1,1.38-.84C66.57,17.44,66.65,17.57,66.65,17.81ZM51.72,13.93a3.68,3.68,0,0,0-.08-.58,1.88,1.88,0,0,0-.21-.5,1.27,1.27,0,0,0-.31-.34.71.71,0,0,0-.41-.13,3.1,3.1,0,0,0-2.07,1.26,13.83,13.83,0,0,0-2,3.18,6.31,6.31,0,0,0-.39,1c-.11.35-.21.72-.31,1.09s-.18.74-.25,1.1-.14.69-.19,1l1.88-1.41c.57-.43,1.1-.87,1.6-1.33.31-.28.63-.59,1-.92a11,11,0,0,0,.89-1.05,5.49,5.49,0,0,0,.63-1.13A2.75,2.75,0,0,0,51.72,13.93Z"/><path class="cls-1" d="M83.11,19.45A6.92,6.92,0,0,1,82,22.33c-.15.24-.34.54-.6.88s-.53.71-.85,1.08-.63.75-1,1.13-.67.74-1,1.07A21.15,21.15,0,0,1,77,27.93a15.1,15.1,0,0,1-1.88,1.27,10.51,10.51,0,0,1-2,.91,6.49,6.49,0,0,1-2.06.34A6.4,6.4,0,0,1,68.46,30a5.31,5.31,0,0,1-2-1.5,7.55,7.55,0,0,1-1.37-2.55,11.83,11.83,0,0,1-.49-3.62c0-.95,0-1.95.13-3s.21-2.07.35-3.12.31-2.07.48-3.09.36-2,.54-3c.12-.65.22-1.19.3-1.6s.16-.8.23-1.16.12-.7.17-1.06.12-.8.2-1.34q.08-.54.15-1c0-.28.08-.52.1-.7a3.59,3.59,0,0,1,.27-.9A2.94,2.94,0,0,1,68,1.66a2.23,2.23,0,0,1,.65-.53,1.74,1.74,0,0,1,.82-.19,1.47,1.47,0,0,1,1.39.88c-.08.4-.16.79-.25,1.16s-.16.77-.22,1.18c-.33,1.64-.59,3-.8,4s-.36,1.73-.45,2.14c-.16.83-.32,1.71-.5,2.66s-.34,1.92-.49,2.91-.27,2-.36,2.93-.14,1.86-.14,2.7a12.4,12.4,0,0,0,.22,2.45,5.57,5.57,0,0,0,.69,1.88A3.39,3.39,0,0,0,69.74,27a3.59,3.59,0,0,0,1.83.43,5.53,5.53,0,0,0,2.3-.51,11.73,11.73,0,0,0,2.18-1.32,18.41,18.41,0,0,0,2-1.77c.63-.65,1.2-1.27,1.72-1.87s.78-.92,1.1-1.28l.78-.9c.17-.2.36-.4.57-.61a.92.92,0,0,1,.6-.31C83,18.89,83.11,19.08,83.11,19.45Z"/><path class="cls-1" d="M108.78,14.92a1.67,1.67,0,0,1-.15.68,3.64,3.64,0,0,1-.38.66,5.07,5.07,0,0,1-.52.61,3,3,0,0,1-.58.46,6.84,6.84,0,0,1-1.94.79,12,12,0,0,1-3.11.34,12.32,12.32,0,0,1-3-.38,10.12,10.12,0,0,1-2.89-1.26,3.61,3.61,0,0,1,.57,1.31,7.08,7.08,0,0,1,.13,1.48,8,8,0,0,1-.78,3.28,14.45,14.45,0,0,1-2,3.26,13.66,13.66,0,0,1-2.56,2.5,9.55,9.55,0,0,1-1.67,1,11.09,11.09,0,0,1-1.91.68,13.54,13.54,0,0,1-2.07.39,17.32,17.32,0,0,1-2.17.13,2.59,2.59,0,0,1-1.48-.49A5.8,5.8,0,0,1,81,29.16a6.47,6.47,0,0,1-.91-1.5,3.92,3.92,0,0,1-.34-1.45,10.87,10.87,0,0,1,.42-3,15.52,15.52,0,0,1,1.13-2.82A23.23,23.23,0,0,1,83,17.71c.63-.87,1.29-1.73,2-2.59A14.49,14.49,0,0,1,86.3,13.7a14.1,14.1,0,0,1,1.58-1.24,9.56,9.56,0,0,1,1.66-.89,4.39,4.39,0,0,1,1.6-.34,2.85,2.85,0,0,1,1.07.18,3.06,3.06,0,0,1,.85.5,5.65,5.65,0,0,1,.82.81l1,1.09a3.86,3.86,0,0,0,1,.52,15.29,15.29,0,0,0,1.87.66q1.08.33,2.28.57a11,11,0,0,0,2.16.24c.66,0,1.25,0,1.8-.07a13.24,13.24,0,0,0,1.59-.22,10.7,10.7,0,0,0,1.54-.43c.5-.18,1-.4,1.64-.66A2.05,2.05,0,0,1,108.78,14.92ZM94.19,19.61a8.1,8.1,0,0,0-.08-1.24,6.14,6.14,0,0,0-.34-1.31,2.89,2.89,0,0,0-.65-1,1.14,1.14,0,0,0-1-.32A7.83,7.83,0,0,1,90.65,15a1.87,1.87,0,0,0-.9-.39,1.12,1.12,0,0,0-.51.15,3.09,3.09,0,0,0-.56.4,6.62,6.62,0,0,0-.6.59c-.2.23-.4.47-.59.72L86.4,17.85c-.33.42-.64.83-.94,1.24s-.57.84-.84,1.29-.55,1-.83,1.52a5,5,0,0,0-.31.84c-.09.32-.17.66-.23,1a9.3,9.3,0,0,0-.15,1c0,.34,0,.65,0,.92a1.45,1.45,0,0,0,.18.62,3.38,3.38,0,0,0,.46.7,2.93,2.93,0,0,0,.64.58,1.27,1.27,0,0,0,.71.23,16,16,0,0,0,1.7-.08,5.62,5.62,0,0,0,1.3-.32,6.17,6.17,0,0,0,1.2-.61,16.92,16.92,0,0,0,1.41-1,6,6,0,0,0,.77-.68c.26-.26.51-.54.75-.83s.49-.59.71-.9.43-.61.62-.91a2.68,2.68,0,0,0,.33-.72,6.78,6.78,0,0,0,.22-.86c0-.29.09-.55.11-.78S94.19,19.72,94.19,19.61Z"/><path class="cls-1" d="M138.21,17.33a2.28,2.28,0,0,1-.13.75,6.49,6.49,0,0,1-.73,1.5c-.16.24-.31.47-.45.7a17.86,17.86,0,0,1-1.33,1.78c-.51.61-1,1.2-1.63,1.77s-1.17,1.11-1.79,1.62a21.54,21.54,0,0,1-1.79,1.35l-1.34.88a9.47,9.47,0,0,1-1.28.7,7.7,7.7,0,0,1-1.35.47,6.2,6.2,0,0,1-1.54.18,4.07,4.07,0,0,1-2.64-.83,3.77,3.77,0,0,1-.89-1.06,9.22,9.22,0,0,1-.66-1.45,16.14,16.14,0,0,1-.49-1.7c-.13-.6-.25-1.2-.34-1.78-.12-.73-.23-1.38-.33-2a12.19,12.19,0,0,0-.36-1.47,2.81,2.81,0,0,0-.5-.92,1,1,0,0,0-.76-.32,3.29,3.29,0,0,0-.71.08,2.31,2.31,0,0,0-.69.31,5.32,5.32,0,0,0-.79.67,14.56,14.56,0,0,0-1,1.13c-.38.47-.82,1-1.31,1.72s-1.08,1.48-1.74,2.42c-.33.46-.71,1-1.16,1.5s-.89,1.07-1.35,1.57a16.17,16.17,0,0,1-1.36,1.3,3.58,3.58,0,0,1-1.17.73c-1.15-.25-1.72-1.68-1.72-4.28,0-.69.08-1.74.23-3.15.08-.63.17-1.3.28-2s.23-1.39.39-2.09.33-1.37.53-2A12.54,12.54,0,0,1,107,13.6a2.38,2.38,0,0,1,.41-.62,1.45,1.45,0,0,1,.44-.33,1.5,1.5,0,0,1,.47-.14,4,4,0,0,1,.49,0c.21,0,.4.15.56.43a2.49,2.49,0,0,1,.24,1.19,4.83,4.83,0,0,1-.07.88,8.67,8.67,0,0,1-.22.84l-.29.93c-.11.33-.21.71-.31,1.14l-.27,1.17c-.09.43-.19.87-.27,1.31s-.16.88-.22,1.3a10.11,10.11,0,0,0-.08,1.14,2.69,2.69,0,0,0,.11.73c.37,0,1-.59,1.8-1.64l1.42-1.76c.51-.64,1.07-1.34,1.67-2.11.44-.57.88-1.11,1.31-1.6a10.3,10.3,0,0,1,1.36-1.3,6,6,0,0,1,1.5-.88,4.65,4.65,0,0,1,1.74-.32,3,3,0,0,1,1.69.44,3.21,3.21,0,0,1,1.09,1.21,7.08,7.08,0,0,1,.63,1.84,23.82,23.82,0,0,1,.36,2.37c.08.73.16,1.45.23,2.16a7.73,7.73,0,0,0,.42,1.93,3.45,3.45,0,0,0,.9,1.38,2.43,2.43,0,0,0,1.68.52,4.45,4.45,0,0,0,1.75-.39,11.29,11.29,0,0,0,1.94-1.08,24.59,24.59,0,0,0,2.1-1.63c.72-.63,1.47-1.31,2.23-2.05a12.74,12.74,0,0,0,1-1.09l1.06-1.26a12.54,12.54,0,0,1,1-1,1.23,1.23,0,0,1,.72-.43,1.13,1.13,0,0,1,.39.12A.39.39,0,0,1,138.21,17.33Z"/><path class="cls-1" d="M180.75,13.58a7.61,7.61,0,0,1-1.86,4.8,21.37,21.37,0,0,1-4.7,4.26c-.95.64-1.92,1.23-2.9,1.79s-2,1.05-3,1.51-2,.86-2.9,1.2-1.76.64-2.55.87a29.11,29.11,0,0,0-3.52,1.41l-.39.2-.56.3a3.62,3.62,0,0,1-1,.45,13.82,13.82,0,0,1-2.25.39,2.39,2.39,0,0,1-1.6-.56,2.77,2.77,0,0,1-.88-1.51c-.13-.54-.22-1-.28-1.36a5.73,5.73,0,0,1-.09-.84,3.85,3.85,0,0,1,.12-.8,3.89,3.89,0,0,0,.14-.92,5.83,5.83,0,0,1,0-.68c0-.25.06-.54.11-.87s.1-.58.13-.79.06-.35.07-.46c.05-.32.15-.94.29-1.84s.33-2.11.55-3.6q.19-1.2.45-2.52c.17-.89.36-1.83.58-2.84a2.87,2.87,0,0,0,.09-.35c0-.14.08-.31.13-.51.1-.39.18-.72.23-1a4.49,4.49,0,0,0,.08-.78,1,1,0,0,0-.23-.67,3.34,3.34,0,0,0-.67-.56,3.46,3.46,0,0,1-.57-.52,1,1,0,0,1-.17-.62,2.42,2.42,0,0,1,.66-1.56,1.93,1.93,0,0,1,1.43-.8,21.18,21.18,0,0,1,2.4.18c1,.11,1.68.17,2.07.17q1,0,3-.12c1.34-.07,2.34-.11,3-.11a30.08,30.08,0,0,1,5.33.45A13.89,13.89,0,0,1,176,6a16.39,16.39,0,0,1,1.6,1.11A7.44,7.44,0,0,1,179.71,10,8.89,8.89,0,0,1,180.75,13.58Zm-3.4,0a4.81,4.81,0,0,0-2-4.16,11,11,0,0,0-4.69-1.88c-.9-.14-1.81-.25-2.74-.33s-1.89-.12-2.87-.12l-.93,0-1,.07-2,.19c-.64.07-1.33.12-2.07.14-.18.86-.36,1.76-.55,2.69s-.36,1.9-.54,2.92c0,.24-.1.57-.18,1s-.18.89-.29,1.48-.21,1.12-.31,1.6-.17.93-.24,1.35-.13.85-.19,1.3-.13.9-.18,1.36-.09.92-.13,1.37,0,.87,0,1.26a5.15,5.15,0,0,0,.45,2.32,19.51,19.51,0,0,0,3-.64c.51-.14,1-.31,1.59-.49s1.13-.38,1.73-.6l1.61-.58c.47-.16.87-.3,1.2-.4q6-2,7.84-3.69c.19-.18.41-.42.66-.7s.52-.64.82-1a16.56,16.56,0,0,0,1.52-2.44A4.56,4.56,0,0,0,177.35,13.58Z"/><path class="cls-1" d="M213,14.92a1.67,1.67,0,0,1-.15.68,3.64,3.64,0,0,1-.38.66,5.07,5.07,0,0,1-.52.61,3,3,0,0,1-.58.46,6.84,6.84,0,0,1-1.94.79,12,12,0,0,1-3.11.34,12.32,12.32,0,0,1-3-.38,10.12,10.12,0,0,1-2.89-1.26,3.61,3.61,0,0,1,.57,1.31,7.08,7.08,0,0,1,.13,1.48,8,8,0,0,1-.78,3.28,14.45,14.45,0,0,1-2,3.26,13.66,13.66,0,0,1-2.56,2.5,9.55,9.55,0,0,1-1.67,1,11.09,11.09,0,0,1-1.91.68,13.54,13.54,0,0,1-2.07.39,17.32,17.32,0,0,1-2.17.13,2.59,2.59,0,0,1-1.48-.49,5.8,5.8,0,0,1-1.29-1.19,6.47,6.47,0,0,1-.91-1.5,3.92,3.92,0,0,1-.34-1.45,10.87,10.87,0,0,1,.42-3,15.52,15.52,0,0,1,1.13-2.82,23.23,23.23,0,0,1,1.65-2.65c.63-.87,1.29-1.73,2-2.59a14.49,14.49,0,0,1,1.33-1.42,14.1,14.1,0,0,1,1.58-1.24,9.56,9.56,0,0,1,1.66-.89,4.39,4.39,0,0,1,1.6-.34,2.85,2.85,0,0,1,1.07.18,3.06,3.06,0,0,1,.85.5,5.65,5.65,0,0,1,.82.81l1,1.09a3.86,3.86,0,0,0,1,.52,15.29,15.29,0,0,0,1.87.66q1.08.33,2.28.57a11,11,0,0,0,2.16.24c.66,0,1.25,0,1.8-.07a13.24,13.24,0,0,0,1.59-.22,10.7,10.7,0,0,0,1.54-.43c.5-.18,1-.4,1.64-.66A2.05,2.05,0,0,1,213,14.92Zm-14.59,4.69a8.1,8.1,0,0,0-.08-1.24,6.14,6.14,0,0,0-.34-1.31,2.89,2.89,0,0,0-.65-1,1.14,1.14,0,0,0-1-.32,7.83,7.83,0,0,1-1.48-.74,1.87,1.87,0,0,0-.9-.39,1.12,1.12,0,0,0-.51.15,3.09,3.09,0,0,0-.56.4,6.62,6.62,0,0,0-.6.59c-.2.23-.4.47-.59.72l-1.09,1.38c-.33.42-.64.83-.94,1.24s-.57.84-.85,1.29-.54,1-.82,1.52a5,5,0,0,0-.31.84c-.09.32-.17.66-.23,1a9.3,9.3,0,0,0-.15,1c0,.34-.05.65-.05.92a1.45,1.45,0,0,0,.18.62,3.38,3.38,0,0,0,.46.7,2.93,2.93,0,0,0,.64.58,1.27,1.27,0,0,0,.71.23,16,16,0,0,0,1.7-.08,5.62,5.62,0,0,0,1.3-.32,6.17,6.17,0,0,0,1.2-.61,16.92,16.92,0,0,0,1.41-1,6,6,0,0,0,.77-.68c.26-.26.51-.54.75-.83s.48-.59.71-.9.43-.61.62-.91a2.68,2.68,0,0,0,.33-.72,6.78,6.78,0,0,0,.22-.86c.05-.29.09-.55.11-.78S198.37,19.72,198.37,19.61Z"/><path class="cls-1" d="M243.29,15.49a4.84,4.84,0,0,1-.37,1.69,7.14,7.14,0,0,1-1,1.77A23.31,23.31,0,0,1,240.05,21q-1,1-2.13,2c-.75.63-1.5,1.22-2.27,1.76a21.94,21.94,0,0,1-2.24,1.4,13.9,13.9,0,0,1-2,.94,5,5,0,0,1-1.68.34,3.81,3.81,0,0,1-1.6-.31,3.71,3.71,0,0,1-1.18-.85,4.83,4.83,0,0,1-.83-1.26,13.68,13.68,0,0,1-.58-1.52c-.16-.54-.29-1.09-.4-1.65s-.2-1.12-.29-1.65l-1.1,1.67c-.41.62-.84,1.24-1.29,1.88s-.91,1.25-1.37,1.85-.89,1.11-1.3,1.55a16.62,16.62,0,0,1-1.49,1.39,11.52,11.52,0,0,1-1.72,1.16,10,10,0,0,1-1.91.8,7,7,0,0,1-2,.3,2.79,2.79,0,0,1-2.42-1.27,5.1,5.1,0,0,1-.86-2.93,10.4,10.4,0,0,1,.13-1.63c.08-.56.18-1.13.29-1.69s.22-1.11.32-1.65a13.11,13.11,0,0,0,.22-1.53c0-.2,0-.44,0-.73s0-.64,0-1v-1c0-.29,0-.57,0-.84s0-.53.06-.79.06-.53.11-.82a2.49,2.49,0,0,1,.53-1.15,1.6,1.6,0,0,1,1.29-.49c1.2,0,1.8.83,1.8,2.48a5.52,5.52,0,0,1-.09,1c-.06.35-.13.7-.21,1.07s-.15.75-.24,1.14-.16.76-.22,1.12c-.13.51-.27,1-.39,1.52s-.26,1-.37,1.49-.19.95-.26,1.39a8.13,8.13,0,0,0-.1,1.24,3.29,3.29,0,0,0,.08.66,3,3,0,0,0,.23.68,1.63,1.63,0,0,0,.42.54,1,1,0,0,0,.62.21,4.36,4.36,0,0,0,2.09-.57,11.28,11.28,0,0,0,2-1.43A19.43,19.43,0,0,0,219.51,24c.56-.65,1.06-1.24,1.49-1.77a14.56,14.56,0,0,0,1.24-1.9c.41-.72.8-1.48,1.17-2.27s.73-1.57,1.07-2.35.64-1.49.92-2.11c.61-1.44,1.16-2.15,1.64-2.15a1.07,1.07,0,0,1,.7.16.94.94,0,0,1,.18.68,8.2,8.2,0,0,1-.09,1.05c-.06.45-.13.91-.21,1.39s-.14.94-.2,1.39a8.09,8.09,0,0,0-.09,1c0,.22,0,.49,0,.81s0,.65,0,1,0,.67.07,1a6.93,6.93,0,0,0,.12.85,10.26,10.26,0,0,0,.28,1,6.55,6.55,0,0,0,.5,1.16,3.58,3.58,0,0,0,.73,1,1.43,1.43,0,0,0,1,.4,5.72,5.72,0,0,0,2.4-.63,17.71,17.71,0,0,0,2.74-1.61A30.65,30.65,0,0,0,238,19.87c.93-.81,1.79-1.61,2.58-2.41l1-.93a9.58,9.58,0,0,1,.88-.79,3.75,3.75,0,0,1,.64-.41C243.21,15.27,243.29,15.32,243.29,15.49Z"/><path class="cls-1" d="M269.6,17.09a2,2,0,0,1-.55,1.27,8.13,8.13,0,0,1-1,1,19.18,19.18,0,0,1-1.6,1.18c-.64.43-1.31.87-2,1.33s-1.48.92-2.3,1.4l-2.43,1.43c-.79.47-1.6.93-2.42,1.39s-1.5.84-2,1.17L254,28a5.6,5.6,0,0,0-.91.75l-1.12,1.12a29.88,29.88,0,0,1-3.52,3,3.85,3.85,0,0,1-2.36.76,3,3,0,0,1-1.33-.29,1,1,0,0,1-.31-1.62c.39-.39.75-.72,1.08-1s.68-.53,1-.78.74-.5,1.15-.76.91-.58,1.47-1l1.56-1,.62-.42A20.87,20.87,0,0,0,253.43,25,13.33,13.33,0,0,0,255,23.2,6.77,6.77,0,0,0,256.43,19a4.9,4.9,0,0,0-.16-1.1,6.94,6.94,0,0,0-.48-1.34,4.83,4.83,0,0,0-.75-1.13,1.34,1.34,0,0,0-1-.48,3.06,3.06,0,0,0-1.15.23,6.88,6.88,0,0,0-1.14.59,10.48,10.48,0,0,0-1.1.85l-1.06,1a22.81,22.81,0,0,0-2,2.21c-.64.8-1.32,1.72-2,2.73a13.84,13.84,0,0,0-.92,1.56,16.28,16.28,0,0,0-.65,1.56,10.19,10.19,0,0,0-.4,1.41,8.67,8.67,0,0,0-.16,1.13l-.07,1.61a1.2,1.2,0,0,1-.46.89,1.68,1.68,0,0,1-1,.32,1.35,1.35,0,0,1-1.26-.68,4.36,4.36,0,0,1-.38-2.06c0-.13,0-.35,0-.66s0-.67,0-1.08,0-.82.05-1.26,0-.86,0-1.25,0-.74,0-1a5.22,5.22,0,0,1,0-.6c0-.82.08-1.6.14-2.36s.13-1.52.2-2.3.15-1.59.25-2.43.21-1.73.32-2.69.23-1.88.34-2.75.23-1.72.35-2.52.25-1.61.4-2.39.33-1.56.53-2.34l.16-.53a8.21,8.21,0,0,1,.29-.78,6.48,6.48,0,0,1,.38-.7c.14-.21.29-.32.44-.32H245a2.23,2.23,0,0,1,.43.1,1,1,0,0,1,.4.28,1.65,1.65,0,0,1,.28.44,1.74,1.74,0,0,1,.14.48,2.69,2.69,0,0,1,.05.47c0,.15,0,.28,0,.38a4.84,4.84,0,0,1-.19,1c-.13.5-.29,1.17-.47,2-.33,1.46-.64,3-.95,4.49s-.55,3.06-.73,4.57c-.07.51-.13,1.07-.2,1.67s-.12,1.23-.18,1.88-.11,1.3-.16,2-.07,1.3-.09,1.91c.41-.62.83-1.33,1.25-2.11a13.54,13.54,0,0,1,1.59-2.3,24.21,24.21,0,0,1,1.85-2,19,19,0,0,1,2-1.66,7,7,0,0,1,4-1.56,3.92,3.92,0,0,1,2.09.5,6.06,6.06,0,0,1,1.71,1.45,6.93,6.93,0,0,1,1.13,2,6,6,0,0,1,.38,2.18,10.19,10.19,0,0,1-.57,2.52,7.07,7.07,0,0,1-.54,1.38l-.49.84,1.58-1,1.74-1.1L262.81,20l1.55-1,.47-.3,1-.61,1.13-.75,1-.62a4.34,4.34,0,0,1,1.05-.59.51.51,0,0,1,.5.3A1.32,1.32,0,0,1,269.6,17.09Z"/><path class="cls-1" d="M285.87,19.45a7,7,0,0,1-1.12,2.88,10.38,10.38,0,0,1-.59.88c-.26.35-.54.71-.85,1.08s-.64.75-1,1.13-.67.74-1,1.07a18,18,0,0,1-1.63,1.44,15,15,0,0,1-1.87,1.27,11.09,11.09,0,0,1-2,.91,6.58,6.58,0,0,1-2.06.34,6.4,6.4,0,0,1-2.52-.49,5.23,5.23,0,0,1-2-1.5,7.38,7.38,0,0,1-1.37-2.55,11.81,11.81,0,0,1-.5-3.62c0-.95.05-1.95.14-3s.21-2.07.35-3.12.3-2.07.48-3.09.35-2,.53-3c.12-.65.22-1.19.31-1.6s.16-.8.22-1.16.13-.7.18-1.06.11-.8.19-1.34q.07-.54.15-1c.05-.28.08-.52.11-.7a4,4,0,0,1,.26-.9,2.94,2.94,0,0,1,.47-.76,2.52,2.52,0,0,1,.65-.53,1.74,1.74,0,0,1,.82-.19,1.46,1.46,0,0,1,1.39.88c-.08.4-.16.79-.24,1.16s-.16.77-.23,1.18c-.32,1.64-.59,3-.8,4s-.36,1.73-.45,2.14c-.15.83-.32,1.71-.5,2.66s-.34,1.92-.48,2.91-.28,2-.37,2.93-.13,1.86-.13,2.7a13.24,13.24,0,0,0,.21,2.45,5.8,5.8,0,0,0,.7,1.88A3.32,3.32,0,0,0,272.5,27a3.58,3.58,0,0,0,1.82.43,5.61,5.61,0,0,0,2.31-.51,11.66,11.66,0,0,0,2.17-1.32,19.52,19.52,0,0,0,2-1.77c.62-.65,1.2-1.27,1.72-1.87l1.09-1.28.78-.9a8,8,0,0,1,.58-.61.88.88,0,0,1,.59-.31C285.76,18.89,285.87,19.08,285.87,19.45Z"/><path class="cls-1" d="M308.21,17.81a2.6,2.6,0,0,1-.43,1,36.39,36.39,0,0,1-2.28,2.93,35.05,35.05,0,0,1-2.67,2.78A35.93,35.93,0,0,1,299.88,27a23.38,23.38,0,0,1-3.1,2,16.61,16.61,0,0,1-3.11,1.28,10.05,10.05,0,0,1-3,.42,6.37,6.37,0,0,1-4.85-1.81c-1.16-1.21-1.73-3-1.73-5.49a18.82,18.82,0,0,1,1-6,16.38,16.38,0,0,1,3.23-5.56,8.28,8.28,0,0,1,1-.9,7.79,7.79,0,0,1,1.14-.76,6.09,6.09,0,0,1,1.23-.53,5.66,5.66,0,0,1,1.28-.24l.43,0a5.36,5.36,0,0,1,.58.14,6.44,6.44,0,0,1,.61.24,1.46,1.46,0,0,1,.47.37,5.85,5.85,0,0,1,.87,1.29A3.87,3.87,0,0,1,296.2,13a5.58,5.58,0,0,1-.21,1.77,6.54,6.54,0,0,1-.82,1.78,11.91,11.91,0,0,1-1.51,1.87c-.63.64-1.38,1.34-2.27,2.08L289.53,22a28.15,28.15,0,0,1-2.47,1.79,3.61,3.61,0,0,0,1.14,2.88,4.63,4.63,0,0,0,3.13,1,8.7,8.7,0,0,0,2.25-.3,14.36,14.36,0,0,0,2.23-.77,19.28,19.28,0,0,0,2.12-1.09q1-.62,1.92-1.26c1.11-.81,2.11-1.61,3-2.41s1.79-1.65,2.67-2.53l1.06-1.06a2.82,2.82,0,0,1,1.38-.84C308.13,17.44,308.21,17.57,308.21,17.81Zm-14.92-3.88a3.69,3.69,0,0,0-.09-.58,1.88,1.88,0,0,0-.21-.5,1.27,1.27,0,0,0-.31-.34.71.71,0,0,0-.41-.13,3.1,3.1,0,0,0-2.07,1.26,13.83,13.83,0,0,0-1.95,3.18,5.45,5.45,0,0,0-.38,1c-.11.35-.22.72-.32,1.09s-.18.74-.25,1.1-.13.69-.18,1L289,19.55a19.45,19.45,0,0,0,1.6-1.33c.31-.28.63-.59,1-.92a11,11,0,0,0,.89-1.05,5.06,5.06,0,0,0,.63-1.13A2.92,2.92,0,0,0,293.29,13.93Z"/></g></g></svg>