<svg xmlns="http://www.w3.org/2000/svg" viewBox="0 0 620.4 94.54"><defs><style>.cls-1{fill:#076dae;}</style></defs><g id="レイヤー_2" data-name="レイヤー 2"><g id="テキスト"><path class="cls-1" d="M12.64,91.85A1.52,1.52,0,0,0,12,92a31.7,31.7,0,0,1-6.94,2c-.88.14-3.2.48-4,.48a.85.85,0,0,1-.91-1C.17,93,.71,93,1.25,93a30.45,30.45,0,0,0,9.21-1.87.44.44,0,0,0,.28-.37.4.4,0,0,0-.2-.37A12.36,12.36,0,0,1,7.93,88a.75.75,0,0,0-.59-.34.91.91,0,0,0-.48.15,24.79,24.79,0,0,1-4.59,2,4,4,0,0,1-.74.17c-.45,0-.71-.54-.71-.83,0-.48.48-.56,1-.73a21.93,21.93,0,0,0,7.26-3.94.29.29,0,0,0,.11-.26c0-.19-.2-.28-.37-.28H8.08c-.6,0-1.17,0-1.73,0C5.41,84,5,83.74,5,82.78c0-.51,0-1,0-1.53V76.54c0-.48,0-1,0-1.44,0-1,.29-1.25,1.25-1.25.6,0,1.19,0,1.79,0H9.46a.9.9,0,0,0,1-.59l.34-.83a.72.72,0,0,0,0-.25c0-.34-.29-.45-.57-.48H3.83c-1.08,0-2.19.08-3.29.08C0,71.81,0,71.5,0,71.05s0-.77.54-.77c1.1,0,2.21.06,3.29.06H20.91c1.08,0,2.18-.06,3.26-.06.54,0,.57.26.57.77s0,.76-.57.76c-1.08,0-2.18-.08-3.26-.08H13.23a.8.8,0,0,0-.88.62c-.11.28-.19.54-.31.82a.61.61,0,0,0,0,.23c0,.34.26.45.54.48h4c.56,0,1.13,0,1.7,0,.93,0,1.3.2,1.3,1.16,0,.51,0,1,0,1.53v4.71c0,.51,0,1,0,1.47,0,1-.28,1.25-1.25,1.25-.59,0-1.19,0-1.75,0H10.74c-.06,0-.14,0-.14.11a.19.19,0,0,0,.05.12c.43.28.68.42.68.65a.22.22,0,0,1-.22.23c-.12,0-.26,0-.34,0-.29,0-.57.31-1,.68-.05,0-.05.08-.05.17s0,.17.22.17h5c.71,0,1.42,0,2.12,0a1.16,1.16,0,0,1,1.14,1.22c0,.93-2.52,2.72-3.29,3.23a.47.47,0,0,0-.23.34.42.42,0,0,0,.26.37A22.8,22.8,0,0,0,23.86,93h.31c.28,0,.57,0,.57.68s-.34.85-1,.85a26.25,26.25,0,0,1-3.28-.34A27,27,0,0,1,13.29,92,1.34,1.34,0,0,0,12.64,91.85Zm5.47-16.1a.54.54,0,0,0-.57-.57H7.06a.54.54,0,0,0-.57.57v.46a.54.54,0,0,0,.57.56H17.54a.54.54,0,0,0,.57-.56Zm-11,2.33a.56.56,0,0,0-.57.59v.42a.56.56,0,0,0,.57.6H17.54a.56.56,0,0,0,.57-.6v-.42a.56.56,0,0,0-.57-.59Zm0,2.91a.57.57,0,0,0-.57.6V82a.57.57,0,0,0,.57.6H17.54a.57.57,0,0,0,.57-.6v-.45a.57.57,0,0,0-.57-.6Zm3,6.46c-.17,0-.37.09-.37.29a.29.29,0,0,0,.12.25,14.82,14.82,0,0,0,2.35,1.73,1.26,1.26,0,0,0,.62.2,1.14,1.14,0,0,0,.62-.2c.46-.25,2.7-1.59,2.7-2s-.4-.26-.74-.26Z"/><path class="cls-1" d="M47.61,75.58a9.07,9.07,0,0,1,2.72,6.66,9.7,9.7,0,0,1-5.39,8.84,9.38,9.38,0,0,1-2.75,1c-.42,0-1.19-.85-1.19-1.19s.23-.28.4-.31a8.33,8.33,0,0,0,7.25-8.22,7.78,7.78,0,0,0-5.89-7.76,5.72,5.72,0,0,0-1.25-.2c-.79,0-.79.71-.82,1.19-.2,4.25-1.24,9.75-4,13.12a4.55,4.55,0,0,1-3.29,2A4.09,4.09,0,0,1,30,88.25a8.28,8.28,0,0,1-.8-3.8A11.31,11.31,0,0,1,40.61,72.89,9.54,9.54,0,0,1,47.61,75.58Zm-10-.74a9.83,9.83,0,0,0-6.75,9.5c0,1.53.54,4.67,2.52,4.67,1.79,0,3.43-3.11,4-4.59a30.16,30.16,0,0,0,1.78-8.92c0-.09,0-.23,0-.32a.55.55,0,0,0-.54-.59A4.51,4.51,0,0,0,37.58,74.84Z"/><path class="cls-1" d="M58.49,85.67c.74,2.89,3.57,3.54,6.18,3.54a40.41,40.41,0,0,0,8.44-.93,3.38,3.38,0,0,1,.54-.09c.42,0,.4.48.4.79,0,.49,0,.91-.37,1.08-1.05.45-7.09.82-8.47.82-2.84,0-5.9-.42-7.63-2.92a5.29,5.29,0,0,1-.93-2.32c0-.54,1.1-.68,1.19-.68C58.35,85,58.38,85.27,58.49,85.67Zm1.78-11.76a18.33,18.33,0,0,0,5.67.79,24.42,24.42,0,0,0,4.51-.42,1.07,1.07,0,0,1,.31-.06c.45,0,.48.62.48,1,0,.69-.08.86-.54.91-1.3.12-3,.2-4.31.2-1.87,0-5.21-.14-6.88-.85a.48.48,0,0,1-.34-.54c0-.31.14-1.13.54-1.13A1.92,1.92,0,0,1,60.27,73.91Zm14.14-.2c.2.23,1.25,1.28,1.25,1.5a1.38,1.38,0,0,1-1,.94c-.17,0-.28-.17-.37-.28a26.8,26.8,0,0,0-2-2.16c-.09-.11-.23-.23-.23-.37a1.43,1.43,0,0,1,.94-.85C73.25,72.49,74.16,73.48,74.41,73.71Zm2.41-1.87c.23.23,1.25,1.25,1.25,1.5a1.38,1.38,0,0,1-1,.94c-.2,0-.31-.17-.4-.28-.62-.77-1.27-1.48-2-2.19-.09-.08-.26-.22-.26-.34,0-.28.65-.88.94-.88S76.6,71.59,76.82,71.84Z"/><path class="cls-1" d="M89.58,74.93c.51,0,.53.34.53.77s0,.73-.53.73c-.77,0-1.53-.08-2.3-.05-.54,0-.76.25-.76.79v4c0,.28.11.57.45.57a.71.71,0,0,0,.23-.06c.76-.31,2.18-1,2.35-1,.39,0,.59.51.59.85a.52.52,0,0,1-.31.54c-.2.11-2.32,1-2.63,1.13a1,1,0,0,0-.68,1v6.09c0,.57,0,1.14,0,1.7,0,2.24-1.81,2.35-3.79,2.35-.71,0-1.19,0-1.19-1.07,0-.34.11-.51.48-.51h.42c.32,0,.63,0,.94,0C85,92.89,85,92.33,85,90.6V84.9c0-.31-.14-.56-.48-.56a.49.49,0,0,0-.22,0c-1.17.39-1.79.59-2.1.73s-.37.26-.45.54-.12.26-.29.26c-.42,0-1-1.56-1-1.68s.4-.31.6-.34c.76-.17,2.46-.76,3.23-1a.92.92,0,0,0,.7-1V77.17a.69.69,0,0,0-.79-.79h-.57c-.76,0-1.55.05-2.32.05-.48,0-.51-.34-.51-.73s0-.77.54-.77c.76,0,1.53.06,2.29.06h.57c.57,0,.79-.23.79-.8v-.71a27.73,27.73,0,0,0-.11-3.42,1.06,1.06,0,0,1,0-.29c0-.31.2-.37.43-.37.39,0,.88.09,1.3.12.23,0,.68,0,.68.34s-.17.25-.42.39c-.43.29-.34.88-.34,3.23v.71c0,.57.22.8.76.8C88.05,75,88.81,74.93,89.58,74.93Zm8.3,9.49c0,.46.25.63.68.63H102c1,0,2-.06,3-.06.51,0,.54.31.54.76s0,.77-.54.77c-1,0-2-.06-3-.06H99.18c-.25,0-.48.09-.48.4a.76.76,0,0,0,.06.25,15.51,15.51,0,0,0,6.4,5.61c.26.15.54.29.54.6s-.37.93-.74.93c-.59,0-2.6-1.38-3.11-1.78a15.3,15.3,0,0,1-4.2-4.82c-.08-.11-.14-.2-.31-.2s-.23.15-.31.26c-1.11,2.72-4.22,5-6.94,6a10.66,10.66,0,0,1-1.7.48c-.43,0-.71-.74-.71-1.08s.37-.36.71-.45c2.91-.76,6.06-2.61,7.31-5.47a.65.65,0,0,0,0-.22c0-.46-.45-.46-.56-.46H92.52c-1,0-2,.06-3,.06-.51,0-.54-.31-.54-.77s0-.76.54-.76c1,0,2,.06,3,.06h3c.54,0,.83-.17.91-.74a11.77,11.77,0,0,0,.14-1.87c0-.54-.22-.74-.76-.74h-2.1a.91.91,0,0,0-1,.54c-.48.82-.82,1.47-1.36,1.47-.31,0-.88-.22-.88-.59a1,1,0,0,1,.28-.51,26.46,26.46,0,0,0,2.61-4.9c.06-.2.11-.43.37-.43s1.53.46,1.53.74-.28.23-.42.25-.32.43-.77,1.36a.56.56,0,0,0-.06.23c0,.31.23.4.51.43H100c1.1,0,2.18-.06,3.25-.06.51,0,.57.23.57.76s-.06.77-.57.77c-1.07,0-2.15-.06-3.25-.06H98.84c-.56,0-.79.2-.82.77s-.09,1.22-.14,1.84Zm3.48-9.58c.2,0,.37-.11.37-.34a.54.54,0,0,0-.08-.28,7.55,7.55,0,0,1-1.5-1.81.94.94,0,0,1,.85-.77.73.73,0,0,1,.45.23A20.83,20.83,0,0,1,103.29,74c.43.5,2.07,2.71,2.07,3.25,0,.37-.54.68-.85.68s-.51-.45-1.11-1.33a.83.83,0,0,0-.82-.48h-.11c-3.37.31-6.77.57-10.15.79-.19,0-.28.14-.36.34a.35.35,0,0,1-.32.26c-.36,0-.73-1.64-.73-1.73,0-.26.14-.31,1-.31l1,0A1.24,1.24,0,0,0,94,74.82a42.64,42.64,0,0,0,2.6-5.08c.06-.14.12-.31.29-.31a3.08,3.08,0,0,1,.9.43c.26.17.68.37.68.62s-.22.23-.56.26a.34.34,0,0,0-.26.19c-.82,1.53-.82,1.85-2,3.74a.4.4,0,0,0-.09.23.35.35,0,0,0,.43.37C97.82,75.16,99.58,75,101.36,74.84Z"/><path class="cls-1" d="M114.8,90.57c0,.54,0,1.08,0,1.62,0,2.18-1.89,2.21-3.65,2.21-.65,0-1.16,0-1.16-1.11a.42.42,0,0,1,.48-.48c.14,0,.71.06,1.36.06,1.41,0,1.41-.46,1.41-2.07V85.27c0-.28-.11-.56-.48-.56a.74.74,0,0,0-.22.05l-1.9.65c-.51.17-.54.26-.65.6-.06.14-.12.25-.29.25-.39,0-1-1.55-1-1.64,0-.28.31-.31.59-.37.6-.14,2.53-.73,3.26-1,.57-.22.65-.48.65-1V77.39c0-.56-.22-.79-.79-.79h-.37c-.79,0-1.58.06-2.38.06-.51,0-.51-.37-.51-.77s0-.76.51-.76c.8,0,1.59.05,2.38.05h.37c.57,0,.79-.22.79-.79v-.85c0-1.08,0-2.38-.11-3.43,0-.08,0-.2,0-.28,0-.31.2-.37.46-.37s.88.09,1.27.11.68,0,.68.34-.17.26-.39.4c-.46.28-.37.88-.37,3.23v.85c0,.57.22.79.79.79h.26c.79,0,1.58-.05,2.35-.05.54,0,.54.34.54.76s0,.77-.51.77c-.8,0-1.59-.06-2.38-.06h-.26c-.57,0-.79.23-.79.79v4.26a.47.47,0,0,0,.48.53.93.93,0,0,0,.23,0c1.21-.51,1.13-.49,2.29-1a1.07,1.07,0,0,1,.51-.2c.43,0,.62.54.62.88a.54.54,0,0,1-.31.51c-.42.19-2.63,1.1-3.14,1.3a1,1,0,0,0-.68,1.08Zm10.76-1.73a.78.78,0,0,0,.49-.14,19.37,19.37,0,0,0,4.42-3.91,1.22,1.22,0,0,0,.28-.57c0-.36-.54-.31-1.39-.31h-6a1.67,1.67,0,0,0-1.31.48c-.65.63-4.08,3.52-4.79,3.52a.93.93,0,0,1-.76-.8c0-.31.42-.53.71-.73a25.76,25.76,0,0,0,6.71-6.12c.12-.17.29-.46.48-.46s1.53.6,1.53.91-.34.25-.51.28-.65.6-1,1a.4.4,0,0,0-.09.23c0,.2.14.28.34.28h4.93l2.13,0a1.23,1.23,0,0,1,1.27,1.21,2.29,2.29,0,0,1-.48,1.08,24.3,24.3,0,0,1-5.89,5.36A32,32,0,0,1,117.83,94a3.81,3.81,0,0,1-1,.2.89.89,0,0,1-.83-.91c0-.51.66-.6,1.28-.77a30.3,30.3,0,0,0,6.23-2.4.6.6,0,0,0,.37-.57.84.84,0,0,0-.14-.43A20.81,20.81,0,0,0,122,86.83c-.11-.14-.34-.37-.34-.57a1,1,0,0,1,.85-.76c.54,0,2.13,2.46,2.47,3A.66.66,0,0,0,125.56,88.84Zm-2-17.79c-.34,0-.45,0-.6.34a33.85,33.85,0,0,1-1.87,3.09.64.64,0,0,0-.17.45,21.6,21.6,0,0,0,1.82,3.29,3.57,3.57,0,0,1,.59,1.36,1,1,0,0,1-1,.82c-.26,0-.28-.14-.45-.54a38.63,38.63,0,0,0-2.33-4.28,1.12,1.12,0,0,1-.25-.71,1.87,1.87,0,0,1,.51-1,22,22,0,0,0,2.32-3.94c.11-.22.14-.34.31-.34s1.56.85,1.56,1.19S123.81,71.05,123.61,71.05Zm4.53,0c-.51,0-.39,0-1.1,1.14-.48.76-1,1.53-1.5,2.29a.6.6,0,0,0-.12.37.9.9,0,0,0,.2.51c.48.65,2.47,3.51,2.47,4.17,0,.45-.57.85-1,.85-.25,0-.31-.2-.45-.54a21.2,21.2,0,0,0-2.35-4.11,1.67,1.67,0,0,1-.43-.94,1.88,1.88,0,0,1,.51-1A26,26,0,0,0,126.75,70c.12-.23.15-.34.32-.34s1.55.85,1.55,1.19S128.37,71.1,128.14,71.1Zm4.65-.08c-.42,0-.45.06-.65.37-.54.88-1.33,2.15-1.93,3a.73.73,0,0,0-.17.46,13,13,0,0,0,1.33,2.46,10.44,10.44,0,0,1,1.34,2.61c0,.42-.54.82-1,.82-.25,0-.31-.17-.45-.54a49.07,49.07,0,0,0-2.58-4.7,1.1,1.1,0,0,1-.25-.71,2,2,0,0,1,.5-1,20.76,20.76,0,0,0,2.41-3.88c.09-.14.14-.31.31-.31s1.56.85,1.56,1.19S133,71,132.79,71Z"/><path class="cls-1" d="M143.16,72.55c.68.31,1,.45,1,.71s-.14.28-.39.39c-.51.23-.71.83-1,1.68a22.91,22.91,0,0,0-1.33,8,14.54,14.54,0,0,0,.85,5.35c.08.17.14.32.33.32s.4-.34,1-1.65c.31-.68.45-1,.68-1s.51.14.51.34-.4,1.42-.48,1.67a13.22,13.22,0,0,0-.54,2.49,3.89,3.89,0,0,0,.08.74v.26c0,.36-1.13.85-1.3.85-.42,0-.88-1-1-1.39a19.48,19.48,0,0,1-1.64-8.3,30.74,30.74,0,0,1,1.56-9.21c.14-.43.25-.85.37-1.28.05-.2.11-.42.34-.42A7.27,7.27,0,0,1,143.16,72.55Zm4.62,14.54a5.41,5.41,0,0,0,4.73,2.09,22.34,22.34,0,0,0,6.24-.93,2.81,2.81,0,0,1,.48-.12c.34,0,.31.34.31.66s0,1.13-.25,1.27c-.68.43-5.39.79-6.41.79a7.93,7.93,0,0,1-5.95-2.09c-.14-.14-.45-.43-.45-.65s.51-1.31.91-1.31A.46.46,0,0,1,147.78,87.09ZM149,74.45a14.18,14.18,0,0,0,3.77.48,18.75,18.75,0,0,0,4.36-.57,2.41,2.41,0,0,1,.48-.08c.37,0,.37.56.37.9s0,.74-.11.86a25.81,25.81,0,0,1-4.85.5,18.78,18.78,0,0,1-4.61-.56c-.32-.14-.32-.46-.32-.77s0-.9.4-.9A1.62,1.62,0,0,1,149,74.45Z"/><path class="cls-1" d="M174.05,90.66c-2.63.51-5.24,1-7.88,1.33a.38.38,0,0,0-.28.22c-.08.2-.17.4-.37.4-.4,0-.76-1.64-.76-1.73,0-.31.2-.28.76-.31a6.75,6.75,0,0,0,.68-.06l1.28-.17c.54-.08.73-.31.73-.87V81.84c0-.51-.19-.76-.7-.79s-2,.06-2.55.06-.57-.29-.57-.77.06-.76.57-.76c1.1,0,2.18,0,3.28,0h17.17c1.08,0,2.16,0,3.26,0,.51,0,.57.25.57.76s0,.77-.54.77c-1.1,0-2.21-.06-3.29-.06h-8.36c-.53,0-.76.23-.76.79v8.48c0,1,.06,2,.06,2.94,0,.71-.06,1.11-.83,1.11s-.79-.37-.79-1.05,0-1.36,0-2c0-.34-.14-.62-.54-.62Zm-4.33-8.45a.64.64,0,0,0,.68.71h3.71a.66.66,0,0,0,.68-.71v-.48a.66.66,0,0,0-.68-.68H170.4a.64.64,0,0,0-.68.68Zm0,3.32a.65.65,0,0,0,.68.71h3.71a.67.67,0,0,0,.68-.71V84.9a.66.66,0,0,0-.68-.68H170.4a.64.64,0,0,0-.68.68Zm0,3.74c0,.39.14.68.56.68h.14c1.28-.2,2.55-.43,3.83-.65a.6.6,0,0,0,.54-.68v-.29c0-.56-.23-.79-.8-.79h-3.51c-.57,0-.76.23-.76.76ZM183.83,76.4c0,.26,0,.51,0,.8,0,.88-.49,1-1.25,1-.57,0-1.14,0-1.7,0h-8.19l-1.64,0c-.77,0-1.31-.12-1.31-1v-5.8c0-.91.51-1,1.65-1,.36,0,.79,0,1.3,0h9.89c.73,0,1.25.14,1.25,1,0,.28,0,.54,0,.82Zm-1.48-4a.56.56,0,0,0-.59-.57h-9.92a.54.54,0,0,0-.57.57V73a.54.54,0,0,0,.57.57h9.92a.56.56,0,0,0,.59-.57ZM172,74.87a.67.67,0,0,0-.68.71v.54a.66.66,0,0,0,.68.68h9.7a.66.66,0,0,0,.7-.68v-.54a.67.67,0,0,0-.7-.71Zm10.94,16.27a.76.76,0,0,0-.54.22c-.79.66-3.79,2.92-4.67,2.92a.88.88,0,0,1-.8-.82c0-.42.43-.54.83-.74a16.77,16.77,0,0,0,3.68-2.4.83.83,0,0,0,.31-.6.84.84,0,0,0-.2-.51A15.29,15.29,0,0,1,179.41,85c-.15-.45-.32-.62-.8-.62l-.76,0c-.51,0-.57-.29-.57-.77s.06-.77.57-.77c1.07,0,2.12.06,3.2.06h2.69c.65,0,1.33,0,2,0A1.2,1.2,0,0,1,187,84.05a6,6,0,0,1-.48,1.53,16.18,16.18,0,0,1-2.18,3.66.92.92,0,0,0-.2.54.73.73,0,0,0,.28.56,14.92,14.92,0,0,0,4.17,2.53c.25.08.39.17.39.45s-.25,1-.73,1c-1.05,0-4-2.18-4.82-2.92A.72.72,0,0,0,182.89,91.14Zm0-2.69a.54.54,0,0,0,.48-.29,11.34,11.34,0,0,0,1.76-3.45c0-.51-.85-.43-1.45-.43H181.5c-.31,0-.62.14-.62.51,0,.09,0,.17,0,.23a10.85,10.85,0,0,0,1.56,3.14A.61.61,0,0,0,182.92,88.45Z"/><path class="cls-1" d="M194.48,81.53c-.39,0-.76.06-1.16.06s-.51-.23-.51-.74.14-.76.54-.76.77,0,1.13,0h.65c.57,0,1.14,0,1.7,0,1.17,0,1.42.39,1.42,1.27s0,1.45,0,2.18V87.4a13.35,13.35,0,0,0,.06,1.81A3.86,3.86,0,0,0,201.4,92a58,58,0,0,0,8,.31c2.61,0,5.18-.06,7.76-.06.29,0,.4.11.4.43,0,1.24-.37,1-3,1h-7.11c-2.09,0-6.32.14-8.07-1a5.53,5.53,0,0,1-1.65-1.58.62.62,0,0,0-.48-.32.69.69,0,0,0-.4.17c-.84.74-1.67,1.48-2.52,2.19a.37.37,0,0,0-.11.28c0,.08,0,.17,0,.25s-.06.37-.28.37-1.48-1-1.48-1.24.43-.43,1-.88,2-1.73,2.75-2.38a1.4,1.4,0,0,0,.51-1.25v-6c0-.54-.22-.8-.79-.8Zm3-5.49c-.37,0-.52-.29-.69-.57a26.91,26.91,0,0,0-3.42-4.37c-.15-.14-.29-.25-.29-.48s.48-.71.85-.71a.69.69,0,0,1,.51.26c.57.59,1.59,1.84,2.13,2.49a11.7,11.7,0,0,1,1.76,2.69C198.37,75.75,197.86,76,197.52,76Zm12.29-4.31h3.86c1.1,0,2.21-.09,3.28-.09.51,0,.51.31.51.74s0,.71-.51.71c-1.07,0-2.18-.06-3.28-.06H203.52c-1.1,0-2.21.06-3.28.06-.51,0-.51-.29-.51-.71s0-.74.51-.74c1.07,0,2.18.09,3.28.09H207c.45,0,.65-.2.68-.65a8.67,8.67,0,0,0-.12-1.25c0-.09,0-.17,0-.26,0-.28.2-.34.43-.34a5.83,5.83,0,0,1,.74.06c.56.09,1.1.06,1.1.37s-.17.25-.37.4c-.37.22-.34.51-.34,1S209.33,71.73,209.81,71.73Zm3,4.56,1.64,0c.94,0,1.19.2,1.19.94,0,.51,0,1,0,1.5V87c0,.45.06.91.06,1.36,0,2.13-1.33,2.15-4,2.15-.68,0-1,0-1-1,0-.34.09-.45.37-.45.63,0,1.22.05,1.82.05,1.27,0,1.36-.19,1.36-1.41V78.42c0-.57-.23-.8-.77-.8H203.18c-.54,0-.76.23-.76.8v8.44c0,.91,0,1.81,0,2.72,0,.59-.12.76-.74.76s-.77-.17-.77-.73c0-.91.06-1.84.06-2.75V78.75c0-.48,0-1,0-1.44,0-.79.17-1,1.19-1,.54,0,1.05,0,1.59,0h5.5a1.06,1.06,0,0,0,1.13-.59,13.78,13.78,0,0,0,1.08-2.22c0-.14.11-.28.28-.28s1.56.57,1.56.91-.23.2-.43.22a.45.45,0,0,0-.37.26c-.08.17-.39.79-.5,1a.61.61,0,0,0-.06.25c0,.32.23.4.48.4ZM207,83.4c.48,0,.68-.2.68-.68v-.59c0-.46-.2-.68-.68-.68h-1c-.68,0-1.36,0-1.73,0s-.48-.31-.48-.68.06-.62.48-.62,1.08,0,1.73,0h1c.48,0,.65-.17.68-.62a4.74,4.74,0,0,0-.12-.94v-.25c0-.29.17-.34.4-.34s.85.08,1.13.11.66,0,.66.31-.17.25-.4.4-.28.36-.31.68c0,.48.2.65.65.65h1c.68,0,1.36,0,1.73,0s.48.31.48.68-.06.62-.48.62-1,0-1.73,0h-1c-.48,0-.68.22-.68.68v.59c0,.48.2.65.68.68l.85,0c.62,0,1,.26,1,.91v3c0,.71-.4.91-1,.91-.31,0-.59,0-.88,0h-2.38c-.59,0-.88.23-.88.85,0,.37-.08.46-.68.46-.36,0-.62,0-.62-.49V84.37c0-.68.28-1,1-1,.32,0,.63,0,.91,0Zm-2.92-9.21a.87.87,0,0,1-.09-.31c0-.31.54-.62.83-.62s.42.31,1,1.39a1.82,1.82,0,0,1,.34.85c0,.34-.54.56-.85.56S204.77,75.58,204.09,74.19Zm2.29,12.07a.66.66,0,0,0,.71.68h2.44a.65.65,0,0,0,.68-.68v-1a.65.65,0,0,0-.68-.68h-2.44a.66.66,0,0,0-.71.68Z"/><path class="cls-1" d="M231.66,71.08c0,.19-.17.34-.37.53a22.14,22.14,0,0,0-1,3.29.9.9,0,0,0,0,.23.29.29,0,0,0,.31.28,1.21,1.21,0,0,0,.31-.06c.54-.11,1.67-.42,2.15-.56a1.21,1.21,0,0,1,.31-.09c.34,0,.4,1,.4,1.19,0,.6-.26.63-3.31,1.16-.57.12-.86.15-1,.74a57,57,0,0,1-2.87,7c-.56,1.22-1.3,2.67-2,3.83a.48.48,0,0,1-.45.31c-.31,0-1.25-.43-1.25-.82a2.19,2.19,0,0,1,.43-.88,50.34,50.34,0,0,0,3.91-7.76,16.44,16.44,0,0,0,.53-1.59.29.29,0,0,0-.31-.28c-.08,0-3,.34-3.65.34h-.37c-.6,0-.65-.86-.65-1.31s.25-.37.56-.37c.83,0,4.4-.08,4.94-.42.33-.23.39-.63.56-1.31a14,14,0,0,0,.62-3.91c0-.25.06-.45.32-.45C229.82,70.14,231.66,70.68,231.66,71.08Zm4.56,8s-.08.85-.08,1.61c0,1.17.2,5.56.37,6.52.11.54.53.62,1,.77.65.22,4.22,1.87,4.22,2.46,0,.37-.54,1-1,1a1.21,1.21,0,0,1-.65-.34c-.54-.4-2.55-1.73-3.18-1.73-.28,0-.25.31-.25.48,0,2.27-1.19,3.52-3.49,3.52-1.87,0-4.45-1.11-4.45-3.32s2.3-2.89,4.17-2.89a13.86,13.86,0,0,1,1.59.09h.14a.31.31,0,0,0,.31-.34c0-.77-.51-7-.6-7.74,0-.09,0-.17,0-.26,0-.28.22-.36.45-.36S236.22,78.64,236.22,79Zm-6,11c0,1.28,1.87,1.87,2.91,1.87,1.42,0,2-.82,2-2.18,0-.88-.12-1.13-2.07-1.13C232.14,88.59,230.22,88.73,230.22,90ZM242.8,79.18c0,.43-.8.94-1.14.94-.19,0-.28-.09-.39-.26a14.19,14.19,0,0,0-3.37-3.46c-.15-.11-.37-.28-.37-.48a1.6,1.6,0,0,1,1.05-1C239.2,74.93,242.8,78.53,242.8,79.18Z"/><path class="cls-1" d="M253.68,73.83c.23,0,.48.08.48.34s-.08.22-.22.36a1.11,1.11,0,0,0-.17.74,50.65,50.65,0,0,1-.2,5.52,15.2,15.2,0,0,1-5,10.18.49.49,0,0,1-.34.17c-.31,0-1.41-.46-1.41-.85,0-.23.34-.43.56-.6,4.11-3.23,4.82-7.85,4.82-12.72a17.13,17.13,0,0,0-.14-2.69c0-.09,0-.26,0-.34a.28.28,0,0,1,.31-.31A10.34,10.34,0,0,1,253.68,73.83ZM260.2,88c0,.2,0,.54.28.54a1.82,1.82,0,0,0,.8-.42,78,78,0,0,0,7.84-6.44c.12-.11.32-.34.49-.34s.85.74.85,1.08-.43.6-.6.74A103.35,103.35,0,0,1,261.28,90a3.54,3.54,0,0,0-.35.26c-.19.17-.36.37-.65.37a4.28,4.28,0,0,1-1.24-.51c-.37-.23-.6-.32-.6-.71s.11-1.73.11-3.4V77.42a27,27,0,0,0-.11-3.71,2,2,0,0,1-.06-.42.28.28,0,0,1,.29-.29,11.15,11.15,0,0,1,1.58.34c.17.06.34.12.34.34s-.08.23-.19.34-.2.8-.2,1.79Z"/><path class="cls-1" d="M288.2,74.87a14.25,14.25,0,0,0,2.46-.11,1.21,1.21,0,0,1,.34-.06c.34,0,1.08,1.19,1.08,1.48a1,1,0,0,1-.23.48,5.18,5.18,0,0,0-.79,1.42,45.55,45.55,0,0,1-2.84,5.35.92.92,0,0,0-.22.6.7.7,0,0,0,.34.62c.88.62,1.9,1.3,1.9,1.7s-.51,1.16-.88,1.16a.68.68,0,0,1-.43-.23c-.45-.36-.93-.7-1.39-1a1,1,0,0,0-.65-.32c-.45,0-.65.32-.93.66a23.48,23.48,0,0,1-6.38,5.1,21.26,21.26,0,0,1-3.43,1.55A1.73,1.73,0,0,1,275,92c0-.29.4-.37,1-.57a20.21,20.21,0,0,0,8.72-5.75,1.26,1.26,0,0,0,.4-.8.84.84,0,0,0-.48-.73,35,35,0,0,0-3.6-2c-.14-.08-.48-.22-.48-.42s.51-1.13.91-1.13a25.71,25.71,0,0,1,3.93,2,2,2,0,0,0,.85.37c.54,0,.71-.43,1-.85.48-.77,2.38-4.48,2.38-5.16s-.85-.6-1.31-.6H281c-.46,0-.65.37-.91.71a40.06,40.06,0,0,1-3.94,4.82.93.93,0,0,1-.59.25c-.4,0-1.25-.45-1.25-.85,0-.17.2-.34.31-.42a27.55,27.55,0,0,0,7.14-10c.06-.17.2-.68.46-.68a8.37,8.37,0,0,1,1.5.85c.2.11.31.17.31.37s-.4.39-.57.45-.31.4-.45.65c-.28.54-.59,1-.91,1.59a.58.58,0,0,0-.11.37.4.4,0,0,0,.45.39Z"/><path class="cls-1" d="M309.11,77.34a.82.82,0,0,0,.79-.82l0-1.53a31,31,0,0,0-.2-3.66c0-.11,0-.28,0-.37,0-.25.14-.31.34-.31a9.29,9.29,0,0,1,1.73.34.41.41,0,0,1,.25.37c0,.17-.14.25-.25.4-.26.22-.26.53-.26,1,0,.71.06,1.44.06,2.18l0,1.59a.79.79,0,0,0,.9.79l2.13,0c.91,0,2.89-.14,3.4-.14s.62.23.62.88-.11.82-.73.82l-1.73,0h-1.53l-2.21,0a.78.78,0,0,0-.8.79l.15,7.6c0,.25,0,.65,0,1a6.2,6.2,0,0,1-.59,3.14c-.82,1.14-2.84,1.28-4.14,1.28a.57.57,0,0,1-.65-.45,2.59,2.59,0,0,1-.2-.83c0-.31.2-.36.48-.36,3.09,0,3.46-.2,3.46-2.67v-.88L310,80.26a.29.29,0,0,0-.31-.31c-.17,0-.29.14-.4.28a37.9,37.9,0,0,1-8.16,8.13,10.93,10.93,0,0,1-2.35,1.45,1.3,1.3,0,0,1-.94-1c0-.29.54-.54.82-.71a33.9,33.9,0,0,0,9.27-8.56.4.4,0,0,0,.14-.28c0-.4-.42-.32-.45-.32l-5.75.09c-.94,0-3,.11-3.43.11s-.6-.34-.6-.87.06-.8.68-.8,1.16,0,1.76,0l1.56,0Z"/><path class="cls-1" d="M334.67,77.34a.82.82,0,0,0,.79-.82l0-1.53a31,31,0,0,0-.2-3.66c0-.11,0-.28,0-.37,0-.25.14-.31.34-.31a9.29,9.29,0,0,1,1.73.34.41.41,0,0,1,.25.37c0,.17-.14.25-.25.4s-.26.53-.26,1c0,.71.06,1.44.06,2.18l0,1.59a.79.79,0,0,0,.9.79l2.13,0c.91,0,2.89-.14,3.4-.14s.62.23.62.88-.11.82-.73.82l-1.73,0h-1.53l-2.21,0a.78.78,0,0,0-.8.79l.15,7.6c0,.25,0,.65,0,1a6.2,6.2,0,0,1-.59,3.14c-.82,1.14-2.83,1.28-4.14,1.28a.57.57,0,0,1-.65-.45,2.88,2.88,0,0,1-.2-.83c0-.31.2-.36.48-.36,3.09,0,3.46-.2,3.46-2.67v-.88l-.14-7.19a.29.29,0,0,0-.31-.31c-.17,0-.29.14-.4.28a37.68,37.68,0,0,1-8.16,8.13,10.93,10.93,0,0,1-2.35,1.45,1.3,1.3,0,0,1-.94-1c0-.29.54-.54.82-.71a33.76,33.76,0,0,0,9.27-8.56.37.37,0,0,0,.14-.28c0-.4-.42-.32-.45-.32l-5.75.09c-.94,0-3,.11-3.43.11s-.6-.34-.6-.87.06-.8.68-.8,1.16,0,1.76,0l1.56,0Z"/><path class="cls-1" d="M353.09,80.14c0,.68.14,4.76,0,5s-.54.39-.82.39c-.8,0-.91-.34-.91-.9,0-1.5.06-3,.06-4.54v-3.6a26.39,26.39,0,0,0-.12-3.71,3,3,0,0,1-.05-.42.27.27,0,0,1,.31-.28,10.24,10.24,0,0,1,1.56.31c.17,0,.37.14.37.36s-.12.23-.2.34c-.28.32-.23,1.62-.23,2.07Zm11.51.17c0,1.11,0,2.21-.09,3.35-.17,2.77-.65,5.32-2.63,7.39-1,1-3.57,2.87-4.11,2.87-.29,0-1.31-.66-1.31-1s.54-.48.74-.56c3.15-1.56,4.9-3.29,5.44-6.86a33.58,33.58,0,0,0,.31-5.1V73.88a9.84,9.84,0,0,0-.11-1.78c0-.09,0-.26,0-.34,0-.23.17-.29.37-.29a11.67,11.67,0,0,1,1.27.17c.23,0,.6.06.6.37a.56.56,0,0,1-.23.37c-.22.23-.22,1.25-.22,1.59Z"/><path class="cls-1" d="M377.35,80.2c1.1.65,1.81,1,1.81,1.36s-.39,1.11-.9,1.11a1.09,1.09,0,0,1-.6-.29c-1.33-.9-2.69-1.75-4.11-2.52-.2-.11-.42-.23-.42-.45s.39-1.08.85-1.08A26.2,26.2,0,0,1,377.35,80.2Zm15.16-3.09a5.6,5.6,0,0,1-.4,1.22,25.9,25.9,0,0,1-5.16,8,25.89,25.89,0,0,1-9.37,5.53,1.32,1.32,0,0,0-.88.65c-.09.17-.2.37-.43.37s-.42-.31-.65-.77a7.8,7.8,0,0,1-.45-1.13c0-.23.31-.28.48-.34a30.56,30.56,0,0,0,3.43-1.13,19.36,19.36,0,0,0,7.22-4.74A21.59,21.59,0,0,0,391,76.54c.08-.25.17-.59.45-.59S392.51,76.77,392.51,77.11Zm-12.24-3.28c.28.19,1.78,1.24,1.92,1.41a.4.4,0,0,1,.15.31c0,.32-.46,1.08-.94,1.08a1.13,1.13,0,0,1-.62-.34,37.44,37.44,0,0,0-3.66-2.69c-.17-.12-.39-.23-.39-.46s.51-1,.9-1A14.91,14.91,0,0,1,380.27,73.83Zm6.94-2.44a6.67,6.67,0,0,1,1.53,1.07c.25.2,1.42,1.11,1.42,1.39s-.57,1-.94,1c-.17,0-.28-.14-.4-.22a23.66,23.66,0,0,0-2.18-1.93c-.11-.08-.28-.23-.28-.37S386.93,71.39,387.21,71.39Zm2.27-2.3c.28,0,1.27.85,1.53,1s1.41,1.13,1.41,1.39-.56,1-.93,1c-.17,0-.28-.14-.4-.26a28.75,28.75,0,0,0-2.18-1.92c-.09-.06-.28-.2-.28-.34C388.63,69.74,389.19,69.09,389.48,69.09Z"/><path class="cls-1" d="M407.53,78.39c.93,0,.82-1,.82-2.27s0-3.4-.14-4.45a1.51,1.51,0,0,1-.06-.37c0-.2.17-.28.34-.28a12.8,12.8,0,0,1,1.48.2c.17,0,.39.11.39.34s-.11.22-.22.37-.17,1.75-.17,2.15c0,1.13,0,2.3,0,3.43a.78.78,0,0,0,.76.88h4.73c1.11,0,2.24-.06,3.38-.06.59,0,.65.25.65.85s-.09.82-.65.82c-1.14,0-2.27-.08-3.38-.08h-4.87c-.59,0-.76.45-.82,1a14.55,14.55,0,0,1-5.87,10.74,13.52,13.52,0,0,1-2.46,1.44c-.34,0-1.28-.76-1.28-1.07s.4-.4.71-.54c4.31-1.84,6.52-5.75,7.2-10.23a4.32,4.32,0,0,0,.08-.57.74.74,0,0,0-.7-.73H401c-1.13,0-2.24.08-3.37.08-.57,0-.65-.25-.65-.85s.05-.82.65-.82c1.13,0,2.24.06,3.37.06Z"/><path class="cls-1" d="M429.24,73.83c.22,0,.48.08.48.34s-.09.22-.23.36a1.11,1.11,0,0,0-.17.74,50.65,50.65,0,0,1-.2,5.52,15.15,15.15,0,0,1-5,10.18.53.53,0,0,1-.34.17c-.31,0-1.42-.46-1.42-.85,0-.23.34-.43.57-.6,4.11-3.23,4.82-7.85,4.82-12.72a16,16,0,0,0-.15-2.69c0-.09,0-.26,0-.34a.28.28,0,0,1,.31-.31A10.57,10.57,0,0,1,429.24,73.83ZM435.75,88c0,.2,0,.54.29.54s.59-.28.79-.42a78.11,78.11,0,0,0,7.85-6.44c.11-.11.31-.34.48-.34s.85.74.85,1.08-.43.6-.59.74A105.17,105.17,0,0,1,436.83,90a3.35,3.35,0,0,0-.34.26c-.2.17-.37.37-.65.37a4.34,4.34,0,0,1-1.25-.51c-.37-.23-.59-.32-.59-.71s.11-1.73.11-3.4V77.42a27,27,0,0,0-.11-3.71,2,2,0,0,1-.06-.42.27.27,0,0,1,.28-.29,11.28,11.28,0,0,1,1.59.34c.17.06.34.12.34.34s-.09.23-.2.34-.2.8-.2,1.79Z"/><path class="cls-1" d="M457.49,76.23a.67.67,0,0,0,.57-.71,1,1,0,0,0-.06-.28l-.11-.57a26.12,26.12,0,0,0-.74-3.28,1.34,1.34,0,0,1-.09-.31c0-.37.4-.37,1.82-.37.2,0,.62,0,.62.31a1,1,0,0,1-.17.4.93.93,0,0,0-.17.53c0,.4.26,1.93.34,2.41l.14.8a.85.85,0,0,0,.91.65l2.95-.43c.45,0,3.42-.56,3.54-.56.51,0,.56.73.56,1.13s-.19.51-1.47.65c-.57.06-1.39.17-2.44.31l-2.91.4a.7.7,0,0,0-.57.85l.88,4.7a.84.84,0,0,0,.9.63l5.44-.8c.43,0,3.46-.56,3.55-.56.53,0,.56.73.56,1.13s-.25.51-1.75.68c-.54.06-1.19.14-2.13.28l-5.44.8a.71.71,0,0,0-.57.82l.51,2.72c.15.71.88,4,.88,4.36,0,.6-.71.71-1.19.71s-.59-.62-.71-1.33c-.17-1-.39-2.49-.56-3.43L460,86.09a.82.82,0,0,0-.91-.62l-5.67.82c-.5.09-3.34.57-3.54.57-.54,0-.59-.71-.59-1.13s.31-.51,1.59-.66c.56,0,1.3-.14,2.32-.28l5.64-.85a.69.69,0,0,0,.62-.82l-.91-4.7a.8.8,0,0,0-.9-.66l-3.18.46c-.45,0-3.48.56-3.57.56-.51,0-.56-.76-.56-1.16s.51-.57,1.75-.68c.57-.06,1.19-.11,2.16-.25Zm12-4c.23.22,1.34,1.19,1.34,1.44s-.6,1-1,1c-.17,0-.28-.14-.39-.25a23.77,23.77,0,0,0-2.1-2c-.09-.09-.26-.23-.26-.37s.6-.91.88-.91S469.19,72,469.47,72.27Zm1-3c.26,0,1.25.91,1.48,1.14s1.36,1.19,1.36,1.44a1.41,1.41,0,0,1-1,1,.53.53,0,0,1-.37-.25c-.68-.71-1.36-1.39-2.1-2-.11-.09-.25-.2-.25-.34S470.21,69.26,470.49,69.26Z"/><path class="cls-1" d="M491.29,73.91c1.14,0,2.24-.06,2.36-.06.59,0,1.27.91,1.27,1.08,0,.34-.22.37-.42,1.7a16.88,16.88,0,0,1-7.62,12.44,27,27,0,0,1-5.05,2.66A2.24,2.24,0,0,1,481,92c-.54,0-.93-.77-.93-1.08s.22-.4.48-.45c3.82-1.25,7.76-3.69,10-7.11a15.38,15.38,0,0,0,2.33-6.81,2.53,2.53,0,0,0,0-.48c0-.71-.66-.62-1.51-.62H480.53c-1.14,0-2.27.08-3.4.08-.6,0-.63-.36-.63-.85s.06-.82.63-.82c1.13,0,2.26.06,3.4.06Z"/><path class="cls-1" d="M507.7,88.56c0,1.42.06,2.8.06,4.22,0,.85-.09,1.22-.94,1.22s-.93-.37-.93-1.22c0-1.42.08-2.8.08-4.22V75a29.82,29.82,0,0,0-.11-3.57,3.43,3.43,0,0,1-.06-.54c0-.2.09-.31.29-.31.51,0,2,.28,2,.65,0,.2-.09.25-.2.37-.28.34-.2,2.83-.2,3.4Zm5.19-7.48c.42.31,2.24,1.73,2.24,2.15a1.2,1.2,0,0,1-.94,1,.87.87,0,0,1-.57-.28,34.36,34.36,0,0,0-4.47-3.6c-.23-.14-.51-.28-.51-.59s.48-1,.85-1S512.41,80.68,512.89,81.08Z"/><path class="cls-1" d="M526,77.91a.82.82,0,0,0,.88-.8V74.39c0-.85-.06-1.3-.11-2.15,0-.09,0-.26,0-.37s.14-.28.34-.28,2,.08,2,.54c0,.16-.19.33-.31.45-.28.28-.22,1.39-.22,1.81v2.72a.79.79,0,0,0,.79.8h6.66a.81.81,0,0,0,.82-.88v-.77c0-1.08,0-3.34-.14-4.31a1.16,1.16,0,0,1,0-.34c0-.19.11-.28.31-.28a11.38,11.38,0,0,1,1.28.14c.22.06.59.09.59.37s-.06.2-.23.37-.22,2.58-.22,3.09,0,1,0,1.56v.08c0,.65.36,1,.79,1h1.22c1.13,0,2.26-.06,3.4-.06.56,0,.62.25.62.82s0,.85-.62.85c-1.14,0-2.27-.06-3.4-.06h-1.22c-.91,0-.82,1-.82,1.19,0,2.58-.2,6.21-1.62,8.42s-3.11,3.12-5.35,4.25a.8.8,0,0,1-.37.11c-.31,0-1.16-.68-1.16-1s.36-.4.71-.54c5.66-2.49,6.17-5.83,6.17-11.5,0-.51-.25-.94-.79-.94h-6.63a.79.79,0,0,0-.79.8v4c0,.34,0,1.64,0,1.81,0,.66-.28.77-.88.77-.76,0-.82-.26-.82-.85s0-1.16,0-1.73v-4a.78.78,0,0,0-.79-.8h-1.19c-1.14,0-2.27.06-3.4.06-.57,0-.63-.34-.63-.85s.06-.82.63-.82c1.13,0,2.26.06,3.4.06Z"/><path class="cls-1" d="M565.51,80.79c1.11,0,2.21-.05,3.32-.05.65,0,.71.2.71.91,0,.51,0,.85-.6.85-1.16,0-2.29-.06-3.43-.06h-13c-1.13,0-2.26.06-3.4.06-.59,0-.62-.32-.62-.85,0-.71.06-.91.71-.91,1,0,2.21.05,3.31.05Z"/><path class="cls-1" d="M578.75,85.75c0,4.34,1.3,4.11,6,4.11a48.8,48.8,0,0,0,8.41-.51,3.32,3.32,0,0,1,.68-.11c.31,0,.37.25.37.54s0,1.13-.54,1.24-3.48.26-4.19.29c-1.84.08-3.69.08-5.53.08s-5,.14-6.12-1.53c-.65-.93-.68-2.94-.68-4V76.12a32.6,32.6,0,0,0-.14-3.71c0-.09,0-.14,0-.23s.12-.25.29-.25a2.83,2.83,0,0,1,.48.08c1,.26,1.5.34,1.5.62s-.34.37-.43.94c0,.34,0,2.07,0,2.55v3.32c0,.9,1,.79,1.36.79a20.86,20.86,0,0,0,5.44-.85,26,26,0,0,0,6-2.41.7.7,0,0,1,.45-.23c.23,0,.57.57,1,1.19a.86.86,0,0,1,.25.49c0,.16-.19.28-.36.28l-.29,0a.56.56,0,0,0-.22,0,1.35,1.35,0,0,0-.54.14,32.16,32.16,0,0,1-12,2.84h-.2a.8.8,0,0,0-.85.79ZM594.42,74a7.82,7.82,0,0,1,1.16,1.55c0,.32-.68.88-1.05.88-.2,0-.28-.17-.4-.31a21.65,21.65,0,0,0-1.81-2.29.66.66,0,0,1-.2-.35c0-.28.65-.82,1-.82S594.22,73.74,594.42,74Zm2.75-1.59A9,9,0,0,1,598.33,74c0,.34-.71.9-1.05.9s-.31-.17-.4-.31a26.36,26.36,0,0,0-1.81-2.29c-.09-.09-.23-.23-.23-.37s.68-.82,1-.82S596.94,72.15,597.17,72.41Z"/><path class="cls-1" d="M614.28,74.11c.46,0,1.79,0,2.16,0a2.33,2.33,0,0,1,.48-.06c.37,0,1.16.91,1.16,1.22a.88.88,0,0,1-.31.54,9.83,9.83,0,0,0-.74,1.08,47.69,47.69,0,0,1-4.16,5.86.78.78,0,0,0-.26.6.87.87,0,0,0,.45.73A36.74,36.74,0,0,1,618.25,88c.37.34,2.15,1.93,2.15,2.3s-.68,1.16-1.1,1.16c-.23,0-.37-.2-.51-.37a33,33,0,0,0-3.37-3.31,43.3,43.3,0,0,0-3.6-2.7.91.91,0,0,0-.57-.22c-.37,0-.59.28-1,.73a34.29,34.29,0,0,1-7.34,5.1,2.82,2.82,0,0,1-.93.4A1.61,1.61,0,0,1,600.79,90c0-.31.4-.45.74-.59,5.53-2.41,10.34-7.2,13.49-12.24a3.22,3.22,0,0,0,.54-1.08c0-.51-.68-.42-1.25-.42h-7c-1.11,0-2.24,0-3.38,0-.59,0-.62-.28-.62-.82s0-.85.6-.85c1.13,0,2.26.06,3.4.06Z"/><path class="cls-1" d="M2,36.81a18.45,18.45,0,0,0,9.34,2.64c5.33,0,8.44-2.82,8.44-6.89,0-3.77-2.16-5.92-7.6-8C5.55,22.21,1.48,18.8,1.48,13.11c0-6.29,5.21-10.95,13.05-10.95a18.3,18.3,0,0,1,8.92,2L22,8.38a16,16,0,0,0-7.66-1.92c-5.5,0-7.6,3.3-7.6,6.05,0,3.77,2.45,5.63,8,7.78,6.83,2.64,10.3,5.93,10.3,11.85,0,6.23-4.61,11.62-14.13,11.62-3.89,0-8.14-1.14-10.3-2.58Z"/><path class="cls-1" d="M56.25,35.26c0,3,.06,5.62.24,7.9H51.82l-.3-4.73h-.11a10.92,10.92,0,0,1-9.58,5.39c-4.55,0-10-2.52-10-12.69V14.19H37.1v16c0,5.51,1.67,9.22,6.46,9.22a7.63,7.63,0,0,0,6.95-4.79A7.72,7.72,0,0,0,51,32V14.19h5.26Z"/><path class="cls-1" d="M65,22c0-3-.06-5.45-.24-7.84h4.61l.24,4.67h.18a10,10,0,0,1,9.1-5.33,8.56,8.56,0,0,1,8.2,5.8h.12a12.14,12.14,0,0,1,3.23-3.77,10,10,0,0,1,6.41-2c3.83,0,9.52,2.51,9.52,12.57V43.16h-5.15V26.76c0-5.57-2-8.92-6.29-8.92a6.81,6.81,0,0,0-6.22,4.79,8.63,8.63,0,0,0-.42,2.63v17.9H83.13V25.8c0-4.61-2-8-6-8-3.3,0-5.69,2.63-6.53,5.27a7.19,7.19,0,0,0-.42,2.57V43.16H65Z"/><path class="cls-1" d="M114.92,22c0-3-.06-5.45-.24-7.84h4.61l.24,4.67h.17a10,10,0,0,1,9.1-5.33,8.55,8.55,0,0,1,8.2,5.8h.12a12,12,0,0,1,3.24-3.77,9.91,9.91,0,0,1,6.4-2c3.83,0,9.52,2.51,9.52,12.57V43.16h-5.15V26.76c0-5.57-2-8.92-6.28-8.92a6.81,6.81,0,0,0-6.23,4.79,8.63,8.63,0,0,0-.42,2.63v17.9h-5.15V25.8c0-4.61-2-8-6-8-3.29,0-5.69,2.63-6.53,5.27a7.19,7.19,0,0,0-.42,2.57V43.16h-5.14Z"/><path class="cls-1" d="M167.77,29.63c.12,7.12,4.67,10.06,9.94,10.06a19,19,0,0,0,8-1.5l.9,3.77a23.45,23.45,0,0,1-9.64,1.8c-8.92,0-14.25-5.87-14.25-14.61s5.15-15.62,13.59-15.62c9.46,0,12,8.32,12,13.65a19.88,19.88,0,0,1-.18,2.45Zm15.45-3.77c.06-3.35-1.38-8.56-7.31-8.56-5.32,0-7.66,4.91-8.08,8.56Z"/><path class="cls-1" d="M194.83,23.23c0-3.42-.06-6.35-.24-9h4.61l.18,5.68h.24c1.31-3.89,4.49-6.34,8-6.34a5.71,5.71,0,0,1,1.5.18v5a7.93,7.93,0,0,0-1.8-.18c-3.71,0-6.35,2.81-7.06,6.76a14.84,14.84,0,0,0-.24,2.45V43.16h-5.21Z"/><path class="cls-1" d="M258,41.36a37.46,37.46,0,0,1-12.39,2.22c-6.11,0-11.14-1.56-15.09-5.33-3.47-3.35-5.62-8.74-5.62-15,.06-12,8.32-20.84,21.85-20.84a24.83,24.83,0,0,1,10,1.86L255.53,8.5a20.89,20.89,0,0,0-8.92-1.74c-9.82,0-16.23,6.11-16.23,16.23S236.55,39.27,246,39.27c3.41,0,5.74-.48,6.94-1.08v-12h-8.2V22H258Z"/><path class="cls-1" d="M271.63,6.05a3.27,3.27,0,0,1-6.53,0,3.22,3.22,0,0,1,3.3-3.3A3.13,3.13,0,0,1,271.63,6.05Zm-5.87,37.11v-29H271v29Z"/><path class="cls-1" d="M280.31,43.16v-25h-4.07v-4h4.07V12.81c0-4.07.89-7.78,3.35-10.12A10.09,10.09,0,0,1,290.72,0a12.18,12.18,0,0,1,4.49.84l-.72,4.07a7.8,7.8,0,0,0-3.35-.66c-4.49,0-5.63,3.95-5.63,8.38v1.56h7v4h-7v25Z"/><path class="cls-1" d="M303.59,5.87v8.32h7.54v4h-7.54V33.82c0,3.59,1,5.63,4,5.63a11.75,11.75,0,0,0,3.06-.36l.23,3.95a12.8,12.8,0,0,1-4.66.72,7.29,7.29,0,0,1-5.69-2.22c-1.5-1.55-2-4.13-2-7.54V18.2H294v-4h4.49V7.24Z"/></g></g></svg>