<?xml version="1.0" encoding="utf-8"?>
<!-- Generator: Adobe Illustrator 26.2.1, SVG Export Plug-In . SVG Version: 6.00 Build 0)  -->
<svg version="1.1" id="レイヤー_1" xmlns="http://www.w3.org/2000/svg" xmlns:xlink="http://www.w3.org/1999/xlink" x="0px"
	 y="0px" viewBox="0 0 380 203.1" style="enable-background:new 0 0 380 203.1;" xml:space="preserve">
<style type="text/css">
	.st0{fill:#8D7C28;}
</style>
<g>
	<g>
		<g>
			<path class="st0" d="M23.6,19.6c-1.5,2.2-3.8,3.9-6.4,5.2c3.3,1.1,7.3,1.8,11.6,2c-0.5,0.5-1,1.5-1.3,2.1c-4.9-0.4-9.3-1.4-13-3
				c-4.1,1.6-8.9,2.5-13.5,2.9c-0.2-0.6-0.5-1.4-0.9-1.9c4-0.3,8.3-1,12-2.2c-1.7-1-3.2-2.2-4.4-3.6c-1.7,1.1-3.7,2-5.9,2.8
				c-0.3-0.5-1-1.2-1.4-1.6c4.3-1.4,7.4-3.3,9.3-5.3H4.4V5.7h8.2C12.7,5.1,12.9,4.6,13,4H1.4V2h26.1V4h-12c-0.2,0.7-0.4,1.2-0.7,1.8
				h9.7v11.4H12.6c-0.5,0.6-1,1.1-1.6,1.6h10.8l0.4-0.1L23.6,19.6z M6.6,9h15.6V7.2H6.6V9z M6.6,12.3h15.6v-1.8H6.6V12.3z M6.6,15.7
				h15.6v-1.9H6.6V15.7z M9.8,20.5c1.2,1.3,2.9,2.4,4.9,3.4c2.1-0.9,4-2,5.4-3.4H9.8z"/>
			<path class="st0" d="M46.4,25.1c1-0.1,1.9-0.2,2.6-0.4c3.9-0.9,7.8-3.8,7.8-9.1c0-4.7-2.9-8.5-8.2-8.9c-0.4,2.9-1,6-1.8,8.8
				c-1.9,6.3-4.3,9.5-7.2,9.5c-2.7,0-5.5-3.2-5.5-8.2c0-6.7,6-12.5,13.5-12.5c7.2,0,11.8,5.1,11.8,11.3c0,6.4-4.2,10.8-11.6,11.7
				L46.4,25.1z M44.4,15c0.8-2.5,1.4-5.5,1.7-8.3c-5.9,0.7-9.5,5.8-9.5,9.9c0,3.9,1.8,5.6,3.1,5.6C41.1,22.2,42.8,20.2,44.4,15z"/>
			<path class="st0" d="M72,11.3c4.1,1.2,10,3.4,13.2,5.1L84.2,19c-3.3-1.8-8.7-3.9-12.2-5v10.2c0,1,0.1,2.7,0.2,3.7h-3
				c0.1-1,0.2-2.5,0.2-3.7v-18c0-0.9-0.1-2.3-0.2-3.2h3c-0.1,1-0.2,2.3-0.2,3.2V11.3z M81.3,9.7c-0.8-1.6-1.7-3.3-2.8-4.7l1.7-0.8
				c0.8,1.1,2.1,3.2,2.8,4.7L81.3,9.7z M85.2,8.2c-0.8-1.6-1.8-3.3-2.9-4.7L84,2.7c0.8,1.1,2.2,3.2,2.9,4.6L85.2,8.2z"/>
			<path class="st0" d="M113.1,12.1c-0.1,0.4-0.3,1.1-0.3,1.6c-0.3,1.9-1.1,5.4-2.5,7.8c-1.8,3.2-5.4,6-10.7,7.4l-2-2.2
				c0.9-0.1,2.3-0.5,2.9-0.7c2.7-1,5.4-2.4,7.2-5.2c1.3-2,2.1-4.9,2.3-7.1H95.6V18c0,0.4,0,1.1,0.1,1.5h-2.5c0-0.4,0.1-1.1,0.1-1.6
				v-4.5c0-0.6-0.1-1.6-0.1-2.2c0.7,0.1,1.7,0.1,2.6,0.1h5.7V9.1c0-0.5,0-1.1-0.2-1.8h2.8c-0.1,0.7-0.2,1.4-0.2,1.8v2.2h5.8
				c0.9,0,1.4-0.1,1.7-0.2L113.1,12.1z"/>
			<path class="st0" d="M120.1,13.1c0.9,0.1,2.6,0.2,4.3,0.2h17c1.5,0,2.7-0.1,3.3-0.2v3c-0.6,0-1.9-0.2-3.3-0.2h-17
				c-1.7,0-3.3,0.1-4.3,0.2V13.1z"/>
			<path class="st0" d="M170.5,5.4l1.5,1c-0.2,0.4-0.3,0.9-0.5,1.5c-0.7,3.3-2.2,8.2-4.6,11.4c-2.9,3.6-6.5,6.5-12.2,8.3l-2.1-2.3
				c6-1.5,9.5-4.1,12.1-7.4c2.2-2.8,3.6-7.1,4.1-10.1h-15.9c-1.2,0-2.3,0.1-3.1,0.1V5.1c0.8,0.1,2.1,0.2,3.1,0.2h15.5
				c0.4,0,0.8,0,1.3-0.1c-0.7-1.2-1.6-2.7-2.3-3.7l1.7-0.7c0.7,1.1,1.9,2.9,2.5,4.1L170.5,5.4z M173.2,0c0.8,1.1,1.9,2.9,2.5,4.1
				l-1.7,0.7c-0.7-1.3-1.7-3-2.5-4.1L173.2,0z"/>
			<path class="st0" d="M177.2,25.8c2.6-1.9,4.5-4.6,5.4-7.6c0.9-2.9,0.9-9,0.9-12.5c0-0.9-0.1-1.6-0.2-2.3h2.9
				c0,0.4-0.2,1.3-0.2,2.2c0,3.4-0.1,10.1-1,13.2c-0.9,3.3-2.9,6.4-5.5,8.5L177.2,25.8z M191.4,25.9c0.1-0.5,0.2-1.1,0.2-1.7V5.6
				c0-1.2-0.2-2-0.2-2.3h2.9c0,0.2-0.1,1.1-0.1,2.3v17.9c2.9-1.3,6.7-4.1,9-7.6l1.5,2.1c-2.7,3.6-7,6.8-10.6,8.6
				c-0.5,0.2-0.7,0.5-1.1,0.7L191.4,25.9z"/>
			<path class="st0" d="M26.7,53.7c-2.1,1.5-4.7,3-7.1,4.2c2.4,1.4,5.4,2.3,8.8,2.8c-0.5,0.5-1.1,1.4-1.4,2c-6.7-1.1-11.6-4-14.2-9
				H8v6l8-0.7l0,2c-4.8,0.5-9.9,1-13.4,1.3l-0.3-2.1c1-0.1,2.2-0.2,3.5-0.3V43.6c-1.3,0.8-2.8,1.6-4.2,2.2c-0.3-0.5-0.9-1.4-1.4-1.9
				c5.2-2.3,10.4-6.1,12.9-9.6h2.3c3.4,3.9,8.7,7.4,13.5,9.2c-0.5,0.6-1.1,1.4-1.5,2c-1.3-0.6-2.7-1.3-4.1-2.1v10.1
				c0.6-0.4,1.2-0.9,1.7-1.2L26.7,53.7z M22.2,42.9c-3.1-1.9-6-4.2-7.9-6.4c-1.7,2.1-4.4,4.4-7.5,6.4h6.4v-3.1h2.3v3.1H22.2z
				 M8,47.4H21v-2.6H8V47.4z M8,51.9H21v-2.7H8V51.9z M15.1,53.8c0.7,1.1,1.7,2.1,2.8,3c1.6-0.8,3.5-1.9,5.1-3H15.1z"/>
			<path class="st0" d="M36,50.3c1.6-1.6,4.2-5.1,6-7.3c1.8-2.1,3.4-2.4,5.5-0.3c1.8,1.9,4.2,4.9,6.2,7c1.9,2,4.9,5.3,7.6,7.8
				l-2,2.2c-2.3-2.2-5.1-5.4-7.3-7.8c-2-2.3-4.3-5.2-5.8-6.8c-1.3-1.4-1.9-1.2-2.9,0.1c-1.4,1.8-4,5.2-5.5,7.1
				c-0.7,0.8-1.3,1.8-1.8,2.4l-2.3-2.4C34.6,51.8,35.2,51.2,36,50.3z M56.6,44.4l-1.8,0.8c-0.8-1.6-1.9-3.6-2.9-5l1.8-0.8
				C54.5,40.6,55.9,42.9,56.6,44.4z M60.7,42.7L59,43.6c-0.8-1.6-2-3.5-3-4.9l1.7-0.8C58.5,38.9,60,41.3,60.7,42.7z"/>
			<path class="st0" d="M73.1,58.3c2.5-0.6,5.3-1.2,7.9-1.8l0.2,2.2c-4.9,1.2-10.1,2.5-13.9,3.3l-0.7-2.4c1.2-0.2,2.6-0.5,4.2-0.8
				V34.6h2.3V44H80v2.2h-6.9V58.3z M91.2,59.9c1.4,0,1.6-1.1,1.8-5.6c0.6,0.5,1.5,0.8,2.2,1c-0.3,5.1-0.9,6.8-3.9,6.8h-5.2
				c-3,0-3.8-0.9-3.8-4.2V34.6h2.3v11c2.9-1.4,5.8-3,7.6-4.5l1.7,2c-2.6,1.7-6.1,3.4-9.3,4.8v10c0,1.7,0.2,2,1.7,2H91.2z"/>
			<path class="st0" d="M102.3,50.3c1.6-1.6,4.2-5.1,6-7.3c1.8-2.1,3.4-2.4,5.5-0.3c1.8,1.9,4.2,4.9,6.2,7c1.9,2,4.9,5.3,7.6,7.8
				l-2,2.2c-2.3-2.2-5.1-5.4-7.3-7.8c-2-2.3-4.3-5.2-5.8-6.8c-1.3-1.4-1.9-1.2-2.9,0.1c-1.4,1.8-4,5.2-5.5,7.1
				c-0.7,0.8-1.3,1.8-1.8,2.4l-2.3-2.4C100.9,51.8,101.5,51.2,102.3,50.3z M123,44.4l-1.8,0.8c-0.8-1.6-1.9-3.6-2.9-5l1.8-0.8
				C120.8,40.6,122.2,42.9,123,44.4z M127.1,42.7l-1.8,0.9c-0.8-1.6-2-3.5-3-4.9l1.7-0.8C124.8,38.9,126.3,41.3,127.1,42.7z"/>
			<path class="st0" d="M132.5,57.7l1.4-1.9c1.3,1.4,3.1,2.6,5.6,2.6c2.7,0,4.6-1.6,4.6-4.2c0-2.7-1.8-4.6-7.1-4.6v-2.2
				c4.7,0,6.3-1.9,6.3-4.3c0-2.2-1.5-3.6-3.8-3.7c-1.8,0.1-3.4,1-4.7,2.3l-1.5-1.8c1.7-1.6,3.7-2.7,6.4-2.7c3.8,0,6.6,2,6.6,5.7
				c0,2.8-1.6,4.6-4.1,5.5v0.1c2.7,0.6,4.8,2.7,4.8,5.8c0,4.1-3.3,6.5-7.3,6.5C136.3,60.8,134,59.3,132.5,57.7z"/>
			<path class="st0" d="M160.3,35.2c-0.7,2-1.5,4.1-2.5,6v21.6h-2.2V45.1c-1,1.5-2,2.9-3,4.1c-0.2-0.5-0.8-1.8-1.2-2.3
				c2.8-3,5.2-7.7,6.8-12.3L160.3,35.2z M179.3,36.3v26.1h-2.2v-1.6h-13.6v1.8h-2.1V36.3H179.3z M177.1,58.8V38.3h-13.6v20.5H177.1z
				 M171.3,44.6V48h3.6v8.2H166V48h3.4v-3.4h-4.7v-1.8h4.7v-3.5h1.9v3.5h4.8v1.8H171.3z M173,49.7h-5.2v4.8h5.2V49.7z"/>
			<path class="st0" d="M201.5,51.5c2.3-2.1,4.6-5.5,5.5-7.4c-0.5,0.1-6.2,1.3-11.7,2.4v9.2c0,2.1,0.8,2.8,4.5,2.8
				c3.6,0,6.6-0.3,9.7-0.9l-0.1,2.7c-2.8,0.4-5.9,0.6-9.7,0.6c-5.8,0-6.8-1.5-6.8-4.6V47c-3.1,0.6-5.9,1.2-7.1,1.5l-0.5-2.6
				c1.4-0.2,4.3-0.7,7.6-1.3v-5.3c0-0.9-0.1-2-0.2-2.9h2.9c-0.2,0.9-0.2,2-0.2,2.9v4.8c5.3-1,10.7-2.1,12-2.4
				c0.7-0.2,1.3-0.3,1.6-0.6l1.8,1.4c-0.2,0.3-0.6,0.8-0.8,1.2c-1.4,2.6-3.8,6.4-6.3,9L201.5,51.5z"/>
			<path class="st0" d="M222.1,51.1l-2.4,0.9c-0.5-1.6-2.1-5.9-2.8-7l2.3-0.9C219.9,45.4,221.5,49.5,222.1,51.1z M237.7,44.2
				c-0.2,0.7-0.3,1.1-0.5,1.5c-0.8,3.4-2.2,6.7-4.4,9.5c-2.9,3.6-6.6,6-10.1,7.4l-2-2.1c3.6-1,7.5-3.4,10.1-6.6
				c2.2-2.7,3.8-6.6,4.3-10.6L237.7,44.2z M229,49.2l-2.3,0.8c-0.3-1.4-1.8-5.3-2.4-6.7l2.3-0.8C227,43.8,228.6,47.8,229,49.2z"/>
			<path class="st0" d="M261.8,52.4c-3.4-1.8-8.7-3.9-12.2-5l0,10.2c0,1,0.1,2.6,0.2,3.7h-3c0.1-1,0.2-2.5,0.2-3.7v-18
				c0-0.9-0.1-2.3-0.2-3.2h3c-0.1,1-0.2,2.3-0.2,3.2v5.1c4.1,1.2,10,3.5,13.2,5.1L261.8,52.4z"/>
		</g>
	</g>
	<g>
		<g>
			<path class="st0" d="M0.1,103.6l1.8-2.3c1.6,1.6,3.7,3.2,7,3.2c3.4,0,6.1-2.6,6.1-6.8c0-4.1-2.3-6.5-5.9-6.5
				c-1.9,0-3.1,0.6-4.8,1.7l-1.9-1.2l0.9-13.4h14v3.1H6.4l-0.7,8.3c1.3-0.7,2.5-1.1,4.3-1.1c4.8,0,8.6,2.8,8.6,9.1s-4.5,9.9-9.4,9.9
				C4.7,107.4,2,105.6,0.1,103.6z"/>
			<path class="st0" d="M22.8,112.2c2.4-1.1,3.9-2.9,3.9-5.3c-0.2,0-0.3,0-0.4,0c-1.4,0-2.6-0.9-2.6-2.5c0-1.5,1.3-2.5,2.7-2.5
				c1.9,0,3,1.6,3,4.2c0,3.8-2.2,6.7-5.7,8.2L22.8,112.2z"/>
			<path class="st0" d="M32.7,103.6l1.8-2.3c1.6,1.6,3.7,3.2,7,3.2c3.4,0,6.1-2.6,6.1-6.8c0-4.1-2.3-6.5-5.9-6.5
				c-1.9,0-3.1,0.6-4.8,1.7l-1.9-1.2l0.9-13.4h14v3.1H39l-0.7,8.3c1.3-0.7,2.5-1.1,4.3-1.1c4.8,0,8.6,2.8,8.6,9.1s-4.5,9.9-9.4,9.9
				C37.3,107.4,34.6,105.6,32.7,103.6z"/>
			<path class="st0" d="M55.2,92.5c0-10,3.5-14.8,9-14.8c5.4,0,8.9,4.9,8.9,14.8c0,10-3.5,14.9-8.9,14.9
				C58.7,107.4,55.2,102.5,55.2,92.5z M69.6,92.5c0-8.4-2.2-11.9-5.4-11.9c-3.3,0-5.5,3.5-5.5,11.9c0,8.5,2.2,12.1,5.5,12.1
				C67.4,104.6,69.6,100.9,69.6,92.5z"/>
			<path class="st0" d="M76.8,99.8c0-3.8,2.7-6.5,5.3-7.9v-0.2c-2.1-1.4-3.9-3.6-3.9-6.6c0-4.4,3.4-7.3,7.9-7.3
				c4.9,0,7.9,3.1,7.9,7.6c0,3-2.1,5.6-3.8,6.9v0.2c2.5,1.4,4.9,3.6,4.9,7.5c0,4.2-3.6,7.4-9,7.4C80.6,107.4,76.8,104.2,76.8,99.8z
				 M91.5,99.9c0-3.8-3.5-5.3-7.6-6.9c-2.3,1.5-3.9,3.8-3.9,6.5c0,3.1,2.5,5.3,6,5.3C89.3,104.8,91.5,102.8,91.5,99.9z M90.8,85.6
				c0-2.8-1.8-5.1-4.9-5.1c-2.6,0-4.5,1.9-4.5,4.7c0,3.4,3.1,4.9,6.5,6.3C89.8,89.6,90.8,87.7,90.8,85.6z"/>
			<path class="st0" d="M115,106.5c0,1-0.2,1.4-0.9,1.7c-0.7,0.2-1.8,0.3-3.6,0.3c-0.1-0.4-0.3-1.1-0.6-1.5c1.4,0.1,2.7,0,3,0
				c0.4,0,0.5-0.1,0.5-0.5v-6.1h-13.4v8.1h-1.5V91.6H115V106.5z M100.1,98.9h5.9V93h-5.9V98.9z M113.5,98.9V93h-6.1v5.9H113.5z"/>
			<path class="st0" d="M118.5,100.7c0-3.9,1.1-7.2,2.9-10.1l1.1,0.5c-1.7,2.9-2.6,6.2-2.6,9.6c0,3.4,0.8,6.8,2.6,9.6l-1.1,0.5
				C119.6,107.9,118.5,104.6,118.5,100.7z"/>
			<path class="st0" d="M131,102.3c-0.3-0.6-1.1-1.7-1.8-2.5v8.6h-1.4v-8.8c-0.8,2-1.9,4-2.9,5.2c-0.1-0.4-0.5-1-0.7-1.4
				c1.3-1.4,2.6-4,3.4-6.3h-3.1v-1.4h3.3v-3c-1,0.2-2,0.4-2.9,0.5c-0.1-0.3-0.3-0.8-0.5-1.2c2.2-0.4,4.9-0.9,6.3-1.6l1,1.1
				c-0.7,0.3-1.6,0.6-2.5,0.8v3.4h2.5v1.4h-2.5v1.2c0.6,0.5,2.3,2.3,2.7,2.7L131,102.3z M140.9,106.9c0.4,0,0.5-0.3,0.6-2.5
				c0.3,0.3,0.9,0.5,1.3,0.6c-0.1,2.6-0.5,3.2-1.7,3.2h-1.7c-1.4,0-1.7-0.4-1.7-1.9v-5.6h-1.7c-0.4,3.4-1.3,6.2-4.8,7.7
				c-0.2-0.3-0.6-0.9-0.9-1.1c3.1-1.3,3.9-3.8,4.2-6.6h-2v-6.5h9.2v6.5h-2.5v5.6c0,0.5,0.1,0.6,0.5,0.6H140.9z M134.4,94.2
				c-0.3-0.9-1-2.4-1.7-3.4l1.2-0.5c0.7,1,1.5,2.4,1.8,3.3L134.4,94.2z M133.9,99.4h6.3v-3.9h-6.3V99.4z M141.5,90.7
				c-0.7,1.2-1.4,2.6-2.1,3.4l-1.2-0.5c0.6-0.9,1.4-2.4,1.8-3.5L141.5,90.7z"/>
			<path class="st0" d="M148.7,104.4c0.9,1.5,2.7,2.1,5,2.2c2.2,0.1,6.6,0,9-0.1c-0.2,0.4-0.4,1.1-0.5,1.5c-2.2,0.1-6.3,0.1-8.5,0
				c-2.6-0.1-4.4-0.8-5.7-2.4c-1,0.8-2,1.7-3,2.6l-0.8-1.5c0.9-0.6,2-1.4,3-2.3v-5.1h-2.8V98h4.2V104.4z M148.1,94.7
				c-0.6-1-2.1-2.3-3.4-3.2l1.1-0.9c1.3,0.8,2.8,2.1,3.5,3.1L148.1,94.7z M156.4,91.2c0.5,6.1,2,10.8,6,12.9
				c-0.4,0.2-0.9,0.8-1.2,1.1c-2.8-1.6-4.4-4.5-5.3-8.1c-1,3.6-2.7,6.3-5.3,8.1c-0.2-0.3-0.8-0.9-1.2-1.1c2.9-1.9,4.6-5,5.4-9.1
				l0.6,0.1c-0.1-0.8-0.2-1.7-0.3-2.5h-3.6v-1.4H156.4z"/>
			<path class="st0" d="M164.3,110.3c1.7-2.8,2.6-6.2,2.6-9.6c0-3.4-0.8-6.8-2.6-9.6l1.1-0.5c1.9,3,3,6.2,3,10.1
				c0,3.9-1.1,7.2-3,10.2L164.3,110.3z"/>
		</g>
	</g>
	<g>
		<g>
			<path class="st0" d="M4.4,143.8c0,0.8,0,1.5,0,2.2c0,0.5,0,0.6-0.5,0.6c-0.4,0-0.5-0.2-0.5-0.6c0-0.8,0-1.5,0-2.2v-7.2
				c0-0.5,0-1.4-0.1-1.9c0-0.1,0-0.2,0-0.3c0-0.1,0-0.2,0.2-0.2c0.3,0,1.1,0.2,1.1,0.3c0,0.1,0,0.1-0.1,0.2
				c-0.2,0.2-0.1,1.5-0.1,1.8V143.8z M7.2,139.8c0.2,0.2,1.2,0.9,1.2,1.1c0,0.2-0.3,0.5-0.5,0.5c-0.1,0-0.2-0.1-0.3-0.2
				c-0.8-0.7-1.5-1.3-2.4-1.9c-0.1-0.1-0.3-0.2-0.3-0.3c0-0.2,0.3-0.5,0.5-0.5C5.6,138.6,6.9,139.6,7.2,139.8z M8.5,136
				c0.1,0.1,0.6,0.7,0.6,0.8c0,0.2-0.3,0.5-0.5,0.5c-0.1,0-0.2-0.1-0.2-0.2c-0.3-0.4-0.7-0.8-1-1.2c0-0.1-0.1-0.1-0.1-0.2
				c0-0.1,0.3-0.4,0.5-0.4C7.9,135.3,8.4,135.9,8.5,136z M9.9,135.1c0.1,0.1,0.6,0.7,0.6,0.8c0,0.2-0.3,0.5-0.5,0.5
				c-0.1,0-0.2-0.1-0.2-0.2c-0.2-0.3-0.7-0.9-1-1.2c0,0-0.1-0.1-0.1-0.2c0-0.1,0.3-0.5,0.5-0.5C9.3,134.5,9.8,135,9.9,135.1z"/>
			<path class="st0" d="M15.6,139c0.2,0,0.4-0.2,0.4-0.4v-0.5c0-0.3,0-0.8-0.1-1.1c0,0,0-0.1,0-0.2c0-0.1,0.1-0.2,0.2-0.2
				c0.2,0,0.9,0,0.9,0.3c0,0.1-0.1,0.2-0.1,0.2c-0.1,0.1-0.1,0.4-0.1,0.9v0.5c0,0.2,0.2,0.4,0.4,0.4h1.7c0.5,0,0.9,0,1,0
				c0.3,0,0.6,0.4,0.6,0.5c0,0.2-0.1,0.1-0.2,0.7c-0.1,0.7-0.3,1.4-0.5,2c-0.5,1.2-1,2-2,2.9c-0.3,0.3-1.8,1.4-2.1,1.4
				c-0.2,0-0.5-0.3-0.5-0.5c0-0.2,0.1-0.2,0.3-0.3c0.5-0.3,1.1-0.6,1.6-1c1.1-0.9,1.8-2,2.2-3.4c0.1-0.3,0.2-0.9,0.2-1.2
				c0-0.4-0.4-0.4-0.5-0.4h-5c-0.2,0-0.4,0.2-0.4,0.4v1.4c0,0.3,0,0.7,0,0.8c0,0.3-0.2,0.3-0.5,0.3c-0.2,0-0.4,0-0.4-0.3
				c0-0.3,0-0.5,0-0.8V140c0-0.2,0-0.4,0-0.6c0-0.4,0.1-0.5,0.6-0.5c0.3,0,0.6,0,1,0H15.6z"/>
			<path class="st0" d="M31.6,139.7c0.6,0,1.2,0,1.8,0c0.3,0,0.4,0.1,0.4,0.5c0,0.3,0,0.5-0.3,0.5c-0.6,0-1.2,0-1.8,0h-6.9
				c-0.6,0-1.2,0-1.8,0c-0.3,0-0.3-0.2-0.3-0.5c0-0.4,0-0.5,0.4-0.5c0.6,0,1.2,0,1.8,0H31.6z"/>
			<path class="st0" d="M44.5,136.1c0.6,0,1.2,0,1.2,0c0.3,0,0.7,0.5,0.7,0.6c0,0.2-0.1,0.2-0.2,0.9c-0.4,2.8-1.6,5-4,6.6
				c-0.8,0.6-1.7,1-2.7,1.4c-0.1,0.1-0.3,0.1-0.5,0.1c-0.3,0-0.5-0.4-0.5-0.6c0-0.1,0.1-0.2,0.3-0.2c2-0.7,4.1-2,5.3-3.8
				c0.7-1.1,1.1-2.3,1.2-3.6c0-0.1,0-0.2,0-0.3c0-0.4-0.3-0.3-0.8-0.3h-5.7c-0.6,0-1.2,0-1.8,0c-0.3,0-0.3-0.2-0.3-0.5
				c0-0.3,0-0.4,0.3-0.4c0.6,0,1.2,0,1.8,0H44.5z M47.1,135c0.1,0.1,0.7,0.7,0.7,0.8c0,0.2-0.3,0.5-0.5,0.5c-0.1,0-0.2-0.1-0.2-0.2
				c-0.3-0.4-0.7-0.8-1-1.1c0,0-0.1-0.1-0.1-0.2c0-0.1,0.3-0.5,0.5-0.5C46.5,134.4,47,134.9,47.1,135z M48.4,133.9
				c0.1,0.1,0.7,0.7,0.7,0.8c0,0.2-0.3,0.5-0.5,0.5c-0.1,0-0.2-0.1-0.2-0.2c-0.3-0.4-0.7-0.8-1-1.1c-0.1,0-0.1-0.1-0.1-0.2
				c0-0.1,0.3-0.4,0.5-0.4C47.8,133.3,48.3,133.8,48.4,133.9z"/>
			<path class="st0" d="M53.3,136c0.1,0,0.3,0,0.3,0.2c0,0.1,0,0.1-0.1,0.2c-0.1,0.1-0.1,0.3-0.1,0.4c0,1,0,2-0.1,2.9
				c-0.2,2.1-1,3.9-2.7,5.4c0,0-0.1,0.1-0.2,0.1c-0.2,0-0.8-0.2-0.8-0.4c0-0.1,0.2-0.2,0.3-0.3c2.2-1.7,2.5-4.2,2.5-6.7
				c0-0.5,0-1-0.1-1.4c0,0,0-0.1,0-0.2c0-0.1,0.1-0.2,0.2-0.2C52.7,135.9,53.1,135.9,53.3,136z M56.7,143.5c0,0.1,0,0.3,0.2,0.3
				c0.1,0,0.3-0.1,0.4-0.2c1.3-0.9,3-2.3,4.2-3.4c0.1-0.1,0.2-0.2,0.3-0.2c0.2,0,0.5,0.4,0.5,0.6c0,0.1-0.2,0.3-0.3,0.4
				c-1.2,1.1-3.2,2.7-4.5,3.6c-0.1,0-0.1,0.1-0.2,0.1c-0.1,0.1-0.2,0.2-0.3,0.2s-0.5-0.2-0.7-0.3c-0.2-0.1-0.3-0.2-0.3-0.4
				c0-0.1,0.1-0.9,0.1-1.8v-4.6c0-0.7,0-1.3-0.1-2c0-0.1,0-0.2,0-0.2c0-0.1,0.1-0.2,0.2-0.2c0.2,0,0.7,0.1,0.8,0.2
				c0.1,0,0.2,0.1,0.2,0.2c0,0.1,0,0.1-0.1,0.2c-0.1,0.1-0.1,0.4-0.1,0.9V143.5z"/>
			<path class="st0" d="M71.9,136c0.6,0,1.2,0,1.2,0c0.3,0,0.7,0.5,0.7,0.6c0,0.2-0.1,0.2-0.2,0.9c-0.4,2.9-1.6,5-4,6.6
				c-0.8,0.6-1.7,1-2.7,1.4c-0.1,0.1-0.3,0.1-0.5,0.1c-0.3,0-0.5-0.4-0.5-0.6c0-0.1,0.1-0.2,0.3-0.2c2-0.7,4.1-2,5.3-3.8
				c0.7-1.1,1.1-2.3,1.2-3.6c0-0.1,0-0.2,0-0.3c0-0.4-0.3-0.3-0.8-0.3h-5.7c-0.6,0-1.2,0-1.8,0c-0.3,0-0.3-0.2-0.3-0.4
				c0-0.3,0-0.4,0.3-0.4c0.6,0,1.2,0,1.8,0H71.9z"/>
			<path class="st0" d="M85.2,136.3c0.4,0,0.7,0,1.1,0c0.7,0,0.9,0.2,0.9,0.7c0,0.4,0,0.8,0,1.2v5.1c0,0.5,0,1,0,1.5
				c0,0.3-0.1,0.4-0.5,0.4s-0.4-0.2-0.4-0.6c0-0.4-0.2-0.4-0.6-0.4h-6.4c-0.4,0-0.6,0-0.6,0.4c0,0.4,0,0.6-0.4,0.6
				c-0.5,0-0.5-0.1-0.5-0.4c0-0.5,0-1,0-1.5v-5.1c0-0.4,0-0.8,0-1.1c0-0.6,0.1-0.8,0.8-0.8c0.4,0,0.8,0,1.1,0H85.2z M78.8,137.1
				c-0.2,0-0.4,0.2-0.4,0.4v5.4c0,0.2,0.2,0.4,0.4,0.4h7c0.2,0,0.4-0.2,0.4-0.4v-5.4c0-0.2-0.2-0.4-0.4-0.4H78.8z"/>
			<path class="st0" d="M100.1,137.4c0.3,0,1,0,1.3,0c0,0,0.1,0,0.1,0c0.2,0,0.6,0.5,0.6,0.6c0,0.1-0.4,0.4-0.8,0.8
				c-1.4,1.4-2.7,2.7-4.2,3.9c-0.1,0.1-0.2,0.2-0.2,0.4c0,0.2,0.1,0.3,0.2,0.4c0.1,0.1,0.6,0.9,0.6,1c0,0.2-0.4,0.5-0.6,0.5
				c-0.1,0-0.2-0.1-0.3-0.2c-0.7-1.2-1.6-2.3-2.7-3.2c-0.1-0.1-0.2-0.2-0.2-0.3c0-0.2,0.3-0.5,0.5-0.5c0.2,0,1.3,1,1.5,1.2
				c0.1,0.1,0.2,0.2,0.3,0.2c0.2,0,0.3-0.1,0.4-0.2c1.3-1.1,2.6-2.3,3.7-3.5c0.1-0.1,0.1-0.1,0.1-0.2c0-0.2-0.2-0.1-0.4-0.1h-7.6
				c-0.6,0-1.2,0-1.8,0c-0.3,0-0.3-0.2-0.3-0.5c0-0.3,0-0.4,0.4-0.4c0.6,0,1.2,0,1.8,0H100.1z"/>
			<path class="st0" d="M113.3,139.7c0.6,0,1.2,0,1.8,0c0.3,0,0.4,0.1,0.4,0.5c0,0.3,0,0.5-0.3,0.5c-0.6,0-1.2,0-1.8,0h-6.9
				c-0.6,0-1.2,0-1.8,0c-0.3,0-0.3-0.2-0.3-0.5c0-0.4,0-0.5,0.4-0.5c0.6,0,1.2,0,1.8,0H113.3z"/>
			<path class="st0" d="M120.6,139.3c0.6,0.3,1,0.5,1,0.7c0,0.2-0.2,0.6-0.5,0.6c-0.1,0-0.2-0.1-0.3-0.2c-0.7-0.5-1.4-0.9-2.2-1.3
				c-0.1-0.1-0.2-0.1-0.2-0.2c0-0.2,0.2-0.6,0.4-0.6C119,138.4,120.3,139.2,120.6,139.3z M128.6,137.7c0,0.1-0.1,0.5-0.2,0.6
				c-0.6,1.4-1.6,3.1-2.7,4.2c-1.4,1.3-3.2,2.3-5,2.9c-0.2,0.1-0.3,0.1-0.5,0.3c0,0.1-0.1,0.2-0.2,0.2c-0.2,0-0.2-0.2-0.3-0.4
				c0-0.1-0.2-0.5-0.2-0.6c0-0.1,0.2-0.2,0.3-0.2c0.5-0.1,1.3-0.4,1.8-0.6c1.5-0.6,2.7-1.3,3.8-2.5c1.2-1.2,1.9-2.7,2.5-4.3
				c0-0.1,0.1-0.3,0.2-0.3C128.3,137.1,128.6,137.5,128.6,137.7z M122.2,136c0.2,0.1,0.9,0.7,1,0.8c0,0,0.1,0.1,0.1,0.2
				c0,0.2-0.2,0.6-0.5,0.6c-0.1,0-0.2-0.1-0.3-0.2c-0.6-0.5-1.3-1-1.9-1.4c-0.1-0.1-0.2-0.1-0.2-0.2c0-0.2,0.3-0.5,0.5-0.5
				C120.9,135.1,121.9,135.8,122.2,136z M125.8,134.7c0.1,0,0.7,0.5,0.8,0.6c0.1,0.1,0.8,0.6,0.8,0.7c0,0.2-0.3,0.5-0.5,0.5
				c-0.1,0-0.2-0.1-0.2-0.1c-0.4-0.4-0.8-0.7-1.2-1c-0.1,0-0.2-0.1-0.2-0.2C125.4,135,125.7,134.7,125.8,134.7z M127,133.5
				c0.1,0,0.7,0.5,0.8,0.6c0.1,0.1,0.8,0.6,0.8,0.7c0,0.2-0.3,0.5-0.5,0.5c-0.1,0-0.1-0.1-0.2-0.1c-0.4-0.4-0.8-0.7-1.2-1
				c0,0-0.2-0.1-0.2-0.2C126.6,133.8,126.9,133.5,127,133.5z"/>
			<path class="st0" d="M136.9,138.6c0.3,0,0.6,0,0.9,0c0.3,0,0.7,0.1,0.7,0.5c0,0.2-0.1,0.8-0.1,1l-0.4,3.2c0,0.2,0.1,0.4,0.4,0.4
				h0.7c0.5,0,0.9,0,1.3,0c0.3,0,0.4,0.1,0.4,0.4c0,0.2,0,0.4-0.3,0.4c-0.5,0-0.9,0-1.4,0h-6.3c-0.5,0-0.9,0-1.4,0
				c-0.3,0-0.3-0.2-0.3-0.4c0-0.3,0-0.4,0.3-0.4c0.4,0,0.9,0,1.4,0h3.9c0.2,0,0.4-0.2,0.4-0.4l0.4-3.3c0-0.1,0-0.3,0-0.4
				c0-0.2-0.2-0.4-0.4-0.4h-2.5c-0.5,0-1.2,0-1.4,0c-0.3,0-0.3-0.2-0.3-0.4c0-0.2,0-0.4,0.3-0.4c0.3,0,0.8,0,1.3,0H136.9z"/>
			<path class="st0" d="M147,145.4c0,0.2-0.4,0.7-0.6,0.7c-0.1,0-0.2-0.1-0.3-0.2c-0.6-0.8-1.4-1.5-2.2-2c-0.1-0.1-0.2-0.1-0.2-0.3
				c0-0.2,0.4-0.6,0.6-0.6C144.6,143.1,147,145.1,147,145.4z"/>
			<path class="st0" d="M156.8,138.9c0.3,0.2,1.2,0.7,1.4,0.9c0.1,0,0.1,0.1,0.1,0.2c0,0.2-0.2,0.6-0.5,0.6c-0.1,0-0.2-0.1-0.3-0.2
				c-0.7-0.5-1.5-0.9-2.2-1.4c-0.1,0-0.2-0.1-0.2-0.2c0-0.2,0.2-0.6,0.4-0.6C155.8,138.2,156.6,138.8,156.8,138.9z M165.4,137.6
				c0,0.1-0.1,0.5-0.2,0.6c-0.6,1.4-1.6,3.1-2.7,4.2c-1.4,1.3-3.2,2.3-5,2.9c-0.2,0.1-0.3,0.1-0.5,0.3c0,0.1-0.1,0.2-0.2,0.2
				c-0.2,0-0.2-0.2-0.3-0.4c0-0.1-0.2-0.5-0.2-0.6c0-0.1,0.2-0.2,0.3-0.2c0.5-0.1,1.3-0.4,1.8-0.6c1.5-0.6,2.7-1.3,3.8-2.5
				c1.2-1.2,1.9-2.7,2.5-4.3c0-0.1,0.1-0.3,0.2-0.3C165,137,165.4,137.4,165.4,137.6z M158.5,135.5c0.2,0.2,1.3,0.9,1.4,1
				c0.1,0,0.1,0.1,0.1,0.2c0,0.2-0.2,0.6-0.5,0.6c-0.1,0-0.2-0.1-0.3-0.2c-0.6-0.5-1.3-1-1.9-1.4c-0.1-0.1-0.2-0.1-0.2-0.2
				c0-0.2,0.3-0.5,0.5-0.5C157.7,135,158.3,135.4,158.5,135.5z"/>
			<path class="st0" d="M174.1,138.1c0.3,0,0.6,0,0.8,0c0.9,0,0.7,0.3,0.7,1.5v4.7c0,0.3,0,0.6,0,0.9c0,0.3-0.2,0.4-0.5,0.4
				c-0.3,0-0.4-0.1-0.4-0.3c0-0.2,0-0.2-0.4-0.2h-4c-0.5,0-1.2,0-1.4,0c-0.3,0-0.3-0.2-0.3-0.4c0-0.2,0-0.4,0.3-0.4
				c0.3,0,0.8,0,1.4,0h4.1c0.2,0,0.4-0.2,0.4-0.4v-1.5c0-0.2-0.2-0.4-0.4-0.4h-3.9c-0.5,0-1.1,0-1.4,0c-0.3,0-0.3-0.2-0.3-0.4
				c0-0.2,0-0.4,0.3-0.4c0.2,0,0.9,0,1.4,0h3.9c0.2,0,0.4-0.2,0.4-0.4v-1.5c0-0.2-0.2-0.4-0.4-0.4h-4c-0.5,0-1.1,0-1.4,0
				c-0.3,0-0.3-0.2-0.3-0.4c0-0.2,0-0.4,0.3-0.4c0.3,0,0.9,0,1.3,0H174.1z"/>
			<path class="st0" d="M187.3,136.6c0.4,0,0.7,0,1.1,0c0.7,0,0.9,0.1,0.9,0.7c0,0.4,0,0.8,0,1.2v5c0,0.5,0,1.1,0,1.3
				c0,0.3-0.2,0.3-0.5,0.3c-0.5,0-0.5-0.1-0.5-0.3c0-0.4-0.3-0.3-0.6-0.3h-5.4c-0.6,0-1.4,0-1.8,0c-0.3,0-0.3-0.2-0.3-0.5
				s0-0.4,0.3-0.4c0.3,0,1.1,0,1.7,0h5.7c0.2,0,0.4-0.2,0.4-0.4v-5.4c0-0.2-0.2-0.4-0.4-0.4h-5.7c-0.6,0-1.5,0-1.7,0
				c-0.3,0-0.3-0.1-0.3-0.5c0-0.3,0-0.4,0.3-0.4c0.4,0,1,0,1.8,0H187.3z"/>
			<path class="st0" d="M201.3,138.2c0.3,0,0.7,0,1,0c0.1,0,0.2,0,0.2,0c0.3,0,0.7,0.5,0.7,0.6c0,0.1-0.2,0.7-0.2,0.7
				c-0.7,2.4-2.6,4.6-4.6,6c-0.3,0.2-1.4,0.9-1.8,0.9c-0.2,0-0.5-0.3-0.5-0.5c0-0.2,0.2-0.3,0.4-0.3c2.2-1,4.1-2.9,5.2-5
				c0.1-0.2,0.5-1,0.5-1.2c0-0.2,0-0.3-0.8-0.3h-6.2c-0.6,0-1.2,0-1.8,0c-0.3,0-0.3-0.2-0.3-0.4c0-0.4,0.1-0.4,0.4-0.4
				c0.6,0,1.2,0,1.8,0H201.3z M199.8,135c0.5,0,1.1,0,1.5,0c0.3,0,0.4,0.1,0.4,0.5c0,0.3,0,0.4-0.3,0.4c-0.5,0-1,0-1.5,0H196
				c-0.5,0-1,0-1.5,0c-0.3,0-0.3-0.1-0.3-0.4c0-0.3,0-0.5,0.3-0.5c0.5,0,1,0,1.5,0H199.8z"/>
			<path class="st0" d="M210.1,143.8c0,0.8,0,1.5,0,2.2c0,0.5,0,0.6-0.5,0.6c-0.4,0-0.5-0.2-0.5-0.6c0-0.8,0-1.5,0-2.2v-7.2
				c0-0.5,0-1.4-0.1-1.9c0-0.1,0-0.2,0-0.3c0-0.1,0-0.2,0.2-0.2c0.3,0,1.1,0.2,1.1,0.3c0,0.1,0,0.1-0.1,0.2
				c-0.2,0.2-0.1,1.5-0.1,1.8V143.8z M212.9,139.8c0.2,0.2,1.2,0.9,1.2,1.1c0,0.2-0.3,0.5-0.5,0.5c-0.1,0-0.2-0.1-0.3-0.2
				c-0.8-0.7-1.5-1.3-2.4-1.9c-0.1-0.1-0.3-0.2-0.3-0.3c0-0.2,0.3-0.5,0.5-0.5C211.3,138.6,212.6,139.6,212.9,139.8z M214.2,136
				c0.1,0.1,0.6,0.7,0.6,0.8c0,0.2-0.3,0.5-0.5,0.5c-0.1,0-0.2-0.1-0.2-0.2c-0.3-0.4-0.7-0.8-1-1.2c0-0.1-0.1-0.1-0.1-0.2
				c0-0.1,0.3-0.4,0.5-0.4C213.6,135.3,214.1,135.9,214.2,136z M215.6,135.1c0.1,0.1,0.6,0.7,0.6,0.8c0,0.2-0.3,0.5-0.5,0.5
				c-0.1,0-0.2-0.1-0.2-0.2c-0.2-0.3-0.7-0.9-1-1.2c0,0-0.1-0.1-0.1-0.2c0-0.1,0.3-0.5,0.5-0.5C215,134.5,215.5,135,215.6,135.1z"/>
			<path class="st0" d="M221.3,139c0.2,0,0.4-0.2,0.4-0.4v-0.5c0-0.3,0-0.8-0.1-1.1c0,0,0-0.1,0-0.2c0-0.1,0.1-0.2,0.2-0.2
				c0.2,0,0.9,0,0.9,0.3c0,0.1-0.1,0.2-0.1,0.2c-0.1,0.1-0.1,0.4-0.1,0.9v0.5c0,0.2,0.2,0.4,0.4,0.4h1.7c0.5,0,0.9,0,1,0
				c0.3,0,0.6,0.4,0.6,0.5c0,0.2-0.1,0.1-0.2,0.7c-0.1,0.7-0.3,1.4-0.5,2c-0.5,1.2-1,2-2,2.9c-0.3,0.3-1.8,1.4-2.1,1.4
				c-0.2,0-0.5-0.3-0.5-0.5c0-0.2,0.1-0.2,0.3-0.3c0.5-0.3,1.1-0.6,1.6-1c1.1-0.9,1.8-2,2.2-3.4c0.1-0.3,0.2-0.9,0.2-1.2
				c0-0.4-0.4-0.4-0.5-0.4h-5c-0.2,0-0.4,0.2-0.4,0.4v1.4c0,0.3,0,0.7,0,0.8c0,0.3-0.2,0.3-0.5,0.3c-0.2,0-0.4,0-0.4-0.3
				c0-0.3,0-0.5,0-0.8V140c0-0.2,0-0.4,0-0.6c0-0.4,0.1-0.5,0.6-0.5c0.3,0,0.6,0,1,0H221.3z"/>
			<path class="st0" d="M237.3,139.7c0.6,0,1.2,0,1.8,0c0.3,0,0.4,0.1,0.4,0.5c0,0.3,0,0.5-0.3,0.5c-0.6,0-1.2,0-1.8,0h-6.9
				c-0.6,0-1.2,0-1.8,0c-0.3,0-0.3-0.2-0.3-0.5c0-0.4,0-0.5,0.4-0.5c0.6,0,1.2,0,1.8,0H237.3z"/>
			<path class="st0" d="M250.2,136.1c0.6,0,1.2,0,1.2,0c0.3,0,0.7,0.5,0.7,0.6c0,0.2-0.1,0.2-0.2,0.9c-0.4,2.8-1.6,5-4,6.6
				c-0.8,0.6-1.7,1-2.7,1.4c-0.1,0.1-0.3,0.1-0.5,0.1c-0.3,0-0.5-0.4-0.5-0.6c0-0.1,0.1-0.2,0.3-0.2c2-0.7,4.1-2,5.3-3.8
				c0.7-1.1,1.1-2.3,1.2-3.6c0-0.1,0-0.2,0-0.3c0-0.4-0.3-0.3-0.8-0.3h-5.7c-0.6,0-1.2,0-1.8,0c-0.3,0-0.3-0.2-0.3-0.5
				c0-0.3,0-0.4,0.3-0.4c0.6,0,1.2,0,1.8,0H250.2z M252.8,135c0.1,0.1,0.7,0.7,0.7,0.8c0,0.2-0.3,0.5-0.5,0.5
				c-0.1,0-0.2-0.1-0.2-0.2c-0.3-0.4-0.7-0.8-1-1.1c0,0-0.1-0.1-0.1-0.2c0-0.1,0.3-0.5,0.5-0.5C252.2,134.4,252.7,134.9,252.8,135z
				 M254.1,133.9c0.1,0.1,0.7,0.7,0.7,0.8c0,0.2-0.3,0.5-0.5,0.5c-0.1,0-0.2-0.1-0.2-0.2c-0.3-0.4-0.7-0.8-1-1.1
				c-0.1,0-0.1-0.1-0.1-0.2c0-0.1,0.3-0.4,0.5-0.4C253.5,133.3,254,133.8,254.1,133.9z"/>
			<path class="st0" d="M258.9,136c0.1,0,0.3,0,0.3,0.2c0,0.1,0,0.1-0.1,0.2c-0.1,0.1-0.1,0.3-0.1,0.4c0,1,0,2-0.1,2.9
				c-0.2,2.1-1,3.9-2.7,5.4c0,0-0.1,0.1-0.2,0.1c-0.2,0-0.8-0.2-0.8-0.4c0-0.1,0.2-0.2,0.3-0.3c2.2-1.7,2.5-4.2,2.5-6.7
				c0-0.5,0-1-0.1-1.4c0,0,0-0.1,0-0.2c0-0.1,0.1-0.2,0.2-0.2C258.4,135.9,258.8,135.9,258.9,136z M262.4,143.5c0,0.1,0,0.3,0.2,0.3
				c0.1,0,0.3-0.1,0.4-0.2c1.3-0.9,3-2.3,4.2-3.4c0.1-0.1,0.2-0.2,0.3-0.2c0.2,0,0.5,0.4,0.5,0.6c0,0.1-0.2,0.3-0.3,0.4
				c-1.2,1.1-3.2,2.7-4.5,3.6c-0.1,0-0.1,0.1-0.2,0.1c-0.1,0.1-0.2,0.2-0.3,0.2s-0.5-0.2-0.7-0.3c-0.2-0.1-0.3-0.2-0.3-0.4
				c0-0.1,0.1-0.9,0.1-1.8v-4.6c0-0.7,0-1.3-0.1-2c0-0.1,0-0.2,0-0.2c0-0.1,0.1-0.2,0.2-0.2c0.2,0,0.7,0.1,0.8,0.2
				c0.1,0,0.2,0.1,0.2,0.2c0,0.1,0,0.1-0.1,0.2c-0.1,0.1-0.1,0.4-0.1,0.9V143.5z"/>
			<path class="st0" d="M272.9,145.4c0,0.2-0.4,0.7-0.6,0.7c-0.1,0-0.2-0.1-0.3-0.2c-0.6-0.8-1.4-1.5-2.2-2
				c-0.1-0.1-0.2-0.1-0.2-0.3c0-0.2,0.4-0.6,0.6-0.6C270.5,143.1,272.9,145.1,272.9,145.4z"/>
			<path class="st0" d="M8.8,158.7c0,0.1-0.1,0.2-0.2,0.3c-0.1,0-0.1,0.3-0.2,0.3c-0.4,1.2-1,2.4-1.6,3.4c-0.1,0.1-0.1,0.2-0.1,0.3
				c0,0.3,0.3,0.4,1.4,1.4c0.1,0.1,0.1,0.1,0.1,0.2c0,0.2-0.3,0.6-0.5,0.6c-0.2,0-0.3-0.2-0.4-0.3c-0.2-0.2-0.8-0.9-1.1-0.9
				c-0.2,0-0.3,0.1-0.4,0.3c-1,1.3-2.2,2.3-3.6,3.1c-0.2,0.2-1.5,0.8-1.7,0.8c-0.3,0-0.5-0.4-0.5-0.5s0.2-0.2,0.5-0.3
				c1.8-0.8,3.4-1.9,4.6-3.4c0.1-0.1,0.3-0.3,0.3-0.5c0-0.1-0.1-0.2-0.2-0.3c-0.4-0.3-1.7-0.7-2.2-0.9c-0.2,0-0.3-0.1-0.3-0.3
				c0-0.2,0.1-0.6,0.4-0.6c0.4,0,2,0.7,2.4,0.9c0.1,0.1,0.2,0.1,0.3,0.1c0.3,0,0.3-0.2,0.5-0.4c0.5-0.9,1.3-2.7,1.5-3.7
				c0-0.1,0-0.3,0.1-0.3C7.8,158.2,8.8,158.4,8.8,158.7z"/>
			<path class="st0" d="M20.9,159.1c0.4,0,0.7,0,1.1,0c0.7,0,0.9,0.2,0.9,0.7c0,0.4,0,0.8,0,1.2v5.1c0,0.5,0,1,0,1.5
				c0,0.3-0.1,0.4-0.5,0.4s-0.4-0.2-0.4-0.6c0-0.4-0.2-0.4-0.6-0.4h-6.4c-0.4,0-0.6,0-0.6,0.4c0,0.4,0,0.6-0.4,0.6
				c-0.5,0-0.5-0.1-0.5-0.4c0-0.5,0-1,0-1.5V161c0-0.4,0-0.8,0-1.1c0-0.6,0.1-0.8,0.8-0.8c0.4,0,0.8,0,1.1,0H20.9z M14.5,159.9
				c-0.2,0-0.4,0.2-0.4,0.4v5.4c0,0.2,0.2,0.4,0.4,0.4h7c0.2,0,0.4-0.2,0.4-0.4v-5.4c0-0.2-0.2-0.4-0.4-0.4H14.5z"/>
			<path class="st0" d="M37.4,161.4c0,0.2-0.7,0.9-0.9,1.1c-1,1-2.4,2.2-3.5,3c-1.4,1-2.8,1.8-4.4,2.5c-0.4,0.2-0.4,0.2-0.5,0.5
				c0,0.1-0.1,0.1-0.2,0.1c-0.2,0-0.2-0.2-0.3-0.4c-0.1-0.1-0.3-0.5-0.3-0.6c0-0.1,0.2-0.2,0.4-0.2c1.9-0.6,4.3-2.1,5.9-3.3
				c0.9-0.8,2.5-2.2,3.3-3.1c0-0.1,0.1-0.2,0.2-0.2C37.2,160.7,37.4,161.2,37.4,161.4z M28.1,158.2c0.5,0.3,1,0.7,1.5,1
				c0.3,0.3,0.7,0.5,0.7,0.7c0,0.2-0.3,0.6-0.5,0.6c-0.1,0-0.5-0.3-0.6-0.4c-0.5-0.4-1-0.8-1.6-1.2c-0.1-0.1-0.2-0.1-0.2-0.2
				c0-0.1,0.3-0.6,0.5-0.6C28,158.1,28,158.1,28.1,158.2z"/>
			<path class="st0" d="M43,166.6c0,0.8,0,1.5,0,2.2c0,0.5,0,0.6-0.5,0.6c-0.4,0-0.5-0.2-0.5-0.6c0-0.8,0-1.5,0-2.2v-7.2
				c0-0.5,0-1.4-0.1-1.9c0-0.1,0-0.2,0-0.3c0-0.1,0-0.2,0.2-0.2c0.3,0,1.1,0.2,1.1,0.3c0,0.1,0,0.1-0.1,0.2
				c-0.2,0.2-0.1,1.5-0.1,1.8V166.6z M45.7,162.6c0.2,0.2,1.2,0.9,1.2,1.1c0,0.2-0.3,0.5-0.5,0.5c-0.1,0-0.2-0.1-0.3-0.2
				c-0.8-0.7-1.5-1.3-2.4-1.9c-0.1-0.1-0.3-0.2-0.3-0.3c0-0.2,0.3-0.5,0.5-0.5C44.2,161.4,45.5,162.4,45.7,162.6z M47,158.8
				c0.1,0.1,0.6,0.7,0.6,0.8c0,0.2-0.3,0.5-0.5,0.5c-0.1,0-0.2-0.1-0.2-0.2c-0.3-0.4-0.7-0.8-1-1.2c0-0.1-0.1-0.1-0.1-0.2
				c0-0.1,0.3-0.4,0.5-0.4C46.4,158.1,46.9,158.7,47,158.8z M48.4,157.9c0.1,0.1,0.6,0.7,0.6,0.8c0,0.2-0.3,0.5-0.5,0.5
				c-0.1,0-0.2-0.1-0.2-0.2c-0.2-0.3-0.7-0.9-1-1.2c0,0-0.1-0.1-0.1-0.2c0-0.1,0.3-0.5,0.5-0.5C47.8,157.3,48.3,157.8,48.4,157.9z"
				/>
			<path class="st0" d="M54.2,161.8c0.2,0,0.4-0.2,0.4-0.4V161c0-0.3,0-0.8-0.1-1.1c0,0,0-0.1,0-0.2c0-0.1,0.1-0.2,0.2-0.2
				c0.2,0,0.9,0,0.9,0.3c0,0.1-0.1,0.2-0.1,0.2c-0.1,0.1-0.1,0.4-0.1,0.9v0.5c0,0.2,0.2,0.4,0.4,0.4h1.7c0.5,0,0.9,0,1,0
				c0.3,0,0.6,0.4,0.6,0.5c0,0.2-0.1,0.1-0.2,0.7c-0.1,0.7-0.3,1.4-0.5,2c-0.5,1.2-1,2-2,2.9c-0.3,0.3-1.8,1.4-2.1,1.4
				c-0.2,0-0.5-0.3-0.5-0.5c0-0.2,0.1-0.2,0.3-0.3c0.5-0.3,1.1-0.6,1.6-1c1.1-0.9,1.8-2,2.2-3.4c0.1-0.3,0.2-0.9,0.2-1.2
				c0-0.4-0.4-0.4-0.5-0.4h-5c-0.2,0-0.4,0.2-0.4,0.4v1.4c0,0.3,0,0.7,0,0.8c0,0.3-0.2,0.3-0.5,0.3c-0.2,0-0.4,0-0.4-0.3
				c0-0.3,0-0.5,0-0.8v-1.5c0-0.2,0-0.4,0-0.6c0-0.4,0.1-0.5,0.6-0.5c0.3,0,0.6,0,1,0H54.2z"/>
			<path class="st0" d="M70.1,162.5c0.6,0,1.2,0,1.8,0c0.3,0,0.4,0.1,0.4,0.5c0,0.3,0,0.5-0.3,0.5c-0.6,0-1.2,0-1.8,0h-6.9
				c-0.6,0-1.2,0-1.8,0c-0.3,0-0.3-0.2-0.3-0.5c0-0.4,0-0.5,0.4-0.5c0.6,0,1.2,0,1.8,0H70.1z"/>
			<path class="st0" d="M83,158.9c0.6,0,1.2,0,1.2,0c0.3,0,0.7,0.5,0.7,0.6c0,0.2-0.1,0.2-0.2,0.9c-0.4,2.8-1.6,5-4,6.6
				c-0.8,0.6-1.7,1-2.7,1.4c-0.1,0.1-0.3,0.1-0.5,0.1c-0.3,0-0.5-0.4-0.5-0.6c0-0.1,0.1-0.2,0.3-0.2c2-0.7,4.1-2,5.3-3.8
				c0.7-1.1,1.1-2.3,1.2-3.6c0-0.1,0-0.2,0-0.3c0-0.4-0.3-0.3-0.8-0.3h-5.7c-0.6,0-1.2,0-1.8,0c-0.3,0-0.3-0.2-0.3-0.5
				c0-0.3,0-0.4,0.3-0.4c0.6,0,1.2,0,1.8,0H83z M85.7,157.8c0.1,0.1,0.7,0.7,0.7,0.8c0,0.2-0.3,0.5-0.5,0.5c-0.1,0-0.2-0.1-0.2-0.2
				c-0.3-0.4-0.7-0.8-1-1.1c0,0-0.1-0.1-0.1-0.2c0-0.1,0.3-0.5,0.5-0.5C85.1,157.2,85.6,157.7,85.7,157.8z M86.9,156.7
				c0.1,0.1,0.7,0.7,0.7,0.8c0,0.2-0.3,0.5-0.5,0.5c-0.1,0-0.2-0.1-0.2-0.2c-0.3-0.4-0.7-0.8-1-1.1c-0.1,0-0.1-0.1-0.1-0.2
				c0-0.1,0.3-0.4,0.5-0.4C86.3,156.1,86.8,156.6,86.9,156.7z"/>
			<path class="st0" d="M91.8,158.8c0.1,0,0.3,0,0.3,0.2c0,0.1,0,0.1-0.1,0.2c-0.1,0.1-0.1,0.3-0.1,0.4c0,1,0,2-0.1,2.9
				c-0.2,2.1-1,3.9-2.7,5.4c0,0-0.1,0.1-0.2,0.1c-0.2,0-0.8-0.2-0.8-0.4c0-0.1,0.2-0.2,0.3-0.3c2.2-1.7,2.5-4.2,2.5-6.7
				c0-0.5,0-1-0.1-1.4c0,0,0-0.1,0-0.2c0-0.1,0.1-0.2,0.2-0.2C91.2,158.7,91.6,158.7,91.8,158.8z M95.3,166.3c0,0.1,0,0.3,0.2,0.3
				c0.1,0,0.3-0.1,0.4-0.2c1.3-0.9,3-2.3,4.2-3.4c0.1-0.1,0.2-0.2,0.3-0.2c0.2,0,0.5,0.4,0.5,0.6c0,0.1-0.2,0.3-0.3,0.4
				c-1.2,1.1-3.2,2.7-4.5,3.6c-0.1,0-0.1,0.1-0.2,0.1c-0.1,0.1-0.2,0.2-0.3,0.2s-0.5-0.2-0.7-0.3c-0.2-0.1-0.3-0.2-0.3-0.4
				c0-0.1,0.1-0.9,0.1-1.8v-4.6c0-0.7,0-1.3-0.1-2c0-0.1,0-0.2,0-0.2c0-0.1,0.1-0.2,0.2-0.2c0.2,0,0.7,0.1,0.8,0.2
				c0.1,0,0.2,0.1,0.2,0.2c0,0.1,0,0.1-0.1,0.2c-0.1,0.1-0.1,0.4-0.1,0.9V166.3z"/>
			<path class="st0" d="M112.3,159.7c1,1,1.4,2.2,1.4,3.5c0,2-1,3.8-2.8,4.7c-0.3,0.2-1.1,0.5-1.5,0.5c-0.2,0-0.6-0.5-0.6-0.6
				c0-0.1,0.1-0.2,0.2-0.2c2.2-0.4,3.8-2.1,3.8-4.3c0-1.9-1.2-3.6-3.1-4.1c-0.2,0-0.5-0.1-0.7-0.1c-0.4,0-0.4,0.4-0.4,0.6
				c-0.1,2.2-0.7,5.2-2.1,6.9c-0.4,0.5-1,1-1.7,1c-0.8,0-1.4-0.6-1.8-1.3c-0.3-0.6-0.4-1.4-0.4-2c0-3.4,2.6-6.1,6-6.1
				C110,158.3,111.3,158.7,112.3,159.7z M107,159.3c-2.2,0.8-3.6,2.7-3.6,5c0,0.8,0.3,2.5,1.3,2.5c0.9,0,1.8-1.6,2.1-2.4
				c0.6-1.5,0.8-3.1,0.9-4.7c0,0,0-0.1,0-0.2c0-0.2-0.1-0.3-0.3-0.3C107.4,159.2,107.1,159.3,107,159.3z"/>
			<path class="st0" d="M120.4,163c0,0,0.1,0.1,0.2,0.1c1.3,0.4,1.9,1.2,1.9,2.4c0,1.5-1.2,3.1-4,3.1c-1,0-1.8-0.2-2.3-0.5
				c-0.2-0.1-0.3-0.2-0.3-0.3c0-0.1,0-0.1,0-0.2l0.1-0.2c0.1-0.2,0.1-0.3,0.2-0.3c0.1,0,0.1,0,0.2,0.1c0.5,0.3,1.2,0.5,2.1,0.5
				c2.1,0,3-1.2,3-2.3c0-1.2-0.9-2-3-2c-0.3,0-0.8,0-1,0c-0.3,0-0.4,0-0.4-0.4V163c0-0.3,0.1-0.4,0.4-0.4c0.1,0,0.6,0,0.8,0
				c2,0,2.7-1,2.7-2c0-1-0.8-1.7-2.1-1.7c-0.9,0-1.6,0.3-2.1,0.6c-0.1,0.1-0.2,0.1-0.3,0.1c-0.1,0-0.1-0.1-0.2-0.2l-0.1-0.2
				c0-0.1-0.1-0.2-0.1-0.3c0-0.1,0.1-0.2,0.3-0.3c0.6-0.3,1.5-0.6,2.5-0.6c2,0,2.9,1.1,2.9,2.4c0,0.7-0.3,1.7-1.4,2.2
				C120.5,162.9,120.4,162.9,120.4,163z"/>
			<path class="st0" d="M125.6,162.2c0-0.1,0-0.1-0.1-0.1c0,0-0.1,0-0.1,0.1c-0.2,0.4-0.5,1-0.8,1.3c-0.1,0.1-0.2,0.2-0.3,0.2
				c-0.2,0-0.5-0.2-0.5-0.4c0-0.1,0.1-0.3,0.2-0.4c1-1.5,2.3-4.5,2.7-6.3c0-0.1,0-0.3,0.2-0.3c0.1,0,0.3,0.1,0.3,0.1
				c0.4,0.1,0.6,0.2,0.6,0.3c0,0.1-0.1,0.2-0.2,0.2c-0.2,0.1-0.2,0.2-0.3,0.5c-0.3,0.8-0.6,1.9-1,2.7c0,0,0,0,0,0.1
				c0,0.1,0.1,0.1,0.2,0.2c0.1,0,0.3,0,0.3,0.2c0,0.1-0.1,0.1-0.2,0.2c-0.2,0.1-0.2,0.4-0.2,1.5v5.3c0,0.6,0,1.2,0,1.7
				c0,0.3,0,0.6-0.4,0.6c-0.4,0-0.4-0.2-0.4-0.5c0-0.6,0-1.2,0-1.8V162.2z M129.7,169c-0.2,0-0.3,0.1-0.3,0.3c0,0.3,0,0.5-0.4,0.5
				c-0.3,0-0.4-0.1-0.4-0.4c0-0.5,0-1,0-1.5v-8.5c0-0.4,0-0.8,0-1.2c0-0.6,0.1-0.8,0.7-0.8c0.3,0,0.6,0,1,0h4.9c0.3,0,0.6,0,0.9,0
				c0.6,0,0.7,0.1,0.7,0.7c0,0.4,0,0.9,0,1.3v8.4c0,0.5,0,1,0,1.5c0,0.3-0.1,0.4-0.4,0.4c-0.4,0-0.4-0.2-0.4-0.4
				c0-0.2-0.1-0.3-0.3-0.3H129.7z M136,158.5c0-0.3-0.1-0.4-0.4-0.4h-5.8c-0.3,0-0.4,0.1-0.4,0.4v9.3c0,0.3,0.1,0.4,0.4,0.4h5.8
				c0.3,0,0.4-0.1,0.4-0.4V158.5z M133.7,166.8h-1.9c-0.1,0-0.2,0.1-0.3,0.2c-0.1,0.1-0.2,0.1-0.4,0.1c-0.4,0-0.4-0.1-0.4-0.4v-3.2
				c0-0.4,0.1-0.6,0.6-0.6c0.1,0,0.3,0,0.5,0h0.2c0.3,0,0.4-0.1,0.4-0.4v-1c0-0.3-0.1-0.4-0.4-0.4h-0.4c-0.4,0-0.8,0-1.3,0
				c-0.3,0-0.3-0.2-0.3-0.4c0-0.2,0-0.4,0.3-0.4c0.4,0,0.9,0,1.3,0h0.4c0.3,0,0.4-0.1,0.4-0.4c0-0.4,0-0.7-0.1-1.1c0,0,0-0.1,0-0.1
				c0-0.2,0.1-0.2,0.2-0.2c0.2,0,0.3,0,0.4,0c0.3,0,0.6,0,0.6,0.2c0,0.1-0.1,0.1-0.2,0.2c-0.2,0.1-0.2,0.3-0.2,1
				c0,0.3,0.1,0.4,0.4,0.4h0.3c0.4,0,0.9,0,1.3,0c0.3,0,0.3,0.2,0.3,0.4c0,0.2,0,0.4-0.3,0.4c-0.4,0-0.8,0-1.3,0h-0.3
				c-0.3,0-0.4,0.1-0.4,0.4v1c0,0.3,0.1,0.4,0.4,0.4h0.1c0.2,0,0.3,0,0.4,0c0.5,0,0.6,0.2,0.6,0.7c0,0.2,0,0.4,0,0.6v1.8
				c0,0.3,0,0.5,0,0.8s0,0.4-0.4,0.4c-0.2,0-0.3,0-0.4-0.1C133.8,166.8,133.8,166.8,133.7,166.8z M133.5,166c0.3,0,0.4-0.2,0.4-0.4
				v-1.5c0-0.3-0.1-0.4-0.4-0.4h-1.5c-0.3,0-0.4,0.2-0.4,0.4v1.5c0,0.2,0.2,0.4,0.4,0.4H133.5z"/>
			<path class="st0" d="M144.2,165c0,1.9-0.2,2.2,2,2.2c1.1,0,2.5-0.1,3.6-0.2h0.1c0.2,0,0.2,0.1,0.2,0.3c0,0.5-0.1,0.6-0.3,0.7
				c-0.6,0.1-2.6,0.1-3.3,0.1c-0.7,0-2.1,0.1-2.7-0.3c-0.5-0.3-0.5-0.8-0.5-1.4c0-0.4,0-0.8,0-1.2v-2.3c0-0.2-0.1-0.3-0.3-0.3H143
				l-1.3,0.3c-0.2,0-1.9,0.4-1.9,0.4c-0.3,0-0.3-0.5-0.3-0.6c0-0.3,0.3-0.2,2.1-0.6l1.5-0.3c0.2,0,0.3-0.2,0.3-0.4v-1.7
				c0-0.4,0-1.5-0.1-1.9c0-0.1,0-0.1,0-0.2c0-0.1,0.1-0.1,0.2-0.1c0.1,0,1,0.1,1,0.3c0,0.1-0.1,0.1-0.1,0.2
				c-0.1,0.1-0.1,0.2-0.1,0.4c0,0.3,0,0.9,0,1.3v1.5c0,0.2,0.2,0.3,0.4,0.3l3.9-0.8c0.2,0,1.6-0.3,1.6-0.3c0.2,0,0.7,0.4,0.7,0.6
				c0,0.1-0.1,0.2-0.2,0.3c-0.5,0.5-0.9,1.1-1.4,1.6c-0.4,0.5-0.8,1-1.3,1.5c-0.1,0.1-0.2,0.3-0.5,0.3c-0.2,0-0.7-0.2-0.7-0.5
				c0-0.1,0.1-0.2,0.1-0.2c0.8-0.7,1.6-1.6,2.3-2.4c0,0,0-0.1,0-0.1c0-0.1,0-0.1-0.1-0.1c-0.1,0-0.6,0.1-0.7,0.1l-3.9,0.8
				c-0.3,0.1-0.4,0.2-0.4,0.5V165z"/>
			<path class="st0" d="M155.6,162.5c0.1,0.2,0.6,0.9,0.6,1.1c0,0.3-0.4,0.4-0.5,0.4c-0.1,0-0.2-0.1-0.3-0.2c-0.3-0.6-0.6-1.1-1-1.6
				c-0.1-0.1-0.1-0.2-0.1-0.3c0-0.2,0.3-0.4,0.5-0.4C155,161.5,155.4,162.1,155.6,162.5z M162.6,161.4c0,0.1-0.1,0.2-0.2,0.2
				c-0.1,0-0.1,0.1-0.1,0.2c-0.2,0.7-0.6,1.7-0.9,2.4c-0.7,1.5-1.7,2.6-3.1,3.5c-0.5,0.3-1.9,1-2.4,1c-0.2,0-0.5-0.3-0.5-0.5
				c0-0.2,0.2-0.2,0.3-0.3c1.1-0.3,2.2-0.7,3.1-1.5c0.9-0.7,1.6-1.7,2.1-2.7c0.3-0.7,0.7-1.7,0.8-2.5c0-0.1,0-0.2,0.2-0.2
				C161.8,161,162.6,161.2,162.6,161.4z M158.8,161.6c0.1,0.2,0.6,0.9,0.6,1.1c0,0.2-0.4,0.4-0.5,0.4c-0.2,0-0.2-0.2-0.3-0.3
				c-0.3-0.6-0.6-1-0.9-1.6c0-0.1-0.1-0.2-0.1-0.2c0-0.2,0.3-0.4,0.5-0.4C158.2,160.6,158.5,161.1,158.8,161.6z"/>
			<path class="st0" d="M169.4,166.6c0,0.8,0,1.5,0,2.2c0,0.5,0,0.6-0.5,0.6c-0.4,0-0.5-0.2-0.5-0.6c0-0.8,0-1.5,0-2.2v-7.2
				c0-0.5,0-1.4-0.1-1.9c0-0.1,0-0.2,0-0.3c0-0.1,0-0.2,0.2-0.2c0.3,0,1.1,0.2,1.1,0.3c0,0.1,0,0.1-0.1,0.2
				c-0.2,0.2-0.1,1.5-0.1,1.8V166.6z M172.1,162.6c0.2,0.2,1.2,0.9,1.2,1.1c0,0.2-0.3,0.5-0.5,0.5c-0.1,0-0.2-0.1-0.3-0.2
				c-0.8-0.7-1.5-1.3-2.4-1.9c-0.1-0.1-0.3-0.2-0.3-0.3c0-0.2,0.3-0.5,0.5-0.5C170.6,161.4,171.9,162.4,172.1,162.6z"/>
			<path class="st0" d="M180.7,167.2c0,1.1-0.9,2-2,2c-1.1,0-2-0.9-2-2c0-1.1,0.9-2,2-2C179.8,165.2,180.7,166.1,180.7,167.2z
				 M177.3,167.2c0,0.8,0.6,1.4,1.4,1.4c0.8,0,1.4-0.6,1.4-1.4c0-0.8-0.6-1.4-1.4-1.4C177.9,165.8,177.3,166.5,177.3,167.2z"/>
			<path class="st0" d="M1.6,191.3l-0.5-0.5L6,186l-4.9-4.9l0.5-0.5l4.9,4.9l4.9-4.9l0.5,0.5L6.9,186l4.9,4.9l-0.5,0.5l-4.9-4.9
				L1.6,191.3z M3.6,186c0,0.7-0.6,1.2-1.2,1.2c-0.7,0-1.3-0.6-1.3-1.2c0-0.7,0.6-1.2,1.3-1.2C3.1,184.7,3.6,185.3,3.6,186z
				 M7.7,181.9c0,0.7-0.5,1.2-1.2,1.2c-0.7,0-1.2-0.6-1.2-1.2c0-0.7,0.6-1.3,1.2-1.3C7.2,180.6,7.7,181.2,7.7,181.9z M7.7,190
				c0,0.7-0.5,1.3-1.2,1.3c-0.7,0-1.2-0.6-1.2-1.3c0-0.7,0.6-1.2,1.2-1.2C7.2,188.8,7.7,189.4,7.7,190z M11.8,186
				c0,0.7-0.6,1.2-1.3,1.2c-0.7,0-1.2-0.6-1.2-1.2c0-0.7,0.6-1.2,1.2-1.2C11.2,184.7,11.8,185.3,11.8,186z"/>
			<path class="st0" d="M17.5,184.7c0-0.1,0-0.2-0.1-0.2c-0.1,0-0.1,0-0.1,0.1c-0.4,0.6-0.9,1.2-1.3,1.8c-0.1,0.2-0.3,0.4-0.5,0.4
				c-0.2,0-0.5-0.2-0.5-0.4c0-0.1,0.1-0.3,0.2-0.4c1.5-1.7,3.2-4.4,3.8-6.6c0-0.1,0.1-0.3,0.2-0.3c0.1,0,0.3,0.1,0.3,0.1
				c0.4,0.1,0.6,0.2,0.6,0.3c0,0.1-0.1,0.2-0.2,0.2c-0.2,0.1-0.3,0.2-0.4,0.5c-0.4,0.9-0.7,1.7-1.2,2.5c0,0,0,0.1,0,0.1
				c0,0.1,0.1,0.1,0.1,0.1c0.1,0,0.2,0.1,0.2,0.2c0,0.1-0.1,0.1-0.2,0.2c-0.2,0.2-0.2,0.4-0.2,1.5v5.2c0,0.6,0,1.2,0,1.8
				c0,0.4,0,0.6-0.4,0.6c-0.4,0-0.4-0.2-0.4-0.6c0-0.6,0-1.2,0-1.9V184.7z M27,181.3c0.1,0,0.7,0.5,0.7,0.7c0,0.1-0.1,0.1-0.2,0.1
				c-0.1,0-0.1,0-0.2,0s-0.1,0-0.2,0.1c-1.3,1.3-2.9,2.5-4.4,3.5c-0.3,0.2-0.3,0.3-0.3,0.6v4.2c0,0.7,0,0.8,0.8,0.8H26
				c0.7,0,1-0.2,1.3-2c0.1-0.4,0.1-0.5,0.3-0.5c0.2,0,0.6,0.1,0.6,0.3c0,0.4-0.4,1.5-0.5,1.9c-0.5,1.1-1.1,1-1.5,1h-3
				c-0.9,0-1.4-0.3-1.4-1.3c0-0.4,0-0.8,0-1.2v-8.2c0-0.6,0-1.3-0.1-1.9c0-0.1,0-0.1,0-0.2c0-0.1,0.1-0.2,0.2-0.2
				c0.2,0,0.7,0,0.9,0.1c0.1,0,0.2,0,0.2,0.2c0,0.1-0.1,0.1-0.2,0.2c-0.2,0.1-0.2,0.5-0.2,1.7v3.1c0,0.1,0,0.2,0.2,0.2
				c0,0,0.1,0,0.1,0c1.5-1.1,2.7-2,4-3.3C26.8,181.3,26.9,181.3,27,181.3z"/>
			<path class="st0" d="M33.1,186.3c-0.1,0-0.1,0.1-0.1,0.1v3.4c0,0.7,0,1.4,0,2.1c0,0.3,0,0.6-0.4,0.6c-0.4,0-0.4-0.2-0.4-0.6
				c0-0.7,0-1.4,0-2.1V187c0-0.1,0-0.1-0.1-0.1c0,0-0.1,0-0.1,0c-0.4,0.9-1,2.1-1.5,2.9c-0.1,0.2-0.2,0.3-0.3,0.3
				c-0.2,0-0.5-0.2-0.5-0.4c0-0.1,0.2-0.3,0.2-0.4c0.8-1.2,1.6-2.6,2.1-4c0,0,0-0.1,0-0.1c0-0.2-0.1-0.2-0.3-0.3h-0.2
				c-0.4,0-0.8,0-1.2,0c-0.3,0-0.3-0.2-0.3-0.4c0-0.2,0-0.4,0.3-0.4c0.4,0,0.8,0,1.2,0h0.3c0.3,0,0.4-0.1,0.4-0.4v-2.5
				c0-0.6,0-1.3-0.1-1.8c0,0,0-0.1,0-0.2c0-0.2,0.1-0.2,0.2-0.2c0.1,0,0.3,0,0.4,0c0.5,0,0.6,0.1,0.6,0.2c0,0.1-0.1,0.1-0.2,0.2
				c-0.2,0.1-0.2,0.4-0.2,1.7v2.5c0,0.3,0.1,0.4,0.4,0.4h0.3c0.4,0,0.8,0,1.2,0c0.3,0,0.3,0.2,0.3,0.4c0,0.2,0,0.4-0.3,0.4
				c-0.4,0-0.8,0-1.2,0h-0.2c-0.1,0-0.2,0.1-0.2,0.2c0,0.1,0,0.1,0,0.1c0.5,0.7,1.1,1.5,1.6,2.1c0.1,0.1,0.1,0.1,0.1,0.2
				c0,0.2-0.3,0.4-0.5,0.4c-0.3,0-1.2-1.4-1.4-1.7C33.2,186.4,33.2,186.3,33.1,186.3z M31.3,183.7c-0.2,0-0.3-0.2-0.4-0.4
				c-0.2-0.7-0.4-1.4-0.6-2c0-0.1-0.1-0.2-0.1-0.3c0-0.2,0.3-0.3,0.4-0.3c0.3,0,0.4,0.5,0.7,1.4c0.1,0.2,0.3,1.1,0.3,1.3
				C31.8,183.6,31.5,183.7,31.3,183.7z M35.2,181.1c-0.1,0-0.2,0-0.3,0.2c-0.2,0.6-0.5,1.5-0.7,2c-0.1,0.1-0.1,0.3-0.3,0.3
				c-0.2,0-0.5-0.1-0.5-0.3c0-0.1,0-0.1,0.1-0.2c0.3-0.7,0.6-1.5,0.8-2.2c0-0.1,0.1-0.2,0.2-0.2c0.2,0,0.9,0.2,0.9,0.3
				C35.4,181.1,35.3,181.1,35.2,181.1z M40.9,181.4c0.6,0,1.3,0,1.7,0c0.3,0,0.3,0.2,0.3,0.4c0,0.3,0,0.4-0.3,0.4
				c-0.4,0-1.1,0-1.7,0h-4c-0.3,0-0.4,0.1-0.4,0.4v2.3c0,1.9-0.2,3.9-0.8,5.7c-0.1,0.4-0.5,1.3-0.7,1.6c0,0.1-0.1,0.1-0.2,0.1
				c-0.2,0-0.6-0.2-0.6-0.4c0-0.1,0.1-0.2,0.1-0.3c1-1.9,1.4-4.7,1.4-6.9v-1.5c0-0.4,0-0.8,0-1.2c0-0.8,0.4-0.7,2.2-0.7h0.7
				c0.3,0,0.4-0.1,0.4-0.4c0-0.5,0-0.9-0.1-1.4c0-0.1,0-0.1,0-0.2c0-0.2,0.1-0.2,0.3-0.2c0.1,0,0.3,0,0.4,0c0.5,0,0.7,0.1,0.7,0.2
				c0,0.1-0.1,0.1-0.2,0.2c-0.2,0.1-0.2,0.3-0.2,1v0.3c0,0.3,0.1,0.4,0.4,0.4H40.9z M40,185.5c0,0.3,0.1,0.4,0.4,0.4H41
				c0.5,0,0.9,0,1.4,0c0.3,0,0.3,0.2,0.3,0.4c0,0.2,0,0.4-0.3,0.4c-0.5,0-0.9,0-1.4,0h-0.6c-0.3,0-0.4,0.1-0.4,0.4v3.9
				c0,0.3,0.1,0.4,0.4,0.4h0.7c0.6,0,1.1,0,1.6,0c0.3,0,0.3,0.2,0.3,0.4c0,0.2,0,0.4-0.3,0.4c-0.6,0-1.1,0-1.7,0h-3.1
				c-0.6,0-1.1,0-1.7,0c-0.3,0-0.3-0.2-0.3-0.4c0-0.3,0-0.4,0.3-0.4c0.6,0,1.1,0,1.7,0h0.8c0.3,0,0.4-0.1,0.4-0.4v-3.9
				c0-0.3-0.1-0.4-0.4-0.4h-0.2c-0.4,0-0.9,0-1.3,0c-0.3,0-0.3-0.2-0.3-0.4c0-0.2,0-0.4,0.3-0.4c0.5,0,0.9,0,1.3,0h0.2
				c0.3,0,0.4-0.1,0.4-0.4v-1c0-0.5,0-1.1-0.1-1.6c0,0,0-0.1,0-0.2c0-0.1,0.1-0.2,0.2-0.2c0.1,0,0.3,0,0.4,0c0.5,0,0.6,0.1,0.6,0.2
				c0,0.1-0.1,0.1-0.2,0.2c-0.2,0.1-0.2,0.4-0.2,1.5V185.5z"/>
			<path class="st0" d="M48.5,187c-0.1,0-0.1,0.1-0.1,0.1v2.8c0,0.6,0,1.2,0,1.9c0,0.3,0,0.6-0.4,0.6c-0.4,0-0.4-0.3-0.4-0.6
				c0-0.6,0-1.3,0-1.9v-2.8c0-0.1,0-0.1-0.1-0.1c0,0-0.1,0-0.1,0.1c-0.3,0.6-1.7,3.7-2.2,3.7c-0.2,0-0.5-0.2-0.5-0.4
				c0-0.1,0.1-0.2,0.1-0.2c1-1.3,1.7-2.7,2.4-4.1c0,0,0-0.1,0-0.1c0-0.2-0.2-0.2-0.3-0.2h-0.4c-0.5,0-1,0-1.5,0
				c-0.3,0-0.3-0.2-0.3-0.4c0-0.2,0-0.4,0.3-0.4c0.5,0,1,0,1.5,0h0.6c0.3,0,0.4-0.1,0.4-0.4c0-0.3,0-0.7-0.1-1c0,0,0-0.1,0-0.2
				c0-0.2,0.1-0.2,0.2-0.2c0.2,0,0.4,0,0.6,0.1c0.1,0,0.4,0,0.4,0.2c0,0.1-0.1,0.1-0.2,0.2c-0.2,0.1-0.2,0.3-0.2,1
				c0,0.3,0.2,0.4,0.4,0.4h0.5c0.5,0,1,0,1.5,0c0.3,0,0.3,0.2,0.3,0.4c0,0.2,0,0.4-0.3,0.4c-0.5,0-1,0-1.5,0h-0.4
				c-0.1,0-0.3,0-0.3,0.2c0,0,0,0.1,0,0.1c0.5,0.9,1.2,1.8,2,2.5c0.1,0.1,0.1,0.1,0.1,0.2c0,0.2-0.2,0.4-0.4,0.4
				c-0.4,0-1.5-1.7-1.7-2.1C48.6,187.1,48.5,187,48.5,187z M47.9,181.4h-0.5c-0.3,0-0.4,0-0.6,0.3c-0.3,0.4-0.6,0.9-0.9,1.3
				c-0.1,0.1-0.2,0.2-0.3,0.2c-0.2,0-0.5-0.2-0.5-0.4c0-0.1,0.1-0.2,0.2-0.3c0.7-0.8,1.6-2.1,2-3.1c0-0.1,0.1-0.1,0.2-0.1
				c0.1,0,0.3,0.1,0.4,0.1c0.3,0.1,0.5,0.2,0.5,0.3c0,0.1-0.2,0.2-0.3,0.2c-0.2,0-0.2,0.3-0.4,0.6c0,0,0,0.1,0,0.1
				c0,0.1,0.1,0.2,0.2,0.2h2c0.4,0,0.9,0,1.2,0c0.3,0,0.3,0.1,0.3,0.4c0,0.3,0,0.4-0.3,0.4c-0.4,0-0.8,0-1.2,0h-0.3
				c-0.2,0-0.3,0.1-0.3,0.2c0,0,0,0.1,0,0.1c0.1,0.2,0.3,0.8,0.3,1c0,0.2-0.3,0.3-0.5,0.3c-0.3,0-0.3-0.4-0.7-1.3
				C48.3,181.4,48.2,181.4,47.9,181.4z M55.3,182.7c0,0.2-0.3,0.3-0.5,0.3c-0.3,0-0.2-0.3-0.7-1.3c-0.1-0.3-0.3-0.3-0.6-0.3H53
				c-0.3,0-0.4,0.1-0.6,0.3c-0.2,0.3-0.5,0.8-0.8,1.1c-0.1,0.1-0.2,0.2-0.3,0.2s-0.5-0.2-0.5-0.4c0-0.1,0.1-0.2,0.2-0.4
				c0.6-0.8,1.3-2,1.7-3c0-0.1,0.1-0.1,0.1-0.1c0.1,0,0.6,0.2,0.7,0.2c0.1,0,0.2,0.1,0.2,0.2c0,0.1-0.1,0.1-0.2,0.1
				c-0.1,0-0.2,0-0.3,0.1c0,0.1-0.1,0.2-0.2,0.5c0,0,0,0.1,0,0.1c0,0.1,0.1,0.2,0.2,0.2H56c0.6,0,1.1,0,1.7,0c0.3,0,0.3,0.1,0.3,0.4
				c0,0.3,0,0.4-0.3,0.4c-0.6,0-1.1,0-1.7,0h-0.8c-0.1,0-0.3,0.1-0.3,0.2c0,0.1,0,0.1,0,0.1C55,181.9,55.3,182.5,55.3,182.7z
				 M56.4,191.9c0-0.2-0.1-0.3-0.3-0.3h-3.5c-0.2,0-0.3,0.1-0.3,0.3v0.2c0,0.3,0,0.4-0.4,0.4c-0.3,0-0.4-0.1-0.4-0.4
				c0-0.4,0-0.8,0-1.2v-5.5c0-0.3,0-0.6,0-1c0-0.4,0-0.8,0.6-0.8h4.6c0.5,0,0.6,0.2,0.6,0.7c0,0.3,0,0.7,0,1v5.5c0,0.4,0,0.8,0,1.1
				c0,0.3,0,0.4-0.4,0.4s-0.4-0.1-0.4-0.4V191.9z M56,186c0.3,0,0.4-0.1,0.4-0.4v-0.8c0-0.3-0.2-0.4-0.4-0.4h-3.3
				c-0.3,0-0.4,0.2-0.4,0.4v0.8c0,0.3,0.2,0.4,0.4,0.4H56z M52.3,188c0,0.3,0.2,0.4,0.4,0.4H56c0.3,0,0.4-0.2,0.4-0.4v-0.9
				c0-0.3-0.2-0.4-0.4-0.4h-3.3c-0.3,0-0.4,0.2-0.4,0.4V188z M52.3,190.4c0,0.3,0.2,0.4,0.4,0.4H56c0.3,0,0.4-0.2,0.4-0.4v-0.9
				c0-0.3-0.2-0.4-0.4-0.4h-3.3c-0.3,0-0.4,0.2-0.4,0.4V190.4z"/>
			<path class="st0" d="M70.2,182.5c1,1,1.4,2.2,1.4,3.5c0,2-1,3.8-2.8,4.7c-0.3,0.2-1.1,0.5-1.5,0.5c-0.2,0-0.6-0.5-0.6-0.6
				c0-0.1,0.1-0.2,0.2-0.2c2.2-0.4,3.8-2.1,3.8-4.4c0-1.9-1.2-3.6-3.1-4.1c-0.2,0-0.5-0.1-0.7-0.1c-0.4,0-0.4,0.4-0.4,0.6
				c-0.1,2.2-0.7,5.2-2.1,6.9c-0.4,0.5-1,1-1.7,1c-0.8,0-1.4-0.6-1.8-1.3c-0.3-0.6-0.4-1.3-0.4-2c0-3.4,2.6-6.1,6-6.1
				C67.9,181.1,69.1,181.5,70.2,182.5z M64.8,182.1c-2.2,0.8-3.6,2.7-3.6,5c0,0.8,0.3,2.5,1.3,2.5c0.9,0,1.8-1.7,2.1-2.4
				c0.6-1.5,0.8-3.1,0.9-4.7c0,0,0-0.1,0-0.2c0-0.2-0.1-0.3-0.3-0.3C65.2,182,65,182.1,64.8,182.1z"/>
			<path class="st0" d="M75.9,187.8c0.4,1.5,1.9,1.9,3.3,1.9c1.5,0,3.1-0.2,4.5-0.5c0.1,0,0.2,0,0.3,0c0.2,0,0.2,0.3,0.2,0.4
				c0,0.3,0,0.5-0.2,0.6c-0.6,0.2-3.8,0.4-4.5,0.4c-1.5,0-3.1-0.2-4-1.5c-0.2-0.3-0.5-0.9-0.5-1.2c0-0.3,0.6-0.4,0.6-0.4
				C75.8,187.5,75.9,187.6,75.9,187.8z M76.9,181.6c0.9,0.3,2.1,0.4,3,0.4c0.8,0,1.6-0.1,2.4-0.2c0,0,0.1,0,0.2,0
				c0.2,0,0.3,0.3,0.3,0.5c0,0.4,0,0.5-0.3,0.5c-0.7,0.1-1.6,0.1-2.3,0.1c-1,0-2.8-0.1-3.6-0.5c-0.2-0.1-0.2-0.1-0.2-0.3
				c0-0.2,0.1-0.6,0.3-0.6C76.6,181.5,76.8,181.6,76.9,181.6z M84.3,181.5c0.1,0.1,0.7,0.7,0.7,0.8c0,0.2-0.3,0.5-0.5,0.5
				c-0.1,0-0.2-0.1-0.2-0.2c-0.3-0.4-0.7-0.8-1-1.1c0-0.1-0.1-0.1-0.1-0.2c0-0.1,0.3-0.5,0.5-0.5C83.7,180.9,84.2,181.4,84.3,181.5z
				 M85.6,180.5c0.1,0.1,0.7,0.7,0.7,0.8c0,0.2-0.3,0.5-0.5,0.5c-0.1,0-0.2-0.1-0.2-0.2c-0.3-0.4-0.7-0.8-1-1.2c0,0-0.1-0.1-0.1-0.2
				c0-0.1,0.3-0.5,0.5-0.5C85,179.9,85.5,180.4,85.6,180.5z"/>
			<path class="st0" d="M89.9,187.4c-0.3,0-0.4,0.1-0.5,0.4c-0.2,1.5-0.6,3.1-1.6,4.3c-0.1,0.1-0.2,0.2-0.4,0.2
				c-0.2,0-0.5-0.3-0.5-0.5c0-0.1,0.1-0.2,0.2-0.3c1.4-1.8,1.5-3.8,1.5-5.9v-3.9c0-0.4,0-0.8,0-1.2c0-0.6,0.2-0.7,0.9-0.7
				c0.4,0,0.7,0,1.1,0h6.7c0.4,0,0.7,0,1.1,0c0.6,0,0.9,0.1,0.9,0.7c0,0.4,0,0.8,0,1.2v7.9c0,0.4,0,0.7,0,1.1c0,0.5,0,1-0.4,1.3
				c-0.5,0.4-1.4,0.4-2,0.4c-0.4,0-0.6-0.1-0.6-0.7c0-0.2,0.1-0.3,0.3-0.3c0.3,0,0.6,0,0.8,0c1,0,1-0.2,1-1.3v-2.3
				c0-0.3-0.1-0.4-0.4-0.4h-3.5c-0.3,0-0.4,0.1-0.4,0.4v1.7c0,0.7,0,1.3,0,2c0,0.4,0,0.6-0.4,0.6c-0.4,0-0.4-0.2-0.4-0.6
				c0-0.7,0-1.4,0-2v-1.7c0-0.3-0.1-0.4-0.4-0.4H89.9z M93.4,181c0-0.3-0.2-0.4-0.4-0.4H90c-0.3,0-0.4,0.2-0.4,0.4v1.8
				c0,0.3,0.2,0.4,0.4,0.4h2.9c0.3,0,0.4-0.1,0.4-0.4V181z M90,184c-0.3,0-0.4,0.1-0.4,0.4v1.9c0,0.3,0.1,0.4,0.4,0.4h3
				c0.3,0,0.4-0.1,0.4-0.4v-1.9c0-0.3-0.1-0.4-0.4-0.4H90z M98.1,183.2c0.3,0,0.4-0.1,0.4-0.4V181c0-0.3-0.2-0.4-0.4-0.4h-3.5
				c-0.3,0-0.4,0.2-0.4,0.4v1.8c0,0.3,0.2,0.4,0.4,0.4H98.1z M94.2,186.3c0,0.3,0.2,0.4,0.4,0.4h3.5c0.3,0,0.4-0.2,0.4-0.4v-1.9
				c0-0.3-0.2-0.4-0.4-0.4h-3.5c-0.3,0-0.4,0.2-0.4,0.4V186.3z"/>
			<path class="st0" d="M107.8,180.6c0.3,0,0.4-0.1,0.4-0.4c0-0.2,0-0.4-0.1-0.6c0,0,0-0.1,0-0.1c0-0.2,0.1-0.2,0.2-0.2
				c0.1,0,0.3,0,0.4,0c0.3,0,0.6,0,0.6,0.2c0,0.1-0.1,0.1-0.2,0.2c-0.2,0.1-0.2,0.2-0.2,0.5c0,0.3,0.1,0.4,0.4,0.4h2.5
				c0.6,0,1.2,0,1.7,0c0.3,0,0.3,0.2,0.3,0.4s0,0.4-0.3,0.4c-0.6,0-1.2,0-1.7,0h-0.3c-0.1,0-0.1,0-0.1,0.1c0,0,0,0,0,0.1
				c0.1,0.1,0.4,0.2,0.4,0.3c0,0.1-0.1,0.1-0.2,0.1c-0.1,0-0.2,0-0.3,0.1c-0.1,0.3-0.3,0.5-0.4,0.8c0,0,0,0.1,0,0.1
				c0,0.1,0.1,0.2,0.2,0.2h1.8c0.6,0,1.2,0,1.7,0c0.3,0,0.3,0.1,0.3,0.4c0,0.3,0,0.4-0.3,0.4c-0.6,0-1.2,0-1.8,0h-9
				c-0.6,0-1.2,0-1.7,0c-0.3,0-0.3-0.2-0.3-0.4c0-0.3,0-0.4,0.3-0.4c0.6,0,1.2,0,1.7,0h5.6c0.3,0,0.4,0,0.6-0.3
				c0.2-0.4,0.4-0.8,0.6-1.1c0,0,0-0.1,0-0.1c0-0.2-0.1-0.2-0.3-0.2h-5.3c-0.6,0-1.2,0-1.7,0c-0.3,0-0.3-0.2-0.3-0.4s0-0.4,0.3-0.4
				c0.6,0,1.1,0,1.7,0H107.8z M104.8,189.5c-0.1,0-0.2,0.1-0.2,0.2c-0.4,0.8-1,1.5-1.6,2.2c-0.1,0.1-0.2,0.2-0.3,0.2
				c-0.2,0-0.5-0.2-0.5-0.4c0-0.1,0.1-0.2,0.3-0.4c0.6-0.6,1.2-1.4,1.5-2.2c0-0.1,0.1-0.2,0.2-0.2s0.5,0.2,0.7,0.2
				c0.1,0,0.2,0.1,0.2,0.2C105,189.5,104.8,189.5,104.8,189.5z M112.8,187.5c0,0.1,0,0.3,0,0.4c0,0.4-0.2,0.5-0.7,0.5
				c-0.3,0-0.6,0-1,0h-5c-0.3,0-0.7,0-1,0c-0.4,0-0.6-0.1-0.6-0.5v-2.7c0-0.5,0.2-0.5,0.9-0.5c0.2,0,0.4,0,0.7,0h6.1
				c0.5,0,0.6,0.2,0.6,0.5c0,0.1,0,0.3,0,0.4V187.5z M111.7,186.2c0.2,0,0.3-0.1,0.3-0.3v-0.2c0-0.2-0.1-0.3-0.3-0.3h-6.2
				c-0.2,0-0.3,0.1-0.3,0.3v0.2c0,0.2,0.1,0.3,0.3,0.3H111.7z M105.5,186.8c-0.2,0-0.3,0.1-0.3,0.3v0.3c0,0.2,0.1,0.3,0.3,0.3h6.2
				c0.2,0,0.3-0.1,0.3-0.3v-0.3c0-0.2-0.1-0.3-0.3-0.3H105.5z M110.2,191.5c0.7,0,0.9-0.1,1.1-1.2c0.1-0.2,0.1-0.3,0.3-0.3
				c0.2,0,0.5,0.1,0.5,0.3c0,0.4-0.3,1.2-0.5,1.5c-0.3,0.4-0.7,0.4-1.2,0.4h-3.5c-0.6,0-1.4,0-1.4-0.8c0-0.2,0-0.3,0-0.5v-1
				c0-0.2,0-0.5-0.1-0.7c0-0.1,0-0.1,0-0.2c0-0.1,0.1-0.2,0.2-0.2c0.1,0,0.7,0.1,0.9,0.1c0.1,0,0.2,0,0.2,0.1s-0.1,0.1-0.1,0.2
				c-0.2,0.1-0.2,0.2-0.2,0.7v1.1c0,0.5,0.3,0.5,0.8,0.5H110.2z M106.5,183.1c-0.2,0-0.2-0.1-0.3-0.3c-0.1-0.2-0.2-0.4-0.3-0.7
				c0-0.1-0.1-0.1-0.1-0.2c0-0.2,0.3-0.3,0.5-0.3c0.2,0,0.3,0.2,0.5,0.6c0.1,0.2,0.2,0.5,0.2,0.6C107,183,106.7,183.1,106.5,183.1z
				 M108.3,188.8c0.2,0.2,0.4,0.4,0.6,0.7c0.1,0.2,0.5,0.6,0.5,0.8c0,0.2-0.3,0.4-0.4,0.4c-0.2,0-0.2-0.1-0.3-0.2
				c-0.4-0.5-0.5-0.6-0.9-1.1c-0.1-0.1-0.1-0.2-0.1-0.3c0-0.2,0.3-0.4,0.4-0.4C108.1,188.6,108.2,188.7,108.3,188.8z M114.4,192
				c-0.2,0-0.3-0.2-0.3-0.3c-0.4-0.8-0.9-1.5-1.5-2.2c-0.1-0.1-0.1-0.2-0.1-0.3c0-0.2,0.3-0.4,0.5-0.4c0.1,0,0.2,0.1,0.3,0.1
				c0.3,0.3,0.7,0.9,0.9,1.2c0.2,0.3,0.8,1.2,0.8,1.5C114.8,191.8,114.6,192,114.4,192z"/>
			<path class="st0" d="M120.2,180.9c0.1,0,0.2,0.1,0.2,0.2c0,0.1-0.1,0.1-0.2,0.2c-0.2,0.1-0.2,0.1-0.3,0.3c-0.2,0.3-0.3,1-0.4,1.4
				c-0.3,1.2-0.4,2.5-0.4,3.8c0,0.4,0.1,2.7,0.5,2.7c0.1,0,0.1,0,0.1-0.1c0.1-0.1,0.4-0.9,0.4-1.1c0.1-0.3,0.2-0.5,0.3-0.5
				c0.1,0,0.3,0.1,0.3,0.2c0,0.1,0,0.1,0,0.2c-0.3,1-0.6,1.6-0.6,2.8v0.1c0,0.2-0.1,0.3-0.2,0.3c-0.1,0-0.3,0.1-0.4,0.1
				c-0.2,0-0.3-0.3-0.4-0.4c-0.6-1.4-0.9-2.9-0.9-4.4c0-1.7,0.2-3.1,0.7-4.8c0.1-0.4,0.2-0.8,0.3-1.2c0-0.1,0.1-0.2,0.2-0.2
				S120,180.9,120.2,180.9z M126.3,180.6c0.1,0,0.1,0.1,0.1,0.1c0,0.1-0.1,0.2-0.1,0.2c-0.2,0.2-0.1,0.4-0.1,1.1
				c0,0.7-0.1,1.1,0.3,1.1c0.3,0,1.4-0.3,1.7-0.4c0.1,0,0.2-0.1,0.2-0.1c0.2,0,0.2,0.3,0.3,0.5c0,0.1,0,0.2,0,0.2
				c0,0.2-0.1,0.2-0.3,0.3c-0.5,0.1-1.2,0.2-1.7,0.3c-0.3,0-0.5,0.1-0.5,0.4c0,0.5,0.1,3,0.2,3.7c0,0.3,0.1,0.4,0.3,0.5
				c0.4,0.2,2.2,1.1,2.2,1.5c0,0.3-0.3,0.7-0.5,0.7c-0.1,0-0.3-0.2-0.4-0.3c-0.2-0.2-1.2-1.1-1.5-1.1c-0.1,0-0.1,0.1-0.2,0.3
				c-0.1,1.2-0.9,1.6-2,1.6c-1,0-2.3-0.5-2.3-1.6c0-1.2,1.1-1.6,2.1-1.6c0.6,0,1,0.1,1.1,0.1c0.2,0,0.2-0.1,0.2-0.3
				c0-0.7-0.1-2.2-0.1-3c0-0.3,0-0.7-0.3-0.7H125c-0.4,0-1,0.1-1.5,0.1c-0.2,0-1.5,0-1.7,0c-0.2,0-0.2-0.3-0.2-0.6
				c0-0.3,0-0.3,0.2-0.3c0.1,0,0.2,0,0.3,0c0.6,0.1,1.4,0.1,2,0.1c1,0,1.3,0,1.3-0.3c0-0.4-0.1-1.9-0.2-2.4c0,0,0-0.1,0-0.1
				c0-0.1,0.1-0.2,0.2-0.2C125.4,180.4,126.2,180.6,126.3,180.6z M122.9,189.5c0,0.7,0.9,0.9,1.4,0.9c0.8,0,1.2-0.3,1.2-1.2
				c0-0.2-0.1-0.3-0.2-0.3c-0.2-0.1-0.8-0.2-1.1-0.2C123.9,188.7,122.9,188.9,122.9,189.5z"/>
			<path class="st0" d="M132.9,187.8c0.4,1.5,1.9,1.9,3.3,1.9c1.5,0,3.1-0.2,4.5-0.5c0.1,0,0.2,0,0.3,0c0.2,0,0.2,0.3,0.2,0.4
				c0,0.3,0,0.5-0.2,0.6c-0.6,0.2-3.8,0.4-4.5,0.4c-1.5,0-3.1-0.2-4-1.5c-0.2-0.3-0.5-0.9-0.5-1.2c0-0.3,0.6-0.4,0.6-0.4
				C132.8,187.5,132.9,187.6,132.9,187.8z M133.9,181.6c0.9,0.3,2.1,0.4,3,0.4c0.8,0,1.6-0.1,2.4-0.2c0,0,0.1,0,0.2,0
				c0.2,0,0.3,0.3,0.3,0.5c0,0.4,0,0.5-0.3,0.5c-0.7,0.1-1.6,0.1-2.3,0.1c-1,0-2.8-0.1-3.6-0.5c-0.2-0.1-0.2-0.1-0.2-0.3
				c0-0.2,0.1-0.6,0.3-0.6C133.6,181.5,133.8,181.6,133.9,181.6z M141.3,181.5c0.1,0.1,0.7,0.7,0.7,0.8c0,0.2-0.3,0.5-0.5,0.5
				c-0.1,0-0.2-0.1-0.2-0.2c-0.3-0.4-0.7-0.8-1-1.1c0-0.1-0.1-0.1-0.1-0.2c0-0.1,0.3-0.5,0.5-0.5
				C140.7,180.9,141.2,181.4,141.3,181.5z M142.6,180.5c0.1,0.1,0.7,0.7,0.7,0.8c0,0.2-0.3,0.5-0.5,0.5c-0.1,0-0.2-0.1-0.2-0.2
				c-0.3-0.4-0.7-0.8-1-1.2c0,0-0.1-0.1-0.1-0.2c0-0.1,0.3-0.5,0.5-0.5C142,179.9,142.5,180.4,142.6,180.5z"/>
			<path class="st0" d="M150.3,180.1c0.1,0.2,1,1.9,1,2c0.1,0.1,0.2,0.2,0.4,0.2c0.4,0,1.6-0.7,2-0.9c0.1-0.1,0.3-0.2,0.4-0.2
				c0.2,0,0.5,0.5,0.5,0.6c0,0.3-1.9,1.1-2.3,1.2c-0.1,0-0.2,0.1-0.2,0.3c0,0.1,0.2,0.4,0.3,0.5c0.6,1,1.7,3,2.4,3.7
				c0.1,0.1,0.2,0.2,0.2,0.4c0,0.3-0.4,0.6-0.6,0.6c-0.2,0-0.5-0.2-0.6-0.3c-1-0.7-2.5-1.2-3.7-1.2c-1,0-2,0.6-2,1.8
				c0,1.9,2.4,2.2,3.9,2.2c0.4,0,0.6,0,0.8,0c0.1,0,0.2,0,0.2,0.2c0,0.8-0.5,0.7-0.6,0.7c-1.9,0-5.1-0.6-5.1-3.1
				c0-1.6,1.4-2.6,2.9-2.6c1,0,2,0.3,2.9,0.8c0.1,0,0.1,0.1,0.2,0.1c0,0,0.1,0,0.1-0.1c0-0.1-0.1-0.2-0.1-0.3
				c-0.6-0.8-1.3-2.1-1.8-3c-0.1-0.2-0.2-0.3-0.4-0.3c-0.1,0-0.1,0-0.2,0c-0.9,0.2-2.9,0.6-3.8,0.6c-0.4,0-0.5-0.7-0.5-0.7
				c0-0.2,0.2-0.2,0.7-0.2c0.3,0,2.1-0.1,3.1-0.4c0.1,0,0.3-0.1,0.3-0.3c0-0.2-0.5-1-0.7-1.2c-0.2-0.3-0.4-0.7-0.6-0.9
				c-0.1-0.1-0.1-0.2-0.1-0.2c0-0.2,0.7-0.3,0.8-0.3C150.2,179.9,150.3,180,150.3,180.1z M155.9,180.9c0.1,0.1,0.5,0.6,0.5,0.7
				c0,0.1-0.3,0.5-0.6,0.5c-0.1,0-0.1-0.1-0.2-0.2c-0.3-0.4-0.6-0.8-1-1.2c0,0-0.1-0.1-0.1-0.2c0-0.1,0.3-0.4,0.5-0.4
				C155.2,180,155.8,180.7,155.9,180.9z M157,179.6c0.1,0.1,0.9,1,0.9,1.1c0,0.2-0.3,0.5-0.6,0.5c-0.1,0-0.2-0.1-0.3-0.3
				c-0.3-0.4-0.5-0.7-0.8-1c0-0.1-0.1-0.1-0.1-0.2c0-0.1,0.4-0.4,0.5-0.4C156.6,179.2,156.7,179.3,157,179.6z"/>
			<path class="st0" d="M161.2,182.4c0.1,0,0.3,0.1,0.3,0.2c0,0.1-0.1,0.2-0.2,0.2c-0.1,0.1-0.2,0.2-0.2,0.4
				c-0.1,0.4-0.1,0.9-0.1,1.3c0,1.2,0.1,2.7,0.6,3.8c0.2,0.6,0.9,1.7,1.6,1.7c0.5,0,1-0.8,1.3-1.1c0.1-0.1,0.2-0.4,0.3-0.4
				c0.2,0,0.5,0.3,0.5,0.5c0,0.2-0.7,1-0.8,1.2c-0.3,0.4-0.7,0.8-1.3,0.8c-1,0-1.8-1-2.2-1.9c-0.7-1.3-0.8-3.1-0.8-4.6
				c0-0.3,0-2,0.1-2.2c0-0.1,0.1-0.1,0.2-0.1C160.5,182.1,161,182.3,161.2,182.4z M167.9,182.3c0.3,0,1.3,0.9,1.8,1.7
				c0.6,0.9,0.9,1.9,1.1,2.9c0,0.1,0,0.3,0,0.3c0,0.3-0.3,0.4-0.6,0.4c-0.3,0-0.3-0.2-0.4-0.4c-0.2-1.7-0.8-3.2-2.1-4.2
				c-0.1-0.1-0.2-0.2-0.2-0.3C167.5,182.5,167.7,182.3,167.9,182.3z"/>
			<path class="st0" d="M179.2,180.1c0.2,0,0.3,0.1,0.3,0.2c0,0.1-0.1,0.2-0.1,0.3c-0.1,0.1-0.1,0.3-0.1,0.9v0.3
				c0,0.2,0.1,0.3,0.3,0.3c0,0,0.2,0,0.2,0c0.9-0.1,1.9-0.3,2.8-0.6c0.1,0,0.2,0,0.3,0c0.3,0,0.3,0.5,0.3,0.6c0,0.3-0.1,0.2-0.5,0.3
				c-0.8,0.2-1.9,0.3-2.8,0.4c-0.3,0-0.5,0.1-0.5,0.4c0,1.6,0,1.8,0.3,1.8c0.5,0,1.8-0.3,2.3-0.4c0.1,0,0.1,0,0.2,0
				c0.2,0,0.2,0.2,0.2,0.3c0,0.6-0.1,0.6-0.5,0.7c-0.5,0.1-1.2,0.2-1.8,0.2c-0.5,0-0.5,0.1-0.5,0.5c0,0.2,0,1.5,0.1,1.7
				c0,0.4,0.2,0.4,0.6,0.5c0.6,0.2,2.6,1,2.6,1.4c0,0.3-0.4,0.7-0.6,0.7c-0.1,0-0.3-0.2-0.4-0.2c-0.5-0.4-1.1-0.7-1.7-1
				c-0.1,0-0.2-0.1-0.3-0.1c-0.2,0-0.2,0.2-0.2,0.3c0,0.3-0.1,0.6-0.2,0.9c-0.5,0.8-1.5,1-2.3,1c-1,0-2.2-0.5-2.2-1.7
				c0-1.4,1.7-1.7,2.8-1.7c0.2,0,0.6,0,0.8,0c0,0,0.1,0,0.1,0c0.2,0,0.3-0.2,0.3-0.3c0-0.1-0.1-1.6-0.1-1.6c0-0.2-0.1-0.3-0.3-0.3
				c-0.3,0-1,0-1.6,0c-0.2,0-1.2,0-1.3-0.1c-0.1-0.1-0.2-0.5-0.2-0.6c0-0.1,0.1-0.2,0.2-0.2c0.2,0,1.2,0.1,1.8,0.1
				c1.2,0,1.5,0,1.5-0.3s0-1.1-0.1-1.5c0-0.1,0-0.4-0.3-0.4c-0.3,0-2.1,0.1-3.2,0.1h-0.8c-0.3,0-0.3-0.4-0.3-0.6
				c0-0.2,0-0.3,0.2-0.3c0.2,0,1.3,0.1,2.2,0.1c0.3,0,1.6,0,1.7-0.1c0.2,0,0.3-0.2,0.3-0.3c0-0.3-0.1-1.4-0.1-1.6c0-0.1,0-0.1,0-0.2
				c0-0.1,0.1-0.1,0.2-0.1C178.6,180,179,180.1,179.2,180.1z M175.7,190c0,0.7,0.8,0.9,1.3,0.9c0.7,0,1.6-0.2,1.7-1.1
				c0-0.1,0-0.2,0-0.3c0-0.3-0.2-0.3-0.9-0.3C177.1,189.1,175.7,189.1,175.7,190z"/>
			<path class="st0" d="M189.9,181.6c0.1,0,0.1,0.1,0.1,0.2c0,0.1,0,0.2-0.1,0.2c-0.2,0.2-0.2,0.4-0.2,0.8c0,0.5,0,0.9,0,1.4
				c0,0.2,0.1,0.3,0.3,0.3c0.1,0,3.1-0.5,3.5-0.5c0.3,0,0.4-0.2,0.4-0.5v-0.2c0-0.7,0-1.9-0.2-2.5c0,0,0-0.1,0-0.1
				c0-0.1,0.1-0.2,0.2-0.2c0.1,0,1.1,0.1,1.1,0.3c0,0.1,0,0.1-0.1,0.2c-0.1,0.2-0.1,0.3-0.1,0.5c0,0.6,0,1.2,0,1.8v0.1
				c0,0.2,0.1,0.3,0.3,0.3c0,0,0.1,0,0.2,0c0.3-0.1,2.3-0.3,2.5-0.3c0.2,0,0.2,0.3,0.2,0.4c0,0.5-0.2,0.5-0.5,0.5
				c-0.7,0.1-1.4,0.1-2.1,0.2c-0.2,0-0.4,0-0.5,0.2c-0.2,0.2-0.1,0.8-0.3,1.7c-0.1,0.9-0.4,1.5-1.3,1.8c-0.3,0.1-0.6,0.1-0.9,0.1
				c-0.4,0-0.4-0.4-0.4-0.6c0-0.1,0.1-0.3,0.2-0.3c0.1,0,0.2,0,0.3,0c0.5,0,0.9-0.1,1.2-0.6c0.2-0.4,0.3-1.3,0.3-1.8
				c0-0.2-0.1-0.3-0.3-0.3c-0.1,0-0.3,0-0.4,0.1c-1,0.1-2,0.3-2.9,0.5c-0.3,0-0.5,0.1-0.5,0.4c0,0.8,0.1,2.4,0.2,3.2
				c0.1,0.6,0.3,1.1,0.9,1.3c0.5,0.2,1.2,0.2,1.8,0.2c0.8,0,1.9-0.1,2.7-0.3c0.1,0,0.1,0,0.2,0c0.2,0,0.2,0.2,0.2,0.4
				c0,0.2,0,0.5-0.1,0.6c-0.2,0.2-2.5,0.2-2.8,0.2c-2.4,0-3.6-0.4-3.7-3c0-0.8-0.1-1.5-0.1-2.3c0-0.2,0-0.4-0.3-0.4
				c-0.2,0-2,0.4-2.3,0.4c-0.1,0-0.2,0-0.3,0c-0.2,0-0.3-0.5-0.3-0.7c0-0.3,0.3-0.3,0.6-0.3c0.7-0.1,1.4-0.2,2.1-0.3
				c0.3,0,0.5-0.1,0.5-0.4c0-0.6,0-2.1-0.1-2.6c0,0,0-0.1,0-0.2c0-0.1,0.1-0.2,0.2-0.2C189,181.4,189.8,181.6,189.9,181.6z"/>
			<path class="st0" d="M206.2,180.4c0.1,0.1,0.4,0.3,0.4,0.5c0,0.2-0.2,0.2-0.3,0.2c-0.2,0-0.3,0.1-0.4,0.3c-0.4,0.4-0.7,0.9-1,1.4
				c-0.3,0.4-1.9,2.9-1.9,3.2c0,0,0,0.1,0.1,0.1c0.1,0,0.2-0.1,0.3-0.2c0.6-0.5,1.8-1,2.6-1c0.5,0,1.2,0.3,1.4,0.8
				c0.1,0.3,0.2,0.6,0.2,0.8c0,0.5-0.1,1-0.2,1.5c-0.1,0.5-0.2,1.2-0.2,1.7c0,0.3,0.1,0.8,0.5,0.8c1,0,2.5-1.7,3-2.5
				c0-0.1,0.1-0.2,0.2-0.2c0.2,0,0.5,0.7,0.5,0.9c0,0.1-0.1,0.2-0.2,0.3c-0.3,0.3-0.7,0.7-1,1c-0.7,0.7-1.6,1.5-2.6,1.5
				c-0.9,0-1.3-0.8-1.3-1.6c0-0.6,0.1-1.2,0.2-1.8c0.1-0.5,0.1-0.8,0.1-1.3c0-0.5-0.2-1-0.8-1c-1.2,0-2.9,1.3-3.6,2.2
				c-0.5,0.7-1,2.2-1.2,3c0,0.1-0.1,0.3-0.3,0.3c-0.2,0-0.8-0.2-0.8-0.4c0-0.1,0.2-0.5,0.2-0.6c0.5-1.3,1-2.5,1.7-3.8
				c1.1-2.2,1.8-3.3,3.2-5.3c0.1-0.2,0.3-0.5,0.4-0.7c0-0.1,0.1-0.3,0.3-0.3C205.8,180,206.1,180.3,206.2,180.4z"/>
			<path class="st0" d="M217.3,190c0,1.1-0.9,2-2,2c-1.1,0-2-0.9-2-2s0.9-2,2-2C216.4,188,217.3,188.9,217.3,190z M213.9,190
				c0,0.8,0.6,1.4,1.4,1.4c0.8,0,1.4-0.6,1.4-1.4s-0.6-1.4-1.4-1.4C214.5,188.6,213.9,189.3,213.9,190z"/>
		</g>
	</g>
</g>
</svg>
