<svg xmlns="http://www.w3.org/2000/svg" viewBox="0 0 693.54 285.85"><defs><style>.cls-1{fill:#006bac;}.cls-2{fill:#0989a3;}</style></defs><g id="レイヤー_2" data-name="レイヤー 2"><g id="テキスト"><path class="cls-1" d="M18.18,14.13a.19.19,0,0,0-.14,0c-1,.5-4.45,2.21-5.4,2.21s-2.25-1.89-2.25-2.52.63-.72,1.67-1.08A40.06,40.06,0,0,0,22,7.6c.14-.09.23-.18.23-.31,0-.32-.27-.41-.5-.41H10.93c-.85,0-1.26.36-1.26,1.26v9.05c0,6.66-.36,13.27-3.14,19.44-1,2.16-1.53,3.46-2.25,3.46S1,38.65,1,37.75a1.33,1.33,0,0,1,.26-.58A29.28,29.28,0,0,0,5,26.46c0-.32-.09-.63-.5-.63a.61.61,0,0,0-.36.13A12.58,12.58,0,0,0,3,26.82c-.31.18-.31.4-.4.9a.53.53,0,0,1-.5.4c-.54,0-.86-1.08-1-1.62S0,24,0,23.76,1,23,1.84,22.63s1.81-.94,2.66-1.44a1.77,1.77,0,0,0,1-1.71V9.27c0-1.35,0-2.66,0-4,0-1.71.94-2,2.43-2s2.92.09,4.37.09h6c.81,0,1.17-.31,1.17-1.17A5.57,5.57,0,0,0,19.35.94c0-.09-.05-.27-.05-.4,0-.5.41-.54.81-.54.63,0,3.24.23,4,.27.36,0,1.21.09,1.21.63,0,.31-.27.41-.63.68a1,1,0,0,0-.45.85c0,.72.63.9,1.22.9H34c1.58,0,3.2-.09,4.82-.09,1,0,1,.36,1,1.89s0,1.84-1,1.84c-1.62,0-3.24-.09-4.86-.09H28.21s-.13,0-.13.09a.15.15,0,0,0,.13.14c.32.18.41.31.41.49s-.32.41-.54.45a.15.15,0,0,0-.14.14c0,.09,0,.09.09.13a42.79,42.79,0,0,0,12,4.95c.27.09.59.27.59.59,0,.54-1,2.79-2.16,2.79s-5.85-2-7.16-2.66h-.13a.29.29,0,0,0-.32.32c0,.63-.09.94-.76.94-1,0-1.94,0-2.93,0h-5c-.95,0-1.94,0-2.93,0-.58,0-.67-.27-.72-.81C18.45,14.26,18.36,14.13,18.18,14.13ZM2.92,17c-.63,0-.71-.45-1-1.71C1.49,13.68,1,12.1.41,10.57a3.5,3.5,0,0,1-.23-.85c0-.77,1.94-1.49,2.3-1.49.67,0,.85.68,1.84,3.65a24.7,24.7,0,0,1,1,3.6C5.31,16.38,3.24,17,2.92,17ZM14,32.13c.76.22,1.26.36,1.26.85,0,.32-.41.41-.67.45s-.46.41-.54.72a33.08,33.08,0,0,1-1.94,4.55c-.23.45-.54.85-1.08.85S8.24,38.83,8.24,38a4.28,4.28,0,0,1,.58-1.12,16.93,16.93,0,0,0,1.89-4.5c.13-.45.22-.9.72-.9A17.45,17.45,0,0,1,14,32.13Zm6.66-6.57H17.77c-.85,0-1.21.31-1.26,1.17,0,.49.09,1.44.09,1.89,0,1-.4.94-1.93.94s-1.84,0-1.84-.9.09-2,.09-3V20.43c0-.9-.09-1.8-.09-2.61,0-1.17.67-1.35,1.71-1.35s1.88,0,2.83,0h3.15c.94,0,1.89,0,2.83,0s1.67.18,1.67,1.3c0,.72-.05,1.67-.05,2.57v4.27c0,.68.05,1.35.05,2.07,0,2.84-2.16,2.93-4.59,2.93-1.26,0-2.07,0-2.07-1.71,0-.45,0-.81.58-.81.32,0,.63,0,.95,0,1.08,0,1.39-.09,1.39-.9C21.28,25.74,21.1,25.56,20.61,25.56ZM27,36c1.71,0,1.93-.4,2.38-2.34.14-.58.27-.9.9-.9.36,0,2.93.23,2.93,1.49a8.3,8.3,0,0,1-1.71,4.23c-1,1.12-2.7,1.17-4.19,1.17H20.38c-2.52,0-4.5-.18-4.5-3.24,0-.54.09-1.08.09-1.62V33.25c0-.54,0-1.12-.09-1.62a5.77,5.77,0,0,1,0-.81c0-.4.22-.54.58-.54s3.33.18,3.87.27c.36.05.77.09.77.45s-.27.45-.5.59c-.4.27-.49.58-.49,1.66v1.67c0,1.08.58,1.12,2,1.12ZM20.74,20.25a.59.59,0,0,0,.54-.59v-.27a.55.55,0,0,0-.54-.58H17.1c-.36,0-.59.22-.59.58v.27a.6.6,0,0,0,.59.59ZM16.51,23a.54.54,0,0,0,.59.58h3.64a.53.53,0,0,0,.54-.58v-.32a.58.58,0,0,0-.54-.58H17.1a.59.59,0,0,0-.59.58Zm8.06-12.51a1.54,1.54,0,0,0-.95.36c-.63.45-1.3.85-2,1.26-.13.09-.22.18-.22.31s.22.32.4.32h5.67c.18,0,.41-.09.41-.27a.34.34,0,0,0-.18-.32c-.59-.36-1.67-.94-2.16-1.3A1.92,1.92,0,0,0,24.57,10.53Zm1.12,24.34c-.36,0-.58-.31-.76-.54a31.33,31.33,0,0,0-2.21-2.65.71.71,0,0,1-.27-.5c0-.49,1.85-1.84,2.39-1.84s1,.58,1.75,1.57C27.67,32.26,28,32.71,28,33,28,33.66,26.32,34.87,25.69,34.87Zm1.85-13.59A24.4,24.4,0,0,0,27.4,18a1.23,1.23,0,0,1,0-.36c0-.36.31-.45.63-.45s2.74.18,3.06.23.81.09.81.49-.23.41-.45.54c-.5.32-.45.59-.45,2.79v1.17c0,.9.09,1.8.09,2.7s-.36.9-1.85.9-1.75.05-1.75-.85c0-.45.09-2.16.09-2.75Zm6.3-1.53a12.2,12.2,0,0,0-.14-2.25v-.31c0-.41.32-.45.68-.45.76,0,2.61.13,3.46.18.36,0,1.08.09,1.08.58,0,.32-.31.45-.58.59-.5.31-.45.72-.45,2.83v2.57c0,.72,0,1.44,0,2.11,0,3.51-2,4.14-5.08,4.14-1.08,0-2.21.18-2.21-2.74,0-.45.09-.9.63-.9h.41a4.84,4.84,0,0,0,.76,0c1.53,0,1.4-.54,1.4-2.25Zm4,19.58c-.4,0-.58-.32-1-1.22a39.44,39.44,0,0,0-2.88-4.68,1.72,1.72,0,0,1-.45-.85c0-.59,2-1.62,2.52-1.62s1.57,1.53,2.61,3.15a19.66,19.66,0,0,1,1.93,3.51C40.54,38.29,38.34,39.33,37.84,39.33Z"/><path class="cls-1" d="M70.69,4.41c.32,0,.9.22.9.63s-.27.45-.54.67c-1.57,1.17-2,15.44-2,18,0,3.51-.09,9,4.77,9A11.39,11.39,0,0,0,82.3,28.3a14.24,14.24,0,0,0,2.75-6.66c.13-.72.22-1.48.9-1.48,1,0,3.73,2.29,3.73,3.64s-1.21,4.1-1.84,5.27a15.75,15.75,0,0,1-13.68,8.59,10,10,0,0,1-7.92-3.46c-2-2.7-2.25-7.07-2.25-10.35,0-3.56.13-7.11.4-10.67.14-2.07.54-6.39.54-8.23V4.46c0-.68,0-1.13.68-1.13A37.94,37.94,0,0,1,70.69,4.41Z"/><path class="cls-1" d="M135.36,6.7a12,12,0,0,0,1.93-.09c.27,0,.72-.09,1-.09.95,0,2.88,2.48,2.88,3.06a8.31,8.31,0,0,1-1,1.76c-.27.4-.54.85-.72,1.17a65.57,65.57,0,0,1-5.85,8.55,1.24,1.24,0,0,0-.36.85,1.2,1.2,0,0,0,.68,1.08,72.78,72.78,0,0,1,7.6,5.81c1.08.94,2.21,2,3.24,3.06a.86.86,0,0,1,.32.63c0,.94-2.48,3.6-3.42,3.6a1.52,1.52,0,0,1-1.13-.68,48,48,0,0,0-9.94-8.91,1.58,1.58,0,0,0-1-.4,2.19,2.19,0,0,0-1.35.76A49.89,49.89,0,0,1,117,34.74a7.75,7.75,0,0,1-2,.85c-.94,0-3-3-3-3.82,0-.54.54-.77,1-.9,8-3.06,15.52-9.95,20.06-17.06a4.33,4.33,0,0,0,.77-1.53c0-.67-.63-.76-1.31-.76h-9.31c-1.94,0-3.87.09-5.81.09-1.21,0-1.12-.68-1.12-2.75,0-1.57,0-2.25,1.08-2.25,1.94,0,3.87.09,5.85.09Z"/><path class="cls-1" d="M186.3,32.17c0,2,.09,4,.09,5.9,0,1.21-.59,1.35-2.25,1.35-2.48,0-2.93-.14-2.93-1.31,0-1.93.09-3.87.09-5.8V20.07c0-.27.14-1.26-.72-1.26-.45,0-1.39.76-1.75,1-1.35,1-8.5,5.76-9.67,5.76-.77,0-3.51-2.74-3.51-3.6,0-.45.4-.63.72-.76A65,65,0,0,0,184.05,9.31a38.15,38.15,0,0,0,6.12-7.6c.13-.23.4-.67.72-.67A16.64,16.64,0,0,1,194,2.88c.49.31,1.75,1.08,1.75,1.62,0,.27-.22.36-.45.45A2.41,2.41,0,0,0,193.5,6a87.67,87.67,0,0,1-6.17,6.75,2.4,2.4,0,0,0-1,2Z"/><path class="cls-1" d="M247,17.1c2.07,0,5-.14,5.58-.14,1.21,0,1.26.36,1.26,2.84,0,1.44-.05,2.29-1.22,2.29-1.89,0-3.78-.09-5.62-.09h-20.7c-1.84,0-3.73.09-5.63.09-1.17,0-1.21-.85-1.21-2.25,0-2.52.09-2.88,1.26-2.88.58,0,3.69.14,5.58.14Z"/><path class="cls-1" d="M278.05,9.09c.63.76,1.9,2.79,2.48,3.69.45.72,2.47,3.87,2.47,4.5,0,.94-3,2.29-3.59,2.29s-.77-.54-1-1a55.85,55.85,0,0,0-4.1-6.93,2.08,2.08,0,0,1-.49-.94c0-.77,2.74-2.12,3.42-2.12A1.08,1.08,0,0,1,278.05,9.09Zm28.26-1.31c.54.18,1.71.54,1.71,1,0,.31-.31.49-.49.63a1.86,1.86,0,0,0-.86,1.17c-2.2,7.92-5.26,14.76-11.61,20.2a34.73,34.73,0,0,1-13,6.8,3.57,3.57,0,0,1-1,.22c-.9,0-3-3-3-3.73s1.35-.9,1.89-1c9.94-2.47,16.38-8.28,20.07-17.86a35.48,35.48,0,0,0,2.07-8c0-.32.09-.72.45-.72A31.52,31.52,0,0,1,306.31,7.78ZM289.53,6c.85,1.12,1.62,2.29,2.34,3.46.45.72,2.52,3.92,2.52,4.59,0,.9-3,2.25-3.65,2.25s-.67-.49-1-1.12a58.83,58.83,0,0,0-4-6.84,2.17,2.17,0,0,1-.49-.95c0-.72,2.74-2.07,3.41-2.07C289,5.35,289.3,5.71,289.53,6Z"/><path class="cls-1" d="M329,27.67c1,0,8.77,6.21,8.77,7.34s-2.25,3.46-3.29,3.46c-.36,0-.67-.4-.9-.67a27.48,27.48,0,0,0-6.83-6.12c-.32-.18-.81-.45-.81-.86C325.94,30.06,328.23,27.67,329,27.67Z"/><path class="cls-2" d="M368.23,5.17c.36.14,1.17.45,1.17.9,0,.27-.18.36-.4.45-1,.5-1.31.9-1.84,2.3a41.27,41.27,0,0,0-2.48,13.68c0,.72.13,5,1,5,.31,0,.54-.58,1-1.62.22-.49.67-2,1.22-2s1.93.9,1.93,1.44-2.21,5.58-2.21,8.19c0,.72.09,1.44.09,2.16,0,1.76-3.19,2.3-3.41,2.3-.77,0-1.13-.86-1.45-1.49a32.47,32.47,0,0,1-2.65-13.86A52,52,0,0,1,361.75,10c.5-2,1.13-3.91,1.63-5.89,0-.32.17-.76.58-.76a16.56,16.56,0,0,1,2.88,1.16C367.42,4.81,368,5.08,368.23,5.17Zm17.91-1.3c.23,0,.45.13.45.4s-.27.5-.49.9a6.27,6.27,0,0,0-.5,3.2V9.63c0,.63.27,1.17.95,1.17a28.77,28.77,0,0,0,4.5-1.13,4,4,0,0,1,.67-.13c.9,0,1.22,3.1,1.22,3.78,0,.85-.32,1.17-5.63,1.89-1,.13-1.53.31-1.53,1.44,0,.9.32,7.78.36,9s.54,1.26,1.53,1.76a25,25,0,0,1,4.86,3.15c.54.45,1.17.94,1.17,1.71,0,1-1.57,3.1-2.61,3.1a2.09,2.09,0,0,1-1.26-.67c-.49-.5-2.74-2.48-3.33-2.48s-.58.36-.67.72c-.81,2.88-3.83,3.78-6.53,3.78-3.6,0-7.51-1.71-7.51-5.85s3.55-5.67,7.06-5.67a11.6,11.6,0,0,1,1.76.14h.31c.63,0,.9-.36.9-.95,0-1.12-.22-5.4-.27-6.7,0-.45.05-1.71-1.08-1.71-.36,0-3.55.18-5.35.18h-.59a10.16,10.16,0,0,1-3.42-.36c-.4-.27-.44-2.84-.44-3.42s0-1.13.71-1.13,4.55.45,6.89.45H379c1.08,0,2.11-.09,2.11-1.08s-.36-5.31-.54-6.43c0-.14,0-.32,0-.45a.55.55,0,0,1,.63-.63A43.75,43.75,0,0,1,386.14,3.87Zm-7,25.24c-1,0-3.24.36-3.24,1.76s2.16,1.93,3.28,1.93c1.71,0,2.84-.63,2.84-2.47C382.05,29.16,380,29.11,379.17,29.11Z"/><path class="cls-2" d="M425.56,4.27c.63.14,1.53.27,1.53.81,0,.18-.09.27-.22.41-.68.49-.81.76-1,1.84a95.46,95.46,0,0,0-1.26,16.38c0,3.51-.09,9,4.77,9a11.39,11.39,0,0,0,8.46-4.37,14.06,14.06,0,0,0,2.79-6.66c.14-.72.18-1.48.86-1.48,1,0,3.73,2.29,3.73,3.64s-1.21,4.1-1.84,5.27a15.75,15.75,0,0,1-13.68,8.59,10,10,0,0,1-7.92-3.46c-2-2.7-2.25-7.07-2.25-10.35,0-3.56.13-7.11.4-10.67.14-2.07.54-6.39.54-8.23V4.46c0-.68.05-1.13.68-1.13A34.72,34.72,0,0,1,425.56,4.27Zm14.13,7.2c0,.68-1.62,2-2.2,2-.27,0-.5-.32-.63-.5a39.52,39.52,0,0,0-3.15-3.55c-.14-.14-.41-.41-.41-.63,0-.59,1.76-1.85,2.21-1.85S439.69,10.93,439.69,11.47Zm5-3.42c0,.68-1.62,2-2.16,2-.27,0-.5-.27-.63-.5a45.86,45.86,0,0,0-3.2-3.51c-.18-.17-.4-.4-.4-.63,0-.58,1.71-1.84,2.16-1.84S444.69,7.56,444.69,8.05Z"/><path class="cls-2" d="M489.73,3.42c.32.13.77.31.77.77,0,.31-.18.49-.32.76a6,6,0,0,0-.76,2.93c0,.08-.05.31-.05.4,0,.9.86,1,1.49,1.17C497,11,501.21,15.43,501.21,22c0,7.6-5.18,12.24-11.61,15.3a6.73,6.73,0,0,1-2.25.76c-1,0-2.84-2.74-2.84-3.64,0-.54.68-.68,1.4-.9,5.22-1.71,10.57-5.54,10.57-11.61s-5.89-8.24-7.15-8.24c-.63,0-.9.59-1,1.08a33.57,33.57,0,0,1-5.76,13.68c-2.3,3.06-5.94,6.17-9.95,6.17-4.18,0-5.58-4.37-5.58-7.83a16.29,16.29,0,0,1,4.19-11.12,1.35,1.35,0,0,0,.5-1,3.09,3.09,0,0,0-.28-1.08c-.63-1.89-1.12-3.83-1.75-5.76a3.28,3.28,0,0,1-.13-.68c0-.4.35-.63.71-.72a23.52,23.52,0,0,1,3.56-.9c.72,0,.77.73.86,1.31.17,1.08.54,2.79.8,3.82.14.41.32.72.82.72a1.56,1.56,0,0,0,.76-.22,18.56,18.56,0,0,1,6-2c1.53-.23,1.62-.5,1.62-3.92,0-.67,0-1.35,0-2,0-.44.09-.81.63-.81A27.47,27.47,0,0,1,489.73,3.42ZM476.91,26.64c-.9-1.85-1.75-3.65-2.57-5.54-.09-.22-.31-.63-.63-.63-.71,0-2.11,3.33-2.11,6.21,0,1.17.18,3.29,1.71,3.29,1.31,0,3.78-1.62,3.78-2.66A1.62,1.62,0,0,0,476.91,26.64Zm.49-10.13a36.19,36.19,0,0,0,1.85,4.91c.4.9.58,1.44,1,1.44,1.17,0,3.47-7.43,3.47-8.69a.57.57,0,0,0-.63-.63C482,13.54,477.4,15,477.4,16.51Z"/><path class="cls-2" d="M540.13,2.29c1.17.14,1.8.23,1.8.73,0,.85-.76.08-.85,3.73,0,.63.13,1.3.94,1.3.18,0,1.94-.27,2.25-.31a45.57,45.57,0,0,0,4.91-1,11.31,11.31,0,0,1,1.71-.36c1,0,1.12,2.93,1.12,3.69s-.4,1-1.26,1.17c-2.34.5-5.13.9-7.51,1.17-1,.14-2,.09-2,1.35a14.3,14.3,0,0,0,.23,2.39c.09.27.18.72.72.72a38.79,38.79,0,0,0,5.76-1.08,2.87,2.87,0,0,1,.85-.18c.63,0,.77,1,.77,2.7,0,1.48,0,1.93-.86,2.11a39.56,39.56,0,0,1-4.63.77c-1.71.18-2.61.18-2.61,1.44,0,4.68.18,4.32,2.11,4.95,1.49.49,7.43,3,7.43,4.63,0,1-1.49,3.29-2.57,3.29a2.5,2.5,0,0,1-1.39-.72c-.81-.63-3.78-2.75-4.68-2.75-.72,0-.81.68-.9,1-1,3.87-4.5,5-8.15,5s-7.51-1.67-7.51-5.85c0-4.55,4.9-6,8.64-6,.54,0,1.57.09,1.84.09.77,0,.77-.81.77-1.26,0-1.44.09-3.1-1-3.1-.94,0-3.46.18-5.4.18s-2.7,0-3.05-.77a9,9,0,0,1-.59-3.15c0-.54.13-.94.76-.94s3.06.22,4.77.22h2c1.66,0,2.29-.13,2.29-1.12,0-1.31,0-3.15-1.21-3.15-1.58,0-5.17.22-7.61.22h-1.35c-1.21,0-2.34,0-2.6-.4a8,8,0,0,1-.5-3.29c0-.63.05-1.26.81-1.26.95,0,4.72.36,6.93.36,4,0,5.08.09,5.08-1.12,0-.72-.27-3.73-.4-4.5a3.64,3.64,0,0,1-.09-.72c0-.45.27-.54.67-.54C537.21,1.89,539.32,2.21,540.13,2.29Zm-10,29.88c0,1.53,2,1.8,3.19,1.8,2.07,0,3.83-.58,3.83-3,0-.86-1.08-.86-2.12-.86C533.61,30.1,530.1,30.24,530.1,32.17Z"/><path class="cls-2" d="M588.19,4.41c.32,0,.9.22.9.63s-.27.45-.54.67c-1.57,1.17-2,15.44-2,18,0,3.51-.09,9,4.77,9a11.39,11.39,0,0,0,8.46-4.37,14.24,14.24,0,0,0,2.75-6.66c.13-.72.22-1.48.9-1.48,1,0,3.73,2.29,3.73,3.64s-1.21,4.1-1.84,5.27a15.75,15.75,0,0,1-13.68,8.59,10,10,0,0,1-7.92-3.46c-2-2.7-2.25-7.07-2.25-10.35,0-3.56.13-7.11.4-10.67.14-2.07.54-6.39.54-8.23V4.46c0-.68.05-1.13.68-1.13A37.94,37.94,0,0,1,588.19,4.41Z"/><path class="cls-2" d="M646.47,1.35c.4.13,1.66.45,1.66.94,0,.23-.27.36-.4.46-.68.4-.72.58-1,1.57-.13.49-1.08,3.78-1.08,4a.67.67,0,0,0,.68.68,31.78,31.78,0,0,0,5.22-1.67,2.48,2.48,0,0,1,.94-.22c.9,0,.9,2.74.9,3.42s-.09,1.39-.85,1.62a68.25,68.25,0,0,1-7.38,1.75c-1.31.27-1.44.5-1.85,1.76a140.34,140.34,0,0,1-8.36,19.84c-.59,1.08-.95,1.71-1.62,1.71s-3.83-1.44-3.83-2.43a3.44,3.44,0,0,1,.76-1.48c2.84-4,6.21-11.88,8-16.65a7,7,0,0,0,.36-1.17c0-.45-.36-.68-.81-.68-.63,0-2.61.23-4,.23-.91,0-1.62,0-1.9-.81a20.46,20.46,0,0,1-.35-3.29c0-.49.13-.81.67-.81s2.3.18,4.23.18c2.88,0,3.55,0,4-.72.54-.9,1.62-6.88,1.66-8.18,0-.68,0-1.13.5-1.13S645.88,1.17,646.47,1.35Zm-.63,29c2,2.21,5.4,2.61,8.14,2.61a20.16,20.16,0,0,0,6.39-.9,1.89,1.89,0,0,1,.45-.09c.77,0,.77,1,.77,2.84,0,.9,0,1.93-.5,2.25-.81.36-5.89.58-7,.58-3,0-7.11-.36-9.63-2-.72-.5-2.2-1.62-2.2-2.57,0-.67,2.07-3.33,2.79-3.33C645.34,29.74,645.66,30.15,645.84,30.37Zm5.49-14.53a32.09,32.09,0,0,1,9,1.26.84.84,0,0,1,.63.9,11.51,11.51,0,0,1-.85,3.15.78.78,0,0,1-.81.58,2.53,2.53,0,0,1-1-.22,20.07,20.07,0,0,0-7.15-1.13c-.59,0-1.13.05-1.71.05-.9,0-1.13-.23-1.13-1C648.4,15.57,649.21,15.84,651.33,15.84Z"/><path class="cls-2" d="M693.54,32.53a6.26,6.26,0,1,1-6.25-6.25A6.27,6.27,0,0,1,693.54,32.53Zm-10.26,0a4,4,0,1,0,8,0,4,4,0,0,0-4-4A4,4,0,0,0,683.28,32.53Z"/><path class="cls-2" d="M193.6,111c.07-.17.11-.37.3-.37a5.48,5.48,0,0,1,1.22.41l.36.16c.49.19.83.33.83.53s-.16.21-.32.23a.51.51,0,0,0-.48.3c-.39.67-.76,1.31-1.2,1.93,0,.07-.07.12-.07.21s.19.28.37.3h.28c.87,0,1.77,0,2.64,0,.55,0,.53.23.53,1s0,.94-.51.94c-.89,0-1.79-.07-2.66-.07H181.8c-.43,0-.62.21-.62.65V121a28.52,28.52,0,0,1-.94,7.75,15.61,15.61,0,0,1-.71,2.16.49.49,0,0,1-.44.25c-.44,0-1.7-.48-1.7-.92a1.11,1.11,0,0,1,.16-.39,16.87,16.87,0,0,0,.87-2.83,29.43,29.43,0,0,0,.6-6.55v-3c0-.6,0-1.17,0-1.77,0-.85.43-1.06,1.22-1.06.55,0,1.1,0,1.63,0,.14,0,.25-.09.25-.25a.65.65,0,0,0,0-.19c-.44-.64-.88-1.29-1.36-1.88-.09-.1-.23-.26-.23-.39,0-.35,1.26-1,1.63-1s.71.53,1.34,1.38a5.08,5.08,0,0,1,.82,1.38c0,.29-.69.59-.94.71,0,0-.07.07-.07.11s.05.12.14.12H191a1,1,0,0,0,1-.48A23.64,23.64,0,0,0,193.6,111Zm-7.91,17.73-.14,0c-1.13.27-2.25.48-3.38.71-.16,0-.21.09-.27.23s-.14.25-.28.25-.25-.2-.42-.64c0-.14-.11-.32-.18-.51a3.37,3.37,0,0,1-.23-.75c0-.23.23-.26.6-.3a2.93,2.93,0,0,0,.37,0c.46-.07.57-.25.62-.71V122.1c0-.25-.09-.41-.37-.43a.55.55,0,0,1-.18,0c-.49,0-.46-.23-.46-.78s0-.81.48-.81,1.06.05,1.59.05h.25c.39,0,.55-.16.55-.55v-.07c0-.37-.16-.53-.53-.55s-.76,0-1.08,0c-.48,0-.46-.27-.46-.8s0-.79.46-.79,1.1,0,1.66,0h2.16c.55,0,1.1,0,1.65,0s.46.28.46.79,0,.8-.53.8c-.27,0-.66-.07-1.28,0-.37,0-.56.16-.56.55v.07c0,.39.17.55.56.55h.48c.53,0,1.08-.05,1.59-.05s.48.21.48.81,0,.78-.46.78l-.3,0c-.37,0-.53.18-.53.53v6.32c0,.71.07,1.42.07,2.14,0,.57-.21.62-1,.62s-1-.05-1-.65,0-.94,0-1.42C186.1,129,186,128.73,185.69,128.73Zm0-6.14a.41.41,0,0,0,.44-.44v-.07a.47.47,0,0,0-.44-.44h-1a.45.45,0,0,0-.46.44v.07a.43.43,0,0,0,.46.44Zm0,2.27a.43.43,0,0,0,.44-.43v-.1a.42.42,0,0,0-.44-.43h-1a.42.42,0,0,0-.46.43v.1a.45.45,0,0,0,.46.43Zm-.94,1.34c-.37,0-.56.16-.56.52v.12c0,.25.12.46.44.46h.09c.37,0,.72-.09,1.06-.16a.39.39,0,0,0,.35-.37c0-.41-.23-.57-.65-.57ZM188,114.47c-.23,0-.34-.14-.43-.35a23.83,23.83,0,0,0-1.41-2.23,1,1,0,0,1-.18-.41c0-.37,1.33-.92,1.66-.92s.53.34,1.26,1.52a7,7,0,0,1,.78,1.47C189.71,114,188.4,114.47,188,114.47ZM193,119c0,.3.23.37.46.39h1.83c.76,0,1.52,0,2.3,0,.56,0,.53.23.53,1s0,1-.53,1-1.31-.05-2-.05c-.09,0-.09.07-.09.09a.13.13,0,0,0,.07.12c.76.21,1.17.27,1.17.57s-.14.23-.3.32-.28.26-.39.65a13.76,13.76,0,0,1-1.13,2.85.93.93,0,0,0-.11.44.75.75,0,0,0,.25.5,17.86,17.86,0,0,0,3,2.44.35.35,0,0,1,.2.35c0,.46-.8,1.51-1.28,1.51s-2.65-2-3.08-2.46a.59.59,0,0,0-.4-.18.51.51,0,0,0-.39.21c-.41.5-2.46,2.57-3,2.57s-1.4-1-1.4-1.33.25-.35.39-.44a12.84,12.84,0,0,0,2.69-2.51,1,1,0,0,0,.18-.48.91.91,0,0,0-.18-.48,15.16,15.16,0,0,1-.87-1.57.31.31,0,0,0-.26-.18.3.3,0,0,0-.25.14c-.23.37-.41.71-.69.71s-1.4-.8-1.4-1.1c0-.12.16-.32.23-.44s1.17-2,1.33-2.32a24.53,24.53,0,0,0,1.4-4c.05-.23.07-.44.3-.44a5.46,5.46,0,0,1,.83.19c1,.23,1.4.3,1.4.57s-.11.23-.25.28c-.3.11-.3.16-.44.6a1.35,1.35,0,0,1-.09.29A.65.65,0,0,0,193,119Zm-.07,5.15c.07.07.13.18.3.18a.31.31,0,0,0,.27-.23,9.34,9.34,0,0,0,.64-2.2c0-.05,0-.1,0-.14,0-.32-.23-.44-.51-.44h-1a.78.78,0,0,0-.76.35.88.88,0,0,0-.05.29,1.31,1.31,0,0,0,.12.51A17.24,17.24,0,0,0,192.89,124.15Z"/><path class="cls-2" d="M210.78,112.93c.16,0,.46.11.46.32s-.14.23-.28.34c-.8.6-1,7.89-1,9.2,0,1.8,0,4.58,2.44,4.58a5.84,5.84,0,0,0,4.32-2.23,7.25,7.25,0,0,0,1.4-3.4c.07-.37.12-.76.46-.76.51,0,1.91,1.17,1.91,1.86a8.64,8.64,0,0,1-.94,2.69,8.06,8.06,0,0,1-7,4.39,5.08,5.08,0,0,1-4.05-1.77c-1-1.38-1.15-3.61-1.15-5.29s.07-3.63.21-5.45c.07-1.06.27-3.26.27-4.21V113c0-.34,0-.57.35-.57A19.23,19.23,0,0,1,210.78,112.93Z"/><path class="cls-2" d="M232.41,115.32c.19.05.51.09.51.32s-.09.19-.23.3a1.68,1.68,0,0,0-.42,1.1,18,18,0,0,0-.18,2.44,13.13,13.13,0,0,0,.74,4.81c.27.64,1,2,1.84,2,.64,0,1.31-1,1.58-1.52.14-.23.32-.57.62-.57.49,0,1.66.94,1.66,1.35s-1,1.63-1.36,2a3.29,3.29,0,0,1-2.46,1.45c-1.7,0-3-1.54-3.79-2.94-1.15-2.16-1.34-5.06-1.34-7.5,0-.37.07-3.29.12-3.49a.28.28,0,0,1,.32-.26C230.32,114.81,232,115.25,232.41,115.32Zm9.36-.46c.51,0,2.44,1.45,3.54,3.56a12.48,12.48,0,0,1,1.36,4.79c0,.43-.23.55-.62.66a4.7,4.7,0,0,1-1.29.21c-.74,0-.71-.32-.76-.87a8.83,8.83,0,0,0-3.4-6.56.37.37,0,0,1-.21-.34C240.39,115.87,241.31,114.86,241.77,114.86Z"/><path class="cls-2" d="M271.63,117.53a.5.5,0,0,1,.34-.21c.21,0,.78.53,1.2.83.18.14.64.46.64.69s-.23.23-.37.23a.73.73,0,0,0-.5.16c-.78.57-1.54,1.13-2.35,1.63,0,0-.09.09-.09.16s.09.16.21.19h.43c.9,0,1.8-.07,2.72-.07.55,0,.53.2.53.92s0,.92-.53.92c-.9,0-1.82-.07-2.72-.07h-3.47a1.8,1.8,0,0,0-1.08.25c-.39.18-.78.39-1.19.6a.15.15,0,0,0-.12.16c0,.11.12.16.21.16h3l1.75,0c.64,0,.94.2.94.89,0,.46,0,.92,0,1.38v3.09c0,.46.05.89.05,1.35s-.28.53-1.27.53c-.74,0-1,0-1.08-.25-.16-.39-.23-.53-.55-.53h-6.67c-.23,0-.3.11-.37.34s-.27.37-1.15.37-1.17.05-1.17-.5,0-.9,0-1.36V127c0-.23-.11-.46-.39-.46a.61.61,0,0,0-.18,0,29.82,29.82,0,0,1-3.43,1c-.52,0-1.05-1.31-1.05-1.59s.48-.41.76-.48a66.35,66.35,0,0,0,6.94-2.3c.07,0,.11-.09.11-.16s-.11-.14-.18-.16h-4.23c-.9,0-1.82.07-2.71.07-.56,0-.53-.19-.53-.92s0-.92.53-.92c.89,0,1.81.07,2.71.07h4.35c.39,0,.55-.17.55-.56v-.13c0-.37-.16-.53-.55-.53h-2.14c-.83,0-1.68,0-2.53,0-.55,0-.53-.2-.53-.87s0-.87.53-.87c.85,0,1.7,0,2.53,0h2c.42,0,.56-.18.56-.6v-.23c0-.16-.07-.18-.23-.18h-1.68l-1.84,0c-.65,0-1.13-.11-1.13-.87,0-.39,0-.81,0-1.27v-1.81c0-.48,0-.88,0-1.27,0-.76.46-.89,1.13-.89s1.22,0,1.84,0h8c.6,0,1.2,0,1.82,0s1.15.11,1.15.89c0,.39,0,.81,0,1.27v1.81c0,.46,0,.88,0,1.27,0,.74-.48.87-1.13.87l-1.84,0h-4s-.07,0-.07,0,.07,0,.28,0c.37,0,.66,0,.66.28s-.13.22-.27.32-.16.11-.16.18.11.16.21.16h.71c.76,0,1.54,0,2.32,0,.6,0,.55.2.55,1a.29.29,0,0,0,.28.33c.07,0,.11,0,.18-.07A17.54,17.54,0,0,0,271.63,117.53Zm-11.69-4.76a.37.37,0,0,0-.36.36v.17c0,.23.14.36.36.36h8.65a.35.35,0,0,0,.37-.36v-.17a.39.39,0,0,0-.37-.36Zm-.36,2.64c0,.23.14.37.36.37h8.65a.36.36,0,0,0,.37-.37v-.16a.4.4,0,0,0-.37-.37h-8.65a.38.38,0,0,0-.36.37Zm9.31,10.67a.43.43,0,0,0-.44-.44h-6.73a.43.43,0,0,0-.44.44v.09a.4.4,0,0,0,.44.44h6.73a.42.42,0,0,0,.44-.44Zm-.44,2.94a.42.42,0,0,0,.44-.43v-.16a.42.42,0,0,0-.44-.44h-6.73a.42.42,0,0,0-.44.44v.16a.42.42,0,0,0,.44.43Zm-3.81-8.37c0,.39.16.56.55.56h.37a1.83,1.83,0,0,0,.92-.21c.34-.21.69-.39,1-.6.07,0,.14-.09.14-.18s-.12-.19-.23-.21c-.6,0-1.17,0-1.77,0h-.46c-.39,0-.55.16-.55.53Z"/><path class="cls-2" d="M289.06,111.8c.5.87.94,1.77,1.42,2.67a.69.69,0,0,0,.63.44,10.43,10.43,0,0,0,2.5-1.25,1.42,1.42,0,0,1,.62-.27c.46,0,1.47,1.38,1.47,1.79,0,.25-.39.44-.68.6a18.55,18.55,0,0,1-2.12,1c-.3.11-.76.2-.76.62a1.77,1.77,0,0,0,.39.87,26.25,26.25,0,0,0,3.34,5.06,1.09,1.09,0,0,1,.36.65c0,.5-1.15,1.51-1.63,1.51-.25,0-.6-.3-.87-.48a11.07,11.07,0,0,0-5.45-1.93,2.24,2.24,0,0,0-2.46,2.05c0,2.36,3.52,2.85,5.29,2.85.53,0,1,0,1.28,0,.46,0,.53.32.53.74a4.32,4.32,0,0,1-.23,1.4c-.11.3-.3.39-.78.39a17.47,17.47,0,0,1-4-.53c-2.4-.6-4.56-2-4.56-4.69s2.28-4.39,4.85-4.39a7.31,7.31,0,0,1,2.88.66.66.66,0,0,0,.25.07c.12,0,.26-.07.26-.2a1,1,0,0,0-.14-.35c-.51-.78-.88-1.4-1.34-2.23-.2-.37-.36-.8-.87-.8a1,1,0,0,0-.3.07,32.19,32.19,0,0,1-5.45.87c-.51,0-.62-.18-.83-.83a4.68,4.68,0,0,1-.27-1.22c0-.37.25-.39.55-.41a25.31,25.31,0,0,0,4.6-.51c.25-.07.55-.13.55-.46a15.78,15.78,0,0,0-1.73-2.8.87.87,0,0,1-.16-.37c0-.46,1.91-.94,2.23-.94S288.92,111.55,289.06,111.8Z"/><path class="cls-2" d="M306.37,114.79c3.36-.21,6.72-.55,10.05-.94,1.75-.21,3.5-.44,5.22-.72a1.51,1.51,0,0,1,.3,0c.35,0,.39.3.44.58a10.57,10.57,0,0,1,.21,1.68c0,.5-.49.46-1,.48a11.34,11.34,0,0,0-3.82.48,7,7,0,0,0-3.91,3.43,8.67,8.67,0,0,0-1.1,4c0,2.67,1.7,3.32,4,3.32.39,0,.89,0,1.15,0s.53,0,.53.39a6.65,6.65,0,0,1-.35,1.89c-.16.34-.34.39-.73.39-3.91,0-7.27-1.24-7.27-5.73a10.2,10.2,0,0,1,2.53-6.6c.25-.27.39-.43.39-.55s-.18-.27-.35-.27-1.21.18-1.44.2c-1.54.23-3.61.56-5.09,1a2,2,0,0,1-.34,0c-.32,0-.44-.5-.51-.76a10.45,10.45,0,0,1-.25-1.65C305,114.79,305.36,114.86,306.37,114.79Zm15.27,5.61c0,.35-.92,1-1.17,1s-.23-.16-.32-.28c-.46-.67-1-1.31-1.47-1.93-.07-.07-.21-.21-.21-.32,0-.28.92-.85,1.17-.85A8.7,8.7,0,0,1,321.64,120.4Zm2.78-1.26c0,.32-.89,1-1.17,1s-.25-.18-.34-.3a20.61,20.61,0,0,0-1.5-1.91.5.5,0,0,1-.16-.29c0-.28.9-.88,1.17-.88A9.3,9.3,0,0,1,324.42,119.14Z"/><path class="cls-2" d="M332.05,119.34c-.3,0-.34-.27-.41-.5a21.78,21.78,0,0,0-.92-2.76,1.17,1.17,0,0,1-.12-.39c0-.35,1.15-.69,1.36-.69s.34,0,.83,1.45c.11.36.69,1.93.69,2.18S332.3,119.34,332.05,119.34Zm1.17,4.37a.34.34,0,0,0-.18.07c-.28.21-.55.42-.83.6s-.14.14-.18.37-.09.3-.26.3-.5-.67-.66-1c-.07-.14-.12-.3-.19-.44a4.8,4.8,0,0,1-.27-.75c0-.14.16-.23.6-.44l.36-.18c.56-.3,1.08-.6,1.61-1s.53-.39.53-.89v-4.63c0-.71,0-1.45,0-2.16,0-.9.43-1.1,1.26-1.1s1.5,0,2.26,0H340c.42,0,.62-.16.62-.59a4.77,4.77,0,0,0-.06-.76s0-.14,0-.19c0-.25.21-.3.42-.3l.43,0,.74,0c.9.05,1.4.12,1.4.37s-.11.21-.27.32a.54.54,0,0,0-.23.49c0,.43.18.59.62.59h4.14c.94,0,1.91,0,2.69,0,.55,0,.55.27.55,1.06s0,1.1-.55,1.1c-.85,0-1.77-.07-2.69-.07H336.58c-.46,0-.64.21-.64.64v4.88a21.61,21.61,0,0,1-1.47,8.62,14.64,14.64,0,0,1-1.15,2.23c-.12.16-.23.3-.44.3-.51,0-1.79-.66-1.79-1.17,0-.14.2-.39.27-.51a15.43,15.43,0,0,0,2.09-5.54C333.48,123.85,333.41,123.71,333.22,123.71Zm4.44,6.74c-.16.3-.3.62-.71.62s-1.66-.44-1.66-.94a1,1,0,0,1,.26-.48,15.56,15.56,0,0,0,1.68-4,17.27,17.27,0,0,0,.52-4.58v-.78c0-.71,0-1.4,0-2.12,0-.92.37-1.19,1.24-1.19.71,0,1.43,0,2.14,0H342c.44,0,.63-.18.63-.62a6.13,6.13,0,0,0-.07-.87v-.23c0-.25.16-.3.36-.3.35,0,1.52.12,1.91.16.19,0,.58,0,.58.3s-.14.23-.3.35a.68.68,0,0,0-.25.57c0,.46.18.64.64.64H347c.64,0,1.29,0,1.93,0a1.43,1.43,0,0,1,1.15.39,1.72,1.72,0,0,1,.53.9,6.29,6.29,0,0,1-1,1.86c-.18.27-.62,1-1,1s-1.67-.65-1.67-1.06a.42.42,0,0,1,.16-.28c.09-.11.46-.55.46-.69s-.23-.18-.53-.18h-1.61c-.44,0-.62.18-.62.64V121c0,.46.18.65.62.65h1.22l1.54,0a1.2,1.2,0,0,1,1.22.64,1.3,1.3,0,0,1,.29.76c0,.83-2,3.29-2.69,3.91a.53.53,0,0,0-.16.37c0,.18.12.27.26.36a17.66,17.66,0,0,0,3.56,1.36c.3.09.69.16.69.53s-.46,1.7-1,1.7a3.26,3.26,0,0,1-.67-.16,18.43,18.43,0,0,1-4.39-2,1,1,0,0,0-.48-.16.91.91,0,0,0-.51.19c-.71.46-3.47,2-4.21,2-.57,0-1.33-1.22-1.33-1.61s.41-.46,1-.66a15.07,15.07,0,0,0,2.74-1.25c.14-.09.25-.18.25-.36a.58.58,0,0,0-.16-.39,10.18,10.18,0,0,1-1.91-2.79.88.88,0,0,0-.55-.53c-.32.1-.39.26-.46.56A18.18,18.18,0,0,1,337.66,130.45Zm4.32-8.76c.46,0,.65-.19.65-.65v-1.47c0-.46-.19-.64-.65-.64h-1.44c-.44,0-.62.18-.62.64V121c0,.46.18.65.62.65Zm2.83,4.21a.61.61,0,0,0,.44-.19c.28-.27,1.45-1.54,1.45-1.86s-.23-.23-.55-.23h-2.67c-.18,0-.39.07-.39.3a.3.3,0,0,0,.07.23,9.82,9.82,0,0,0,1.22,1.54A.61.61,0,0,0,344.81,125.9Z"/><path class="cls-2" d="M366,111.55c.12,0,.25.11.25.25a.54.54,0,0,1-.18.35c-.3.25-.28.32-.42,1.26,0,.39-.2,1.52-.2,1.84s.16.32.37.39a1.65,1.65,0,0,1,.78,1.06c0,.09-.09.18-.14.25a12.64,12.64,0,0,0-.62,1.13,2,2,0,0,0-.05.37c0,.11.05.23.19.23a.28.28,0,0,0,.18-.12c.48-.5,1.4-1.33,2-1.79a5.39,5.39,0,0,1,3.33-1.63,2.49,2.49,0,0,1,2,1,4.18,4.18,0,0,1,.41,2.18c0,1.2,0,2.39-.11,3.57-.05,1-.12,2-.12,3,0,.55,0,1.35.51,1.35s1.61-1,2-1.45a.68.68,0,0,1,.44-.25c.39,0,1.06,1.72,1.06,2.09s-.86.92-1.11,1.11a6,6,0,0,1-3.24,1.33c-1.93,0-2.12-2.23-2.12-3.68,0-2.07.3-4.16.3-6.23,0-.51,0-1.31-.69-1.31a3.43,3.43,0,0,0-1.79.92,23.12,23.12,0,0,0-2.51,2.23,7.3,7.3,0,0,0-1.28,1.47c-.1.3,0,3.11,0,3.63,0,.14,0,.83.06,1.22,0,1,.12,2.19.12,2.44s0,.39-1.68.39c-.55,0-1,0-1-.46,0-.21.14-2.76.14-3.79,0-.12,0-.3-.2-.3s-.33.34-.56.69-1,1.65-1.19,2.09c-.07.14-.16.28-.3.28-.39,0-1.73-1.13-1.73-1.52a2.51,2.51,0,0,1,.46-.83c1.25-1.82,2.33-3.7,3.38-5.61a2.05,2.05,0,0,0,.28-1.08c0-.21,0-.41,0-.6a.3.3,0,0,0-.3-.34,1.63,1.63,0,0,0-.42.11,15.45,15.45,0,0,1-2.78.94c-.37,0-.55-.34-.67-.64a7.17,7.17,0,0,1-.48-1.56c0-.37.48-.37.76-.42.69-.09,3.61-.6,3.89-1.15a1.51,1.51,0,0,0,.11-.69c0-.62.09-2,.09-3,0-.27,0-.55,0-.71s.12-.32.37-.32S365.8,111.48,366,111.55Z"/><path class="cls-2" d="M393.71,111.36c.21.07.86.23.86.49s-.14.18-.21.23c-.35.2-.37.3-.53.8-.07.25-.55,1.93-.55,2.05a.33.33,0,0,0,.34.34,15.52,15.52,0,0,0,2.67-.85,1.2,1.2,0,0,1,.48-.11c.46,0,.46,1.4.46,1.75s0,.71-.43.82a34.08,34.08,0,0,1-3.78.9c-.66.14-.73.25-.94.9a71.31,71.31,0,0,1-4.28,10.14c-.3.55-.48.87-.82.87s-2-.73-2-1.24a1.73,1.73,0,0,1,.39-.76,44.74,44.74,0,0,0,4.07-8.51,3.17,3.17,0,0,0,.19-.6c0-.23-.19-.34-.42-.34s-1.33.11-2,.11c-.46,0-.83,0-1-.41a10.05,10.05,0,0,1-.18-1.68c0-.25.07-.41.34-.41s1.18.09,2.16.09c1.47,0,1.82,0,2-.37a21.33,21.33,0,0,0,.85-4.18c0-.35,0-.58.25-.58S393.42,111.27,393.71,111.36Zm-.32,14.84c1,1.12,2.76,1.33,4.16,1.33a10.27,10.27,0,0,0,3.27-.46,1,1,0,0,1,.23,0c.39,0,.39.53.39,1.45,0,.46,0,1-.25,1.15a21.46,21.46,0,0,1-3.59.3,9.75,9.75,0,0,1-4.92-1c-.37-.26-1.13-.83-1.13-1.31s1.06-1.71,1.43-1.71C393.14,125.87,393.3,126.08,393.39,126.2Zm2.81-7.43a16.73,16.73,0,0,1,4.62.64.43.43,0,0,1,.32.46,5.43,5.43,0,0,1-.44,1.61c-.09.21-.18.3-.41.3a1.2,1.2,0,0,1-.48-.11,10.29,10.29,0,0,0-3.66-.58l-.87,0c-.46,0-.58-.11-.58-.5C394.7,118.63,395.12,118.77,396.2,118.77Z"/><path class="cls-2" d="M416.45,116.08a.7.7,0,0,0,.69-.6c.05-.46.17-2.92.19-3.47,0-.23,0-.53.3-.53.13,0,2.16.39,2.39.46s.34.09.34.25-.16.3-.25.39c-.28.26-.25.28-.32,1-.05.32-.19,1.7-.19,1.93a.51.51,0,0,0,.56.53l2.2,0c.67,0,2.51-.09,2.53-.09a1.82,1.82,0,0,1,1.31,1.33c0,.23-.32,2.78-.36,3.22-.23,1.77-.58,5-1.29,6.53a3.33,3.33,0,0,1-3,2,8.74,8.74,0,0,1-1.33.09.73.73,0,0,1-.81-.46,4.71,4.71,0,0,1-.6-1.61.38.38,0,0,1,.42-.41c.23,0,.76.09,1.31.09,1.36,0,1.84-.62,2.18-2.25a40.13,40.13,0,0,0,.69-5.5c0-.62-.32-.57-1.35-.57l-2.33,0c-.57,0-.66.48-.73.83a19.16,19.16,0,0,1-4.51,8.94c-.32.35-1.7,1.8-2.12,1.8s-1.74-1.08-1.74-1.5c0-.18.18-.3.32-.41a15.93,15.93,0,0,0,5-7,12.07,12.07,0,0,0,.6-2.2.48.48,0,0,0-.49-.49l-3.24,0c-.62,0-2,.09-2.3.09-.5,0-.57-.37-.57-1.27s0-1.19.55-1.19l2.3,0Z"/><path class="cls-2" d="M447.59,117.53c.53,0,1.59,0,2.07,0a3,3,0,0,1,.42,0,2.76,2.76,0,0,1,1.63,1.52,6.77,6.77,0,0,1-.3,1,16.84,16.84,0,0,1-1.33,3.1,19.34,19.34,0,0,1-4.76,5.43c-.65.53-3.13,2.3-3.85,2.3-.52,0-1.58-1.31-1.58-1.71s.57-.48.8-.59a16.61,16.61,0,0,0,7.06-6.53,6,6,0,0,0,.62-1.5c0-.55-.62-.5-1-.5h-8.55c-1,0-1.93,0-2.92,0-.64,0-.64-.23-.64-1.13,0-1.17,0-1.33.66-1.33,1,0,2,0,2.95,0Zm-1.54-5c.94,0,2.12-.07,2.71-.07s.63.25.63,1.4c0,.79,0,1.08-.63,1.08-.92,0-1.81,0-2.71,0h-5.63c-.9,0-1.8,0-2.69,0-.65,0-.65-.27-.65-1.12,0-1.08.05-1.36.62-1.36s1.82.07,2.72.07Z"/><path class="cls-2" d="M473.09,115a5.61,5.61,0,0,0,1.13-.07.68.68,0,0,1,.21,0c.44,0,1.36,1.26,1.36,1.67a.49.49,0,0,1-.14.3,5.92,5.92,0,0,0-.53,1,38.23,38.23,0,0,1-2.07,4.09,1.38,1.38,0,0,0-.25.65c0,.3.18.44.41.6s1.29.89,1.29,1.19-1,1.75-1.5,1.75a.57.57,0,0,1-.34-.18c-.46-.42-.51-.42-.92-.76a.77.77,0,0,0-.51-.26c-.32,0-.57.33-.78.56a18.82,18.82,0,0,1-5,3.88,11.88,11.88,0,0,1-2.76,1.18c-.6,0-1.68-1.48-1.68-1.8s.78-.46,1-.53a14.14,14.14,0,0,0,6.58-4.14.88.88,0,0,0,.34-.57.57.57,0,0,0-.37-.53c-.83-.48-1.61-.9-2.46-1.31-.16-.07-.43-.19-.43-.39s.87-1.73,1.4-1.73a19.58,19.58,0,0,1,2.83,1.41,1.13,1.13,0,0,0,.57.25c.41,0,.6-.41.78-.76a13.84,13.84,0,0,0,1.2-2.76c0-.46-.58-.46-.92-.46h-4.42c-.55,0-.71.18-1,.6a35.11,35.11,0,0,1-3,3.54,1.27,1.27,0,0,1-.74.44c-.41,0-1.93-1-1.93-1.36,0-.18.23-.32.37-.44a21.46,21.46,0,0,0,6-8.25c.07-.19.16-.58.41-.58a8,8,0,0,1,1.45.62c.39.17,1.2.56,1.2.72s-.12.2-.23.25c-.35.14-.37.18-.74.83-.07.14-.18.34-.32.57a.85.85,0,0,0-.18.46c0,.23.2.32.39.35Zm3.85-1.11c0,.35-.9.92-1.2.92s-.23-.13-.3-.25a24.65,24.65,0,0,0-1.4-2,.58.58,0,0,1-.16-.32c0-.27.94-.8,1.19-.8A8.85,8.85,0,0,1,476.94,113.89Zm1.79-2.39a4.67,4.67,0,0,1,.69,1.13c0,.34-.92.92-1.2.92s-.25-.16-.34-.3c-.44-.69-.9-1.36-1.38-2a.47.47,0,0,1-.16-.3c0-.3.94-.83,1.19-.83s1,1,1.08,1.22C478.64,111.39,478.68,111.43,478.73,111.5Z"/><path class="cls-2" d="M490.54,113.53c.18.06.46.16.46.39s-.09.16-.32.3c-.39.2-.48.41-.71,1a18.18,18.18,0,0,0-1.29,6.54c0,.43.09,3.21.62,3.21.2,0,.53-.66.62-.89s.28-.55.48-.55.83.48.83.73a17.65,17.65,0,0,0-.92,3.34c0,.23.07.75.09,1a2.45,2.45,0,0,1,.05.35c0,.57-1.31,1.12-1.79,1.12s-.67-.5-1-1.12a15.87,15.87,0,0,1-1.4-7.06,27.58,27.58,0,0,1,1.17-7.61c.11-.4.23-.76.3-1.15,0-.21.09-.51.34-.51S490.22,113.39,490.54,113.53Zm2.85,11a4,4,0,0,0,3.5,1.61,18.88,18.88,0,0,0,5.06-.74,1.46,1.46,0,0,1,.48-.09c.37,0,.41.55.41,1.72,0,.28,0,.69-.27.86a27.16,27.16,0,0,1-5.45.68c-3.73,0-5.27-1.93-5.27-2.3s.81-2,1.24-2C493.23,124.31,493.32,124.43,493.39,124.52Zm.83-10a14.54,14.54,0,0,0,3,.34,14.88,14.88,0,0,0,3.5-.46,2.33,2.33,0,0,1,.41-.07c.32,0,.42.28.46.56a10.19,10.19,0,0,1,.09,1.24c0,.48,0,.67-.43.76a27.42,27.42,0,0,1-3.87.32,15.91,15.91,0,0,1-4-.46c-.25-.16-.23-.64-.23-.9,0-1.1.11-1.45.48-1.45A2.77,2.77,0,0,1,494.22,114.47Z"/><path class="cls-2" d="M513.84,124.82c.53,0,4.48,3.17,4.48,3.74s-1.15,1.77-1.67,1.77c-.19,0-.35-.2-.47-.34a14.08,14.08,0,0,0-3.49-3.13c-.16-.09-.41-.23-.41-.43A3.14,3.14,0,0,1,513.84,124.82Z"/><path class="cls-2" d="M211.55,166.13c.46,0,.64-.18.64-.64v-1a14,14,0,0,0-.07-1.72,1.06,1.06,0,0,1,0-.25c0-.28.21-.3.41-.3.42,0,1.84.09,2.28.13.18,0,.39.07.39.28s-.11.21-.3.35-.3.55-.3,1.38v1.17c0,.44.21.62.65.62h1c.82,0,1.67,0,2.43,0,.49,0,.49.33.49,1.13s0,1.13-.49,1.13c-.69,0-1.63-.05-2.43-.05h-1c-.46,0-.65.18-.65.64v9.57c0,1.2.07,2.37.07,3.57,0,.75-.27.78-1.26.78s-1.27,0-1.27-.76v-.16c0-.44-.18-.58-.62-.62h-5.08c-.44,0-.62.18-.62.62,0,.82-.16.87-1.24.87s-1.27,0-1.27-.73c0-1.22.07-2.42.07-3.61v-9.53c0-.46-.21-.64-.64-.64h-.9c-.8,0-1.68.05-2.44.05-.48,0-.48-.33-.48-1.13s0-1.13.48-1.13c.69,0,1.64,0,2.44,0h.9c.43,0,.64-.18.64-.64v-1.06a14.55,14.55,0,0,0-.09-1.75.9.9,0,0,1,0-.23c0-.28.2-.3.41-.3.48,0,1.56.09,2.07.12.23,0,.6,0,.6.3s-.12.2-.3.34-.3.62-.3,1.38v1.22c.05.44.21.62.64.62Zm-5.82,5.7a.67.67,0,0,0,.64.65h5.18a.66.66,0,0,0,.64-.65v-2.9a.64.64,0,0,0-.64-.64h-5.18a.64.64,0,0,0-.64.64Zm0,6.69c0,.44.21.6.64.65h5.18c.46,0,.64-.21.64-.65v-3.24c0-.46-.18-.64-.64-.64h-5.18c-.43,0-.64.18-.64.64Z"/><path class="cls-2" d="M229.94,166.82c.19.05.51.09.51.32s-.09.19-.23.3a1.68,1.68,0,0,0-.42,1.1,18,18,0,0,0-.18,2.44,13.13,13.13,0,0,0,.74,4.81c.27.64,1,2,1.84,2,.64,0,1.31-1,1.58-1.52.14-.23.32-.57.62-.57.49,0,1.66.94,1.66,1.35s-1,1.63-1.36,2a3.29,3.29,0,0,1-2.46,1.45c-1.7,0-3-1.54-3.79-2.94-1.15-2.16-1.34-5.06-1.34-7.5,0-.37.07-3.29.12-3.49a.28.28,0,0,1,.32-.26C227.85,166.31,229.55,166.75,229.94,166.82Zm9.36-.46c.51,0,2.44,1.45,3.54,3.56a12.48,12.48,0,0,1,1.36,4.79c0,.43-.23.55-.62.66a4.7,4.7,0,0,1-1.29.21c-.73,0-.71-.32-.76-.87a8.83,8.83,0,0,0-3.4-6.56.37.37,0,0,1-.21-.34C237.92,167.37,238.84,166.36,239.3,166.36Z"/><path class="cls-2" d="M261.64,163.65c0,.11-.09.18-.2.25-.33.16-.49.18-.81,1-.2.55-.39,1.13-.57,1.68a.74.74,0,0,0-.07.32c0,.39.3.48.62.53.78.09,1.56.16,2.34.18.44,0,.79,0,.79.44a6.56,6.56,0,0,1-.26,1.5c-.09.32-.18.5-.5.5a30.23,30.23,0,0,1-3.13-.34.54.54,0,0,0-.21-.05c-.37,0-.53.25-.62.55s-.39,1.73-.39,1.91c0,.48.48.51.81.53a20.48,20.48,0,0,0,2.07.09c.62,0,.69.16.69.39a5.07,5.07,0,0,1-.3,1.54c-.12.35-.26.53-.65.53s-1.61-.16-2.16-.23a2.6,2.6,0,0,0-.37,0c-.62,0-.62.57-.62,1.56a2.74,2.74,0,0,0,3.06,3.06,4.94,4.94,0,0,0,3.34-1.08,2.34,2.34,0,0,0,.5-1.64,10,10,0,0,0-.78-3.33,1.07,1.07,0,0,1-.09-.41c0-.56,1.7-.85,1.95-.85s.44.36.62.87a12.51,12.51,0,0,1,.76,4c0,3.57-3.29,4.81-6.35,4.81-3.47,0-5.51-2-5.51-5.5,0-.57.09-1.44.09-1.67,0-.51-.39-.65-.92-.81a7.91,7.91,0,0,1-1.36-.55c-.25-.14-.43-.25-.43-.55,0-.14.22-2,.8-2a1.25,1.25,0,0,1,.57.23,4.14,4.14,0,0,0,1.48.65c.39,0,.46-.33.59-1,.05-.26.14-.55.21-.9,0-.16.09-.37.09-.51,0-.5-.41-.64-.73-.75-1.61-.63-2.07-.83-2.07-1.25s.37-2,.85-2a1.29,1.29,0,0,1,.53.25,13.5,13.5,0,0,0,1.56.8.66.66,0,0,0,.3.07c.37,0,.46-.3.53-.55.21-.78.71-2.41.9-3.08.06-.25.11-.46.34-.46a8.33,8.33,0,0,1,1.15.37C260.47,163,261.64,163.28,261.64,163.65Z"/><path class="cls-2" d="M291.88,167a7.78,7.78,0,0,1,2.33,5.65,8.25,8.25,0,0,1-4.49,7.43,8.82,8.82,0,0,1-2.5.92c-.6,0-1.55-1.43-1.55-1.93,0-.23.35-.28.58-.32,3-.72,5.38-2.69,5.38-6a5.59,5.59,0,0,0-3.68-5.5,4,4,0,0,0-.87-.2c-.53,0-.53.5-.55.89-.26,3.36-1.06,7.45-3.27,10.1a4.12,4.12,0,0,1-3,1.77,3.69,3.69,0,0,1-3.13-2.19,7.13,7.13,0,0,1-.72-3.26,9.48,9.48,0,0,1,9.55-9.66A8.17,8.17,0,0,1,291.88,167Zm-8.94.66a7.13,7.13,0,0,0-4.14,6.63c0,.85.3,3,1.47,3s2.44-2.62,3.08-5a23.37,23.37,0,0,0,.74-4.49.36.36,0,0,0-.37-.41A2.62,2.62,0,0,0,282.94,167.69Z"/><path class="cls-2" d="M306.84,164.82c.19.07.6.23.6.46s-.09.18-.21.23c-.53.25-.66.46-.94,1.17a21.27,21.27,0,0,0-1.26,7c0,.37.07,2.55.5,2.55.16,0,.28-.29.51-.82.11-.26.34-1,.62-1s1,.46,1,.74-1.13,2.85-1.13,4.19c0,.36.05.73.05,1.1,0,.9-1.64,1.17-1.75,1.17-.39,0-.58-.43-.74-.76a16.58,16.58,0,0,1-1.35-7.08,26.36,26.36,0,0,1,.8-6.44c.25-1,.58-2,.83-3,0-.16.09-.39.3-.39a8.53,8.53,0,0,1,1.47.6C306.43,164.63,306.7,164.77,306.84,164.82Zm9.15-.67c.12,0,.24.07.24.21s-.14.25-.26.46a3.18,3.18,0,0,0-.25,1.63v.65c0,.32.14.59.48.59a14.3,14.3,0,0,0,2.3-.57,2,2,0,0,1,.35-.07c.46,0,.62,1.59.62,1.93s-.16.6-2.88,1c-.5.07-.78.16-.78.73s.16,4,.18,4.58.28.64.79.9a12.82,12.82,0,0,1,2.48,1.6c.28.24.6.49.6.88s-.81,1.59-1.34,1.59a1.05,1.05,0,0,1-.64-.35,6.51,6.51,0,0,0-1.7-1.26c-.23,0-.3.18-.35.36-.41,1.48-1.95,1.94-3.33,1.94-1.84,0-3.84-.88-3.84-3s1.82-2.9,3.61-2.9a5.46,5.46,0,0,1,.9.07h.16c.32,0,.46-.19.46-.49,0-.57-.12-2.75-.14-3.42,0-.23,0-.88-.55-.88-.19,0-1.82.1-2.74.1h-.3a5.15,5.15,0,0,1-1.75-.19c-.2-.14-.23-1.45-.23-1.75s0-.57.37-.57,2.32.23,3.52.23h.37c.55,0,1.08,0,1.08-.55s-.18-2.71-.28-3.29c0-.07,0-.16,0-.23s.09-.32.32-.32A22.81,22.81,0,0,1,316,164.15Zm-3.56,12.9c-.53,0-1.66.19-1.66.9s1.11,1,1.68,1c.88,0,1.45-.32,1.45-1.27C313.9,177.08,312.87,177.05,312.43,177.05Z"/><path class="cls-2" d="M331.08,166.82c.18.05.5.09.5.32s-.09.19-.23.3c-.32.25-.34.71-.41,1.1a16.5,16.5,0,0,0-.19,2.44,13.13,13.13,0,0,0,.74,4.81c.28.64,1,2,1.84,2,.64,0,1.31-1,1.59-1.52.13-.23.32-.57.62-.57.48,0,1.65.94,1.65,1.35s-1,1.63-1.35,2a3.31,3.31,0,0,1-2.46,1.45c-1.71,0-3-1.54-3.8-2.94-1.15-2.16-1.33-5.06-1.33-7.5,0-.37.07-3.29.11-3.49a.29.29,0,0,1,.33-.26C329,166.31,330.69,166.75,331.08,166.82Zm9.36-.46c.5,0,2.43,1.45,3.54,3.56a12.64,12.64,0,0,1,1.35,4.79c0,.43-.23.55-.62.66a4.7,4.7,0,0,1-1.29.21c-.73,0-.71-.32-.75-.87a8.84,8.84,0,0,0-3.41-6.56.36.36,0,0,1-.2-.34C339.06,167.37,340,166.36,340.44,166.36Z"/><path class="cls-2" d="M361.18,163.9c.18,0,.58.11.58.37s-.1.2-.19.27c-.43.33-.48.69-.62,1.5,0,.27-.09.6-.16,1a1.09,1.09,0,0,0,0,.25.46.46,0,0,0,.5.48l.28,0a4.5,4.5,0,0,1,2.62.53,3.67,3.67,0,0,1,1.4,3.33,16.7,16.7,0,0,1-1.38,7.06,4.7,4.7,0,0,1-4.34,2.49,1,1,0,0,1-1.06-.56,4.8,4.8,0,0,1-.39-1.63c0-.23.06-.39.29-.39s.63.07,1.08.07a2.22,2.22,0,0,0,2.4-1.4,14,14,0,0,0,1-5.2c0-1.15-.07-2.09-1.45-2.09s-1.54.18-1.7.82a27,27,0,0,1-2.92,6.83,26.41,26.41,0,0,1-2.3,3.32.66.66,0,0,1-.42.23c-.39,0-1.86-.88-1.86-1.41,0-.2.19-.39.32-.53a18.94,18.94,0,0,0,4.1-6.41,13.39,13.39,0,0,0,.57-1.73.28.28,0,0,0-.3-.3,19,19,0,0,0-2.62.81,2.18,2.18,0,0,1-.48.14c-.58,0-1-2.26-1-2.37,0-.35.39-.35.69-.37a35.19,35.19,0,0,0,3.82-.71c.46-.09.69-.21.76-.69a21,21,0,0,0,.23-3c0-.25,0-.5,0-.78s0-.46.25-.46S360.84,163.81,361.18,163.9Zm10,7.45c0,.51-1.44,1.36-1.91,1.36-.29,0-.41-.3-.52-.53a15.92,15.92,0,0,0-3.08-4.92.58.58,0,0,1-.21-.39c0-.42,1.33-1.22,1.75-1.22C368.06,165.65,371.18,170.77,371.18,171.35Z"/><path class="cls-2" d="M387,164.08c.19,0,.6.12.6.37s-.09.21-.2.3c-.44.32-.49.69-.6,1.52-.05.25-.09.57-.16.94a.87.87,0,0,0-.05.28.45.45,0,0,0,.51.46h.27a4.66,4.66,0,0,1,2.6.5,3.75,3.75,0,0,1,1.43,3.36,16.7,16.7,0,0,1-1.38,7,4.72,4.72,0,0,1-4.35,2.48c-.51,0-.83-.05-1.06-.53a4.56,4.56,0,0,1-.41-1.66c0-.2.07-.39.32-.39s.58.1,1,.1a2.2,2.2,0,0,0,2.41-1.43,13.62,13.62,0,0,0,1-5.2c0-1.12-.06-2.09-1.47-2.09s-1.54.18-1.7.83a25.91,25.91,0,0,1-2.94,6.87,20.71,20.71,0,0,1-2.28,3.27.55.55,0,0,1-.39.23c-.41,0-1.89-.87-1.89-1.4,0-.21.19-.39.33-.53a18.35,18.35,0,0,0,4.11-6.4,8.65,8.65,0,0,0,.58-1.74.29.29,0,0,0-.3-.3,19.22,19.22,0,0,0-2.65.8,1.51,1.51,0,0,1-.48.16c-.55,0-.94-2.25-.94-2.39,0-.34.39-.34.67-.36,1.28-.14,2.57-.46,3.83-.7.47-.09.67-.22.74-.71a20.87,20.87,0,0,0,.26-3c0-.37-.05-.85-.05-.9s.07-.35.27-.35S386.68,164,387,164.08Zm9.57,7.61c0,.53-1.45,1.38-1.91,1.38-.3,0-.43-.29-.53-.53a17,17,0,0,0-3.08-4.92.72.72,0,0,1-.21-.39c0-.41,1.27-1.17,1.64-1.17C393.37,166.06,396.59,171.12,396.59,171.69Zm-.34-5.88c0,.37-.81,1.06-1.11,1.06-.11,0-.23-.17-.32-.26a21.1,21.1,0,0,0-1.63-1.77c-.1-.09-.21-.21-.21-.32,0-.28.83-1,1.1-1A9.16,9.16,0,0,1,396.25,165.81Zm2.18-1.64c0,.37-.83,1.06-1.1,1.06s-.21-.11-.33-.25c-.52-.62-1.05-1.2-1.63-1.77-.09-.07-.23-.21-.23-.32,0-.28.87-1,1.11-1A9.32,9.32,0,0,1,398.43,164.17Z"/><path class="cls-2" d="M406,166.29c3.35-.21,6.71-.55,10.05-.94,1.74-.21,3.49-.44,5.21-.72a1.56,1.56,0,0,1,.3,0c.35,0,.4.3.44.58a10.57,10.57,0,0,1,.21,1.68c0,.5-.48.46-1,.48a11.28,11.28,0,0,0-3.81.48,6.92,6.92,0,0,0-3.91,3.43,8.56,8.56,0,0,0-1.11,4c0,2.67,1.71,3.32,4.05,3.32.39,0,.9,0,1.15,0s.53,0,.53.39a6.32,6.32,0,0,1-.35,1.89c-.16.34-.34.39-.73.39-3.91,0-7.27-1.24-7.27-5.73a10.26,10.26,0,0,1,2.53-6.6c.25-.27.39-.43.39-.55s-.18-.27-.34-.27-1.22.18-1.45.2c-1.54.23-3.61.56-5.08.95a2.09,2.09,0,0,1-.35,0c-.32,0-.43-.5-.5-.76a9.43,9.43,0,0,1-.26-1.65C404.66,166.29,405,166.36,406,166.29Zm15.26,5.61c0,.35-.92,1-1.17,1s-.23-.16-.32-.28c-.46-.67-1-1.31-1.47-1.93-.07-.07-.21-.21-.21-.32,0-.28.92-.85,1.17-.85A8.7,8.7,0,0,1,421.26,171.9Zm2.79-1.26c0,.32-.9,1-1.17,1s-.26-.18-.35-.3a20.49,20.49,0,0,0-1.49-1.91.51.51,0,0,1-.17-.29c0-.28.9-.88,1.18-.88A9.3,9.3,0,0,1,424.05,170.64Z"/><path class="cls-2" d="M441,162.79c.55.05,1.24.12,1.24.33a.35.35,0,0,1-.14.25c-.16.12-.34.3-.37,1,0,.48,0,1,0,1.47a.6.6,0,0,0,.67.66c.18,0,1.08-.06,1.33-.06,1.13,0,3.59-.19,4.58-.19.37,0,.53.14.53,1.17,0,1.41-.28,1.38-.51,1.38s-2.05-.11-3.33-.11c-.42,0-2.56,0-2.81.09a.75.75,0,0,0-.44.76v.8a2,2,0,0,0,.23,1.2,7,7,0,0,1,.72,3.22c0,3.7-2.46,7.82-3.48,7.82-.27,0-2.13-.58-2.13-1,0-.18.39-.51.53-.64a7.35,7.35,0,0,0,1.65-2.24.76.76,0,0,0,.11-.34.16.16,0,0,0-.16-.16.55.55,0,0,0-.18,0,2,2,0,0,1-.53.12c-2,0-2.73-2.16-2.73-3.84,0-2.12.92-4.14,3.24-4.35a.29.29,0,0,0,.27-.28c0-.85-.16-1-.41-1s-1.24.11-1.52.14c-1.19.11-4.16.43-5.26.66a1.41,1.41,0,0,1-.35.05c-.37,0-.39-.32-.46-.62a13.37,13.37,0,0,1-.18-1.66c0-.46.2-.41,1.33-.46.62,0,6-.32,6.23-.36a.68.68,0,0,0,.51-.72,19.33,19.33,0,0,0-.23-2.85.55.55,0,0,1,0-.18.26.26,0,0,1,.29-.28C439.71,162.61,440.42,162.75,441,162.79Zm-3,11.53c0,.69.16,2,1.08,2s1.2-1.17,1.2-1.89-.21-2-1.15-2S437.94,173.63,437.94,174.32Z"/><path class="cls-2" d="M465.33,163.9c.18,0,.57.11.57.37s-.09.2-.18.27c-.44.33-.49.69-.63,1.5,0,.27-.09.6-.16,1a1.09,1.09,0,0,0,0,.25.46.46,0,0,0,.51.48l.27,0a4.5,4.5,0,0,1,2.62.53,3.67,3.67,0,0,1,1.4,3.33,16.69,16.69,0,0,1-1.37,7.06,4.71,4.71,0,0,1-4.35,2.49,1,1,0,0,1-1.06-.56,5.05,5.05,0,0,1-.39-1.63c0-.23.07-.39.3-.39s.62.07,1.08.07a2.2,2.2,0,0,0,2.39-1.4,13.83,13.83,0,0,0,1-5.2c0-1.15-.07-2.09-1.45-2.09s-1.54.18-1.7.82a28.47,28.47,0,0,1-5.22,10.15.63.63,0,0,1-.41.23c-.39,0-1.86-.88-1.86-1.41a.87.87,0,0,1,.32-.53,18.77,18.77,0,0,0,4.09-6.41,12.12,12.12,0,0,0,.58-1.73.28.28,0,0,0-.3-.3,19,19,0,0,0-2.62.81,2.26,2.26,0,0,1-.49.14c-.57,0-1-2.26-1-2.37,0-.35.39-.35.69-.37a35.46,35.46,0,0,0,3.81-.71c.47-.09.69-.21.76-.69a21,21,0,0,0,.23-3c0-.25,0-.5,0-.78s0-.46.25-.46S465,163.81,465.33,163.9Zm10,7.45c0,.51-1.45,1.36-1.91,1.36-.3,0-.41-.3-.53-.53a15.92,15.92,0,0,0-3.08-4.92.63.63,0,0,1-.21-.39c0-.42,1.34-1.22,1.75-1.22C472.2,165.65,475.33,170.77,475.33,171.35Z"/><path class="cls-2" d="M488.21,176.43c-.46,0-.53-.14-.53-.78,0-2.35,1.4-3.68,2.92-4.94a3,3,0,0,0,1.36-2.12c0-1.13-.95-1.89-2.69-1.89a4.63,4.63,0,0,0-3.54,1.75c-.19.23-.33.37-.47.37s-.27-.11-.48-.32l-.92-.92c-.2-.21-.3-.35-.3-.51s.1-.27.28-.48a7.39,7.39,0,0,1,5.61-2.37c3.29,0,5.24,1.82,5.24,4,0,2-1.1,3-2.66,4.28a4.14,4.14,0,0,0-1.87,3.26c0,.56-.07.67-.5.67Zm2.51,3.22a1.68,1.68,0,0,1-1.78,1.77,1.5,1.5,0,0,1-1.58-1.52,1.72,1.72,0,0,1,1.77-1.84A1.54,1.54,0,0,1,490.72,179.65Z"/><path class="cls-2" d="M154.91,228.28a7.33,7.33,0,0,1-4.44,4.83,12,12,0,0,1-3.24.89c-.76,0-1.08-1.49-1.08-1.81s.3-.42.94-.51c2.69-.39,5.22-1.66,5.75-4.55,0-.33.07-.56.32-.56a5,5,0,0,1,1.2.37c.3.12,1.26.39,1.26.72s-.3.27-.46.32A.38.38,0,0,0,154.91,228.28Zm5.73-1.89h-.76c-.44,0-.62.18-.62.64v3.41c0,1,.2,1.1,1.15,1.1h1.67c1.55,0,1.77-.23,2.07-2.71a.45.45,0,0,1,.51-.42c.34,0,1.63.21,1.63,1a7.85,7.85,0,0,1-1.19,3.68c-.6.71-1.73.69-2.6.69H159c-1.29,0-2.14-.37-2.14-1.79,0-.44,0-.88,0-1.29V227c0-.46-.18-.64-.64-.64h-4.51c-.25,0-.3.14-.37.37s-.3.32-1.19.32-1.2,0-1.2-.53.05-1.31.05-2v-7.52c0-.6-.05-1.2-.05-1.82,0-.78.35-1,1.1-1s1.31,0,2,0h8.28c.66,0,1.31,0,1.95,0,1,0,1.13.34,1.13,1.22,0,.41,0,.94,0,1.61v7.49c0,.67,0,1.31,0,2s-.28.55-1.2.55-1.12,0-1.19-.34S160.89,226.41,160.64,226.39Zm-.14-8.58a.53.53,0,0,0,.55-.55v-.32a.53.53,0,0,0-.55-.55h-8.6a.53.53,0,0,0-.55.55v.32a.53.53,0,0,0,.55.55Zm-9.15,2.67a.53.53,0,0,0,.55.55h8.6a.53.53,0,0,0,.55-.55v-.34a.53.53,0,0,0-.55-.56h-8.6a.53.53,0,0,0-.55.56Zm0,3.29a.6.6,0,0,0,.64.62h8.42c.39,0,.59-.23.64-.62v-.28a.66.66,0,0,0-.64-.64H152a.65.65,0,0,0-.64.64Z"/><path class="cls-2" d="M182.62,214.36c.21.07.85.23.85.49s-.14.18-.21.23c-.34.2-.36.3-.52.8-.07.25-.56,1.93-.56,2.05a.33.33,0,0,0,.35.34,15.8,15.8,0,0,0,2.67-.85,1.2,1.2,0,0,1,.48-.11c.46,0,.46,1.4.46,1.75s0,.71-.44.82a34.45,34.45,0,0,1-3.77.9c-.67.14-.74.25-.94.9a72.49,72.49,0,0,1-4.28,10.14c-.3.55-.48.87-.83.87s-1.95-.73-1.95-1.24a1.73,1.73,0,0,1,.39-.76,45.35,45.35,0,0,0,4.07-8.51,3.11,3.11,0,0,0,.18-.6c0-.23-.18-.34-.41-.34s-1.33.11-2,.11c-.46,0-.83,0-1-.41a10,10,0,0,1-.19-1.68c0-.25.07-.41.35-.41s1.17.09,2.16.09c1.47,0,1.82,0,2-.37a20.63,20.63,0,0,0,.85-4.18c0-.35,0-.58.26-.58S182.32,214.27,182.62,214.36Zm-.32,14.84c1,1.12,2.76,1.33,4.16,1.33a10.27,10.27,0,0,0,3.27-.46.86.86,0,0,1,.23,0c.39,0,.39.53.39,1.45,0,.46,0,1-.26,1.15a21.24,21.24,0,0,1-3.58.3,9.72,9.72,0,0,1-4.92-1c-.37-.26-1.13-.83-1.13-1.31s1.06-1.71,1.42-1.71C182.05,228.87,182.21,229.08,182.3,229.2Zm2.8-7.43a16.8,16.8,0,0,1,4.63.64.44.44,0,0,1,.32.46,5.75,5.75,0,0,1-.44,1.61c-.09.21-.18.3-.41.3a1.28,1.28,0,0,1-.49-.11,10.23,10.23,0,0,0-3.65-.58l-.88,0c-.46,0-.57-.11-.57-.5C183.61,221.63,184,221.77,185.1,221.77Z"/><path class="cls-2" d="M210.38,215.42c.16.07.39.16.39.39a.79.79,0,0,1-.16.39,3.13,3.13,0,0,0-.39,1.5s0,.16,0,.21c0,.46.44.5.76.59,3.15.81,5.29,3.06,5.29,6.4,0,3.88-2.64,6.25-5.93,7.81a3.43,3.43,0,0,1-1.15.4c-.53,0-1.45-1.41-1.45-1.87,0-.27.35-.34.71-.46,2.67-.87,5.41-2.83,5.41-5.93a4.35,4.35,0,0,0-3.66-4.21c-.32,0-.46.3-.5.55a17.17,17.17,0,0,1-2.95,7c-1.17,1.57-3,3.15-5.08,3.15s-2.85-2.23-2.85-4a8.32,8.32,0,0,1,2.14-5.68.69.69,0,0,0,.25-.53,1.65,1.65,0,0,0-.14-.55c-.32-1-.57-1.95-.89-2.94a1.21,1.21,0,0,1-.07-.35.4.4,0,0,1,.36-.36,11.29,11.29,0,0,1,1.82-.46c.37,0,.39.36.44.66.09.56.27,1.43.41,2,.07.21.16.37.42.37a.78.78,0,0,0,.39-.12,9.42,9.42,0,0,1,3.06-1c.78-.12.82-.25.82-2,0-.35,0-.69,0-1s.05-.42.32-.42A14.11,14.11,0,0,1,210.38,215.42Zm-6.56,11.87c-.46-.95-.89-1.87-1.31-2.83,0-.12-.16-.32-.32-.32-.37,0-1.08,1.7-1.08,3.17,0,.6.09,1.68.87,1.68s1.94-.83,1.94-1.36A.75.75,0,0,0,203.82,227.29Zm.26-5.18a19.11,19.11,0,0,0,.94,2.51c.21.46.3.74.53.74.6,0,1.77-3.8,1.77-4.44a.29.29,0,0,0-.32-.32C206.45,220.6,204.08,221.35,204.08,222.11Z"/><path class="cls-2" d="M224.88,217.79c3.36-.21,6.71-.55,10.05-.94,1.75-.21,3.49-.44,5.22-.72a1.46,1.46,0,0,1,.3,0c.34,0,.39.3.43.58a9.53,9.53,0,0,1,.21,1.68c0,.5-.48.46-1,.48a11.3,11.3,0,0,0-3.82.48,7,7,0,0,0-3.91,3.43,8.55,8.55,0,0,0-1.1,4c0,2.67,1.7,3.32,4,3.32.39,0,.9,0,1.15,0s.53,0,.53.39a6.64,6.64,0,0,1-.34,1.89c-.16.34-.35.39-.74.39-3.91,0-7.27-1.24-7.27-5.73a10.26,10.26,0,0,1,2.53-6.6c.26-.27.39-.43.39-.55s-.18-.27-.34-.27-1.22.18-1.45.2c-1.54.23-3.61.56-5.08.95a2.09,2.09,0,0,1-.35,0c-.32,0-.43-.5-.5-.76a10.45,10.45,0,0,1-.25-1.65C223.55,217.79,223.87,217.86,224.88,217.79Zm15.27,5.61c0,.35-.92,1-1.17,1s-.23-.16-.33-.28c-.46-.67-1-1.31-1.47-1.93-.07-.07-.2-.21-.2-.32,0-.28.92-.85,1.17-.85A8.88,8.88,0,0,1,240.15,223.4Zm2.78-1.26c0,.32-.9,1-1.17,1s-.25-.18-.35-.3a18.93,18.93,0,0,0-1.49-1.91.5.5,0,0,1-.16-.29c0-.28.89-.88,1.17-.88A9.3,9.3,0,0,1,242.93,222.14Z"/><path class="cls-2" d="M258.65,217.19c0,.26-.48.62-.67.78a16.55,16.55,0,0,0-3,3.75,10.78,10.78,0,0,0-1.68,5.48c0,2,.94,3.54,3.13,3.54a4.86,4.86,0,0,0,3.88-2c1.27-1.7,1.5-4.44,1.5-6.51a14.71,14.71,0,0,0-1-5.81.75.75,0,0,1-.07-.33c0-.5,1.68-.8,2.11-.8s.58.34.65.78a15.62,15.62,0,0,0,3.35,6.69c.16.19.42.46.42.72,0,.5-1.57,1.24-1.86,1.24s-.81-.92-1-1.24-.39-.92-.58-.92-.16.18-.16.3c0,.36,0,.71,0,1a12.79,12.79,0,0,1-1.08,5.34,6.84,6.84,0,0,1-6.16,3.77A5.28,5.28,0,0,1,251,227.4a12.63,12.63,0,0,1,2.07-6.55s.09-.14.09-.21a.16.16,0,0,0-.16-.14,4.21,4.21,0,0,0-.76.28,5.37,5.37,0,0,1-1.06.37c-.25,0-.39-.3-.48-.48a6.19,6.19,0,0,1-.6-1.87c0-.3.21-.32.69-.37a12.44,12.44,0,0,0,3.59-.71,3.26,3.26,0,0,0,1.72-1.61c.14-.23.28-.55.58-.55C257.29,215.56,258.65,216.69,258.65,217.19Z"/><path class="cls-2" d="M276.71,224.53a71,71,0,0,1,4.8-8.12c.35-.55.64-1,.94-1.59.07-.11.19-.34.35-.34a5.85,5.85,0,0,1,1.29.87c.23.16,1.05.74,1.05,1s-.2.35-.41.37a1,1,0,0,0-.6.3,21.87,21.87,0,0,0-1.45,1.88,30.49,30.49,0,0,0-2.32,3.68.25.25,0,0,0,.23.23.94.94,0,0,0,.42-.16,5.16,5.16,0,0,1,2.43-.78,2.73,2.73,0,0,1,2.44,1.36,3.88,3.88,0,0,1,.25,1.45,12.07,12.07,0,0,1-.3,2.23,13.84,13.84,0,0,0-.36,2.25c0,.39.13.87.59.87,1.29,0,3.48-2.78,4.19-3.79.11-.14.27-.32.46-.32.41,0,1.19,1.81,1.19,2.14a.85.85,0,0,1-.25.5c-.53.53-1.06,1.06-1.61,1.57-1.26,1.15-2.83,2.41-4.62,2.41-1.63,0-2.3-1.4-2.3-2.85a15,15,0,0,1,.3-2.67,10.79,10.79,0,0,0,.25-1.86c0-.6-.2-1.06-.87-1.06a4.19,4.19,0,0,0-2,.65,6.7,6.7,0,0,0-2.34,2.09,15.83,15.83,0,0,0-2.12,4.83c-.07.3-.11.71-.51.71s-2.2-.67-2.2-1.06c0,0,.39-1,.41-1C274.91,228.37,275.76,226.44,276.71,224.53Z"/><path class="cls-2" d="M299.38,225c0-.25.23-.35.48-.49.51-.25,1.61-1,2.16-1.4.26-.16.58-.37.58-.71a12.49,12.49,0,0,0-1.73-3.1.73.73,0,0,1-.23-.44c0-.21.42-.35,1.11-.6l.87-.32a3.61,3.61,0,0,1,.76-.23c.16,0,.28.07.28.23a1.11,1.11,0,0,1-.05.25.53.53,0,0,0-.05.19,14.62,14.62,0,0,0,.92,2.27c.14.25.26.44.56.44a1.19,1.19,0,0,0,.55-.21c2.16-1.29,4.51-2.53,7.08-2.53s4.42,1.38,4.42,4c0,3.1-2.79,4.57-5.43,5.24a5.67,5.67,0,0,1-.9.16c-.6,0-1.22-1.56-1.22-1.89s.44-.41.74-.46c1.59-.27,4.35-1,4.35-3,0-1.24-.95-1.84-2.12-1.84-1.86,0-4.41,1.45-6,2.42-.22.13-.46.3-.46.57,0,.62,3.48,6.28,4.05,7.18a3,3,0,0,1,.51,1c0,.43-1.59,1.24-2,1.24s-.48-.39-.71-.85c-1.17-2.26-2.41-4.44-3.56-6.72-.12-.2-.28-.44-.55-.44a11.75,11.75,0,0,0-2.46,1.8c-.12.07-.33.25-.44.25C300.39,227,299.38,225.45,299.38,225Zm9.54-8.67c.46.18,1.36.5,1.36.87s-.46,1.7-1.06,1.7a3,3,0,0,1-1-.32,18.37,18.37,0,0,0-2.44-.83c-.26-.06-.55-.11-.55-.43s.53-1.86,1-1.86A19.12,19.12,0,0,1,308.92,216.32Z"/><path class="cls-2" d="M330.61,216.8c0,.14-.16.25-.27.3a1.09,1.09,0,0,0-.44.46,9.19,9.19,0,0,0-.67,1.93,12.45,12.45,0,0,0-.3,2.58c0,.18,0,1.17.23,1.17s.33-.37.42-.6.53-1.24.8-1.24.9.41.9.71c0,.07-.35.88-.55,1.43l-.21.55a9.06,9.06,0,0,0-.76,2.85c0,.32.05.58.05.74,0,.64-1.22.92-1.66.92s-.67-.42-.8-.85a19,19,0,0,1-.76-5.36,21.26,21.26,0,0,1,.53-4.71c.13-.58.3-1.13.39-1.71,0-.16.09-.57.3-.57s1.08.41,1.24.48C329.55,216.11,330.61,216.55,330.61,216.8Zm7.27-2c.44,0,.48.28.57.62a30,30,0,0,1,.72,6.62c0,4-.67,7.36-3.57,10.31-.37.36-1.31,1.28-1.84,1.28-.37,0-1.7-1.12-1.7-1.61,0-.18.21-.32.35-.39a8.65,8.65,0,0,0,3.12-3.58,13.62,13.62,0,0,0,1.06-5.8,22.32,22.32,0,0,0-.8-6.41,1.11,1.11,0,0,1-.05-.3C335.74,215,337.63,214.8,337.88,214.8Z"/><path class="cls-2" d="M352.51,227.82c.53,0,4.48,3.17,4.48,3.74s-1.15,1.77-1.68,1.77c-.18,0-.34-.2-.46-.34a14.08,14.08,0,0,0-3.49-3.13c-.16-.09-.42-.23-.42-.43A3.16,3.16,0,0,1,352.51,227.82Z"/><path class="cls-2" d="M378.41,227.49c-.16,0-.33.07-.33.28a.33.33,0,0,0,.07.21,8.32,8.32,0,0,0,1.34,1.24.83.83,0,0,0,.48.21,1.1,1.1,0,0,0,.51-.19,28.78,28.78,0,0,0,2.34-2c.09-.09.28-.28.39-.28a5.18,5.18,0,0,1,2,1.7.24.24,0,0,1-.21.26,3.12,3.12,0,0,1-.43-.1c-.12,0-.16.07-.25.12-.69.44-1.32.87-2,1.31a.33.33,0,0,0-.19.3.33.33,0,0,0,.23.28,15.86,15.86,0,0,0,3.52,1.05c.39.07.73.07.73.53s-.43,1.73-1.1,1.73a14.84,14.84,0,0,1-3.84-1.2,13.1,13.1,0,0,1-5.84-5,.85.85,0,0,0-.9-.53h-1.31c-.46,0-.64.19-.64.65v2.32c0,.28.11.53.46.53h.14c.5-.11,3.28-.74,3.42-.74s.42.19.42.9v.3c0,.74-.17.8-.72.94-2.3.6-4.6,1-6.92,1.38-.57.09-.64.14-.76.39s-.13.23-.32.23-.3-.16-.5-.78a11.11,11.11,0,0,1-.44-1.54c0-.3.18-.3,1.19-.41.3,0,.72,0,1.22-.14a.61.61,0,0,0,.6-.71v-8c0-.41,0-.83,0-1.24,0-.19-.09-.35-.32-.35a.44.44,0,0,0-.21.07,10.59,10.59,0,0,1-2.51,1.27c-.64,0-1.38-1.22-1.38-1.64,0-.25.26-.39.46-.48,3.18-1.47,6.7-3.68,8.65-6.62.23-.32.3-.48.55-.48s1.82.41,2.18.5c.19.05.44.16.44.39a.33.33,0,0,1-.23.3s-.11.07-.11.14a.33.33,0,0,0,.07.18,23.83,23.83,0,0,0,8.09,5.45c.35.14.53.21.53.49,0,.48-.6,1.79-1.15,1.79a17.86,17.86,0,0,1-3.08-1.56.35.35,0,0,0-.21-.07c-.23,0-.3.16-.32.34,0,.51,0,1,0,1.52v1.86c0,.6,0,1.2,0,1.82,0,.83-.39,1-1.15,1s-1.36,0-2,0Zm-1.8-11.17a.57.57,0,0,0-.41.21,34.57,34.57,0,0,1-3.47,3.05c-.07.07-.12.12-.12.21s.07.16.23.18c.37,0,.71,0,1.08,0h.92c.44,0,.62-.16.65-.6,0-.14-.05-.51-.07-.78a1.13,1.13,0,0,1,0-.3c0-.25.14-.32.37-.32s1.47.11,1.82.16.57,0,.57.32-.11.21-.27.35a.71.71,0,0,0-.26.57c0,.44.21.6.63.6H379c.48,0,.94,0,1.4,0,.11,0,.23-.06.23-.18a.2.2,0,0,0-.12-.18,28.29,28.29,0,0,1-3.51-3.06A.58.58,0,0,0,376.61,216.32Zm2.74,6.62a.53.53,0,0,0,.55-.55v-.18a.53.53,0,0,0-.55-.56h-5.82a.53.53,0,0,0-.55.56v.18a.53.53,0,0,0,.55.55Zm-5.82,1.54a.51.51,0,0,0-.55.53v.25a.53.53,0,0,0,.55.56h5.82a.53.53,0,0,0,.55-.56V225a.51.51,0,0,0-.55-.53Z"/><path class="cls-2" d="M404.19,221.47a24.06,24.06,0,0,0,7.29,6.14c.2.09.46.21.46.46,0,.44-1.08,2.16-1.7,2.16a6.82,6.82,0,0,1-1.82-1,35.23,35.23,0,0,1-5.89-5.75c-.73-.85-1.24-1.45-1.72-1.45s-1.68,1.1-2.19,1.56c-.92.81-2.11,1.84-2.92,2.72-.13.13-.34.39-.55.39-.44,0-1.91-1.91-1.91-2.3,0-.23.53-.46.72-.55a23.88,23.88,0,0,0,3.7-2.76c.87-.76,1.93-1.87,3.17-1.87C402.33,219.19,403.31,220.46,404.19,221.47Zm5-1.13c0,.33-.81,1.06-1.11,1.06-.09,0-.34-.28-.73-.69s-.81-.85-1.32-1.33a.38.38,0,0,1-.18-.28c0-.27.87-1,1.08-1A8.56,8.56,0,0,1,409.16,220.34Zm2.55-1.58c0,.32-.79,1.08-1.08,1.08-.12,0-.23-.14-.3-.23-.49-.55-1.2-1.29-1.75-1.8-.09-.07-.21-.16-.21-.27s.85-1,1.11-1A8.83,8.83,0,0,1,411.71,218.76Z"/><path class="cls-2" d="M421,217.79c3.36-.21,6.72-.55,10.07-.94,1.73-.21,3.5-.44,5.23-.72a1.23,1.23,0,0,1,.27,0c.35,0,.39.3.46.58a13.49,13.49,0,0,1,.19,1.68c0,.5-.49.46-1,.48a11.21,11.21,0,0,0-3.82.48,7,7,0,0,0-3.93,3.43,8.67,8.67,0,0,0-1.1,4c0,2.67,1.72,3.32,4.05,3.32.41,0,.92,0,1.15,0s.52,0,.52.39a5.55,5.55,0,0,1-.41,2.05c-.16.23-.41.23-.67.23-3.9,0-7.26-1.24-7.26-5.73a10.2,10.2,0,0,1,2.53-6.6c.11-.11.41-.41.41-.55s-.2-.27-.34-.27-1.22.16-1.47.2a46.67,46.67,0,0,0-5.09.95,2,2,0,0,1-.34,0c-.55,0-.76-2.18-.76-2.41C419.62,217.79,419.94,217.86,421,217.79Z"/><path class="cls-2" d="M450,216.46c0,.18-.2.27-.32.34s-.32.23-.53.76a25.13,25.13,0,0,0-1.38,7.82,11.13,11.13,0,0,0,.23,2.32.24.24,0,0,0,.23.21c.19,0,.3-.25.48-.69a3.63,3.63,0,0,0,.21-.48c.09-.21.21-.51.42-.51s1,.46,1,.76a5.39,5.39,0,0,1-.35,1,11.11,11.11,0,0,0-.92,3.61c0,.3.05.57.05.83,0,.41-.3.52-.65.69a3.25,3.25,0,0,1-1,.29c-.39,0-.55-.46-.69-.78a19,19,0,0,1-1.29-7.24,28.31,28.31,0,0,1,1.13-7.61c.18-.74.39-1.47.53-2.21,0-.16.07-.44.3-.44a8.52,8.52,0,0,1,1.68.72C449.32,216,450,216.18,450,216.46Zm11.11,1.15c0,.46-.46.55-2,.73-.58.07-.79.28-.79.85V220c0,.86.05,1.22.44,1.22a18.72,18.72,0,0,0,2.44-.59,2.28,2.28,0,0,1,.69-.19c.25,0,.34.32.44.69a8.89,8.89,0,0,1,.2,1.24c0,.46-.46.58-2.39.88-1,.14-1.66.14-1.66.85,0,.55.14,2.32.17,3.08s.11.74.69,1,3.33,1.84,3.33,2.53c0,.43-.87,1.68-1.4,1.68-.21,0-.37-.16-.6-.42-.05,0-.09-.11-.14-.16-.3-.3-1.24-1.24-1.65-1.24s-.32.25-.49.67c-.48,1.33-2.2,1.68-3.47,1.68-1.7,0-3.72-.74-3.72-2.76s2.13-2.92,3.93-2.92c.34,0,.71,0,.85,0a.49.49,0,0,0,.5-.5c0-.4-.11-1.89-.13-2.37,0-.3-.12-.58-.49-.58,0,0-.11,0-.18,0-1.08.11-3.06.2-4.14.2-.23,0-.71,0-.83-.18a13.21,13.21,0,0,1-.18-1.7c0-.37.07-.53.46-.53s1,0,1.52,0c3.38,0,3.68-.07,3.68-.78,0-2-.07-2.16-.49-2.16-.27,0-2.16.18-3.08.18-.41,0-.66,0-.76-.41,0-.18-.13-1.36-.13-1.56s.11-.46.43-.46a1.62,1.62,0,0,1,.3,0c.42.05,1.43.07,1.89.07a19.09,19.09,0,0,0,5.95-.81,1.17,1.17,0,0,1,.26,0C460.91,215.7,461.07,217.28,461.07,217.61Zm-7.8,12.48c0,.67,1,.83,1.5.83,1,0,1.72-.21,1.72-1.24,0-.53-.87-.51-1.24-.51C454.68,229.17,453.27,229.29,453.27,230.09Z"/><path class="cls-2" d="M471.67,223.08a16.38,16.38,0,0,0,2.12-.69,20.93,20.93,0,0,1,6.62-1.66,4.45,4.45,0,0,1,4.78,4.51c0,2.85-2.09,4.6-4.5,5.64a13.27,13.27,0,0,1-3.55,1c-.75,0-1.08-1.56-1.08-1.75,0-.39.44-.43.74-.46a10.13,10.13,0,0,0,3.93-1.15A3.93,3.93,0,0,0,483,225.2a2.35,2.35,0,0,0-2.58-2.33c-2.23,0-5.22,1.27-7.17,2.33a1.29,1.29,0,0,1-.65.22c-.6,0-1.42-1.38-1.42-1.86C471.17,223.26,471.42,223.15,471.67,223.08Z"/><path class="cls-2" d="M497.2,225.79c.3,0,.37.21.42.44.48,2.44,2.44,2.78,4.6,2.78a28.76,28.76,0,0,0,6.85-.8,1.36,1.36,0,0,1,.35-.07c.34,0,.5.39.5,1.88,0,.44-.11.72-.55.86a43,43,0,0,1-6.9.64c-2.39,0-5-.3-6.46-2.39a5.34,5.34,0,0,1-.9-2.23C495.11,226.32,497.18,225.79,497.2,225.79Zm.39-8c.07-.39.12-.81.56-.81a3.11,3.11,0,0,1,.66.14,14.65,14.65,0,0,0,3.91.48,19.59,19.59,0,0,0,4.17-.46,1.19,1.19,0,0,1,.29,0c.58,0,.6,1,.6,2,0,.55-.11.59-.64.69A32.17,32.17,0,0,1,503,220a19.76,19.76,0,0,1-5.25-.57.5.5,0,0,1-.32-.49A9.31,9.31,0,0,1,497.59,217.77Z"/><path class="cls-2" d="M523.67,216.8c0,.14-.17.25-.28.3a1.09,1.09,0,0,0-.44.46,9.79,9.79,0,0,0-.67,1.93,12.44,12.44,0,0,0-.29,2.58c0,.18,0,1.17.23,1.17s.32-.37.41-.6.53-1.24.8-1.24.9.41.9.71c0,.07-.34.88-.55,1.43l-.21.55a9.06,9.06,0,0,0-.76,2.85c0,.32.05.58.05.74,0,.64-1.22.92-1.66.92s-.66-.42-.8-.85a19,19,0,0,1-.76-5.36,21.87,21.87,0,0,1,.53-4.71c.14-.58.3-1.13.39-1.71,0-.16.09-.57.3-.57s1.08.41,1.24.48C522.61,216.11,523.67,216.55,523.67,216.8Zm7.26-2c.44,0,.49.28.58.62a30.64,30.64,0,0,1,.71,6.62c0,4-.67,7.36-3.56,10.31-.37.36-1.32,1.28-1.84,1.28s-1.71-1.12-1.71-1.61c0-.18.21-.32.35-.39a8.65,8.65,0,0,0,3.12-3.58,13.46,13.46,0,0,0,1.06-5.8,22.32,22.32,0,0,0-.8-6.41,1.71,1.71,0,0,1-.05-.3C528.79,215,530.68,214.8,530.93,214.8Z"/><path class="cls-2" d="M550.18,230.3a3.2,3.2,0,1,1-3.19-3.2A3.2,3.2,0,0,1,550.18,230.3Zm-5.24,0a2,2,0,1,0,4.09,0,2,2,0,0,0-2-2.05A2.05,2.05,0,0,0,544.94,230.3Z"/><path class="cls-2" d="M99.06,270.46c-.49,0-.69.07-.92.51a24.81,24.81,0,0,1-2.51,3.86.71.71,0,0,1-.57.37c-.37,0-1.75-.64-1.75-1.1,0-.16.25-.42.34-.53A22.92,22.92,0,0,0,98,265.4c0-.2.07-.43.33-.43s1.19.3,1.44.36c.74.19,1.06.26,1.06.53s-.2.28-.34.35c-.32.14-.37.3-.58.85-.07.16-.14.37-.23.62a.81.81,0,0,0,0,.19.4.4,0,0,0,.43.39h8.67c.76,0,1.5-.05,2.26-.05,1.44,0,1.6.55,1.6,1.75a70.11,70.11,0,0,1-.89,12.44,3.4,3.4,0,0,1-1.77,2.73,6.73,6.73,0,0,1-2.65.46c-1.31,0-1.51-.13-1.74-.52a2.87,2.87,0,0,1-.3-1.32c0-.34,0-.69.43-.69a2.44,2.44,0,0,1,.39.05,11.5,11.5,0,0,0,1.29.09c1.61,0,1.91-.8,2.16-2.2a35.3,35.3,0,0,0,.51-4.72c.07-1.2.16-3.54.16-4.69s-.09-1.13-1.15-1.13Zm7.29,10.4c0,.46,0,.92,0,1.38s-.32.53-1.13.53c-1.1,0-1.17,0-1.17-.39s-.14-.51-.83-.51h-2.57c-.83,0-.83.14-.83.9s-.07.69-1.2.69c-.89,0-1.12,0-1.12-.63s0-1.24,0-1.86v-5.82c0-.48,0-1,0-1.47,0-.71.27-.92,1-.92s1.08,0,1.64,0h3.65l1.59,0c.73,0,1,.21,1,1,0,.48,0,.94,0,1.42Zm-2.9-4.42a.64.64,0,0,0,.64-.64v-.37a.6.6,0,0,0-.64-.62h-3c-.39,0-.59.23-.64.62v.37a.65.65,0,0,0,.64.64Zm-3,1.68a.66.66,0,0,0-.64.64v.46a.66.66,0,0,0,.64.65h3a.65.65,0,0,0,.64-.65v-.46a.65.65,0,0,0-.64-.64Z"/><path class="cls-2" d="M122,269.29c3.36-.21,6.71-.55,10-.94,1.75-.21,3.49-.44,5.22-.72a1.51,1.51,0,0,1,.3,0c.34,0,.39.3.43.58a9.53,9.53,0,0,1,.21,1.68c0,.5-.48.46-1,.48a11.3,11.3,0,0,0-3.82.48,7,7,0,0,0-3.91,3.43,8.55,8.55,0,0,0-1.1,4c0,2.67,1.7,3.32,4,3.32.39,0,.9,0,1.15,0s.53,0,.53.39a6.64,6.64,0,0,1-.34,1.89c-.16.34-.35.39-.74.39-3.91,0-7.26-1.24-7.26-5.73a10.25,10.25,0,0,1,2.52-6.6c.26-.27.39-.43.39-.55s-.18-.27-.34-.27-1.22.18-1.45.2c-1.54.23-3.61.56-5.08.95a2.09,2.09,0,0,1-.35,0c-.32,0-.43-.5-.5-.76a10.45,10.45,0,0,1-.25-1.65C120.63,269.29,121,269.36,122,269.29Zm15.27,5.61c0,.35-.92,1-1.17,1s-.23-.16-.33-.28c-.46-.67-1-1.31-1.47-1.93-.07-.07-.2-.21-.2-.32,0-.28.92-.85,1.17-.85A8.88,8.88,0,0,1,137.23,274.9Zm2.78-1.26c0,.32-.9,1-1.17,1s-.25-.18-.35-.3a18.93,18.93,0,0,0-1.49-1.91.5.5,0,0,1-.16-.29c0-.28.89-.88,1.17-.88A9.3,9.3,0,0,1,140,273.64Z"/><path class="cls-2" d="M148.46,277.29c.3,0,.37.21.41.44.48,2.44,2.44,2.78,4.6,2.78a28.64,28.64,0,0,0,6.85-.8,1.55,1.55,0,0,1,.35-.07c.34,0,.5.39.5,1.88,0,.44-.11.72-.55.86a43,43,0,0,1-6.9.64c-2.39,0-5-.3-6.46-2.39a5.46,5.46,0,0,1-.89-2.23C146.37,277.82,148.44,277.29,148.46,277.29Zm.39-8c.07-.39.11-.81.55-.81a3.34,3.34,0,0,1,.67.14,14.55,14.55,0,0,0,3.91.48,19.5,19.5,0,0,0,4.16-.46,1.36,1.36,0,0,1,.3,0c.57,0,.6,1,.6,2,0,.55-.12.59-.65.69a31.94,31.94,0,0,1-4.16.27A19.69,19.69,0,0,1,149,271a.49.49,0,0,1-.33-.49A7.9,7.9,0,0,1,148.85,269.27Z"/><path class="cls-2" d="M172.68,277.29c.3,0,.37.21.42.44.48,2.44,2.43,2.78,4.59,2.78a28.78,28.78,0,0,0,6.86-.8,1.37,1.37,0,0,1,.34-.07c.35,0,.51.39.51,1.88a.76.76,0,0,1-.55.86,43,43,0,0,1-6.9.64c-2.39,0-5-.3-6.46-2.39a5.34,5.34,0,0,1-.9-2.23C170.59,277.82,172.66,277.29,172.68,277.29Zm.39-8c.07-.39.12-.81.55-.81a3.07,3.07,0,0,1,.67.14,14.65,14.65,0,0,0,3.91.48,19.5,19.5,0,0,0,4.16-.46,1.36,1.36,0,0,1,.3,0c.58,0,.6,1,.6,2,0,.55-.12.59-.64.69a32.21,32.21,0,0,1-4.17.27,19.73,19.73,0,0,1-5.24-.57.48.48,0,0,1-.32-.49A7.82,7.82,0,0,1,173.07,269.27Z"/><path class="cls-2" d="M207.06,268.35c0,.3-.46.48-.62.64-.8.58-4,3.8-4,4.16a.24.24,0,0,0,.26.23,1.18,1.18,0,0,0,.43-.09,5.64,5.64,0,0,1,7.36,5.13c0,2.9-1.95,4.6-4.48,5.59a13.68,13.68,0,0,1-3.93.85c-.37,0-.53-.23-.79-.78a5.54,5.54,0,0,1-.48-1.34c0-.39.46-.39.81-.39h.48c2.37,0,5.84-1.13,5.84-4,0-2.09-1.91-3.1-3.77-3.1a7.13,7.13,0,0,0-5.38,2.48,16.78,16.78,0,0,0-1.84,2.76c-.09.14-.21.34-.41.34-.37,0-1.89-1-1.89-1.56a.85.85,0,0,1,.32-.57c.65-.74,1.86-2.33,2.55-3.16,1.5-1.86,3-3.7,4.58-5.51a.39.39,0,0,0,.09-.23.23.23,0,0,0-.25-.23,7.07,7.07,0,0,0-.92.18c-.46.09-2.83.51-3.17.51-.58,0-.81-1.75-.81-2.07,0-.53.23-.51.74-.53,1.74-.05,4.92-.28,6.44-1.11a1.3,1.3,0,0,1,.62-.23A3.9,3.9,0,0,1,207.06,268.35Z"/><path class="cls-2" d="M228.52,266.65c0,.11-.09.18-.21.25-.32.16-.48.18-.8,1-.21.55-.39,1.13-.57,1.68a.74.74,0,0,0-.07.32c0,.39.3.48.62.53.78.09,1.56.16,2.34.18.44,0,.78,0,.78.44a6.53,6.53,0,0,1-.25,1.5c-.09.32-.18.5-.5.5a30.23,30.23,0,0,1-3.13-.34.54.54,0,0,0-.21-.05c-.37,0-.53.25-.62.55s-.39,1.73-.39,1.91c0,.48.48.51.8.53a20.48,20.48,0,0,0,2.07.09c.62,0,.69.16.69.39a4.79,4.79,0,0,1-.3,1.54c-.11.35-.25.53-.64.53s-1.61-.16-2.16-.23a2.6,2.6,0,0,0-.37,0c-.62,0-.62.57-.62,1.56a2.74,2.74,0,0,0,3.06,3.06,4.91,4.91,0,0,0,3.33-1.08,2.3,2.3,0,0,0,.51-1.64,10,10,0,0,0-.78-3.33,1.07,1.07,0,0,1-.09-.41c0-.56,1.7-.85,2-.85s.44.36.62.87a12.51,12.51,0,0,1,.76,4c0,3.57-3.29,4.81-6.35,4.81-3.47,0-5.52-2-5.52-5.5,0-.57.1-1.44.1-1.67,0-.51-.39-.65-.92-.81a7.91,7.91,0,0,1-1.36-.55c-.25-.14-.44-.25-.44-.55,0-.14.23-2,.81-2a1.3,1.3,0,0,1,.57.23,4.17,4.17,0,0,0,1.47.65c.4,0,.46-.33.6-1,0-.26.14-.55.21-.9,0-.16.09-.37.09-.51,0-.5-.41-.64-.74-.75-1.6-.63-2.06-.83-2.06-1.25s.36-2,.85-2a1.29,1.29,0,0,1,.53.25,13.5,13.5,0,0,0,1.56.8.63.63,0,0,0,.3.07c.37,0,.46-.3.53-.55.2-.78.71-2.41.89-3.08.07-.25.12-.46.35-.46a8.79,8.79,0,0,1,1.15.37C227.35,266,228.52,266.28,228.52,266.65Z"/><path class="cls-2" d="M251.68,272.39a.08.08,0,0,0-.07,0,13.45,13.45,0,0,1-2.76,1.12c-.43,0-1.15-1-1.15-1.28s.33-.37.86-.55a20.67,20.67,0,0,0,5.08-2.65c.07-.05.11-.09.11-.16s-.14-.21-.25-.21H248c-.44,0-.64.19-.64.65V274c0,3.4-.19,6.78-1.61,9.93-.49,1.11-.78,1.77-1.15,1.77s-1.7-.73-1.7-1.19a.81.81,0,0,1,.13-.3A15.06,15.06,0,0,0,245,278.7c0-.17,0-.33-.26-.33a.34.34,0,0,0-.18.07,5.45,5.45,0,0,0-.6.44c-.16.09-.16.21-.21.46a.27.27,0,0,1-.25.21c-.27,0-.44-.56-.53-.83s-.53-1.27-.53-1.4.53-.37,1-.58.92-.48,1.35-.74a.87.87,0,0,0,.53-.87v-5.22c0-.69,0-1.36,0-2,0-.88.48-1,1.24-1s1.5.05,2.23.05h3.06c.41,0,.6-.17.6-.6a2.56,2.56,0,0,0-.05-.62c0-.05,0-.14,0-.21,0-.25.2-.28.41-.28s1.66.12,2.05.14c.18,0,.62.05.62.32s-.14.21-.32.35a.51.51,0,0,0-.23.44c0,.36.32.46.62.46h4.34c.81,0,1.64-.05,2.46-.05.51,0,.51.18.51,1s0,.94-.48.94c-.83,0-1.66-.05-2.49-.05h-2.94s-.07,0-.07.05.05.07.07.07.21.16.21.25-.16.21-.28.23a.07.07,0,0,0-.07.07c0,.05,0,.05.05.07a22,22,0,0,0,6.12,2.53c.13,0,.29.14.29.3s-.5,1.42-1.1,1.42a18.41,18.41,0,0,1-3.66-1.35h-.06c-.12,0-.16.06-.16.16,0,.32,0,.48-.4.48l-1.49,0h-2.55l-1.5,0c-.3,0-.34-.14-.37-.41C251.82,272.46,251.77,272.39,251.68,272.39Zm-7.79,1.45c-.32,0-.37-.23-.53-.87-.21-.8-.48-1.61-.76-2.39a1.62,1.62,0,0,1-.12-.44c0-.39,1-.76,1.18-.76.34,0,.43.35.94,1.87a11.48,11.48,0,0,1,.51,1.83C245.11,273.54,244.05,273.84,243.89,273.84Zm5.63,7.75c.39.12.65.19.65.44s-.21.21-.35.23-.23.21-.28.37a16.79,16.79,0,0,1-1,2.32c-.12.23-.28.44-.56.44s-1.4-.37-1.4-.78a2.29,2.29,0,0,1,.3-.58,8.33,8.33,0,0,0,1-2.3c.07-.23.11-.46.36-.46A8.94,8.94,0,0,1,249.52,281.59Zm3.4-3.35h-1.44c-.44,0-.63.16-.65.59,0,.26,0,.74,0,1,0,.5-.21.48-1,.48s-.94,0-.94-.46,0-1,0-1.52v-2.69c0-.46,0-.92,0-1.33,0-.6.34-.69.87-.69l1.45,0h1.61l1.45,0c.5,0,.85.09.85.67,0,.36,0,.85,0,1.31v2.18c0,.35,0,.69,0,1.06,0,1.45-1.11,1.49-2.35,1.49-.64,0-1.06,0-1.06-.87,0-.23,0-.41.3-.41l.49,0c.55,0,.71-.05.71-.46C253.27,278.33,253.18,278.24,252.92,278.24Zm3.27,5.35c.87,0,1-.2,1.22-1.19.07-.3.14-.46.46-.46s1.49.11,1.49.76a4.29,4.29,0,0,1-.87,2.16,2.81,2.81,0,0,1-2.14.6h-3.54c-1.29,0-2.3-.1-2.3-1.66,0-.28.05-.55.05-.83v-.8c0-.28,0-.58-.05-.83a3,3,0,0,1,0-.41c0-.21.11-.28.3-.28s1.7.09,2,.14.39,0,.39.23-.13.23-.25.3-.25.3-.25.85V283c0,.55.3.57,1,.57Zm-3.2-8.07a.3.3,0,0,0,.28-.3v-.14a.28.28,0,0,0-.28-.29h-1.86c-.18,0-.3.11-.3.29v.14a.31.31,0,0,0,.3.3ZM250.83,277a.28.28,0,0,0,.3.3H253a.28.28,0,0,0,.28-.3v-.16a.3.3,0,0,0-.28-.3h-1.86a.31.31,0,0,0-.3.3Zm4.12-6.39a.74.74,0,0,0-.48.18c-.33.23-.67.44-1,.64-.07.05-.11.09-.11.16s.11.17.21.17h2.89c.09,0,.21,0,.21-.14a.16.16,0,0,0-.09-.16c-.3-.19-.85-.49-1.11-.67A1,1,0,0,0,255,270.56Zm.57,12.44c-.18,0-.3-.17-.39-.28a16.52,16.52,0,0,0-1.12-1.36.35.35,0,0,1-.14-.25c0-.25.94-.94,1.22-.94s.5.3.89.8c.55.69.74.92.74,1.06C256.72,282.38,255.85,283,255.52,283Zm1-6.95a12.62,12.62,0,0,0-.07-1.65.47.47,0,0,1,0-.19c0-.18.16-.23.33-.23s1.4.09,1.56.12.41,0,.41.25-.11.21-.23.27-.23.3-.23,1.43v.6c0,.46.05.92.05,1.38s-.18.46-.94.46-.9,0-.9-.44c0-.23.05-1.1.05-1.4Zm3.22-.78a6.35,6.35,0,0,0-.07-1.15V274c0-.21.16-.23.34-.23.39,0,1.33.07,1.77.09.19,0,.55.05.55.3s-.16.23-.3.3-.23.37-.23,1.45v1.31c0,.37,0,.73,0,1.08,0,1.79-1,2.11-2.6,2.11-.55,0-1.13.1-1.13-1.4,0-.23.05-.46.32-.46h.21a2.55,2.55,0,0,0,.39,0c.78,0,.72-.27.72-1.15Zm2,10c-.21,0-.3-.16-.53-.62a18.92,18.92,0,0,0-1.47-2.39.94.94,0,0,1-.23-.44c0-.3,1-.82,1.29-.82s.8.78,1.33,1.6a9.88,9.88,0,0,1,1,1.8C263.11,284.74,262,285.27,261.73,285.27Z"/><path class="cls-2" d="M275.73,267.43c.17,0,.46.11.46.32s-.13.23-.27.34c-.81.6-1,7.89-1,9.2,0,1.8-.05,4.58,2.43,4.58a5.86,5.86,0,0,0,4.33-2.23,7.25,7.25,0,0,0,1.4-3.4c.07-.37.11-.76.46-.76.5,0,1.91,1.17,1.91,1.86a8.42,8.42,0,0,1-.95,2.69,8.06,8.06,0,0,1-7,4.39,5.07,5.07,0,0,1-4-1.77c-1-1.38-1.15-3.61-1.15-5.29s.07-3.63.2-5.45c.07-1.06.28-3.26.28-4.21v-.25c0-.34,0-.57.35-.57A19.1,19.1,0,0,1,275.73,267.43Z"/><path class="cls-2" d="M301.88,265.86c.2.07.85.23.85.49,0,.11-.14.18-.21.23-.35.2-.37.3-.53.8-.07.25-.55,1.93-.55,2.05a.33.33,0,0,0,.34.34,15.52,15.52,0,0,0,2.67-.85,1.2,1.2,0,0,1,.48-.11c.46,0,.46,1.4.46,1.75s0,.71-.43.82a34.45,34.45,0,0,1-3.77.9c-.67.14-.74.25-.95.9A71.27,71.27,0,0,1,296,283.32c-.3.55-.49.87-.83.87s-2-.73-2-1.24a1.84,1.84,0,0,1,.39-.76,44.74,44.74,0,0,0,4.07-8.51,3.17,3.17,0,0,0,.19-.6c0-.23-.19-.34-.42-.34s-1.33.11-2,.11c-.46,0-.83,0-1-.41a10.05,10.05,0,0,1-.18-1.68c0-.25.07-.41.34-.41s1.18.09,2.16.09c1.48,0,1.82,0,2-.37a21.33,21.33,0,0,0,.85-4.18c0-.35,0-.58.25-.58S301.58,265.77,301.88,265.86Zm-.33,14.84c1,1.12,2.76,1.33,4.17,1.33a10.25,10.25,0,0,0,3.26-.46,1,1,0,0,1,.23-.05c.39,0,.39.53.39,1.45,0,.46,0,1-.25,1.15a21.27,21.27,0,0,1-3.59.3,9.75,9.75,0,0,1-4.92-1c-.37-.26-1.13-.83-1.13-1.31s1.06-1.71,1.43-1.71C301.3,280.37,301.46,280.58,301.55,280.7Zm2.81-7.43a16.73,16.73,0,0,1,4.62.64.43.43,0,0,1,.32.46,5.73,5.73,0,0,1-.43,1.61c-.1.21-.19.3-.42.3a1.2,1.2,0,0,1-.48-.11,10.29,10.29,0,0,0-3.66-.58l-.87,0c-.46,0-.58-.11-.58-.5C302.86,273.13,303.28,273.27,304.36,273.27Z"/><path class="cls-2" d="M321.39,269.82c.18.05.5.09.5.32s-.09.19-.23.3c-.32.25-.34.71-.41,1.1a16.5,16.5,0,0,0-.19,2.44,13.13,13.13,0,0,0,.74,4.81c.28.64,1,2,1.84,2,.64,0,1.31-1,1.59-1.52.13-.23.32-.57.62-.57.48,0,1.65.94,1.65,1.35s-1,1.63-1.35,2a3.31,3.31,0,0,1-2.46,1.45c-1.71,0-3-1.54-3.8-2.94-1.15-2.16-1.33-5.06-1.33-7.5,0-.37.07-3.29.11-3.49a.28.28,0,0,1,.32-.26C319.29,269.31,321,269.75,321.39,269.82Zm9.35-.46c.51,0,2.44,1.45,3.55,3.56a12.64,12.64,0,0,1,1.35,4.79c0,.43-.23.55-.62.66a4.7,4.7,0,0,1-1.29.21c-.73,0-.71-.32-.75-.87a8.84,8.84,0,0,0-3.41-6.56.37.37,0,0,1-.21-.34C329.36,270.37,330.28,269.36,330.74,269.36Z"/><path class="cls-2" d="M346.13,279.32c.53,0,4.49,3.17,4.49,3.74s-1.15,1.77-1.68,1.77c-.18,0-.35-.2-.46-.34a14.12,14.12,0,0,0-3.5-3.13c-.16-.09-.41-.23-.41-.43A3.14,3.14,0,0,1,346.13,279.32Z"/><path class="cls-2" d="M370.05,283.78a2,2,0,0,0-.5.11,29.3,29.3,0,0,1-7.27,1.73c-.32,0-1,.09-1.27.09s-.59-.28-.73-.64a3.05,3.05,0,0,1-.25-1c0-.55.57-.48,1.26-.53a26.29,26.29,0,0,0,5.84-1c.12-.05.23-.12.23-.28a.45.45,0,0,0-.14-.27c-.43-.33-.82-.67-1.22-1a.75.75,0,0,0-.55-.27,1.21,1.21,0,0,0-.41.09A15.07,15.07,0,0,1,361.5,282c-.6,0-.92-1-.92-1.35s.32-.37.94-.55a17.33,17.33,0,0,0,5.17-2.37.21.21,0,0,0,.1-.19c0-.07-.05-.16-.21-.18-.55,0-1.1,0-1.66,0-.73,0-1.28-.09-1.28-1,0-.46,0-.92,0-1.38v-3.84c0-.46,0-.95,0-1.41,0-.85.55-1,1.26-1l1.86,0h.37c.42,0,.58-.07.76-.44l.14-.27a.65.65,0,0,0,.05-.21c0-.25-.21-.34-.44-.34h-4.35c-.9,0-1.81,0-2.73,0-.49,0-.49-.25-.49-.94s0-1,.49-1c.92,0,1.83.05,2.73.05h13.84c.92,0,1.82-.05,2.74-.05.51,0,.48.26.48.95s0,1-.48,1c-.92,0-1.82,0-2.74,0h-5.81c-.44,0-.53.09-.74.46a.91.91,0,0,0-.11.25.54.54,0,0,0-.05.21c0,.25.18.34.41.34h2.81l1.84,0c.69,0,1.26.11,1.26.94,0,.48,0,.94,0,1.43V275c0,.46,0,.94,0,1.42,0,.83-.57.92-1.26.92l-1.84,0h-2.88a1.44,1.44,0,0,0-1.19.41l-.44.42a.19.19,0,0,0-.09.18c0,.16.12.21.25.21h2.9c.67,0,1.36,0,2.05,0,1.19,0,1.47,1.34,1.47,1.5,0,.34-.3.57-.53.76a13,13,0,0,1-2.09,1.45c-.09.07-.16.14-.16.23s.11.2.2.25a25.08,25.08,0,0,0,6.67.87c.42,0,.62,0,.62.65s-.25,1.51-1.12,1.51a26.82,26.82,0,0,1-8.74-1.83A1.25,1.25,0,0,0,370.05,283.78Zm4.39-13.13a.4.4,0,0,0-.43-.44h-7.64a.42.42,0,0,0-.43.44v.11a.42.42,0,0,0,.43.44H374a.4.4,0,0,0,.43-.44Zm-8.07,1.91a.44.44,0,0,0-.43.43v.14a.42.42,0,0,0,.43.44H374a.4.4,0,0,0,.43-.44V273a.41.41,0,0,0-.43-.43Zm0,2.36a.46.46,0,0,0-.43.44v.16a.42.42,0,0,0,.43.44H374a.42.42,0,0,0,.43-.44v-.16a.42.42,0,0,0-.43-.44Zm2.19,5.16c-.12,0-.26,0-.26.2a.26.26,0,0,0,.1.19c.34.25.73.5,1.1.73a1.17,1.17,0,0,0,.55.16,1.2,1.2,0,0,0,.48-.11c.23-.12,1.52-.78,1.52-1s-.32-.18-.69-.18Z"/><path class="cls-2" d="M390.08,281.73c0,1.1.07,2.23.07,3.36,0,.73-.25.76-1.17.76s-1.17,0-1.17-.74c0-1.13,0-2.25,0-3.38V269.06c0-.64,0-1.29,0-1.95,0-.83.3-1.13,1.12-1.13l1.82,0h1.66l1.45,0a1.4,1.4,0,0,1,1.35,1.17c0,.69-1.56,3.64-2,4.37a2.91,2.91,0,0,0-.36.76c0,.16.23.44.32.57a7.78,7.78,0,0,1,1.77,4.67c0,2.3-1.08,3.75-3.47,3.75a.76.76,0,0,1-.88-.64,4.58,4.58,0,0,1-.16-1.11c0-.25,0-.55.37-.55.16,0,.35,0,.55,0,1,0,1.27-.81,1.27-1.7a6.24,6.24,0,0,0-2-4.19.77.77,0,0,1-.34-.57,2.33,2.33,0,0,1,.43-.88,19.3,19.3,0,0,0,1.64-3.33c0-.28-.28-.28-.49-.28h-1.21c-.46,0-.65.19-.65.65Zm8.35-.44c0,.28.11.53.44.53l.16,0c.25-.05,2.09-.53,2.14-.53.52,0,.62.94.62,1.33,0,.6-.12.74-.53.86-1.27.34-3.68.87-5,1.12-1.64.3-1.68.35-1.87.67-.07.14-.16.28-.32.28s-.3-.28-.48-.83c-.05-.14-.09-.32-.16-.51a4.54,4.54,0,0,1-.33-1c0-.26.12-.28,1-.42.36,0,.87-.14,1.54-.25.43-.09.55-.32.55-.74V269.24c0-.71,0-1.42,0-2.13,0-.9.35-1.15,1.22-1.15.6,0,1.22,0,1.84,0h3.41c.6,0,1.22,0,1.81,0,.88,0,1.25.25,1.25,1.15,0,.71-.05,1.42-.05,2.13v3.29c0,.72.05,1.41.05,2.12,0,.87-.37,1.13-1.22,1.13-.62,0-1.24,0-1.84,0h-.3c-.26,0-.51.11-.51.44,0,0,0,.11,0,.16a13.19,13.19,0,0,0,.67,1.79c.09.16.19.28.37.28a.56.56,0,0,0,.35-.14A21.65,21.65,0,0,0,405,276.4c.09-.19.23-.37.39-.37s.37.18.69.5l.32.33c.21.2.81.75.81,1a.25.25,0,0,1-.28.25l-.25,0a.34.34,0,0,0-.28.11c-.64.62-1.24,1.18-1.93,1.75a.61.61,0,0,0-.25.46.67.67,0,0,0,.16.39,18.26,18.26,0,0,0,3,2.6c.14.09.25.16.25.34,0,.49-.82,1.66-1.4,1.66s-2.53-2-2.94-2.44a13.82,13.82,0,0,1-3.54-6.73.6.6,0,0,0-.65-.51c-.46,0-.64.21-.64.64Zm4.34-11.24a.66.66,0,0,0,.65-.64v-.74a.61.61,0,0,0-.65-.62h-3.7c-.39,0-.59.23-.64.62v.74a.66.66,0,0,0,.64.64Zm-3.7,1.72a.67.67,0,0,0-.64.65v.71a.65.65,0,0,0,.64.64h3.7a.65.65,0,0,0,.65-.64v-.71a.67.67,0,0,0-.65-.65Z"/><path class="cls-2" d="M418.67,282.72a.38.38,0,0,0-.34.23c-.41.71-.83,1.4-1.31,2.07-.16.21-.35.46-.62.46-.44,0-1.82-.55-1.82-1.08a.9.9,0,0,1,.25-.48,13.75,13.75,0,0,0,3-7.25c0-.27,0-.6.39-.6s1.31.23,1.59.28c.67.14,1,.21,1,.48s-.16.26-.27.3c-.35.16-.37.28-.48.88-.07.32-.14.78-.33,1.44a1.6,1.6,0,0,0-.07.42,1,1,0,0,0,.24.62,4.67,4.67,0,0,0,2.46,2l.18,0c.3,0,.39-.23.41-.48v-6.78c0-.46-.18-.65-.64-.65h-1.7c-.81,0-1.63,0-2.46,0-.58,0-.58-.3-.58-1.11s0-1.1.58-1.1c.83,0,1.63.05,2.46.05h7.22c.83,0,1.63-.05,2.46-.05.57,0,.57.3.57,1.1s0,1.11-.57,1.11c-.83,0-1.63,0-2.46,0h-1.79c-.47,0-.65.19-.65.65v1.49c0,.44.18.62.65.62h1.47c.73,0,1.45,0,2.18,0s.58.29.58,1.12,0,1.11-.58,1.11-1.45-.05-2.18-.05h-1.47c-.47,0-.65.18-.65.64v2.24c0,.41.14.64.6.66,1,.07,2,0,3,0,1.4,0,3,0,4.43-.19a5,5,0,0,1,.56,0c.39,0,.48.32.48.64s-.14,1.34-.55,1.61a1.76,1.76,0,0,1-.92.16c-.76,0-1.52,0-2.28,0h-2.3c-3.24,0-7,.21-9.4-2.44A.47.47,0,0,0,418.67,282.72Zm7.39-14.83h3.77c.87,0,1.74-.05,2.62-.05.64,0,1.35.16,1.35.94,0,.33,0,.76,0,1.27v.83c0,.27.07.71.07,1,0,.55-.37.53-1.29.53s-1.22.05-1.22-.5c0-.26.05-.67.05-1v-.35c0-.46-.19-.64-.65-.64h-13c-.44,0-.65.18-.65.64v.39c0,.33.07.74.07,1,0,.55-.43.51-1.24.51s-1.22,0-1.22-.51c0-.3.05-.69.05-1v-.87c0-.6,0-1,0-1.24,0-.78.67-.94,1.32-.94l2.64,0h3.7c.46,0,.65-.19.65-.65V267c0-.41-.05-.82-.09-1.24,0-.07,0-.16,0-.23,0-.27.21-.32.44-.32.51,0,1.45.09,2,.14.2,0,.66,0,.66.32s-.13.21-.3.35-.27.62-.25,1.21S425.62,267.89,426.06,267.89Z"/><path class="cls-2" d="M456.51,270a7.77,7.77,0,0,1,2.32,5.65,8.24,8.24,0,0,1-4.48,7.43,8.77,8.77,0,0,1-2.51.92c-.59,0-1.54-1.43-1.54-1.93,0-.23.35-.28.58-.32,3-.72,5.38-2.69,5.38-6a5.59,5.59,0,0,0-3.68-5.5,4,4,0,0,0-.87-.2c-.53,0-.53.5-.55.89-.26,3.36-1.06,7.45-3.27,10.1a4.12,4.12,0,0,1-3,1.77,3.69,3.69,0,0,1-3.12-2.19,7.13,7.13,0,0,1-.72-3.26,9.48,9.48,0,0,1,9.55-9.66A8.17,8.17,0,0,1,456.51,270Zm-8.94.66a7.13,7.13,0,0,0-4.14,6.63c0,.85.3,3,1.47,3s2.44-2.62,3.08-5a23.37,23.37,0,0,0,.74-4.49.36.36,0,0,0-.37-.41A2.62,2.62,0,0,0,447.57,270.69Z"/><path class="cls-2" d="M472,268.62c.28.05.58.05.58.28s-.14.23-.23.32-.12.53-.12.74v.5c0,4.76-.32,8.81-4,12.31-.18.16-.46.48-.71.48s-2-.85-2-1.27c0-.16.19-.32.3-.41,3.5-2.9,3.93-6.12,3.93-10.39,0-.69,0-1.61-.09-2.28,0-.07,0-.18,0-.25s.14-.26.3-.26C470.33,268.39,471.5,268.55,472,268.62Zm5.45,9.62c0,.71,0,1.05.37,1.05.76,0,5.29-4,6-4.8.12-.12.28-.3.46-.3.39,0,1.18,1.47,1.18,1.84s-.9,1.08-1.2,1.33c-1.38,1.2-2.76,2.37-4.21,3.45-.62.48-1.61,1.22-2.16,1.7-.21.16-.44.42-.71.42a6.09,6.09,0,0,1-1.59-.69c-.32-.19-.73-.42-.73-.83,0-.16.09-1.66.09-2.76v-8a20.34,20.34,0,0,0-.09-2.34v-.12a.2.2,0,0,1,.22-.23c.14,0,.72.09.9.12,1.2.16,1.86.23,1.86.48s-.09.21-.18.32a1,1,0,0,0-.21.6c0,.53,0,1.68,0,2.25Z"/><path class="cls-2" d="M505.91,269.31a6.91,6.91,0,0,0,1.4-.11,1,1,0,0,1,.23-.05c.39,0,1.2,1.2,1.2,1.57a.64.64,0,0,1-.14.34,5.25,5.25,0,0,0-.58,1.13,41.8,41.8,0,0,1-2.18,4.27.82.82,0,0,0-.16.46c0,.3.21.44.41.6s1.29.9,1.29,1.2-1,1.75-1.47,1.75a.56.56,0,0,1-.35-.19c-.32-.27-.62-.5-.94-.78a.83.83,0,0,0-.51-.23c-.32,0-.57.32-.78.55a18.17,18.17,0,0,1-5,3.89,12.81,12.81,0,0,1-2.78,1.17c-.6,0-1.66-1.47-1.66-1.79s.39-.35,1-.53a16.15,16.15,0,0,0,6.58-4.14.9.9,0,0,0,.34-.58.56.56,0,0,0-.27-.48c-.53-.34-1.73-1-2.3-1.24-.23-.09-.69-.25-.69-.51s.89-1.72,1.4-1.72a17.54,17.54,0,0,1,3,1.49.91.91,0,0,0,.43.14c.44,0,.65-.44,1.27-1.65a2.22,2.22,0,0,1,.14-.33,7,7,0,0,0,.59-1.51c0-.49-.59-.46-.94-.46H500c-.55,0-.71.18-1,.6a34.76,34.76,0,0,1-3,3.54,1.25,1.25,0,0,1-.74.43c-.41,0-1.91-1-1.91-1.35,0-.19.21-.35.35-.44a21.11,21.11,0,0,0,6-8.26c.07-.18.16-.57.41-.57a5.12,5.12,0,0,1,1.29.55c.21.09,1.36.6,1.36.78s-.12.21-.23.26c-.35.13-.37.2-.69.76l-.37.62a1.17,1.17,0,0,0-.18.48c0,.23.2.32.41.34Z"/><path class="cls-2" d="M526.35,271.25a.69.69,0,0,0,.69-.69l0-.79c0-.87,0-2.41-.16-3.19a1.67,1.67,0,0,1,0-.33c0-.22.16-.27.36-.27a19,19,0,0,1,1.94.23c.53.09.66.14.66.32a.44.44,0,0,1-.13.25c-.26.28-.3.33-.3,1s0,1.33,0,2l0,.76a.69.69,0,0,0,.71.67l1.22,0c.81,0,2.69-.11,3-.11s.6.18.6,1.4c0,.85-.05,1-.72,1H533l-1.61,0-1.24,0a.67.67,0,0,0-.69.67l.11,5.36v.94c0,2.46-.11,3.93-4.21,3.93-.5,0-.75-.07-.92-.55a5.16,5.16,0,0,1-.32-1.54c0-.23.09-.37.32-.37,0,0,.72.05,1.25.05,1.51,0,1.51-.46,1.51-1.68v-.58l-.06-4.21c0-.13-.1-.29-.28-.29a.46.46,0,0,0-.35.2,34.19,34.19,0,0,1-6.18,5.94,4.77,4.77,0,0,1-1.43.85c-.43,0-1.68-1.11-1.68-1.57,0-.2.56-.5.76-.62a25.71,25.71,0,0,0,6.74-5.77.72.72,0,0,0,.21-.39c0-.12,0-.28-.35-.28l-3.52.05c-.87,0-2.41.11-2.89.11s-.62-.25-.62-1.15c0-1.08,0-1.31.64-1.31l1.59,0c.41,0,.82,0,1.26,0Z"/><path class="cls-2" d="M544.35,269.29c3.36-.21,6.72-.55,10-.94,1.75-.21,3.5-.44,5.22-.72a1.51,1.51,0,0,1,.3,0c.34,0,.39.3.44.58a10.55,10.55,0,0,1,.2,1.68c0,.5-.48.46-1,.48a11.3,11.3,0,0,0-3.82.48,7,7,0,0,0-3.91,3.43,8.67,8.67,0,0,0-1.1,4c0,2.67,1.7,3.32,4,3.32.39,0,.89,0,1.15,0s.52,0,.52.39a6.64,6.64,0,0,1-.34,1.89c-.16.34-.34.39-.74.39-3.91,0-7.26-1.24-7.26-5.73a10.2,10.2,0,0,1,2.53-6.6c.25-.27.39-.43.39-.55s-.19-.27-.35-.27-1.22.18-1.45.2c-1.54.23-3.61.56-5.08.95a2,2,0,0,1-.34,0c-.32,0-.44-.5-.51-.76a10.45,10.45,0,0,1-.25-1.65C543,269.29,543.34,269.36,544.35,269.29Zm15.27,5.61c0,.35-.92,1-1.17,1s-.23-.16-.32-.28c-.46-.67-1-1.31-1.47-1.93-.08-.07-.21-.21-.21-.32,0-.28.92-.85,1.17-.85A8.88,8.88,0,0,1,559.62,274.9Zm2.78-1.26c0,.32-.89,1-1.17,1s-.25-.18-.34-.3a20.61,20.61,0,0,0-1.5-1.91.5.5,0,0,1-.16-.29c0-.28.9-.88,1.17-.88A9.3,9.3,0,0,1,562.4,273.64Z"/><path class="cls-2" d="M579.33,265.79c.56,0,1.25.12,1.25.33a.35.35,0,0,1-.14.25c-.16.12-.35.3-.37,1,0,.48,0,1,0,1.47a.6.6,0,0,0,.66.66c.19,0,1.08-.06,1.34-.06,1.12-.05,3.58-.19,4.57-.19.37,0,.53.14.53,1.17,0,1.41-.27,1.38-.5,1.38s-2-.11-3.34-.11c-.41,0-2.55,0-2.8.09a.74.74,0,0,0-.44.76v.8a1.93,1.93,0,0,0,.23,1.2,7,7,0,0,1,.71,3.22c0,3.7-2.46,7.82-3.47,7.82-.28,0-2.14-.58-2.14-1,0-.18.39-.51.53-.64a7.55,7.55,0,0,0,1.66-2.24.91.91,0,0,0,.11-.34.17.17,0,0,0-.16-.16.52.52,0,0,0-.18,0,2,2,0,0,1-.53.12c-2,0-2.74-2.16-2.74-3.84,0-2.12.92-4.14,3.24-4.35a.29.29,0,0,0,.28-.28c0-.85-.16-1-.41-1s-1.25.11-1.52.14c-1.2.11-4.16.43-5.27.66a1.33,1.33,0,0,1-.34.05c-.37,0-.39-.32-.46-.62a13.39,13.39,0,0,1-.19-1.66c0-.46.21-.41,1.34-.46.62,0,6-.32,6.23-.36a.69.69,0,0,0,.51-.72,19.34,19.34,0,0,0-.24-2.85.55.55,0,0,1,0-.18.26.26,0,0,1,.3-.28C578.07,265.61,578.78,265.75,579.33,265.79Zm-3,11.53c0,.69.16,1.95,1.08,1.95s1.2-1.17,1.2-1.89-.21-2-1.16-2S576.3,276.63,576.3,277.32Z"/><path class="cls-2" d="M602.82,281.8a3.2,3.2,0,1,1-3.2-3.2A3.21,3.21,0,0,1,602.82,281.8Zm-5.24,0a2,2,0,1,0,4.09,0,2,2,0,0,0-2-2.05A2.05,2.05,0,0,0,597.58,281.8Z"/></g></g></svg>