<svg xmlns="http://www.w3.org/2000/svg" viewBox="0 0 380.02 203.11"><defs><style>.cls-1{fill:#8d7c28;}</style></defs><g id="レイヤー_2" data-name="レイヤー 2"><g id="テキスト"><path class="cls-1" d="M18.9,58.45a13.58,13.58,0,0,1-5.18,4.2,37.21,37.21,0,0,0,9.37,1.65A8.94,8.94,0,0,0,22,66,33.25,33.25,0,0,1,11.6,63.6,44.41,44.41,0,0,1,.72,66,5.83,5.83,0,0,0,0,64.43a41,41,0,0,0,9.67-1.8,14.32,14.32,0,0,1-3.55-2.88A26.82,26.82,0,0,1,1.38,62a6.48,6.48,0,0,0-1.13-1.3,18.17,18.17,0,0,0,7.52-4.28H3.37v-9.2H10c.12-.47.25-1,.35-1.42H1V44.28H22v1.55h-9.7c-.17.53-.35,1-.52,1.42h7.82v9.2H10a10.66,10.66,0,0,1-1.28,1.33H17.4l.35-.1ZM5.17,49.9h12.6V48.45H5.17Zm0,2.68h12.6V51.1H5.17Zm0,2.7h12.6v-1.5H5.17Zm2.58,3.87a12.5,12.5,0,0,0,4,2.73,14.64,14.64,0,0,0,4.35-2.73Z"/><path class="cls-1" d="M37.25,62.83a16.38,16.38,0,0,0,2.12-.3c3.18-.7,6.28-3.05,6.28-7.33A6.86,6.86,0,0,0,39.07,48a52.07,52.07,0,0,1-1.47,7.12c-1.53,5.08-3.5,7.7-5.8,7.7s-4.42-2.55-4.42-6.62c0-5.38,4.79-10.07,10.84-10.07,5.8,0,9.5,4.09,9.5,9.09,0,5.2-3.42,8.68-9.32,9.45Zm-1.63-8.1A39.9,39.9,0,0,0,37,48.05a8.64,8.64,0,0,0-7.65,8c0,3.13,1.45,4.5,2.52,4.5S34.35,58.9,35.62,54.73Z"/><path class="cls-1" d="M57.9,51.73a80.5,80.5,0,0,1,10.67,4.1L67.7,58a65.31,65.31,0,0,0-9.8-4v8.23a28.8,28.8,0,0,0,.15,2.94h-2.4a27.12,27.12,0,0,0,.15-2.94V47.63a15.74,15.74,0,0,0-.2-2.6h2.45c-.08.77-.15,1.85-.15,2.6Zm7.52-1.25a24.55,24.55,0,0,0-2.22-3.8l1.37-.63a34.36,34.36,0,0,1,2.28,3.78Zm3.13-1.28a27.79,27.79,0,0,0-2.33-3.75l1.38-.64A34.07,34.07,0,0,1,70,48.5Z"/><path class="cls-1" d="M91,52.4a7.19,7.19,0,0,0-.27,1.28,20.59,20.59,0,0,1-2,6.25c-1.45,2.6-4.38,4.87-8.63,6l-1.57-1.75a13.63,13.63,0,0,0,2.37-.6,10.8,10.8,0,0,0,5.78-4.22,13.87,13.87,0,0,0,1.87-5.73H77v3.58a9.12,9.12,0,0,0,.07,1.2H75c0-.35.08-.9.08-1.3V53.45c0-.45,0-1.3-.1-1.75.57,0,1.4.08,2.1.08h4.57V50a8.84,8.84,0,0,0-.12-1.47h2.22A8.84,8.84,0,0,0,83.6,50v1.78h4.7a4.9,4.9,0,0,0,1.4-.13Z"/><path class="cls-1" d="M96.67,53.23c.75.05,2.08.12,3.48.12h13.7c1.25,0,2.15-.07,2.69-.12v2.45c-.5,0-1.54-.13-2.67-.13H100.15c-1.38,0-2.7.05-3.48.13Z"/><path class="cls-1" d="M137.35,47l1.22.78A5.16,5.16,0,0,0,138.2,49c-.55,2.62-1.75,6.65-3.73,9.22a19.12,19.12,0,0,1-9.85,6.68l-1.7-1.88a16.52,16.52,0,0,0,9.75-6A18.94,18.94,0,0,0,136,48.9h-12.8c-1,0-1.85.05-2.48.08v-2.2a23.67,23.67,0,0,0,2.5.15H135.7a5.92,5.92,0,0,0,1.07-.07c-.52-1-1.27-2.2-1.82-3l1.35-.58a36.16,36.16,0,0,1,2,3.3Zm2.17-4.37c.62.85,1.52,2.35,2,3.3l-1.37.6a28.08,28.08,0,0,0-2-3.32Z"/><path class="cls-1" d="M142.78,63.4a11.77,11.77,0,0,0,4.34-6.15c.73-2.3.76-7.27.76-10a9.16,9.16,0,0,0-.18-1.82H150a17.51,17.51,0,0,0-.12,1.8c0,2.77-.11,8.12-.78,10.62a13.75,13.75,0,0,1-4.45,6.85Zm11.44.13a5.94,5.94,0,0,0,.18-1.4v-15a13.15,13.15,0,0,0-.15-1.85h2.3a14.93,14.93,0,0,0-.1,1.85V61.58a19,19,0,0,0,7.27-6.15l1.2,1.7a25.17,25.17,0,0,1-8.52,6.92,5.42,5.42,0,0,0-.85.57Z"/><path class="cls-1" d="M189.6,58.68a47.11,47.11,0,0,1-5.7,3.4A19.68,19.68,0,0,0,191,64.35a7.32,7.32,0,0,0-1.12,1.6c-5.38-.92-9.35-3.25-11.48-7.22h-3.9V63.6l6.43-.6,0,1.65c-3.9.43-8,.83-10.82,1.08L169.83,64l2.82-.25V50.53a31.8,31.8,0,0,1-3.35,1.8,7.1,7.1,0,0,0-1.1-1.5c4.22-1.83,8.4-4.95,10.4-7.72h1.82a29.12,29.12,0,0,0,10.93,7.44,11.57,11.57,0,0,0-1.2,1.63,36.73,36.73,0,0,1-3.33-1.73V58.6c.5-.35,1-.7,1.38-1ZM186,50a29.77,29.77,0,0,1-6.38-5.17,28,28,0,0,1-6,5.17h5.14V47.48h1.88V50Zm-11.53,3.63H185v-2.1H174.47Zm0,3.62H185V55H174.47Zm5.78,1.53a9.63,9.63,0,0,0,2.27,2.42,36.94,36.94,0,0,0,4.1-2.42Z"/><path class="cls-1" d="M197.1,55.93c1.32-1.33,3.42-4.15,4.85-5.88s2.77-1.92,4.4-.27c1.45,1.5,3.4,4,5,5.67s3.92,4.25,6.15,6.25l-1.58,1.78c-1.87-1.78-4.15-4.33-5.85-6.25s-3.47-4.23-4.65-5.48-1.52-1-2.35.08c-1.15,1.45-3.22,4.17-4.45,5.7-.52.65-1.07,1.45-1.47,1.95l-1.82-1.9A13.09,13.09,0,0,0,197.1,55.93Zm16.62-4.75-1.47.65a27.36,27.36,0,0,0-2.35-4l1.45-.62A45,45,0,0,1,213.72,51.18Zm3.3-1.35-1.42.7a29.12,29.12,0,0,0-2.43-4l1.4-.64A30.69,30.69,0,0,1,217,49.83Z"/><path class="cls-1" d="M227,62.4c2.05-.45,4.27-1,6.4-1.47l.17,1.77c-3.92,1-8.12,2-11.19,2.7l-.6-1.92c1-.18,2.12-.4,3.34-.68V43.28H227v7.55h5.6V52.6H227Zm14.62,1.25c1.15,0,1.33-.9,1.48-4.5a4.8,4.8,0,0,0,1.74.8c-.25,4.08-.75,5.48-3.12,5.48h-4.17c-2.43,0-3.08-.73-3.08-3.43V43.28h1.88v8.9a34.92,34.92,0,0,0,6.15-3.63l1.37,1.58A53.31,53.31,0,0,1,236.35,54V62c0,1.37.2,1.62,1.4,1.62Z"/><path class="cls-1" d="M250.6,55.93c1.32-1.33,3.42-4.15,4.85-5.88s2.77-1.92,4.4-.27c1.45,1.5,3.4,4,5,5.67s3.92,4.25,6.15,6.25l-1.58,1.78c-1.87-1.78-4.15-4.33-5.85-6.25s-3.47-4.23-4.65-5.48-1.52-1-2.35.08c-1.15,1.45-3.22,4.17-4.45,5.7-.52.65-1.07,1.45-1.47,1.95l-1.82-1.9A13.72,13.72,0,0,0,250.6,55.93Zm16.62-4.75-1.47.65a27.36,27.36,0,0,0-2.35-4l1.45-.62A45,45,0,0,1,267.22,51.18Zm3.3-1.35-1.42.7a29.12,29.12,0,0,0-2.43-4l1.4-.64A30.69,30.69,0,0,1,270.52,49.83Z"/><path class="cls-1" d="M275,61.88l1.15-1.5a6.06,6.06,0,0,0,4.55,2.1c2.17,0,3.72-1.3,3.72-3.4s-1.47-3.68-5.7-3.68V53.65c3.78,0,5.08-1.52,5.08-3.5a2.87,2.87,0,0,0-3.1-2.95,5.68,5.68,0,0,0-3.8,1.83l-1.23-1.45a7.33,7.33,0,0,1,5.13-2.2c3.07,0,5.32,1.65,5.32,4.6a4.56,4.56,0,0,1-3.27,4.42v.1a4.72,4.72,0,0,1,3.9,4.65c0,3.28-2.63,5.22-5.88,5.22A7.58,7.58,0,0,1,275,61.88Z"/><path class="cls-1" d="M297.3,43.73a38,38,0,0,1-2,4.85V66h-1.78V51.78a24.92,24.92,0,0,1-2.42,3.3,11,11,0,0,0-1-1.88,28.66,28.66,0,0,0,5.48-9.94Zm15.37.93V65.73H310.9V64.45h-11v1.48h-1.73V44.66ZM310.9,62.8V46.28h-11V62.8Zm-4.7-11.47v2.75h2.87v6.65H302V54.08h2.72V51.33h-3.75V49.9h3.75V47.08h1.53V49.9H310v1.43Zm1.4,4.15h-4.23v3.87h4.23Z"/><path class="cls-1" d="M330.57,56.9A23.42,23.42,0,0,0,335,51c-.42.1-5,1-9.45,1.93V60.3c0,1.73.63,2.28,3.63,2.28a39.76,39.76,0,0,0,7.8-.73L336.9,64a57.61,57.61,0,0,1-7.85.5c-4.65,0-5.5-1.2-5.5-3.67V53.28c-2.53.5-4.75,1-5.75,1.2l-.4-2.1c1.13-.15,3.5-.58,6.15-1.08V47a13.47,13.47,0,0,0-.18-2.3h2.38a13.63,13.63,0,0,0-.18,2.3v3.9c4.25-.83,8.63-1.73,9.68-2a5.41,5.41,0,0,0,1.32-.45L338,49.68c-.17.25-.44.67-.62,1a37.84,37.84,0,0,1-5.1,7.27Z"/><path class="cls-1" d="M347.2,56.55l-1.9.7a45.11,45.11,0,0,0-2.22-5.62l1.84-.73C345.42,52,346.72,55.25,347.2,56.55Zm12.57-5.5c-.17.53-.27.93-.37,1.25A19.69,19.69,0,0,1,355.85,60a19.35,19.35,0,0,1-8.15,6l-1.65-1.7a16.66,16.66,0,0,0,8.12-5.3,17.07,17.07,0,0,0,3.45-8.55Zm-7.07,4-1.85.65a49,49,0,0,0-2-5.42l1.82-.63C351.15,50.65,352.37,54,352.7,55.05Z"/><path class="cls-1" d="M379.17,57.63a65.52,65.52,0,0,0-9.82-4l0,8.25a29.44,29.44,0,0,0,.15,2.95h-2.4a27.31,27.31,0,0,0,.15-2.95V47.3a15.9,15.9,0,0,0-.2-2.6h2.45c-.07.78-.17,1.85-.17,2.6v4.08A81.88,81.88,0,0,1,380,55.5Z"/><path class="cls-1" d="M36.25,1.68a.87.87,0,0,1-.08.39,2,2,0,0,1-.26.39c-.1.16-.19.3-.27.41a.61.61,0,0,0-.12.33.5.5,0,0,1,0,.14,2.35,2.35,0,0,0-.06.29c-.07.24-.13.43-.18.58l-.1.32a8.48,8.48,0,0,0-.27,1.33,12.43,12.43,0,0,0-.08,1.43c0,1,0,1.94-.12,2.93,0,.49-.06,1-.12,1.55s-.12,1.11-.19,1.71-.13,1.17-.18,1.72-.12,1.07-.19,1.58c-.09.91-.16,1.86-.21,2.84s-.06,2-.06,3.08c0,.71,0,1.63,0,2.74s0,2.4.07,3.86a6.58,6.58,0,0,0,.73.58,6.27,6.27,0,0,1,.79.6.88.88,0,0,1,.24.65,2,2,0,0,1-.78,1.45,2.37,2.37,0,0,1-1.54.7c-1.32,0-2.2-.88-2.64-2.65A21.94,21.94,0,0,1,30,25.18a14.85,14.85,0,0,1,.11-1.76c.08-.59.15-1.18.22-1.78,0-.41.1-1,.18-1.8s.2-1.77.33-2.94.22-2.07.29-2.69.1-1,.12-1.08,0-.24.05-.45,0-.48.08-.82c.09-.68.16-1.27.2-1.76s.06-.89.06-1.17l0-.26c0-.07,0-.18,0-.31a1.5,1.5,0,0,0-.2-.51l-.78,1.06-1,1.37c-.76,1-1.39,1.85-1.87,2.51l-.73,1c-.24.33-.49.65-.74,1l-.84,1.12c-.32.42-.68.91-1.07,1.46q-1.28,1.76-2.52,3.57l-.19.29c-.1.13-.21.3-.36.51a7.06,7.06,0,0,1-.48.7,5.59,5.59,0,0,1-2.52,2.13,4.06,4.06,0,0,1-2.56-1.72c-.12-.2-.22-.39-.3-.54s-.17-.31-.25-.44L15,21.42,14.72,21,14,19.73l-.57-1c-.32-.6-.64-1.24-.95-1.92a22.73,22.73,0,0,1-.86-2.14c-.16-.49-.29-.9-.39-1.22L11,12.74c0-.16-.12-.37-.19-.63l-.28-.94c-.1-.36-.21-.73-.34-1.11S10,9.3,9.82,8.91c-.26-.82-.4-1.26-.43-1.33C9.3,7.94,9.17,8.41,9,9L8.5,10.75c-.17.64-.35,1.27-.52,1.91s-.31,1.21-.43,1.72-.25,1-.36,1.47-.21.9-.32,1.32q-.33,1.21-1,3.81a12.55,12.55,0,0,0-.43,3.24,8.27,8.27,0,0,0,0,.89c0,.37.11.82.2,1.36s.16,1,.19,1.4S6,28.65,6,29a2.41,2.41,0,0,1-.52,1.27c-.36.49-.7.74-1,.74a4.38,4.38,0,0,1-.53,0,4.26,4.26,0,0,0-.54,0,1.69,1.69,0,0,1-1.59-1.31,7.66,7.66,0,0,1-.48-2.69,5.11,5.11,0,0,1,.19-1.16c.07-.26.14-.57.24-.94S1.87,24,2,23.56s.23-.82.29-1.08.11-.41.12-.47c.28-1.1.55-2.1.78-3s.44-1.66.62-2.34.38-1.38.57-2.12.4-1.51.63-2.33.48-1.73.67-2.38A19.4,19.4,0,0,0,6.13,8c.1-.72.18-1.2.23-1.44a7.92,7.92,0,0,1,.28-1,10.65,10.65,0,0,1,.39-1c.28-.7.65-1,1.09-1a8,8,0,0,1,2.31.27A2.5,2.5,0,0,1,11.83,5a7.14,7.14,0,0,1,.47.91,7.61,7.61,0,0,1,.33,1q.13.46.3,1.08c.1.41.2.88.31,1.4a4.55,4.55,0,0,0,.23.8c.11.26.22.55.33.88a37.93,37.93,0,0,0,4.52,9.12,5.68,5.68,0,0,1,.62-.47l.44-.35a2.13,2.13,0,0,0,.3-.31c.19-.23.37-.48.57-.76s.38-.59.57-.92l1.1-1.9a9.33,9.33,0,0,1,1.16-1.58c.21-.22.45-.51.73-.85s.61-.75,1-1.22l1-1.23.69-.86L27.06,9l.53-.69c.17-.22.37-.47.58-.76l.71-1,.57-.68.34-.42L30,5.14,30.81,4c.28-.42.58-.9.9-1.45s.64-1,.9-1.42.48-.72.67-1A.45.45,0,0,1,33.69,0a1.78,1.78,0,0,1,.72.16,5.08,5.08,0,0,1,.87.44,3.79,3.79,0,0,1,.71.55A.68.68,0,0,1,36.25,1.68Z"/><path class="cls-1" d="M66.44,17.81a2.6,2.6,0,0,1-.43,1,36.21,36.21,0,0,1-2.27,2.93,35.18,35.18,0,0,1-2.68,2.78,34.32,34.32,0,0,1-3,2.46A24,24,0,0,1,55,29a16.7,16.7,0,0,1-3.12,1.28,10,10,0,0,1-3,.42,6.37,6.37,0,0,1-4.85-1.81q-1.72-1.82-1.73-5.49a19.11,19.11,0,0,1,1-6,16.54,16.54,0,0,1,3.23-5.56,7.6,7.6,0,0,1,1-.9,7.7,7.7,0,0,1,1.13-.76,6.62,6.62,0,0,1,1.23-.53,5.66,5.66,0,0,1,1.28-.24l.43,0a4.85,4.85,0,0,1,.58.14,5.53,5.53,0,0,1,.61.24,1.36,1.36,0,0,1,.47.37,5.85,5.85,0,0,1,.87,1.29A3.87,3.87,0,0,1,54.43,13a5.31,5.31,0,0,1-.21,1.77,6.54,6.54,0,0,1-.82,1.78,11.36,11.36,0,0,1-1.51,1.87,29,29,0,0,1-2.27,2.08c-.55.47-1.18,1-1.86,1.55a26.71,26.71,0,0,1-2.47,1.79,3.61,3.61,0,0,0,1.14,2.88,4.64,4.64,0,0,0,3.14,1,8.68,8.68,0,0,0,2.24-.3A14,14,0,0,0,54,26.63a19.28,19.28,0,0,0,2.12-1.09q1-.62,1.92-1.26c1.11-.81,2.11-1.61,3-2.41s1.79-1.65,2.68-2.53l1-1.06a2.79,2.79,0,0,1,1.39-.84C66.36,17.44,66.44,17.57,66.44,17.81ZM51.52,13.93a2.8,2.8,0,0,0-.09-.58,1.59,1.59,0,0,0-.2-.5,1.3,1.3,0,0,0-.32-.34.69.69,0,0,0-.41-.13,3.1,3.1,0,0,0-2.07,1.26,13.83,13.83,0,0,0-2,3.18,6.33,6.33,0,0,0-.38,1c-.11.35-.22.72-.31,1.09s-.19.74-.26,1.1-.13.69-.18,1l1.87-1.41a17.91,17.91,0,0,0,1.6-1.33c.32-.28.64-.59,1-.92a9.7,9.7,0,0,0,.89-1.05,4.69,4.69,0,0,0,.63-1.13A2.92,2.92,0,0,0,51.52,13.93Z"/><path class="cls-1" d="M82.91,19.45a6.83,6.83,0,0,1-1.12,2.88,10.38,10.38,0,0,1-.59.88c-.26.35-.54.71-.85,1.08s-.64.75-1,1.13-.67.74-1,1.07a19.61,19.61,0,0,1-1.64,1.44,15,15,0,0,1-1.87,1.27,11.09,11.09,0,0,1-2,.91,6.58,6.58,0,0,1-2.06.34A6.4,6.4,0,0,1,68.26,30a5.31,5.31,0,0,1-2-1.5,7.38,7.38,0,0,1-1.37-2.55,11.81,11.81,0,0,1-.5-3.62c0-.95.05-1.95.14-3s.21-2.07.35-3.12.3-2.07.48-3.09.35-2,.54-3c.11-.65.21-1.19.3-1.6s.16-.8.22-1.16.13-.7.18-1.06.12-.8.19-1.34c.06-.36.1-.68.15-1s.08-.52.11-.7a4,4,0,0,1,.26-.9,3.24,3.24,0,0,1,.47-.76,2.33,2.33,0,0,1,.65-.53,1.77,1.77,0,0,1,.82-.19,1.46,1.46,0,0,1,1.39.88c-.08.4-.16.79-.24,1.16s-.16.77-.23,1.18c-.32,1.64-.59,3-.8,4s-.36,1.73-.45,2.14c-.15.83-.32,1.71-.5,2.66s-.33,1.92-.48,2.91-.27,2-.36,2.93a26,26,0,0,0-.14,2.7,13.24,13.24,0,0,0,.21,2.45,5.8,5.8,0,0,0,.7,1.88A3.39,3.39,0,0,0,69.54,27a3.58,3.58,0,0,0,1.82.43A5.61,5.61,0,0,0,73.67,27a12.07,12.07,0,0,0,2.18-1.32,20.55,20.55,0,0,0,2-1.77c.62-.65,1.2-1.27,1.72-1.87l1.09-1.28.78-.9A8,8,0,0,1,82,19.2a.88.88,0,0,1,.59-.31C82.8,18.89,82.91,19.08,82.91,19.45Z"/><path class="cls-1" d="M108.57,14.92a1.67,1.67,0,0,1-.15.68,2.75,2.75,0,0,1-.38.66,5,5,0,0,1-.51.61,3.33,3.33,0,0,1-.58.46,7,7,0,0,1-1.94.79,12.48,12.48,0,0,1-3.12.34,12.38,12.38,0,0,1-3-.38A10.37,10.37,0,0,1,96,16.82a3.82,3.82,0,0,1,.58,1.31,7.9,7.9,0,0,1,.12,1.48,8,8,0,0,1-.78,3.28,13.76,13.76,0,0,1-2,3.26,13.66,13.66,0,0,1-2.56,2.5,9.19,9.19,0,0,1-1.67,1,11,11,0,0,1-1.9.68,14,14,0,0,1-2.07.39,17.44,17.44,0,0,1-2.17.13,2.57,2.57,0,0,1-1.48-.49,5.39,5.39,0,0,1-1.29-1.19,6.47,6.47,0,0,1-.91-1.5,3.73,3.73,0,0,1-.34-1.45,10.87,10.87,0,0,1,.42-3,14.83,14.83,0,0,1,1.13-2.82,20.72,20.72,0,0,1,1.65-2.65c.62-.87,1.29-1.73,2-2.59A13.57,13.57,0,0,1,86.1,13.7a13.15,13.15,0,0,1,1.57-1.24,9.93,9.93,0,0,1,1.66-.89,4.43,4.43,0,0,1,1.6-.34,2.91,2.91,0,0,1,1.08.18,3.21,3.21,0,0,1,.85.5,6.2,6.2,0,0,1,.82.81l1,1.09a3.86,3.86,0,0,0,1,.52,15.49,15.49,0,0,0,1.88.66c.72.22,1.48.41,2.27.57a11.14,11.14,0,0,0,2.17.24c.65,0,1.25,0,1.8-.07a13.82,13.82,0,0,0,1.59-.22,11,11,0,0,0,1.53-.43c.51-.18,1.06-.4,1.64-.66A2.05,2.05,0,0,1,108.57,14.92ZM94,19.61a7,7,0,0,0-.08-1.24,5.6,5.6,0,0,0-.34-1.31,2.87,2.87,0,0,0-.64-1,1.15,1.15,0,0,0-1-.32A7.53,7.53,0,0,1,90.45,15a2,2,0,0,0-.9-.39,1.06,1.06,0,0,0-.51.15,3.52,3.52,0,0,0-.57.4,8.2,8.2,0,0,0-.59.59c-.21.23-.4.47-.6.72-.39.5-.75,1-1.08,1.38s-.65.83-.94,1.24-.58.84-.85,1.29-.55,1-.82,1.52a4.25,4.25,0,0,0-.31.84c-.09.32-.17.66-.24,1s-.11.69-.14,1a7.81,7.81,0,0,0-.05.92,1.57,1.57,0,0,0,.17.62,3.38,3.38,0,0,0,.46.7,3,3,0,0,0,.65.58,1.27,1.27,0,0,0,.71.23,16.3,16.3,0,0,0,1.7-.08,5.75,5.75,0,0,0,1.3-.32,6.17,6.17,0,0,0,1.2-.61q.6-.39,1.41-1a6.71,6.71,0,0,0,.77-.68c.25-.26.5-.54.75-.83s.48-.59.7-.9.43-.61.63-.91a2.68,2.68,0,0,0,.33-.72,6.73,6.73,0,0,0,.21-.86,6.6,6.6,0,0,0,.11-.78C94,19.88,94,19.72,94,19.61Z"/><path class="cls-1" d="M138,17.33a2.55,2.55,0,0,1-.12.75,6.15,6.15,0,0,1-.32.76,6.08,6.08,0,0,1-.42.74l-.44.7a17.86,17.86,0,0,1-1.33,1.78c-.51.61-1.05,1.2-1.63,1.77s-1.18,1.11-1.79,1.62a20.09,20.09,0,0,1-1.8,1.35l-1.34.88a10,10,0,0,1-1.27.7,7.7,7.7,0,0,1-1.35.47,6.28,6.28,0,0,1-1.55.18A4,4,0,0,1,122,28.2a3.61,3.61,0,0,1-.89-1.06,8.39,8.39,0,0,1-.66-1.45A14.6,14.6,0,0,1,120,24c-.14-.6-.25-1.2-.35-1.78-.11-.73-.22-1.38-.33-2a9.3,9.3,0,0,0-.36-1.47,2.64,2.64,0,0,0-.5-.92,1,1,0,0,0-.76-.32,3.13,3.13,0,0,0-.7.08,2.31,2.31,0,0,0-.69.31,4.89,4.89,0,0,0-.8.67,14.72,14.72,0,0,0-1,1.13c-.39.47-.82,1-1.32,1.72s-1.07,1.48-1.74,2.42c-.32.46-.71,1-1.15,1.5s-.9,1.07-1.36,1.57a14.77,14.77,0,0,1-1.36,1.3,3.58,3.58,0,0,1-1.17.73c-1.14-.25-1.72-1.68-1.72-4.28a30.8,30.8,0,0,1,.24-3.15c.08-.63.17-1.3.27-2s.24-1.39.39-2.09.34-1.37.54-2a12.54,12.54,0,0,1,.71-1.82,2.46,2.46,0,0,1,.41-.62,1.48,1.48,0,0,1,.91-.47,4.07,4.07,0,0,1,.5,0c.21,0,.39.15.56.43a2.49,2.49,0,0,1,.24,1.19,4.79,4.79,0,0,1-.08.88,6.45,6.45,0,0,1-.21.84q-.14.43-.3.93c-.1.33-.2.71-.31,1.14s-.16.74-.26,1.17-.19.87-.28,1.31-.15.88-.21,1.3a8.24,8.24,0,0,0-.09,1.14,2.37,2.37,0,0,0,.12.73c.36,0,1-.59,1.8-1.64L111,20.14c.52-.64,1.07-1.34,1.67-2.11.44-.57.88-1.11,1.32-1.6a10.3,10.3,0,0,1,1.36-1.3,6,6,0,0,1,1.49-.88,4.7,4.7,0,0,1,1.75-.32,3,3,0,0,1,1.69.44,3.1,3.1,0,0,1,1.08,1.21,6.73,6.73,0,0,1,.64,1.84,23.82,23.82,0,0,1,.36,2.37c.08.73.15,1.45.22,2.16a8.2,8.2,0,0,0,.42,1.93,3.45,3.45,0,0,0,.9,1.38,2.43,2.43,0,0,0,1.68.52,4.49,4.49,0,0,0,1.76-.39,11.22,11.22,0,0,0,1.93-1.08,23.11,23.11,0,0,0,2.1-1.63c.73-.63,1.47-1.31,2.24-2.05a12.74,12.74,0,0,0,1-1.09c.35-.43.71-.85,1-1.26a12.52,12.52,0,0,1,1-1,1.23,1.23,0,0,1,.72-.43,1.1,1.1,0,0,1,.38.12A.38.38,0,0,1,138,17.33Z"/><path class="cls-1" d="M180.54,13.58a7.66,7.66,0,0,1-1.85,4.8A21.2,21.2,0,0,1,174,22.64c-.95.64-1.92,1.23-2.9,1.79s-2,1.05-3,1.51-2,.86-2.9,1.2-1.75.64-2.55.87a29.72,29.72,0,0,0-3.51,1.41l-.39.2-.57.3a3.59,3.59,0,0,1-1,.45,13.82,13.82,0,0,1-2.25.39,2.35,2.35,0,0,1-1.6-.56,2.71,2.71,0,0,1-.88-1.51c-.13-.54-.23-1-.28-1.36a5.73,5.73,0,0,1-.09-.84,4.47,4.47,0,0,1,.11-.8,3.43,3.43,0,0,0,.14-.92,5.83,5.83,0,0,1,0-.68q0-.37.12-.87c.05-.32.09-.58.12-.79a4.38,4.38,0,0,0,.07-.46c.06-.32.15-.94.3-1.84s.32-2.11.54-3.6q.2-1.2.45-2.52c.17-.89.37-1.83.59-2.84,0-.09,0-.2.09-.35s.07-.31.12-.51q.17-.59.24-1a4.49,4.49,0,0,0,.08-.78,1,1,0,0,0-.24-.67,3.55,3.55,0,0,0-.66-.56,3.22,3.22,0,0,1-.58-.52,1,1,0,0,1-.16-.62A2.42,2.42,0,0,1,154,4.61a1.93,1.93,0,0,1,1.42-.8,21.49,21.49,0,0,1,2.41.18c1,.11,1.68.17,2.07.17.66,0,1.67,0,3-.12s2.35-.11,3-.11a30,30,0,0,1,5.33.45A14,14,0,0,1,175.82,6a19.29,19.29,0,0,1,1.6,1.11A7.55,7.55,0,0,1,179.51,10,8.84,8.84,0,0,1,180.54,13.58Zm-3.4,0a4.81,4.81,0,0,0-2-4.16,10.92,10.92,0,0,0-4.69-1.88c-.89-.14-1.81-.25-2.74-.33s-1.88-.12-2.86-.12l-.94,0-1,.07-2,.19c-.64.07-1.33.12-2.07.14-.19.86-.37,1.76-.55,2.69s-.37,1.9-.55,2.92c0,.24-.1.57-.17,1l-.3,1.48c-.1.58-.2,1.12-.3,1.6s-.18.93-.24,1.35-.13.85-.2,1.3l-.18,1.36c-.05.47-.09.92-.12,1.37s-.05.87-.05,1.26a5.15,5.15,0,0,0,.45,2.32,20,20,0,0,0,3-.64c.5-.14,1-.31,1.59-.49s1.13-.38,1.73-.6,1.15-.42,1.61-.58.86-.3,1.2-.4q6-2,7.83-3.69a9.42,9.42,0,0,0,.67-.7c.24-.29.52-.64.82-1a18.44,18.44,0,0,0,1.52-2.44A4.66,4.66,0,0,0,177.14,13.58Z"/><path class="cls-1" d="M212.75,14.92a1.67,1.67,0,0,1-.15.68,2.75,2.75,0,0,1-.38.66,5,5,0,0,1-.51.61,3.33,3.33,0,0,1-.58.46,7,7,0,0,1-1.94.79,12.48,12.48,0,0,1-3.12.34,12.32,12.32,0,0,1-3-.38,10.37,10.37,0,0,1-2.89-1.26,3.82,3.82,0,0,1,.58,1.31,7.9,7.9,0,0,1,.12,1.48,8,8,0,0,1-.78,3.28,13.76,13.76,0,0,1-2,3.26,13.66,13.66,0,0,1-2.56,2.5,9.19,9.19,0,0,1-1.67,1,11,11,0,0,1-1.9.68,14,14,0,0,1-2.07.39,17.44,17.44,0,0,1-2.17.13,2.57,2.57,0,0,1-1.48-.49A5.39,5.39,0,0,1,185,29.16a6.47,6.47,0,0,1-.91-1.5,3.73,3.73,0,0,1-.34-1.45,10.87,10.87,0,0,1,.42-3,14.83,14.83,0,0,1,1.13-2.82A20.72,20.72,0,0,1,187,17.71c.62-.87,1.29-1.73,2-2.59a13.57,13.57,0,0,1,1.34-1.42,13.15,13.15,0,0,1,1.57-1.24,9.93,9.93,0,0,1,1.66-.89,4.43,4.43,0,0,1,1.6-.34,2.91,2.91,0,0,1,1.08.18,3.21,3.21,0,0,1,.85.5,6.2,6.2,0,0,1,.82.81l1,1.09a3.86,3.86,0,0,0,1,.52,15.49,15.49,0,0,0,1.88.66c.72.22,1.48.41,2.27.57a11.14,11.14,0,0,0,2.17.24c.65,0,1.25,0,1.8-.07a13.82,13.82,0,0,0,1.59-.22,11,11,0,0,0,1.53-.43c.51-.18,1.06-.4,1.64-.66A2.05,2.05,0,0,1,212.75,14.92Zm-14.59,4.69a7,7,0,0,0-.08-1.24,5.6,5.6,0,0,0-.34-1.31,2.87,2.87,0,0,0-.64-1,1.15,1.15,0,0,0-1-.32,7.94,7.94,0,0,1-1.49-.74,1.89,1.89,0,0,0-.89-.39,1.06,1.06,0,0,0-.51.15,3.52,3.52,0,0,0-.57.4,8.2,8.2,0,0,0-.59.59c-.21.23-.4.47-.6.72-.39.5-.75,1-1.08,1.38s-.65.83-.94,1.24-.58.84-.85,1.29-.55,1-.82,1.52a4.25,4.25,0,0,0-.31.84c-.09.32-.17.66-.24,1s-.11.69-.14,1a7.81,7.81,0,0,0-.05.92,1.57,1.57,0,0,0,.17.62,3.38,3.38,0,0,0,.46.7,3,3,0,0,0,.65.58,1.27,1.27,0,0,0,.71.23,16.3,16.3,0,0,0,1.7-.08,5.75,5.75,0,0,0,1.3-.32,6.17,6.17,0,0,0,1.2-.61c.4-.26.87-.6,1.4-1a6,6,0,0,0,.78-.68c.25-.26.5-.54.75-.83s.48-.59.7-.9.43-.61.63-.91a2.68,2.68,0,0,0,.33-.72,6.73,6.73,0,0,0,.21-.86,6.6,6.6,0,0,0,.11-.78C198.15,19.88,198.16,19.72,198.16,19.61Z"/><path class="cls-1" d="M243.08,15.49a4.62,4.62,0,0,1-.37,1.69,7.43,7.43,0,0,1-1,1.77A25,25,0,0,1,239.85,21c-.68.69-1.4,1.35-2.14,2s-1.5,1.22-2.26,1.76a23.09,23.09,0,0,1-2.24,1.4,13.9,13.9,0,0,1-2,.94,5.05,5.05,0,0,1-1.68.34,3.78,3.78,0,0,1-1.6-.31,3.6,3.6,0,0,1-1.18-.85,4.59,4.59,0,0,1-.83-1.26,10.62,10.62,0,0,1-.58-1.52,15.26,15.26,0,0,1-.4-1.65c-.11-.57-.2-1.12-.29-1.65l-1.11,1.67c-.41.61-.84,1.24-1.29,1.88s-.9,1.25-1.36,1.85-.9,1.11-1.3,1.55a18.26,18.26,0,0,1-1.5,1.39,11,11,0,0,1-1.72,1.16,9.93,9.93,0,0,1-1.9.8,7.06,7.06,0,0,1-2.05.3A2.77,2.77,0,0,1,210,29.55a5,5,0,0,1-.86-2.93,11.71,11.71,0,0,1,.12-1.63c.09-.56.19-1.13.3-1.69s.22-1.11.32-1.65a13,13,0,0,0,.21-1.53c0-.2,0-.44,0-.73s0-.64,0-1v-1c0-.29,0-.57,0-.84l.06-.79c0-.26.07-.53.12-.82a2.39,2.39,0,0,1,.53-1.15,1.6,1.6,0,0,1,1.29-.49c1.19,0,1.79.83,1.79,2.48a5.52,5.52,0,0,1-.09,1c-.05.35-.12.7-.2,1.07s-.16.75-.24,1.14-.16.76-.23,1.12l-.39,1.52c-.13.51-.25,1-.36,1.49s-.2.95-.27,1.39A9.52,9.52,0,0,0,212,25.7a2.69,2.69,0,0,0,.08.66,3,3,0,0,0,.23.68,1.41,1.41,0,0,0,.42.54,1,1,0,0,0,.62.21,4.32,4.32,0,0,0,2.08-.57,11.34,11.34,0,0,0,2-1.43A19.33,19.33,0,0,0,219.3,24q.85-1,1.5-1.77a16.5,16.5,0,0,0,1.24-1.9c.41-.73.8-1.48,1.17-2.27s.72-1.57,1.06-2.35.65-1.49.92-2.11c.61-1.44,1.16-2.15,1.64-2.15a1.1,1.1,0,0,1,.71.16,1,1,0,0,1,.17.68,8.2,8.2,0,0,1-.09,1.05c-.06.44-.12.91-.2,1.39s-.15.94-.21,1.39a8.09,8.09,0,0,0-.09,1c0,.22,0,.49,0,.81s0,.65,0,1,0,.67.07,1a6.72,6.72,0,0,0,.13.85,7.8,7.8,0,0,0,.27,1,7.38,7.38,0,0,0,.5,1.16,3.8,3.8,0,0,0,.73,1,1.46,1.46,0,0,0,1,.4,5.72,5.72,0,0,0,2.39-.63A17.78,17.78,0,0,0,235,22.08a33.68,33.68,0,0,0,2.79-2.21c.92-.81,1.78-1.61,2.58-2.41l.94-.93a11.1,11.1,0,0,1,.88-.79,3.41,3.41,0,0,1,.65-.41C243,15.27,243.08,15.32,243.08,15.49Z"/><path class="cls-1" d="M269.39,17.09a2,2,0,0,1-.55,1.27,7.35,7.35,0,0,1-1,1c-.43.36-1,.75-1.6,1.18s-1.32.87-2,1.33-1.49.92-2.31,1.4l-2.42,1.43c-.8.47-1.6.93-2.42,1.39s-1.5.84-2,1.17l-1.26.76a5.2,5.2,0,0,0-.91.75l-1.13,1.12a29.76,29.76,0,0,1-3.51,3,3.87,3.87,0,0,1-2.36.76,2.92,2.92,0,0,1-1.33-.29,1,1,0,0,1-.63-.92,1,1,0,0,1,.32-.7c.39-.39.75-.72,1.08-1s.67-.53,1-.78.74-.5,1.16-.76.9-.58,1.46-1l1.56-1,.63-.42A23.33,23.33,0,0,0,253.23,25a14,14,0,0,0,1.61-1.81A6.83,6.83,0,0,0,256.23,19a5,5,0,0,0-.17-1.1,6.94,6.94,0,0,0-.48-1.34,4.83,4.83,0,0,0-.75-1.13,1.31,1.31,0,0,0-1-.48,3.1,3.1,0,0,0-1.15.23,6.8,6.8,0,0,0-1.13.59,8.75,8.75,0,0,0-1.1.85c-.36.32-.72.64-1.07,1a21.52,21.52,0,0,0-2,2.21c-.65.8-1.33,1.72-2,2.73a12.48,12.48,0,0,0-.92,1.56,14.06,14.06,0,0,0-.65,1.56,10.19,10.19,0,0,0-.4,1.41,6.09,6.09,0,0,0-.16,1.13l-.08,1.61a1.2,1.2,0,0,1-.46.89,1.65,1.65,0,0,1-1,.32,1.33,1.33,0,0,1-1.26-.68,4.24,4.24,0,0,1-.38-2.06c0-.13,0-.35,0-.66s0-.67,0-1.08,0-.82.05-1.26,0-.86,0-1.25,0-.74,0-1,0-.49,0-.6c0-.82.09-1.6.15-2.36s.12-1.52.19-2.3.16-1.59.26-2.43.2-1.73.32-2.69.23-1.88.34-2.75.22-1.72.34-2.52.25-1.61.4-2.39.33-1.56.54-2.34l.16-.53a4.93,4.93,0,0,1,.29-.78,5.11,5.11,0,0,1,.38-.7c.14-.21.28-.32.44-.32h.77a2.16,2.16,0,0,1,.44.1,1,1,0,0,1,.39.28,1.44,1.44,0,0,1,.28.44,2.21,2.21,0,0,1,.15.48,4.19,4.19,0,0,1,0,.47c0,.15,0,.28,0,.38a5.07,5.07,0,0,1-.2,1c-.13.5-.28,1.17-.47,2-.32,1.46-.64,3-.94,4.49S244,13,243.8,14.53c-.06.51-.13,1.07-.19,1.67s-.13,1.23-.19,1.88-.11,1.3-.15,2-.08,1.3-.09,1.91c.4-.62.82-1.33,1.25-2.11a14.07,14.07,0,0,1,1.58-2.3,24.25,24.25,0,0,1,1.86-2,18,18,0,0,1,2-1.66,6.93,6.93,0,0,1,4-1.56,3.9,3.9,0,0,1,2.09.5,6.06,6.06,0,0,1,1.71,1.45,7,7,0,0,1,1.14,2,6.26,6.26,0,0,1,.38,2.18,10.19,10.19,0,0,1-.57,2.52,6.43,6.43,0,0,1-.55,1.38c-.18.31-.34.6-.49.84l1.59-1,1.74-1.1c.58-.38,1.16-.74,1.72-1.09l1.56-1,.46-.3,1-.61c.41-.26.78-.51,1.13-.75l1-.62a4.12,4.12,0,0,1,1.06-.59.5.5,0,0,1,.49.3A1.32,1.32,0,0,1,269.39,17.09Z"/><path class="cls-1" d="M285.66,19.45a6.92,6.92,0,0,1-1.11,2.88c-.15.24-.34.54-.6.88s-.54.71-.85,1.08-.64.75-1,1.13-.67.74-1,1.07a21.15,21.15,0,0,1-1.63,1.44,15.1,15.1,0,0,1-1.88,1.27,10.51,10.51,0,0,1-2,.91,6.49,6.49,0,0,1-2.06.34A6.4,6.4,0,0,1,271,30a5.31,5.31,0,0,1-2-1.5,7.55,7.55,0,0,1-1.37-2.55,11.83,11.83,0,0,1-.49-3.62c0-.95,0-1.95.13-3s.21-2.07.35-3.12.31-2.07.48-3.09.36-2,.54-3c.12-.65.22-1.19.3-1.6s.16-.8.23-1.16.12-.7.17-1.06.12-.8.2-1.34c.05-.36.1-.68.14-1s.09-.52.11-.7a3.59,3.59,0,0,1,.27-.9,3.21,3.21,0,0,1,.46-.76,2.24,2.24,0,0,1,.66-.53A1.74,1.74,0,0,1,272,.94a1.47,1.47,0,0,1,1.39.88c-.08.4-.16.79-.25,1.16s-.16.77-.22,1.18c-.33,1.64-.6,3-.8,4s-.36,1.73-.45,2.14c-.16.83-.33,1.71-.5,2.66s-.34,1.92-.49,2.91-.27,2-.36,2.93-.14,1.86-.14,2.7a12.4,12.4,0,0,0,.22,2.45,5.57,5.57,0,0,0,.69,1.88A3.39,3.39,0,0,0,272.29,27a3.59,3.59,0,0,0,1.83.43,5.53,5.53,0,0,0,2.3-.51,11.73,11.73,0,0,0,2.18-1.32,18.41,18.41,0,0,0,2-1.77c.63-.65,1.2-1.27,1.72-1.87l1.09-1.28c.32-.35.58-.66.79-.9a7.82,7.82,0,0,1,.57-.61.92.92,0,0,1,.6-.31C285.56,18.89,285.66,19.08,285.66,19.45Z"/><path class="cls-1" d="M308,17.81a2.6,2.6,0,0,1-.43,1,34.09,34.09,0,0,1-2.27,2.93,33.48,33.48,0,0,1-2.68,2.78A32.86,32.86,0,0,1,299.67,27a24,24,0,0,1-3.09,2,16.43,16.43,0,0,1-3.12,1.28,10,10,0,0,1-3,.42,6.37,6.37,0,0,1-4.85-1.81q-1.73-1.82-1.73-5.49a19.11,19.11,0,0,1,.95-6,16.54,16.54,0,0,1,3.23-5.56,7.6,7.6,0,0,1,1-.9,7.7,7.7,0,0,1,1.13-.76,6.62,6.62,0,0,1,1.23-.53,5.77,5.77,0,0,1,1.28-.24c.11,0,.25,0,.43,0a5.5,5.5,0,0,1,.59.14,5.36,5.36,0,0,1,.6.24,1.36,1.36,0,0,1,.47.37,5.23,5.23,0,0,1,.87,1.29A3.53,3.53,0,0,1,296,13a5.57,5.57,0,0,1-.2,1.77,7.2,7.2,0,0,1-.82,1.78,12,12,0,0,1-1.52,1.87,30.58,30.58,0,0,1-2.26,2.08c-.56.47-1.18,1-1.87,1.55a25.42,25.42,0,0,1-2.47,1.79A3.61,3.61,0,0,0,288,26.71a4.65,4.65,0,0,0,3.14,1,8.82,8.82,0,0,0,2.25-.3,14.25,14.25,0,0,0,2.22-.77,18.43,18.43,0,0,0,2.12-1.09c.68-.41,1.33-.83,1.92-1.26,1.11-.81,2.11-1.61,3-2.41s1.79-1.65,2.68-2.53l1.05-1.06a2.79,2.79,0,0,1,1.39-.84C307.93,17.44,308,17.57,308,17.81Zm-14.92-3.88a2.8,2.8,0,0,0-.09-.58,1.59,1.59,0,0,0-.2-.5,1.46,1.46,0,0,0-.31-.34.74.74,0,0,0-.41-.13A3.1,3.1,0,0,0,290,13.64a14.19,14.19,0,0,0-2,3.18,6.33,6.33,0,0,0-.38,1c-.11.35-.21.72-.31,1.09s-.18.74-.25,1.1-.14.69-.19,1l1.88-1.41c.57-.43,1.1-.87,1.6-1.33.31-.28.63-.59.95-.92a8.69,8.69,0,0,0,.89-1.05,5.11,5.11,0,0,0,.64-1.13A3.08,3.08,0,0,0,293.08,13.93Z"/><path class="cls-1" d="M.1,114.24l1.76-2.35a9.39,9.39,0,0,0,7,3.17c3.36,0,6.1-2.58,6.1-6.77s-2.35-6.53-5.95-6.53a7.83,7.83,0,0,0-4.77,1.68l-1.92-1.17.9-13.42h14V91.9H6.39l-.7,8.3A8.16,8.16,0,0,1,10,99.06c4.78,0,8.65,2.82,8.65,9.12S14.06,118,9.21,118A12.15,12.15,0,0,1,.1,114.24Z"/><path class="cls-1" d="M22.79,122.85a5.88,5.88,0,0,0,3.91-5.32,1.57,1.57,0,0,1-.43,0,2.46,2.46,0,0,1-2.62-2.51,2.54,2.54,0,0,1,2.7-2.5c1.88,0,3,1.6,3,4.22A8.71,8.71,0,0,1,23.65,125Z"/><path class="cls-1" d="M32.69,114.24l1.76-2.35a9.41,9.41,0,0,0,7,3.17c3.37,0,6.11-2.58,6.11-6.77s-2.35-6.53-6-6.53a7.81,7.81,0,0,0-4.77,1.68L35,102.27l.9-13.42h14V91.9H39l-.71,8.3a8.23,8.23,0,0,1,4.27-1.14c4.77,0,8.64,2.82,8.64,9.12S46.66,118,41.8,118A12.17,12.17,0,0,1,32.69,114.24Z"/><path class="cls-1" d="M55.23,103.09c0-10,3.48-14.79,9-14.79s8.92,4.85,8.92,14.79-3.49,15-8.92,15S55.23,113.07,55.23,103.09Zm14.39,0c0-8.37-2.19-11.89-5.43-11.89s-5.48,3.52-5.48,11.89,2.19,12.09,5.48,12.09S69.62,111.54,69.62,103.09Z"/><path class="cls-1" d="M76.79,110.41c0-3.84,2.66-6.5,5.28-7.91v-.19a8,8,0,0,1-3.88-6.61c0-4.39,3.37-7.28,7.87-7.28,4.89,0,7.86,3.13,7.86,7.55,0,3-2.11,5.59-3.83,6.92v.2c2.5,1.45,4.85,3.6,4.85,7.51,0,4.19-3.6,7.44-9,7.44S76.79,114.83,76.79,110.41Zm14.75.11c0-3.83-3.53-5.28-7.59-6.92A7.78,7.78,0,0,0,80,110.09c0,3,2.55,5.28,6,5.28S91.54,113.38,91.54,110.52Zm-.67-14.36A4.78,4.78,0,0,0,86,91a4.41,4.41,0,0,0-4.54,4.66c0,3.44,3.09,4.92,6.46,6.25A7.69,7.69,0,0,0,90.87,96.16Z"/><path class="cls-1" d="M115,117.07c0,1-.24,1.44-.92,1.7a12.59,12.59,0,0,1-3.56.26,6.4,6.4,0,0,0-.56-1.48c1.36.06,2.66,0,3,0s.5-.12.5-.5V111H100.1v8.12H98.62V102.16H115Zm-14.9-7.61H106V103.6H100.1Zm13.4,0V103.6h-6.08v5.86Z"/><path class="cls-1" d="M118.58,111.3a18.68,18.68,0,0,1,2.94-10.14l1.14.52a19.37,19.37,0,0,0,0,19.25l-1.14.54A18.76,18.76,0,0,1,118.58,111.3Z"/><path class="cls-1" d="M131.06,112.93a22.91,22.91,0,0,0-1.82-2.48V119H127.8v-8.85a21.14,21.14,0,0,1-2.9,5.25,7.25,7.25,0,0,0-.74-1.37,20.53,20.53,0,0,0,3.44-6.26h-3.06v-1.4h3.26v-3c-1,.2-2,.36-2.92.5a5.6,5.6,0,0,0-.46-1.16,29.81,29.81,0,0,0,6.34-1.6l1,1.12a16.58,16.58,0,0,1-2.54.8v3.38h2.5v1.4h-2.5V109c.62.53,2.32,2.29,2.72,2.75Zm9.86,4.54c.42,0,.52-.32.56-2.5a3.73,3.73,0,0,0,1.31.6c-.14,2.56-.53,3.24-1.71,3.24h-1.7c-1.38,0-1.7-.44-1.7-1.92v-5.56H136c-.36,3.36-1.34,6.22-4.8,7.74a4.7,4.7,0,0,0-.9-1.14c3.12-1.26,3.92-3.76,4.24-6.6h-2V104.8h9.16v6.53H139.1v5.56c0,.5.06.58.5.58Zm-6.5-12.69a15.31,15.31,0,0,0-1.72-3.44l1.24-.52a14.8,14.8,0,0,1,1.78,3.34ZM133.9,110h6.26v-3.9H133.9Zm7.66-8.7a33.94,33.94,0,0,1-2.06,3.44l-1.24-.5a21.06,21.06,0,0,0,1.8-3.46Z"/><path class="cls-1" d="M148.78,115c.94,1.46,2.68,2.14,5,2.24s6.62,0,9-.14a6.76,6.76,0,0,0-.47,1.52c-2.19.08-6.29.12-8.49,0-2.6-.1-4.38-.82-5.66-2.36-1,.84-2,1.7-3,2.56l-.8-1.5a33.4,33.4,0,0,0,3-2.28V110h-2.78v-1.41h4.24Zm-.62-9.67a13.8,13.8,0,0,0-3.4-3.16l1.1-.9a15.22,15.22,0,0,1,3.48,3.08Zm8.32-3.54c.5,6.1,2,10.82,6.05,12.89a7,7,0,0,0-1.19,1.12c-2.8-1.64-4.42-4.46-5.32-8.11a14.28,14.28,0,0,1-5.3,8.11,9.47,9.47,0,0,0-1.16-1.11c2.92-1.85,4.6-5,5.4-9.06l.64.1c-.14-.82-.24-1.66-.34-2.54h-3.64v-1.4Z"/><path class="cls-1" d="M164.36,120.93a19.37,19.37,0,0,0,0-19.25l1.12-.52a18.9,18.9,0,0,1,0,20.31Z"/><path class="cls-1" d="M4.47,154.37c0,.75,0,1.49,0,2.24,0,.45,0,.64-.49.64s-.5-.19-.5-.64c0-.75.05-1.49.05-2.24v-7.2a14.69,14.69,0,0,0-.06-1.89,1.33,1.33,0,0,1,0-.28c0-.11,0-.17.15-.17.27,0,1.06.15,1.06.35s0,.13-.1.19a6.92,6.92,0,0,0-.11,1.8Zm2.75-4c.22.17,1.18.92,1.18,1.14a.64.64,0,0,1-.49.54.42.42,0,0,1-.3-.15A18.79,18.79,0,0,0,5.24,150c-.12-.08-.27-.15-.27-.32s.25-.54.45-.54A9.78,9.78,0,0,1,7.22,150.41Zm1.3-3.79a4.2,4.2,0,0,1,.65.81c0,.16-.35.48-.54.48a.26.26,0,0,1-.21-.15c-.29-.38-.68-.84-1-1.19,0-.06-.13-.12-.13-.19a.76.76,0,0,1,.51-.44C7.94,145.94,8.42,146.48,8.52,146.62Zm1.41-.89a6,6,0,0,1,.63.81.7.7,0,0,1-.52.5c-.11,0-.17-.09-.23-.17a12.25,12.25,0,0,0-1-1.17s-.12-.12-.12-.19a.73.73,0,0,1,.5-.45C9.35,145.06,9.81,145.61,9.93,145.73Z"/><path class="cls-1" d="M15.68,149.6a.37.37,0,0,0,.38-.36v-.46a5.45,5.45,0,0,0-.06-1.07s0-.12,0-.16.11-.18.23-.18.88,0,.88.28a.38.38,0,0,1-.13.24c-.12.11-.11.44-.11.87v.48a.36.36,0,0,0,.36.36h1.7c.49,0,.9,0,1,0a.78.78,0,0,1,.58.51c0,.18-.09.14-.16.69a10.73,10.73,0,0,1-.53,2,6.29,6.29,0,0,1-2,2.87,9,9,0,0,1-2.15,1.38.57.57,0,0,1-.46-.47c0-.16.15-.24.28-.3a9.78,9.78,0,0,0,1.56-1,6.3,6.3,0,0,0,2.25-3.37,5.77,5.77,0,0,0,.23-1.2c0-.42-.42-.38-.53-.38h-5a.44.44,0,0,0-.42.42v1.35c0,.3,0,.66,0,.77,0,.31-.2.33-.45.33s-.38-.05-.38-.33,0-.53,0-.78v-1.5c0-.18,0-.38,0-.56,0-.39.12-.46.59-.46h2.38Z"/><path class="cls-1" d="M31.62,150.26c.59,0,1.17,0,1.76,0,.34,0,.37.11.37.48s0,.45-.31.45c-.61,0-1.22,0-1.82,0H24.75c-.59,0-1.19,0-1.79,0-.32,0-.34-.16-.34-.45s0-.48.38-.48l1.75,0Z"/><path class="cls-1" d="M44.54,146.74c.6,0,1.18,0,1.24,0,.32,0,.68.48.68.57s-.12.19-.23.9a8.89,8.89,0,0,1-4,6.58,14.8,14.8,0,0,1-2.67,1.41,1.34,1.34,0,0,1-.47.14c-.28,0-.49-.41-.49-.57s.12-.21.25-.24a10,10,0,0,0,5.28-3.77,8,8,0,0,0,1.23-3.6,1.06,1.06,0,0,0,0-.25c0-.38-.35-.33-.8-.33H38.84c-.6,0-1.2,0-1.8,0-.32,0-.33-.19-.33-.45s0-.43.33-.43l1.8,0Zm2.64-1.13c.12.12.67.68.67.8a.74.74,0,0,1-.54.51c-.09,0-.15-.09-.21-.17a13.76,13.76,0,0,0-1-1.14.31.31,0,0,1-.12-.18c0-.15.33-.46.48-.46S47.06,145.49,47.18,145.61Zm1.26-1.11c.1.12.66.68.66.8a.73.73,0,0,1-.54.49c-.09,0-.15-.07-.2-.15-.33-.39-.67-.78-1-1.14-.06,0-.14-.12-.14-.19s.35-.45.5-.45S48.32,144.38,48.44,144.5Z"/><path class="cls-1" d="M53.3,146.57c.12,0,.25.05.25.18s0,.12-.11.2a.54.54,0,0,0-.1.39,28.39,28.39,0,0,1-.1,2.92,8,8,0,0,1-2.67,5.39.28.28,0,0,1-.18.09c-.16,0-.75-.24-.75-.45s.18-.23.3-.32c2.18-1.71,2.55-4.15,2.55-6.73a9.72,9.72,0,0,0-.07-1.43s0-.13,0-.18a.15.15,0,0,1,.17-.16A5.83,5.83,0,0,1,53.3,146.57Zm3.45,7.5c0,.11,0,.29.15.29s.31-.15.42-.23a41,41,0,0,0,4.15-3.4c.07-.06.17-.18.26-.18s.45.39.45.57-.22.31-.32.39a54,54,0,0,1-4.54,3.64,1.41,1.41,0,0,0-.18.14.51.51,0,0,1-.35.19,2.19,2.19,0,0,1-.66-.27c-.19-.12-.31-.16-.31-.37s.06-.92.06-1.8v-4.56a14.36,14.36,0,0,0-.06-2,.83.83,0,0,1,0-.22.14.14,0,0,1,.15-.15,5,5,0,0,1,.84.18c.09,0,.18.06.18.18s0,.12-.11.18-.1.42-.1.94Z"/><path class="cls-1" d="M72,146.62c.6,0,1.19,0,1.25,0,.31,0,.67.48.67.57a8.08,8.08,0,0,0-.22.9,8.93,8.93,0,0,1-4,6.58A14.47,14.47,0,0,1,67,156.05a1.23,1.23,0,0,1-.46.14c-.29,0-.5-.41-.5-.57s.12-.21.26-.24a10,10,0,0,0,5.28-3.77,8.09,8.09,0,0,0,1.22-3.6,1.06,1.06,0,0,0,0-.25c0-.38-.35-.33-.79-.33H66.26c-.6,0-1.2,0-1.8,0-.31,0-.33-.19-.33-.45s0-.43.33-.43l1.8,0Z"/><path class="cls-1" d="M85.19,146.9h1.1c.7,0,.85.16.85.73,0,.39,0,.77,0,1.16v5.08c0,.53,0,1,0,1.55,0,.33-.09.4-.54.4s-.41-.16-.41-.57-.22-.45-.64-.45H79.15c-.42,0-.65,0-.65.45s0,.57-.4.57-.54-.07-.54-.4c0-.51,0-1,0-1.55v-5.08c0-.38,0-.75,0-1.14,0-.57.12-.75.84-.75h6.78Zm-6.31.83a.42.42,0,0,0-.42.42v5.4a.42.42,0,0,0,.42.42h7a.41.41,0,0,0,.42-.42v-5.4a.4.4,0,0,0-.42-.42Z"/><path class="cls-1" d="M100.1,148a10.35,10.35,0,0,0,1.26,0h.14c.18,0,.61.48.61.64s-.36.38-.81.83c-1.35,1.35-2.73,2.68-4.2,3.9a.5.5,0,0,0-.24.4.7.7,0,0,0,.21.42,4.65,4.65,0,0,1,.63,1c0,.24-.39.48-.61.48s-.21-.12-.27-.23a12.73,12.73,0,0,0-2.66-3.15c-.1-.07-.24-.18-.24-.33a.59.59,0,0,1,.48-.46c.24,0,1.29,1,1.49,1.24a.43.43,0,0,0,.34.18.65.65,0,0,0,.41-.19,40.92,40.92,0,0,0,3.7-3.51.37.37,0,0,0,.14-.23c0-.16-.23-.15-.36-.15H92.51c-.6,0-1.2.05-1.8.05-.3,0-.31-.17-.31-.45s0-.44.36-.44l1.75,0Z"/><path class="cls-1" d="M113.38,150.26l1.75,0c.35,0,.38.11.38.48s0,.45-.32.45c-.61,0-1.21,0-1.81,0h-6.87l-1.8,0c-.32,0-.33-.16-.33-.45s0-.48.37-.48c.56,0,1.17,0,1.76,0Z"/><path class="cls-1" d="M120.65,150c.59.34,1,.54,1,.72s-.21.58-.48.58a.53.53,0,0,1-.31-.15,24.41,24.41,0,0,0-2.18-1.33c-.1-.06-.22-.12-.22-.24s.21-.57.45-.57A13.17,13.17,0,0,1,120.65,150Zm8-1.64a2.89,2.89,0,0,1-.21.65,11.76,11.76,0,0,1-7.7,7.14.69.69,0,0,0-.46.34c0,.09-.11.2-.23.2s-.22-.17-.34-.41a3.26,3.26,0,0,1-.24-.6c0-.12.16-.15.25-.18a15.49,15.49,0,0,0,1.82-.6,10.19,10.19,0,0,0,3.82-2.5,11.54,11.54,0,0,0,2.48-4.34c0-.13.09-.31.24-.31S128.68,148.13,128.68,148.31Zm-6.48-1.74c.15.11.94.66,1,.75a.24.24,0,0,1,.07.17c0,.16-.24.57-.49.57a.64.64,0,0,1-.33-.18,21.07,21.07,0,0,0-1.94-1.43c-.09-.06-.21-.12-.21-.24s.27-.54.48-.54A8.58,8.58,0,0,1,122.2,146.57Zm3.67-1.29a3.16,3.16,0,0,1,.81.57c.14.11.75.59.75.74s-.3.52-.49.52-.15-.07-.21-.12a12.62,12.62,0,0,0-1.16-1c-.06,0-.15-.12-.15-.19S125.72,145.28,125.87,145.28Zm1.2-1.21c.15,0,.68.45.81.55s.75.6.75.74-.3.54-.49.54-.15-.08-.21-.14a14.33,14.33,0,0,0-1.16-1s-.15-.1-.15-.18S126.92,144.07,127.07,144.07Z"/><path class="cls-1" d="M136.9,149.23l.88,0c.33,0,.71.08.71.48,0,.2-.09.8-.12,1L138,154a.36.36,0,0,0,.38.4h.72c.45,0,.88,0,1.33,0s.36.12.36.42,0,.41-.31.41c-.47,0-.92,0-1.38,0h-6.26l-1.39,0c-.29,0-.32-.18-.32-.42s0-.41.35-.41.9,0,1.36,0h3.93a.41.41,0,0,0,.42-.37l.38-3.3c0-.09,0-.29,0-.36a.37.37,0,0,0-.39-.36h-2.5c-.53,0-1.16,0-1.37,0s-.3-.18-.3-.41,0-.4.32-.4.78,0,1.35,0Z"/><path class="cls-1" d="M147,156c0,.16-.38.66-.62.66s-.21-.11-.28-.2a7.94,7.94,0,0,0-2.25-2c-.11-.06-.23-.14-.23-.27a.87.87,0,0,1,.56-.59A8.32,8.32,0,0,1,147,156Z"/><path class="cls-1" d="M156.85,149.48c.27.17,1.21.72,1.41.86a.28.28,0,0,1,.13.19c0,.21-.22.6-.46.6a.53.53,0,0,1-.33-.15c-.71-.49-1.46-.93-2.21-1.36-.09-.05-.19-.11-.19-.21s.21-.57.45-.57A7.08,7.08,0,0,1,156.85,149.48Zm8.61-1.29a2.89,2.89,0,0,1-.21.65,11.76,11.76,0,0,1-7.7,7.14.69.69,0,0,0-.46.34c-.05.09-.11.2-.23.2s-.22-.17-.34-.41a3.26,3.26,0,0,1-.24-.6c0-.12.16-.15.25-.18a15.49,15.49,0,0,0,1.82-.6,10.19,10.19,0,0,0,3.82-2.5,11.54,11.54,0,0,0,2.48-4.34c0-.13.09-.31.24-.31S165.46,148,165.46,148.19Zm-6.9-2.05c.21.16,1.32.94,1.42,1.05a.2.2,0,0,1,.09.18c0,.16-.24.57-.49.57a.64.64,0,0,1-.33-.18,21.07,21.07,0,0,0-1.94-1.43c-.09-.06-.21-.12-.21-.24s.27-.54.48-.54A3.65,3.65,0,0,1,158.56,146.14Z"/><path class="cls-1" d="M174.13,148.73H175c.87,0,.72.33.72,1.51v4.67c0,.31,0,.61,0,.93s-.18.36-.45.36-.42-.08-.43-.3,0-.21-.42-.21H169c-.28,0-.3-.18-.3-.42s0-.39.3-.39.84,0,1.35,0h4.08a.42.42,0,0,0,.42-.42V153a.42.42,0,0,0-.42-.42h-3.91c-.51,0-1.13,0-1.37,0s-.3-.18-.3-.41,0-.4.3-.4.87,0,1.37,0h3.91a.43.43,0,0,0,.42-.42V149.9a.43.43,0,0,0-.42-.42h-4c-.51,0-1.11,0-1.36,0s-.29-.18-.29-.4,0-.41.3-.41.86,0,1.35,0Z"/><path class="cls-1" d="M187.3,147.16l1.09,0c.68,0,.86.13.86.72,0,.39,0,.79,0,1.18v5c0,.46,0,1.08,0,1.27s-.24.35-.51.35c-.45,0-.46-.06-.49-.35s-.26-.34-.63-.34h-5.4c-.62,0-1.43,0-1.76,0s-.31-.15-.31-.45,0-.44.33-.44,1.09,0,1.74,0h5.71a.41.41,0,0,0,.42-.42v-5.35a.42.42,0,0,0-.42-.42h-5.71c-.62,0-1.55,0-1.74,0s-.33-.12-.33-.45,0-.44.31-.44,1.05,0,1.76,0Z"/><path class="cls-1" d="M201.31,148.81c.33,0,.67,0,1,0h.21c.33,0,.69.48.69.58s-.21.66-.22.74a11.63,11.63,0,0,1-4.65,6,6.65,6.65,0,0,1-1.76.93c-.18,0-.48-.35-.48-.54s.24-.26.36-.32a11,11,0,0,0,5.18-5,5.93,5.93,0,0,0,.45-1.15c0-.21-.05-.32-.77-.32h-6.19l-1.8,0c-.3,0-.33-.16-.33-.43s.06-.45.36-.45l1.77,0Zm-1.43-3.2c.51,0,1.1,0,1.52,0s.36.12.36.45,0,.44-.35.44l-1.53,0H196c-.52,0-1,0-1.54,0-.32,0-.35-.14-.35-.44s0-.45.35-.45,1,0,1.54,0Z"/><path class="cls-1" d="M210.16,154.37c0,.75,0,1.49,0,2.24,0,.45-.05.64-.5.64s-.49-.19-.49-.64c0-.75,0-1.49,0-2.24v-7.2a14.69,14.69,0,0,0-.06-1.89,2.66,2.66,0,0,1,0-.28c0-.11,0-.17.15-.17.27,0,1.07.15,1.07.35s-.05.13-.11.19a6.94,6.94,0,0,0-.1,1.8Zm2.74-4c.23.17,1.19.92,1.19,1.14a.64.64,0,0,1-.5.54.44.44,0,0,1-.3-.15,18.1,18.1,0,0,0-2.37-1.9c-.12-.08-.27-.15-.27-.32s.26-.54.45-.54A9.46,9.46,0,0,1,212.9,150.41Zm1.31-3.79a4.53,4.53,0,0,1,.64.81.74.74,0,0,1-.54.48c-.1,0-.16-.09-.21-.15a14,14,0,0,0-1-1.19c0-.06-.12-.12-.12-.19a.76.76,0,0,1,.51-.44C213.62,145.94,214.1,146.48,214.21,146.62Zm1.41-.89a6,6,0,0,1,.63.81c0,.2-.35.5-.53.5s-.16-.09-.22-.17a13.9,13.9,0,0,0-1-1.17.3.3,0,0,1-.12-.19.74.74,0,0,1,.49-.45C215,145.06,215.5,145.61,215.62,145.73Z"/><path class="cls-1" d="M221.36,149.6a.37.37,0,0,0,.38-.36v-.46a5.45,5.45,0,0,0-.06-1.07s0-.12,0-.16.11-.18.23-.18.88,0,.88.28a.38.38,0,0,1-.13.24c-.12.11-.11.44-.11.87v.48a.36.36,0,0,0,.36.36h1.7c.49,0,.9,0,1,0a.78.78,0,0,1,.58.51c0,.18-.09.14-.16.69a10.73,10.73,0,0,1-.53,2,6.29,6.29,0,0,1-2,2.87,9,9,0,0,1-2.15,1.38.57.57,0,0,1-.46-.47c0-.16.15-.24.28-.3a9.78,9.78,0,0,0,1.56-1,6.3,6.3,0,0,0,2.25-3.37,5.77,5.77,0,0,0,.23-1.2c0-.42-.42-.38-.53-.38h-5a.44.44,0,0,0-.42.42v1.35c0,.3,0,.66,0,.77,0,.31-.2.33-.45.33s-.38-.05-.38-.33,0-.53,0-.78v-1.5c0-.18,0-.38,0-.56,0-.39.12-.46.59-.46h2.38Z"/><path class="cls-1" d="M237.31,150.26l1.75,0c.35,0,.38.11.38.48s0,.45-.32.45c-.61,0-1.21,0-1.81,0h-6.87l-1.8,0c-.32,0-.33-.16-.33-.45s0-.48.37-.48c.56,0,1.17,0,1.76,0Z"/><path class="cls-1" d="M250.22,146.74c.6,0,1.19,0,1.25,0,.31,0,.67.48.67.57a8.08,8.08,0,0,0-.22.9,8.93,8.93,0,0,1-4,6.58,14.47,14.47,0,0,1-2.67,1.41,1.23,1.23,0,0,1-.46.14c-.29,0-.5-.41-.5-.57s.12-.21.26-.24a10,10,0,0,0,5.28-3.77,8.23,8.23,0,0,0,1.23-3.6,2.09,2.09,0,0,0,0-.25c0-.38-.34-.33-.79-.33h-5.72c-.6,0-1.2,0-1.8,0-.31,0-.33-.19-.33-.45s0-.43.33-.43l1.8,0Zm2.64-1.13c.12.12.68.68.68.8a.75.75,0,0,1-.54.51c-.09,0-.15-.09-.21-.17-.32-.39-.68-.78-1-1.14,0,0-.12-.12-.12-.18s.33-.46.48-.46S252.74,145.49,252.86,145.61Zm1.26-1.11c.11.12.66.68.66.8a.73.73,0,0,1-.54.49.23.23,0,0,1-.19-.15c-.33-.39-.68-.78-1-1.14a.28.28,0,0,1-.13-.19c0-.15.34-.45.49-.45S254,144.38,254.12,144.5Z"/><path class="cls-1" d="M259,146.57c.12,0,.26.05.26.18s-.05.12-.12.2a.58.58,0,0,0-.09.39,25.82,25.82,0,0,1-.11,2.92,8,8,0,0,1-2.67,5.39.26.26,0,0,1-.18.09c-.16,0-.75-.24-.75-.45s.18-.23.3-.32c2.18-1.71,2.55-4.15,2.55-6.73a9.72,9.72,0,0,0-.07-1.43s0-.13,0-.18a.15.15,0,0,1,.17-.16A5.58,5.58,0,0,1,259,146.57Zm3.45,7.5c0,.11,0,.29.15.29a.87.87,0,0,0,.42-.23,41.11,41.11,0,0,0,4.16-3.4c.06-.06.16-.18.25-.18s.45.39.45.57-.22.31-.31.39a55.78,55.78,0,0,1-4.55,3.64c-.06,0-.13.09-.18.14a.51.51,0,0,1-.34.19,2.09,2.09,0,0,1-.66-.27c-.2-.12-.32-.16-.32-.37s.06-.92.06-1.8v-4.56a14.36,14.36,0,0,0-.06-2,1.66,1.66,0,0,1,0-.22.14.14,0,0,1,.15-.15,4.83,4.83,0,0,1,.84.18c.09,0,.18.06.18.18s0,.12-.1.18-.11.42-.11.94Z"/><path class="cls-1" d="M272.93,156c0,.16-.37.66-.61.66s-.21-.11-.29-.2a7.68,7.68,0,0,0-2.25-2c-.1-.06-.22-.14-.22-.27a.88.88,0,0,1,.55-.59A8.23,8.23,0,0,1,272.93,156Z"/><path class="cls-1" d="M8.82,169.3c0,.13-.12.19-.21.25s-.13.26-.18.35a22.51,22.51,0,0,1-1.55,3.43.59.59,0,0,0-.13.32c0,.28.32.37,1.37,1.39.06.08.12.12.12.23s-.3.58-.53.58-.27-.15-.36-.25-.82-.93-1.12-.93-.3.13-.42.28a12.5,12.5,0,0,1-3.59,3.12,9.67,9.67,0,0,1-1.68.83c-.25,0-.5-.38-.5-.54s.22-.23.45-.33A11.69,11.69,0,0,0,5,174.59c.09-.12.26-.31.26-.46a.37.37,0,0,0-.17-.32,12.45,12.45,0,0,0-2.2-.87c-.15,0-.3-.09-.3-.27s.15-.55.41-.55a12.51,12.51,0,0,1,2.44.93.53.53,0,0,0,.28.1c.26,0,.35-.18.45-.37a15.35,15.35,0,0,0,1.49-3.69c0-.12,0-.26.12-.26S8.82,169,8.82,169.3Z"/><path class="cls-1" d="M20.9,169.7H22c.7,0,.85.16.85.73,0,.39,0,.77,0,1.16v5.08c0,.53,0,1,0,1.55,0,.33-.09.4-.54.4s-.41-.16-.41-.57-.22-.45-.64-.45H14.86c-.42,0-.65,0-.65.45s0,.57-.4.57-.54-.07-.54-.4c0-.51,0-1,0-1.55v-5.08c0-.38,0-.75,0-1.14,0-.57.12-.75.84-.75H20.9Zm-6.32.83a.41.41,0,0,0-.41.42v5.4a.41.41,0,0,0,.41.42h7a.4.4,0,0,0,.42-.42V171a.4.4,0,0,0-.42-.42Z"/><path class="cls-1" d="M37.45,172c0,.19-.74.9-.92,1.08A29.69,29.69,0,0,1,33,176a23.67,23.67,0,0,1-4.38,2.49c-.37.17-.37.18-.51.47a.2.2,0,0,1-.18.1c-.15,0-.22-.18-.33-.4a3.18,3.18,0,0,1-.28-.6c0-.12.22-.17.37-.21a19.84,19.84,0,0,0,5.9-3.33,25.93,25.93,0,0,0,3.25-3.12c.05-.08.13-.17.22-.17S37.45,171.85,37.45,172Zm-9.29-3.18c.5.34,1,.69,1.47,1s.74.51.74.68-.29.58-.53.58a2.13,2.13,0,0,1-.64-.42c-.53-.4-1.05-.82-1.62-1.18-.09-.06-.2-.12-.2-.24s.26-.56.5-.56A.54.54,0,0,1,28.16,168.79Z"/><path class="cls-1" d="M43,177.17c0,.75,0,1.49,0,2.24,0,.45,0,.64-.5.64s-.49-.19-.49-.64c0-.75,0-1.49,0-2.24V170a16.78,16.78,0,0,0-.05-1.89,1.35,1.35,0,0,1,0-.28c0-.11,0-.17.16-.17.26,0,1.06.15,1.06.35s0,.13-.1.19A6.51,6.51,0,0,0,43,170Zm2.74-4c.23.17,1.19.92,1.19,1.14a.64.64,0,0,1-.5.54.44.44,0,0,1-.3-.15,18.1,18.1,0,0,0-2.37-1.9c-.11-.08-.27-.15-.27-.32s.26-.54.46-.54A9.41,9.41,0,0,1,45.75,173.21Zm1.31-3.79a4.2,4.2,0,0,1,.65.81c0,.16-.35.48-.54.48a.26.26,0,0,1-.21-.15c-.29-.38-.68-.84-1-1.19-.05-.06-.12-.12-.12-.19a.76.76,0,0,1,.51-.44C46.47,168.74,47,169.28,47.06,169.42Zm1.41-.89a6,6,0,0,1,.63.81c0,.2-.35.5-.53.5s-.16-.09-.22-.17a13.9,13.9,0,0,0-1-1.17.3.3,0,0,1-.12-.19.74.74,0,0,1,.49-.45C47.88,167.86,48.35,168.41,48.47,168.53Z"/><path class="cls-1" d="M54.22,172.4a.36.36,0,0,0,.37-.36v-.46a4.77,4.77,0,0,0-.06-1.07s0-.12,0-.16.1-.18.22-.18.89,0,.89.28a.4.4,0,0,1-.14.24c-.12.11-.1.44-.1.87V172a.36.36,0,0,0,.36.36h1.69c.5,0,.9,0,1,0a.8.8,0,0,1,.59.51c0,.18-.09.14-.17.69a10,10,0,0,1-.52,2,6.31,6.31,0,0,1-2,2.87,8.92,8.92,0,0,1-2.14,1.38.59.59,0,0,1-.47-.47c0-.16.15-.24.29-.3a9.78,9.78,0,0,0,1.56-1,6.35,6.35,0,0,0,2.25-3.37,5.74,5.74,0,0,0,.22-1.2c0-.42-.42-.38-.52-.38h-5a.43.43,0,0,0-.42.42v1.35c0,.3,0,.66,0,.77,0,.31-.19.33-.45.33s-.37-.05-.37-.33,0-.53,0-.78v-1.5c0-.18,0-.38,0-.56,0-.39.12-.46.58-.46h2.39Z"/><path class="cls-1" d="M70.16,173.06c.59,0,1.17,0,1.76,0,.34,0,.37.11.37.48s0,.45-.32.45c-.61,0-1.21,0-1.81,0H63.29l-1.8,0c-.31,0-.33-.16-.33-.45s0-.48.38-.48l1.75,0Z"/><path class="cls-1" d="M83.07,169.54c.6,0,1.19,0,1.25,0,.31,0,.67.48.67.57s-.11.19-.22.9a8.93,8.93,0,0,1-4,6.58A14.47,14.47,0,0,1,78.06,179a1.23,1.23,0,0,1-.46.14c-.29,0-.5-.41-.5-.57s.12-.21.26-.24a10,10,0,0,0,5.28-3.77,8.23,8.23,0,0,0,1.23-3.6,2.09,2.09,0,0,0,0-.25c0-.38-.34-.33-.79-.33H77.38c-.61,0-1.21,0-1.8,0-.32,0-.33-.19-.33-.45s0-.43.33-.43c.59,0,1.19,0,1.8,0Zm2.64-1.13c.12.12.68.68.68.8a.75.75,0,0,1-.54.51c-.09,0-.15-.09-.21-.17-.32-.39-.68-.78-1-1.14,0,0-.12-.12-.12-.18s.33-.46.48-.46S85.59,168.29,85.71,168.41ZM87,167.3c.11.12.66.68.66.8a.73.73,0,0,1-.54.49.23.23,0,0,1-.19-.15c-.33-.39-.68-.78-1-1.14a.28.28,0,0,1-.13-.19c0-.15.34-.45.49-.45S86.85,167.18,87,167.3Z"/><path class="cls-1" d="M91.84,169.37c.12,0,.25,0,.25.18s0,.12-.12.2a.58.58,0,0,0-.09.39,28.39,28.39,0,0,1-.1,2.92,8.06,8.06,0,0,1-2.67,5.39.31.31,0,0,1-.18.09c-.17,0-.75-.24-.75-.45s.18-.23.3-.32C90.65,176.06,91,173.62,91,171a8.52,8.52,0,0,0-.08-1.43s0-.13,0-.18a.15.15,0,0,1,.16-.16A6,6,0,0,1,91.84,169.37Zm3.45,7.5c0,.11,0,.29.15.29s.31-.15.42-.23a41,41,0,0,0,4.15-3.4c.06-.06.17-.18.26-.18s.45.39.45.57-.23.31-.32.39A54,54,0,0,1,95.86,178a1.41,1.41,0,0,0-.18.14c-.11.09-.2.19-.35.19a2.19,2.19,0,0,1-.66-.27c-.19-.12-.31-.16-.31-.37s.06-.92.06-1.8v-4.56a14.36,14.36,0,0,0-.06-2,.83.83,0,0,1,0-.22.14.14,0,0,1,.15-.15,5.26,5.26,0,0,1,.84.18c.09,0,.18.06.18.18s0,.12-.11.18-.1.42-.1.94Z"/><path class="cls-1" d="M112.36,170.3a4.82,4.82,0,0,1,1.43,3.53,5.34,5.34,0,0,1-4.3,5.2c-.22,0-.63-.45-.63-.63s.12-.15.21-.16a4.41,4.41,0,0,0,3.84-4.35,4.12,4.12,0,0,0-3.12-4.11,2.85,2.85,0,0,0-.66-.11c-.42,0-.42.38-.43.63-.11,2.25-.66,5.16-2.12,6.95a2.4,2.4,0,0,1-1.74,1,2.15,2.15,0,0,1-1.78-1.27,4.35,4.35,0,0,1-.42-2,6,6,0,0,1,6-6.12A5.09,5.09,0,0,1,112.36,170.3Zm-5.31-.39a5.2,5.2,0,0,0-3.57,5c0,.81.28,2.47,1.33,2.47s1.82-1.65,2.12-2.43a15.84,15.84,0,0,0,.94-4.72s0-.12,0-.17a.29.29,0,0,0-.29-.31A2.45,2.45,0,0,0,107.05,169.91Z"/><path class="cls-1" d="M120.41,173.59s.08.09.21.13a2.33,2.33,0,0,1,1.86,2.36c0,1.54-1.17,3.1-4,3.1a5.76,5.76,0,0,1-2.34-.45c-.19-.09-.27-.18-.27-.3a.63.63,0,0,1,.05-.21L116,178c.08-.18.12-.27.21-.27a.55.55,0,0,1,.24.1,4.51,4.51,0,0,0,2.13.51c2.15,0,3-1.21,3-2.26,0-1.25-.93-2-3-2h-1c-.31,0-.37,0-.37-.36v-.1c0-.32.06-.36.37-.36h.83c2,0,2.71-1,2.71-2s-.82-1.68-2.1-1.68a3.78,3.78,0,0,0-2,.6.55.55,0,0,1-.26.12c-.09,0-.15-.07-.22-.24l-.09-.18a.59.59,0,0,1-.08-.25c0-.12.08-.2.26-.29a5.29,5.29,0,0,1,2.5-.6c2,0,2.94,1.11,2.94,2.42a2.38,2.38,0,0,1-1.39,2.19C120.49,173.5,120.41,173.54,120.41,173.59Z"/><path class="cls-1" d="M125.63,172.82c0-.07,0-.12-.1-.12a.09.09,0,0,0-.09.06,13.56,13.56,0,0,1-.77,1.28.39.39,0,0,1-.3.21c-.16,0-.48-.2-.48-.38s.14-.28.2-.37a22.62,22.62,0,0,0,2.68-6.32c0-.1,0-.28.2-.28a2.46,2.46,0,0,1,.34.09c.39.13.59.19.59.33s-.12.16-.21.21-.24.21-.32.46a24.69,24.69,0,0,1-1,2.7s0,.05,0,.08.07.13.15.15.27,0,.27.16-.09.14-.21.21-.2.41-.2,1.46v5.34c0,.58,0,1.17,0,1.74,0,.34,0,.55-.44.55s-.43-.21-.43-.54c0-.58,0-1.17,0-1.75Zm4.11,6.75a.26.26,0,0,0-.3.29c0,.33,0,.48-.42.48s-.42-.12-.42-.44c0-.49,0-1,0-1.5v-8.47c0-.42,0-.83,0-1.25s.12-.75.69-.75l1,0h4.9l.92,0c.58,0,.75.12.75.72,0,.44,0,.86,0,1.28v8.38c0,.51,0,1,0,1.53,0,.32-.11.41-.42.41s-.39-.17-.42-.39-.11-.29-.3-.29ZM136,169.1a.37.37,0,0,0-.42-.42h-5.78a.37.37,0,0,0-.42.42v9.32c0,.3.14.39.42.42h5.76c.3,0,.44-.12.44-.42Zm-2.33,8.28h-1.92a.31.31,0,0,0-.27.23c-.06.13-.24.13-.37.13-.38,0-.41-.1-.41-.37V174.2c0-.43.11-.64.57-.64H132c.3,0,.4-.12.4-.42v-1c0-.3-.12-.42-.4-.42h-.36c-.42,0-.84,0-1.28,0-.25,0-.27-.18-.27-.41s0-.39.27-.39l1.28,0H132c.28,0,.4-.12.4-.41a5.86,5.86,0,0,0-.06-1.11s0-.1,0-.15.1-.19.24-.19a1.93,1.93,0,0,1,.42,0c.33,0,.61,0,.61.2s-.07.13-.21.22-.21.29-.19,1c0,.28.13.39.42.39h.25l1.28,0c.27,0,.28.18.28.39s0,.41-.28.41-.84,0-1.28,0h-.25c-.3,0-.42.12-.42.42v1c0,.3.12.42.42.42h.55c.51,0,.6.21.6.67,0,.2,0,.39,0,.59v1.78c0,.26,0,.53,0,.78s0,.36-.4.36-.33,0-.39-.15S133.82,177.4,133.7,177.38Zm-.21-.75a.38.38,0,0,0,.42-.4v-1.5a.38.38,0,0,0-.42-.42H132c-.26,0-.39.16-.42.42v1.5a.4.4,0,0,0,.42.4Z"/><path class="cls-1" d="M144.28,175.61c0,1.94-.2,2.16,2,2.16a35.84,35.84,0,0,0,3.59-.22H150c.18,0,.18.15.18.28,0,.48-.09.63-.34.66-.62.08-2.57.09-3.27.09a6,6,0,0,1-2.67-.33c-.47-.33-.48-.82-.48-1.44,0-.39,0-.78,0-1.17v-2.28a.3.3,0,0,0-.3-.3h-.07l-1.29.26c-.23,0-1.89.39-1.94.39-.25,0-.3-.47-.3-.62,0-.33.3-.22,2.09-.57l1.47-.28a.44.44,0,0,0,.34-.42v-1.71c0-.45,0-1.49-.06-1.88a1.81,1.81,0,0,1,0-.19c0-.11.06-.14.15-.14s1.05.06,1.05.3-.06.14-.1.21a.68.68,0,0,0-.14.41c0,.33,0,.94,0,1.29v1.51a.29.29,0,0,0,.37.3l3.89-.75,1.6-.33c.2,0,.69.39.69.59a.57.57,0,0,1-.16.33q-.71.81-1.38,1.62c-.42.49-.84,1-1.28,1.48-.12.14-.24.32-.45.32s-.66-.23-.66-.45a.3.3,0,0,1,.12-.21,18.58,18.58,0,0,0,2.27-2.42.15.15,0,0,0,0-.12.09.09,0,0,0-.1-.1,6.69,6.69,0,0,0-.69.12l-3.86.75a.44.44,0,0,0-.4.49Z"/><path class="cls-1" d="M155.63,173.08a5.14,5.14,0,0,1,.57,1.08c0,.25-.4.39-.54.39s-.19-.11-.25-.21a17.27,17.27,0,0,0-1-1.62.41.41,0,0,1-.11-.26c0-.18.29-.37.47-.37S155.39,172.69,155.63,173.08Zm7-1.07a.26.26,0,0,1-.15.23c-.06,0-.07.06-.1.15a16.22,16.22,0,0,1-.89,2.35,7.91,7.91,0,0,1-3.12,3.53,8.58,8.58,0,0,1-2.44,1c-.23,0-.48-.35-.48-.54s.16-.23.3-.26a7.42,7.42,0,0,0,3.07-1.47,8.2,8.2,0,0,0,2.06-2.71,8.91,8.91,0,0,0,.76-2.48c0-.12,0-.22.18-.22S162.65,171.77,162.65,172Zm-3.82.23a5.21,5.21,0,0,1,.58,1.08c0,.24-.42.39-.54.39s-.22-.15-.3-.27a12.84,12.84,0,0,0-.93-1.56.68.68,0,0,1-.1-.24c0-.2.3-.39.46-.39S158.53,171.74,158.83,172.24Z"/><path class="cls-1" d="M169.42,177.17c0,.75,0,1.49,0,2.24,0,.45,0,.64-.5.64s-.49-.19-.49-.64c0-.75,0-1.49,0-2.24V170a14.69,14.69,0,0,0-.06-1.89,2.66,2.66,0,0,1,0-.28c0-.11.05-.17.15-.17.27,0,1.07.15,1.07.35s0,.13-.11.19a6.94,6.94,0,0,0-.1,1.8Zm2.74-4c.23.17,1.19.92,1.19,1.14a.64.64,0,0,1-.5.54.44.44,0,0,1-.3-.15,18.1,18.1,0,0,0-2.37-1.9c-.12-.08-.27-.15-.27-.32s.26-.54.45-.54A9.46,9.46,0,0,1,172.16,173.21Z"/><path class="cls-1" d="M180.76,177.83a2,2,0,1,1-2-2A2,2,0,0,1,180.76,177.83Zm-3.44,0a1.43,1.43,0,1,0,2.85,0,1.43,1.43,0,0,0-2.85,0Z"/><path class="cls-1" d="M1.64,201.89l-.48-.48L6,196.55l-4.88-4.86.48-.48,4.86,4.88,4.86-4.88.48.48L7,196.55l4.88,4.86-.48.48L6.5,197Zm2-5.34a1.26,1.26,0,1,1-1.25-1.24A1.26,1.26,0,0,1,3.67,196.55Zm4.08-4.08a1.25,1.25,0,1,1-1.25-1.26A1.26,1.26,0,0,1,7.75,192.47Zm0,8.16a1.25,1.25,0,1,1-1.25-1.24A1.25,1.25,0,0,1,7.75,200.63Zm4.09-4.08a1.26,1.26,0,1,1-1.26-1.24A1.26,1.26,0,0,1,11.84,196.55Z"/><path class="cls-1" d="M17.5,195.34c0-.08,0-.15-.11-.15a.14.14,0,0,0-.12.07c-.42.62-.87,1.2-1.35,1.79-.12.15-.3.4-.51.4s-.46-.21-.46-.4.14-.27.22-.36A20,20,0,0,0,19,190.07c0-.12.07-.27.22-.27a1.57,1.57,0,0,1,.35.11c.36.13.55.21.55.34s-.13.18-.21.21c-.24.11-.27.21-.36.45a19.69,19.69,0,0,1-1.17,2.49.28.28,0,0,0,0,.09c0,.08.08.12.13.14s.18.06.18.16-.09.12-.21.21-.19.44-.19,1.5v5.19c0,.62,0,1.23,0,1.85,0,.37,0,.57-.42.57s-.44-.21-.44-.56c0-.63,0-1.24,0-1.86ZM27,191.87a1.86,1.86,0,0,1,.73.66c0,.09-.07.12-.15.12h-.16a.24.24,0,0,0-.17.09,25.81,25.81,0,0,1-4.44,3.48.56.56,0,0,0-.31.61v4.23c0,.69,0,.84.75.84H26c.66,0,1-.18,1.32-2,.06-.36.06-.5.3-.5s.58.06.58.35a8.21,8.21,0,0,1-.54,1.93c-.48,1.13-1.11,1-1.54,1h-3c-.87,0-1.44-.3-1.44-1.28,0-.39,0-.78,0-1.15V192a16.36,16.36,0,0,0-.06-1.86.5.5,0,0,1,0-.17c0-.15.09-.18.23-.18s.69,0,.87.08.22,0,.22.16-.07.14-.21.23-.19.45-.19,1.74v3.1c0,.12,0,.24.19.24a.25.25,0,0,0,.14,0,24.44,24.44,0,0,0,4-3.35S26.93,191.87,27,191.87Z"/><path class="cls-1" d="M33.16,196.93c-.08,0-.1.07-.11.13v3.36c0,.69,0,1.38,0,2.07,0,.35,0,.57-.43.57s-.44-.22-.44-.55c0-.71,0-1.4,0-2.09v-2.85c0-.06,0-.09-.07-.09s-.06,0-.08.05a14.47,14.47,0,0,1-1.54,2.91c-.12.16-.19.3-.35.3s-.45-.23-.45-.39.16-.29.21-.38a18.83,18.83,0,0,0,2.11-4,.74.74,0,0,0,0-.12c0-.2-.14-.24-.3-.26h-.24l-1.23,0c-.26,0-.26-.18-.26-.39s0-.4.26-.4l1.23,0h.29c.28,0,.4-.12.4-.42v-2.52c0-.57,0-1.26,0-1.8,0-.05,0-.11,0-.15s.11-.2.24-.2l.42,0c.46,0,.62.06.62.21s-.08.14-.21.21-.2.45-.2,1.7v2.52c0,.3.12.42.42.42h.25c.41,0,.82,0,1.24,0,.26,0,.26.19.26.42s0,.37-.26.37c-.42,0-.83,0-1.24,0h-.16c-.1,0-.24.06-.24.2a.23.23,0,0,0,0,.15A18.87,18.87,0,0,0,35,198.08a.36.36,0,0,1,.13.23.55.55,0,0,1-.45.42c-.31,0-1.22-1.43-1.42-1.74A.15.15,0,0,0,33.16,196.93Zm-1.79-2.6c-.23,0-.32-.16-.36-.36a15.17,15.17,0,0,0-.64-2,.62.62,0,0,1-.09-.27c0-.19.28-.34.44-.34.31,0,.44.48.73,1.38a9.93,9.93,0,0,1,.34,1.26A.38.38,0,0,1,31.37,194.33Zm3.9-2.59c-.15,0-.21,0-.26.19-.19.56-.47,1.5-.7,2a.35.35,0,0,1-.35.26c-.15,0-.49-.09-.49-.29a.39.39,0,0,1,.06-.18,13.12,13.12,0,0,0,.78-2.23c0-.12.06-.2.18-.2s.93.17.93.29S35.34,191.72,35.27,191.74ZM41,192c.63,0,1.34,0,1.71,0s.29.15.29.44,0,.42-.29.42-1.08,0-1.71,0H37c-.3,0-.42.12-.42.42v2.32a19.19,19.19,0,0,1-.81,5.69,9.75,9.75,0,0,1-.66,1.63.2.2,0,0,1-.2.12c-.19,0-.64-.18-.64-.39s.08-.19.1-.27a15.64,15.64,0,0,0,1.37-6.87v-1.54c0-.41,0-.81,0-1.22,0-.84.4-.69,2.2-.69h.72c.29,0,.42-.12.42-.42a11.21,11.21,0,0,0-.08-1.41c0-.06,0-.1,0-.15s.13-.19.25-.19a3.15,3.15,0,0,1,.44,0c.51,0,.66.06.66.22s-.09.14-.23.23-.19.34-.19,1v.26c0,.28.12.4.42.4Zm-.93,4.13c0,.3.12.42.42.42H41l1.35,0c.27,0,.27.18.27.4s0,.41-.27.41l-1.35,0h-.56c-.3,0-.42.12-.42.4v3.86c0,.3.12.42.42.42h.71l1.65,0c.28,0,.3.15.3.4s0,.41-.29.41c-.55,0-1.11-.05-1.66-.05H38.09c-.56,0-1.11.05-1.68.05-.27,0-.29-.17-.29-.41s0-.4.29-.4c.57,0,1.12,0,1.68,0h.76c.29,0,.41-.12.41-.42v-3.86c0-.28-.12-.4-.41-.4h-.19l-1.35,0c-.27,0-.29-.2-.29-.41s0-.4.29-.4l1.35,0h.19c.29,0,.41-.12.41-.42v-1c0-.52,0-1.06-.06-1.59,0,0,0-.1,0-.15s.12-.18.24-.18l.42,0c.48.05.62.06.62.21s-.08.14-.21.21-.2.39-.2,1.47Z"/><path class="cls-1" d="M48.53,197.63a.1.1,0,0,0-.09.11v2.8c0,.62,0,1.25,0,1.86,0,.32,0,.6-.39.6s-.42-.25-.42-.57c0-.63,0-1.26,0-1.89v-2.77c0-.06,0-.11-.07-.11a.08.08,0,0,0-.08.06c-.25.56-1.7,3.68-2.24,3.68-.16,0-.45-.23-.45-.39a.5.5,0,0,1,.12-.24,22.34,22.34,0,0,0,2.36-4.14.7.7,0,0,0,0-.12c0-.23-.23-.24-.28-.24h-.42c-.5,0-1,0-1.48,0-.25,0-.28-.17-.28-.38s0-.39.28-.39c.5,0,1,0,1.48,0h.63c.28,0,.38-.12.4-.42a7.12,7.12,0,0,0-.06-1c0-.05,0-.11,0-.15s.1-.2.23-.2a4.52,4.52,0,0,1,.63.08c.12,0,.36,0,.36.18s-.09.13-.21.21-.19.28-.19,1c0,.28.15.37.42.37h.47c.49,0,1,0,1.46,0,.27,0,.29.17.29.39s0,.38-.29.38c-.45,0-1,0-1.46,0h-.42c-.12,0-.26,0-.26.21a.33.33,0,0,0,0,.13,14.45,14.45,0,0,0,2,2.55.35.35,0,0,1,.12.23.52.52,0,0,1-.44.43c-.38,0-1.51-1.74-1.71-2.13C48.6,197.66,48.58,197.63,48.53,197.63ZM47.9,192h-.49a.59.59,0,0,0-.62.32c-.25.37-.65.91-.93,1.26a.46.46,0,0,1-.32.18c-.16,0-.49-.18-.49-.36s.12-.23.18-.3a12.78,12.78,0,0,0,2-3.14c0-.07.07-.15.16-.15a2,2,0,0,1,.42.12c.35.14.5.17.5.29s-.18.15-.27.16-.24.29-.39.57a.19.19,0,0,0,0,.12c0,.14.1.18.22.18h2c.43,0,.88,0,1.24,0s.29.14.29.41,0,.4-.29.4-.81,0-1.24,0H49.5c-.15,0-.28.06-.28.24a.24.24,0,0,0,0,.12,4.92,4.92,0,0,1,.33,1c0,.24-.32.33-.46.33s-.28-.38-.66-1.32A.5.5,0,0,0,47.9,192Zm7.45,1.35c0,.21-.28.35-.46.35s-.22-.26-.71-1.31c-.12-.27-.25-.34-.57-.34h-.55a.58.58,0,0,0-.6.33c-.21.33-.53.79-.78,1.11a.43.43,0,0,1-.33.22c-.17,0-.5-.18-.5-.37s.12-.23.24-.38a12.5,12.5,0,0,0,1.7-3c0-.07.06-.13.15-.13a4,4,0,0,1,.7.21c.09,0,.21.07.21.19s-.1.12-.16.14-.2,0-.26.15-.1.22-.22.45a.16.16,0,0,0,0,.1c0,.15.11.2.23.2h2.65l1.71,0c.27,0,.3.13.3.4s0,.41-.3.41l-1.71,0h-.84c-.13,0-.27.06-.27.22a.58.58,0,0,0,0,.14A5,5,0,0,1,55.35,193.31Zm1.1,9.18c0-.21-.11-.28-.3-.28H52.62c-.18,0-.3.07-.3.28v.15c0,.3,0,.41-.4.41s-.42-.09-.42-.38,0-.79,0-1.18v-5.55c0-.33,0-.65,0-1s0-.75.58-.75h4.61c.49,0,.58.22.58.67s0,.69,0,1v5.55c0,.37,0,.76,0,1.14s0,.42-.42.42-.42-.12-.42-.42Zm-.39-5.89a.41.41,0,0,0,.42-.42v-.8a.41.41,0,0,0-.42-.4H52.73a.41.41,0,0,0-.42.4v.8a.43.43,0,0,0,.4.42Zm-3.75,2a.42.42,0,0,0,.42.42h3.33a.43.43,0,0,0,.42-.42v-.85a.43.43,0,0,0-.42-.42H52.73a.42.42,0,0,0-.42.42Zm0,2.48c0,.27.16.42.42.42h3.33a.42.42,0,0,0,.42-.42v-.95a.44.44,0,0,0-.42-.42H52.73a.43.43,0,0,0-.42.42Z"/><path class="cls-1" d="M70.19,193.1a4.83,4.83,0,0,1,1.44,3.53,5.36,5.36,0,0,1-4.31,5.2c-.22,0-.63-.45-.63-.63s.12-.15.21-.16a4.41,4.41,0,0,0,3.84-4.35,4.12,4.12,0,0,0-3.12-4.11,2.85,2.85,0,0,0-.66-.11c-.42,0-.42.38-.43.63-.11,2.25-.66,5.16-2.11,7a2.44,2.44,0,0,1-1.75,1,2.15,2.15,0,0,1-1.78-1.27,4.48,4.48,0,0,1-.42-2,6,6,0,0,1,6-6.12A5.09,5.09,0,0,1,70.19,193.1Zm-5.31-.39a5.2,5.2,0,0,0-3.57,5c0,.81.28,2.47,1.33,2.47s1.82-1.65,2.12-2.43a15.84,15.84,0,0,0,.94-4.72c0-.05,0-.12,0-.17a.29.29,0,0,0-.29-.31A2.45,2.45,0,0,0,64.88,192.71Z"/><path class="cls-1" d="M76,198.44c.39,1.53,1.89,1.88,3.27,1.88a21,21,0,0,0,4.47-.5,2.7,2.7,0,0,1,.28,0c.23,0,.21.25.21.42s0,.48-.19.57a26.51,26.51,0,0,1-4.49.43c-1.5,0-3.12-.22-4-1.54a2.82,2.82,0,0,1-.5-1.23c0-.29.59-.36.63-.36C75.87,198.07,75.89,198.23,76,198.44Zm.94-6.22a9.8,9.8,0,0,0,3,.42,12.74,12.74,0,0,0,2.39-.23l.16,0c.24,0,.26.33.26.51,0,.36,0,.45-.29.48-.69.06-1.59.11-2.28.11a11.85,11.85,0,0,1-3.64-.45.25.25,0,0,1-.18-.29c0-.16.07-.6.28-.6A1,1,0,0,1,76.89,192.22Zm7.49-.11c.1.12.66.68.66.8a.73.73,0,0,1-.54.49c-.09,0-.15-.09-.2-.15a14,14,0,0,0-1-1.14c0-.06-.12-.12-.12-.19a.73.73,0,0,1,.5-.45C83.76,191.47,84.24,192,84.38,192.11Zm1.27-1c.12.12.66.66.66.8a.74.74,0,0,1-.52.49.26.26,0,0,1-.21-.15c-.33-.4-.68-.78-1-1.15,0-.05-.13-.12-.13-.18s.34-.47.49-.47S85.53,191,85.65,191.12Z"/><path class="cls-1" d="M90,198c-.28,0-.42.1-.45.39A8.83,8.83,0,0,1,88,202.75a.44.44,0,0,1-.36.22.62.62,0,0,1-.52-.49c0-.11.12-.21.21-.33,1.35-1.76,1.5-3.77,1.5-5.91v-3.9c0-.41,0-.81,0-1.22,0-.6.2-.73.87-.73h8.88c.59,0,.86.1.86.7,0,.42,0,.83,0,1.25v7.93c0,.36,0,.72,0,1.08a1.47,1.47,0,0,1-.42,1.29,3.29,3.29,0,0,1-2,.38c-.42,0-.63-.06-.63-.66,0-.23.11-.29.32-.29l.84,0c1,0,1-.18,1-1.3v-2.34c0-.3-.12-.42-.42-.42H94.6c-.29,0-.41.12-.41.42v1.72c0,.68,0,1.34,0,2,0,.36,0,.6-.43.6s-.44-.24-.44-.58c0-.68.05-1.35.05-2v-1.72c0-.3-.12-.42-.42-.42Zm3.44-6.42a.43.43,0,0,0-.42-.42H90a.42.42,0,0,0-.42.42v1.81c0,.26.16.41.42.41H93a.4.4,0,0,0,.42-.41Zm-3.36,3c-.29,0-.42.12-.42.42v1.89c0,.28.13.39.4.39h3c.3,0,.42-.12.42-.42V195c0-.3-.12-.42-.42-.42Zm8-.75c.27,0,.39-.15.42-.41v-1.81a.42.42,0,0,0-.42-.42H94.6c-.26,0-.41.16-.41.42v1.81a.37.37,0,0,0,.41.41Zm-3.9,3a.38.38,0,0,0,.41.42h3.49a.41.41,0,0,0,.42-.42V195a.42.42,0,0,0-.42-.42H94.6c-.26,0-.41.16-.41.42Z"/><path class="cls-1" d="M107.86,191.2c.28,0,.4-.11.42-.39s0-.41-.07-.62a.57.57,0,0,1,0-.13c0-.15.09-.2.22-.2l.42,0c.35.05.64,0,.64.21s-.1.14-.21.21-.2.24-.2.51.14.38.41.38H112c.57,0,1.15,0,1.73,0,.26,0,.29.15.29.4s0,.41-.29.41c-.58,0-1.16,0-1.73,0h-.26s-.1,0-.1.07,0,0,0,.08.38.18.38.31-.1.12-.19.14-.19,0-.25.12l-.42.78a.24.24,0,0,0,0,.12c0,.15.1.19.24.21h1.75c.59,0,1.15,0,1.74,0,.28,0,.3.12.3.4s0,.41-.28.41c-.59,0-1.17-.05-1.76-.05h-9c-.59,0-1.16.05-1.74.05-.29,0-.3-.17-.3-.41s0-.4.3-.4c.58,0,1.15,0,1.74,0h5.56a.61.61,0,0,0,.62-.32,10.34,10.34,0,0,0,.6-1.14.65.65,0,0,0,0-.13c0-.18-.13-.23-.29-.24h-5.3c-.59,0-1.16,0-1.73,0-.28,0-.3-.15-.3-.41s0-.4.3-.4c.57,0,1.14,0,1.73,0Zm-3.07,8.94c-.1,0-.16.09-.21.18a11.69,11.69,0,0,1-1.6,2.17.43.43,0,0,1-.34.21c-.15,0-.48-.18-.48-.36s.1-.19.25-.36a9.23,9.23,0,0,0,1.55-2.17c0-.09.07-.2.19-.2a5.87,5.87,0,0,1,.69.21c.08,0,.21.08.21.18S104.86,200.12,104.79,200.14Zm8-2c0,.12,0,.25,0,.37,0,.41-.18.53-.67.53l-1,0h-5l-1,0c-.44,0-.62-.12-.62-.53v-2.7c0-.48.24-.52.91-.52h6.8c.47,0,.59.18.59.51,0,.12,0,.26,0,.38Zm-1.05-1.35a.3.3,0,0,0,.3-.32v-.16a.28.28,0,0,0-.3-.3h-6.2a.28.28,0,0,0-.29.3v.16a.3.3,0,0,0,.29.32Zm-6.2.64a.28.28,0,0,0-.29.3V198a.29.29,0,0,0,.29.31h6.2a.29.29,0,0,0,.3-.31v-.29a.28.28,0,0,0-.3-.3Zm4.66,4.65c.7,0,.85-.06,1.13-1.17.07-.24.09-.34.3-.34s.5.07.5.31a4.17,4.17,0,0,1-.54,1.5,1.23,1.23,0,0,1-1.17.44h-3.48c-.6,0-1.38,0-1.38-.83,0-.16,0-.31,0-.46v-1c0-.21,0-.53-.06-.74,0-.06,0-.12,0-.16s.09-.17.21-.17l.87.08c.07,0,.16,0,.16.13s-.07.12-.14.17-.24.24-.24.69v1.05c0,.49.31.49.83.49Zm-3.65-8.41c-.18,0-.24-.09-.33-.3a6.42,6.42,0,0,0-.31-.72.43.43,0,0,1-.08-.23c0-.19.29-.34.46-.34s.28.16.49.61a2.6,2.6,0,0,1,.24.63C107,193.58,106.69,193.66,106.55,193.66Zm1.74,5.74c.21.21.44.44.63.66s.51.59.51.77-.26.37-.45.37-.24-.12-.33-.24a7.35,7.35,0,0,0-.94-1.08c-.08-.09-.15-.15-.15-.27a.48.48,0,0,1,.44-.39C108.12,199.22,108.2,199.31,108.29,199.4Zm6.13,3.15c-.19,0-.26-.15-.34-.3a14.74,14.74,0,0,0-1.5-2.23.47.47,0,0,1-.12-.27c0-.2.27-.36.45-.36a.41.41,0,0,1,.26.13c.25.3.67.89.89,1.22a5.55,5.55,0,0,1,.82,1.47C114.88,202.43,114.6,202.55,114.42,202.55Z"/><path class="cls-1" d="M120.22,191.54c.1.05.24.11.24.23s-.09.15-.21.21a.54.54,0,0,0-.3.31,7.29,7.29,0,0,0-.42,1.37,17.4,17.4,0,0,0-.45,3.75c0,.37.1,2.74.49,2.74a.17.17,0,0,0,.14-.09c.06-.12.36-.9.43-1.08s.2-.52.35-.52.28.07.28.21a1.29,1.29,0,0,1,0,.19,7.53,7.53,0,0,0-.6,2.78v.13a.32.32,0,0,1-.24.35,1.62,1.62,0,0,1-.41.13c-.19,0-.31-.27-.37-.4a10.7,10.7,0,0,1-.86-4.43,17.14,17.14,0,0,1,.69-4.77c.11-.4.24-.81.35-1.21,0-.09.06-.23.18-.23A5.22,5.22,0,0,1,120.22,191.54Zm6.16-.34a.13.13,0,0,1,.11.13.4.4,0,0,1-.14.24c-.15.18-.13.44-.13,1.1s-.06,1.08.31,1.08a9.79,9.79,0,0,0,1.71-.44,1.68,1.68,0,0,1,.24-.06c.17,0,.23.26.27.47a.72.72,0,0,1,0,.24c0,.16-.09.21-.34.27-.45.1-1.2.22-1.65.28-.27.05-.51.11-.51.44,0,.54.12,3,.15,3.67a.44.44,0,0,0,.31.48c.39.17,2.22,1.11,2.22,1.52s-.31.66-.51.66-.27-.18-.36-.26-1.2-1.06-1.5-1.06c-.13,0-.13.15-.15.25-.07,1.16-.94,1.56-2,1.56s-2.27-.45-2.27-1.65,1.11-1.59,2.12-1.59a8,8,0,0,1,1.08.11c.18,0,.24-.14.24-.29,0-.69-.09-2.25-.12-3,0-.25,0-.67-.32-.67h-.13c-.42,0-1,.06-1.49.06-.24,0-1.53,0-1.68-.05s-.22-.31-.22-.58,0-.32.18-.32l.28,0c.6.06,1.37.11,2,.11,1,0,1.32,0,1.32-.35s-.15-1.93-.23-2.37c0,0,0-.07,0-.12a.16.16,0,0,1,.18-.16A8,8,0,0,1,126.38,191.2Zm-3.4,8.91c0,.66.9.88,1.41.88.81,0,1.24-.33,1.24-1.17a.36.36,0,0,0-.18-.34,3.06,3.06,0,0,0-1.06-.18C123.91,199.3,123,199.48,123,200.11Z"/><path class="cls-1" d="M133,198.44c.39,1.53,1.89,1.88,3.27,1.88a20.9,20.9,0,0,0,4.47-.5,2.89,2.89,0,0,1,.29,0c.22,0,.21.25.21.42s0,.48-.2.57a26.39,26.39,0,0,1-4.48.43c-1.5,0-3.12-.22-4-1.54a2.92,2.92,0,0,1-.49-1.23c0-.29.58-.36.63-.36C132.88,198.07,132.89,198.23,133,198.44Zm1-6.22a9.72,9.72,0,0,0,3,.42,12.71,12.71,0,0,0,2.38-.23l.17,0c.24,0,.25.33.25.51,0,.36,0,.45-.28.48-.69.06-1.59.11-2.28.11a12,12,0,0,1-3.65-.45.25.25,0,0,1-.18-.29c0-.16.08-.6.29-.6A1.22,1.22,0,0,1,133.9,192.22Zm7.48-.11c.11.12.66.68.66.8a.73.73,0,0,1-.54.49c-.09,0-.15-.09-.19-.15-.33-.39-.68-.78-1.05-1.14,0-.06-.12-.12-.12-.19a.74.74,0,0,1,.49-.45C140.77,191.47,141.25,192,141.38,192.11Zm1.28-1c.12.12.66.66.66.8a.73.73,0,0,1-.53.49c-.1,0-.16-.09-.21-.15-.33-.4-.67-.78-1-1.15-.05-.05-.14-.12-.14-.18s.35-.47.5-.47S142.54,191,142.66,191.12Z"/><path class="cls-1" d="M150.37,190.75c.12.24,1,1.86,1,2a.4.4,0,0,0,.36.24,6.82,6.82,0,0,0,2-.93,1.15,1.15,0,0,1,.39-.21c.19,0,.49.45.49.61s-1.93,1.1-2.26,1.22c-.12,0-.24.09-.24.25a2.2,2.2,0,0,0,.25.54,20.91,20.91,0,0,0,2.42,3.68.51.51,0,0,1,.21.39.77.77,0,0,1-.6.61c-.18,0-.48-.24-.63-.34a7.31,7.31,0,0,0-3.66-1.23,1.84,1.84,0,0,0-2,1.75c0,1.86,2.45,2.25,3.87,2.25.36,0,.64,0,.78,0s.21.05.21.2c0,.79-.49.7-.58.7-1.94,0-5.11-.58-5.11-3.07a2.65,2.65,0,0,1,2.9-2.58,6.25,6.25,0,0,1,2.89.81.58.58,0,0,0,.21.07.08.08,0,0,0,.09-.07.64.64,0,0,0-.13-.26c-.55-.81-1.29-2.08-1.77-3a.42.42,0,0,0-.39-.27.59.59,0,0,0-.19,0,20.92,20.92,0,0,1-3.78.6c-.39,0-.51-.68-.51-.74s.18-.16.73-.16a15.66,15.66,0,0,0,3.12-.42c.14,0,.29-.09.29-.26a7.25,7.25,0,0,0-.67-1.24,6.2,6.2,0,0,0-.61-.93.4.4,0,0,1-.14-.24c0-.18.71-.26.8-.26S150.29,190.61,150.37,190.75Zm5.56.72a3,3,0,0,1,.53.72c0,.15-.34.46-.58.46-.09,0-.14-.1-.19-.16a13.9,13.9,0,0,0-1-1.22.29.29,0,0,1-.11-.19c0-.14.35-.44.51-.44S155.83,191.33,155.93,191.47Zm1.07-1.23a7.71,7.71,0,0,1,.85,1.12c0,.18-.35.48-.56.48s-.15-.1-.33-.34a11.71,11.71,0,0,0-.82-1c0-.06-.12-.12-.12-.19s.36-.44.51-.44S156.72,189.92,157,190.24Z"/><path class="cls-1" d="M161.21,193c.11,0,.27.09.27.21s-.09.16-.16.22a.53.53,0,0,0-.2.42,8.54,8.54,0,0,0-.09,1.34,9.88,9.88,0,0,0,.56,3.75c.24.57.91,1.66,1.62,1.66.46,0,1-.76,1.26-1.14.06-.12.18-.37.33-.37s.54.33.54.49-.66,1-.83,1.16a1.79,1.79,0,0,1-1.27.79c-1,0-1.83-1-2.25-1.87a10.7,10.7,0,0,1-.8-4.56c0-.3.05-2,.06-2.21a.16.16,0,0,1,.18-.13A3.88,3.88,0,0,1,161.21,193Zm6.71-.11a4.84,4.84,0,0,1,1.8,1.68,7.8,7.8,0,0,1,1.08,2.94c0,.09,0,.26,0,.35,0,.31-.33.36-.59.36s-.34-.17-.37-.36a5.94,5.94,0,0,0-2.13-4.2c-.12-.09-.24-.17-.24-.29A.55.55,0,0,1,167.92,192.86Z"/><path class="cls-1" d="M179.26,190.7c.18.05.34.06.34.23s-.06.15-.12.25a2.32,2.32,0,0,0-.1.93v.35a.31.31,0,0,0,.3.33l.21,0a16.25,16.25,0,0,0,2.76-.55.74.74,0,0,1,.25-.05c.26,0,.26.45.26.65s-.06.24-.47.33c-.81.16-1.95.34-2.77.42-.29,0-.51.12-.51.43,0,1.58,0,1.79.33,1.79a13.8,13.8,0,0,0,2.26-.42.73.73,0,0,1,.2-.05c.16,0,.15.23.15.35,0,.63-.14.58-.54.66s-1.25.19-1.77.24-.54.15-.54.51,0,1.51.06,1.71c0,.36.21.39.55.48.56.15,2.61,1,2.61,1.39a.81.81,0,0,1-.58.69c-.12,0-.3-.16-.39-.24a7.22,7.22,0,0,0-1.65-1,.87.87,0,0,0-.26-.08c-.22,0-.24.24-.24.3a2.27,2.27,0,0,1-.24.9,2.64,2.64,0,0,1-2.32,1c-1,0-2.21-.45-2.21-1.65,0-1.38,1.68-1.68,2.76-1.68l.78,0,.09,0c.21,0,.26-.15.26-.32s-.06-1.57-.06-1.63c0-.23-.12-.29-.33-.29s-1.05,0-1.64,0a7,7,0,0,1-1.33-.06,1.18,1.18,0,0,1-.2-.64.19.19,0,0,1,.18-.21c.15,0,1.23.09,1.79.09,1.15,0,1.5,0,1.5-.32s0-1.14-.06-1.5c0-.09,0-.42-.33-.42s-2.12.11-3.15.11h-.78c-.27,0-.3-.38-.3-.6s0-.33.24-.33,1.35.09,2.22.09c.25,0,1.59,0,1.74-.06a.36.36,0,0,0,.27-.35,14.32,14.32,0,0,0-.14-1.63,1.52,1.52,0,0,1,0-.21c0-.11.08-.14.17-.14A7.8,7.8,0,0,1,179.26,190.7Zm-3.56,9.92c0,.7.8.85,1.35.85.74,0,1.61-.22,1.7-1.09,0-.11,0-.24,0-.35s-.16-.34-.94-.34S175.7,199.72,175.7,200.62Z"/><path class="cls-1" d="M189.92,192.22c.08,0,.12.07.12.15a.28.28,0,0,1-.1.21c-.19.18-.17.43-.17.79s0,.92,0,1.37a.31.31,0,0,0,.29.31c.06,0,3.13-.48,3.48-.52a.43.43,0,0,0,.36-.47v-.15a9.83,9.83,0,0,0-.24-2.5.27.27,0,0,1,0-.12c0-.09.07-.15.18-.15s1.06.07,1.06.3a.27.27,0,0,1-.06.16,1,1,0,0,0-.13.48c0,.6,0,1.2,0,1.79V194a.28.28,0,0,0,.28.3h.15c.34-.06,2.3-.35,2.51-.35s.21.26.21.41c0,.54-.15.48-.53.51-.69.07-1.38.13-2.06.22a.74.74,0,0,0-.5.17,6.25,6.25,0,0,0-.25,1.68,1.84,1.84,0,0,1-1.35,1.77,3.21,3.21,0,0,1-.9.13c-.38,0-.44-.42-.44-.61A.25.25,0,0,1,192,198h.28a1.15,1.15,0,0,0,1.17-.58,5.89,5.89,0,0,0,.33-1.76.29.29,0,0,0-.28-.3l-.42.06c-1,.14-2,.32-2.91.48-.26,0-.46.12-.46.44,0,.76.07,2.43.16,3.15a1.42,1.42,0,0,0,.91,1.32,5.22,5.22,0,0,0,1.8.24,11.92,11.92,0,0,0,2.73-.32l.16,0c.19,0,.17.24.17.36a1,1,0,0,1-.12.56,15.28,15.28,0,0,1-2.84.24c-2.38,0-3.55-.38-3.68-3,0-.77-.06-1.53-.08-2.3,0-.21,0-.37-.3-.37s-2,.36-2.28.43a1,1,0,0,1-.3,0c-.24,0-.34-.51-.34-.71s.25-.25.63-.3c.7-.07,1.39-.21,2.09-.31.26,0,.46-.08.46-.42a23.53,23.53,0,0,0-.11-2.57.45.45,0,0,1,0-.16A.15.15,0,0,1,189,192,7.94,7.94,0,0,1,189.92,192.22Z"/><path class="cls-1" d="M206.26,191c.1.09.42.31.42.46s-.18.23-.32.24a.66.66,0,0,0-.42.27,17,17,0,0,0-1,1.38,26.84,26.84,0,0,0-1.95,3.18.08.08,0,0,0,.09.09c.09,0,.22-.12.3-.18a5.59,5.59,0,0,1,2.61-1,1.6,1.6,0,0,1,1.36.76,2.18,2.18,0,0,1,.15.83,6.69,6.69,0,0,1-.21,1.48,10.62,10.62,0,0,0-.24,1.68c0,.35.09.81.54.81,1,0,2.54-1.69,3-2.53,0-.08.1-.18.21-.18s.52.69.52.85a.39.39,0,0,1-.16.29c-.33.34-.69.67-1.05,1a4.28,4.28,0,0,1-2.64,1.46c-.92,0-1.28-.8-1.28-1.61a10.09,10.09,0,0,1,.21-1.75,6.89,6.89,0,0,0,.15-1.35c0-.54-.18-1-.81-1-1.15,0-2.92,1.32-3.57,2.25a10.21,10.21,0,0,0-1.15,3c0,.15-.08.3-.26.3s-.81-.21-.81-.41.2-.49.23-.6a39.25,39.25,0,0,1,1.68-3.76,47,47,0,0,1,3.16-5.33,5.13,5.13,0,0,0,.41-.72c0-.09.13-.33.25-.33S206.15,190.94,206.26,191Z"/><path class="cls-1" d="M217.34,200.63a2,2,0,1,1-2-2A2,2,0,0,1,217.34,200.63Zm-3.43,0a1.42,1.42,0,1,0,1.42-1.42A1.43,1.43,0,0,0,213.91,200.63Z"/></g></g></svg>