<svg xmlns="http://www.w3.org/2000/svg" viewBox="0 0 549.76 342.54"><defs><style>.cls-1{fill:#006bac;}.cls-2{fill:#0989a3;}</style></defs><g id="レイヤー_2" data-name="レイヤー 2"><g id="テキスト"><path class="cls-1" d="M123.56,14.13a.19.19,0,0,0-.14,0c-1,.5-4.45,2.21-5.4,2.21s-2.25-1.89-2.25-2.52.63-.72,1.67-1.08a40.06,40.06,0,0,0,9.94-5.18c.14-.09.23-.18.23-.31,0-.32-.27-.41-.5-.41h-10.8c-.85,0-1.26.36-1.26,1.26v9.05c0,6.66-.36,13.27-3.15,19.44-.94,2.16-1.53,3.46-2.25,3.46s-3.33-1.44-3.33-2.34a1.35,1.35,0,0,1,.27-.58,29.27,29.27,0,0,0,3.78-10.71c0-.32-.09-.63-.49-.63a.57.57,0,0,0-.36.13,11.38,11.38,0,0,0-1.17.86c-.32.18-.32.4-.41.9-.09.22-.22.4-.49.4-.54,0-.86-1.08-1-1.62s-1-2.47-1-2.74,1-.72,1.84-1.13,1.8-.94,2.66-1.44a1.76,1.76,0,0,0,1-1.71V9.27c0-1.35,0-2.66,0-4,0-1.7.94-2,2.43-2s2.92.09,4.36.09h6c.81,0,1.17-.31,1.17-1.17a5.57,5.57,0,0,0-.09-1.22c0-.09,0-.26,0-.4,0-.5.41-.54.81-.54.63,0,3.24.23,4,.27.36,0,1.21.09,1.21.63,0,.31-.27.41-.63.68a1,1,0,0,0-.45.85c0,.72.63.9,1.22.9h8.5c1.58,0,3.2-.09,4.82-.09,1,0,1,.36,1,1.89s0,1.84-.95,1.84c-1.62,0-3.24-.09-4.86-.09h-5.76s-.13,0-.13.09a.15.15,0,0,0,.13.14c.32.18.41.31.41.49s-.32.41-.54.45a.15.15,0,0,0-.14.14c0,.09.05.09.09.13a42.79,42.79,0,0,0,12,4.95c.27.09.59.27.59.59,0,.54-1,2.79-2.16,2.79s-5.85-2-7.16-2.66h-.13a.29.29,0,0,0-.32.32c0,.63-.09.94-.76.94-1,0-1.94,0-2.93,0h-5c-1,0-1.94,0-2.93,0-.58,0-.67-.27-.72-.81C123.83,14.26,123.74,14.13,123.56,14.13ZM108.3,17c-.63,0-.72-.45-1-1.71-.41-1.57-1-3.15-1.49-4.68a3.45,3.45,0,0,1-.22-.85c0-.77,1.93-1.49,2.29-1.49.68,0,.86.68,1.85,3.65a24.7,24.7,0,0,1,1,3.6C110.69,16.38,108.62,17,108.3,17Zm11,15.17c.76.22,1.26.36,1.26.85,0,.32-.41.41-.68.45s-.45.41-.54.72a34.3,34.3,0,0,1-1.93,4.55c-.23.45-.54.85-1.08.85s-2.75-.72-2.75-1.53a4.33,4.33,0,0,1,.59-1.12,16.93,16.93,0,0,0,1.89-4.5c.13-.45.22-.9.72-.9A17.45,17.45,0,0,1,119.33,32.13ZM126,25.56h-2.84c-.85,0-1.21.31-1.26,1.17,0,.49.09,1.44.09,1.89,0,1-.4.94-1.93.94s-1.85,0-1.85-.9.09-2,.09-3V20.43c0-.9-.09-1.8-.09-2.61,0-1.17.68-1.35,1.71-1.35s1.89,0,2.84,0h3.15c.94,0,1.89,0,2.83,0s1.67.18,1.67,1.3c0,.72-.05,1.67-.05,2.57v4.27c0,.68.05,1.35.05,2.07,0,2.84-2.16,2.93-4.59,2.93-1.26,0-2.07,0-2.07-1.71,0-.45,0-.81.58-.81.32,0,.63,0,1,0,1.08,0,1.39-.09,1.39-.9C126.66,25.74,126.48,25.56,126,25.56ZM132.38,36c1.71,0,1.93-.4,2.38-2.34.14-.58.27-.9.9-.9.36,0,2.93.23,2.93,1.49a8.3,8.3,0,0,1-1.71,4.23c-1,1.12-2.7,1.17-4.19,1.17h-6.93c-2.52,0-4.5-.18-4.5-3.24,0-.54.09-1.08.09-1.62V33.25c0-.54,0-1.12-.09-1.62a5.77,5.77,0,0,1,0-.81c0-.4.22-.54.58-.54s3.33.18,3.87.27c.36.05.77.09.77.45s-.27.45-.5.59c-.4.27-.49.58-.49,1.66v1.67c0,1.08.58,1.12,2,1.12Zm-6.26-15.79a.59.59,0,0,0,.54-.59v-.27a.55.55,0,0,0-.54-.58h-3.64c-.36,0-.59.22-.59.58v.27a.6.6,0,0,0,.59.59ZM121.89,23a.54.54,0,0,0,.59.58h3.64a.53.53,0,0,0,.54-.58v-.32a.58.58,0,0,0-.54-.58h-3.64a.59.59,0,0,0-.59.58ZM130,10.53a1.54,1.54,0,0,0-.95.36c-.63.45-1.3.85-2,1.26-.13.09-.22.18-.22.31s.22.32.4.32h5.67c.18,0,.41-.09.41-.27a.34.34,0,0,0-.18-.32c-.59-.36-1.67-.94-2.16-1.3A1.92,1.92,0,0,0,130,10.53Zm1.12,24.34c-.36,0-.58-.31-.76-.54a31.33,31.33,0,0,0-2.21-2.65.71.71,0,0,1-.27-.5c0-.49,1.85-1.84,2.39-1.84s1,.58,1.75,1.57c1.08,1.35,1.44,1.8,1.44,2.07C133.41,33.66,131.7,34.87,131.07,34.87Zm1.85-13.59a24.4,24.4,0,0,0-.14-3.24,1.23,1.23,0,0,1,0-.36c0-.36.31-.45.63-.45s2.74.18,3.06.23.81.09.81.49-.23.41-.45.54c-.5.32-.45.59-.45,2.79v1.17c0,.9.09,1.8.09,2.7s-.36.9-1.85.9-1.75.05-1.75-.85c0-.45.09-2.16.09-2.75Zm6.3-1.53a12.2,12.2,0,0,0-.14-2.25v-.31c0-.41.32-.45.68-.45.76,0,2.61.13,3.46.18.36,0,1.08.09,1.08.58,0,.32-.31.45-.58.59-.5.31-.45.72-.45,2.83v2.57c0,.72,0,1.44,0,2.11,0,3.51-2,4.14-5.08,4.14-1.08,0-2.21.18-2.21-2.74,0-.45.09-.9.63-.9h.41a4.84,4.84,0,0,0,.76,0c1.53,0,1.4-.54,1.4-2.25Zm4,19.58c-.4,0-.58-.32-1-1.22a39.44,39.44,0,0,0-2.88-4.68,1.72,1.72,0,0,1-.45-.85c0-.59,2-1.62,2.52-1.62S143,32.49,144,34.11a19.66,19.66,0,0,1,1.93,3.51C145.92,38.29,143.72,39.33,143.22,39.33Z"/><path class="cls-1" d="M176.07,4.41c.32,0,.9.22.9.63s-.27.45-.54.67c-1.57,1.17-2,15.44-2,18,0,3.51-.09,9,4.77,9a11.39,11.39,0,0,0,8.46-4.37,14.24,14.24,0,0,0,2.75-6.66c.13-.72.22-1.48.9-1.48,1,0,3.73,2.29,3.73,3.64s-1.21,4.1-1.84,5.27a15.75,15.75,0,0,1-13.68,8.59,10,10,0,0,1-7.92-3.46c-2-2.7-2.25-7.07-2.25-10.35,0-3.56.13-7.11.4-10.67.14-2.07.54-6.39.54-8.23V4.46c0-.68.05-1.13.68-1.13A38.28,38.28,0,0,1,176.07,4.41Z"/><path class="cls-1" d="M240.74,6.7a12,12,0,0,0,1.93-.09c.27,0,.72-.09,1-.09,1,0,2.88,2.48,2.88,3.06a8.31,8.31,0,0,1-1,1.76c-.27.4-.54.85-.72,1.17A65.57,65.57,0,0,1,239,21.06a1.24,1.24,0,0,0-.36.85A1.2,1.2,0,0,0,239.3,23a72.78,72.78,0,0,1,7.6,5.81c1.08.94,2.21,2,3.24,3.06a.86.86,0,0,1,.32.63c0,.94-2.48,3.6-3.42,3.6a1.52,1.52,0,0,1-1.13-.68A48,48,0,0,0,236,26.5a1.58,1.58,0,0,0-1-.4,2.19,2.19,0,0,0-1.35.76,50,50,0,0,1-11.25,7.88,7.54,7.54,0,0,1-2,.85c-.94,0-3-3-3-3.82,0-.54.54-.77.94-.9,8-3.06,15.53-9.95,20.07-17.06a4.33,4.33,0,0,0,.77-1.53c0-.67-.63-.76-1.31-.76H228.5c-1.94,0-3.87.09-5.81.09-1.21,0-1.12-.68-1.12-2.75,0-1.57,0-2.25,1.08-2.25,1.93,0,3.87.09,5.85.09Z"/><path class="cls-1" d="M291.68,32.17c0,2,.09,4,.09,5.9,0,1.21-.59,1.35-2.25,1.35-2.48,0-2.93-.14-2.93-1.31,0-1.93.09-3.87.09-5.8V20.07c0-.27.14-1.26-.72-1.26-.45,0-1.39.76-1.75,1-1.35,1-8.51,5.76-9.68,5.76-.76,0-3.51-2.74-3.51-3.6,0-.45.41-.63.72-.76A64.88,64.88,0,0,0,289.43,9.31a38.15,38.15,0,0,0,6.12-7.6c.13-.23.4-.67.72-.67a16.64,16.64,0,0,1,3.06,1.84c.49.31,1.75,1.08,1.75,1.62,0,.27-.22.36-.45.45A2.41,2.41,0,0,0,298.88,6a87.67,87.67,0,0,1-6.17,6.75,2.4,2.4,0,0,0-1,2Z"/><path class="cls-1" d="M352.34,17.1c2.07,0,5-.14,5.58-.14,1.21,0,1.26.36,1.26,2.84,0,1.44-.05,2.29-1.22,2.29-1.89,0-3.78-.09-5.62-.09h-20.7c-1.85,0-3.74.09-5.63.09-1.17,0-1.21-.85-1.21-2.25,0-2.52.09-2.88,1.26-2.88.58,0,3.69.14,5.58.14Z"/><path class="cls-1" d="M383.43,9.09c.63.76,1.89,2.79,2.48,3.69.45.72,2.47,3.87,2.47,4.5,0,.94-3,2.29-3.6,2.29s-.76-.54-1-1a57.05,57.05,0,0,0-4.09-6.93,2.1,2.1,0,0,1-.5-.94c0-.77,2.75-2.12,3.42-2.12A1.09,1.09,0,0,1,383.43,9.09Zm28.26-1.31c.54.18,1.71.54,1.71,1,0,.31-.31.49-.49.63a1.86,1.86,0,0,0-.86,1.17c-2.2,7.92-5.26,14.76-11.61,20.2a34.73,34.73,0,0,1-13,6.8,3.57,3.57,0,0,1-1,.22c-.9,0-3-3-3-3.73s1.35-.9,1.89-1c9.94-2.47,16.38-8.28,20.07-17.86a35.48,35.48,0,0,0,2.07-8c0-.32.09-.72.45-.72A31.52,31.52,0,0,1,411.69,7.78ZM394.91,6c.85,1.12,1.62,2.29,2.34,3.46.45.72,2.52,3.92,2.52,4.59,0,.9-3,2.25-3.65,2.25s-.67-.49-1-1.12a58.83,58.83,0,0,0-4-6.84,2.19,2.19,0,0,1-.5-.95c0-.72,2.75-2.07,3.42-2.07C394.41,5.35,394.68,5.71,394.91,6Z"/><path class="cls-1" d="M434.37,27.67c1,0,8.78,6.21,8.78,7.34s-2.25,3.46-3.29,3.46c-.36,0-.67-.4-.9-.67a27.53,27.53,0,0,0-6.84-6.12c-.31-.18-.81-.45-.81-.86C431.31,30.06,433.61,27.67,434.37,27.67Z"/><path class="cls-2" d="M118.11,75.92c.36.14,1.17.46,1.17.9,0,.27-.18.37-.4.45-1,.5-1.31.9-1.85,2.3a41.52,41.52,0,0,0-2.47,13.68c0,.72.13,5,1,5,.31,0,.54-.58,1-1.62.22-.49.67-2,1.21-2s1.94.9,1.94,1.44-2.21,5.58-2.21,8.19c0,.72.09,1.44.09,2.16,0,1.76-3.19,2.3-3.42,2.3-.76,0-1.12-.86-1.44-1.49a32.47,32.47,0,0,1-2.65-13.86,52,52,0,0,1,1.57-12.6c.5-2,1.13-3.91,1.62-5.89,0-.32.18-.77.59-.77a17.21,17.21,0,0,1,2.88,1.17C117.3,75.56,117.84,75.83,118.11,75.92ZM136,74.62c.23,0,.45.13.45.4s-.27.5-.49.9a6.29,6.29,0,0,0-.5,3.2v1.26c0,.63.27,1.17,1,1.17a28.77,28.77,0,0,0,4.5-1.13,4,4,0,0,1,.67-.13c.9,0,1.22,3.1,1.22,3.78,0,.85-.32,1.17-5.63,1.89-1,.13-1.53.31-1.53,1.44,0,.9.32,7.78.36,8.95s.54,1.26,1.53,1.76a25,25,0,0,1,4.86,3.15c.54.45,1.17.94,1.17,1.71,0,1-1.57,3.1-2.61,3.1a2.09,2.09,0,0,1-1.26-.67c-.49-.5-2.74-2.48-3.33-2.48s-.58.36-.67.72c-.81,2.88-3.83,3.78-6.53,3.78-3.6,0-7.51-1.71-7.51-5.85s3.55-5.67,7.06-5.67a11.6,11.6,0,0,1,1.76.14h.31c.63,0,.9-.36.9-1,0-1.12-.22-5.4-.27-6.7,0-.45,0-1.71-1.08-1.71-.36,0-3.55.18-5.35.18h-.59A10.16,10.16,0,0,1,121,86.5c-.4-.27-.45-2.84-.45-3.42s0-1.13.72-1.13,4.55.45,6.89.45h.72c1.08,0,2.11-.09,2.11-1.08s-.36-5.31-.54-6.43c0-.14,0-.32,0-.45a.55.55,0,0,1,.63-.63A43.75,43.75,0,0,1,136,74.62Zm-7,25.24c-1,0-3.24.36-3.24,1.76s2.16,1.93,3.28,1.93c1.71,0,2.84-.63,2.84-2.47C131.93,99.91,129.9,99.86,129.05,99.86Z"/><path class="cls-2" d="M175.44,75c.63.14,1.53.27,1.53.81,0,.18-.09.27-.22.41-.68.49-.81.76-1,1.84a95.46,95.46,0,0,0-1.26,16.38c0,3.51-.09,9,4.77,9a11.39,11.39,0,0,0,8.46-4.37,14.06,14.06,0,0,0,2.79-6.66c.14-.72.18-1.48.86-1.48,1,0,3.73,2.29,3.73,3.64s-1.21,4.1-1.84,5.27a15.75,15.75,0,0,1-13.68,8.59,10,10,0,0,1-7.92-3.46c-2-2.7-2.25-7.07-2.25-10.35,0-3.56.13-7.11.4-10.67.14-2.07.54-6.39.54-8.23v-.49c0-.68.05-1.13.68-1.13A35.08,35.08,0,0,1,175.44,75Zm14.13,7.2c0,.68-1.62,2-2.2,2-.27,0-.5-.32-.63-.5a39.52,39.52,0,0,0-3.15-3.55c-.14-.14-.41-.41-.41-.63,0-.59,1.76-1.85,2.21-1.85S189.57,81.68,189.57,82.22Zm5-3.42c0,.68-1.62,2-2.16,2-.27,0-.5-.27-.63-.5a45.86,45.86,0,0,0-3.2-3.51c-.18-.17-.4-.4-.4-.63,0-.58,1.71-1.84,2.16-1.84S194.57,78.31,194.57,78.8Z"/><path class="cls-2" d="M239.61,74.17c.32.14.77.31.77.77s-.18.49-.32.76a6,6,0,0,0-.76,2.92c0,.09-.05.32-.05.41,0,.9.86,1,1.49,1.17,6.16,1.57,10.35,6,10.35,12.51,0,7.6-5.18,12.24-11.61,15.3a6.73,6.73,0,0,1-2.25.76c-1,0-2.84-2.74-2.84-3.64,0-.54.68-.68,1.4-.9,5.22-1.71,10.57-5.54,10.57-11.61s-5.89-8.24-7.15-8.24c-.63,0-.9.59-1,1.08a33.57,33.57,0,0,1-5.76,13.68c-2.3,3.06-5.94,6.17-10,6.17-4.18,0-5.58-4.37-5.58-7.83a16.29,16.29,0,0,1,4.19-11.12,1.34,1.34,0,0,0,.49-1,3.07,3.07,0,0,0-.27-1.08c-.63-1.89-1.12-3.83-1.75-5.76a2.73,2.73,0,0,1-.14-.68c0-.4.36-.62.72-.72a23.52,23.52,0,0,1,3.56-.9c.72,0,.76.73.85,1.31.18,1.08.54,2.79.81,3.82.14.41.32.72.81.72a1.57,1.57,0,0,0,.77-.22,18.56,18.56,0,0,1,6-2c1.53-.23,1.62-.5,1.62-3.92,0-.67,0-1.35,0-2,0-.44.09-.81.63-.81A27.47,27.47,0,0,1,239.61,74.17ZM226.79,97.39c-.9-1.85-1.76-3.65-2.57-5.54-.09-.22-.31-.63-.63-.63-.72,0-2.11,3.33-2.11,6.21,0,1.17.18,3.29,1.71,3.29,1.3,0,3.78-1.62,3.78-2.66A1.62,1.62,0,0,0,226.79,97.39Zm.49-10.13a36.19,36.19,0,0,0,1.85,4.91c.4.9.58,1.44,1,1.44,1.17,0,3.47-7.43,3.47-8.69a.57.57,0,0,0-.63-.63C231.92,84.29,227.28,85.78,227.28,87.26Z"/><path class="cls-2" d="M290,73c1.17.14,1.8.23,1.8.73,0,.85-.76.08-.85,3.73,0,.63.13,1.3.94,1.3.18,0,1.94-.27,2.25-.31a45.57,45.57,0,0,0,4.91-1,11.31,11.31,0,0,1,1.71-.36c1,0,1.12,2.93,1.12,3.69s-.4,1-1.26,1.17c-2.34.5-5.13.9-7.51,1.17-.95.14-2,.09-2,1.35a14.3,14.3,0,0,0,.23,2.39c.09.27.18.72.72.72a38.79,38.79,0,0,0,5.76-1.08,2.87,2.87,0,0,1,.85-.18c.63,0,.77,1,.77,2.7,0,1.48-.05,1.93-.86,2.11a39.56,39.56,0,0,1-4.63.77c-1.71.18-2.61.18-2.61,1.44,0,4.68.18,4.32,2.11,5,1.49.49,7.43,3,7.43,4.63,0,1-1.49,3.29-2.57,3.29a2.5,2.5,0,0,1-1.39-.72c-.81-.63-3.78-2.75-4.68-2.75-.72,0-.81.68-.9,1-.95,3.87-4.5,5-8.15,5s-7.51-1.67-7.51-5.85c0-4.55,4.9-6,8.64-6,.54,0,1.57.09,1.84.09.77,0,.77-.81.77-1.26,0-1.44.09-3.1-1-3.1-.94,0-3.46.18-5.4.18s-2.7,0-3.06-.77a9.26,9.26,0,0,1-.58-3.15c0-.54.13-.94.76-.94s3.06.22,4.77.22h2c1.66,0,2.29-.13,2.29-1.12,0-1.31,0-3.15-1.21-3.15-1.58,0-5.18.22-7.61.22h-1.35c-1.21,0-2.34,0-2.61-.4a8,8,0,0,1-.49-3.29c0-.63,0-1.26.81-1.26.94,0,4.72.36,6.93.36,4,0,5.08.09,5.08-1.12,0-.72-.27-3.73-.4-4.5a3.64,3.64,0,0,1-.09-.72c0-.45.27-.54.67-.54C287.09,72.64,289.2,73,290,73Zm-10,29.88c0,1.53,2,1.8,3.19,1.8,2.07,0,3.83-.58,3.83-3,0-.86-1.08-.86-2.12-.86C283.49,100.85,280,101,280,102.92Z"/><path class="cls-2" d="M338.07,75.16c.32,0,.9.22.9.63s-.27.45-.54.67c-1.57,1.17-2,15.44-2,18,0,3.51-.09,9,4.77,9a11.39,11.39,0,0,0,8.46-4.37,14.24,14.24,0,0,0,2.75-6.66c.13-.72.22-1.48.9-1.48,1,0,3.73,2.29,3.73,3.64s-1.21,4.1-1.84,5.27a15.75,15.75,0,0,1-13.68,8.59,10,10,0,0,1-7.92-3.46c-2-2.7-2.25-7.07-2.25-10.35,0-3.56.13-7.11.4-10.67.14-2.07.54-6.39.54-8.23v-.49c0-.68.05-1.13.68-1.13A38.28,38.28,0,0,1,338.07,75.16Z"/><path class="cls-2" d="M396.35,72.1c.4.13,1.66.45,1.66.94,0,.23-.27.36-.4.46-.68.4-.72.58-1,1.57-.13.49-1.08,3.78-1.08,4a.67.67,0,0,0,.68.68,31.78,31.78,0,0,0,5.22-1.67,2.48,2.48,0,0,1,.94-.22c.9,0,.9,2.74.9,3.42s-.09,1.39-.85,1.62A68.25,68.25,0,0,1,395,84.65c-1.31.27-1.44.5-1.85,1.76a139.22,139.22,0,0,1-8.37,19.84c-.58,1.08-.94,1.71-1.62,1.71s-3.82-1.44-3.82-2.43a3.33,3.33,0,0,1,.76-1.48c2.84-4,6.21-11.88,8-16.65a7,7,0,0,0,.36-1.17c0-.45-.36-.68-.81-.68-.63,0-2.61.23-4,.23-.9,0-1.62,0-1.89-.81a19.38,19.38,0,0,1-.36-3.29c0-.49.14-.81.68-.81s2.29.18,4.23.18c2.88,0,3.55,0,4-.72.54-.9,1.62-6.88,1.66-8.18.05-.68.05-1.13.5-1.13S395.76,71.92,396.35,72.1Zm-.63,29c2,2.21,5.4,2.61,8.14,2.61a20.16,20.16,0,0,0,6.39-.9,1.89,1.89,0,0,1,.45-.09c.77,0,.77,1,.77,2.84,0,.9,0,1.93-.5,2.25-.81.36-5.89.58-7,.58-3,0-7.11-.36-9.63-2-.72-.5-2.2-1.62-2.2-2.57,0-.67,2.07-3.33,2.79-3.33C395.22,100.49,395.54,100.9,395.72,101.12Zm5.49-14.53a32.09,32.09,0,0,1,9,1.26.84.84,0,0,1,.63.9A11.51,11.51,0,0,1,410,91.9a.78.78,0,0,1-.81.58,2.53,2.53,0,0,1-1-.22,20.07,20.07,0,0,0-7.15-1.13c-.59,0-1.13.05-1.71.05-.9,0-1.13-.23-1.13-1C398.28,86.32,399.09,86.59,401.21,86.59Z"/><path class="cls-2" d="M443.42,103.28A6.26,6.26,0,1,1,437.16,97,6.28,6.28,0,0,1,443.42,103.28Zm-10.26,0a4,4,0,1,0,8,0,4,4,0,0,0-4-4A4,4,0,0,0,433.16,103.28Z"/><path class="cls-2" d="M91.93,164.15c.08-.19.14-.43.35-.43a6,6,0,0,1,1.43.48c.16.06.3.14.43.19.57.22,1,.38,1,.62s-.19.24-.38.27a.59.59,0,0,0-.57.35c-.46.78-.89,1.54-1.4,2.27a.57.57,0,0,0-.08.24c0,.27.21.33.43.35h.32c1,0,2.08-.05,3.11-.05.64,0,.62.27.62,1.13s0,1.11-.6,1.11c-1,0-2.1-.08-3.13-.08H78.08c-.51,0-.73.24-.73.75v4.51a33.61,33.61,0,0,1-1.1,9.1,17.58,17.58,0,0,1-.84,2.54.56.56,0,0,1-.51.29c-.51,0-2-.56-2-1.08a1.54,1.54,0,0,1,.19-.46,19.39,19.39,0,0,0,1-3.32,35.4,35.4,0,0,0,.7-7.69v-3.48c0-.7,0-1.38,0-2.08,0-1,.51-1.24,1.43-1.24.65,0,1.3,0,1.92.05.16,0,.29-.1.29-.29a.59.59,0,0,0-.05-.22c-.51-.75-1-1.51-1.59-2.21a.81.81,0,0,1-.27-.46c0-.41,1.48-1.16,1.91-1.16s.84.62,1.57,1.62a5.85,5.85,0,0,1,1,1.62c0,.35-.81.7-1.1.83,0,0-.09.08-.09.14s.06.13.17.13h8.88a1.09,1.09,0,0,0,1.1-.56A26.33,26.33,0,0,0,91.93,164.15ZM82.65,185c-.06,0-.11,0-.17,0-1.32.32-2.64.56-4,.83a.39.39,0,0,0-.33.27.37.37,0,0,1-.32.3c-.22,0-.3-.24-.49-.76,0-.16-.13-.37-.21-.59a3.73,3.73,0,0,1-.27-.89c0-.27.27-.3.7-.35a2.45,2.45,0,0,0,.43-.06c.54-.08.67-.29.73-.83v-5.72c0-.3-.11-.49-.43-.52a.56.56,0,0,1-.22,0c-.57,0-.54-.27-.54-.92s0-.94.57-.94,1.24,0,1.86,0h.3c.46,0,.64-.19.64-.65v-.08c0-.43-.18-.62-.62-.65s-.89.06-1.26.06c-.57,0-.54-.33-.54-.95s0-.91.54-.91,1.29,0,1.94,0h2.54c.64,0,1.29,0,1.94,0s.54.32.54.91c0,.79,0,.95-.62.95-.33,0-.78-.08-1.51-.06a.57.57,0,0,0-.65.65v.08c0,.46.19.65.65.65h.56c.62,0,1.27,0,1.87,0s.56.24.56.94,0,.92-.54.92l-.35,0c-.43,0-.62.22-.62.62v7.43c0,.83.08,1.67.08,2.51,0,.67-.24.73-1.19.73s-1.16-.06-1.16-.76c0-.54,0-1.11,0-1.67C83.13,185.23,83,185,82.65,185Zm0-7.21a.47.47,0,0,0,.51-.51v-.08a.53.53,0,0,0-.51-.51H81.43a.52.52,0,0,0-.54.51v.08a.49.49,0,0,0,.54.51Zm0,2.67a.49.49,0,0,0,.51-.51v-.11a.5.5,0,0,0-.51-.51H81.43a.49.49,0,0,0-.54.51v.11a.52.52,0,0,0,.54.51ZM81.54,182c-.43,0-.65.19-.65.62v.14c0,.29.14.54.51.54h.11c.43-.06.84-.11,1.24-.19a.45.45,0,0,0,.41-.44c0-.48-.27-.67-.76-.67Zm3.86-13.77a.53.53,0,0,1-.51-.4,27.43,27.43,0,0,0-1.65-2.62,1.14,1.14,0,0,1-.22-.49c0-.43,1.57-1.08,2-1.08s.62.41,1.48,1.79a8,8,0,0,1,.92,1.72C87.37,167.63,85.83,168.22,85.4,168.22Zm5.77,5.32c0,.35.28.43.54.46h2.16c.89,0,1.79-.05,2.7-.05.65,0,.62.27.62,1.18s0,1.19-.62,1.19-1.53,0-2.29,0c-.11,0-.11.08-.11.11a.16.16,0,0,0,.08.13c.89.24,1.38.32,1.38.68,0,.18-.16.26-.35.37s-.33.3-.46.76a16.67,16.67,0,0,1-1.32,3.35,1.08,1.08,0,0,0-.14.51.91.91,0,0,0,.3.59,20.38,20.38,0,0,0,3.48,2.86.42.42,0,0,1,.24.41c0,.54-.94,1.78-1.51,1.78s-3.1-2.32-3.62-2.89a.67.67,0,0,0-.45-.21.59.59,0,0,0-.46.24c-.49.59-2.89,3-3.54,3s-1.65-1.19-1.65-1.56c0-.22.3-.41.46-.52A14.73,14.73,0,0,0,89.77,183a1.12,1.12,0,0,0,.22-.56,1,1,0,0,0-.22-.57,16.7,16.7,0,0,1-1-1.84.37.37,0,0,0-.3-.21.33.33,0,0,0-.3.16c-.27.43-.48.83-.81.83s-1.64-.94-1.64-1.29A1.33,1.33,0,0,1,86,179c.16-.22,1.37-2.3,1.56-2.73a30.37,30.37,0,0,0,1.65-4.67c0-.27.08-.51.35-.51a7.72,7.72,0,0,1,1,.21c1.19.27,1.65.35,1.65.68s-.14.27-.3.32c-.35.14-.35.19-.51.7a3.42,3.42,0,0,1-.11.35A.66.66,0,0,0,91.17,173.54Zm-.08,6.05a.48.48,0,0,0,.36.21.37.37,0,0,0,.32-.27,11.07,11.07,0,0,0,.75-2.59c0-.05,0-.11,0-.16,0-.38-.27-.51-.59-.51H90.82a.93.93,0,0,0-.89.4,1.84,1.84,0,0,0-.05.35,1.62,1.62,0,0,0,.13.6A22.21,22.21,0,0,0,91.09,179.59Z"/><path class="cls-2" d="M112,166.41c.18,0,.53.14.53.38s-.16.27-.32.41c-.94.7-1.19,9.26-1.19,10.79,0,2.11,0,5.38,2.86,5.38a6.86,6.86,0,0,0,5.08-2.62,8.64,8.64,0,0,0,1.65-4c.08-.43.13-.89.54-.89.59,0,2.24,1.38,2.24,2.19a10,10,0,0,1-1.11,3.16,9.46,9.46,0,0,1-8.21,5.15,6,6,0,0,1-4.75-2.08c-1.21-1.62-1.35-4.23-1.35-6.2q0-3.21.25-6.4c.08-1.24.32-3.83.32-4.94v-.3c0-.4,0-.67.4-.67A23.24,23.24,0,0,1,112,166.41Z"/><path class="cls-2" d="M137.37,169.22c.22.06.6.11.6.38s-.11.22-.27.35a2,2,0,0,0-.49,1.3,20.81,20.81,0,0,0-.22,2.86,15.45,15.45,0,0,0,.87,5.64c.32.76,1.21,2.35,2.16,2.35.75,0,1.54-1.19,1.86-1.78.16-.27.38-.68.73-.68.57,0,1.94,1.11,1.94,1.59s-1.21,1.92-1.59,2.35a3.88,3.88,0,0,1-2.89,1.7c-2,0-3.56-1.81-4.45-3.45-1.35-2.54-1.57-5.94-1.57-8.8,0-.43.08-3.86.14-4.1a.33.33,0,0,1,.38-.3C134.92,168.63,136.91,169.14,137.37,169.22Zm11-.54c.59,0,2.86,1.7,4.16,4.19a14.8,14.8,0,0,1,1.59,5.61c0,.51-.27.65-.73.78a5.49,5.49,0,0,1-1.51.25c-.87,0-.84-.38-.89-1a10.35,10.35,0,0,0-4-7.69.45.45,0,0,1-.24-.41C146.74,169.87,147.82,168.68,148.36,168.68Z"/><path class="cls-2" d="M183.36,171.81a.7.7,0,0,1,.41-.24c.24,0,.92.62,1.4,1,.22.16.76.54.76.81s-.27.27-.43.27a1,1,0,0,0-.6.19c-.92.68-1.81,1.32-2.75,1.92a.25.25,0,0,0-.11.19c0,.16.11.18.24.21h.52c1,0,2.1-.08,3.18-.08.65,0,.62.24.62,1.08s0,1.08-.62,1.08c-1,0-2.13-.08-3.18-.08h-4.08a2.12,2.12,0,0,0-1.27.3c-.46.21-.92.46-1.4.7a.19.19,0,0,0-.14.19c0,.13.14.19.25.19h3.56l2.05,0c.76,0,1.11.24,1.11,1.05,0,.54,0,1.08,0,1.62v3.62c0,.54.05,1,.05,1.59s-.32.62-1.48.62c-.86,0-1.13,0-1.27-.29-.19-.46-.27-.63-.65-.63h-7.82c-.27,0-.36.14-.44.41-.08.43-.32.43-1.35.43s-1.37.06-1.37-.59,0-1.06,0-1.6V183c0-.27-.13-.54-.46-.54a.56.56,0,0,0-.21.06,35.93,35.93,0,0,1-4,1.16c-.62,0-1.24-1.54-1.24-1.87s.57-.48.89-.56a78,78,0,0,0,8.16-2.7c.08-.06.13-.11.13-.19s-.13-.16-.22-.19h-5c-1,0-2.13.08-3.19.08-.65,0-.62-.22-.62-1.08s0-1.08.62-1.08c1.06,0,2.14.08,3.19.08h5.1c.46,0,.65-.19.65-.65v-.16c0-.43-.19-.62-.65-.62h-2.51c-1,0-2,.06-3,.06-.65,0-.62-.25-.62-1s0-1,.62-1c1,0,2,.06,3,.06h2.4c.49-.06.65-.22.65-.7v-.27c0-.19-.08-.22-.27-.22h-2c-.73,0-1.43,0-2.16,0s-1.32-.14-1.32-1c0-.46,0-.94,0-1.48V167c0-.56,0-1,0-1.48,0-.89.54-1.05,1.32-1.05s1.43.05,2.16.05h9.45c.7,0,1.4-.05,2.13-.05s1.35.13,1.35,1.05c0,.46,0,.94,0,1.48v2.14c0,.54,0,1,0,1.48,0,.87-.57,1-1.32,1s-1.43,0-2.16,0h-4.73s-.08,0-.08,0,.08.05.33.05c.43,0,.78.06.78.33s-.16.27-.33.37-.18.14-.18.22.13.19.24.19h.83c.9,0,1.81-.06,2.73-.06.7,0,.65.25.65,1.16a.34.34,0,0,0,.32.38.65.65,0,0,0,.22-.08A19.46,19.46,0,0,0,183.36,171.81Zm-13.71-5.58a.43.43,0,0,0-.43.43v.19c0,.27.16.43.43.43H179.8a.42.42,0,0,0,.43-.43v-.19a.45.45,0,0,0-.43-.43Zm-.43,3.1c0,.27.16.43.43.43H179.8a.42.42,0,0,0,.43-.43v-.19a.46.46,0,0,0-.43-.43H169.65a.45.45,0,0,0-.43.43Zm10.93,12.52a.5.5,0,0,0-.51-.51h-7.91a.49.49,0,0,0-.51.51V182a.47.47,0,0,0,.51.52h7.91a.5.5,0,0,0,.51-.52Zm-.51,3.46a.5.5,0,0,0,.51-.51v-.19a.49.49,0,0,0-.51-.51h-7.91a.49.49,0,0,0-.51.51v.19a.49.49,0,0,0,.51.51Zm-4.48-9.83c0,.46.19.65.65.65h.43a2.14,2.14,0,0,0,1.08-.24l1.21-.7c.08-.06.16-.11.16-.22s-.13-.21-.27-.24c-.7,0-1.37,0-2.08,0h-.53c-.46,0-.65.19-.65.62Z"/><path class="cls-2" d="M203.77,165.09c.6,1,1.11,2.08,1.68,3.13a.79.79,0,0,0,.72.52,12.63,12.63,0,0,0,3-1.46,1.55,1.55,0,0,1,.73-.33c.54,0,1.72,1.62,1.72,2.11,0,.3-.46.51-.81.7a20,20,0,0,1-2.48,1.16c-.35.14-.89.25-.89.73a2.1,2.1,0,0,0,.46,1,31.14,31.14,0,0,0,3.91,5.94,1.23,1.23,0,0,1,.43.75c0,.6-1.35,1.78-1.91,1.78-.3,0-.7-.35-1-.56a12.92,12.92,0,0,0-6.4-2.27,2.63,2.63,0,0,0-2.88,2.4c0,2.78,4.13,3.35,6.2,3.35.63,0,1.17-.06,1.52-.06.54,0,.62.38.62.87a5,5,0,0,1-.27,1.64c-.14.36-.35.46-.92.46a20.73,20.73,0,0,1-4.64-.62c-2.81-.7-5.35-2.32-5.35-5.5s2.67-5.16,5.7-5.16a8.56,8.56,0,0,1,3.37.78.88.88,0,0,0,.3.08c.13,0,.3-.08.3-.24a1,1,0,0,0-.17-.4c-.59-.92-1-1.65-1.56-2.62-.24-.43-.43-1-1-1a2.49,2.49,0,0,0-.35.08,37.25,37.25,0,0,1-6.4,1c-.59,0-.72-.22-1-1a5.39,5.39,0,0,1-.32-1.43c0-.43.3-.46.65-.49A29.45,29.45,0,0,0,202,170c.3-.08.65-.16.65-.54a17.93,17.93,0,0,0-2-3.29.91.91,0,0,1-.19-.44c0-.54,2.24-1.1,2.62-1.1S203.61,164.8,203.77,165.09Z"/><path class="cls-2" d="M224,168.6c3.94-.24,7.88-.65,11.79-1.11,2-.24,4.1-.51,6.13-.83a1.38,1.38,0,0,1,.35,0c.4,0,.46.35.51.68a11.93,11.93,0,0,1,.25,2c0,.59-.57.54-1.22.56a13.47,13.47,0,0,0-4.48.57,8.22,8.22,0,0,0-4.59,4,10.15,10.15,0,0,0-1.29,4.75c0,3.13,2,3.89,4.75,3.89.46,0,1,0,1.35,0s.62,0,.62.46a7.45,7.45,0,0,1-.41,2.21c-.19.41-.4.46-.86.46-4.59,0-8.53-1.45-8.53-6.72a12,12,0,0,1,3-7.74c.29-.33.46-.52.46-.65s-.22-.33-.41-.33-1.43.22-1.7.25a60.3,60.3,0,0,0-6,1.1,1.93,1.93,0,0,1-.41.06c-.38,0-.51-.6-.59-.89a12,12,0,0,1-.3-1.95C222.47,168.6,222.85,168.68,224,168.6ZM242,175.19c0,.4-1.08,1.13-1.38,1.13s-.27-.19-.38-.32c-.54-.79-1.13-1.54-1.72-2.27-.08-.08-.25-.24-.25-.38,0-.32,1.08-1,1.38-1A10.34,10.34,0,0,1,242,175.19Zm3.26-1.49c0,.38-1.05,1.14-1.37,1.14s-.3-.22-.41-.35a21.81,21.81,0,0,0-1.75-2.24.7.7,0,0,1-.19-.36c0-.32,1.05-1,1.38-1A11,11,0,0,1,245.22,173.7Z"/><path class="cls-2" d="M254.14,174c-.36,0-.41-.33-.49-.6a26.75,26.75,0,0,0-1.08-3.24,1.53,1.53,0,0,1-.14-.46c0-.4,1.35-.81,1.6-.81s.4.06,1,1.7c.13.44.81,2.27.81,2.57C255.81,173.57,254.43,174,254.14,174Zm1.37,5.12a.32.32,0,0,0-.21.09c-.33.24-.65.48-1,.7-.16.11-.16.16-.21.43s-.11.35-.3.35-.59-.78-.78-1.21c-.08-.17-.14-.36-.22-.52a5.61,5.61,0,0,1-.32-.89c0-.16.19-.27.7-.51.14-.06.27-.14.43-.22.65-.35,1.27-.7,1.89-1.1.46-.33.62-.46.62-1.06v-5.42c0-.84-.05-1.7-.05-2.54,0-1,.51-1.29,1.48-1.29s1.76.05,2.65.05h3.24c.48,0,.73-.19.73-.7a5.26,5.26,0,0,0-.08-.89c0-.06,0-.17,0-.22,0-.3.24-.35.48-.35l.52,0c.32,0,.59,0,.86,0,1.05.05,1.65.14,1.65.43s-.14.25-.33.38a.67.67,0,0,0-.27.57c0,.51.22.7.73.7h4.86c1.11,0,2.24-.05,3.16-.05.65,0,.65.32.65,1.24s0,1.29-.65,1.29c-1,0-2.08-.08-3.16-.08H259.45c-.54,0-.75.24-.75.76v5.72A25.26,25.26,0,0,1,257,184.93a16.59,16.59,0,0,1-1.35,2.62.62.62,0,0,1-.51.35c-.6,0-2.11-.78-2.11-1.38,0-.16.24-.45.33-.59a18.41,18.41,0,0,0,2.45-6.5C255.81,179.24,255.73,179.07,255.51,179.07Zm5.21,7.91c-.19.35-.35.73-.84.73s-1.94-.51-1.94-1.1c0-.19.19-.41.3-.57a17.87,17.87,0,0,0,2-4.67,20.28,20.28,0,0,0,.62-5.37v-.92c0-.84-.05-1.65-.05-2.48,0-1.08.43-1.41,1.45-1.41.84,0,1.68.06,2.51.06h1.06c.51,0,.73-.22.73-.73a5.8,5.8,0,0,0-.09-1v-.27c0-.29.19-.35.44-.35s1.78.14,2.24.19c.21,0,.67,0,.67.35s-.16.27-.35.41a.84.84,0,0,0-.3.67c0,.54.22.76.76.76h1.81c.75,0,1.51-.06,2.26-.06a1.75,1.75,0,0,1,1.36.46,2,2,0,0,1,.62,1,7.35,7.35,0,0,1-1.19,2.19c-.22.32-.73,1.16-1.14,1.16s-2-.75-2-1.24a.48.48,0,0,1,.19-.32c.11-.14.54-.65.54-.81s-.27-.22-.62-.22h-1.89c-.51,0-.73.22-.73.76v1.72c0,.54.22.76.73.76h1.43l1.81,0a1.41,1.41,0,0,1,1.43.76,1.52,1.52,0,0,1,.35.89c0,1-2.4,3.86-3.16,4.59a.65.65,0,0,0-.18.43c0,.22.13.32.29.43a21,21,0,0,0,4.19,1.59c.35.11.81.19.81.62s-.54,2-1.19,2a3.55,3.55,0,0,1-.78-.19,21.54,21.54,0,0,1-5.16-2.32,1.08,1.08,0,0,0-.57-.19,1.12,1.12,0,0,0-.59.22c-.84.54-4.08,2.4-4.94,2.4-.68,0-1.57-1.43-1.57-1.89s.49-.54,1.19-.78a17.26,17.26,0,0,0,3.21-1.46c.17-.11.3-.21.3-.43a.71.71,0,0,0-.19-.46,11.74,11.74,0,0,1-2.24-3.27,1,1,0,0,0-.65-.62c-.37.11-.45.3-.54.65A21.13,21.13,0,0,1,260.72,187Zm5.08-10.28c.54,0,.75-.22.75-.76v-1.72c0-.54-.21-.76-.75-.76h-1.7c-.52,0-.73.22-.73.76v1.72c0,.54.21.76.73.76Zm3.32,4.94a.72.72,0,0,0,.51-.22c.32-.32,1.7-1.81,1.7-2.18s-.27-.27-.65-.27h-3.13c-.22,0-.46.08-.46.35a.36.36,0,0,0,.08.27,12.22,12.22,0,0,0,1.43,1.81A.75.75,0,0,0,269.12,181.64Z"/><path class="cls-2" d="M294,164.8c.14,0,.3.13.3.29a.65.65,0,0,1-.21.41c-.35.29-.33.38-.49,1.48-.05.46-.24,1.78-.24,2.16s.19.38.43.46a2,2,0,0,1,.92,1.24c0,.11-.11.22-.17.3s-.64,1.13-.72,1.32a1.94,1.94,0,0,0-.06.43c0,.14.06.27.22.27s.16-.08.21-.13c.57-.6,1.65-1.57,2.3-2.11a6.38,6.38,0,0,1,3.91-1.91,2.93,2.93,0,0,1,2.32,1.18,4.94,4.94,0,0,1,.49,2.57c0,1.4-.06,2.81-.14,4.18-.05,1.16-.13,2.38-.13,3.51,0,.65,0,1.59.59,1.59s1.89-1.16,2.38-1.7a.78.78,0,0,1,.51-.29c.46,0,1.24,2,1.24,2.45s-1,1.08-1.29,1.3a7,7,0,0,1-3.81,1.56c-2.27,0-2.48-2.61-2.48-4.31,0-2.43.35-4.89.35-7.32,0-.59,0-1.54-.81-1.54a4.08,4.08,0,0,0-2.11,1.08,28.2,28.2,0,0,0-2.94,2.62,9,9,0,0,0-1.51,1.73c-.11.35,0,3.64,0,4.26,0,.16.05,1,.08,1.43.06,1.11.14,2.57.14,2.86s0,.46-2,.46c-.65,0-1.14,0-1.14-.54,0-.24.16-3.24.16-4.45,0-.14-.05-.35-.24-.35s-.38.4-.65.81-1.13,1.94-1.4,2.45c-.08.17-.19.33-.35.33-.46,0-2-1.32-2-1.78a3,3,0,0,1,.54-1c1.46-2.13,2.73-4.34,4-6.58a2.56,2.56,0,0,0,.33-1.27c0-.24,0-.49,0-.7s-.11-.41-.35-.41a1.51,1.51,0,0,0-.49.14,18.69,18.69,0,0,1-3.26,1.1c-.44,0-.65-.4-.79-.75a8.08,8.08,0,0,1-.56-1.84c0-.43.56-.43.89-.48.81-.11,4.24-.7,4.56-1.35a1.74,1.74,0,0,0,.13-.81c0-.73.11-2.35.11-3.54,0-.32,0-.65,0-.83s.13-.38.43-.38S293.71,164.71,294,164.8Z"/><path class="cls-2" d="M326.42,164.58c.25.08,1,.27,1,.57,0,.13-.16.21-.24.27-.41.24-.43.35-.62.94-.08.3-.65,2.27-.65,2.4a.4.4,0,0,0,.4.41,18.64,18.64,0,0,0,3.14-1A1.4,1.4,0,0,1,330,168c.54,0,.54,1.65.54,2.06s-.05.83-.51,1a40.79,40.79,0,0,1-4.43,1.05c-.78.16-.86.3-1.1,1a85.66,85.66,0,0,1-5,11.91c-.36.64-.57,1-1,1s-2.29-.86-2.29-1.45a2,2,0,0,1,.46-.9,53.64,53.64,0,0,0,4.78-10,4.53,4.53,0,0,0,.21-.7c0-.27-.21-.41-.48-.41s-1.57.14-2.41.14c-.54,0-1,0-1.13-.49a11.42,11.42,0,0,1-.22-2c0-.3.08-.49.41-.49s1.37.11,2.54.11c1.72,0,2.13,0,2.37-.43a24.53,24.53,0,0,0,1-4.91c0-.41,0-.68.3-.68S326.07,164.47,326.42,164.58ZM326,182c1.19,1.32,3.24,1.57,4.89,1.57a12.32,12.32,0,0,0,3.83-.54A.88.88,0,0,1,335,183c.46,0,.46.62.46,1.7,0,.54,0,1.16-.29,1.35a25.46,25.46,0,0,1-4.22.35c-1.78,0-4.26-.21-5.77-1.21-.43-.3-1.33-1-1.33-1.54,0-.41,1.25-2,1.68-2C325.75,181.61,325.94,181.85,326,182Zm3.3-8.72a19.08,19.08,0,0,1,5.42.76.5.5,0,0,1,.38.54,6.81,6.81,0,0,1-.51,1.89.47.47,0,0,1-.49.35,1.4,1.4,0,0,1-.56-.14,12.22,12.22,0,0,0-4.3-.67l-1,0c-.54,0-.68-.13-.68-.59C327.58,173.11,328.07,173.27,329.34,173.27Z"/><path class="cls-2" d="M353.06,170.11a.83.83,0,0,0,.81-.7c.05-.54.19-3.43.21-4.07,0-.28,0-.63.36-.63.16,0,2.53.46,2.8.54s.41.11.41.3-.19.35-.3.46c-.32.3-.3.32-.38,1.16-.05.38-.21,2-.21,2.27a.6.6,0,0,0,.64.62l2.6,0c.78,0,2.94-.11,3-.11a2.15,2.15,0,0,1,1.54,1.57c0,.27-.37,3.27-.43,3.78-.27,2.08-.67,5.83-1.51,7.66a3.91,3.91,0,0,1-3.51,2.35,10.5,10.5,0,0,1-1.56.11.86.86,0,0,1-.95-.54,5.79,5.79,0,0,1-.7-1.89.43.43,0,0,1,.48-.48c.27,0,.9.1,1.54.1,1.6,0,2.16-.73,2.57-2.64a49.65,49.65,0,0,0,.81-6.45c0-.73-.38-.68-1.6-.68l-2.72,0c-.68,0-.78.57-.87,1a22.41,22.41,0,0,1-5.29,10.5c-.37.41-2,2.11-2.48,2.11s-2-1.27-2-1.76c0-.21.22-.35.38-.48a18.61,18.61,0,0,0,5.85-8.16,14.16,14.16,0,0,0,.71-2.59.56.56,0,0,0-.57-.56l-3.81,0c-.73,0-2.34.11-2.7.11-.59,0-.67-.43-.67-1.48s.05-1.41.65-1.41l2.7,0Z"/><path class="cls-2" d="M389.55,171.81c.62,0,1.86,0,2.43-.05a2.61,2.61,0,0,1,.48,0,3.2,3.2,0,0,1,1.92,1.78,6.22,6.22,0,0,1-.35,1.1,18.27,18.27,0,0,1-1.57,3.65,22.38,22.38,0,0,1-5.58,6.37c-.76.62-3.67,2.7-4.51,2.7-.62,0-1.86-1.54-1.86-2s.67-.57.94-.7a19.43,19.43,0,0,0,8.29-7.67,6.86,6.86,0,0,0,.73-1.75c0-.65-.73-.6-1.16-.6h-10c-1.14,0-2.27.06-3.43.06-.76,0-.76-.27-.76-1.33,0-1.37,0-1.56.78-1.56,1.14,0,2.3.05,3.46.05ZM387.74,166c1.11,0,2.48-.08,3.19-.08s.73.3.73,1.65c0,.92,0,1.27-.73,1.27-1.08,0-2.14-.06-3.19-.06h-6.61c-1.05,0-2.11.06-3.16.06-.76,0-.76-.33-.76-1.33,0-1.26.06-1.59.73-1.59s2.14.08,3.19.08Z"/><path class="cls-2" d="M419.43,168.84a6.73,6.73,0,0,0,1.32-.08.86.86,0,0,1,.24,0c.52,0,1.6,1.48,1.6,2a.64.64,0,0,1-.17.35,7.61,7.61,0,0,0-.62,1.16,45,45,0,0,1-2.43,4.8,1.74,1.74,0,0,0-.29.76c0,.35.21.51.48.7s1.51,1.05,1.51,1.4-1.21,2.06-1.75,2.06a.65.65,0,0,1-.4-.22c-.54-.49-.6-.49-1.08-.89a.94.94,0,0,0-.6-.3c-.38,0-.67.38-.92.65a22.06,22.06,0,0,1-5.91,4.56,13.49,13.49,0,0,1-3.24,1.38c-.7,0-2-1.73-2-2.11s.92-.54,1.19-.62a16.56,16.56,0,0,0,7.72-4.86,1,1,0,0,0,.41-.67.66.66,0,0,0-.44-.62c-1-.57-1.89-1.05-2.88-1.54-.19-.08-.52-.22-.52-.46s1-2,1.65-2a22.6,22.6,0,0,1,3.32,1.64,1.24,1.24,0,0,0,.67.3c.49,0,.71-.49.92-.89a16.34,16.34,0,0,0,1.41-3.24c0-.54-.68-.54-1.08-.54h-5.19c-.64,0-.83.22-1.18.7a41.29,41.29,0,0,1-3.49,4.16,1.45,1.45,0,0,1-.86.51c-.49,0-2.27-1.13-2.27-1.59,0-.22.27-.38.43-.51a25.07,25.07,0,0,0,7.05-9.7c.08-.21.19-.67.48-.67a9.28,9.28,0,0,1,1.71.73c.45.19,1.4.65,1.4.84s-.14.24-.27.29c-.41.16-.43.22-.86,1-.09.16-.22.4-.38.67a.93.93,0,0,0-.22.54c0,.27.24.38.46.4Zm4.51-1.29c0,.4-1.06,1.08-1.41,1.08-.19,0-.27-.16-.35-.3a25.35,25.35,0,0,0-1.64-2.4.66.66,0,0,1-.19-.38c0-.32,1.1-.94,1.4-.94A10.45,10.45,0,0,1,423.94,167.55Zm2.1-2.81a5.58,5.58,0,0,1,.81,1.32c0,.41-1.08,1.08-1.4,1.08s-.3-.19-.41-.35c-.51-.81-1.05-1.59-1.62-2.35a.55.55,0,0,1-.19-.35c0-.35,1.11-1,1.41-1s1.13,1.16,1.27,1.43A1.3,1.3,0,0,0,426,164.74Z"/><path class="cls-2" d="M439.86,167.12c.21.08.54.19.54.46s-.11.18-.38.35c-.46.24-.57.48-.84,1.16a21.49,21.49,0,0,0-1.51,7.66c0,.52.11,3.78.73,3.78.24,0,.62-.78.73-1.05s.32-.65.56-.65,1,.57,1,.87-1.08,2.7-1.08,3.91c0,.27.08.89.1,1.13a2.25,2.25,0,0,1,.06.41c0,.67-1.54,1.32-2.11,1.32s-.78-.59-1.13-1.32a18.59,18.59,0,0,1-1.65-8.29,32.12,32.12,0,0,1,1.38-8.93,13.4,13.4,0,0,0,.35-1.35c.05-.25.11-.6.41-.6S439.48,167,439.86,167.12ZM443.2,180a4.64,4.64,0,0,0,4.11,1.89,22.56,22.56,0,0,0,5.94-.86,1.69,1.69,0,0,1,.56-.11c.43,0,.49.64.49,2,0,.33,0,.81-.33,1-.75.4-5.31.81-6.39.81-4.38,0-6.19-2.27-6.19-2.7s.95-2.29,1.46-2.29A.47.47,0,0,1,443.2,180Zm1-11.8a16.94,16.94,0,0,0,3.54.41,17.81,17.81,0,0,0,4.1-.54,2.51,2.51,0,0,1,.49-.08c.38,0,.49.32.54.65a14.15,14.15,0,0,1,.11,1.45c0,.57,0,.79-.52.89a30.76,30.76,0,0,1-4.53.38c-.84,0-4.16-.16-4.72-.54-.3-.19-.27-.75-.27-1.05,0-1.3.13-1.7.56-1.7A3.72,3.72,0,0,1,444.17,168.22Z"/><path class="cls-2" d="M467.21,180.37c.62,0,5.26,3.73,5.26,4.4s-1.35,2.08-2,2.08c-.21,0-.4-.24-.54-.41a16.67,16.67,0,0,0-4.1-3.67c-.19-.11-.49-.27-.49-.51A3.69,3.69,0,0,1,467.21,180.37Z"/><path class="cls-2" d="M113,219.91c.54,0,.76-.21.76-.75V218a17,17,0,0,0-.08-2,.92.92,0,0,1,0-.29c0-.33.24-.35.49-.35.48,0,2.16.1,2.67.16.22,0,.46.08.46.32s-.14.25-.35.41-.35.65-.35,1.62v1.37c0,.52.24.73.75.73h1.16c1,0,2,0,2.86,0,.57,0,.57.38.57,1.32s0,1.32-.57,1.32c-.81,0-1.91-.05-2.86-.05h-1.16c-.54,0-.75.22-.75.76v11.22c0,1.41.08,2.78.08,4.19,0,.89-.33.92-1.49.92s-1.48,0-1.48-.89v-.19c0-.52-.22-.68-.73-.73h-6c-.51,0-.72.21-.72.73,0,1-.19,1-1.46,1s-1.49,0-1.49-.86c0-1.43.08-2.84.08-4.24V223.21c0-.54-.24-.76-.75-.76h-1c-1,0-2,.05-2.87.05-.56,0-.56-.37-.56-1.32s0-1.32.56-1.32c.81,0,1.92,0,2.87,0h1c.51,0,.75-.21.75-.75v-1.25a17.7,17.7,0,0,0-.1-2,.83.83,0,0,1,0-.27c0-.32.24-.35.48-.35.57,0,1.84.11,2.43.14.27,0,.71,0,.71.35s-.14.24-.35.4-.36.73-.36,1.62v1.43c.06.52.25.73.76.73Zm-6.83,6.7a.77.77,0,0,0,.76.75H113a.77.77,0,0,0,.76-.75v-3.4a.76.76,0,0,0-.76-.76H106.9a.76.76,0,0,0-.76.76Zm0,7.85c0,.51.25.7.76.76H113c.54-.06.76-.25.76-.76v-3.8c0-.54-.22-.76-.76-.76H106.9c-.51,0-.76.22-.76.76Z"/><path class="cls-2" d="M134.52,220.72c.22.06.59.11.59.38s-.11.22-.27.35c-.38.3-.4.84-.48,1.3a19.36,19.36,0,0,0-.22,2.86,15.44,15.44,0,0,0,.86,5.64c.33.76,1.22,2.35,2.16,2.35.76,0,1.54-1.19,1.87-1.78.16-.27.37-.68.73-.68.56,0,1.94,1.11,1.94,1.59s-1.22,1.92-1.59,2.35a3.9,3.9,0,0,1-2.89,1.7c-2,0-3.56-1.81-4.46-3.45-1.34-2.54-1.56-5.94-1.56-8.8,0-.43.08-3.86.13-4.1a.34.34,0,0,1,.38-.3C132.06,220.13,134.06,220.64,134.52,220.72Zm11-.54c.6,0,2.87,1.7,4.16,4.19a14.62,14.62,0,0,1,1.59,5.61c0,.51-.27.65-.72.78A5.62,5.62,0,0,1,149,231c-.86,0-.83-.38-.89-1a10.34,10.34,0,0,0-4-7.69.45.45,0,0,1-.24-.41C143.89,221.37,145,220.18,145.5,220.18Z"/><path class="cls-2" d="M171.68,217c0,.13-.11.21-.25.29-.37.19-.56.22-.94,1.19-.24.65-.46,1.32-.68,2a1,1,0,0,0-.08.38c0,.46.35.57.73.62.92.11,1.84.19,2.76.22.51,0,.91,0,.91.51a8.2,8.2,0,0,1-.29,1.75c-.11.38-.22.6-.6.6a32.7,32.7,0,0,1-3.67-.41,1,1,0,0,0-.24-.05c-.43,0-.62.3-.73.65s-.46,2-.46,2.24c0,.56.57.59,1,.62.81.08,1.62.11,2.43.11s.81.19.81.46A5.88,5.88,0,0,1,172,230c-.13.41-.29.62-.75.62a25.21,25.21,0,0,1-2.54-.27l-.43-.05c-.73,0-.73.68-.73,1.84,0,2.34,1.24,3.59,3.59,3.59,1.22,0,3.08-.33,3.91-1.27a2.71,2.71,0,0,0,.6-1.92,11.63,11.63,0,0,0-.92-3.91,1.59,1.59,0,0,1-.11-.49c0-.65,2-1,2.3-1s.51.43.73,1a14.89,14.89,0,0,1,.89,4.72c0,4.19-3.86,5.64-7.45,5.64-4.08,0-6.48-2.34-6.48-6.45,0-.67.11-1.7.11-2,0-.59-.46-.75-1.08-.94a9.94,9.94,0,0,1-1.6-.65c-.29-.16-.51-.3-.51-.65,0-.16.27-2.29.95-2.29a1.46,1.46,0,0,1,.67.27,4.9,4.9,0,0,0,1.73.75c.46,0,.54-.38.7-1.16,0-.29.16-.65.24-1a5,5,0,0,0,.11-.59c0-.6-.48-.76-.86-.9-1.89-.72-2.43-1-2.43-1.45s.43-2.32,1-2.32a1.46,1.46,0,0,1,.62.29,16.72,16.72,0,0,0,1.83.95.93.93,0,0,0,.35.08c.44,0,.54-.35.62-.65.25-.92.84-2.83,1.06-3.62.08-.29.13-.54.4-.54a9.1,9.1,0,0,1,1.35.44C170.3,216.19,171.68,216.56,171.68,217Z"/><path class="cls-2" d="M207.12,221a9.13,9.13,0,0,1,2.72,6.63,9.69,9.69,0,0,1-5.26,8.72,10.38,10.38,0,0,1-2.94,1.08c-.71,0-1.81-1.67-1.81-2.26,0-.27.4-.33.67-.38,3.54-.84,6.32-3.16,6.32-7a6.54,6.54,0,0,0-4.32-6.45,4.66,4.66,0,0,0-1-.24c-.62,0-.62.59-.64,1-.3,3.94-1.25,8.74-3.84,11.85a4.82,4.82,0,0,1-3.56,2.08,4.35,4.35,0,0,1-3.67-2.57,8.48,8.48,0,0,1-.84-3.83,11.12,11.12,0,0,1,11.2-11.34A9.62,9.62,0,0,1,207.12,221Zm-10.5.78a8.34,8.34,0,0,0-4.86,7.77c0,1,.35,3.51,1.72,3.51s2.87-3.08,3.62-5.83a27.63,27.63,0,0,0,.87-5.26.43.43,0,0,0-.44-.49A3,3,0,0,0,196.62,221.75Z"/><path class="cls-2" d="M224.62,218.37c.22.08.71.27.71.54s-.11.22-.25.27c-.62.3-.78.54-1.1,1.38a24.89,24.89,0,0,0-1.49,8.21c0,.43.08,3,.59,3,.19,0,.33-.35.6-1,.13-.3.4-1.19.73-1.19s1.16.54,1.16.87-1.32,3.34-1.32,4.91c0,.43.05.86.05,1.3,0,1-1.92,1.37-2.05,1.37-.46,0-.68-.51-.87-.89a19.49,19.49,0,0,1-1.59-8.31,31.07,31.07,0,0,1,1-7.56c.29-1.19.67-2.35,1-3.54,0-.19.11-.46.35-.46a10.19,10.19,0,0,1,1.73.71C224.14,218.16,224.46,218.32,224.62,218.37Zm10.75-.78c.13,0,.27.08.27.24s-.17.3-.3.54a3.78,3.78,0,0,0-.3,1.92v.76c0,.37.16.7.57.7a17.5,17.5,0,0,0,2.7-.68,3.14,3.14,0,0,1,.4-.08c.54,0,.73,1.86.73,2.27s-.19.7-3.37,1.13c-.6.08-.92.19-.92.87s.19,4.67.22,5.37.32.75.91,1.05a14.9,14.9,0,0,1,2.92,1.89c.32.27.7.57.7,1,0,.62-.94,1.86-1.56,1.86a1.25,1.25,0,0,1-.76-.41,7.89,7.89,0,0,0-2-1.48c-.27,0-.35.22-.4.43-.49,1.73-2.3,2.27-3.92,2.27-2.16,0-4.5-1-4.5-3.51s2.13-3.4,4.23-3.4a7.56,7.56,0,0,1,1.06.08h.19a.5.5,0,0,0,.54-.57c0-.67-.14-3.24-.17-4,0-.27,0-1-.65-1-.21,0-2.13.11-3.21.11h-.35a6,6,0,0,1-2.05-.21c-.24-.16-.27-1.7-.27-2.05s0-.68.43-.68,2.73.27,4.13.27h.43c.65,0,1.27,0,1.27-.65s-.21-3.18-.32-3.86c0-.08,0-.19,0-.27a.33.33,0,0,1,.38-.38A26.69,26.69,0,0,1,235.37,217.59Zm-4.19,15.14c-.62,0-1.94.22-1.94,1.06s1.29,1.16,2,1.16c1,0,1.7-.38,1.7-1.49C232.91,232.76,231.7,232.73,231.18,232.73Z"/><path class="cls-2" d="M253,220.72c.22.06.6.11.6.38s-.11.22-.27.35a2,2,0,0,0-.49,1.3,20.82,20.82,0,0,0-.21,2.86,15.44,15.44,0,0,0,.86,5.64c.32.76,1.21,2.35,2.16,2.35.76,0,1.54-1.19,1.86-1.78.16-.27.38-.68.73-.68.57,0,1.94,1.11,1.94,1.59s-1.21,1.92-1.59,2.35a3.88,3.88,0,0,1-2.89,1.7c-2,0-3.56-1.81-4.45-3.45-1.35-2.54-1.57-5.94-1.57-8.8,0-.43.09-3.86.14-4.1a.34.34,0,0,1,.38-.3C250.56,220.13,252.56,220.64,253,220.72Zm11-.54c.59,0,2.86,1.7,4.16,4.19a14.8,14.8,0,0,1,1.59,5.61c0,.51-.27.65-.73.78a5.49,5.49,0,0,1-1.51.25c-.86,0-.84-.38-.89-1a10.35,10.35,0,0,0-4-7.69.45.45,0,0,1-.24-.41C262.38,221.37,263.46,220.18,264,220.18Z"/><path class="cls-2" d="M288.3,217.29c.21.06.67.14.67.44a.38.38,0,0,1-.21.32c-.51.38-.57.81-.73,1.75-.06.33-.11.71-.19,1.17a1,1,0,0,0,0,.29.55.55,0,0,0,.59.57c.11,0,.22,0,.32,0a5.3,5.3,0,0,1,3.08.62c1.35.87,1.65,2.43,1.65,3.92,0,2.48-.43,6.12-1.62,8.28a5.53,5.53,0,0,1-5.1,2.92,1.15,1.15,0,0,1-1.25-.65A6,6,0,0,1,285,235c0-.27.08-.45.35-.45s.72.08,1.26.08a2.59,2.59,0,0,0,2.81-1.65,16.32,16.32,0,0,0,1.19-6.1c0-1.35-.08-2.46-1.7-2.46s-1.81.22-2,1a31.81,31.81,0,0,1-3.43,8,30.89,30.89,0,0,1-2.7,3.89.73.73,0,0,1-.48.27c-.46,0-2.19-1-2.19-1.65a1,1,0,0,1,.38-.62,22.05,22.05,0,0,0,4.8-7.53,14.13,14.13,0,0,0,.68-2,.33.33,0,0,0-.35-.36,21.93,21.93,0,0,0-3.08.95,2.36,2.36,0,0,1-.56.16c-.68,0-1.14-2.64-1.14-2.78,0-.4.46-.4.81-.43a42.57,42.57,0,0,0,4.48-.84c.54-.11.81-.24.89-.81a25.12,25.12,0,0,0,.27-3.48c0-.3,0-.59,0-.92s0-.54.29-.54S287.89,217.19,288.3,217.29ZM300,226c0,.59-1.7,1.59-2.24,1.59-.35,0-.49-.35-.62-.62a18.81,18.81,0,0,0-3.62-5.78.65.65,0,0,1-.24-.45c0-.49,1.56-1.43,2.05-1.43C296.37,219.35,300,225.36,300,226Z"/><path class="cls-2" d="M318.59,217.51c.21.05.7.14.7.43s-.11.25-.24.35c-.52.38-.57.81-.71,1.78,0,.3-.1.68-.18,1.11a1.28,1.28,0,0,0-.06.33c0,.37.27.53.6.53H319a5.36,5.36,0,0,1,3.05.6,4.39,4.39,0,0,1,1.67,3.94c0,2.46-.43,6.1-1.62,8.26a5.51,5.51,0,0,1-5.1,2.91c-.59,0-1-.05-1.24-.62a5.44,5.44,0,0,1-.49-1.94c0-.24.09-.46.38-.46s.68.11,1.22.11a2.58,2.58,0,0,0,2.83-1.67,16.15,16.15,0,0,0,1.22-6.1c0-1.33-.09-2.46-1.73-2.46s-1.81.21-2,1a30.32,30.32,0,0,1-3.46,8.07,23.34,23.34,0,0,1-2.67,3.83.62.62,0,0,1-.46.27c-.48,0-2.21-1-2.21-1.64a1,1,0,0,1,.38-.62,21.57,21.57,0,0,0,4.83-7.51,9.77,9.77,0,0,0,.67-2,.33.33,0,0,0-.35-.35,22.57,22.57,0,0,0-3.1.95,2.11,2.11,0,0,1-.57.18c-.65,0-1.1-2.64-1.1-2.8,0-.41.45-.41.78-.43,1.51-.17,3-.54,4.51-.81.54-.11.78-.27.86-.84a25.27,25.27,0,0,0,.3-3.48c0-.44-.06-1-.06-1.06s.08-.4.33-.4S318.18,217.4,318.59,217.51Zm11.23,8.93c0,.63-1.7,1.62-2.24,1.62-.36,0-.52-.35-.62-.62a20,20,0,0,0-3.62-5.77.88.88,0,0,1-.25-.46c0-.49,1.49-1.38,1.92-1.38C326,219.83,329.82,225.77,329.82,226.44Zm-.41-6.91c0,.44-.94,1.25-1.29,1.25-.14,0-.27-.19-.38-.3a23.65,23.65,0,0,0-1.92-2.08c-.11-.11-.24-.24-.24-.38,0-.32,1-1.13,1.29-1.13A10.82,10.82,0,0,1,329.41,219.53Zm2.57-1.91c0,.43-1,1.24-1.3,1.24-.16,0-.24-.13-.38-.3-.62-.73-1.24-1.4-1.91-2.08-.11-.08-.27-.24-.27-.37,0-.33,1-1.14,1.29-1.14A10.79,10.79,0,0,1,332,217.62Z"/><path class="cls-2" d="M340.81,220.1c3.94-.24,7.88-.65,11.8-1.11,2.05-.24,4.1-.51,6.12-.83a1.42,1.42,0,0,1,.35,0c.41,0,.46.35.52.68a11.91,11.91,0,0,1,.24,2c0,.59-.57.54-1.21.56a13.4,13.4,0,0,0-4.48.57,8.22,8.22,0,0,0-4.59,4,10,10,0,0,0-1.3,4.75c0,3.13,2,3.89,4.75,3.89.46,0,1.05,0,1.35,0s.62,0,.62.46a7.78,7.78,0,0,1-.4,2.21c-.19.41-.41.46-.87.46-4.59,0-8.53-1.45-8.53-6.72a12,12,0,0,1,3-7.74c.3-.33.46-.52.46-.65s-.21-.33-.4-.33-1.43.22-1.7.25c-1.81.27-4.24.64-6,1.1a1.84,1.84,0,0,1-.4.06c-.38,0-.52-.6-.6-.89a11.93,11.93,0,0,1-.29-1.95C339.25,220.1,339.62,220.18,340.81,220.1Zm17.92,6.59c0,.4-1.08,1.13-1.37,1.13s-.27-.19-.38-.32c-.54-.79-1.13-1.54-1.73-2.27-.08-.08-.24-.24-.24-.38,0-.32,1.08-1,1.38-1A10.49,10.49,0,0,1,358.73,226.69ZM362,225.2c0,.38-1.05,1.14-1.38,1.14s-.29-.22-.4-.35a21.91,21.91,0,0,0-1.76-2.24.69.69,0,0,1-.18-.36c0-.32,1.05-1,1.37-1A11,11,0,0,1,362,225.2Z"/><path class="cls-2" d="M381.83,216c.64.05,1.45.13,1.45.38a.41.41,0,0,1-.16.29c-.19.14-.4.35-.43,1.14,0,.56,0,1.16,0,1.72a.72.72,0,0,0,.79.79c.21,0,1.26-.08,1.56-.08,1.32-.06,4.21-.22,5.37-.22.44,0,.62.16.62,1.38,0,1.64-.32,1.62-.59,1.62s-2.4-.14-3.91-.14c-.49,0-3,0-3.3.11a.87.87,0,0,0-.51.89v.94a2.32,2.32,0,0,0,.27,1.41,8.39,8.39,0,0,1,.84,3.78c0,4.34-2.89,9.18-4.08,9.18-.32,0-2.51-.68-2.51-1.17,0-.21.46-.59.62-.75a8.7,8.7,0,0,0,1.95-2.62,1,1,0,0,0,.13-.4.2.2,0,0,0-.19-.19.86.86,0,0,0-.22,0,2.23,2.23,0,0,1-.62.14c-2.34,0-3.21-2.54-3.21-4.51,0-2.48,1.08-4.86,3.81-5.1.13,0,.32-.11.32-.32,0-1-.19-1.14-.48-1.14s-1.46.14-1.78.16c-1.41.14-4.89.52-6.19.79a2.73,2.73,0,0,1-.4.05c-.43,0-.46-.38-.54-.73a16,16,0,0,1-.22-1.94c0-.54.25-.49,1.57-.54.73,0,7.07-.38,7.31-.43a.8.8,0,0,0,.6-.84,23.29,23.29,0,0,0-.27-3.35.51.51,0,0,1,0-.21.31.31,0,0,1,.35-.33C380.34,215.78,381.18,215.94,381.83,216Zm-3.57,13.52c0,.81.19,2.3,1.27,2.3s1.41-1.38,1.41-2.22-.25-2.37-1.35-2.37S378.26,228.71,378.26,229.52Z"/><path class="cls-2" d="M410.35,217.29c.22.06.68.14.68.44s-.11.24-.22.32c-.51.38-.57.81-.73,1.75-.05.33-.11.71-.19,1.17a1.47,1.47,0,0,0-.05.29.55.55,0,0,0,.59.57l.33,0a5.28,5.28,0,0,1,3.07.62c1.35.87,1.65,2.43,1.65,3.92,0,2.48-.43,6.12-1.62,8.28a5.52,5.52,0,0,1-5.1,2.92,1.14,1.14,0,0,1-1.24-.65,5.74,5.74,0,0,1-.46-1.92c0-.27.08-.45.35-.45s.73.08,1.27.08a2.6,2.6,0,0,0,2.81-1.65,16.31,16.31,0,0,0,1.18-6.1c0-1.35-.08-2.46-1.7-2.46s-1.8.22-2,1a33.28,33.28,0,0,1-6.13,11.91.78.78,0,0,1-.49.27c-.46,0-2.18-1-2.18-1.65a1,1,0,0,1,.37-.62,22.08,22.08,0,0,0,4.81-7.53,15.37,15.37,0,0,0,.67-2,.33.33,0,0,0-.35-.36,21.42,21.42,0,0,0-3.07.95,2.58,2.58,0,0,1-.57.16c-.68,0-1.13-2.64-1.13-2.78,0-.4.45-.4.8-.43a42.76,42.76,0,0,0,4.49-.84c.54-.11.8-.24.89-.81a25.12,25.12,0,0,0,.27-3.48c0-.3,0-.59,0-.92s0-.54.3-.54S410,217.19,410.35,217.29ZM422.09,226c0,.59-1.7,1.59-2.24,1.59-.35,0-.48-.35-.62-.62a19,19,0,0,0-3.61-5.78.66.66,0,0,1-.25-.45c0-.49,1.57-1.43,2.05-1.43C418.42,219.35,422.09,225.36,422.09,226Z"/><path class="cls-2" d="M437.14,232c-.54,0-.62-.17-.62-.92,0-2.76,1.65-4.32,3.43-5.81a3.48,3.48,0,0,0,1.59-2.48c0-1.32-1.1-2.21-3.15-2.21a5.44,5.44,0,0,0-4.16,2c-.22.27-.38.43-.54.43s-.32-.13-.57-.38L432,221.61c-.24-.24-.35-.4-.35-.59s.11-.33.33-.57a8.68,8.68,0,0,1,6.58-2.78c3.86,0,6.16,2.13,6.16,4.7,0,2.32-1.3,3.53-3.14,5a4.86,4.86,0,0,0-2.18,3.83c0,.65-.08.79-.6.79Zm2.95,3.77a2,2,0,0,1-2.08,2.08,1.77,1.77,0,0,1-1.86-1.78,2,2,0,0,1,2.07-2.16A1.8,1.8,0,0,1,440.09,235.78Z"/><path class="cls-2" d="M46.57,283.91a8.6,8.6,0,0,1-5.21,5.67,14.07,14.07,0,0,1-3.81,1.05c-.89,0-1.27-1.75-1.27-2.13s.35-.49,1.11-.6c3.16-.45,6.13-1.94,6.75-5.34,0-.38.08-.65.38-.65a5.77,5.77,0,0,1,1.4.43c.35.14,1.48.46,1.48.84s-.35.33-.54.38A.44.44,0,0,0,46.57,283.91Zm6.72-2.21H52.4c-.52,0-.73.21-.73.75v4c0,1.16.24,1.29,1.35,1.29h2c1.81,0,2.08-.27,2.43-3.18a.51.51,0,0,1,.59-.49c.41,0,1.92.24,1.92,1.14a9.27,9.27,0,0,1-1.4,4.31c-.71.84-2,.81-3.06.81H51.4c-1.51,0-2.51-.43-2.51-2.1,0-.51,0-1,0-1.51v-4.27c0-.54-.22-.75-.76-.75H42.87c-.3,0-.35.16-.43.43s-.35.38-1.41.38-1.4,0-1.4-.62,0-1.54,0-2.3v-8.83c0-.7,0-1.4,0-2.13,0-.92.41-1.19,1.3-1.19s1.53.06,2.29.06h9.72c.78,0,1.54-.06,2.29-.06,1.14,0,1.32.41,1.32,1.44,0,.48,0,1.1,0,1.88v8.8c0,.79,0,1.54,0,2.3s-.32.65-1.4.65-1.32,0-1.4-.41S53.59,281.72,53.29,281.7Zm-.16-10.07a.62.62,0,0,0,.64-.65v-.38a.63.63,0,0,0-.64-.65H43a.63.63,0,0,0-.65.65V271a.62.62,0,0,0,.65.65Zm-10.75,3.13a.62.62,0,0,0,.65.65h10.1a.62.62,0,0,0,.64-.65v-.41a.62.62,0,0,0-.64-.64H43a.62.62,0,0,0-.65.64Zm0,3.86a.72.72,0,0,0,.76.73H53a.71.71,0,0,0,.75-.73v-.32a.76.76,0,0,0-.75-.76H43.14a.78.78,0,0,0-.76.76Z"/><path class="cls-2" d="M79.05,267.58c.24.08,1,.27,1,.57,0,.13-.17.21-.25.27-.4.24-.43.35-.62.94-.08.3-.64,2.27-.64,2.4a.39.39,0,0,0,.4.41,18.54,18.54,0,0,0,3.13-1,1.49,1.49,0,0,1,.57-.14c.54,0,.54,1.65.54,2.06s-.06.83-.51,1a41.35,41.35,0,0,1-4.43,1.05c-.78.16-.86.3-1.11,1.05a83.31,83.31,0,0,1-5,11.91c-.35.64-.57,1-1,1s-2.3-.86-2.3-1.45a2,2,0,0,1,.46-.9,53,53,0,0,0,4.78-10,3.72,3.72,0,0,0,.22-.7c0-.27-.22-.41-.49-.41s-1.56.14-2.4.14c-.54,0-1,0-1.13-.49a11.42,11.42,0,0,1-.22-2c0-.3.08-.49.4-.49s1.38.11,2.54.11c1.73,0,2.13,0,2.38-.43a25.25,25.25,0,0,0,1-4.91c0-.41,0-.68.29-.68S78.7,267.47,79.05,267.58ZM78.67,285c1.19,1.32,3.24,1.57,4.89,1.57a12.32,12.32,0,0,0,3.83-.54.88.88,0,0,1,.27-.06c.46,0,.46.62.46,1.7,0,.54,0,1.16-.3,1.35a25.34,25.34,0,0,1-4.21.35c-1.78,0-4.27-.21-5.78-1.21-.43-.3-1.32-1-1.32-1.54,0-.41,1.24-2,1.67-2C78.37,284.61,78.56,284.85,78.67,285ZM82,276.27a19.15,19.15,0,0,1,5.43.76.51.51,0,0,1,.38.54,6.83,6.83,0,0,1-.52,1.89.46.46,0,0,1-.48.35,1.49,1.49,0,0,1-.57-.14,12.16,12.16,0,0,0-4.29-.67l-1,0c-.54,0-.67-.13-.67-.59C80.21,276.11,80.7,276.27,82,276.27Z"/><path class="cls-2" d="M111.57,268.82c.19.08.46.19.46.46a1,1,0,0,1-.19.46,3.8,3.8,0,0,0-.46,1.75c0,.06,0,.19,0,.25,0,.54.51.59.89.7,3.7.94,6.21,3.59,6.21,7.5,0,4.56-3.11,7.34-7,9.18a4,4,0,0,1-1.35.46c-.62,0-1.7-1.65-1.7-2.19,0-.32.41-.4.84-.54,3.13-1,6.34-3.32,6.34-7a5.09,5.09,0,0,0-4.29-4.94c-.38,0-.54.35-.59.65a20.18,20.18,0,0,1-3.46,8.2c-1.37,1.84-3.56,3.7-6,3.7S98,284.88,98,282.8a9.76,9.76,0,0,1,2.51-6.66.81.81,0,0,0,.3-.62,1.7,1.7,0,0,0-.17-.65c-.37-1.14-.67-2.3-1-3.46a2.36,2.36,0,0,1-.08-.4c0-.25.22-.38.43-.43A13.32,13.32,0,0,1,102,270c.44,0,.46.43.52.78.11.65.32,1.67.48,2.29.08.25.19.43.49.43a.91.91,0,0,0,.46-.13,11.33,11.33,0,0,1,3.59-1.19c.92-.13,1-.29,1-2.35,0-.4,0-.81,0-1.18s.06-.49.38-.49A16.57,16.57,0,0,1,111.57,268.82Zm-7.69,13.93c-.54-1.11-1-2.19-1.54-3.32,0-.14-.19-.38-.38-.38-.43,0-1.26,2-1.26,3.73,0,.7.1,2,1,2s2.27-1,2.27-1.6A1,1,0,0,0,103.88,282.75Zm.3-6.07a23.37,23.37,0,0,0,1.1,2.94c.25.54.35.86.63.86.7,0,2.07-4.45,2.07-5.21a.34.34,0,0,0-.37-.38C107,274.89,104.18,275.79,104.18,276.68Z"/><path class="cls-2" d="M128.54,271.6c3.94-.24,7.88-.65,11.8-1.11,2-.24,4.1-.51,6.12-.83a1.46,1.46,0,0,1,.36,0c.4,0,.45.35.51.68a11.91,11.91,0,0,1,.24,2c0,.59-.57.54-1.21.56a13.4,13.4,0,0,0-4.48.57,8.22,8.22,0,0,0-4.59,4,10,10,0,0,0-1.3,4.75c0,3.13,2,3.89,4.75,3.89.46,0,1,0,1.35,0s.62,0,.62.46a7.78,7.78,0,0,1-.4,2.21c-.19.41-.41.46-.87.46-4.58,0-8.53-1.45-8.53-6.72a12,12,0,0,1,3-7.74c.3-.33.46-.52.46-.65s-.21-.33-.4-.33-1.43.22-1.7.25c-1.81.27-4.24.64-6,1.1a1.84,1.84,0,0,1-.4.06c-.38,0-.52-.6-.6-.89a13.12,13.12,0,0,1-.29-1.95C127,271.6,127.35,271.68,128.54,271.6Zm17.92,6.59c0,.4-1.08,1.13-1.37,1.13s-.27-.19-.38-.32c-.54-.79-1.13-1.54-1.73-2.27-.08-.08-.24-.24-.24-.38,0-.32,1.08-1,1.38-1A10.49,10.49,0,0,1,146.46,278.19Zm3.27-1.49c0,.38-1,1.14-1.38,1.14-.18,0-.29-.22-.4-.35a21.91,21.91,0,0,0-1.76-2.24.69.69,0,0,1-.18-.36c0-.32,1.05-1,1.37-1A11,11,0,0,1,149.73,276.7Z"/><path class="cls-2" d="M168.13,270.9c0,.3-.57.73-.78.92a19,19,0,0,0-3.48,4.4,12.63,12.63,0,0,0-2,6.42c0,2.4,1.1,4.16,3.67,4.16a5.72,5.72,0,0,0,4.56-2.3c1.48-2,1.75-5.21,1.75-7.64A17.36,17.36,0,0,0,170.7,270a.87.87,0,0,1-.08-.38c0-.6,2-1,2.48-1s.67.41.75.92a18.44,18.44,0,0,0,3.94,7.86c.19.21.49.54.49.83,0,.6-1.83,1.46-2.19,1.46s-.94-1.08-1.13-1.46c-.08-.21-.46-1.08-.67-1.08s-.19.22-.19.35c0,.44.05.84.05,1.25a15.05,15.05,0,0,1-1.27,6.26,8,8,0,0,1-7.23,4.42c-4,0-6.48-2.72-6.48-6.64a14.89,14.89,0,0,1,2.43-7.69.59.59,0,0,0,.11-.24.18.18,0,0,0-.19-.16,5.1,5.1,0,0,0-.89.32,6.33,6.33,0,0,1-1.24.43c-.3,0-.46-.35-.57-.56a7.45,7.45,0,0,1-.7-2.19c0-.35.24-.38.81-.43a14.92,14.92,0,0,0,4.21-.84,3.84,3.84,0,0,0,2-1.89c.16-.27.33-.65.68-.65C166.54,269,168.13,270.31,168.13,270.9Z"/><path class="cls-2" d="M189.26,279.51A85,85,0,0,1,194.9,270c.41-.65.76-1.21,1.11-1.86.08-.14.22-.41.41-.41a6.76,6.76,0,0,1,1.51,1c.27.19,1.24.86,1.24,1.16s-.25.41-.49.43a1.23,1.23,0,0,0-.7.35,27.77,27.77,0,0,0-1.7,2.22,34.55,34.55,0,0,0-2.73,4.32.3.3,0,0,0,.27.27,1.09,1.09,0,0,0,.49-.19,6,6,0,0,1,2.86-.92A3.22,3.22,0,0,1,200,278a4.42,4.42,0,0,1,.3,1.7,14.36,14.36,0,0,1-.35,2.62,15.55,15.55,0,0,0-.43,2.65c0,.46.16,1,.7,1,1.51,0,4.07-3.26,4.91-4.45.13-.16.32-.38.54-.38.49,0,1.4,2.13,1.4,2.51a1,1,0,0,1-.29.59c-.62.62-1.24,1.25-1.89,1.84-1.49,1.35-3.32,2.83-5.43,2.83-1.91,0-2.7-1.64-2.7-3.34a17.14,17.14,0,0,1,.35-3.13,11.77,11.77,0,0,0,.3-2.19c0-.7-.24-1.24-1-1.24a5.13,5.13,0,0,0-2.33.75,8.11,8.11,0,0,0-2.75,2.46,18.68,18.68,0,0,0-2.48,5.67c-.08.35-.14.83-.6.83s-2.59-.78-2.59-1.24c0,0,.46-1.13.49-1.18C187.16,284,188.16,281.75,189.26,279.51Z"/><path class="cls-2" d="M215.82,280.05c0-.3.27-.4.57-.57.59-.29,1.89-1.21,2.54-1.64.29-.19.67-.44.67-.84,0-.59-1.59-3.08-2-3.64a.8.8,0,0,1-.27-.52c0-.24.48-.4,1.29-.7l1-.38a4.08,4.08,0,0,1,.89-.27c.19,0,.32.08.32.27a1,1,0,0,1-.05.3.44.44,0,0,0-.06.22,16.8,16.8,0,0,0,1.08,2.67c.17.3.3.51.65.51a1.31,1.31,0,0,0,.65-.24c2.54-1.51,5.29-3,8.31-3s5.19,1.62,5.19,4.72c0,3.65-3.27,5.37-6.37,6.16a7.86,7.86,0,0,1-1.06.19c-.7,0-1.43-1.84-1.43-2.22s.52-.48.87-.54c1.86-.32,5.1-1.18,5.1-3.53,0-1.46-1.11-2.16-2.48-2.16-2.19,0-5.19,1.7-7.08,2.83-.27.16-.54.35-.54.68,0,.72,4.08,7.37,4.75,8.42A3.48,3.48,0,0,1,229,288c0,.51-1.86,1.46-2.38,1.46s-.56-.46-.84-1c-1.37-2.65-2.83-5.21-4.18-7.88a.78.78,0,0,0-.65-.52,13.89,13.89,0,0,0-2.88,2.11c-.14.08-.38.3-.52.3C217,282.43,215.82,280.59,215.82,280.05ZM227,269.87c.54.22,1.6.6,1.6,1,0,.27-.54,2-1.24,2a3.81,3.81,0,0,1-1.14-.38,20.4,20.4,0,0,0-2.86-1c-.3-.08-.65-.14-.65-.52s.62-2.18,1.22-2.18A24,24,0,0,1,227,269.87Z"/><path class="cls-2" d="M252.42,270.44c0,.16-.19.3-.32.35a1.21,1.21,0,0,0-.51.54,10.89,10.89,0,0,0-.79,2.27,14.57,14.57,0,0,0-.35,3c0,.22,0,1.38.27,1.38s.38-.43.49-.7.62-1.46.94-1.46,1.06.48,1.06.84c0,.08-.41,1-.65,1.67l-.24.65a10.57,10.57,0,0,0-.9,3.34c0,.38.06.68.06.87,0,.75-1.43,1.08-1.94,1.08s-.79-.49-.95-1a22.6,22.6,0,0,1-.89-6.29,25.61,25.61,0,0,1,.62-5.53c.16-.68.35-1.33.46-2,0-.19.11-.68.35-.68.08,0,1.27.49,1.46.57C251.18,269.63,252.42,270.14,252.42,270.44Zm8.53-2.35c.52,0,.57.33.68.73a35.51,35.51,0,0,1,.83,7.78c0,4.67-.78,8.63-4.18,12.09-.43.43-1.54,1.51-2.16,1.51-.43,0-2-1.32-2-1.89,0-.22.25-.38.41-.46a10.24,10.24,0,0,0,3.67-4.21,15.92,15.92,0,0,0,1.24-6.8,26.1,26.1,0,0,0-.94-7.53,1.51,1.51,0,0,1-.06-.35C258.44,268.36,260.66,268.09,261,268.09Z"/><path class="cls-2" d="M278.13,283.37c.62,0,5.26,3.73,5.26,4.4s-1.35,2.08-2,2.08c-.21,0-.4-.24-.54-.41a16.49,16.49,0,0,0-4.1-3.67c-.19-.11-.49-.27-.49-.51A3.69,3.69,0,0,1,278.13,283.37Z"/><path class="cls-2" d="M308.53,283c-.19,0-.38.08-.38.33a.35.35,0,0,0,.08.24A10.37,10.37,0,0,0,309.8,285a1,1,0,0,0,.56.24,1.22,1.22,0,0,0,.6-.22,31.48,31.48,0,0,0,2.75-2.29c.11-.11.33-.32.46-.32a6.09,6.09,0,0,1,2.35,2,.28.28,0,0,1-.24.3,4,4,0,0,1-.52-.11c-.13,0-.19.08-.29.14-.81.51-1.54,1-2.35,1.54a.35.35,0,0,0,.05.67,18.39,18.39,0,0,0,4.13,1.24c.46.08.87.08.87.62s-.52,2-1.3,2a17.19,17.19,0,0,1-4.51-1.41,15.34,15.34,0,0,1-6.86-5.83,1,1,0,0,0-1.05-.62h-1.54c-.54,0-.75.22-.75.76v2.72c0,.33.13.63.54.63h.16c.59-.14,3.86-.87,4-.87.33,0,.49.22.49,1v.36c0,.86-.19.94-.84,1.1-2.7.7-5.4,1.16-8.12,1.62-.68.11-.76.16-.89.46s-.17.27-.38.27-.35-.19-.6-.92a15.25,15.25,0,0,1-.51-1.81c0-.35.22-.35,1.4-.48.36,0,.84-.06,1.44-.16a.72.72,0,0,0,.7-.84v-9.34c0-.49,0-1,0-1.46,0-.21-.11-.4-.38-.4a.38.38,0,0,0-.24.08,12.67,12.67,0,0,1-2.94,1.48c-.76,0-1.62-1.43-1.62-1.91,0-.3.29-.46.54-.57,3.72-1.73,7.85-4.32,10.15-7.77.27-.38.35-.57.64-.57s2.14.48,2.57.59c.21.06.51.19.51.46a.4.4,0,0,1-.27.35c-.05,0-.13.08-.13.16a.48.48,0,0,0,.08.22,28.2,28.2,0,0,0,9.5,6.4c.4.16.62.24.62.56,0,.57-.7,2.11-1.35,2.11a20.61,20.61,0,0,1-3.62-1.84.46.46,0,0,0-.24-.08c-.27,0-.35.19-.38.41,0,.59,0,1.19,0,1.78v2.19c0,.7,0,1.4,0,2.13,0,1-.46,1.19-1.35,1.19S310,283,309.26,283Zm-2.11-13.12a.69.69,0,0,0-.48.25,40.92,40.92,0,0,1-4.08,3.59.31.31,0,0,0-.13.24c0,.11.08.19.27.22.43,0,.83,0,1.26,0h1.08c.52,0,.73-.19.76-.7,0-.16-.05-.59-.08-.92a1.46,1.46,0,0,1,0-.35c0-.29.16-.38.43-.38s1.73.14,2.14.19c.24,0,.67.06.67.38s-.13.24-.32.41a.81.81,0,0,0-.3.67c0,.51.24.7.73.7h.92l1.64,0c.14,0,.27-.09.27-.22a.25.25,0,0,0-.13-.22,31.26,31.26,0,0,1-4.13-3.59A.71.71,0,0,0,306.42,269.87Zm3.21,7.78a.62.62,0,0,0,.65-.65v-.22a.62.62,0,0,0-.65-.64h-6.82a.62.62,0,0,0-.65.64V277a.62.62,0,0,0,.65.65Zm-6.82,1.81a.6.6,0,0,0-.65.62v.29a.62.62,0,0,0,.65.65h6.82a.62.62,0,0,0,.65-.65v-.29a.6.6,0,0,0-.65-.62Z"/><path class="cls-2" d="M338.74,275.92a28.39,28.39,0,0,0,8.56,7.21c.24.1.54.24.54.54,0,.51-1.27,2.53-2,2.53a8.21,8.21,0,0,1-2.13-1.21,40.87,40.87,0,0,1-6.91-6.75c-.87-1-1.46-1.7-2-1.7-.73,0-2,1.3-2.56,1.84-1.08.94-2.48,2.16-3.43,3.18-.16.16-.4.46-.65.46-.51,0-2.24-2.24-2.24-2.7,0-.27.62-.54.84-.65a26.42,26.42,0,0,0,4.35-3.24c1-.89,2.26-2.18,3.72-2.18C336.55,273.25,337.72,274.73,338.74,275.92Zm5.83-1.32c0,.38-.94,1.24-1.29,1.24-.11,0-.41-.32-.87-.81s-.94-1-1.54-1.57a.46.46,0,0,1-.21-.32c0-.32,1-1.16,1.27-1.16A10.27,10.27,0,0,1,344.57,274.6Zm3-1.87c0,.38-.92,1.27-1.27,1.27-.14,0-.27-.16-.35-.27-.57-.64-1.41-1.51-2.05-2.1-.11-.08-.25-.19-.25-.33,0-.29,1-1.16,1.3-1.16A10.39,10.39,0,0,1,347.57,272.73Z"/><path class="cls-2" d="M358.37,271.6c3.94-.24,7.89-.65,11.83-1.11,2-.24,4.1-.51,6.12-.83a1.23,1.23,0,0,1,.33,0c.4,0,.46.35.54.68a16.25,16.25,0,0,1,.21,2c0,.59-.56.54-1.18.56a13.24,13.24,0,0,0-4.48.57,8.18,8.18,0,0,0-4.62,4,10.16,10.16,0,0,0-1.3,4.75c0,3.13,2,3.89,4.75,3.89.49,0,1.08,0,1.35,0s.62,0,.62.46a6.34,6.34,0,0,1-.48,2.4.84.84,0,0,1-.78.27c-4.59,0-8.53-1.45-8.53-6.72a12,12,0,0,1,3-7.74c.13-.14.48-.49.48-.65s-.24-.33-.4-.33-1.43.19-1.73.25a53.25,53.25,0,0,0-6,1.1,1.84,1.84,0,0,1-.4.06c-.65,0-.89-2.57-.89-2.84C356.81,271.6,357.19,271.68,358.37,271.6Z"/><path class="cls-2" d="M392.37,270c0,.21-.25.32-.38.4s-.38.27-.62.89a29.65,29.65,0,0,0-1.62,9.18,12.81,12.81,0,0,0,.27,2.72.27.27,0,0,0,.27.25c.22,0,.35-.3.57-.81a5.46,5.46,0,0,0,.24-.57c.11-.24.24-.59.48-.59s1.17.54,1.17.89a5.8,5.8,0,0,1-.41,1.16,13.05,13.05,0,0,0-1.08,4.24c0,.35.06.67.06,1,0,.48-.36.62-.76.81a3.88,3.88,0,0,1-1.19.35c-.46,0-.65-.54-.81-.92a22.36,22.36,0,0,1-1.51-8.5,33.34,33.34,0,0,1,1.32-8.94c.22-.86.46-1.72.62-2.59,0-.19.09-.51.35-.51a9.68,9.68,0,0,1,2,.84C391.61,269.47,392.37,269.71,392.37,270Zm13,1.35c0,.54-.54.64-2.38.86-.67.08-.92.32-.92,1v.92c0,1,.06,1.43.51,1.43a20,20,0,0,0,2.87-.71,2.68,2.68,0,0,1,.81-.21c.29,0,.4.38.51.81a9.26,9.26,0,0,1,.24,1.46c0,.54-.54.67-2.8,1-1.14.16-1.95.16-1.95,1,0,.65.16,2.73.19,3.62s.13.86.81,1.16,3.91,2.16,3.91,3c0,.51-1,2-1.64,2-.25,0-.43-.19-.7-.49-.06-.05-.11-.13-.17-.19-.35-.35-1.45-1.45-1.94-1.45-.32,0-.38.29-.57.78-.56,1.56-2.59,2-4.07,2-2,0-4.38-.87-4.38-3.24s2.51-3.43,4.62-3.43c.41,0,.84.06,1,.06a.58.58,0,0,0,.59-.6c0-.46-.13-2.21-.16-2.78,0-.35-.13-.67-.57-.67l-.21,0c-1.27.14-3.59.25-4.86.25-.27,0-.84.05-1-.22a15.69,15.69,0,0,1-.22-2c0-.43.08-.62.54-.62s1.16.06,1.78.06c4,0,4.32-.08,4.32-.92,0-2.4-.08-2.54-.56-2.54s-2.54.22-3.62.22c-.49,0-.78,0-.89-.49a18.3,18.3,0,0,1-.16-1.83c0-.33.13-.54.51-.54a2.24,2.24,0,0,1,.35,0c.48.06,1.67.08,2.21.08a22.68,22.68,0,0,0,7-.94,1.11,1.11,0,0,1,.3-.05C405.22,269.15,405.41,271,405.41,271.39ZM396.25,286c0,.79,1.17,1,1.76,1,1.19,0,2-.24,2-1.45,0-.62-1-.6-1.45-.6C397.9,285,396.25,285.1,396.25,286Z"/><path class="cls-2" d="M417.79,277.81a22.58,22.58,0,0,0,2.49-.81c2.4-.86,5.23-1.94,7.77-1.94,3.16,0,5.61,2,5.61,5.29s-2.45,5.4-5.29,6.61a15.52,15.52,0,0,1-4.15,1.13c-.89,0-1.27-1.83-1.27-2,0-.46.51-.51.86-.54a12,12,0,0,0,4.62-1.35,4.61,4.61,0,0,0,2.64-3.86,2.74,2.74,0,0,0-3-2.72c-2.62,0-6.13,1.48-8.42,2.72a1.4,1.4,0,0,1-.76.27c-.7,0-1.67-1.62-1.67-2.18C417.2,278,417.5,277.89,417.79,277.81Z"/><path class="cls-2" d="M447.69,281c.35,0,.44.25.49.52.57,2.86,2.86,3.26,5.4,3.26a33.47,33.47,0,0,0,8-.94,2,2,0,0,1,.41-.08c.4,0,.59.46.59,2.21,0,.51-.13.84-.65,1a49.43,49.43,0,0,1-8.09.76c-2.81,0-5.84-.36-7.59-2.81a6.41,6.41,0,0,1-1.05-2.62C445.24,281.62,447.67,281,447.69,281Zm.46-9.42c.08-.45.14-.94.65-.94a4.15,4.15,0,0,1,.78.16,17.24,17.24,0,0,0,4.59.57,23,23,0,0,0,4.89-.54,1.22,1.22,0,0,1,.35-.06c.67,0,.7,1.22.7,2.33,0,.64-.13.7-.75.81a38,38,0,0,1-4.89.32c-1.48,0-4.83-.14-6.15-.68a.55.55,0,0,1-.38-.56A9.44,9.44,0,0,1,448.15,271.57Z"/><path class="cls-2" d="M478.69,270.44c0,.16-.19.3-.33.35a1.21,1.21,0,0,0-.51.54,10.86,10.86,0,0,0-.78,2.27,13.92,13.92,0,0,0-.35,3c0,.22,0,1.38.27,1.38s.37-.43.48-.7.62-1.46.95-1.46,1.05.48,1.05.84c0,.08-.41,1-.65,1.67l-.24.65a10.55,10.55,0,0,0-.89,3.34c0,.38.05.68.05.87,0,.75-1.43,1.08-1.94,1.08s-.78-.49-.95-1A22.6,22.6,0,0,1,474,277a25.61,25.61,0,0,1,.62-5.53c.17-.68.35-1.33.46-2,0-.19.11-.68.35-.68.08,0,1.27.49,1.46.57C477.44,269.63,478.69,270.14,478.69,270.44Zm8.53-2.35c.51,0,.56.33.67.73a35.52,35.52,0,0,1,.84,7.78c0,4.67-.78,8.63-4.19,12.09-.43.43-1.54,1.51-2.16,1.51-.43,0-2-1.32-2-1.89,0-.22.24-.38.4-.46a10.17,10.17,0,0,0,3.67-4.21,15.92,15.92,0,0,0,1.24-6.8,26.1,26.1,0,0,0-.94-7.53,1.48,1.48,0,0,1-.05-.35C484.71,268.36,486.92,268.09,487.22,268.09Z"/><path class="cls-2" d="M509.82,286.29a3.76,3.76,0,1,1-3.75-3.76A3.76,3.76,0,0,1,509.82,286.29Zm-6.16,0a2.41,2.41,0,0,0,4.81,0,2.38,2.38,0,0,0-2.4-2.41A2.41,2.41,0,0,0,503.66,286.29Z"/><path class="cls-2" d="M6.75,324.48c-.57,0-.81.08-1.08.59a30.91,30.91,0,0,1-2.94,4.54.87.87,0,0,1-.68.43c-.43,0-2-.76-2-1.3,0-.19.3-.48.41-.62a27.07,27.07,0,0,0,5.12-9.58c.06-.24.08-.51.38-.51a17,17,0,0,1,1.7.43c.87.21,1.24.3,1.24.62s-.24.32-.4.4c-.38.17-.43.36-.68,1-.08.19-.16.43-.27.73a1.12,1.12,0,0,0,0,.22.47.47,0,0,0,.51.46H18.14c.89,0,1.75-.06,2.65-.06,1.7,0,1.88.65,1.88,2.05,0,4.08-.18,10.75-1.05,14.61-.32,1.43-.67,2.51-2.08,3.21a8.07,8.07,0,0,1-3.1.54c-1.54,0-1.78-.16-2.05-.62a3.28,3.28,0,0,1-.35-1.54c0-.4,0-.81.51-.81a3.8,3.8,0,0,1,.46.05,13.26,13.26,0,0,0,1.51.11c1.89,0,2.24-.94,2.54-2.59a42.12,42.12,0,0,0,.59-5.53c.08-1.41.19-4.16.19-5.51s-.11-1.32-1.35-1.32Zm8.55,12.2c0,.54,0,1.08,0,1.62s-.38.62-1.32.62c-1.3,0-1.38,0-1.38-.46s-.16-.59-1-.59h-3c-1,0-1,.16-1,1.05s-.09.81-1.41.81c-1,0-1.32,0-1.32-.73s0-1.46,0-2.19V330c0-.56,0-1.13,0-1.72,0-.84.32-1.08,1.13-1.08l1.92,0h4.29l1.86,0c.87,0,1.19.24,1.19,1.13,0,.57,0,1.11,0,1.67Zm-3.4-5.18a.78.78,0,0,0,.76-.76v-.43a.72.72,0,0,0-.76-.73H8.42a.71.71,0,0,0-.75.73v.43a.77.77,0,0,0,.75.76Zm-3.48,2a.76.76,0,0,0-.75.75v.54a.77.77,0,0,0,.75.76H11.9a.78.78,0,0,0,.76-.76v-.54a.76.76,0,0,0-.76-.75Z"/><path class="cls-2" d="M33.58,323.1c4-.24,7.89-.65,11.8-1.11,2-.24,4.1-.51,6.13-.83a1.38,1.38,0,0,1,.35,0c.4,0,.46.35.51.68a11.91,11.91,0,0,1,.24,2c0,.59-.56.54-1.21.56a13.43,13.43,0,0,0-4.48.57,8.22,8.22,0,0,0-4.59,4,10.16,10.16,0,0,0-1.3,4.75c0,3.13,2,3.89,4.76,3.89.45,0,1.05,0,1.34,0s.63,0,.63.46a7.45,7.45,0,0,1-.41,2.21c-.19.41-.4.46-.86.46-4.59,0-8.53-1.45-8.53-6.72a12,12,0,0,1,3-7.74c.29-.33.46-.52.46-.65s-.22-.33-.41-.33-1.43.22-1.7.25c-1.81.27-4.24.64-6,1.1a1.84,1.84,0,0,1-.4.06c-.38,0-.51-.6-.59-.89a12,12,0,0,1-.3-1.95C32,323.1,32.4,323.18,33.58,323.1Zm17.93,6.59c0,.4-1.08,1.13-1.38,1.13s-.27-.19-.38-.32c-.54-.79-1.13-1.54-1.72-2.27-.09-.08-.25-.24-.25-.38,0-.32,1.08-1,1.38-1A10.34,10.34,0,0,1,51.51,329.69Zm3.26-1.49c0,.38-1.05,1.14-1.37,1.14s-.3-.22-.41-.35a21.81,21.81,0,0,0-1.75-2.24.7.7,0,0,1-.19-.36c0-.32,1.05-1,1.38-1A11,11,0,0,1,54.77,328.2Z"/><path class="cls-2" d="M64.63,332.49c.35,0,.43.25.48.52.57,2.86,2.86,3.26,5.4,3.26a33.47,33.47,0,0,0,8-.94,2,2,0,0,1,.41-.08c.4,0,.59.46.59,2.21,0,.51-.13.84-.64,1a49.66,49.66,0,0,1-8.1.76c-2.81,0-5.83-.36-7.59-2.81a6.41,6.41,0,0,1-1-2.62C62.17,333.12,64.6,332.49,64.63,332.49Zm.45-9.42c.09-.45.14-.94.65-.94a4.43,4.43,0,0,1,.79.16,17.12,17.12,0,0,0,4.58.57,23,23,0,0,0,4.89-.54,1.22,1.22,0,0,1,.35-.06c.68,0,.7,1.22.7,2.33,0,.64-.13.7-.75.81a38,38,0,0,1-4.89.32c-1.48,0-4.83-.14-6.15-.68a.55.55,0,0,1-.38-.56A9.44,9.44,0,0,1,65.08,323.07Z"/><path class="cls-2" d="M93,332.49c.35,0,.43.25.48.52.57,2.86,2.86,3.26,5.4,3.26a33.56,33.56,0,0,0,8.05-.94,1.77,1.77,0,0,1,.4-.08c.41,0,.59.46.59,2.21,0,.51-.13.84-.64,1a49.56,49.56,0,0,1-8.1.76c-2.81,0-5.83-.36-7.59-2.81a6.41,6.41,0,0,1-1-2.62C90.54,333.12,93,332.49,93,332.49Zm.46-9.42c.08-.45.13-.94.64-.94a4.43,4.43,0,0,1,.79.16,17.14,17.14,0,0,0,4.59.57,23,23,0,0,0,4.88-.54,1.22,1.22,0,0,1,.35-.06c.68,0,.7,1.22.7,2.33,0,.64-.13.7-.75.81a38,38,0,0,1-4.89.32c-1.48,0-4.83-.14-6.15-.68a.56.56,0,0,1-.38-.56A9.52,9.52,0,0,1,93.46,323.07Z"/><path class="cls-2" d="M133.3,322c0,.36-.54.57-.73.76-.95.68-4.67,4.45-4.67,4.89a.28.28,0,0,0,.3.27,1.72,1.72,0,0,0,.51-.11,6,6,0,0,1,1.94-.33c3.73,0,6.7,2.51,6.7,6.35,0,3.4-2.3,5.4-5.27,6.56a16,16,0,0,1-4.61,1c-.43,0-.62-.27-.92-.92a6.21,6.21,0,0,1-.57-1.57c0-.46.54-.46,1-.46h.56c2.78,0,6.86-1.32,6.86-4.69,0-2.46-2.24-3.65-4.43-3.65a8.35,8.35,0,0,0-6.31,2.92,19.44,19.44,0,0,0-2.16,3.24c-.11.16-.25.4-.49.4-.43,0-2.21-1.19-2.21-1.83a1,1,0,0,1,.38-.68c.75-.86,2.18-2.72,3-3.7,1.76-2.18,3.54-4.34,5.37-6.47a.49.49,0,0,0,.11-.28.27.27,0,0,0-.3-.26,10,10,0,0,0-1.07.21c-.54.11-3.32.59-3.73.59-.67,0-.94-2.05-.94-2.42,0-.62.27-.6.86-.62,2-.06,5.78-.33,7.56-1.3a1.42,1.42,0,0,1,.73-.27A4.63,4.63,0,0,1,133.3,322Z"/><path class="cls-2" d="M158.42,320c0,.13-.11.21-.24.29-.38.19-.57.22-1,1.19-.24.65-.45,1.32-.67,2a1,1,0,0,0-.08.38c0,.46.35.57.73.62.91.11,1.83.19,2.75.22.51,0,.92,0,.92.51a7.64,7.64,0,0,1-.3,1.75c-.11.38-.21.6-.59.6a32.7,32.7,0,0,1-3.67-.41,1,1,0,0,0-.25-.05c-.43,0-.62.3-.73.65s-.45,2-.45,2.24c0,.56.56.59.94.62.81.08,1.62.11,2.43.11s.81.19.81.46a5.87,5.87,0,0,1-.35,1.8c-.14.41-.3.62-.76.62a24.71,24.71,0,0,1-2.53-.27,3.71,3.71,0,0,0-.44-.05c-.72,0-.72.68-.72,1.84,0,2.34,1.24,3.59,3.59,3.59,1.21,0,3.07-.33,3.91-1.27a2.75,2.75,0,0,0,.59-1.92,11.86,11.86,0,0,0-.91-3.91,1.35,1.35,0,0,1-.11-.49c0-.65,2-1,2.29-1s.51.43.73,1a14.89,14.89,0,0,1,.89,4.72c0,4.19-3.86,5.64-7.45,5.64-4.07,0-6.48-2.34-6.48-6.45,0-.67.11-1.7.11-2,0-.59-.46-.75-1.08-.94a9.48,9.48,0,0,1-1.59-.65c-.3-.16-.51-.3-.51-.65,0-.16.27-2.29.94-2.29a1.5,1.5,0,0,1,.68.27,4.93,4.93,0,0,0,1.72.75c.46,0,.54-.38.7-1.16.06-.29.17-.65.25-1.05,0-.19.11-.43.11-.59,0-.6-.49-.76-.87-.9-1.89-.72-2.43-1-2.43-1.45s.43-2.32,1-2.32a1.41,1.41,0,0,1,.62.29,16.86,16.86,0,0,0,1.84.95.85.85,0,0,0,.35.08c.43,0,.54-.35.62-.65.24-.92.84-2.83,1.05-3.62.08-.29.14-.54.41-.54a9.49,9.49,0,0,1,1.35.44C157.05,319.19,158.42,319.56,158.42,320Z"/><path class="cls-2" d="M185.56,326.75a.11.11,0,0,0-.08,0,16.08,16.08,0,0,1-3.24,1.33c-.52,0-1.35-1.14-1.35-1.52s.38-.43,1-.64a24.54,24.54,0,0,0,6-3.11.24.24,0,0,0,.14-.19c0-.19-.16-.24-.3-.24h-6.48c-.51,0-.75.22-.75.76v5.42c0,4-.22,8-1.89,11.66-.57,1.3-.92,2.08-1.35,2.08s-2-.86-2-1.4a.86.86,0,0,1,.16-.35,17.54,17.54,0,0,0,2.27-6.43c0-.19-.06-.38-.3-.38a.37.37,0,0,0-.21.08,7.63,7.63,0,0,0-.71.52c-.18.11-.18.24-.24.54a.31.31,0,0,1-.3.24c-.32,0-.51-.65-.62-1s-.62-1.49-.62-1.65.62-.43,1.11-.67,1.08-.57,1.59-.87a1,1,0,0,0,.62-1v-6.13c0-.81,0-1.59,0-2.4,0-1,.56-1.22,1.45-1.22s1.76.06,2.62.06h3.59c.49,0,.7-.19.7-.71a3.49,3.49,0,0,0-.05-.72c0-.06,0-.17,0-.25,0-.29.25-.32.49-.32s1.94.13,2.4.16c.22,0,.73.06.73.38s-.16.24-.38.4a.63.63,0,0,0-.27.52c0,.43.38.54.73.54H195c.95,0,1.92-.06,2.89-.06.59,0,.59.22.59,1.14s0,1.1-.56,1.1c-1,0-1.95-.05-2.92-.05h-3.45s-.08,0-.08.05a.08.08,0,0,0,.08.08c.19.11.24.19.24.3s-.19.24-.32.27a.09.09,0,0,0-.08.08c0,.06,0,.06.05.08a25.65,25.65,0,0,0,7.18,3c.16.06.35.16.35.35s-.59,1.68-1.3,1.68a21.56,21.56,0,0,1-4.29-1.6h-.08a.18.18,0,0,0-.19.19c0,.38,0,.57-.46.57-.59,0-1.16,0-1.75,0h-3c-.56,0-1.16,0-1.75,0-.35,0-.41-.16-.43-.49C185.72,326.83,185.67,326.75,185.56,326.75Zm-9.15,1.7c-.38,0-.44-.27-.62-1-.25-.94-.57-1.89-.89-2.81a1.87,1.87,0,0,1-.14-.51c0-.46,1.16-.89,1.38-.89.4,0,.51.4,1.1,2.19a13.8,13.8,0,0,1,.6,2.16C177.84,328.1,176.6,328.45,176.41,328.45Zm6.61,9.09c.46.14.76.22.76.52s-.25.24-.41.27-.27.24-.32.43a21.79,21.79,0,0,1-1.16,2.72c-.14.27-.33.52-.65.52s-1.65-.44-1.65-.92a2.75,2.75,0,0,1,.35-.68,9.75,9.75,0,0,0,1.14-2.7c.08-.27.13-.54.43-.54A10.1,10.1,0,0,1,183,337.54Zm4-3.94h-1.7c-.51,0-.72.19-.75.7,0,.3.05.87.05,1.14,0,.59-.24.56-1.16.56s-1.11,0-1.11-.54.06-1.18.06-1.78v-3.16c0-.54-.06-1.08-.06-1.56,0-.7.41-.81,1-.81s1.13,0,1.7,0H187c.57,0,1.13,0,1.7,0s1,.11,1,.78c0,.43,0,1,0,1.54V333c0,.41,0,.81,0,1.25,0,1.7-1.3,1.75-2.75,1.75-.76,0-1.24,0-1.24-1,0-.28,0-.49.35-.49s.37,0,.56,0c.65,0,.84-.06.84-.54C187.42,333.71,187.31,333.6,187,333.6Zm3.84,6.29c1,0,1.16-.24,1.43-1.4.08-.35.16-.54.54-.54.21,0,1.75.13,1.75.89a5,5,0,0,1-1,2.54,3.29,3.29,0,0,1-2.51.7h-4.16c-1.51,0-2.7-.11-2.7-1.95,0-.32,0-.64,0-1v-.94c0-.33,0-.68,0-1a2.86,2.86,0,0,1,0-.49c0-.24.14-.32.35-.32s2,.1,2.33.16.46,0,.46.27-.17.27-.3.35-.3.35-.3,1v1c0,.64.35.67,1.19.67Zm-3.75-9.47a.36.36,0,0,0,.32-.35v-.17a.34.34,0,0,0-.32-.35h-2.19c-.22,0-.35.14-.35.35v.17a.36.36,0,0,0,.35.35Zm-2.54,1.67a.32.32,0,0,0,.35.35h2.19a.31.31,0,0,0,.32-.35v-.19a.35.35,0,0,0-.32-.35h-2.19a.35.35,0,0,0-.35.35Zm4.83-7.5a1,1,0,0,0-.57.21c-.37.27-.78.51-1.18.76a.22.22,0,0,0-.14.19c0,.13.14.19.24.19h3.4c.11,0,.25-.06.25-.17a.22.22,0,0,0-.11-.19c-.35-.21-1-.56-1.3-.78A1.11,1.11,0,0,0,189.39,324.59Zm.68,14.6c-.22,0-.36-.19-.46-.33a20.35,20.35,0,0,0-1.33-1.59.41.41,0,0,1-.16-.29c0-.3,1.11-1.11,1.43-1.11s.6.35,1.06.94c.64.81.86,1.08.86,1.25C191.47,338.46,190.44,339.19,190.07,339.19Zm1.1-8.15a15.5,15.5,0,0,0-.08-2,.59.59,0,0,1,0-.21c0-.22.19-.27.38-.27s1.65.11,1.84.13.48.06.48.3-.13.24-.27.32c-.29.19-.27.35-.27,1.68v.7c0,.54.06,1.08.06,1.62s-.22.54-1.11.54-1,0-1-.51c0-.27,0-1.3,0-1.65Zm3.78-.92a7.65,7.65,0,0,0-.08-1.35v-.19c0-.24.19-.27.4-.27.46,0,1.57.08,2.08.11.22,0,.65.05.65.35s-.19.27-.35.35-.27.43-.27,1.7v1.54c0,.43,0,.86,0,1.27,0,2.1-1.22,2.48-3,2.48-.65,0-1.33.11-1.33-1.64,0-.27.06-.54.38-.54h.25a3.39,3.39,0,0,0,.45,0c.92,0,.84-.32.84-1.35Zm2.4,11.74c-.24,0-.35-.19-.62-.73a20.68,20.68,0,0,0-1.73-2.8,1.16,1.16,0,0,1-.26-.52c0-.35,1.18-1,1.51-1s.94.92,1.56,1.89a11.46,11.46,0,0,1,1.16,2.11C199,341.24,197.65,341.86,197.35,341.86Z"/><path class="cls-2" d="M213.73,320.91c.19,0,.54.14.54.38s-.16.27-.32.41c-.95.7-1.19,9.26-1.19,10.79,0,2.11-.06,5.38,2.86,5.38a6.84,6.84,0,0,0,5.07-2.62,8.64,8.64,0,0,0,1.65-4c.08-.43.14-.89.54-.89.59,0,2.24,1.38,2.24,2.19a10,10,0,0,1-1.11,3.16,9.44,9.44,0,0,1-8.2,5.15,6,6,0,0,1-4.75-2.08c-1.22-1.62-1.35-4.23-1.35-6.2q0-3.21.24-6.4c.08-1.24.33-3.83.33-4.94v-.3c0-.4,0-.67.4-.67A23.11,23.11,0,0,1,213.73,320.91Z"/><path class="cls-2" d="M244.35,319.08c.24.08,1,.27,1,.57,0,.13-.17.21-.25.27-.4.24-.43.35-.62.94-.08.3-.65,2.27-.65,2.4a.4.4,0,0,0,.41.41,18.83,18.83,0,0,0,3.13-1,1.49,1.49,0,0,1,.57-.14c.54,0,.54,1.65.54,2.06s-.06.83-.52,1a41.17,41.17,0,0,1-4.42,1.05c-.79.16-.87.3-1.11,1.05a83.31,83.31,0,0,1-5,11.91c-.35.64-.57,1-1,1s-2.3-.86-2.3-1.45a2,2,0,0,1,.46-.9,53,53,0,0,0,4.78-10,4.63,4.63,0,0,0,.22-.7c0-.27-.22-.41-.49-.41s-1.57.14-2.4.14c-.54,0-1,0-1.14-.49a12.51,12.51,0,0,1-.21-2c0-.3.08-.49.4-.49s1.38.11,2.54.11c1.73,0,2.13,0,2.38-.43a24.53,24.53,0,0,0,1-4.91c0-.41,0-.68.3-.68S244,319,244.35,319.08ZM244,336.49c1.19,1.32,3.24,1.57,4.88,1.57a12.34,12.34,0,0,0,3.84-.54.88.88,0,0,1,.27-.06c.46,0,.46.62.46,1.7,0,.54,0,1.16-.3,1.35a25.43,25.43,0,0,1-4.21.35c-1.78,0-4.27-.21-5.78-1.21-.43-.3-1.32-1-1.32-1.54,0-.41,1.24-2,1.67-2C243.67,336.11,243.86,336.35,244,336.49Zm3.29-8.72a19.15,19.15,0,0,1,5.43.76.51.51,0,0,1,.38.54,6.83,6.83,0,0,1-.52,1.89.46.46,0,0,1-.48.35,1.49,1.49,0,0,1-.57-.14,12.16,12.16,0,0,0-4.29-.67l-1,0c-.54,0-.67-.13-.67-.59C245.51,327.61,246,327.77,247.26,327.77Z"/><path class="cls-2" d="M267.19,323.72c.21.06.59.11.59.38s-.11.22-.27.35c-.38.3-.4.84-.48,1.3a19.36,19.36,0,0,0-.22,2.86,15.44,15.44,0,0,0,.86,5.64c.33.76,1.22,2.35,2.16,2.35.76,0,1.54-1.19,1.87-1.78.16-.27.37-.68.72-.68.57,0,1.95,1.11,1.95,1.59s-1.22,1.92-1.59,2.35a3.9,3.9,0,0,1-2.89,1.7c-2,0-3.57-1.81-4.46-3.45-1.35-2.54-1.56-5.94-1.56-8.8,0-.43.08-3.86.13-4.1a.34.34,0,0,1,.38-.3C264.73,323.13,266.73,323.64,267.19,323.72Zm11-.54c.6,0,2.87,1.7,4.16,4.19a14.62,14.62,0,0,1,1.59,5.61c0,.51-.27.65-.73.78a5.49,5.49,0,0,1-1.51.25c-.86,0-.83-.38-.89-1a10.34,10.34,0,0,0-4-7.69.46.46,0,0,1-.25-.41C276.55,324.37,277.63,323.18,278.17,323.18Z"/><path class="cls-2" d="M296.24,334.87c.62,0,5.26,3.73,5.26,4.4s-1.34,2.08-2,2.08c-.21,0-.4-.24-.54-.41a16.49,16.49,0,0,0-4.1-3.67c-.19-.11-.48-.27-.48-.51A3.67,3.67,0,0,1,296.24,334.87Z"/><path class="cls-2" d="M324.32,340.11a2.28,2.28,0,0,0-.6.13,34,34,0,0,1-8.53,2c-.37,0-1.13.1-1.48.1-.54,0-.7-.32-.86-.75a3.6,3.6,0,0,1-.3-1.19c0-.65.67-.57,1.48-.62a31.21,31.21,0,0,0,6.86-1.13c.14-.06.27-.14.27-.33s-.08-.21-.16-.32a15.1,15.1,0,0,1-1.43-1.22.89.89,0,0,0-.65-.32,1.45,1.45,0,0,0-.49.11,17.36,17.36,0,0,1-4.15,1.4c-.7,0-1.08-1.13-1.08-1.59s.38-.43,1.1-.65a20.3,20.3,0,0,0,6.08-2.78.22.22,0,0,0,.11-.21c0-.09-.06-.19-.25-.22-.65,0-1.29,0-1.94,0-.87,0-1.51-.11-1.51-1.14,0-.54,0-1.08,0-1.62v-4.51c0-.54,0-1.1,0-1.64,0-1,.64-1.14,1.48-1.14l2.19,0h.43c.49,0,.67-.08.89-.51l.16-.32a.66.66,0,0,0,.06-.25c0-.29-.25-.4-.52-.4h-5.1c-1.05,0-2.13.05-3.21.05-.57,0-.57-.3-.57-1.11s0-1.13.57-1.13c1.08,0,2.16.05,3.21.05h16.25c1.08,0,2.13-.05,3.21-.05.6,0,.57.3.57,1.11s0,1.13-.57,1.13c-1.08,0-2.13-.05-3.21-.05H325.8c-.51,0-.62.11-.86.54a1.53,1.53,0,0,0-.14.29,1.11,1.11,0,0,0-.05.25c0,.29.22.4.49.4h3.29c.7,0,1.43,0,2.16,0s1.48.14,1.48,1.11c0,.57-.05,1.11-.05,1.67v4.51c0,.54.05,1.11.05,1.68,0,1-.67,1.08-1.48,1.08s-1.46,0-2.16,0h-3.37a1.72,1.72,0,0,0-1.41.48c-.16.17-.35.33-.51.49a.25.25,0,0,0-.11.22c0,.19.14.24.3.24h3.4c.78,0,1.59,0,2.4,0,1.4,0,1.73,1.57,1.73,1.76,0,.4-.35.67-.62.89a15.85,15.85,0,0,1-2.46,1.7c-.11.08-.19.16-.19.27s.14.24.25.29a29.16,29.16,0,0,0,7.82,1c.49,0,.73,0,.73.76s-.29,1.78-1.32,1.78a31.32,31.32,0,0,1-10.26-2.16A1.53,1.53,0,0,0,324.32,340.11Zm5.15-15.42a.46.46,0,0,0-.51-.51h-9a.49.49,0,0,0-.51.51v.14a.49.49,0,0,0,.51.51h9a.46.46,0,0,0,.51-.51ZM320,326.93a.53.53,0,0,0-.51.52v.16a.49.49,0,0,0,.51.51h9a.46.46,0,0,0,.51-.51v-.16a.49.49,0,0,0-.51-.52Zm0,2.78a.53.53,0,0,0-.51.52v.19a.49.49,0,0,0,.51.51h9a.49.49,0,0,0,.51-.51v-.19a.49.49,0,0,0-.51-.52Zm2.56,6.05c-.13,0-.29.05-.29.24a.26.26,0,0,0,.11.22c.4.3.86.59,1.29.86a1.24,1.24,0,0,0,1.21.06c.28-.14,1.79-.92,1.79-1.16s-.38-.22-.81-.22Z"/><path class="cls-2" d="M347.79,337.7c0,1.3.08,2.62.08,3.95,0,.86-.3.89-1.38.89s-1.38,0-1.38-.87c0-1.32.06-2.64.06-4V322.83c0-.75,0-1.51,0-2.29,0-1,.35-1.33,1.32-1.33.73,0,1.43,0,2.14,0h1.94c.59,0,1.21,0,1.7,0a1.66,1.66,0,0,1,1.59,1.38c0,.81-1.83,4.27-2.32,5.13a3.3,3.3,0,0,0-.43.89c0,.19.27.51.38.68a9.07,9.07,0,0,1,2.08,5.48c0,2.69-1.27,4.39-4.08,4.39a.89.89,0,0,1-1-.75,5.58,5.58,0,0,1-.18-1.3c0-.29.05-.64.43-.64.19,0,.4,0,.64,0,1.22,0,1.49-.95,1.49-2a7.32,7.32,0,0,0-2.3-4.91.92.92,0,0,1-.4-.68,2.65,2.65,0,0,1,.51-1,22.77,22.77,0,0,0,1.92-3.92c0-.32-.32-.32-.57-.32h-1.43c-.54,0-.75.22-.75.76Zm9.79-.51c0,.33.14.62.52.62l.19,0c.29-.06,2.45-.63,2.51-.63.62,0,.73,1.11.73,1.57,0,.7-.14.86-.63,1-1.48.4-4.31,1-5.88,1.32-1.92.35-2,.41-2.19.78-.08.17-.19.33-.37.33s-.36-.33-.57-1c-.06-.17-.11-.38-.19-.6a5.6,5.6,0,0,1-.38-1.21c0-.3.14-.33,1.19-.49.43-.05,1-.16,1.81-.29.51-.11.65-.38.65-.87V323.05c0-.84,0-1.68,0-2.51,0-1.06.4-1.35,1.43-1.35.7,0,1.43.05,2.16.05h4c.71,0,1.44-.05,2.14-.05,1,0,1.45.29,1.45,1.35,0,.83-.05,1.67-.05,2.51v3.86c0,.83.05,1.64.05,2.48,0,1-.43,1.32-1.43,1.32-.72,0-1.45,0-2.16,0h-.35c-.29,0-.59.13-.59.51,0,.06,0,.14,0,.19a14,14,0,0,0,.78,2.11c.11.19.22.32.43.32a.64.64,0,0,0,.41-.16,26.2,26.2,0,0,0,2-2.19c.11-.21.27-.43.46-.43s.43.22.81.59l.38.38c.24.25.94.89.94,1.19a.29.29,0,0,1-.32.3c-.11,0-.19,0-.3,0a.4.4,0,0,0-.32.13c-.76.73-1.46,1.38-2.27,2.06a.73.73,0,0,0-.3.54.75.75,0,0,0,.19.45,21.22,21.22,0,0,0,3.54,3.06c.16.1.29.18.29.4,0,.57-1,1.94-1.64,1.94s-3-2.32-3.46-2.86a16.3,16.3,0,0,1-4.15-7.91.7.7,0,0,0-.76-.59c-.54,0-.76.24-.76.76Zm5.11-13.2a.77.77,0,0,0,.75-.75v-.87a.71.71,0,0,0-.75-.73h-4.35a.72.72,0,0,0-.76.73v.87a.78.78,0,0,0,.76.75Zm-4.35,2a.77.77,0,0,0-.76.75v.84a.77.77,0,0,0,.76.75h4.35a.76.76,0,0,0,.75-.75v-.84a.76.76,0,0,0-.75-.75Z"/><path class="cls-2" d="M381.31,338.86a.46.46,0,0,0-.41.28,26.71,26.71,0,0,1-1.54,2.42c-.19.25-.4.54-.73.54-.51,0-2.13-.64-2.13-1.26a1,1,0,0,1,.3-.57,16.06,16.06,0,0,0,3.51-8.5c0-.33,0-.71.46-.71.27,0,1.53.27,1.86.33.78.16,1.21.24,1.21.56s-.19.3-.32.36c-.41.18-.43.32-.57,1-.08.38-.16.92-.38,1.7a1.67,1.67,0,0,0-.08.49,1.26,1.26,0,0,0,.27.73,5.62,5.62,0,0,0,2.89,2.35l.22,0c.35,0,.46-.27.48-.56v-8c0-.54-.21-.75-.75-.75h-2c-.94,0-1.92.05-2.89.05-.67,0-.67-.35-.67-1.29s0-1.3.67-1.3c1,0,1.92.05,2.89.05h8.48c1,0,1.91-.05,2.88-.05.68,0,.68.35.68,1.3s0,1.29-.68,1.29c-1,0-1.91-.05-2.88-.05H390c-.54,0-.76.21-.76.75v1.76c0,.51.22.73.76.73h1.73c.86,0,1.7-.06,2.56-.06.7,0,.68.35.68,1.32s0,1.3-.68,1.3c-.86,0-1.7-.05-2.56-.05H390c-.54,0-.76.21-.76.75v2.62c0,.49.17.76.71.78,1.16.08,2.32.06,3.48.06,1.64,0,3.56-.06,5.21-.22a4.5,4.5,0,0,1,.65,0c.45,0,.56.38.56.76,0,.54-.16,1.57-.65,1.89a2,2,0,0,1-1.07.19c-.89,0-1.79,0-2.68,0h-2.7c-3.8,0-8.23.24-11-2.87A.52.52,0,0,0,381.31,338.86ZM390,321.45h4.43c1,0,2.05-.05,3.07-.05.76,0,1.6.19,1.6,1.11,0,.38-.06.89-.06,1.48v1c0,.33.08.84.08,1.14,0,.65-.43.62-1.51.62-.91,0-1.43,0-1.43-.6,0-.29.06-.78.06-1.16v-.4c0-.54-.22-.76-.76-.76H380.17c-.51,0-.75.22-.75.76V325c0,.38.08.86.08,1.16,0,.65-.52.59-1.46.59s-1.43.06-1.43-.59c0-.35.05-.81.05-1.16v-1c0-.7,0-1.19,0-1.46,0-.91.78-1.1,1.53-1.1l3.11,0h4.34c.55,0,.76-.21.76-.75v-.27a12,12,0,0,0-.11-1.46c0-.08,0-.19,0-.27,0-.32.24-.38.51-.38.59,0,1.7.11,2.32.17.24,0,.78,0,.78.37,0,.19-.16.25-.35.41s-.32.73-.3,1.43C389.21,321.24,389.46,321.45,390,321.45Z"/><path class="cls-2" d="M425.67,324a9.1,9.1,0,0,1,2.73,6.63,9.69,9.69,0,0,1-5.26,8.72,10.38,10.38,0,0,1-2.94,1.08c-.71,0-1.81-1.67-1.81-2.26,0-.27.4-.33.67-.38,3.54-.84,6.32-3.16,6.32-7a6.54,6.54,0,0,0-4.32-6.45,4.66,4.66,0,0,0-1-.24c-.62,0-.62.59-.64,1.05-.3,3.94-1.25,8.74-3.84,11.85A4.84,4.84,0,0,1,412,339a4.35,4.35,0,0,1-3.67-2.57,8.35,8.35,0,0,1-.84-3.83,11.12,11.12,0,0,1,11.2-11.34A9.58,9.58,0,0,1,425.67,324Zm-10.5.78a8.35,8.35,0,0,0-4.85,7.77c0,1,.35,3.51,1.72,3.51s2.86-3.08,3.62-5.83a27.6,27.6,0,0,0,.86-5.26c0-.27-.13-.49-.43-.49A3.09,3.09,0,0,0,415.17,324.75Z"/><path class="cls-2" d="M443.78,322.32c.32.05.67.05.67.32s-.16.27-.27.38-.13.62-.13.86v.6c0,5.59-.38,10.34-4.67,14.44-.22.19-.54.57-.84.57s-2.4-1-2.4-1.49c0-.19.21-.38.35-.48,4.1-3.41,4.62-7.18,4.62-12.21,0-.8,0-1.88-.11-2.67,0-.08,0-.21,0-.29,0-.25.16-.3.35-.3C441.83,322.05,443.21,322.24,443.78,322.32Zm6.39,11.28c0,.84,0,1.24.44,1.24.89,0,6.21-4.75,7.07-5.64.13-.13.32-.35.54-.35.46,0,1.38,1.73,1.38,2.16s-1.06,1.27-1.41,1.57c-1.62,1.4-3.24,2.78-4.94,4-.73.57-1.89,1.44-2.54,2-.24.19-.51.49-.83.49a7.15,7.15,0,0,1-1.86-.81c-.38-.22-.87-.49-.87-1,0-.19.11-1.95.11-3.24v-9.45a22.91,22.91,0,0,0-.11-2.75v-.14a.24.24,0,0,1,.27-.27c.16,0,.84.11,1.05.14,1.41.19,2.19.27,2.19.56s-.11.25-.21.38a1.07,1.07,0,0,0-.25.7c0,.62,0,2,0,2.65Z"/><path class="cls-2" d="M483.55,323.13a7.87,7.87,0,0,0,1.65-.14,1.28,1.28,0,0,1,.27-.05c.46,0,1.4,1.4,1.4,1.83a.77.77,0,0,1-.16.41,6.07,6.07,0,0,0-.67,1.32,48.4,48.4,0,0,1-2.57,5,1,1,0,0,0-.19.54c0,.35.25.52.49.71s1.51,1.05,1.51,1.4-1.21,2.05-1.73,2.05a.6.6,0,0,1-.4-.22l-1.11-.91a.9.9,0,0,0-.59-.27c-.38,0-.68.37-.92.64a21.41,21.41,0,0,1-5.89,4.57,14.55,14.55,0,0,1-3.26,1.37c-.7,0-1.94-1.72-1.94-2.1s.45-.41,1.16-.62a19,19,0,0,0,7.72-4.86,1.1,1.1,0,0,0,.4-.68.63.63,0,0,0-.32-.56,30.52,30.52,0,0,0-2.7-1.46c-.27-.11-.81-.3-.81-.6s1.05-2,1.64-2a20.32,20.32,0,0,1,3.49,1.75,1,1,0,0,0,.51.17c.51,0,.76-.52,1.48-1.95a2.54,2.54,0,0,1,.17-.37,8.5,8.5,0,0,0,.7-1.79c0-.56-.7-.54-1.11-.54h-5.15c-.65,0-.84.22-1.19.71a39.69,39.69,0,0,1-3.51,4.15,1.44,1.44,0,0,1-.87.52c-.48,0-2.24-1.14-2.24-1.6,0-.21.25-.4.41-.51a24.78,24.78,0,0,0,7-9.69c.09-.22.19-.68.49-.68a5.94,5.94,0,0,1,1.51.65c.24.11,1.59.7,1.59.92s-.13.24-.27.3c-.4.16-.43.24-.81.89-.1.19-.24.43-.43.73a1.41,1.41,0,0,0-.21.56c0,.27.24.38.48.41Z"/><path class="cls-2" d="M507.49,325.4a.81.81,0,0,0,.81-.81l0-.92c0-1-.06-2.84-.19-3.75a1.54,1.54,0,0,1,0-.38c0-.27.19-.33.43-.33a22.61,22.61,0,0,1,2.27.27c.62.11.78.17.78.38a.47.47,0,0,1-.16.3c-.3.32-.35.38-.35,1.13s0,1.57,0,2.35l0,.89a.81.81,0,0,0,.84.78l1.43,0c.95,0,3.16-.14,3.56-.14.6,0,.71.22.71,1.65,0,1-.06,1.21-.84,1.21h-1.49l-1.88,0-1.46,0a.79.79,0,0,0-.81.78l.13,6.29v1.11c0,2.89-.13,4.61-4.94,4.61-.59,0-.89-.08-1.08-.65a5.89,5.89,0,0,1-.37-1.8c0-.27.1-.44.37-.44,0,0,.84.06,1.46.06,1.78,0,1.78-.54,1.78-2v-.68l-.08-4.94c0-.16-.11-.35-.32-.35a.51.51,0,0,0-.41.25,40.35,40.35,0,0,1-7.26,7,5.77,5.77,0,0,1-1.67,1c-.51,0-2-1.3-2-1.84,0-.24.65-.59.89-.73a30.18,30.18,0,0,0,7.91-6.77.86.86,0,0,0,.24-.46c0-.14-.05-.32-.4-.32l-4.13.05c-1,0-2.84.13-3.41.13s-.72-.29-.72-1.34c0-1.27-.06-1.54.75-1.54l1.86,0,1.49,0Z"/><path class="cls-2" d="M528.57,323.1c3.94-.24,7.88-.65,11.8-1.11,2-.24,4.1-.51,6.13-.83a1.34,1.34,0,0,1,.35,0c.4,0,.46.35.51.68a11.91,11.91,0,0,1,.24,2c0,.59-.56.54-1.21.56a13.43,13.43,0,0,0-4.48.57,8.22,8.22,0,0,0-4.59,4,10.16,10.16,0,0,0-1.3,4.75c0,3.13,2,3.89,4.75,3.89.46,0,1.06,0,1.35,0s.62,0,.62.46a7.78,7.78,0,0,1-.4,2.21c-.19.41-.41.46-.86.46-4.59,0-8.53-1.45-8.53-6.72a12,12,0,0,1,3-7.74c.29-.33.45-.52.45-.65s-.21-.33-.4-.33-1.43.22-1.7.25c-1.81.27-4.24.64-6,1.1a1.84,1.84,0,0,1-.4.06c-.38,0-.52-.6-.6-.89a13.12,13.12,0,0,1-.29-1.95C527,323.1,527.38,323.18,528.57,323.1Zm17.93,6.59c0,.4-1.08,1.13-1.38,1.13s-.27-.19-.38-.32c-.54-.79-1.13-1.54-1.73-2.27-.08-.08-.24-.24-.24-.38,0-.32,1.08-1,1.38-1A10.52,10.52,0,0,1,546.5,329.69Zm3.26-1.49c0,.38-1,1.14-1.37,1.14s-.3-.22-.41-.35a21.81,21.81,0,0,0-1.75-2.24.64.64,0,0,1-.19-.36c0-.32,1.05-1,1.37-1A11,11,0,0,1,549.76,328.2Z"/></g></g></svg>