<svg xmlns="http://www.w3.org/2000/svg" viewBox="0 0 322.8 133.74"><defs><style>.cls-1{fill:#076dae;}</style></defs><g id="レイヤー_2" data-name="レイヤー 2"><g id="テキスト"><path class="cls-1" d="M16.84,91.85a1.52,1.52,0,0,0-.63.17,31.7,31.7,0,0,1-6.94,2c-.88.14-3.2.48-4,.48a.85.85,0,0,1-.91-1c0-.57.54-.54,1.08-.57a30.45,30.45,0,0,0,9.21-1.87.44.44,0,0,0,.28-.37.4.4,0,0,0-.2-.37A12.36,12.36,0,0,1,12.13,88a.75.75,0,0,0-.59-.34.91.91,0,0,0-.48.15,24.79,24.79,0,0,1-4.59,2,4,4,0,0,1-.74.17c-.45,0-.71-.54-.71-.83,0-.48.48-.56,1-.73a21.93,21.93,0,0,0,7.26-3.94.29.29,0,0,0,.11-.26c0-.19-.2-.28-.37-.28h-.74c-.59,0-1.16,0-1.72,0-.94,0-1.31-.23-1.31-1.19,0-.51,0-1,0-1.53V76.54c0-.48,0-1,0-1.44,0-1,.29-1.25,1.25-1.25l1.78,0h1.39a.9.9,0,0,0,1-.59l.34-.83a.72.72,0,0,0,0-.25c0-.34-.29-.45-.57-.48H8c-1.07,0-2.18.08-3.28.08-.51,0-.54-.31-.54-.76s0-.77.54-.77c1.1,0,2.21.06,3.28.06H25.11c1.08,0,2.18-.06,3.26-.06.54,0,.57.26.57.77s0,.76-.57.76c-1.08,0-2.18-.08-3.26-.08H17.43a.8.8,0,0,0-.88.62c-.11.28-.19.54-.31.82a.61.61,0,0,0,0,.23c0,.34.26.45.54.48h4c.56,0,1.13,0,1.7,0,.93,0,1.3.2,1.3,1.16,0,.51,0,1,0,1.53v4.71c0,.51,0,1,0,1.47,0,1-.28,1.25-1.25,1.25-.59,0-1.19,0-1.75,0H14.94c-.06,0-.14,0-.14.11a.19.19,0,0,0,0,.12c.43.28.68.42.68.65a.22.22,0,0,1-.22.23c-.12,0-.26,0-.34,0-.29,0-.57.31-1,.68-.05,0-.05.08-.05.17s0,.17.22.17h5c.71,0,1.42,0,2.12,0a1.16,1.16,0,0,1,1.14,1.22c0,.93-2.52,2.72-3.29,3.23a.47.47,0,0,0-.23.34.42.42,0,0,0,.26.37A22.8,22.8,0,0,0,28.06,93h.31c.28,0,.57,0,.57.68s-.34.85-1,.85a25.86,25.86,0,0,1-3.28-.34A27,27,0,0,1,17.49,92,1.34,1.34,0,0,0,16.84,91.85Zm5.47-16.1a.54.54,0,0,0-.57-.57H11.25a.54.54,0,0,0-.56.57v.46a.54.54,0,0,0,.56.56H21.74a.54.54,0,0,0,.57-.56ZM11.25,78.08a.55.55,0,0,0-.56.59v.42a.56.56,0,0,0,.56.6H21.74a.56.56,0,0,0,.57-.6v-.42a.56.56,0,0,0-.57-.59Zm0,2.91a.56.56,0,0,0-.56.6V82a.56.56,0,0,0,.56.6H21.74a.57.57,0,0,0,.57-.6v-.45a.57.57,0,0,0-.57-.6Zm3,6.46c-.17,0-.37.09-.37.29A.31.31,0,0,0,14,88a14.91,14.91,0,0,0,2.36,1.73,1.26,1.26,0,0,0,.62.2,1.14,1.14,0,0,0,.62-.2c.46-.25,2.7-1.59,2.7-2s-.4-.26-.74-.26Z"/><path class="cls-1" d="M51.8,75.58a9,9,0,0,1,2.73,6.66,9.7,9.7,0,0,1-5.39,8.84,9.49,9.49,0,0,1-2.75,1c-.42,0-1.19-.85-1.19-1.19s.23-.28.4-.31a8.33,8.33,0,0,0,7.25-8.22A7.78,7.78,0,0,0,47,74.59a5.72,5.72,0,0,0-1.25-.2c-.79,0-.79.71-.82,1.19-.2,4.25-1.25,9.75-4,13.12a4.57,4.57,0,0,1-3.29,2,4.09,4.09,0,0,1-3.37-2.41,8.28,8.28,0,0,1-.8-3.8A11.31,11.31,0,0,1,44.81,72.89,9.51,9.51,0,0,1,51.8,75.58Zm-10-.74A9.83,9.83,0,0,0,35,84.34c0,1.53.54,4.67,2.52,4.67,1.79,0,3.43-3.11,4-4.59a30.16,30.16,0,0,0,1.78-8.92c0-.09,0-.23,0-.32a.55.55,0,0,0-.54-.59A4.72,4.72,0,0,0,41.77,74.84Z"/><path class="cls-1" d="M62.69,85.67c.73,2.89,3.57,3.54,6.18,3.54a40.49,40.49,0,0,0,8.44-.93,3.38,3.38,0,0,1,.54-.09c.42,0,.4.48.4.79,0,.49,0,.91-.37,1.08-1,.45-7.09.82-8.48.82-2.83,0-5.89-.42-7.62-2.92a5.29,5.29,0,0,1-.93-2.32C60.85,85.1,62,85,62,85,62.55,85,62.58,85.27,62.69,85.67Zm1.78-11.76a18.33,18.33,0,0,0,5.67.79,24.42,24.42,0,0,0,4.51-.42,1.07,1.07,0,0,1,.31-.06c.45,0,.48.62.48,1,0,.69-.09.86-.54.91-1.3.12-3,.2-4.31.2-1.87,0-5.21-.14-6.88-.85-.29-.11-.34-.26-.34-.54s.14-1.13.54-1.13A1.92,1.92,0,0,1,64.47,73.91Zm14.14-.2c.2.23,1.25,1.28,1.25,1.5a1.38,1.38,0,0,1-1,.94c-.17,0-.28-.17-.37-.28a26.8,26.8,0,0,0-2-2.16c-.09-.11-.23-.23-.23-.37a1.41,1.41,0,0,1,.94-.85C77.45,72.49,78.36,73.48,78.61,73.71ZM81,71.84c.23.23,1.25,1.25,1.25,1.5a1.4,1.4,0,0,1-1,.94.53.53,0,0,1-.4-.28c-.62-.77-1.28-1.48-2-2.19-.08-.08-.25-.22-.25-.34,0-.28.65-.88.93-.88S80.79,71.59,81,71.84Z"/><path class="cls-1" d="M93.78,74.93c.51,0,.53.34.53.77s0,.73-.53.73c-.77,0-1.53-.08-2.3-.05-.54,0-.77.25-.77.79v4c0,.28.12.57.46.57a.71.71,0,0,0,.23-.06c.76-.31,2.18-1,2.35-1,.39,0,.59.51.59.85a.52.52,0,0,1-.31.54c-.2.11-2.32,1-2.63,1.13a1,1,0,0,0-.69,1v6.09c0,.57,0,1.14,0,1.7,0,2.24-1.81,2.35-3.79,2.35-.71,0-1.19,0-1.19-1.07,0-.34.11-.51.48-.51h.42c.31,0,.63,0,.94,0,1.61,0,1.61-.56,1.61-2.29V84.9c0-.31-.14-.56-.48-.56a.56.56,0,0,0-.23,0c-1.16.39-1.78.59-2.09.73s-.37.26-.45.54-.12.26-.29.26c-.42,0-1-1.56-1-1.68s.4-.31.59-.34a32.83,32.83,0,0,0,3.23-1,.92.92,0,0,0,.71-1V77.17a.69.69,0,0,0-.79-.79h-.57c-.76,0-1.56.05-2.32.05-.48,0-.51-.34-.51-.73s0-.77.54-.77c.76,0,1.53.06,2.29.06h.57c.57,0,.79-.23.79-.8v-.71a27.73,27.73,0,0,0-.11-3.42,1.06,1.06,0,0,1,0-.29c0-.31.2-.37.43-.37.39,0,.88.09,1.3.12.23,0,.68,0,.68.34s-.17.25-.43.39c-.42.29-.34.88-.34,3.23v.71c0,.57.23.8.77.8C92.25,75,93,74.93,93.78,74.93Zm8.3,9.49c0,.46.25.63.68.63h3.45c1,0,2-.06,3-.06.51,0,.54.31.54.76s0,.77-.54.77c-1,0-2-.06-3-.06h-2.83c-.25,0-.48.09-.48.4a.76.76,0,0,0,.06.25,15.51,15.51,0,0,0,6.4,5.61c.26.15.54.29.54.6s-.37.93-.74.93c-.59,0-2.61-1.38-3.12-1.78a15.27,15.27,0,0,1-4.19-4.82c-.08-.11-.14-.2-.31-.2s-.23.15-.31.26c-1.11,2.72-4.22,5-6.94,6a10.48,10.48,0,0,1-1.71.48c-.42,0-.7-.74-.7-1.08s.37-.36.7-.45c2.92-.76,6.07-2.61,7.32-5.47a.65.65,0,0,0,0-.22c0-.46-.45-.46-.56-.46H96.72c-1,0-2,.06-3,.06-.51,0-.54-.31-.54-.77s0-.76.54-.76c1,0,2,.06,3,.06h3c.54,0,.83-.17.91-.74a14.71,14.71,0,0,0,.14-1.87c0-.54-.22-.74-.76-.74h-2.1a.91.91,0,0,0-1,.54c-.48.82-.82,1.47-1.36,1.47-.31,0-.88-.22-.88-.59a1,1,0,0,1,.28-.51,26.46,26.46,0,0,0,2.61-4.9c.06-.2.11-.43.37-.43s1.53.46,1.53.74-.28.23-.43.25-.31.43-.76,1.36a.56.56,0,0,0-.06.23c0,.31.23.4.51.43h5.41c1.11,0,2.19-.06,3.26-.06.51,0,.57.23.57.76s-.06.77-.57.77c-1.07,0-2.15-.06-3.26-.06H103c-.57,0-.79.2-.82.77s-.09,1.22-.14,1.84Zm3.48-9.58c.2,0,.37-.11.37-.34a.54.54,0,0,0-.08-.28,7.68,7.68,0,0,1-1.51-1.81,1,1,0,0,1,.85-.77.73.73,0,0,1,.46.23A22.14,22.14,0,0,1,107.49,74c.43.5,2.07,2.71,2.07,3.25,0,.37-.54.68-.85.68s-.51-.45-1.11-1.33a.83.83,0,0,0-.82-.48h-.11c-3.37.31-6.77.57-10.15.79-.19,0-.28.14-.36.34a.35.35,0,0,1-.32.26c-.36,0-.73-1.64-.73-1.73,0-.26.14-.31,1-.31l1,0a1.24,1.24,0,0,0,1.14-.62,42.64,42.64,0,0,0,2.6-5.08c.06-.14.12-.31.29-.31a3.08,3.08,0,0,1,.9.43c.26.17.68.37.68.62s-.22.23-.56.26a.34.34,0,0,0-.26.19c-.82,1.53-.82,1.85-1.95,3.74a.4.4,0,0,0-.09.23.35.35,0,0,0,.43.37C102,75.16,103.78,75,105.56,74.84Z"/><path class="cls-1" d="M119,90.57c0,.54,0,1.08,0,1.62,0,2.18-1.9,2.21-3.65,2.21-.65,0-1.16,0-1.16-1.11a.42.42,0,0,1,.48-.48c.14,0,.71.06,1.36.06,1.41,0,1.41-.46,1.41-2.07V85.27c0-.28-.11-.56-.48-.56a.74.74,0,0,0-.22.05l-1.9.65c-.51.17-.54.26-.65.6-.06.14-.12.25-.29.25-.39,0-1-1.55-1-1.64,0-.28.31-.31.59-.37.6-.14,2.53-.73,3.26-1,.57-.22.65-.48.65-1V77.39c0-.56-.22-.79-.79-.79h-.37c-.79,0-1.58.06-2.38.06-.51,0-.51-.37-.51-.77s0-.76.51-.76c.8,0,1.59.05,2.38.05h.37c.57,0,.79-.22.79-.79v-.85c0-1.08,0-2.38-.11-3.43,0-.08,0-.2,0-.28,0-.31.2-.37.46-.37s.87.09,1.27.11.68,0,.68.34-.17.26-.4.4c-.45.28-.36.88-.36,3.23v.85c0,.57.22.79.79.79H120c.8,0,1.59-.05,2.36-.05.53,0,.53.34.53.76s0,.77-.51.77c-.79,0-1.58-.06-2.38-.06h-.25c-.57,0-.79.23-.79.79v4.26a.47.47,0,0,0,.48.53.93.93,0,0,0,.23,0c1.21-.51,1.13-.49,2.29-1a1.07,1.07,0,0,1,.51-.2c.42,0,.62.54.62.88a.54.54,0,0,1-.31.51c-.42.19-2.63,1.1-3.14,1.3a1,1,0,0,0-.68,1.08Zm10.76-1.73a.78.78,0,0,0,.49-.14,19.37,19.37,0,0,0,4.42-3.91,1.22,1.22,0,0,0,.28-.57c0-.36-.54-.31-1.39-.31h-6a1.67,1.67,0,0,0-1.31.48c-.65.63-4.08,3.52-4.79,3.52a.93.93,0,0,1-.76-.8c0-.31.42-.53.71-.73a25.76,25.76,0,0,0,6.71-6.12c.12-.17.29-.46.48-.46s1.53.6,1.53.91-.34.25-.51.28-.65.6-1.05,1a.46.46,0,0,0-.08.23c0,.2.14.28.34.28h4.93l2.13,0a1.24,1.24,0,0,1,1.27,1.21,2.29,2.29,0,0,1-.48,1.08,24.49,24.49,0,0,1-5.89,5.36A32.09,32.09,0,0,1,122,94a3.8,3.8,0,0,1-1,.2.88.88,0,0,1-.82-.91c0-.51.65-.6,1.28-.77a30.3,30.3,0,0,0,6.23-2.4.6.6,0,0,0,.37-.57.84.84,0,0,0-.14-.43,20.81,20.81,0,0,0-1.76-2.32c-.11-.14-.34-.37-.34-.57a1,1,0,0,1,.85-.76c.54,0,2.13,2.46,2.47,3A.66.66,0,0,0,129.76,88.84Zm-1.95-17.79c-.34,0-.45,0-.6.34a33.85,33.85,0,0,1-1.87,3.09.64.64,0,0,0-.17.45A20.77,20.77,0,0,0,127,78.22a3.57,3.57,0,0,1,.59,1.36,1,1,0,0,1-1,.82c-.26,0-.29-.14-.45-.54a38.63,38.63,0,0,0-2.33-4.28,1.12,1.12,0,0,1-.25-.71,1.87,1.87,0,0,1,.51-1,22,22,0,0,0,2.32-3.94c.11-.22.14-.34.31-.34s1.56.85,1.56,1.19S128,71.05,127.81,71.05Zm4.53,0c-.51,0-.39,0-1.1,1.14-.48.76-1,1.53-1.5,2.29a.6.6,0,0,0-.12.37.9.9,0,0,0,.2.51c.48.65,2.47,3.51,2.47,4.17,0,.45-.57.85-1,.85-.25,0-.31-.2-.45-.54a21.2,21.2,0,0,0-2.35-4.11,1.67,1.67,0,0,1-.43-.94,1.88,1.88,0,0,1,.51-1A26,26,0,0,0,131,70c.12-.23.15-.34.32-.34s1.55.85,1.55,1.19S132.57,71.1,132.34,71.1ZM137,71c-.43,0-.45.06-.65.37-.54.88-1.33,2.15-1.93,3a.73.73,0,0,0-.17.46,13,13,0,0,0,1.33,2.46,10.39,10.39,0,0,1,1.33,2.61,1,1,0,0,1-1,.82c-.25,0-.31-.17-.45-.54a49.07,49.07,0,0,0-2.58-4.7,1.11,1.11,0,0,1-.26-.71,2,2,0,0,1,.51-1,20.76,20.76,0,0,0,2.41-3.88c.09-.14.14-.31.31-.31s1.56.85,1.56,1.19S137.19,71,137,71Z"/><path class="cls-1" d="M147.36,72.55c.68.31,1,.45,1,.71s-.14.28-.39.39c-.51.23-.71.83-1,1.68a22.92,22.92,0,0,0-1.34,8,14.75,14.75,0,0,0,.85,5.35c.09.17.15.32.34.32s.4-.34,1-1.65c.31-.68.45-1,.68-1s.51.14.51.34-.4,1.42-.48,1.67a13.22,13.22,0,0,0-.54,2.49,3.89,3.89,0,0,0,.08.74v.26c0,.36-1.13.85-1.3.85-.43,0-.88-1-1.05-1.39a19.48,19.48,0,0,1-1.64-8.3,30.74,30.74,0,0,1,1.56-9.21c.14-.43.25-.85.36-1.28.06-.2.12-.42.34-.42A6.89,6.89,0,0,1,147.36,72.55ZM152,87.09a5.41,5.41,0,0,0,4.73,2.09,22.34,22.34,0,0,0,6.24-.93,2.81,2.81,0,0,1,.48-.12c.34,0,.31.34.31.66s0,1.13-.25,1.27c-.68.43-5.39.79-6.41.79a7.93,7.93,0,0,1-6-2.09c-.14-.14-.45-.43-.45-.65s.51-1.31.9-1.31A.46.46,0,0,1,152,87.09Zm1.22-12.64a14.18,14.18,0,0,0,3.77.48,18.75,18.75,0,0,0,4.36-.57,2.41,2.41,0,0,1,.48-.08c.37,0,.37.56.37.9s0,.74-.11.86a25.81,25.81,0,0,1-4.85.5A18.92,18.92,0,0,1,152.6,76c-.31-.14-.31-.46-.31-.77s0-.9.4-.9A1.62,1.62,0,0,1,153.2,74.45Z"/><path class="cls-1" d="M178.25,90.66c-2.63.51-5.24,1-7.88,1.33a.36.36,0,0,0-.28.22c-.09.2-.17.4-.37.4-.4,0-.76-1.64-.76-1.73,0-.31.19-.28.76-.31a6.75,6.75,0,0,0,.68-.06l1.28-.17c.53-.08.73-.31.73-.87V81.84c0-.51-.2-.76-.7-.79-.66,0-2,.06-2.56.06s-.56-.29-.56-.77,0-.76.56-.76c1.11,0,2.19,0,3.29,0h17.17c1.08,0,2.16,0,3.26,0,.51,0,.57.25.57.76s0,.77-.54.77c-1.11,0-2.21-.06-3.29-.06h-8.36c-.53,0-.76.23-.76.79v8.48c0,1,.06,2,.06,2.94,0,.71-.06,1.11-.83,1.11s-.79-.37-.79-1.05,0-1.36,0-2c0-.34-.14-.62-.54-.62Zm-4.33-8.45a.64.64,0,0,0,.67.71h3.72a.66.66,0,0,0,.68-.71v-.48a.66.66,0,0,0-.68-.68h-3.72a.63.63,0,0,0-.67.68Zm0,3.32a.65.65,0,0,0,.67.71h3.72a.67.67,0,0,0,.68-.71V84.9a.66.66,0,0,0-.68-.68h-3.72a.64.64,0,0,0-.67.68Zm0,3.74c0,.39.14.68.56.68h.14c1.28-.2,2.55-.43,3.83-.65a.6.6,0,0,0,.54-.68v-.29c0-.56-.23-.79-.8-.79h-3.51c-.57,0-.76.23-.76.76ZM188,76.4c0,.26,0,.51,0,.8,0,.88-.48,1-1.24,1-.57,0-1.14,0-1.7,0h-8.19l-1.64,0c-.77,0-1.31-.12-1.31-1v-5.8c0-.91.51-1,1.65-1,.36,0,.79,0,1.3,0h9.89c.73,0,1.24.14,1.24,1,0,.28,0,.54,0,.82Zm-1.48-4a.56.56,0,0,0-.59-.57H176a.54.54,0,0,0-.57.57V73a.54.54,0,0,0,.57.57H186a.56.56,0,0,0,.59-.57Zm-10.4,2.49a.67.67,0,0,0-.68.71v.54a.66.66,0,0,0,.68.68h9.69a.66.66,0,0,0,.71-.68v-.54a.67.67,0,0,0-.71-.71Zm10.94,16.27a.72.72,0,0,0-.54.22c-.79.66-3.79,2.92-4.67,2.92a.88.88,0,0,1-.8-.82c0-.42.43-.54.83-.74a16.77,16.77,0,0,0,3.68-2.4.83.83,0,0,0,.31-.6.84.84,0,0,0-.2-.51A15.29,15.29,0,0,1,183.61,85c-.15-.45-.32-.62-.8-.62l-.76,0c-.51,0-.57-.29-.57-.77s.06-.77.57-.77c1.07,0,2.12.06,3.2.06h2.69c.65,0,1.33,0,2,0a1.2,1.2,0,0,1,1.25,1.19,6,6,0,0,1-.48,1.53,16.18,16.18,0,0,1-2.18,3.66.92.92,0,0,0-.2.54.73.73,0,0,0,.28.56,14.92,14.92,0,0,0,4.17,2.53c.25.08.39.17.39.45s-.25,1-.73,1c-1,0-4-2.18-4.82-2.92A.72.72,0,0,0,187.09,91.14Zm0-2.69a.54.54,0,0,0,.48-.29,11.34,11.34,0,0,0,1.76-3.45c0-.51-.85-.43-1.45-.43H185.7c-.31,0-.62.14-.62.51,0,.09,0,.17,0,.23a10.85,10.85,0,0,0,1.56,3.14A.61.61,0,0,0,187.12,88.45Z"/><path class="cls-1" d="M198.68,81.53c-.39,0-.76.06-1.16.06s-.51-.23-.51-.74.14-.76.54-.76.76,0,1.13,0h.65c.57,0,1.14,0,1.7,0,1.17,0,1.42.39,1.42,1.27s0,1.45,0,2.18V87.4a11.9,11.9,0,0,0,.06,1.81A3.85,3.85,0,0,0,205.6,92a58,58,0,0,0,8,.31c2.6,0,5.18-.06,7.76-.06.28,0,.4.11.4.43,0,1.24-.37,1-3,1h-7.11c-2.09,0-6.32.14-8.07-1a5.41,5.41,0,0,1-1.65-1.58.62.62,0,0,0-.48-.32.69.69,0,0,0-.4.17c-.85.74-1.67,1.48-2.52,2.19a.37.37,0,0,0-.11.28c0,.08,0,.17,0,.25s-.06.37-.29.37-1.47-1-1.47-1.24.43-.43,1-.88c.71-.57,2-1.73,2.75-2.38a1.4,1.4,0,0,0,.51-1.25v-6c0-.54-.23-.8-.79-.8Zm3-5.49c-.36,0-.51-.29-.68-.57a26.91,26.91,0,0,0-3.42-4.37c-.15-.14-.29-.25-.29-.48s.48-.71.85-.71a.69.69,0,0,1,.51.26c.57.59,1.59,1.84,2.13,2.49a11.64,11.64,0,0,1,1.75,2.69C202.56,75.75,202.05,76,201.71,76ZM214,71.73h3.86c1.1,0,2.21-.09,3.28-.09.51,0,.51.31.51.74s0,.71-.51.71c-1.07,0-2.18-.06-3.28-.06H207.72c-1.1,0-2.21.06-3.29.06-.51,0-.51-.29-.51-.71s0-.74.51-.74c1.08,0,2.19.09,3.29.09h3.52c.45,0,.65-.2.68-.65a8.67,8.67,0,0,0-.12-1.25c0-.09,0-.17,0-.26,0-.28.2-.34.43-.34a5.83,5.83,0,0,1,.74.06c.56.09,1.1.06,1.1.37s-.17.25-.37.4c-.37.22-.34.51-.34,1S213.53,71.73,214,71.73Zm3,4.56,1.64,0c.94,0,1.19.2,1.19.94,0,.51,0,1,0,1.5V87c0,.45.06.91.06,1.36,0,2.13-1.33,2.15-4,2.15-.68,0-1,0-1-1,0-.34.09-.45.37-.45.63,0,1.22.05,1.82.05,1.27,0,1.36-.19,1.36-1.41V78.42c0-.57-.23-.8-.77-.8H207.38c-.54,0-.76.23-.76.8v8.44c0,.91,0,1.81,0,2.72,0,.59-.11.76-.73.76s-.77-.17-.77-.73c0-.91.06-1.84.06-2.75V78.75c0-.48,0-1,0-1.44,0-.79.17-1,1.19-1,.54,0,1,0,1.59,0h5.5a1.06,1.06,0,0,0,1.13-.59,13.78,13.78,0,0,0,1.08-2.22c.05-.14.11-.28.28-.28s1.56.57,1.56.91-.23.2-.43.22a.45.45,0,0,0-.37.26c-.08.17-.39.79-.51,1a.85.85,0,0,0-.05.25c0,.32.22.4.48.4Zm-5.78,7.11c.48,0,.68-.2.68-.68v-.59c0-.46-.2-.68-.68-.68h-1.05c-.68,0-1.36,0-1.73,0s-.48-.31-.48-.68.05-.62.48-.62,1.08,0,1.73,0h1.05c.48,0,.65-.17.68-.62a4.74,4.74,0,0,0-.12-.94v-.25c0-.29.17-.34.4-.34s.85.08,1.13.11.66,0,.66.31-.17.25-.4.4-.28.36-.31.68c0,.48.2.65.65.65h1c.68,0,1.36,0,1.73,0s.48.31.48.68-.06.62-.48.62-1.05,0-1.73,0h-1c-.48,0-.68.22-.68.68v.59c0,.48.2.65.68.68l.85,0c.62,0,1,.26,1,.91v3c0,.71-.4.91-1,.91-.31,0-.6,0-.88,0h-2.38c-.59,0-.88.23-.88.85,0,.37-.08.46-.68.46-.36,0-.62,0-.62-.49V84.37c0-.68.28-1,1-1,.32,0,.63,0,.91,0Zm-2.92-9.21a.87.87,0,0,1-.09-.31c0-.31.54-.62.83-.62s.42.31,1,1.39a1.72,1.72,0,0,1,.34.85c0,.34-.53.56-.84.56S209,75.58,208.29,74.19Zm2.29,12.07a.66.66,0,0,0,.71.68h2.44a.66.66,0,0,0,.68-.68v-1a.66.66,0,0,0-.68-.68h-2.44a.66.66,0,0,0-.71.68Z"/><path class="cls-1" d="M235.86,71.08c0,.19-.17.34-.37.53a21,21,0,0,0-1,3.29.61.61,0,0,0,0,.23.3.3,0,0,0,.32.28,1.21,1.21,0,0,0,.31-.06c.54-.11,1.67-.42,2.15-.56a1.21,1.21,0,0,1,.31-.09c.34,0,.4,1,.4,1.19,0,.6-.26.63-3.32,1.16-.56.12-.85.15-1,.74a57,57,0,0,1-2.87,7c-.56,1.22-1.3,2.67-2,3.83a.48.48,0,0,1-.45.31c-.31,0-1.25-.43-1.25-.82a2.19,2.19,0,0,1,.43-.88,50.34,50.34,0,0,0,3.91-7.76,16.44,16.44,0,0,0,.53-1.59.29.29,0,0,0-.31-.28c-.08,0-3,.34-3.65.34h-.37c-.6,0-.65-.86-.65-1.31s.25-.37.56-.37c.82,0,4.4-.08,4.93-.42.34-.23.4-.63.57-1.31a14,14,0,0,0,.62-3.91c0-.25.06-.45.32-.45S235.86,70.68,235.86,71.08Zm4.56,8s-.08.85-.08,1.61c0,1.17.2,5.56.37,6.52.11.54.53.62,1,.77.65.22,4.22,1.87,4.22,2.46,0,.37-.54,1-1,1a1.24,1.24,0,0,1-.66-.34,11.1,11.1,0,0,0-3.17-1.73c-.28,0-.25.31-.25.48,0,2.27-1.19,3.52-3.49,3.52-1.87,0-4.45-1.11-4.45-3.32s2.3-2.89,4.17-2.89a13.56,13.56,0,0,1,1.58.09h.15a.31.31,0,0,0,.31-.34c0-.77-.51-7-.6-7.74,0-.09,0-.17,0-.26,0-.28.23-.36.46-.36S240.42,78.64,240.42,79Zm-6,11c0,1.28,1.87,1.87,2.91,1.87,1.42,0,2-.82,2-2.18,0-.88-.12-1.13-2.07-1.13C236.34,88.59,234.42,88.73,234.42,90ZM247,79.18c0,.43-.8.94-1.14.94s-.28-.09-.39-.26a14.05,14.05,0,0,0-3.38-3.46c-.14-.11-.36-.28-.36-.48a1.58,1.58,0,0,1,1-1C243.4,74.93,247,78.53,247,79.18Z"/><path class="cls-1" d="M257.88,73.83c.23,0,.48.08.48.34s-.08.22-.22.36a1.06,1.06,0,0,0-.18.74,53.3,53.3,0,0,1-.19,5.52,15.2,15.2,0,0,1-5,10.18.51.51,0,0,1-.34.17c-.31,0-1.41-.46-1.41-.85,0-.23.34-.43.56-.6,4.11-3.23,4.82-7.85,4.82-12.72a17.13,17.13,0,0,0-.14-2.69c0-.09,0-.26,0-.34a.28.28,0,0,1,.31-.31A10.34,10.34,0,0,1,257.88,73.83ZM264.4,88c0,.2,0,.54.28.54a1.73,1.73,0,0,0,.79-.42,77,77,0,0,0,7.85-6.44c.12-.11.31-.34.48-.34s.86.74.86,1.08-.43.6-.6.74A103.49,103.49,0,0,1,265.47,90c-.11.09-.25.17-.34.26s-.36.37-.65.37a4.28,4.28,0,0,1-1.24-.51c-.37-.23-.6-.32-.6-.71s.11-1.73.11-3.4V77.42a27,27,0,0,0-.11-3.71,2,2,0,0,1-.06-.42.28.28,0,0,1,.29-.29,11.15,11.15,0,0,1,1.58.34c.17.06.34.12.34.34s-.08.23-.19.34-.2.8-.2,1.79Z"/><path class="cls-1" d="M292.4,74.87a14.25,14.25,0,0,0,2.46-.11,1.21,1.21,0,0,1,.34-.06c.34,0,1.08,1.19,1.08,1.48a1,1,0,0,1-.23.48,4.93,4.93,0,0,0-.79,1.42,45.55,45.55,0,0,1-2.84,5.35.92.92,0,0,0-.22.6.7.7,0,0,0,.34.62c.88.62,1.9,1.3,1.9,1.7s-.52,1.16-.88,1.16a.68.68,0,0,1-.43-.23c-.45-.36-.93-.7-1.39-1a1,1,0,0,0-.65-.32c-.45,0-.65.32-.93.66a23.48,23.48,0,0,1-6.38,5.1,21.26,21.26,0,0,1-3.43,1.55A1.73,1.73,0,0,1,279.16,92c0-.29.4-.37,1-.57a20.21,20.21,0,0,0,8.72-5.75,1.26,1.26,0,0,0,.4-.8.84.84,0,0,0-.48-.73,35,35,0,0,0-3.6-2c-.14-.08-.48-.22-.48-.42s.51-1.14.9-1.14a25.44,25.44,0,0,1,3.94,2,2,2,0,0,0,.85.37c.54,0,.71-.43,1-.85.48-.77,2.38-4.48,2.38-5.16s-.85-.6-1.31-.6H285.2c-.46,0-.65.37-.91.71a40.06,40.06,0,0,1-3.94,4.82,1,1,0,0,1-.59.25c-.4,0-1.25-.45-1.25-.85,0-.17.2-.34.31-.42a27.55,27.55,0,0,0,7.14-10c.06-.17.2-.68.46-.68a8.72,8.72,0,0,1,1.5.85c.2.11.31.17.31.37s-.4.39-.57.45-.31.4-.45.65c-.28.54-.6,1-.91,1.59a.58.58,0,0,0-.11.37.4.4,0,0,0,.45.39Z"/><path class="cls-1" d="M313.31,77.34a.82.82,0,0,0,.79-.82l0-1.53a29,29,0,0,0-.19-3.66c0-.11,0-.28,0-.37,0-.25.14-.31.34-.31a9.29,9.29,0,0,1,1.73.34.41.41,0,0,1,.25.37c0,.17-.14.25-.25.4-.26.22-.26.53-.26,1,0,.71.06,1.44.06,2.18l0,1.59a.79.79,0,0,0,.9.79l2.13,0c.9,0,2.89-.14,3.4-.14s.62.23.62.88-.11.82-.74.82l-1.72,0h-1.53l-2.21,0a.78.78,0,0,0-.8.79l.14,7.6c0,.25,0,.65,0,1a6.2,6.2,0,0,1-.59,3.14c-.82,1.14-2.84,1.28-4.14,1.28a.57.57,0,0,1-.65-.45,2.59,2.59,0,0,1-.2-.83c0-.31.2-.36.48-.36,3.09,0,3.46-.2,3.46-2.67v-.88l-.14-7.19a.3.3,0,0,0-.31-.31c-.17,0-.29.14-.4.28a37.9,37.9,0,0,1-8.16,8.13A10.93,10.93,0,0,1,303,89.81a1.3,1.3,0,0,1-.94-1c0-.29.54-.54.82-.71a33.9,33.9,0,0,0,9.27-8.56.4.4,0,0,0,.14-.28c0-.4-.42-.32-.45-.32l-5.76.09c-.93,0-3,.11-3.42.11s-.6-.34-.6-.87.06-.8.68-.8,1.16,0,1.76,0l1.56,0Z"/><path class="cls-1" d="M16.27,117.08a.82.82,0,0,0,.79-.82l0-1.53a31,31,0,0,0-.2-3.66c0-.11,0-.28,0-.37,0-.25.14-.31.34-.31a9.29,9.29,0,0,1,1.73.34.41.41,0,0,1,.25.37c0,.17-.14.25-.25.4s-.26.53-.26,1c0,.71.06,1.44.06,2.18l0,1.59a.79.79,0,0,0,.9.79l2.13,0c.91,0,2.89-.14,3.4-.14s.62.23.62.88-.11.82-.73.82l-1.73,0H21.77l-2.21,0a.78.78,0,0,0-.8.79l.15,7.6c0,.25,0,.65,0,1a6.2,6.2,0,0,1-.59,3.14c-.82,1.14-2.84,1.28-4.14,1.28a.57.57,0,0,1-.65-.45,2.59,2.59,0,0,1-.2-.83c0-.31.2-.36.48-.36,3.09,0,3.46-.2,3.46-2.67v-.88L17.15,120a.3.3,0,0,0-.31-.32c-.17,0-.29.15-.4.29a37.68,37.68,0,0,1-8.16,8.13,10.87,10.87,0,0,1-2.35,1.44,1.28,1.28,0,0,1-.94-1c0-.29.54-.54.82-.71a33.9,33.9,0,0,0,9.27-8.56.38.38,0,0,0,.14-.28c0-.4-.42-.32-.45-.32L9,118.75c-.94,0-3,.11-3.43.11S5,118.52,5,118s.06-.79.68-.79,1.16,0,1.76,0l1.56,0Z"/><path class="cls-1" d="M34.69,119.88c0,.68.14,4.76,0,5.05s-.54.39-.82.39c-.8,0-.91-.34-.91-.9,0-1.5.06-3,.06-4.54v-3.6a26.39,26.39,0,0,0-.12-3.71,3,3,0,0,1,0-.42.28.28,0,0,1,.31-.29,10.56,10.56,0,0,1,1.56.32c.17,0,.37.14.37.36s-.12.23-.2.34c-.29.32-.23,1.62-.23,2.07Zm11.5.17c0,1.11,0,2.21-.08,3.35-.17,2.77-.65,5.32-2.64,7.39-1,1-3.57,2.86-4.1,2.86-.29,0-1.31-.65-1.31-1s.54-.48.74-.56c3.14-1.56,4.9-3.29,5.44-6.86a34.92,34.92,0,0,0,.31-5.1v-6.52a9.84,9.84,0,0,0-.11-1.78c0-.09,0-.26,0-.34,0-.23.17-.29.37-.29a12,12,0,0,1,1.27.17c.23,0,.6.06.6.37a.56.56,0,0,1-.23.37c-.23.23-.23,1.25-.23,1.59Z"/><path class="cls-1" d="M59,119.94c1.1.65,1.81,1,1.81,1.36s-.39,1.1-.9,1.1a1.07,1.07,0,0,1-.6-.28,44.32,44.32,0,0,0-4.11-2.52c-.2-.11-.42-.23-.42-.45s.39-1.08.85-1.08A26.2,26.2,0,0,1,59,119.94Zm15.16-3.09a5.6,5.6,0,0,1-.4,1.22,25.9,25.9,0,0,1-5.16,8,25.85,25.85,0,0,1-9.38,5.53,1.33,1.33,0,0,0-.87.65c-.09.17-.2.37-.43.37s-.42-.31-.65-.77a6.8,6.8,0,0,1-.45-1.13c0-.23.31-.28.48-.34a32.75,32.75,0,0,0,3.43-1.13,19.36,19.36,0,0,0,7.22-4.74,21.67,21.67,0,0,0,4.68-8.19c.08-.25.17-.59.45-.59S74.11,116.51,74.11,116.85Zm-12.24-3.29c.28.2,1.78,1.25,1.92,1.42a.4.4,0,0,1,.15.31c0,.31-.46,1.08-.94,1.08a1.13,1.13,0,0,1-.62-.34,38.68,38.68,0,0,0-3.66-2.69c-.17-.12-.39-.23-.39-.46s.5-1,.9-1A15.5,15.5,0,0,1,61.87,113.56Zm6.94-2.43a6.67,6.67,0,0,1,1.53,1.07c.25.2,1.42,1.11,1.42,1.39s-.57,1-.94,1c-.17,0-.28-.14-.4-.22a23.66,23.66,0,0,0-2.18-1.93c-.11-.08-.28-.23-.28-.37S68.53,111.13,68.81,111.13Zm2.27-2.3c.28,0,1.27.85,1.53,1S74,111,74,111.27s-.56,1-.93,1c-.17,0-.29-.14-.4-.26a28.75,28.75,0,0,0-2.18-1.92c-.09-.06-.28-.2-.28-.34S70.79,108.83,71.08,108.83Z"/><path class="cls-1" d="M89.13,118.13c.93,0,.82-1,.82-2.27s0-3.4-.14-4.45a1.51,1.51,0,0,1-.06-.37c0-.2.17-.28.34-.28a12.35,12.35,0,0,1,1.47.2c.17,0,.4.11.4.34s-.11.22-.23.37-.17,1.75-.17,2.15c0,1.13,0,2.29,0,3.43a.78.78,0,0,0,.76.88H97c1.11,0,2.24-.06,3.38-.06.59,0,.65.25.65.85s-.09.82-.65.82c-1.14,0-2.27-.08-3.38-.08H92.16c-.6,0-.77.45-.82,1a14.55,14.55,0,0,1-5.87,10.74A13.52,13.52,0,0,1,83,132.8c-.34,0-1.28-.76-1.28-1.07s.4-.4.71-.54c4.31-1.84,6.52-5.75,7.2-10.23a4.32,4.32,0,0,0,.08-.57.74.74,0,0,0-.71-.73H82.64c-1.14,0-2.24.08-3.37.08-.57,0-.65-.25-.65-.85s0-.82.65-.82c1.13,0,2.23.06,3.37.06Z"/><path class="cls-1" d="M110.83,113.56c.23.06.49.09.49.34s-.09.23-.23.37a1.11,1.11,0,0,0-.17.74,50.65,50.65,0,0,1-.2,5.52,15.15,15.15,0,0,1-5,10.18.53.53,0,0,1-.34.17c-.31,0-1.42-.46-1.42-.85,0-.23.34-.43.57-.6,4.11-3.23,4.81-7.85,4.81-12.72a17.13,17.13,0,0,0-.14-2.69c0-.09,0-.26,0-.34a.29.29,0,0,1,.32-.31A12.07,12.07,0,0,1,110.83,113.56Zm6.52,14.17c0,.2,0,.54.28.54a1.74,1.74,0,0,0,.8-.43,76.66,76.66,0,0,0,7.85-6.43c.11-.11.31-.34.48-.34s.85.74.85,1.08-.43.6-.6.74a103.35,103.35,0,0,1-8.58,6.88,2.51,2.51,0,0,0-.34.26c-.2.17-.37.37-.65.37a4.22,4.22,0,0,1-1.25-.51c-.37-.23-.6-.32-.6-.71s.12-1.73.12-3.4v-8.62a27,27,0,0,0-.12-3.71,3,3,0,0,1,0-.42.27.27,0,0,1,.28-.29,11.28,11.28,0,0,1,1.59.34c.17.06.34.12.34.34s-.09.23-.2.34-.2.8-.2,1.79Z"/><path class="cls-1" d="M139.09,116a.68.68,0,0,0,.57-.71,1,1,0,0,0-.06-.28l-.11-.57a26.12,26.12,0,0,0-.74-3.28,1.34,1.34,0,0,1-.09-.31c0-.37.4-.37,1.82-.37.19,0,.62,0,.62.31a1,1,0,0,1-.17.4.93.93,0,0,0-.17.53c0,.4.25,1.93.34,2.41l.14.8a.85.85,0,0,0,.91.65l2.95-.43c.45-.05,3.42-.56,3.54-.56.51,0,.56.73.56,1.13s-.19.51-1.47.65c-.57.06-1.39.17-2.44.31l-2.91.4a.7.7,0,0,0-.57.85l.88,4.7a.84.84,0,0,0,.9.63l5.44-.8c.43-.05,3.46-.56,3.55-.56.53,0,.56.73.56,1.13s-.25.51-1.75.68c-.54.06-1.19.14-2.13.28l-5.44.8a.71.71,0,0,0-.57.82l.51,2.72c.15.71.88,4,.88,4.36,0,.6-.71.71-1.19.71s-.59-.62-.71-1.33c-.17-1-.39-2.5-.56-3.43l-.54-2.78a.82.82,0,0,0-.91-.62l-5.67.82c-.51.09-3.34.57-3.54.57-.54,0-.59-.71-.59-1.14s.31-.5,1.58-.65c.57,0,1.31-.14,2.33-.28l5.64-.85a.69.69,0,0,0,.62-.82l-.91-4.71a.8.8,0,0,0-.9-.65l-3.18.46c-.45.05-3.48.56-3.57.56-.51,0-.56-.76-.56-1.16s.51-.57,1.75-.68c.57-.06,1.19-.11,2.16-.25Zm12-4c.23.22,1.34,1.19,1.34,1.44s-.6,1-1,1c-.17,0-.28-.14-.39-.25a23.77,23.77,0,0,0-2.1-2c-.09-.09-.26-.23-.26-.37s.6-.91.88-.91S150.79,111.78,151.07,112Zm1-3c.26,0,1.25.91,1.48,1.14s1.36,1.19,1.36,1.44-.6,1-1,1a.53.53,0,0,1-.37-.25c-.68-.71-1.36-1.39-2.1-2-.11-.09-.25-.2-.25-.34A1.39,1.39,0,0,1,152.09,109Z"/><path class="cls-1" d="M172.89,113.65c1.14,0,2.24-.06,2.36-.06.59,0,1.27.91,1.27,1.08a15.72,15.72,0,0,0-.42,1.7,16.87,16.87,0,0,1-7.63,12.44,26.64,26.64,0,0,1-5,2.66,2.48,2.48,0,0,1-.88.26c-.54,0-.93-.77-.93-1.08s.22-.4.48-.45c3.82-1.25,7.76-3.69,10-7.12a15.3,15.3,0,0,0,2.33-6.8,3.85,3.85,0,0,0,0-.48c0-.71-.65-.62-1.5-.62H162.13c-1.14,0-2.27.08-3.4.08-.6,0-.63-.36-.63-.85s.06-.82.63-.82c1.13,0,2.26.06,3.4.06Z"/><path class="cls-1" d="M189.3,128.3c0,1.41.06,2.8.06,4.22,0,.85-.09,1.22-.94,1.22s-.93-.37-.93-1.22c0-1.42.08-2.81.08-4.22V114.7a29.82,29.82,0,0,0-.11-3.57,3.43,3.43,0,0,1-.06-.54c0-.2.09-.31.29-.31.51,0,2,.28,2,.65,0,.2-.09.25-.2.37-.28.34-.2,2.83-.2,3.4Zm5.19-7.48c.42.31,2.24,1.73,2.24,2.15a1.2,1.2,0,0,1-.94,1,.84.84,0,0,1-.56-.28,35.14,35.14,0,0,0-4.48-3.6c-.23-.14-.51-.28-.51-.6s.48-1,.85-1S194,120.42,194.49,120.82Z"/><path class="cls-1" d="M207.58,117.64a.81.81,0,0,0,.88-.79v-2.72c0-.85-.06-1.3-.11-2.15,0-.09,0-.26,0-.37s.14-.28.34-.28,2,.08,2,.53c0,.17-.19.34-.31.46-.28.28-.22,1.39-.22,1.81v2.72a.79.79,0,0,0,.79.79h6.66a.8.8,0,0,0,.82-.87V116c0-1.08,0-3.34-.14-4.31a1.16,1.16,0,0,1,0-.34c0-.19.11-.28.31-.28a11.38,11.38,0,0,1,1.28.14c.22.06.59.09.59.37s-.06.2-.23.37-.22,2.58-.22,3.09,0,1,0,1.56v.08c0,.65.36,1,.79,1H222c1.13,0,2.26,0,3.4,0,.56,0,.62.25.62.82s0,.85-.62.85c-1.14,0-2.27-.06-3.4-.06h-1.22c-.91,0-.82,1-.82,1.19,0,2.58-.2,6.21-1.62,8.42s-3.12,3.12-5.35,4.25a.8.8,0,0,1-.37.11c-.31,0-1.16-.68-1.16-1s.36-.4.71-.54c5.66-2.49,6.17-5.84,6.17-11.5,0-.51-.25-.94-.79-.94h-6.63a.79.79,0,0,0-.79.8v4c0,.34,0,1.64,0,1.81,0,.66-.28.77-.88.77-.76,0-.82-.26-.82-.85s0-1.16,0-1.73v-4a.78.78,0,0,0-.79-.8h-1.19c-1.14,0-2.27.06-3.4.06-.57,0-.63-.34-.63-.85s.06-.82.63-.82c1.13,0,2.26,0,3.4,0Z"/><path class="cls-1" d="M247.11,120.53c1.11,0,2.21,0,3.32,0,.65,0,.71.2.71.9,0,.51,0,.85-.6.85-1.16,0-2.29,0-3.43,0h-13c-1.13,0-2.26,0-3.4,0-.59,0-.62-.31-.62-.85,0-.7.06-.9.71-.9,1.05,0,2.21,0,3.31,0Z"/><path class="cls-1" d="M260.35,125.49c0,4.34,1.3,4.11,6,4.11a48.8,48.8,0,0,0,8.41-.51,3.32,3.32,0,0,1,.68-.11c.31,0,.37.25.37.54s0,1.13-.54,1.24-3.48.26-4.19.29c-1.84.08-3.68.08-5.53.08s-5,.14-6.12-1.53c-.65-.93-.68-2.94-.68-4v-9.69a32.6,32.6,0,0,0-.14-3.71c0-.09,0-.14,0-.23s.12-.25.29-.25a2.83,2.83,0,0,1,.48.08c1,.26,1.5.34,1.5.62s-.34.37-.43.94c0,.34,0,2.07,0,2.55v3.31c0,.91,1,.8,1.36.8a20.86,20.86,0,0,0,5.44-.85,25.85,25.85,0,0,0,6-2.41.7.7,0,0,1,.45-.23c.23,0,.57.57,1.05,1.19a.85.85,0,0,1,.26.48c0,.17-.2.29-.37.29l-.29,0a.56.56,0,0,0-.22,0,1.35,1.35,0,0,0-.54.14,32.16,32.16,0,0,1-12,2.84h-.2a.81.81,0,0,0-.85.79ZM276,113.73a8.16,8.16,0,0,1,1.16,1.56c0,.31-.68.88-1.05.88-.2,0-.28-.17-.4-.31a22.82,22.82,0,0,0-1.81-2.3.6.6,0,0,1-.2-.34c0-.28.65-.82,1-.82S275.82,113.48,276,113.73Zm2.75-1.58a9,9,0,0,1,1.16,1.56c0,.34-.71.9-1.05.9s-.31-.17-.4-.31a26.36,26.36,0,0,0-1.81-2.29c-.09-.09-.23-.23-.23-.37s.68-.82,1-.82S278.54,111.89,278.77,112.15Z"/><path class="cls-1" d="M295.88,113.85c.46,0,1.79,0,2.16,0a2.33,2.33,0,0,1,.48-.06c.37,0,1.16.91,1.16,1.22a.88.88,0,0,1-.31.54,8.61,8.61,0,0,0-.74,1.08,47.69,47.69,0,0,1-4.16,5.86.78.78,0,0,0-.26.6.87.87,0,0,0,.45.73,36.74,36.74,0,0,1,5.19,3.94c.37.34,2.15,1.93,2.15,2.3s-.68,1.16-1.1,1.16c-.23,0-.37-.2-.51-.37A35.27,35.27,0,0,0,297,127.5c-1.14-1-2.36-1.84-3.6-2.69a.91.91,0,0,0-.57-.22c-.37,0-.59.28-1.05.73a34.29,34.29,0,0,1-7.34,5.1,2.82,2.82,0,0,1-.93.4,1.61,1.61,0,0,1-1.14-1.08c0-.31.4-.45.74-.59,5.53-2.41,10.34-7.2,13.49-12.24a3.32,3.32,0,0,0,.54-1.08c0-.51-.68-.42-1.25-.42h-7.05c-1.11,0-2.24,0-3.38,0-.59,0-.62-.28-.62-.82s0-.85.6-.85c1.13,0,2.26.06,3.4.06Z"/><path class="cls-1" d="M1.32,36.81a18.39,18.39,0,0,0,9.34,2.64c5.32,0,8.44-2.82,8.44-6.89,0-3.77-2.16-5.92-7.61-8C4.91,22.21.84,18.8.84,13.11.84,6.82,6.05,2.16,13.89,2.16a18.33,18.33,0,0,1,8.92,2L21.37,8.38a16,16,0,0,0-7.66-1.92c-5.51,0-7.6,3.3-7.6,6.05,0,3.77,2.45,5.63,8,7.78C21,22.93,24.42,26.22,24.42,32.14c0,6.23-4.61,11.62-14.12,11.62-3.89,0-8.14-1.14-10.3-2.58Z"/><path class="cls-1" d="M55.61,35.26c0,3,.06,5.62.24,7.9H51.18l-.3-4.73h-.12a10.92,10.92,0,0,1-9.58,5.39c-4.55,0-10-2.52-10-12.69V14.19h5.27v16c0,5.51,1.67,9.22,6.46,9.22a7.61,7.61,0,0,0,6.94-4.79,7.72,7.72,0,0,0,.48-2.7V14.19h5.27Z"/><path class="cls-1" d="M64.35,22c0-3-.06-5.45-.24-7.84h4.61L69,18.86h.18a10,10,0,0,1,9.1-5.33,8.56,8.56,0,0,1,8.2,5.8h.12a12,12,0,0,1,3.23-3.77,9.93,9.93,0,0,1,6.41-2c3.83,0,9.51,2.51,9.51,12.57V43.16h-5.15V26.76c0-5.57-2-8.92-6.28-8.92a6.82,6.82,0,0,0-6.23,4.79,8.63,8.63,0,0,0-.42,2.63v17.9H82.49V25.8c0-4.61-2-8-6-8-3.29,0-5.69,2.63-6.52,5.27a7.19,7.19,0,0,0-.42,2.57V43.16H64.35Z"/><path class="cls-1" d="M114.27,22c0-3-.06-5.45-.24-7.84h4.61l.24,4.67h.18a10,10,0,0,1,9.1-5.33,8.56,8.56,0,0,1,8.2,5.8h.12a12.14,12.14,0,0,1,3.23-3.77,10,10,0,0,1,6.41-2c3.83,0,9.52,2.51,9.52,12.57V43.16h-5.15V26.76c0-5.57-2-8.92-6.29-8.92A6.81,6.81,0,0,0,138,22.63a8.63,8.63,0,0,0-.42,2.63v17.9h-5.15V25.8c0-4.61-2-8-6-8-3.3,0-5.69,2.63-6.53,5.27a7.19,7.19,0,0,0-.42,2.57V43.16h-5.15Z"/><path class="cls-1" d="M167.13,29.63c.12,7.12,4.67,10.06,9.93,10.06a19,19,0,0,0,8-1.5L186,42a23.35,23.35,0,0,1-9.63,1.8c-8.92,0-14.25-5.87-14.25-14.61s5.15-15.62,13.59-15.62c9.46,0,12,8.32,12,13.65a19.88,19.88,0,0,1-.18,2.45Zm15.44-3.77c.06-3.35-1.37-8.56-7.3-8.56-5.33,0-7.66,4.91-8.08,8.56Z"/><path class="cls-1" d="M194.19,23.23c0-3.42-.07-6.35-.24-9h4.6l.18,5.68H199c1.32-3.89,4.49-6.34,8-6.34a5.71,5.71,0,0,1,1.5.18v5a7.9,7.9,0,0,0-1.79-.18c-3.72,0-6.35,2.81-7.07,6.76a14.84,14.84,0,0,0-.24,2.45V43.16h-5.2Z"/><path class="cls-1" d="M257.34,41.36A37.57,37.57,0,0,1,245,43.58c-6.11,0-11.14-1.56-15.09-5.33-3.47-3.35-5.63-8.74-5.63-15,.06-12,8.32-20.84,21.85-20.84a24.93,24.93,0,0,1,10.06,1.86L254.88,8.5A20.86,20.86,0,0,0,246,6.76c-9.81,0-16.22,6.11-16.22,16.23s6.17,16.28,15.56,16.28c3.42,0,5.75-.48,6.95-1.08v-12h-8.2V22h13.29Z"/><path class="cls-1" d="M271,6.05a3.26,3.26,0,0,1-6.52,0,3.21,3.21,0,0,1,3.29-3.3A3.13,3.13,0,0,1,271,6.05Zm-5.86,37.11v-29h5.26v29Z"/><path class="cls-1" d="M279.66,43.16v-25h-4.07v-4h4.07V12.81c0-4.07.9-7.78,3.36-10.12A10.07,10.07,0,0,1,290.08,0a12.23,12.23,0,0,1,4.49.84l-.72,4.07a7.87,7.87,0,0,0-3.35-.66c-4.49,0-5.63,3.95-5.63,8.38v1.56h7v4h-7v25Z"/><path class="cls-1" d="M303,5.87v8.32h7.54v4H303V33.82c0,3.59,1,5.63,3.95,5.63a11.66,11.66,0,0,0,3.05-.36l.24,3.95a12.86,12.86,0,0,1-4.67.72,7.27,7.27,0,0,1-5.68-2.22c-1.5-1.55-2-4.13-2-7.54V18.2h-4.49v-4h4.49V7.24Z"/></g></g></svg>